<svg xmlns="http://www.w3.org/2000/svg" xmlns:xlink="http://www.w3.org/1999/xlink" viewBox="0 0 83.551 78.085"><defs><style>.cls-1{isolation:isolate;}.cls-2{fill:#50197c;opacity:0.4;}.cls-18,.cls-2{mix-blend-mode:multiply;}.cls-3{fill:url(#_ÂÁ_Ï_ÌÌ_È_ËÂÌÚ_95);}.cls-4{fill:url(#_ÂÁ_Ï_ÌÌ_È_ËÂÌÚ_95-2);}.cls-5{fill:url(#_ÂÁ_Ï_ÌÌ_È_ËÂÌÚ_95-3);}.cls-6{fill:#2b45b8;}.cls-7{fill:url(#_ÂÁ_Ï_ÌÌ_È_ËÂÌÚ_198);}.cls-8{fill:url(#_ÂÁ_Ï_ÌÌ_È_ËÂÌÚ_72);}.cls-9{fill:url(#_ÂÁ_Ï_ÌÌ_È_ËÂÌÚ_72-2);}.cls-10{fill:url(#_ÂÁ_Ï_ÌÌ_È_ËÂÌÚ_72-3);}.cls-11{fill:url(#_ÂÁ_Ï_ÌÌ_È_ËÂÌÚ_61);}.cls-12{fill:url(#_ÂÁ_Ï_ÌÌ_È_ËÂÌÚ_72-4);}.cls-13{fill:url(#_ÂÁ_Ï_ÌÌ_È_ËÂÌÚ_61-2);}.cls-14{fill:url(#_ÂÁ_Ï_ÌÌ_È_ËÂÌÚ_72-5);}.cls-15{fill:url(#_ÂÁ_Ï_ÌÌ_È_ËÂÌÚ_61-3);}.cls-16{fill:#e0dbe1;}.cls-17{fill:url(#_ÂÁ_Ï_ÌÌ_È_ËÂÌÚ_95-4);}.cls-18{opacity:0.6;fill:url(#_ÂÁ_Ï_ÌÌ_È_ËÂÌÚ_87);}.cls-19{fill:url(#_ÂÁ_Ï_ÌÌ_È_ËÂÌÚ_198-2);}.cls-20{fill:#5d77e8;}.cls-21{fill:#788eff;}.cls-22{mix-blend-mode:color-dodge;}.cls-22,.cls-23{fill:url(#_ÂÁ_Ï_ÌÌ_È_ËÂÌÚ_81);}.cls-23{mix-blend-mode:screen;}</style><linearGradient id="_ÂÁ_Ï_ÌÌ_È_ËÂÌÚ_95" x1="39.825" y1="50.211" x2="56.943" y2="73.691" gradientUnits="userSpaceOnUse"><stop offset="0" stop-color="#5917ff"/><stop offset="0.159" stop-color="#6d22f8"/><stop offset="0.485" stop-color="#a13de7"/><stop offset="0.946" stop-color="#f569ca"/><stop offset="1" stop-color="#ff6ec7"/></linearGradient><linearGradient id="_ÂÁ_Ï_ÌÌ_È_ËÂÌÚ_95-2" x1="47.539" y1="44.798" x2="65.153" y2="68.957" xlink:href="#_ÂÁ_Ï_ÌÌ_È_ËÂÌÚ_95"/><linearGradient id="_ÂÁ_Ï_ÌÌ_È_ËÂÌÚ_95-3" x1="52.12" y1="41.409" x2="69.323" y2="65.005" xlink:href="#_ÂÁ_Ï_ÌÌ_È_ËÂÌÚ_95"/><linearGradient id="_ÂÁ_Ï_ÌÌ_È_ËÂÌÚ_198" x1="52.761" y1="46.209" x2="47.861" y2="47.74" gradientUnits="userSpaceOnUse"><stop offset="0" stop-color="#5d77e8"/><stop offset="1" stop-color="#2b45b8"/></linearGradient><linearGradient id="_ÂÁ_Ï_ÌÌ_È_ËÂÌÚ_72" x1="106.363" y1="3.104" x2="102.019" y2="10.627" gradientTransform="translate(-33.814)" gradientUnits="userSpaceOnUse"><stop offset="0" stop-color="#fbf8fc"/><stop offset="1" stop-color="#e8e3e9"/></linearGradient><linearGradient id="_ÂÁ_Ï_ÌÌ_È_ËÂÌÚ_72-2" x1="95.692" y1="6.21" x2="93.936" y2="9.251" xlink:href="#_ÂÁ_Ï_ÌÌ_È_ËÂÌÚ_72"/><linearGradient id="_ÂÁ_Ï_ÌÌ_È_ËÂÌÚ_72-3" x1="86.856" y1="1.743" x2="77.688" y2="17.624" xlink:href="#_ÂÁ_Ï_ÌÌ_È_ËÂÌÚ_72"/><linearGradient id="_ÂÁ_Ï_ÌÌ_È_ËÂÌÚ_61" x1="45.377" y1="9.822" x2="41.623" y2="16.324" gradientUnits="userSpaceOnUse"><stop offset="0" stop-color="#d7d1da"/><stop offset="1" stop-color="#c0b9c8"/></linearGradient><linearGradient id="_ÂÁ_Ï_ÌÌ_È_ËÂÌÚ_72-4" x1="74.172" y1="15.557" x2="64.499" y2="32.312" xlink:href="#_ÂÁ_Ï_ÌÌ_È_ËÂÌÚ_72"/><linearGradient id="_ÂÁ_Ï_ÌÌ_È_ËÂÌÚ_61-2" x1="33.856" y1="24.345" x2="29.614" y2="31.693" xlink:href="#_ÂÁ_Ï_ÌÌ_È_ËÂÌÚ_61"/><linearGradient id="_ÂÁ_Ï_ÌÌ_È_ËÂÌÚ_72-5" x1="63.815" y1="31.88" x2="56.639" y2="44.311" xlink:href="#_ÂÁ_Ï_ÌÌ_È_ËÂÌÚ_72"/><linearGradient id="_ÂÁ_Ï_ÌÌ_È_ËÂÌÚ_61-3" x1="23.138" y1="44.108" x2="18.933" y2="51.391" xlink:href="#_ÂÁ_Ï_ÌÌ_È_ËÂÌÚ_61"/><linearGradient id="_ÂÁ_Ï_ÌÌ_È_ËÂÌÚ_95-4" x1="60.403" y1="5.062" x2="49.281" y2="38.196" gradientTransform="translate(0 -0.002)" xlink:href="#_ÂÁ_Ï_ÌÌ_È_ËÂÌÚ_95"/><linearGradient id="_ÂÁ_Ï_ÌÌ_È_ËÂÌÚ_87" x1="61.65" y1="5.488" x2="50.534" y2="38.605" gradientUnits="userSpaceOnUse"><stop offset="0" stop-color="#3e10b3"/><stop offset="0.202" stop-color="#5219ba"/><stop offset="0.613" stop-color="#8632cc"/><stop offset="1" stop-color="#bc4bde"/></linearGradient><linearGradient id="_ÂÁ_Ï_ÌÌ_È_ËÂÌÚ_198-2" x1="53.768" y1="44.005" x2="53.768" y2="39.606" xlink:href="#_ÂÁ_Ï_ÌÌ_È_ËÂÌÚ_198"/><linearGradient id="_ÂÁ_Ï_ÌÌ_È_ËÂÌÚ_81" x1="64.736" y1="10.181" x2="44.718" y2="34.065" gradientUnits="userSpaceOnUse"><stop offset="0" stop-color="#842df1"/><stop offset="0.401" stop-color="#b346e1"/><stop offset="1" stop-color="#ff6ec7"/></linearGradient></defs><g class="cls-1"><g id="_0" data-name="0"><g id="_9" data-name="9"><path class="cls-2" d="M8.091,78.085a19.89,19.89,0,0,1-3.733-.325c-2.562-.5-4.1-1.532-4.329-2.908-.226-1.358.864-2.8,3.069-4.076a16.934,16.934,0,0,1,1.886-.925.113.113,0,0,0,.078-.109.12.12,0,0,0-.08-.118c-1.779-.8-2.2-1.855-2.232-2.594-.066-1.36,1.055-2.745,3.243-4.006a18.7,18.7,0,0,1,2.435-1.161.113.113,0,0,0,.079-.109.127.127,0,0,0-.068-.113,2.651,2.651,0,0,1-1.548-2.3c.008-1.26,1.076-2.541,3.089-3.7a27.852,27.852,0,0,1,12.9-3.067,21.381,21.381,0,0,1,2.862.181c.177-.119.364-.237.565-.353a22.224,22.224,0,0,1,9.562-2.446,9.863,9.863,0,0,1,2.763-2.211c3.835-2.211,9.84-3.639,15.3-3.639a23.477,23.477,0,0,1,4.444.388c3.007.584,4.81,1.786,5.077,3.382.263,1.574-1.016,3.262-3.6,4.753L21.01,75.011A27.877,27.877,0,0,1,8.092,78.085Z"/><path class="cls-3" d="M42.575,73.09a.209.209,0,0,1-.105-.391l9.952-5.745-6.185-3.571a.209.209,0,0,1-.105-.181V40.252a.21.21,0,0,1,.419,0V63.081l6.394,3.691a.209.209,0,0,1,.1.182.206.206,0,0,1-.1.181L42.679,73.062A.213.213,0,0,1,42.575,73.09Z"/><path class="cls-4" d="M66.064,69.719a.213.213,0,0,1-.1-.028L50.635,60.844a.21.21,0,0,1-.1-.182V37.713a.21.21,0,0,1,.419,0V60.542l15.22,8.786a.21.21,0,0,1,.077.286A.213.213,0,0,1,66.064,69.719Z"/><path class="cls-5" d="M61.638,62.083a.213.213,0,0,1-.1-.028l-6.5-3.752a.206.206,0,0,1-.1-.181V35.172a.21.21,0,0,1,.419,0V58l6.289,3.631,10.149-5.858a.212.212,0,0,1,.286.077.21.21,0,0,1-.077.286L61.743,62.055A.22.22,0,0,1,61.638,62.083Z"/><g class="cls-1"><path class="cls-6" d="M58.715,41.723,56.39,40.38l-7.729,4.491,2.326,1.342a1.324,1.324,0,0,0,1.335.13l7.729-4.491A1.323,1.323,0,0,1,58.715,41.723Z"/><path class="cls-7" d="M52.875,43.923l0,1.216c0,1.188-.848,1.673-1.884,1.074l-2.326-1.342-1.013,1.474,3.333,1.924c2.022,1.168,3.675.229,3.682-2.095l0-1.217Z"/></g><g class="cls-1"><path class="cls-8" d="M70.818,2.1c-1.753-1.018-4.141-.891-6.767.622a16.465,16.465,0,0,0-3.889,3.22l9.775,5.68a16.489,16.489,0,0,1,3.889-3.22c2.626-1.513,5.014-1.64,6.767-.621Z"/><path class="cls-9" d="M58.777,4.419c-1.172-.681-2.769-.6-4.53.419-.268.155-.536.334-.8.523l9.775,5.681c.263-.189.531-.368.8-.523,1.761-1.017,3.357-1.1,4.53-.419Z"/><path class="cls-10" d="M50.985.554C49.512-.3,47.507-.195,45.3,1.075c-4.042,2.334-7.372,7.773-7.976,12.731l9.775,5.68c.6-4.957,3.934-10.4,7.976-12.731,2.206-1.27,4.211-1.376,5.683-.52Z"/><path class="cls-11" d="M39.9,6.662a18.452,18.452,0,0,0-2.578,7.144l9.775,5.68a18.473,18.473,0,0,1,2.594-7.172Z"/><path class="cls-12" d="M37.325,13.806a7.974,7.974,0,0,0-3.31,1.121c-4.519,2.6-8.195,8.9-8.491,14.368l9.774,5.68c.3-5.465,3.973-11.765,8.492-14.368a7.988,7.988,0,0,1,3.31-1.121Z"/><path class="cls-13" d="M28.172,21.064A18.765,18.765,0,0,0,25.524,29.3l9.774,5.68a18.8,18.8,0,0,1,2.664-8.259Z"/><path class="cls-14" d="M25.524,29.3a7.645,7.645,0,0,0-3,1.04c-4.493,2.588-8.11,9.014-8.084,14.36.016,2.71.968,4.619,2.489,5.5l9.775,5.68c-1.521-.884-2.473-2.792-2.489-5.5C24.19,45.029,27.807,38.6,32.3,36.015a7.662,7.662,0,0,1,3-1.04Z"/><path class="cls-15" d="M24.216,50.376a15.329,15.329,0,0,1,.935-5.106l-9.785-5.649a15.307,15.307,0,0,0-.925,5.074c.016,2.71.968,4.619,2.489,5.5l9.775,5.68C25.184,54.994,24.232,53.086,24.216,50.376Z"/><path class="cls-16" d="M73.826,8.406a16.489,16.489,0,0,0-3.889,3.22C68.9,9.56,66.643,9.005,64.022,10.519c-.268.155-.536.334-.8.523-.336-4.829-3.864-6.753-8.147-4.287C51.034,9.089,47.7,14.529,47.1,19.486a7.988,7.988,0,0,0-3.31,1.121c-4.519,2.6-8.2,8.9-8.491,14.368a7.661,7.661,0,0,0-3,1.04c-4.493,2.588-8.11,9.014-8.084,14.361s3.694,7.567,8.187,4.979L73.94,31.429c5.344-3.079,9.645-10.727,9.611-17.081S79.166,5.329,73.826,8.406Z"/></g><path class="cls-17" d="M42.783,25.8v7.73c0,.474.385.636.858.363L65.146,21.477A1.781,1.781,0,0,0,66,20.124V12.393c0-.474-.384-.636-.858-.363L43.641,24.446A1.783,1.783,0,0,0,42.783,25.8Z"/><path class="cls-18" d="M65.507,11.908a.576.576,0,0,1,.052.228v7.731A1.781,1.781,0,0,1,64.7,21.22L43.2,33.636a.912.912,0,0,1-.36.123c.111.281.423.354.8.134L65.146,21.477A1.781,1.781,0,0,0,66,20.124V12.393C66,12.049,65.8,11.876,65.507,11.908Z"/><g class="cls-1"><polygon class="cls-19" points="54.665 41.26 52.867 40.215 52.87 43.94 54.668 44.985 54.665 41.26"/><polygon class="cls-20" points="52.012 42.792 50.214 41.747 56.7 28.259 58.498 29.304 52.012 42.792"/><path class="cls-21" d="M62.386,36.8l2.653-1.532L58.5,29.3,52.012,42.792l2.653-1.532,0,4.914a2.567,2.567,0,0,1-1.071,2.349l7.729-4.491a2.563,2.563,0,0,0,1.07-2.349Z"/></g><path class="cls-22" d="M44.746,30.792V25.551a.323.323,0,0,1,.183-.289l2.093-1.208a1.306,1.306,0,0,1,1.063-.248q.375.15.375.83v.357a1.8,1.8,0,0,1-.689,1.357.651.651,0,0,1,.558-.039q.21.111.21.538v.523a2.29,2.29,0,0,1-.375,1.263,3.008,3.008,0,0,1-1.055.975l-2.18,1.259C44.807,30.94,44.746,30.914,44.746,30.792Zm1.2-3.843.89-.513a1.227,1.227,0,0,0,.409-.355.8.8,0,0,0,.131-.463v-.34q0-.27-.126-.315t-.406.116l-.9.518a.17.17,0,0,0-.1.152v1.16C45.853,26.973,45.885,26.986,45.949,26.949Zm0,2.406.976-.563a1.224,1.224,0,0,0,.415-.357.818.818,0,0,0,.126-.461v-.506c0-.18-.043-.282-.13-.308a.653.653,0,0,0-.428.134l-.959.553a.171.171,0,0,0-.1.152v1.316C45.853,29.379,45.885,29.392,45.949,29.355Zm4.22-1.512-.837.484c-.1.06-.139.019-.1-.123l1.377-6.036a.543.543,0,0,1,.262-.334l1.16-.67c.145-.083.232-.073.261.033l1.378,4.445a.188.188,0,0,1-.1.243l-.837.483c-.064.037-.108.05-.131.037s-.04-.051-.052-.114l-.244-.819-1.7.982-.245,1.1a.455.455,0,0,1-.056.176A.338.338,0,0,1,50.169,27.843Zm1.265-5.281-.628,2.882L52.1,24.7l-.627-2.157Zm3.914,2.291-.723.418c-.122.071-.183.045-.183-.077V19.953a.323.323,0,0,1,.183-.289l.654-.377c.122-.071.2-.077.244-.019l1.761,2.288c.035-.021.035-3.264.035-3.264A.323.323,0,0,1,57.5,18l.724-.418q.183-.105.183.078V22.9a.322.322,0,0,1-.183.289l-.637.367c-.127.074-.22.07-.279-.013l-1.743-2.237c-.035.02-.035,3.255-.035,3.255A.322.322,0,0,1,55.348,24.853ZM60.467,21.9l-.741.428c-.122.071-.183.045-.183-.077V17.008a.323.323,0,0,1,.183-.289l.741-.427c.122-.071.183-.045.183.077v2.485c.064-.177.154-.408.288-.707l1.325-2.709a.823.823,0,0,1,.34-.38l.855-.493c.064-.037.1-.041.118-.011s0,.086-.048.171l-1.657,3.25L63.719,19.8a.123.123,0,0,1,.022.148.388.388,0,0,1-.161.15l-.637.367q-.3.177-.41.054L61.2,19.156l-.549.962v1.491A.322.322,0,0,1,60.467,21.9Z"/><path class="cls-23" d="M44.746,30.792V25.551a.323.323,0,0,1,.183-.289l2.093-1.208a1.306,1.306,0,0,1,1.063-.248q.375.15.375.83v.357a1.8,1.8,0,0,1-.689,1.357.651.651,0,0,1,.558-.039q.21.111.21.538v.523a2.29,2.29,0,0,1-.375,1.263,3.008,3.008,0,0,1-1.055.975l-2.18,1.259C44.807,30.94,44.746,30.914,44.746,30.792Zm1.2-3.843.89-.513a1.227,1.227,0,0,0,.409-.355.8.8,0,0,0,.131-.463v-.34q0-.27-.126-.315t-.406.116l-.9.518a.17.17,0,0,0-.1.152v1.16C45.853,26.973,45.885,26.986,45.949,26.949Zm0,2.406.976-.563a1.224,1.224,0,0,0,.415-.357.818.818,0,0,0,.126-.461v-.506c0-.18-.043-.282-.13-.308a.653.653,0,0,0-.428.134l-.959.553a.171.171,0,0,0-.1.152v1.316C45.853,29.379,45.885,29.392,45.949,29.355Zm4.22-1.512-.837.484c-.1.06-.139.019-.1-.123l1.377-6.036a.543.543,0,0,1,.262-.334l1.16-.67c.145-.083.232-.073.261.033l1.378,4.445a.188.188,0,0,1-.1.243l-.837.483c-.064.037-.108.05-.131.037s-.04-.051-.052-.114l-.244-.819-1.7.982-.245,1.1a.455.455,0,0,1-.056.176A.338.338,0,0,1,50.169,27.843Zm1.265-5.281-.628,2.882L52.1,24.7l-.627-2.157Zm3.914,2.291-.723.418c-.122.071-.183.045-.183-.077V19.953a.323.323,0,0,1,.183-.289l.654-.377c.122-.071.2-.077.244-.019l1.761,2.288c.035-.021.035-3.264.035-3.264A.323.323,0,0,1,57.5,18l.724-.418q.183-.105.183.078V22.9a.322.322,0,0,1-.183.289l-.637.367c-.127.074-.22.07-.279-.013l-1.743-2.237c-.035.02-.035,3.255-.035,3.255A.322.322,0,0,1,55.348,24.853ZM60.467,21.9l-.741.428c-.122.071-.183.045-.183-.077V17.008a.323.323,0,0,1,.183-.289l.741-.427c.122-.071.183-.045.183.077v2.485c.064-.177.154-.408.288-.707l1.325-2.709a.823.823,0,0,1,.34-.38l.855-.493c.064-.037.1-.041.118-.011s0,.086-.048.171l-1.657,3.25L63.719,19.8a.123.123,0,0,1,.022.148.388.388,0,0,1-.161.15l-.637.367q-.3.177-.41.054L61.2,19.156l-.549.962v1.491A.322.322,0,0,1,60.467,21.9Z"/></g></g></g></svg>