<svg xmlns="http://www.w3.org/2000/svg" xmlns:xlink="http://www.w3.org/1999/xlink" viewBox="0 0 120.863 70.429"><defs><style>.cls-1{fill:none;}.cls-2{isolation:isolate;}.cls-3{fill:#50197c;}.cls-17,.cls-3{opacity:0.4;}.cls-14,.cls-27,.cls-3,.cls-31,.cls-33,.cls-35,.cls-37,.cls-39,.cls-41,.cls-43,.cls-45,.cls-47,.cls-49{mix-blend-mode:multiply;}.cls-4{fill:#d8d2b8;}.cls-5{fill:#c4bea3;}.cls-6{fill:#fff9e1;}.cls-7{fill:#687a51;}.cls-8{fill:#a5aa9f;}.cls-9{fill:#f9f8f2;}.cls-10{fill:#e5e2d8;}.cls-11{fill:#788eff;}.cls-12{fill:#576fd3;}.cls-13{clip-path:url(#clip-path);}.cls-14{opacity:0.8;}.cls-15{fill:#e0dbe1;}.cls-16{fill:#f0f2ff;}.cls-17{fill:#3452a5;}.cls-18{fill:#ffc440;}.cls-19,.cls-29{opacity:0.6;}.cls-20{fill:#d88c1d;}.cls-21{fill:#f4ac1c;}.cls-22{fill:#b53333;}.cls-23{fill:#f4a9ff;}.cls-24{fill:#7621d8;}.cls-25{fill:url(#_ÂÁ_Ï_ÌÌ_È_ËÂÌÚ_177);}.cls-26{fill:url(#_ÂÁ_Ï_ÌÌ_È_ËÂÌÚ_34);}.cls-27,.cls-31,.cls-33,.cls-35,.cls-37,.cls-39,.cls-41,.cls-43,.cls-45,.cls-47,.cls-49{opacity:0.2;}.cls-27{fill:url(#linear-gradient);}.cls-28{fill:#ffce45;}.cls-29{fill:#e0890b;}.cls-30{fill:url(#_ÂÁ_Ï_ÌÌ_È_ËÂÌÚ_34-2);}.cls-31{fill:url(#linear-gradient-2);}.cls-32{fill:url(#_ÂÁ_Ï_ÌÌ_È_ËÂÌÚ_34-3);}.cls-33{fill:url(#linear-gradient-3);}.cls-34{fill:url(#_ÂÁ_Ï_ÌÌ_È_ËÂÌÚ_34-4);}.cls-35{fill:url(#linear-gradient-4);}.cls-36{fill:url(#_ÂÁ_Ï_ÌÌ_È_ËÂÌÚ_34-5);}.cls-37{fill:url(#linear-gradient-5);}.cls-38{fill:url(#_ÂÁ_Ï_ÌÌ_È_ËÂÌÚ_34-6);}.cls-39{fill:url(#linear-gradient-6);}.cls-40{fill:url(#_ÂÁ_Ï_ÌÌ_È_ËÂÌÚ_34-7);}.cls-41{fill:url(#linear-gradient-7);}.cls-42{fill:url(#_ÂÁ_Ï_ÌÌ_È_ËÂÌÚ_34-8);}.cls-43{fill:url(#linear-gradient-8);}.cls-44{fill:url(#_ÂÁ_Ï_ÌÌ_È_ËÂÌÚ_34-9);}.cls-45{fill:url(#linear-gradient-9);}.cls-46{fill:url(#_ÂÁ_Ï_ÌÌ_È_ËÂÌÚ_34-10);}.cls-47{fill:url(#linear-gradient-10);}.cls-48{fill:url(#_ÂÁ_Ï_ÌÌ_È_ËÂÌÚ_34-11);}.cls-49{fill:url(#linear-gradient-11);}</style><clipPath id="clip-path"><polygon class="cls-1" points="83.24 18.244 34.206 46.554 9.982 32.569 59.017 4.259 83.24 18.244"/></clipPath><linearGradient id="_ÂÁ_Ï_ÌÌ_È_ËÂÌÚ_177" x1="31.427" y1="-8.765" x2="88.707" y2="34.943" gradientUnits="userSpaceOnUse"><stop offset="0" stop-color="#7626f5"/><stop offset="0.254" stop-color="#8328f6"/><stop offset="0.726" stop-color="#a62ffa"/><stop offset="1" stop-color="#bd33fc"/></linearGradient><linearGradient id="_ÂÁ_Ï_ÌÌ_È_ËÂÌÚ_34" x1="21.08" y1="29.575" x2="32.98" y2="29.575" gradientUnits="userSpaceOnUse"><stop offset="0" stop-color="#d88000"/><stop offset="1" stop-color="#ffac33"/></linearGradient><linearGradient id="linear-gradient" x1="21.227" y1="31.641" x2="32.855" y2="31.641" gradientUnits="userSpaceOnUse"><stop offset="0" stop-color="#d88f25"/><stop offset="1" stop-color="#eba136"/></linearGradient><linearGradient id="_ÂÁ_Ï_ÌÌ_È_ËÂÌÚ_34-2" x1="21.058" y1="27.598" x2="32.959" y2="27.598" xlink:href="#_ÂÁ_Ï_ÌÌ_È_ËÂÌÚ_34"/><linearGradient id="linear-gradient-2" x1="21.205" y1="29.664" x2="32.833" y2="29.664" xlink:href="#linear-gradient"/><linearGradient id="_ÂÁ_Ï_ÌÌ_È_ËÂÌÚ_34-3" x1="21.069" y1="26.038" x2="32.969" y2="26.038" xlink:href="#_ÂÁ_Ï_ÌÌ_È_ËÂÌÚ_34"/><linearGradient id="linear-gradient-3" x1="21.216" y1="28.103" x2="32.844" y2="28.103" xlink:href="#linear-gradient"/><linearGradient id="_ÂÁ_Ï_ÌÌ_È_ËÂÌÚ_34-4" x1="21.08" y1="24.477" x2="32.98" y2="24.477" xlink:href="#_ÂÁ_Ï_ÌÌ_È_ËÂÌÚ_34"/><linearGradient id="linear-gradient-4" x1="21.227" y1="26.542" x2="32.855" y2="26.542" xlink:href="#linear-gradient"/><linearGradient id="_ÂÁ_Ï_ÌÌ_È_ËÂÌÚ_34-5" x1="21.587" y1="22.935" x2="33.487" y2="22.935" xlink:href="#_ÂÁ_Ï_ÌÌ_È_ËÂÌÚ_34"/><linearGradient id="linear-gradient-5" x1="21.734" y1="25" x2="33.361" y2="25" xlink:href="#linear-gradient"/><linearGradient id="_ÂÁ_Ï_ÌÌ_È_ËÂÌÚ_34-6" x1="21.536" y1="21.251" x2="33.436" y2="21.251" xlink:href="#_ÂÁ_Ï_ÌÌ_È_ËÂÌÚ_34"/><linearGradient id="linear-gradient-6" x1="21.683" y1="23.317" x2="33.31" y2="23.317" xlink:href="#linear-gradient"/><linearGradient id="_ÂÁ_Ï_ÌÌ_È_ËÂÌÚ_34-7" x1="32.84" y1="30.364" x2="44.74" y2="30.364" xlink:href="#_ÂÁ_Ï_ÌÌ_È_ËÂÌÚ_34"/><linearGradient id="linear-gradient-7" x1="32.987" y1="32.43" x2="44.615" y2="32.43" xlink:href="#linear-gradient"/><linearGradient id="_ÂÁ_Ï_ÌÌ_È_ËÂÌÚ_34-8" x1="32.301" y1="28.387" x2="44.201" y2="28.387" xlink:href="#_ÂÁ_Ï_ÌÌ_È_ËÂÌÚ_34"/><linearGradient id="linear-gradient-8" x1="32.448" y1="30.453" x2="44.076" y2="30.453" xlink:href="#linear-gradient"/><linearGradient id="_ÂÁ_Ï_ÌÌ_È_ËÂÌÚ_34-9" x1="32.312" y1="26.827" x2="44.212" y2="26.827" xlink:href="#_ÂÁ_Ï_ÌÌ_È_ËÂÌÚ_34"/><linearGradient id="linear-gradient-9" x1="32.459" y1="28.892" x2="44.086" y2="28.892" xlink:href="#linear-gradient"/><linearGradient id="_ÂÁ_Ï_ÌÌ_È_ËÂÌÚ_34-10" x1="26.472" y1="35.009" x2="38.372" y2="35.009" xlink:href="#_ÂÁ_Ï_ÌÌ_È_ËÂÌÚ_34"/><linearGradient id="linear-gradient-10" x1="26.619" y1="37.074" x2="38.247" y2="37.074" xlink:href="#linear-gradient"/><linearGradient id="_ÂÁ_Ï_ÌÌ_È_ËÂÌÚ_34-11" x1="26.256" y1="33.448" x2="38.156" y2="33.448" xlink:href="#_ÂÁ_Ï_ÌÌ_È_ËÂÌÚ_34"/><linearGradient id="linear-gradient-11" x1="26.403" y1="35.514" x2="38.031" y2="35.514" xlink:href="#linear-gradient"/></defs><g class="cls-2"><g id="_0" data-name="0"><g id="_6" data-name="6"><polygon class="cls-3" points="26.415 26.893 0 42.178 20.45 53.985 34.212 53.985 26.415 26.893"/><g id="Axonometric_Cube" data-name="Axonometric Cube"><polygon id="Cube_face_-_left" data-name="Cube face - left" class="cls-4" points="34.198 53.982 83.242 25.667 83.242 18.245 34.198 29.597 34.198 53.982"/><polygon id="Cube_face_-_right" data-name="Cube face - right" class="cls-5" points="9.964 39.99 34.198 53.982 34.198 29.597 9.964 32.569 9.964 39.99"/></g><polygon class="cls-6" points="83.24 18.244 34.206 46.554 9.982 32.569 59.017 4.259 83.24 18.244"/><path class="cls-7" d="M11.807,32.851,33.615,45.442,81.314,17.9,59.505,5.312Zm64.85-16.923c1.027.593,1.012,1.563-.034,2.167L33.948,42.734a4.149,4.149,0,0,1-3.754.019L16.565,34.885c-1.027-.593-1.012-1.564.034-2.167L59.274,8.079a4.148,4.148,0,0,1,3.755-.019Z"/><path class="cls-8" d="M35.724,19.12c-4.746,2.74-3.745,7.776,2.23,11.226s14.7,4.028,19.444,1.288,3.745-7.775-2.231-11.225S40.469,16.381,35.724,19.12ZM57.277,31.564c-4.678,2.7-13.29,2.122-19.2-1.289s-6.911-8.384-2.233-11.084,13.29-2.123,19.2,1.289S61.954,28.864,57.277,31.564Z"/><path class="cls-8" d="M54.8,20.622c5.784,3.34,6.786,8.176,2.237,10.8s-12.925,2.048-18.709-1.292-6.786-8.175-2.238-10.8S49.012,17.283,54.8,20.622Z"/><path class="cls-6" d="M53.6,21.315c4.942,2.853,5.8,6.985,1.912,9.228s-11.042,1.749-15.983-1.1-5.8-6.984-1.911-9.227S48.655,18.462,53.6,21.315Z"/><polygon class="cls-7" points="61.962 19.943 60.326 20.888 60.963 21.256 62.599 20.311 61.962 19.943"/><polygon class="cls-7" points="62.827 19.444 63.464 19.812 70.504 15.747 69.867 15.379 62.827 19.444"/><polygon class="cls-7" points="30.394 38.169 28.757 39.114 29.394 39.482 31.031 38.537 30.394 38.169"/><polygon class="cls-7" points="31.258 37.67 31.895 38.038 38.935 33.973 38.298 33.605 31.258 37.67"/><polygon class="cls-7" points="17.875 33.734 18.751 34.24 27.255 29.33 26.379 28.825 17.875 33.734"/><polygon class="cls-8" points="52.289 13.865 53.165 14.371 61.668 9.462 60.793 8.956 52.289 13.865"/><path class="cls-7" d="M71.521,19.458l-1.913-1.1-.056,0-.666.532.1.058.249-.094a.264.264,0,0,1,.279.027l1.5.869c.105.06.091.094.018.144l-.206.142.124.071,1.184-.684-.124-.071-.245.119A.224.224,0,0,1,71.521,19.458Z"/><path class="cls-7" d="M71.189,17.411c-.62.358-.295.783.3,1.127a1.955,1.955,0,0,0,1.954.174c.62-.358.3-.783-.3-1.127A1.956,1.956,0,0,0,71.189,17.411Zm2.105,1.215c-.272.157-.908-.176-1.28-.39s-.947-.582-.675-.739.908.176,1.279.39S73.566,18.469,73.294,18.626Z"/><path class="cls-7" d="M73.048,16.337c-.621.359-.3.784.3,1.128a1.955,1.955,0,0,0,1.954.174c.62-.358.3-.783-.3-1.128A1.958,1.958,0,0,0,73.048,16.337Zm2.105,1.216c-.272.157-.908-.176-1.28-.39s-.947-.582-.675-.739.908.176,1.279.39S75.425,17.4,75.153,17.553Z"/><path class="cls-6" d="M55.261,9.769,53.98,9.03a5.671,5.671,0,0,0-.483.357l.067.039.167-.063a.175.175,0,0,1,.186.018l1.009.582c.069.04.06.063.011.1l-.138.1.083.048.793-.458L55.592,9.7l-.164.08A.15.15,0,0,1,55.261,9.769Z"/><path class="cls-6" d="M55.039,8.4c-.416.24-.2.525.2.756a1.314,1.314,0,0,0,1.309.116c.415-.24.2-.525-.2-.755A1.312,1.312,0,0,0,55.039,8.4Zm1.409.814c-.182.105-.608-.117-.857-.261s-.634-.39-.452-.5.608.118.857.262S56.63,9.107,56.448,9.212Z"/><path class="cls-6" d="M56.283,7.68c-.415.24-.2.524.2.755a1.31,1.31,0,0,0,1.308.116c.416-.239.2-.524-.2-.755A1.314,1.314,0,0,0,56.283,7.68Zm1.41.814c-.182.105-.608-.118-.857-.262s-.634-.389-.452-.494.608.117.856.261S57.875,8.388,57.693,8.494Z"/><path class="cls-6" d="M17.972,31.3l-1.281-.74a5.894,5.894,0,0,0-.483.358l.067.039.167-.064a.179.179,0,0,1,.187.018l1.008.583c.07.04.06.063.012.1l-.139.095.083.048.794-.458-.083-.048-.164.08A.152.152,0,0,1,17.972,31.3Z"/><path class="cls-6" d="M17.75,29.927c-.416.24-.2.525.2.755a1.309,1.309,0,0,0,1.308.117c.415-.24.2-.525-.2-.755A1.31,1.31,0,0,0,17.75,29.927Zm1.409.814c-.182.105-.608-.118-.856-.261s-.635-.39-.453-.5.608.118.857.261S19.342,30.636,19.159,30.741Z"/><path class="cls-6" d="M19,29.208c-.416.24-.2.525.2.756a1.314,1.314,0,0,0,1.309.116c.415-.24.2-.524-.2-.755A1.312,1.312,0,0,0,19,29.208Zm1.409.814c-.182.105-.608-.117-.857-.261s-.634-.389-.452-.5.608.118.857.262S20.586,29.917,20.4,30.022Z"/><path class="cls-6" d="M35.789,42.4l.166.1c.134.078.132.2,0,.283l-1.591.918a.542.542,0,0,1-.49,0l-.166-.1c-.125-.073-.133-.19-.016-.27l.212-.146-1.954-1.129-.286.108a.549.549,0,0,1-.433-.024l-.135-.078c-.119-.069-.133-.178-.032-.258l.894-.713a.5.5,0,0,1,.261-.084l.074,0a.51.51,0,0,1,.266.057l2.513,1.451.253-.123A.547.547,0,0,1,35.789,42.4ZM39.8,38.584c1.116.645,1.262,1.3.4,1.8a2.743,2.743,0,0,1-2.212.164c.431.466.345.914-.284,1.277a3.091,3.091,0,0,1-3.113-.231c-1.117-.644-1.262-1.3-.4-1.8a2.739,2.739,0,0,1,2.212-.164c-.431-.466-.345-.914.285-1.277A3.093,3.093,0,0,1,39.8,38.584Z"/><path class="cls-8" d="M34.877,42.684,32.308,41.2l-.075,0-.894.713.135.078.334-.126a.356.356,0,0,1,.374.036L34.2,43.072c.14.081.122.127.024.194l-.277.19.166.1,1.591-.918-.167-.1-.328.16A.3.3,0,0,1,34.877,42.684Z"/><path class="cls-8" d="M34.431,39.935c-.833.481-.4,1.052.405,1.514a2.627,2.627,0,0,0,2.623.234c.833-.481.4-1.052-.405-1.515A2.629,2.629,0,0,0,34.431,39.935Zm2.827,1.632c-.365.211-1.22-.236-1.719-.524s-1.272-.781-.907-.992,1.219.236,1.718.524S37.623,41.356,37.258,41.567Z"/><path class="cls-8" d="M36.927,38.494c-.833.481-.4,1.052.405,1.514a2.627,2.627,0,0,0,2.623.234c.833-.481.4-1.052-.4-1.515A2.631,2.631,0,0,0,36.927,38.494Zm2.827,1.632c-.365.211-1.219-.236-1.718-.524s-1.273-.781-.907-.992,1.219.236,1.718.524S40.119,39.915,39.754,40.126Z"/><path class="cls-8" d="M58.621,14.227c-1.492.862-1.514,2.246-.048,3.092a5.917,5.917,0,0,0,5.355-.028c1.492-.861,1.513-2.245.048-3.091A5.92,5.92,0,0,0,58.621,14.227Zm5.018,2.9a5.275,5.275,0,0,1-4.773.025c-1.306-.755-1.287-1.988.043-2.756a5.275,5.275,0,0,1,4.773-.025C64.988,15.123,64.969,16.357,63.639,17.125Z"/><path class="cls-8" d="M27.045,32.458c-1.492.861-1.513,2.245-.048,3.091a5.92,5.92,0,0,0,5.355-.027c1.492-.862,1.513-2.246.048-3.092A5.917,5.917,0,0,0,27.045,32.458Zm5.019,2.9a5.275,5.275,0,0,1-4.773.025c-1.306-.754-1.287-1.988.042-2.756a5.272,5.272,0,0,1,4.773-.024C33.412,33.354,33.393,34.587,32.064,35.355Z"/><path class="cls-7" d="M60.97,14.526a.657.657,0,0,1-.548.327l-.142.019a.663.663,0,0,0-.543.313l-.032.082a.661.661,0,0,1-.543.314c-.266.035-.355.208-.182.308l1.376.8a1.011,1.011,0,0,0,.5.117l2.127-.011.078-.045.019-1.227a.344.344,0,0,0-.2-.289L61.5,14.435C61.326,14.335,61.026,14.387,60.97,14.526Z"/><path class="cls-7" d="M29.379,32.765a.656.656,0,0,1-.548.327l-.141.019a.661.661,0,0,0-.543.313l-.033.082a.659.659,0,0,1-.543.313c-.265.036-.355.209-.181.309l1.376.8a1.009,1.009,0,0,0,.5.117l2.126-.011.078-.045.019-1.228a.344.344,0,0,0-.2-.288l-1.376-.794C29.735,32.574,29.435,32.625,29.379,32.765Z"/><path class="cls-7" d="M46.365,23.911,45.3,24.2l-3.436-1.984a4.913,4.913,0,0,1,2.993.16,1.307,1.307,0,0,0,1.1-.113c.323-.186,1.04-.85.24-1.312-.7-.4-2.8-.443-5.095.822L39.763,21l-.95.549,1.334.77c-1.886,1.166-2.481,2.665-.38,3.879,1.551.895,3.539.729,5.635.174l1.2-.326,3.919,2.263c-.407.157-1.352.337-3.531-.2a1.566,1.566,0,0,0-1.281.123.779.779,0,0,0-.021,1.4c.567.327,2.647.7,5.6-.885l1.735,1,.95-.549-1.734-1c1.562-.9,2.834-2.658.449-4.054C50.837,23.1,48.832,23.258,46.365,23.911Zm-2.382.625a3.831,3.831,0,0,1-3.012-.033c-.834-.481-.873-1.21-.056-1.739Zm7.489,3.226-3.6-2.08a4.831,4.831,0,0,1,3.6.292C52.449,26.542,52.372,27.242,51.472,27.762Z"/><polygon class="cls-8" points="66.776 22.524 62.605 24.932 62.356 24.788 66.527 22.38 66.776 22.524"/><polygon class="cls-8" points="45.639 34.727 41.468 37.135 41.22 36.992 45.391 34.583 45.639 34.727"/><polygon class="cls-9" points="39.86 15.303 29.424 21.329 53.67 35.328 64.107 29.302 39.86 15.303"/><polygon class="cls-10" points="64.107 36.779 53.668 42.801 53.668 35.323 64.107 29.302 64.107 36.779"/><polygon class="cls-11" points="62.958 29.965 38.712 15.967 40.018 15.212 64.264 29.211 64.264 36.688 62.958 37.442 62.958 29.965"/><polygon class="cls-11" points="53.459 35.449 29.213 21.451 30.52 20.696 54.766 34.695 54.766 42.172 53.459 42.926 53.459 35.449"/><polygon class="cls-12" points="62.958 29.965 64.264 29.211 64.264 36.688 62.958 37.442 62.958 29.965"/><polygon class="cls-12" points="53.459 35.449 54.766 34.695 54.766 42.172 53.459 42.926 53.459 35.449"/><g class="cls-13"><g class="cls-14"><path class="cls-5" d="M36.4,33.225a9.154,9.154,0,0,0-5.665-.863,9.173,9.173,0,0,0-5.73.9c-2.316,1.35-2.307,3.523.02,4.853a8.511,8.511,0,0,0,4.164.977H32.2a8.539,8.539,0,0,0,4.216-1.011C38.732,36.728,38.723,34.555,36.4,33.225Z"/><path class="cls-5" d="M29.314,27.7a9.155,9.155,0,0,0-5.665-.863,9.168,9.168,0,0,0-5.731.9c-2.316,1.35-2.307,3.522.02,4.853a8.516,8.516,0,0,0,4.164.976h3.015a8.545,8.545,0,0,0,4.217-1.01C31.65,31.2,31.64,29.026,29.314,27.7Z"/></g></g><path class="cls-3" d="M94.842,31.435a4.395,4.395,0,0,0-2.387.5L53.583,54.426c-1.118.647-1.238,1.624-.268,2.182L76.6,70.018a3.6,3.6,0,0,0,2.041.381L96.883,31.776A3.6,3.6,0,0,0,94.842,31.435Z"/><path class="cls-15" d="M120.8,46.19a1.545,1.545,0,0,1-.914,1.212L81.014,69.893a4.2,4.2,0,0,1-3.78.16L53.95,56.642A1.082,1.082,0,0,1,53.3,55.6c.024-.218.029-.41.06-.67a1.625,1.625,0,0,1,.908-1.117L93.143,31.324a4.2,4.2,0,0,1,3.78-.159l23.284,13.41a1.144,1.144,0,0,1,.65.885C120.875,45.727,120.8,45.963,120.8,46.19Z"/><path class="cls-11" d="M93.143,31.324,54.271,53.815C53.153,54.462,53.034,55.439,54,56l23.283,13.41a4.2,4.2,0,0,0,3.78-.159l38.872-22.491c1.118-.646,1.238-1.623.268-2.182L96.923,31.165A4.2,4.2,0,0,0,93.143,31.324Z"/><path class="cls-16" d="M87.71,37.336a1.017,1.017,0,0,0-.567.7.671.671,0,0,0,.4.654l1.539.885a2.608,2.608,0,0,0,2.339-.1L97,36.247a1.021,1.021,0,0,0,.567-.7.672.672,0,0,0-.4-.655l-1.54-.886a2.612,2.612,0,0,0-2.339.1Z"/><path class="cls-17" d="M75.119,63.811a1.017,1.017,0,0,0-.567.7.671.671,0,0,0,.4.654l2.955,1.7a2.6,2.6,0,0,0,2.338-.1l6.083-3.519a1.018,1.018,0,0,0,.567-.7.672.672,0,0,0-.4-.655L83.54,60.2a2.6,2.6,0,0,0-2.338.1Z"/><path class="cls-18" d="M86.105,63.306l-6.082,3.517a2.146,2.146,0,0,1-1.931.082l-2.956-1.7c-.495-.285-.434-.784.137-1.114l6.081-3.518a2.148,2.148,0,0,1,1.932-.081l2.955,1.7C86.737,62.476,86.676,62.975,86.105,63.306Z"/><g class="cls-19"><path class="cls-20" d="M82.834,61.2l-1.915,1.108a2.66,2.66,0,0,0-2.156.173c-.626.362-.735.894-.3,1.245L76.453,64.89l-1.277-.736a1.217,1.217,0,0,0-.152.124l4.67,2.689a1.826,1.826,0,0,0,.213-.087l-1.158-.668,2.019-1.168a2.687,2.687,0,0,0,2.112-.193c.611-.354.732-.869.33-1.219l1.92-1.111,1.151.663a1.007,1.007,0,0,0,.136-.132l-4.624-2.663a2,2,0,0,0-.229.079Zm-2.242,3.765-2,1.157-1.98-1.14,2-1.155,1.95,1.123C80.569,64.954,80.581,64.958,80.592,64.964Zm.359-.026,2.076-1.2c.318.3.2.726-.305,1.022A2.306,2.306,0,0,1,80.951,64.938Zm-.214-2.526L78.65,63.619c-.354-.3-.255-.744.272-1.048A2.283,2.283,0,0,1,80.737,62.412Zm2.125,1.2c.026.019-2.088,1.242-2.088,1.242-.033-.015-1.983-1.138-1.983-1.138l2.121-1.227Zm.13-2.326,1.98,1.14-1.9,1.1c-.027-.019-1.976-1.142-1.976-1.142Z"/></g><ellipse class="cls-21" cx="113.073" cy="45.74" rx="2.452" ry="1.416"/><ellipse class="cls-22" cx="109.085" cy="48.043" rx="2.452" ry="1.416"/><path class="cls-23" d="M67.246,59.541l-.374.215c-.169.1-.253.2-.253.317s.085.22.257.319l1.3.748a1.091,1.091,0,0,0,1.1,0l.374-.215c.169-.1.254-.2.255-.316s-.085-.22-.259-.32l-1.3-.748a1.09,1.09,0,0,0-.553-.149A1.075,1.075,0,0,0,67.246,59.541Zm2.116.9q.324.186.011.368l-.306.177a.6.6,0,0,1-.634-.009l-1.273-.735q-.326-.187-.015-.366l.306-.177a.6.6,0,0,1,.638.007Z"/><path class="cls-23" d="M69.149,58.442l-.373.215c-.169.1-.254.2-.254.317s.086.22.258.319l1.3.748a1.1,1.1,0,0,0,.555.15,1.081,1.081,0,0,0,.546-.148l.373-.216c.17-.1.255-.2.256-.315s-.085-.22-.259-.32l-1.3-.748a1.1,1.1,0,0,0-1.1,0Zm2.117.9q.324.188.011.369l-.306.177a.6.6,0,0,1-.635-.009l-1.273-.735q-.324-.187-.015-.366l.307-.177a.6.6,0,0,1,.638.006Z"/><path class="cls-23" d="M71.053,57.343l-.374.215c-.169.1-.253.2-.253.317s.085.22.257.319l1.295.748a1.1,1.1,0,0,0,.555.15,1.081,1.081,0,0,0,.546-.148l.374-.215c.169-.1.254-.2.255-.316s-.085-.22-.259-.32l-1.3-.748A1.09,1.09,0,0,0,71.6,57.2,1.075,1.075,0,0,0,71.053,57.343Zm2.116.9q.325.188.012.369l-.307.177a.6.6,0,0,1-.634-.009l-1.273-.735q-.325-.187-.015-.366l.306-.177a.6.6,0,0,1,.638.006Z"/><path class="cls-23" d="M72.956,56.244l-.373.215c-.169.1-.254.2-.254.317s.086.22.258.319l1.3.748a1.085,1.085,0,0,0,.555.149,1.07,1.07,0,0,0,.546-.147l.373-.216c.17-.1.255-.2.256-.315s-.085-.22-.259-.321l-1.295-.747a1.1,1.1,0,0,0-1.1,0Zm2.117.9q.324.188.011.369l-.306.177a.6.6,0,0,1-.635-.009l-1.273-.735q-.324-.187-.014-.366l.306-.177a.6.6,0,0,1,.638.006Z"/><path class="cls-23" d="M77.592,53.567l-.373.216c-.169.1-.254.2-.254.316s.086.22.258.319l1.3.748a1.091,1.091,0,0,0,1.1,0l.373-.215c.17-.1.255-.2.256-.316s-.085-.22-.259-.32l-1.3-.748a1.1,1.1,0,0,0-1.1,0Zm2.117.9q.324.188.011.368l-.306.177A.6.6,0,0,1,78.78,55l-1.274-.735q-.324-.187-.014-.366l.306-.177a.6.6,0,0,1,.638.007Z"/><path class="cls-23" d="M79.5,52.468l-.374.216c-.169.1-.253.2-.253.316s.086.22.257.319l1.3.748a1.093,1.093,0,0,0,1.1,0l.373-.215c.169-.1.254-.2.256-.316s-.085-.219-.26-.32l-1.3-.748a1.09,1.09,0,0,0-.553-.149A1.075,1.075,0,0,0,79.5,52.468Zm2.116.9q.326.188.012.368l-.306.177a.6.6,0,0,1-.635-.009l-1.273-.735c-.216-.124-.222-.247-.015-.366l.306-.177a.6.6,0,0,1,.638.007Z"/><path class="cls-23" d="M81.4,51.369l-.374.216c-.169.1-.253.2-.253.316s.085.22.257.319l1.3.748a1.091,1.091,0,0,0,1.1,0l.374-.215c.169-.1.254-.2.255-.316s-.085-.22-.259-.32l-1.3-.748a1.09,1.09,0,0,0-.553-.149A1.075,1.075,0,0,0,81.4,51.369Zm2.116.9c.216.125.22.247.011.368l-.306.177a.6.6,0,0,1-.634-.009l-1.273-.735q-.326-.187-.015-.366l.306-.177a.6.6,0,0,1,.638.007Z"/><path class="cls-23" d="M83.3,50.27l-.373.215c-.169.1-.254.2-.254.317s.086.22.258.319l1.3.748a1.091,1.091,0,0,0,1.1,0l.373-.215c.169-.1.255-.2.256-.316s-.085-.22-.259-.32l-1.3-.748a1.1,1.1,0,0,0-1.1,0Zm2.117.9q.324.186.011.368l-.306.177a.6.6,0,0,1-.635-.009l-1.273-.735q-.324-.187-.015-.366l.307-.177a.6.6,0,0,1,.638.007Z"/><path class="cls-23" d="M87.939,47.593l-.373.216c-.17.1-.254.2-.254.316s.086.22.257.319l1.3.748a1.076,1.076,0,0,0,.554.15,1.094,1.094,0,0,0,.547-.147l.373-.216c.169-.1.255-.2.256-.316s-.085-.219-.26-.32L89.04,47.6a1.1,1.1,0,0,0-1.1,0Zm2.117.9q.324.188.011.369l-.306.176a.6.6,0,0,1-.635-.008l-1.273-.735q-.324-.187-.015-.367l.306-.176a.6.6,0,0,1,.639.006Z"/><path class="cls-23" d="M89.843,46.494l-.374.216c-.169.1-.253.2-.253.316s.085.22.257.319l1.3.748a1.091,1.091,0,0,0,1.1,0l.374-.215c.169-.1.254-.2.256-.316s-.086-.219-.26-.32l-1.3-.748a1.1,1.1,0,0,0-1.1,0Zm2.116.9q.326.188.012.368l-.307.177a.6.6,0,0,1-.634-.008L89.757,47.2c-.217-.125-.222-.248-.015-.367l.306-.177a.6.6,0,0,1,.638.007Z"/><path class="cls-23" d="M91.746,45.4l-.373.216c-.169.1-.254.2-.254.316s.086.22.258.319l1.3.748a1.091,1.091,0,0,0,1.1,0l.373-.215c.17-.1.255-.2.256-.316s-.085-.219-.259-.32l-1.3-.748a1.106,1.106,0,0,0-1.1,0Zm2.117.9q.324.188.011.368l-.306.177a.6.6,0,0,1-.635-.009L91.66,46.1c-.216-.124-.221-.247-.014-.366l.306-.177a.6.6,0,0,1,.638.007Z"/><path class="cls-23" d="M93.65,44.3l-.373.216c-.169.1-.254.2-.254.316s.086.22.257.319l1.3.748a1.091,1.091,0,0,0,1.1,0l.373-.215c.169-.1.255-.2.256-.316s-.085-.22-.26-.32l-1.3-.748a1.1,1.1,0,0,0-1.1,0Zm2.117.9c.216.125.22.247.011.368l-.306.177a.6.6,0,0,1-.635-.009L93.564,45q-.324-.187-.015-.366l.306-.177a.6.6,0,0,1,.639.007Z"/><path class="cls-23" d="M98.286,41.62l-.373.215c-.17.1-.254.2-.254.317s.086.22.257.319l1.3.747a1.1,1.1,0,0,0,1.1,0l.373-.216c.169-.1.254-.2.256-.315s-.085-.22-.26-.321l-1.3-.748a1.089,1.089,0,0,0-.553-.148A1.075,1.075,0,0,0,98.286,41.62Zm2.116.9q.325.188.012.369l-.306.176a.6.6,0,0,1-.635-.008L98.2,42.32c-.216-.125-.222-.247-.015-.367l.306-.176a.6.6,0,0,1,.638.006Z"/><path class="cls-23" d="M100.19,40.52l-.374.216c-.169.1-.253.2-.253.317s.085.219.257.319l1.3.747a1.077,1.077,0,0,0,.555.15,1.09,1.09,0,0,0,.546-.147l.374-.216c.169-.1.254-.2.255-.316s-.085-.219-.259-.32l-1.3-.748a1.1,1.1,0,0,0-1.1,0Zm2.116.9q.324.188.011.369l-.306.176a.593.593,0,0,1-.634-.008l-1.273-.735q-.325-.187-.015-.367l.306-.176a.6.6,0,0,1,.638.006Z"/><path class="cls-23" d="M102.093,39.421l-.373.216c-.169.1-.254.2-.254.316s.086.22.258.319l1.3.748a1.076,1.076,0,0,0,.554.15,1.091,1.091,0,0,0,.547-.147l.373-.216c.169-.1.255-.2.256-.316s-.085-.219-.259-.32l-1.3-.748a1.1,1.1,0,0,0-1.1,0Zm2.117.9q.324.188.011.368l-.306.177a.6.6,0,0,1-.635-.008l-1.273-.735c-.216-.125-.221-.248-.015-.367l.307-.177a.6.6,0,0,1,.638.007Z"/><path class="cls-23" d="M104.545,38.176a1.084,1.084,0,0,0-.548.146l-.374.216c-.169.1-.253.2-.253.316s.085.22.257.319l1.3.748a1.079,1.079,0,0,0,.555.15,1.09,1.09,0,0,0,.546-.147l.374-.216c.169-.1.254-.2.255-.316s-.085-.219-.259-.32l-1.3-.748A1.089,1.089,0,0,0,104.545,38.176Zm1.568,1.045q.326.188.012.368l-.307.177a.593.593,0,0,1-.634-.008l-1.273-.735q-.326-.187-.015-.367l.306-.177a.6.6,0,0,1,.638.007Z"/><path class="cls-16" d="M103.274,38.806q0,.174.272.328l1.343.775a1.137,1.137,0,0,0,.57.158,1.066,1.066,0,0,0,.553-.145l.374-.216c.17-.1.253-.2.251-.319s-.093-.225-.274-.329l-1.343-.776a1.148,1.148,0,0,0-.568-.157,1.064,1.064,0,0,0-.554.144l-.375.216C103.354,38.583,103.27,38.69,103.274,38.806Zm.553.179q-.336-.2-.023-.376l.307-.177a.608.608,0,0,1,.648.015l1.32.762q.336.194.026.374l-.307.177a.613.613,0,0,1-.651-.013Z"/><path class="cls-16" d="M101.365,39.908c0,.116.094.225.272.327l1.343.776a1.14,1.14,0,0,0,.57.158,1.079,1.079,0,0,0,.554-.145l.374-.216c.169-.1.253-.2.251-.319s-.093-.225-.274-.329l-1.343-.776a1.138,1.138,0,0,0-.568-.157,1.07,1.07,0,0,0-.555.144l-.374.216C101.445,39.685,101.362,39.792,101.365,39.908Zm.554.179c-.225-.13-.232-.255-.023-.376l.307-.177a.606.606,0,0,1,.647.015l1.32.762q.337.193.026.374l-.306.177a.613.613,0,0,1-.651-.013Z"/><path class="cls-16" d="M99.457,41.009c0,.116.094.225.272.328l1.343.776a1.14,1.14,0,0,0,.57.158,1.079,1.079,0,0,0,.554-.145l.374-.216c.169-.1.253-.2.251-.32s-.093-.224-.274-.329l-1.343-.775a1.138,1.138,0,0,0-.568-.157,1.07,1.07,0,0,0-.555.144l-.374.216C99.537,40.787,99.454,40.894,99.457,41.009Zm.553.179c-.224-.129-.232-.255-.022-.376l.307-.177a.61.61,0,0,1,.647.015l1.32.762c.225.13.233.255.026.374l-.307.177a.611.611,0,0,1-.651-.013Z"/><path class="cls-16" d="M97.549,42.111c0,.116.094.225.272.328l1.343.775a1.141,1.141,0,0,0,.57.159,1.074,1.074,0,0,0,.553-.146l.374-.216c.17-.1.254-.2.251-.319s-.093-.225-.274-.329L99.3,41.588a1.138,1.138,0,0,0-.568-.157,1.064,1.064,0,0,0-.554.144l-.374.216C97.629,41.889,97.546,42,97.549,42.111Zm.553.179c-.224-.129-.232-.255-.022-.376l.307-.177a.608.608,0,0,1,.647.015l1.32.762c.224.13.233.254.026.374l-.307.177a.611.611,0,0,1-.651-.013Z"/><path class="cls-16" d="M92.9,44.794c0,.116.094.225.272.328l1.343.776a1.14,1.14,0,0,0,.57.158,1.079,1.079,0,0,0,.554-.145l.374-.216c.169-.1.253-.2.251-.32s-.093-.224-.274-.329l-1.343-.775a1.138,1.138,0,0,0-.568-.157,1.07,1.07,0,0,0-.555.144l-.374.216C92.981,44.572,92.9,44.679,92.9,44.794Zm.554.179c-.225-.129-.232-.255-.023-.376l.307-.177a.61.61,0,0,1,.647.015l1.32.762q.337.195.027.374l-.307.177a.611.611,0,0,1-.651-.013Z"/><path class="cls-16" d="M90.993,45.9c0,.116.094.225.272.328L92.608,47a1.13,1.13,0,0,0,.57.158,1.07,1.07,0,0,0,.554-.145l.374-.216c.169-.1.253-.2.251-.319s-.093-.225-.274-.329l-1.343-.775a1.138,1.138,0,0,0-.568-.157,1.079,1.079,0,0,0-.555.143l-.374.217C91.073,45.673,90.99,45.78,90.993,45.9Zm.553.179c-.224-.13-.232-.255-.022-.376l.307-.177a.606.606,0,0,1,.647.015l1.32.762c.225.13.233.254.026.374l-.307.177a.609.609,0,0,1-.65-.013Z"/><path class="cls-16" d="M89.085,47c0,.116.094.225.272.328L90.7,48.1a1.14,1.14,0,0,0,.57.158,1.064,1.064,0,0,0,.553-.145L92.2,47.9c.17-.1.254-.2.251-.319s-.093-.225-.274-.329l-1.343-.776a1.148,1.148,0,0,0-.568-.157,1.064,1.064,0,0,0-.554.144l-.374.216C89.165,46.775,89.082,46.882,89.085,47Zm.553.179c-.224-.13-.232-.255-.022-.376l.307-.177a.606.606,0,0,1,.647.015l1.32.762q.336.193.026.374l-.307.177a.613.613,0,0,1-.651-.013Z"/><path class="cls-16" d="M87.177,48.1c0,.115.094.225.271.327l1.344.776a1.134,1.134,0,0,0,.57.158,1.078,1.078,0,0,0,.553-.145L90.289,49c.17-.1.253-.2.251-.319s-.093-.225-.274-.329l-1.343-.776a1.138,1.138,0,0,0-.568-.157,1.07,1.07,0,0,0-.555.144l-.374.216C87.257,47.877,87.173,47.984,87.177,48.1Zm.553.179c-.225-.13-.232-.255-.023-.376l.307-.177a.606.606,0,0,1,.647.015l1.321.762c.224.129.233.254.026.373l-.307.178a.613.613,0,0,1-.651-.013Z"/><path class="cls-16" d="M82.529,50.783c0,.116.094.225.272.327l1.343.776a1.14,1.14,0,0,0,.57.158,1.079,1.079,0,0,0,.554-.145l.374-.216c.169-.1.253-.2.251-.319s-.093-.225-.274-.329l-1.343-.776a1.138,1.138,0,0,0-.568-.157,1.07,1.07,0,0,0-.555.144l-.374.216C82.609,50.56,82.526,50.667,82.529,50.783Zm.553.179c-.224-.13-.232-.255-.022-.376l.307-.177a.606.606,0,0,1,.647.015l1.32.762q.337.193.026.374l-.307.177a.611.611,0,0,1-.65-.013Z"/><path class="cls-16" d="M80.621,51.884c0,.116.094.226.272.328l1.343.776a1.14,1.14,0,0,0,.57.158A1.073,1.073,0,0,0,83.359,53l.374-.216c.17-.1.254-.2.252-.319s-.094-.225-.275-.33l-1.343-.775A1.137,1.137,0,0,0,81.8,51.2a1.065,1.065,0,0,0-.555.144l-.374.216C80.7,51.662,80.618,51.769,80.621,51.884Zm.553.179c-.224-.129-.232-.254-.022-.375l.307-.178a.61.61,0,0,1,.647.015l1.32.763c.224.129.233.254.026.373l-.307.178a.613.613,0,0,1-.651-.013Z"/><path class="cls-16" d="M78.713,52.986c0,.116.094.225.272.328l1.343.776a1.134,1.134,0,0,0,.57.158,1.078,1.078,0,0,0,.553-.145l.374-.216c.17-.1.253-.2.251-.32s-.093-.224-.274-.329l-1.343-.775a1.138,1.138,0,0,0-.568-.157,1.07,1.07,0,0,0-.555.144l-.374.216C78.793,52.764,78.709,52.871,78.713,52.986Zm.553.179c-.225-.129-.232-.255-.023-.376l.307-.177a.61.61,0,0,1,.647.015l1.321.762q.336.195.026.374l-.307.177a.611.611,0,0,1-.651-.013Z"/><path class="cls-16" d="M76.8,54.088c0,.116.094.225.272.328l1.343.775a1.141,1.141,0,0,0,.57.159,1.074,1.074,0,0,0,.553-.146l.375-.216c.169-.1.253-.2.251-.319s-.094-.225-.274-.329l-1.343-.775a1.141,1.141,0,0,0-.568-.157,1.07,1.07,0,0,0-.555.144l-.374.216C76.884,53.866,76.8,53.973,76.8,54.088Zm.553.179c-.224-.129-.232-.255-.022-.376l.307-.177a.608.608,0,0,1,.647.015l1.32.762c.224.13.233.254.026.374l-.307.177a.611.611,0,0,1-.651-.013Z"/><path class="cls-16" d="M72.157,56.771c0,.116.094.225.272.328l1.343.775a1.141,1.141,0,0,0,.57.159,1.083,1.083,0,0,0,.553-.145l.374-.217c.17-.1.254-.2.252-.319s-.094-.224-.275-.329L73.9,56.248a1.137,1.137,0,0,0-.567-.157,1.065,1.065,0,0,0-.555.144l-.374.216C72.237,56.549,72.154,56.656,72.157,56.771Zm.553.179c-.224-.129-.232-.255-.022-.376L73,56.4a.61.61,0,0,1,.647.015l1.32.762c.224.13.233.254.026.374l-.307.177a.611.611,0,0,1-.651-.013Z"/><path class="cls-16" d="M70.249,57.873c0,.116.094.225.272.328l1.343.775a1.124,1.124,0,0,0,.57.158,1.069,1.069,0,0,0,.553-.145l.374-.216c.17-.1.253-.2.251-.319s-.093-.225-.274-.329L72,57.35a1.138,1.138,0,0,0-.568-.157,1.079,1.079,0,0,0-.555.143l-.374.217C70.329,57.65,70.245,57.757,70.249,57.873Zm.553.179c-.225-.13-.232-.255-.023-.376l.307-.177a.606.606,0,0,1,.647.015l1.321.762c.224.13.233.254.026.374l-.307.177a.611.611,0,0,1-.651-.013Z"/><path class="cls-16" d="M68.34,58.975c0,.116.094.225.272.328l1.343.775a1.14,1.14,0,0,0,.57.158,1.073,1.073,0,0,0,.553-.145l.375-.216c.169-.1.253-.2.251-.319s-.094-.225-.274-.329l-1.343-.776a1.151,1.151,0,0,0-.568-.157,1.07,1.07,0,0,0-.555.144l-.374.216C68.42,58.752,68.337,58.859,68.34,58.975Zm.553.179c-.224-.13-.232-.255-.022-.376l.307-.177a.606.606,0,0,1,.647.015l1.32.762q.336.194.026.374l-.307.177a.613.613,0,0,1-.651-.013Z"/><path class="cls-16" d="M66.7,60.4l1.343.776a1.14,1.14,0,0,0,.57.158,1.073,1.073,0,0,0,.553-.145l.375-.216c.169-.1.253-.2.251-.319s-.094-.225-.274-.33l-1.343-.775a1.141,1.141,0,0,0-.568-.157,1.07,1.07,0,0,0-.555.144l-.374.216c-.17.1-.253.2-.25.32S66.526,60.3,66.7,60.4Zm.281-.149c-.224-.129-.232-.254-.022-.375l.307-.178a.61.61,0,0,1,.647.015l1.32.763c.224.129.233.254.026.373l-.307.177a.613.613,0,0,1-.651-.012Z"/><path class="cls-16" d="M60.939,56.112l-.365.211a.958.958,0,0,1-.494.131,1.026,1.026,0,0,1-.5-.141L58.5,55.687c-.16-.093-.242-.189-.245-.289s.073-.194.229-.284l.365-.211a.955.955,0,0,1,.49-.131,1,1,0,0,1,.5.141l.156.09c.039.023.04.045,0,.067l-.2.114a.1.1,0,0,1-.112,0l-.144-.083a.44.44,0,0,0-.467-.008l-.274.158c-.151.088-.146.177.014.27l1.058.611a.438.438,0,0,0,.468.008l.274-.158q.226-.13-.014-.27l-.143-.082c-.04-.023-.042-.044-.006-.065l.2-.115a.109.109,0,0,1,.115,0l.156.09c.159.091.239.187.242.289S61.092,56.023,60.939,56.112Z"/><path class="cls-16" d="M62.069,55.46l-.2.114a.1.1,0,0,1-.109,0l-1.982-1.145c-.037-.021-.038-.042,0-.063l.736-.425a.961.961,0,0,1,.5-.13,1.017,1.017,0,0,1,.5.14l.274.158q.373.216.173.445c.013.008,1.124.246,1.124.246.067.011.075.032.024.061l-.2.113a.2.2,0,0,1-.153.024l-1.085-.238-.318.184c-.025.014-.027.028-.005.04l.716.414C62.1,55.418,62.1,55.439,62.069,55.46Zm-.977-.666.4-.231c.155-.089.154-.18,0-.271l-.273-.158a.444.444,0,0,0-.474-.005l-.4.231c-.023.013-.024.026,0,.039l.687.4A.062.062,0,0,0,61.092,54.794Z"/><path class="cls-16" d="M64.583,54.008l-1.007.581a.1.1,0,0,1-.109,0l-1.982-1.145c-.037-.021-.038-.042,0-.062L62.49,52.8a.1.1,0,0,1,.106,0l.166.1c.037.021.038.042.005.061l-.718.414c-.025.015-.027.028-.005.041l.55.317a.064.064,0,0,0,.07,0l.608-.35a.105.105,0,0,1,.112,0l.166.1c.037.021.036.043,0,.064l-.608.351c-.025.015-.026.028-.005.041l.579.334a.068.068,0,0,0,.074,0l.718-.414a.1.1,0,0,1,.105,0l.166.1C64.615,53.968,64.617,53.988,64.583,54.008Z"/><path class="cls-16" d="M64.978,53.716,63,52.571c-.037-.021-.038-.042,0-.063l.774-.447a.971.971,0,0,1,.492-.132,1,1,0,0,1,.5.14l1.084.626c.158.091.238.188.24.29s-.073.2-.227.285l-.774.447A.1.1,0,0,1,64.978,53.716Zm.119-.324.444-.257q.226-.13-.015-.269l-1.058-.611A.438.438,0,0,0,64,52.246l-.444.257c-.023.013-.024.026,0,.038l1.471.85A.067.067,0,0,0,65.1,53.392Z"/><path class="cls-16" d="M65.063,51.377l1.983,1.145c.037.021.038.042,0,.063l-.2.114a.1.1,0,0,1-.109,0l-1.982-1.144c-.037-.022-.037-.043,0-.063l.2-.115A.1.1,0,0,1,65.063,51.377Z"/><path class="cls-16" d="M68.131,51.96l-.2.114a.105.105,0,0,1-.112,0l-1.729-1a.058.058,0,0,0-.063,0l-.4.229a.105.105,0,0,1-.112,0l-.166-.1c-.037-.021-.036-.043,0-.065l1.168-.674a.1.1,0,0,1,.112,0l.166.1c.037.022.037.043,0,.065l-.4.229c-.023.013-.024.026,0,.039l1.729,1C68.166,51.918,68.166,51.939,68.131,51.96Z"/><path class="cls-16" d="M70.513,50.584l-.365.211a.948.948,0,0,1-.494.131,1,1,0,0,1-.5-.141l-1.085-.626c-.16-.092-.242-.189-.245-.289s.073-.194.229-.284l.365-.21a.947.947,0,0,1,.49-.132,1.019,1.019,0,0,1,.5.141l.157.091c.038.022.039.044,0,.066l-.2.114a.105.105,0,0,1-.112,0l-.143-.083a.438.438,0,0,0-.468-.008l-.273.158c-.152.087-.147.177.013.27l1.059.61a.438.438,0,0,0,.467.009l.274-.158q.227-.132-.014-.27l-.143-.083c-.039-.023-.041-.044-.006-.065l.2-.114a.106.106,0,0,1,.115,0l.156.09c.159.092.239.188.242.289S70.666,50.5,70.513,50.584Z"/><path class="cls-16" d="M71.5,50.014l-.226.13a.068.068,0,0,1-.087-.013L69.753,48.67c-.027-.028-.02-.053.02-.076l.315-.182a.148.148,0,0,1,.131-.011l2.53.828c.045.017.052.034.021.052l-.224.129a.091.091,0,0,1-.05.016.182.182,0,0,1-.062-.015l-.542-.175-.693.4.3.313C71.531,49.975,71.531,50,71.5,50.014Zm-1.264-1.327.764.762.57-.329-1.322-.44Z"/><path class="cls-16" d="M73.368,48.936l-.2.114a.1.1,0,0,1-.109,0l-1.983-1.144c-.037-.022-.037-.043,0-.063l.737-.425a.945.945,0,0,1,.5-.13,1.012,1.012,0,0,1,.5.139l.273.158c.25.144.307.293.173.445.013.008,1.124.246,1.124.246.067.012.075.032.024.061l-.2.113a.2.2,0,0,1-.153.024l-1.085-.238-.318.184c-.025.015-.027.028,0,.041l.716.413C73.4,48.894,73.4,48.915,73.368,48.936Zm-.977-.666.4-.23c.155-.09.154-.181,0-.272l-.273-.158a.446.446,0,0,0-.474-.005l-.4.231c-.024.014-.024.026,0,.039l.687.4A.063.063,0,0,0,72.391,48.27Z"/><path class="cls-16" d="M74.767,48.064,72.784,46.92c-.037-.022-.037-.043,0-.063l.774-.447a.955.955,0,0,1,.493-.132.988.988,0,0,1,.5.14l1.084.626c.159.091.239.188.241.289s-.074.2-.227.285l-.775.447A.1.1,0,0,1,74.767,48.064Zm.118-.324.444-.256q.227-.131-.015-.27L74.256,46.6a.44.44,0,0,0-.467-.008l-.444.256c-.023.014-.024.027,0,.039l1.472.85A.066.066,0,0,0,74.885,47.74Z"/><g class="cls-2"><path class="cls-24" d="M45.467,5.352c-3.353,1.949-5.432,6.093-5.449,11.984L40,25.582l7.049-4.106V13.252c.017-5.892,2.1-10.036,5.45-11.985Z"/><path class="cls-25" d="M84.073,30.225C82.533,21.391,76.929,9.482,65.82,2.552c-5.193-3-9.927-3.259-13.324-1.285L45.467,5.352c3.4-1.974,8.072-1.678,13.265,1.32,9.022,5.209,16.526,16.894,18.252,27.673l-2.443,1.419a93.415,93.415,0,0,1,7.088,8.906s4.421-13.513,4.927-15.888Z"/></g><path class="cls-26" d="M29.489,25.788a9.127,9.127,0,0,0-4.95.021c-2.283.656-3.433,1.88-3.454,3.105q-.012.687.006,1.372c.031,1.225,1.191,2.439,3.48,3.076a9.117,9.117,0,0,0,4.95-.021c2.284-.656,3.434-1.879,3.455-3.105q.01-.686-.006-1.372C32.938,27.639,31.778,26.426,29.489,25.788Z"/><path class="cls-27" d="M21.648,30.381l0,1.3a2.6,2.6,0,0,1-.421-.738l0-1.274A2.632,2.632,0,0,0,21.648,30.381Zm3.037,1.706.005,1.3c.139.036.279.071.419.1l-.006-1.32C24.962,32.145,24.822,32.12,24.685,32.087Zm1.725.245,0,1.342c.14.009.279.011.418.013l0-1.334C26.688,32.351,26.549,32.34,26.41,32.332Zm-.863-.086.006,1.326c.139.022.278.043.418.059l0-1.322C25.824,32.3,25.687,32.267,25.547,32.246Zm-3.453-1.388,0,1.278a4.219,4.219,0,0,0,.42.323l-.006-1.308A4.973,4.973,0,0,1,22.094,30.858Zm1.728.97.005,1.289c.132.05.277.093.419.138l-.006-1.3C24.1,31.911,23.956,31.877,23.822,31.828Zm-.864-.394.006,1.29c.131.071.274.137.419.2l-.006-1.3C23.236,31.566,23.091,31.506,22.958,31.434Zm4.314.916.005,1.335c.14,0,.279-.007.418-.018l0-1.342C27.55,32.335,27.412,32.347,27.272,32.35Zm4.3-1.248.006,1.31a4.473,4.473,0,0,0,.416-.33l-.005-1.277A4.887,4.887,0,0,1,31.576,31.1Zm-3.443,1.2.006,1.321c.14-.018.279-.039.418-.063l-.006-1.326C28.411,32.253,28.275,32.283,28.133,32.3Zm4.3-1.98,0,1.3a2.549,2.549,0,0,0,.415-.766l0-1.263A2.616,2.616,0,0,1,32.435,30.319Zm-1.719,1.272.006,1.3c.144-.067.286-.135.417-.208l-.006-1.288C31,31.466,30.857,31.526,30.716,31.591Zm-.86.334,0,1.3c.141-.046.287-.09.417-.141l0-1.289C30.14,31.847,29.994,31.881,29.856,31.925ZM29,32.153l0,1.318c.14-.031.279-.066.418-.1l-.006-1.3C29.275,32.1,29.135,32.124,29,32.153Z"/><path class="cls-28" d="M31.22,26.488c2.327,1.331,2.336,3.5.021,4.853a9.291,9.291,0,0,1-8.406.036c-2.327-1.331-2.336-3.5-.021-4.854A9.291,9.291,0,0,1,31.22,26.488Z"/><path class="cls-28" d="M30.846,26.706c2.12,1.212,2.128,3.191.019,4.42a8.462,8.462,0,0,1-7.656.033c-2.12-1.212-2.128-3.191-.019-4.421A8.462,8.462,0,0,1,30.846,26.706Z"/><path class="cls-29" d="M23.3,27.024a8.233,8.233,0,0,1,7.449-.031c1.5.857,1.907,2.108,1.231,3.188.879-1.151.5-2.541-1.129-3.475a8.462,8.462,0,0,0-7.656.032c-1.626.948-1.988,2.34-1.1,3.484C21.406,29.149,21.8,27.894,23.3,27.024Z"/><path class="cls-30" d="M29.468,23.812a9.117,9.117,0,0,0-4.95.02c-2.284.657-3.434,1.88-3.455,3.105q-.012.687.006,1.372c.031,1.225,1.191,2.439,3.48,3.076a9.107,9.107,0,0,0,4.95-.021c2.284-.656,3.434-1.879,3.455-3.105q.012-.686-.006-1.372C32.917,25.662,31.757,24.449,29.468,23.812Z"/><path class="cls-31" d="M21.626,28.4l.006,1.3a2.567,2.567,0,0,1-.421-.738L21.205,27.7A2.632,2.632,0,0,0,21.626,28.4Zm3.037,1.706.006,1.3c.139.037.278.071.418.1l-.006-1.32C24.941,30.168,24.8,30.143,24.663,30.11Zm1.725.245.006,1.343c.139.009.278.01.418.013l-.006-1.335C26.666,30.374,26.527,30.363,26.388,30.355Zm-.862-.086,0,1.326c.139.023.279.043.418.059l-.005-1.322C25.8,30.318,25.666,30.29,25.526,30.269Zm-3.454-1.388.006,1.278a4.491,4.491,0,0,0,.419.324l-.006-1.309C22.349,29.077,22.193,28.984,22.072,28.881Zm1.728.97.006,1.289c.131.05.277.093.418.138l0-1.3C24.08,29.934,23.934,29.9,23.8,29.851Zm-.863-.394,0,1.29c.131.071.274.137.419.2l-.006-1.3C23.214,29.589,23.07,29.529,22.937,29.457Zm4.313.916.006,1.335c.139,0,.278-.007.418-.017l-.006-1.342C27.529,30.358,27.39,30.37,27.25,30.373Zm4.305-1.248,0,1.31a4.344,4.344,0,0,0,.416-.33l0-1.277A4.714,4.714,0,0,1,31.555,29.125Zm-3.443,1.2.005,1.321c.14-.017.279-.039.418-.063l-.006-1.326C28.39,30.276,28.253,30.306,28.112,30.322Zm4.3-1.98.006,1.3a2.546,2.546,0,0,0,.414-.766l0-1.263A2.591,2.591,0,0,1,32.413,28.342ZM30.7,29.614l0,1.3c.145-.067.287-.135.417-.208l-.005-1.287C30.98,29.489,30.835,29.549,30.7,29.614Zm-.861.334.006,1.3c.14-.046.286-.09.417-.141l-.006-1.288C30.118,29.87,29.973,29.9,29.834,29.948Zm-.861.228.006,1.319q.21-.048.417-.105l-.005-1.3C29.253,30.12,29.114,30.147,28.973,30.176Z"/><path class="cls-28" d="M31.2,24.511c2.326,1.331,2.335,3.5.02,4.853a9.291,9.291,0,0,1-8.406.036c-2.327-1.331-2.336-3.5-.02-4.854A9.294,9.294,0,0,1,31.2,24.511Z"/><path class="cls-28" d="M30.825,24.729c2.119,1.212,2.127,3.191.018,4.421a8.465,8.465,0,0,1-7.656.032c-2.119-1.212-2.128-3.191-.019-4.421A8.464,8.464,0,0,1,30.825,24.729Z"/><path class="cls-29" d="M23.273,25.047a8.233,8.233,0,0,1,7.449-.031c1.5.857,1.907,2.108,1.232,3.188.878-1.151.505-2.541-1.129-3.475a8.464,8.464,0,0,0-7.657.032c-1.626.948-1.988,2.341-1.1,3.484C21.384,27.172,21.781,25.917,23.273,25.047Z"/><path class="cls-32" d="M29.479,22.251a9.111,9.111,0,0,0-4.951.021c-2.283.656-3.433,1.879-3.454,3.1q-.012.687.006,1.373c.031,1.225,1.191,2.438,3.48,3.075a9.117,9.117,0,0,0,4.95-.02c2.284-.657,3.434-1.88,3.455-3.1q.012-.687-.006-1.373C32.928,24.1,31.768,22.888,29.479,22.251Z"/><path class="cls-33" d="M21.637,26.844l.006,1.3a2.544,2.544,0,0,1-.421-.738l-.006-1.274A2.636,2.636,0,0,0,21.637,26.844Zm3.037,1.7.006,1.3c.138.037.278.071.418.1l-.006-1.32C24.952,28.607,24.812,28.582,24.674,28.549Zm1.725.245.006,1.343c.139.009.278.01.418.013l-.006-1.335C26.677,28.813,26.538,28.8,26.4,28.794Zm-.862-.086.005,1.326c.139.023.279.043.418.059l-.005-1.322C25.813,28.757,25.677,28.729,25.537,28.708ZM22.083,27.32l.006,1.278a4.491,4.491,0,0,0,.419.324L22.5,27.613A4.752,4.752,0,0,1,22.083,27.32Zm1.728.97.006,1.29c.131.049.277.092.418.137l-.006-1.3C24.09,28.373,23.945,28.34,23.811,28.29Zm-.864-.394.006,1.29c.131.071.274.137.419.2l-.006-1.3C23.225,28.028,23.08,27.968,22.947,27.9Zm4.314.917,0,1.334c.14,0,.279-.007.418-.017l-.005-1.342C27.54,28.8,27.4,28.809,27.261,28.813Zm4.3-1.249.006,1.31a4.473,4.473,0,0,0,.416-.33l0-1.277A4.589,4.589,0,0,1,31.565,27.564Zm-3.442,1.2,0,1.321c.14-.017.279-.039.418-.063l-.006-1.326C28.4,28.715,28.264,28.746,28.123,28.761Zm4.3-1.98.005,1.3a2.537,2.537,0,0,0,.415-.766l-.005-1.263A2.616,2.616,0,0,1,32.424,26.781Zm-1.719,1.273.006,1.3c.144-.067.286-.135.417-.207l-.006-1.288C30.99,27.928,30.846,27.989,30.705,28.054Zm-.86.333.005,1.3c.141-.047.287-.091.418-.142l-.006-1.288C30.129,28.309,29.984,28.344,29.845,28.387Zm-.861.228,0,1.319c.14-.032.279-.067.418-.105l0-1.3C29.264,28.559,29.125,28.586,28.984,28.615Z"/><path class="cls-28" d="M31.209,22.95c2.327,1.331,2.336,3.5.021,4.854a9.291,9.291,0,0,1-8.406.035c-2.327-1.331-2.336-3.5-.02-4.853A9.289,9.289,0,0,1,31.209,22.95Z"/><path class="cls-28" d="M30.835,23.168c2.12,1.212,2.128,3.191.019,4.421a8.462,8.462,0,0,1-7.656.032c-2.119-1.212-2.128-3.191-.019-4.42A8.462,8.462,0,0,1,30.835,23.168Z"/><path class="cls-29" d="M23.284,23.486a8.233,8.233,0,0,1,7.449-.031c1.5.857,1.907,2.109,1.232,3.188.878-1.151.5-2.54-1.13-3.475a8.462,8.462,0,0,0-7.656.033c-1.626.947-1.988,2.34-1.1,3.484C21.4,25.611,21.792,24.356,23.284,23.486Z"/><path class="cls-34" d="M29.489,20.69a9.117,9.117,0,0,0-4.95.021c-2.283.656-3.433,1.879-3.454,3.1q-.012.687.006,1.373c.031,1.225,1.191,2.438,3.48,3.075a9.117,9.117,0,0,0,4.95-.02c2.284-.657,3.434-1.88,3.455-3.1q.01-.687-.006-1.372C32.938,22.541,31.778,21.327,29.489,20.69Z"/><path class="cls-35" d="M21.648,25.283l0,1.3a2.577,2.577,0,0,1-.421-.738l0-1.274A2.636,2.636,0,0,0,21.648,25.283Zm3.037,1.7.005,1.3c.139.037.279.071.419.1L25.1,27.074C24.962,27.046,24.822,27.022,24.685,26.988Zm1.725.245,0,1.343c.14.009.279.01.418.013l0-1.334C26.688,27.252,26.549,27.241,26.41,27.233Zm-.863-.085.006,1.325c.139.023.278.043.418.059l0-1.322C25.824,27.2,25.687,27.168,25.547,27.148Zm-3.453-1.389,0,1.278a4.224,4.224,0,0,0,.42.324l-.006-1.308A4.756,4.756,0,0,1,22.094,25.759Zm1.728.971.005,1.289c.132.049.277.092.419.138l-.006-1.3C24.1,26.812,23.956,26.779,23.822,26.73Zm-.864-.394.006,1.29c.131.071.274.136.419.2l-.006-1.3C23.236,26.467,23.091,26.408,22.958,26.336Zm4.314.916.005,1.335c.14,0,.279-.008.418-.018l0-1.342C27.55,27.236,27.412,27.248,27.272,27.252ZM31.576,26l.006,1.31a4.313,4.313,0,0,0,.416-.33l-.005-1.277A4.887,4.887,0,0,1,31.576,26Zm-3.443,1.2.006,1.32c.14-.017.279-.039.418-.063l-.006-1.326C28.411,27.154,28.275,27.185,28.133,27.2Zm4.3-1.981,0,1.3a2.537,2.537,0,0,0,.415-.766l0-1.262A2.626,2.626,0,0,1,32.435,25.22Zm-1.719,1.273.006,1.3c.144-.068.286-.135.417-.208l-.006-1.288C31,26.367,30.857,26.428,30.716,26.493Zm-.86.334,0,1.3c.141-.047.287-.091.417-.141l0-1.289C30.14,26.749,29.994,26.783,29.856,26.827ZM29,27.054l0,1.319c.14-.031.279-.067.418-.105l-.006-1.3C29.275,27,29.135,27.026,29,27.054Z"/><path class="cls-28" d="M31.22,21.39c2.327,1.33,2.336,3.5.021,4.853a9.291,9.291,0,0,1-8.406.035c-2.327-1.33-2.336-3.5-.021-4.853A9.288,9.288,0,0,1,31.22,21.39Z"/><path class="cls-28" d="M30.846,21.608c2.12,1.211,2.128,3.19.019,4.42a8.462,8.462,0,0,1-7.656.032c-2.12-1.212-2.128-3.191-.019-4.42A8.459,8.459,0,0,1,30.846,21.608Z"/><path class="cls-29" d="M23.3,21.925a8.233,8.233,0,0,1,7.449-.031c1.5.857,1.907,2.109,1.231,3.188.879-1.151.5-2.54-1.129-3.474a8.459,8.459,0,0,0-7.656.032c-1.626.948-1.988,2.34-1.1,3.484C21.406,24.05,21.8,22.8,23.3,21.925Z"/><path class="cls-36" d="M30,19.148a9.117,9.117,0,0,0-4.95.021c-2.284.656-3.434,1.879-3.455,3.105q-.012.686.006,1.372c.031,1.225,1.191,2.438,3.48,3.076a9.13,9.13,0,0,0,4.951-.021c2.283-.657,3.433-1.88,3.454-3.105q.012-.687-.006-1.372C33.445,21,32.285,19.785,30,19.148Z"/><path class="cls-37" d="M22.154,23.741l.006,1.3a2.554,2.554,0,0,1-.421-.738l0-1.274A2.606,2.606,0,0,0,22.154,23.741Zm3.037,1.705.006,1.3c.139.037.278.071.418.1l0-1.319C25.469,25.5,25.329,25.48,25.191,25.446Zm1.725.245.006,1.343c.139.009.279.01.418.013l-.006-1.334C27.194,25.71,27.056,25.7,26.916,25.691Zm-.862-.085.006,1.326c.139.022.278.042.418.058l-.006-1.321C26.33,25.654,26.194,25.626,26.054,25.606ZM22.6,24.217l.005,1.278a4.327,4.327,0,0,0,.419.324l0-1.308A4.756,4.756,0,0,1,22.6,24.217Zm1.727.971.006,1.289c.132.05.277.092.418.138l0-1.3C24.608,25.27,24.462,25.237,24.328,25.188Zm-.863-.394,0,1.29c.131.071.274.136.419.2l0-1.3C23.742,24.925,23.6,24.866,23.465,24.794Zm4.313.916.006,1.335c.139-.005.279-.008.418-.018L28.2,25.685C28.057,25.694,27.918,25.706,27.778,25.71Zm4.305-1.248.005,1.309a4.209,4.209,0,0,0,.417-.33L32.5,24.164A4.936,4.936,0,0,1,32.083,24.462Zm-3.443,1.2.006,1.32c.139-.017.278-.039.417-.063l0-1.326C28.918,25.612,28.782,25.643,28.64,25.659Zm4.3-1.981.006,1.3a2.512,2.512,0,0,0,.414-.766l0-1.262A2.6,2.6,0,0,1,32.941,23.678Zm-1.718,1.273.005,1.3c.145-.068.287-.135.417-.208l0-1.288C31.508,24.825,31.363,24.886,31.223,24.951Zm-.861.334.006,1.3c.14-.047.286-.091.417-.141l0-1.289C30.646,25.207,30.5,25.241,30.362,25.285Zm-.861.228.006,1.318c.14-.031.279-.067.417-.105l0-1.3C29.782,25.457,29.642,25.484,29.5,25.513Z"/><path class="cls-28" d="M31.727,19.848c2.327,1.33,2.336,3.5.02,4.853a9.288,9.288,0,0,1-8.406.035c-2.327-1.33-2.336-3.5-.02-4.853A9.288,9.288,0,0,1,31.727,19.848Z"/><path class="cls-28" d="M31.353,20.066c2.119,1.211,2.127,3.19.018,4.42a8.462,8.462,0,0,1-7.656.032c-2.119-1.212-2.127-3.191-.018-4.42A8.459,8.459,0,0,1,31.353,20.066Z"/><path class="cls-29" d="M23.8,20.383a8.231,8.231,0,0,1,7.448-.031c1.5.857,1.907,2.109,1.232,3.188.878-1.151.505-2.54-1.129-3.474A8.459,8.459,0,0,0,23.7,20.1c-1.626.948-1.988,2.34-1.1,3.484C21.912,22.508,22.309,21.253,23.8,20.383Z"/><path class="cls-38" d="M29.945,17.464a9.127,9.127,0,0,0-4.95.021c-2.284.656-3.434,1.88-3.455,3.105-.007.457-.006.915.006,1.372.031,1.225,1.191,2.439,3.481,3.076a9.117,9.117,0,0,0,4.95-.021c2.283-.656,3.433-1.879,3.454-3.105q.012-.686-.006-1.372C33.394,19.315,32.234,18.1,29.945,17.464Z"/><path class="cls-39" d="M22.1,22.057l.006,1.3a2.562,2.562,0,0,1-.421-.737l0-1.274A2.627,2.627,0,0,0,22.1,22.057Zm3.037,1.705.006,1.3c.139.036.278.071.418.1l0-1.32C25.418,23.82,25.278,23.8,25.14,23.762Zm1.725.246.006,1.342c.139.009.279.011.418.013l-.006-1.334C27.143,24.027,27.005,24.016,26.865,24.008ZM26,23.922l.006,1.326c.139.022.278.042.418.058l-.006-1.321C26.279,23.971,26.143,23.942,26,23.922ZM22.55,22.534l0,1.278a4.322,4.322,0,0,0,.419.323l0-1.308A4.973,4.973,0,0,1,22.55,22.534Zm1.727.97.006,1.289c.132.05.277.093.418.138l0-1.3C24.557,23.587,24.411,23.553,24.277,23.5Zm-.863-.394,0,1.29c.131.071.274.137.419.2l-.005-1.3C23.691,23.242,23.547,23.182,23.414,23.11Zm4.313.916.006,1.335c.139,0,.279-.007.418-.018L28.145,24C28.006,24.011,27.867,24.022,27.727,24.026Zm4.3-1.248.005,1.31a4.361,4.361,0,0,0,.417-.33l-.006-1.277A4.714,4.714,0,0,1,32.032,22.778Zm-3.443,1.2L28.6,25.3c.139-.018.278-.04.417-.063l0-1.326C28.867,23.929,28.731,23.959,28.589,23.975ZM32.89,22l.006,1.3a2.517,2.517,0,0,0,.414-.767l-.005-1.262A2.591,2.591,0,0,1,32.89,22Zm-1.718,1.272,0,1.3c.145-.067.287-.135.417-.208l-.005-1.288C31.457,23.142,31.312,23.2,31.172,23.267Zm-.861.334.006,1.3c.14-.046.286-.09.417-.141l-.005-1.289C30.6,23.523,30.45,23.557,30.311,23.6Zm-.861.228.006,1.318c.14-.031.279-.066.417-.1l-.005-1.3C29.731,23.773,29.591,23.8,29.45,23.829Z"/><ellipse class="cls-28" cx="27.483" cy="20.608" rx="5.944" ry="3.432" transform="translate(-0.086 0.115) rotate(-0.239)"/><path class="cls-28" d="M31.3,18.382c2.119,1.212,2.127,3.191.018,4.42a8.459,8.459,0,0,1-7.656.032c-2.119-1.211-2.127-3.19-.018-4.42A8.462,8.462,0,0,1,31.3,18.382Z"/><path class="cls-29" d="M23.751,18.7a8.228,8.228,0,0,1,7.448-.032c1.5.858,1.908,2.109,1.232,3.189.878-1.152.505-2.541-1.129-3.475a8.462,8.462,0,0,0-7.656.032c-1.626.948-1.988,2.34-1.1,3.484C21.861,20.824,22.258,19.57,23.751,18.7Z"/><path class="cls-40" d="M41.249,26.578a9.117,9.117,0,0,0-4.95.02c-2.284.657-3.434,1.88-3.455,3.105q-.011.687.006,1.372c.032,1.225,1.192,2.439,3.481,3.076a9.107,9.107,0,0,0,4.95-.021c2.283-.656,3.433-1.879,3.454-3.105q.012-.685-.006-1.372C44.7,28.428,43.538,27.215,41.249,26.578Z"/><path class="cls-41" d="M33.408,31.17l0,1.3a2.567,2.567,0,0,1-.421-.738l0-1.274A2.606,2.606,0,0,0,33.408,31.17Zm3.037,1.706.005,1.3c.139.037.278.071.418.1l-.005-1.32C36.722,32.934,36.582,32.909,36.445,32.876Zm1.724.245.006,1.343c.139.009.279.01.418.013l-.006-1.335C38.448,33.14,38.309,33.129,38.169,33.121Zm-.862-.086.006,1.326c.139.023.278.043.418.059L37.725,33.1C37.583,33.084,37.447,33.056,37.307,33.035Zm-3.453-1.388.005,1.278a4.322,4.322,0,0,0,.419.323l0-1.308A4.973,4.973,0,0,1,33.854,31.647Zm1.728.97.005,1.289c.132.05.277.093.418.138L36,32.743C35.861,32.7,35.716,32.667,35.582,32.617Zm-.864-.394,0,1.29c.131.071.275.137.419.2l-.005-1.3C35,32.355,34.851,32.3,34.718,32.223Zm4.313.916.006,1.335c.139,0,.279-.007.418-.017l-.006-1.342C39.31,33.124,39.171,33.136,39.031,33.139Zm4.305-1.248.005,1.31a4.361,4.361,0,0,0,.417-.33l-.006-1.277A4.714,4.714,0,0,1,43.336,31.891Zm-3.443,1.2.006,1.321c.139-.017.278-.039.417-.063l-.005-1.326C40.171,33.042,40.035,33.072,39.893,33.088Zm4.3-1.98.006,1.3a2.549,2.549,0,0,0,.415-.766l-.006-1.263A2.591,2.591,0,0,1,44.194,31.108ZM42.476,32.38l.005,1.3c.145-.067.287-.135.417-.208l-.005-1.287C42.761,32.255,42.616,32.315,42.476,32.38Zm-.861.334.006,1.3c.14-.046.286-.09.417-.141l0-1.288C41.9,32.636,41.754,32.67,41.615,32.714Zm-.861.228.006,1.319q.21-.048.417-.105l-.005-1.3C41.035,32.886,40.9,32.913,40.754,32.942Z"/><path class="cls-28" d="M42.98,27.277c2.327,1.331,2.336,3.5.02,4.853a9.291,9.291,0,0,1-8.406.036c-2.326-1.331-2.336-3.5-.02-4.854A9.294,9.294,0,0,1,42.98,27.277Z"/><path class="cls-28" d="M42.606,27.5c2.119,1.212,2.128,3.191.018,4.421a8.465,8.465,0,0,1-7.656.032c-2.119-1.212-2.127-3.191-.018-4.421A8.462,8.462,0,0,1,42.606,27.5Z"/><path class="cls-29" d="M35.055,27.813a8.231,8.231,0,0,1,7.448-.031c1.5.857,1.908,2.108,1.232,3.188.878-1.151.505-2.541-1.129-3.475a8.462,8.462,0,0,0-7.656.032c-1.626.948-1.988,2.341-1.1,3.484C33.165,29.938,33.562,28.683,35.055,27.813Z"/><path class="cls-42" d="M40.71,24.6a9.117,9.117,0,0,0-4.95.02c-2.284.657-3.434,1.88-3.455,3.105q-.011.687.006,1.372c.032,1.225,1.191,2.439,3.481,3.076a9.107,9.107,0,0,0,4.95-.021c2.283-.656,3.433-1.879,3.454-3.1q.012-.687-.006-1.373C44.159,26.451,43,25.238,40.71,24.6Z"/><path class="cls-43" d="M32.869,29.193l.005,1.3a2.567,2.567,0,0,1-.421-.738l-.005-1.274A2.591,2.591,0,0,0,32.869,29.193ZM35.906,30.9l.005,1.3c.139.037.278.071.418.1l-.005-1.32C36.183,30.957,36.043,30.932,35.906,30.9Zm1.724.245.006,1.343c.139.009.279.01.418.013l-.006-1.335C37.909,31.163,37.77,31.152,37.63,31.144Zm-.862-.086.006,1.326c.139.023.278.043.418.059l-.006-1.322C37.044,31.107,36.908,31.079,36.768,31.058ZM33.315,29.67l.005,1.278a4.491,4.491,0,0,0,.419.324l0-1.309A4.973,4.973,0,0,1,33.315,29.67Zm1.728.97.005,1.29c.132.049.277.092.418.137l-.005-1.3C35.322,30.723,35.177,30.69,35.043,30.64Zm-.864-.394,0,1.29c.131.071.275.137.419.2l-.005-1.3C34.456,30.378,34.312,30.318,34.179,30.246Zm4.313.917L38.5,32.5c.139,0,.279-.007.418-.017l-.006-1.342C38.771,31.147,38.632,31.159,38.492,31.163ZM42.8,29.914l.005,1.31a4.361,4.361,0,0,0,.417-.33l-.006-1.277A4.714,4.714,0,0,1,42.8,29.914Zm-3.443,1.2.006,1.321c.139-.017.278-.039.417-.063l-.005-1.326C39.632,31.065,39.5,31.1,39.354,31.111Zm4.3-1.98.006,1.3a2.537,2.537,0,0,0,.415-.766l-.006-1.263A2.591,2.591,0,0,1,43.655,29.131ZM41.937,30.4l.005,1.3c.145-.067.287-.135.417-.208l-.005-1.287C42.222,30.278,42.077,30.338,41.937,30.4Zm-.861.333.006,1.3c.14-.046.286-.09.417-.141l-.005-1.288C41.36,30.659,41.215,30.693,41.076,30.737Zm-.861.228.006,1.319q.21-.048.417-.1l0-1.305C40.5,30.909,40.356,30.936,40.215,30.965Z"/><path class="cls-28" d="M42.441,25.3c2.327,1.331,2.336,3.5.02,4.854a9.294,9.294,0,0,1-8.406.035c-2.326-1.331-2.336-3.5-.02-4.853A9.291,9.291,0,0,1,42.441,25.3Z"/><ellipse class="cls-28" cx="38.248" cy="27.745" rx="5.414" ry="3.126" transform="translate(-0.116 0.161) rotate(-0.24)"/><path class="cls-29" d="M34.516,25.836a8.231,8.231,0,0,1,7.448-.031c1.5.857,1.908,2.109,1.232,3.188.878-1.151.505-2.54-1.129-3.475a8.465,8.465,0,0,0-7.656.032c-1.626.948-1.988,2.341-1.1,3.484C32.626,27.961,33.023,26.706,34.516,25.836Z"/><path class="cls-44" d="M40.721,23.04a9.107,9.107,0,0,0-4.95.021c-2.284.656-3.434,1.879-3.455,3.1q-.012.687.006,1.373c.031,1.225,1.191,2.438,3.48,3.075a9.121,9.121,0,0,0,4.951-.02c2.283-.657,3.433-1.88,3.454-3.105q.012-.687-.006-1.372C44.17,24.891,43.01,23.677,40.721,23.04Z"/><path class="cls-45" d="M32.879,27.633l.006,1.3a2.554,2.554,0,0,1-.421-.738l0-1.274A2.606,2.606,0,0,0,32.879,27.633Zm3.037,1.705.006,1.3c.139.037.278.071.418.1l-.005-1.32C36.194,29.4,36.054,29.371,35.916,29.338Zm1.725.245.006,1.343c.139.009.278.01.418.013L38.059,29.6C37.919,29.6,37.781,29.591,37.641,29.583Zm-.862-.085.006,1.325c.139.023.278.043.418.059L37.2,29.56C37.055,29.546,36.919,29.518,36.779,29.5Zm-3.454-1.389.006,1.278a4.491,4.491,0,0,0,.419.324L33.745,28.4A4.776,4.776,0,0,1,33.325,28.109Zm1.728.971.006,1.289c.132.049.277.092.418.137l0-1.3C35.333,29.162,35.187,29.129,35.053,29.08Zm-.863-.394.005,1.29c.131.07.274.136.419.2l-.006-1.3C34.467,28.817,34.323,28.758,34.19,28.686ZM38.5,29.6l.006,1.334c.139,0,.279-.007.418-.017l-.006-1.342C38.782,29.586,38.643,29.6,38.5,29.6Zm4.305-1.249.005,1.31a4.209,4.209,0,0,0,.417-.33l-.006-1.277A4.714,4.714,0,0,1,42.808,28.353Zm-3.443,1.2,0,1.321c.14-.017.279-.039.418-.063l-.006-1.326C39.643,29.5,39.507,29.535,39.365,29.55Zm4.3-1.98.006,1.3a2.512,2.512,0,0,0,.414-.766l0-1.263A2.591,2.591,0,0,1,43.666,27.57Zm-1.718,1.273.005,1.3c.145-.068.287-.136.417-.208l0-1.288C42.233,28.717,42.088,28.778,41.948,28.843Zm-.861.333.006,1.3c.14-.047.286-.091.417-.142l0-1.288C41.371,29.1,41.226,29.133,41.087,29.176Zm-.861.228.006,1.319q.21-.048.417-.105l-.005-1.3C40.507,29.348,40.367,29.375,40.226,29.4Z"/><path class="cls-28" d="M42.452,23.74c2.327,1.33,2.336,3.5.02,4.853a9.291,9.291,0,0,1-8.406.035c-2.327-1.33-2.336-3.5-.02-4.853A9.288,9.288,0,0,1,42.452,23.74Z"/><path class="cls-28" d="M42.078,23.957c2.119,1.212,2.127,3.191.018,4.421a8.462,8.462,0,0,1-7.656.032c-2.119-1.212-2.128-3.191-.018-4.42A8.462,8.462,0,0,1,42.078,23.957Z"/><path class="cls-29" d="M34.527,24.275a8.231,8.231,0,0,1,7.448-.031c1.5.857,1.907,2.109,1.232,3.188.878-1.151.505-2.54-1.129-3.475a8.462,8.462,0,0,0-7.656.033c-1.626.948-1.988,2.34-1.1,3.484C32.637,26.4,33.034,25.145,34.527,24.275Z"/><path class="cls-46" d="M34.881,31.222a9.117,9.117,0,0,0-4.95.021c-2.284.656-3.433,1.879-3.454,3.105q-.012.686,0,1.372c.032,1.225,1.192,2.438,3.481,3.076a9.127,9.127,0,0,0,4.95-.021c2.283-.657,3.433-1.88,3.454-3.1q.012-.687,0-1.372C38.33,33.073,37.17,31.859,34.881,31.222Z"/><path class="cls-47" d="M27.04,35.815l.005,1.3a2.577,2.577,0,0,1-.421-.738l0-1.274A2.611,2.611,0,0,0,27.04,35.815Zm3.037,1.705,0,1.3c.139.037.278.071.418.1l0-1.319C30.354,37.578,30.214,37.554,30.077,37.52Zm1.724.245.006,1.343c.139.009.279.01.418.013l-.005-1.334C32.08,37.784,31.941,37.773,31.8,37.765Zm-.862-.085.006,1.326c.139.022.278.042.418.058l-.006-1.321C31.216,37.728,31.079,37.7,30.939,37.68Zm-3.453-1.389,0,1.278a4.327,4.327,0,0,0,.419.324l0-1.308A4.756,4.756,0,0,1,27.486,36.291Zm1.728.971.005,1.289c.132.05.277.093.419.138l-.006-1.3C29.493,37.345,29.348,37.311,29.214,37.262Zm-.864-.394,0,1.29c.131.071.275.136.419.2l-.005-1.3C28.628,37,28.483,36.94,28.35,36.868Zm4.313.916.006,1.335c.14,0,.279-.008.418-.018l-.006-1.342C32.942,37.768,32.8,37.78,32.663,37.784Zm4.305-1.248,0,1.309a4.209,4.209,0,0,0,.417-.33l-.005-1.277A5.124,5.124,0,0,1,36.968,36.536Zm-3.443,1.2.006,1.32c.14-.017.278-.039.417-.063l-.005-1.326C33.8,37.686,33.667,37.717,33.525,37.733Zm4.3-1.981.005,1.3a2.537,2.537,0,0,0,.415-.766l-.006-1.262A2.6,2.6,0,0,1,37.827,35.752Zm-1.719,1.273.005,1.3c.145-.068.287-.135.418-.208l-.006-1.288C36.393,36.9,36.248,36.96,36.108,37.025Zm-.861.334.006,1.3c.14-.047.286-.091.417-.141l-.005-1.289C35.531,37.281,35.386,37.315,35.247,37.359Zm-.86.228.005,1.318c.14-.031.279-.066.418-.1L34.8,37.495C34.667,37.531,34.527,37.558,34.387,37.587Z"/><path class="cls-28" d="M36.612,31.922c2.327,1.33,2.336,3.5.02,4.853a9.288,9.288,0,0,1-8.406.035c-2.326-1.33-2.335-3.5-.02-4.853A9.288,9.288,0,0,1,36.612,31.922Z"/><ellipse class="cls-28" cx="32.419" cy="34.366" rx="5.414" ry="3.126" transform="translate(-0.144 0.136) rotate(-0.24)"/><path class="cls-29" d="M28.687,32.457a8.231,8.231,0,0,1,7.448-.031c1.5.858,1.908,2.109,1.232,3.188.879-1.151.505-2.54-1.129-3.474a8.459,8.459,0,0,0-7.656.032c-1.626.948-1.988,2.34-1.1,3.484C26.8,34.582,27.2,33.327,28.687,32.457Z"/><path class="cls-48" d="M34.665,29.661a9.127,9.127,0,0,0-4.95.021c-2.284.656-3.433,1.88-3.454,3.105q-.012.685,0,1.372c.032,1.225,1.192,2.439,3.481,3.076a9.127,9.127,0,0,0,4.95-.021c2.284-.656,3.433-1.88,3.454-3.1q.012-.685-.005-1.372C38.114,31.512,36.954,30.3,34.665,29.661Z"/><path class="cls-49" d="M26.824,34.254l0,1.3a2.577,2.577,0,0,1-.421-.738L26.4,33.546A2.6,2.6,0,0,0,26.824,34.254Zm3.037,1.705,0,1.3c.139.037.278.072.419.1l-.006-1.319C30.138,36.017,30,35.993,29.861,35.959Zm1.725.245.005,1.343c.139.009.279.01.418.013L32,36.226C31.864,36.224,31.725,36.212,31.586,36.2Zm-.863-.085.006,1.326c.139.022.278.042.418.058l-.006-1.321C31,36.167,30.863,36.139,30.723,36.119ZM27.27,34.73l0,1.279a4.322,4.322,0,0,0,.419.323l0-1.308A4.756,4.756,0,0,1,27.27,34.73ZM29,35.7l0,1.289c.132.05.277.093.419.138l-.006-1.3C29.277,35.784,29.132,35.75,29,35.7Zm-.864-.394.006,1.29c.13.071.274.136.418.2l0-1.3C28.412,35.439,28.267,35.379,28.134,35.307Zm4.314.916.005,1.335c.14,0,.279-.007.418-.018L32.865,36.2C32.726,36.208,32.588,36.219,32.448,36.223Zm4.3-1.248.006,1.31a4.319,4.319,0,0,0,.416-.331l-.005-1.276C37.049,34.782,36.893,34.876,36.752,34.975Zm-3.443,1.2.006,1.321c.14-.018.279-.04.418-.064L33.727,36.1C33.587,36.125,33.451,36.156,33.309,36.172Zm4.3-1.981.005,1.3a2.542,2.542,0,0,0,.415-.767l-.006-1.262A2.6,2.6,0,0,1,37.611,34.191Zm-1.719,1.273.006,1.3c.144-.067.286-.135.417-.208l-.006-1.288C36.177,35.339,36.033,35.4,35.892,35.464Zm-.86.334.005,1.3c.141-.046.286-.09.417-.141l-.005-1.289C35.316,35.72,35.17,35.754,35.032,35.8Zm-.861.228.005,1.318c.14-.031.279-.066.418-.1l-.006-1.3C34.451,35.97,34.311,36,34.171,36.026Z"/><path class="cls-28" d="M36.4,30.361c2.327,1.33,2.336,3.5.02,4.853a9.286,9.286,0,0,1-8.4.035c-2.327-1.33-2.336-3.5-.021-4.853A9.288,9.288,0,0,1,36.4,30.361Z"/><ellipse class="cls-28" cx="32.203" cy="32.805" rx="5.414" ry="3.126" transform="matrix(1, -0.004, 0.004, 1, -0.137, 0.135)"/><path class="cls-29" d="M28.471,30.9a8.23,8.23,0,0,1,7.449-.032c1.5.858,1.907,2.109,1.231,3.189.879-1.152.5-2.541-1.129-3.475a8.459,8.459,0,0,0-7.656.032c-1.626.948-1.988,2.34-1.1,3.484C26.582,33.021,26.979,31.766,28.471,30.9Z"/></g></g></g></svg>