<svg xmlns="http://www.w3.org/2000/svg" xmlns:xlink="http://www.w3.org/1999/xlink" viewBox="0 0 83.496 63.514"><defs><style>.cls-1{fill:#262424;}.cls-2{isolation:isolate;}.cls-3{fill:#50197c;}.cls-14,.cls-15,.cls-3{opacity:0.4;}.cls-14,.cls-15,.cls-18,.cls-3{mix-blend-mode:multiply;}.cls-4{fill:url(#_ÂÁ_Ï_ÌÌ_È_ËÂÌÚ_95);}.cls-5{fill:url(#_ÂÁ_Ï_ÌÌ_È_ËÂÌÚ_4);}.cls-6{fill:#c0b9c8;}.cls-7{fill:#f9f7fb;}.cls-8{fill:#353131;}.cls-9{fill:#191414;}.cls-10,.cls-11{fill:#d0d6d6;}.cls-10{opacity:0.1;}.cls-11{opacity:0.2;mix-blend-mode:screen;}.cls-12{clip-path:url(#clip-path);}.cls-13{fill:#9e6512;}.cls-14{fill:url(#_ÂÁ_Ï_ÌÌ_È_ËÂÌÚ_242);}.cls-15{fill:url(#_ÂÁ_Ï_ÌÌ_È_ËÂÌÚ_242-2);}.cls-16{fill:#cfe9ff;opacity:0.9;}.cls-17,.cls-18{fill:#788eff;}.cls-18{opacity:0.8;}.cls-19{fill:#fffff7;}</style><linearGradient id="_ÂÁ_Ï_ÌÌ_È_ËÂÌÚ_95" x1="35.481" y1="14.913" x2="49.315" y2="61.579" gradientUnits="userSpaceOnUse"><stop offset="0" stop-color="#5917ff"/><stop offset="0.159" stop-color="#6d22f8"/><stop offset="0.485" stop-color="#a13de7"/><stop offset="0.946" stop-color="#f569ca"/><stop offset="1" stop-color="#ff6ec7"/></linearGradient><linearGradient id="_ÂÁ_Ï_ÌÌ_È_ËÂÌÚ_4" x1="52.886" y1="49.119" x2="46.504" y2="49.119" gradientUnits="userSpaceOnUse"><stop offset="0" stop-color="#e0dbe1"/><stop offset="1" stop-color="#c0b9c8"/></linearGradient><clipPath id="clip-path"><path class="cls-1" d="M67.675,53.625,66.5,54.3c-.136.078-.246.031-.246-.1a.515.515,0,0,1,.247-.39l1.171-.674c.136-.079.247-.032.247.1A.51.51,0,0,1,67.675,53.625Z"/></clipPath><linearGradient id="_ÂÁ_Ï_ÌÌ_È_ËÂÌÚ_242" x1="34.763" y1="2.283" x2="52.525" y2="82.967" gradientUnits="userSpaceOnUse"><stop offset="0" stop-color="#852ef0"/><stop offset="0.178" stop-color="#9536eb"/><stop offset="0.523" stop-color="#bd4cdd"/><stop offset="0.997" stop-color="#ff6ec7"/><stop offset="1" stop-color="#ff6ec7"/></linearGradient><linearGradient id="_ÂÁ_Ï_ÌÌ_È_ËÂÌÚ_242-2" x1="34.782" y1="-1.016" x2="56.147" y2="89.332" xlink:href="#_ÂÁ_Ï_ÌÌ_È_ËÂÌÚ_242"/></defs><g class="cls-2"><g id="_0" data-name="0"><g id="_16" data-name="16"><path class="cls-3" d="M82.455,42.828,38.667,17.481a4.4,4.4,0,0,0-2.149-.52h-2.8a4.4,4.4,0,0,0-2.136.515L.9,35.147a1.321,1.321,0,0,0-.017,2.5L44.674,62.994a4.315,4.315,0,0,0,2.015.518l2.913,0A4.418,4.418,0,0,0,51.763,63l30.676-17.67A1.322,1.322,0,0,0,82.455,42.828Z"/><path class="cls-4" d="M2.77,35.761,48.518,62.287l32.554-18.8c.837-.483,2.352-1.095,1.517-1.579L37.134,15.649a7.837,7.837,0,0,0-3.009.065L2.42,34.036A1.114,1.114,0,0,0,2.77,35.761Z"/><path class="cls-5" d="M83.493,43a1.525,1.525,0,0,1-.9,1.258L51.915,61.932a4.758,4.758,0,0,1-4.316,0L2.772,35.982a1.517,1.517,0,0,1-.886-1.243l0,1.052a1.518,1.518,0,0,0,.885,1.242L47.6,62.979a4.755,4.755,0,0,0,4.316.005l30.676-17.67a1.528,1.528,0,0,0,.9-1.258Z"/><path class="cls-6" d="M9.248,40.25,5.837,38.276c-.162-.093-.292-.017-.292.171v.093a.64.64,0,0,0,.291.506L9.247,41.02c.16.092.292.015.292-.171v-.093A.645.645,0,0,0,9.248,40.25Z"/><path class="cls-7" d="M9.723,40.47a.711.711,0,0,0-.1-.187.545.545,0,0,0-.165-.154L6.049,38.155a.205.205,0,0,0-.205-.021l-.213.122a.207.207,0,0,1,.206.02L9.248,40.25a.557.557,0,0,1,.165.154.724.724,0,0,1,.1.187.517.517,0,0,1,.029.165v.093a.2.2,0,0,1-.087.19l.213-.121a.208.208,0,0,0,.087-.19v-.093A.536.536,0,0,0,9.723,40.47Z"/><path class="cls-7" d="M13.15,42.441a.727.727,0,0,0-.1-.187.557.557,0,0,0-.165-.154l-1.617-.935a.2.2,0,0,0-.205-.021l-.213.121a.207.207,0,0,1,.206.021l1.617.936a.557.557,0,0,1,.165.154.708.708,0,0,1,.1.187.517.517,0,0,1,.029.165v.093a.2.2,0,0,1-.087.19l.213-.122a.206.206,0,0,0,.087-.19v-.093A.546.546,0,0,0,13.15,42.441Z"/><path class="cls-6" d="M12.675,42.222l-1.617-.936c-.162-.093-.292-.017-.292.171v.093a.644.644,0,0,0,.292.506l1.617.936c.16.092.292.015.292-.171v-.093A.644.644,0,0,0,12.675,42.222Z"/><path class="cls-8" d="M82.608,41.762,37.781,15.816a4.757,4.757,0,0,0-4.317-.005L2.789,33.481a1.321,1.321,0,0,0-.017,2.5L47.6,61.928a4.76,4.76,0,0,0,4.317,0l30.675-17.67A1.321,1.321,0,0,0,82.608,41.762Zm-1.308.162L47.944,61.138a.81.81,0,0,1-.811,0L2.758,35.462a.83.83,0,0,1,0-1.437L12.993,28.13l1.54.144,11.116-6.417-.246-.875,8.187-4.716a4.134,4.134,0,0,1,4.134,0L81.3,41.484A.254.254,0,0,1,81.3,41.924Z"/><path class="cls-1" d="M67.914,51.544l-.577-.334a1.2,1.2,0,0,0-1.1.04l-2.064,1.189a.654.654,0,0,0-.243.227.376.376,0,0,0,.171.532l.578.334a1.2,1.2,0,0,0,1.1-.04L67.842,52.3a.65.65,0,0,0,.244-.227A.375.375,0,0,0,67.914,51.544Z"/><path class="cls-8" d="M67.914,51.739l-.577-.334a1.206,1.206,0,0,0-1.1.04l-2.064,1.189a.648.648,0,0,0-.243.228.385.385,0,0,0-.035.1.446.446,0,0,0,.206.236l.578.334a1.2,1.2,0,0,0,1.1-.04L67.842,52.3a.65.65,0,0,0,.244-.227.388.388,0,0,0,.034-.1A.445.445,0,0,0,67.914,51.739Z"/><path class="cls-9" d="M19.951,24.684a.733.733,0,0,1-.667,0,.2.2,0,0,1,0-.386.733.733,0,0,1,.667,0A.2.2,0,0,1,19.951,24.684Z"/><path class="cls-10" d="M19.381,24.638a.543.543,0,0,0,.493-.013.15.15,0,0,0-.009-.285.542.542,0,0,0-.493.012A.151.151,0,0,0,19.381,24.638Z"/><path class="cls-10" d="M19.484,24.561a.3.3,0,0,0,.268-.007.082.082,0,0,0,0-.155.3.3,0,0,0-.268.006A.083.083,0,0,0,19.484,24.561Z"/><path class="cls-11" d="M19.567,24.51a.108.108,0,0,0,.1,0c.027-.016.026-.042,0-.057a.108.108,0,0,0-.1,0C19.538,24.469,19.539,24.494,19.567,24.51Z"/><path class="cls-9" d="M24.281,21.651l-2.137,1.235c-.132.076-.147.191-.032.257a.5.5,0,0,0,.446-.018L24.7,21.89c.132-.076.146-.191.032-.257A.5.5,0,0,0,24.281,21.651Z"/><path class="cls-9" d="M16.561,26.109l-2.138,1.234c-.132.076-.146.192-.032.258a.5.5,0,0,0,.446-.019l2.138-1.234c.132-.077.146-.192.032-.258A.493.493,0,0,0,16.561,26.109Z"/><path class="cls-1" d="M67.675,53.625,66.5,54.3c-.136.078-.246.031-.246-.1a.515.515,0,0,1,.247-.39l1.171-.674c.136-.079.247-.032.247.1A.51.51,0,0,1,67.675,53.625Z"/><g class="cls-12"><path class="cls-13" d="M66.059,53.811l-.163.094.578.334.163-.094Zm.358-.207-.163.094.579.334L67,53.938Zm.359-.207-.163.094.578.334.163-.094Zm.358-.207-.163.094.578.334.163-.094Z"/></g><polygon class="cls-14" points="34.503 11.619 2.344 30.186 49.173 57.223 81.331 38.656 34.503 11.619"/><polygon class="cls-15" points="34.503 6.021 2.344 24.587 49.173 51.624 81.331 33.057 34.503 6.021"/><polygon class="cls-16" points="81.331 27.037 49.173 45.604 5.612 20.454 37.77 1.887 81.331 27.037"/><polygon class="cls-17" points="37.947 1.989 5.788 20.556 2.344 18.567 34.503 0 37.947 1.989"/><path class="cls-17" d="M41.036,36.518a.1.1,0,0,0,0,.19.362.362,0,0,0,.33,0,.1.1,0,0,0,0-.19A.362.362,0,0,0,41.036,36.518Zm.664.383a.1.1,0,0,0,0,.191.369.369,0,0,0,.33,0,.1.1,0,0,0,0-.191A.369.369,0,0,0,41.7,36.9Zm.664.383a.1.1,0,0,0,0,.191.369.369,0,0,0,.33,0,.1.1,0,0,0,0-.191A.369.369,0,0,0,42.364,37.284Z"/><polygon class="cls-8" points="46.723 41.042 46.757 41.1 65.185 30.461 65.151 30.402 46.723 41.042"/><polygon class="cls-8" points="73.783 25.419 67.464 29.067 67.498 29.126 73.817 25.477 73.783 25.419"/><path class="cls-8" d="M72.617,24.945a.208.208,0,0,0-.1.026,5.646,5.646,0,0,0-.932.686c-.431.375-.841.764-1.222,1.159q.156-.225.308-.45.142-.21.284-.421c.145-.216.075-.251.052-.262a.239.239,0,0,0-.167.01c-.034.011-.486.361-.661.51l-.1.087a6.288,6.288,0,0,1,.645-.58c.489-.329.975-.666,1.433-1.01-.023-.041-.047-.039-.063-.031a13.892,13.892,0,0,0-1.435,1.012l-.778.518-.183.121c-.119-.012-.307.177-.309.179-.022.023-.044.046-.064.07l-.374.252c.1-.268.179-.536.261-.8.068-.221.139-.449.216-.673-.051-.031-.073-.024-.08-.012l-1.113,1.98c-.3.214-.6.431-.879.652a2.063,2.063,0,0,0-.35.32c.033.036.055.035.069.026.32-.214.649-.433.967-.656l-.358.637c.048.034.071.027.079.015l.486-.8.14-.1c.083-.061.166-.122.248-.184l0,.138q-.182.156-.355.314c.03.04.055.038.068.027.072-.057.143-.114.213-.172-.017.036-.036.072-.055.107a1.555,1.555,0,0,1-.687.726.846.846,0,0,1-.267.089.858.858,0,0,1-.432-.066,1.5,1.5,0,0,1-.327-.2.063.063,0,0,0-.057,0,.853.853,0,0,0,.335.248.991.991,0,0,0,.5.073.917.917,0,0,0,.3-.1,1.6,1.6,0,0,0,.712-.748c.019-.034.036-.069.054-.1l0,.2c.056.025.075.018.081.007l.172-.332a.724.724,0,0,0,.452-.283c.012.054.032.061.054.059.13-.013.162-.144.186-.24a.389.389,0,0,1,.017-.06,1.668,1.668,0,0,1,.139-.118.513.513,0,0,0,.32-.321,1.383,1.383,0,0,0,.115-.171l.066-.057c.172-.148.615-.49.634-.5a.159.159,0,0,1,.071-.015c.013.007.026.058-.076.21s-.188.28-.283.42c-.189.279-.383.56-.576.836.548-.5,1.074-1.012,1.636-1.5a5.6,5.6,0,0,1,.92-.678.365.365,0,0,0,.089-.01C72.657,24.952,72.638,24.946,72.617,24.945Zm-4.506,2.588c-.258.184-.525.365-.791.543l.1-.08c.239-.187.488-.371.741-.553Zm.992-.742-.2.15A1.591,1.591,0,0,1,69.1,26.791Zm-.241.263.094-.072.121-.092-.048.088c-.025.039-.048.078-.071.116-.057.048-.115.095-.171.143Q68.826,27.146,68.862,27.054Zm-.146.032A.22.22,0,0,1,68.8,27,.33.33,0,0,1,68.716,27.086Zm.508-1.376c-.032.1-.064.2-.094.3-.091.292-.183.589-.293.884l-.123.085,0-.1c-.133.018-.159.038-.182.059Zm-.735,1.407a.549.549,0,0,1,.141-.173l0,.094-.165.114Zm-.157.257.055-.091.246-.172A1.738,1.738,0,0,1,68.332,27.374Zm.393.215,0-.186.13-.109C68.819,27.362,68.725,27.589,68.725,27.589Zm.566-.49a.778.778,0,0,1-.3.254,1.282,1.282,0,0,1,.44-.471A1.2,1.2,0,0,1,69.291,27.1Zm.2-.325c-.04.023-.067.039-.093.056.064-.053.09-.073.116-.093Zm-.022-.092-.1.088c-.074.057-.146.114-.218.172.028-.05.038-.064.047-.078l.031-.044.067-.093q.185-.14.377-.278c0,.024-.011.049-.018.073Zm.293-.261a.34.34,0,0,1,.111-.113C69.831,26.345,69.794,26.383,69.759,26.421Z"/><path class="cls-18" d="M47.96,36.257c-1.985,1.146-1.985,3.005,0,4.151a7.946,7.946,0,0,0,7.189,0c1.985-1.146,1.985-3.005,0-4.151A7.946,7.946,0,0,0,47.96,36.257Zm7.047,4.069a7.637,7.637,0,0,1-6.905,0c-1.906-1.1-1.906-2.886,0-3.987a7.637,7.637,0,0,1,6.905,0C56.913,37.44,56.913,39.225,55.007,40.326Zm-5.9-.581a5.406,5.406,0,0,0,4.892,0c1.351-.78,1.351-2.045,0-2.825a5.406,5.406,0,0,0-4.892,0C47.757,37.7,47.757,38.965,49.108,39.745Zm.747-2.393a3.754,3.754,0,0,1,3.4,0,1.035,1.035,0,0,1,0,1.961,3.754,3.754,0,0,1-3.4,0A1.035,1.035,0,0,1,49.855,37.352Zm-.955-.615c-.027,0-.387-.231-.387-.231,0-.015.057-.045.057-.045.026,0,.328.193.328.193a1.611,1.611,0,0,0,.154-.073C49.119,36.623,48.9,36.737,48.9,36.737Zm.367-.178.064-.027c.037-.016.059-.034.065-.055s-.005-.042-.033-.064l-.1-.076a.172.172,0,0,0-.1-.037.221.221,0,0,0-.11.02L49,36.347c-.038.016-.061.034-.065.054s0,.042.033.064l.1.077a.172.172,0,0,0,.095.037A.234.234,0,0,0,49.267,36.559Zm-.21-.131a.22.22,0,0,1,.213.022A.217.217,0,0,1,49.057,36.428Zm.405.037-.216-.207c.006-.015.071-.038.071-.038.173.006.12.025.12.025-.036.012-.041.03-.017.053l.139.133c-.007.015-.071.038-.071.038A.023.023,0,0,1,49.462,36.465Zm.269-.1a.24.24,0,0,0,.114-.008l.179-.05c-.043-.05-.2,0-.2,0-.074-.032.129-.089.129-.089s-.042-.073-.042-.073a.131.131,0,0,0-.082-.047.24.24,0,0,0-.114.008l-.064.018a.138.138,0,0,0-.082.047.053.053,0,0,0,.013.066l.072.085A.134.134,0,0,0,49.731,36.361ZM49.68,36.2c.141-.006.032.024.032.024S49.68,36.2,49.68,36.2Zm.41.066-.13-.23a.309.309,0,0,1,.085-.027c.073-.011.091-.017.111-.021A.22.22,0,0,1,50.3,36c.008-.025.035-.041.083-.05a.256.256,0,0,1,.135,0,.115.115,0,0,1,.067.053l.09.161a.3.3,0,0,1-.084.027.882.882,0,0,1-.113-.164c-.125-.009-.138.008-.124.033l.084.148a.285.285,0,0,1-.085.028.876.876,0,0,1-.112-.165c-.133-.007-.145.009-.131.034l.084.149a.266.266,0,0,1-.084.027C50.1,36.279,50.094,36.276,50.09,36.269Zm.755-.413c-.018-.065.059-.072.059-.072C50.922,35.849,50.845,35.856,50.845,35.856Zm.082.294a1.368,1.368,0,0,1-.087-.248.328.328,0,0,1,.091-.02,1.4,1.4,0,0,1,.087.248A.3.3,0,0,1,50.927,36.15Zm.179.043a.357.357,0,0,0,.1.007c.017-.011.006-.1.006-.1a.2.2,0,0,0,.095.023.24.24,0,0,0,.137-.028.06.06,0,0,0,.027-.063l-.012-.095a.076.076,0,0,0-.043-.061.205.205,0,0,0-.107-.017.272.272,0,0,0-.089.011,1.158,1.158,0,0,0-.133,0A1.861,1.861,0,0,0,51.106,36.193Zm.14-.274a.146.146,0,0,1,.107.116c-.128.036-.151.024-.154,0l-.009-.071C51.186,35.935,51.205,35.921,51.246,35.919Zm.244.005a.059.059,0,0,1,.035-.053.261.261,0,0,1,.106-.015l.148,0c0,.055-.127.053-.127.053-.007.039.082.071.082.071a.206.206,0,0,1,.065.031c.014.086-.034.109-.127.107l-.17,0c0-.054.152-.052.152-.052.028,0,.044-.005.044-.015a.592.592,0,0,0-.122-.057.2.2,0,0,1-.066-.03A.042.042,0,0,1,51.49,35.924Zm.4.118.038-.168a.36.36,0,0,1,.1,0c.016.012-.02.176-.02.176.118.04.141.028.147,0l.036-.155a.323.323,0,0,1,.095,0,1.157,1.157,0,0,1-.038.252.329.329,0,0,1-.1,0c-.072-.008-.091-.007-.109-.008a.239.239,0,0,1-.128-.032A.06.06,0,0,1,51.888,36.042Zm.4.1.112-.233a.34.34,0,0,1,.1,0c.072.014.091.015.113.018.075.012.1.029.117.054a.167.167,0,0,1,.116-.016c.07.011.1.023.116.041a.058.058,0,0,1,.005.066l-.079.162a.335.335,0,0,1-.1,0c-.014-.014.064-.173.064-.173-.1-.047-.124-.038-.136-.012l-.072.151a.368.368,0,0,1-.1-.005c-.013-.013.064-.173.064-.173-.1-.048-.129-.038-.141-.014l-.073.152a.371.371,0,0,1-.1,0C52.288,36.153,52.284,36.149,52.287,36.142Zm.854.149a.119.119,0,0,0,.077.046.3.3,0,0,0,.084.017c.047.02.115.04.115.04a4,4,0,0,0,.288-.311c-.008-.015-.077-.034-.077-.034-.025.005-.115.11-.115.11-.134-.07-.171-.073-.2-.066a.146.146,0,0,0-.08.047l-.073.085C53.136,36.25,53.13,36.272,53.141,36.291Zm.12-.039.069-.08c.143.007.151.025.131.048l-.055.064a.077.077,0,0,1-.086.019C53.25,36.27,53.252,36.262,53.261,36.252Zm.6.206.09-.081c.024-.022.034-.043.025-.064a.11.11,0,0,0-.071-.052l-.067-.025a.239.239,0,0,0-.112-.016.147.147,0,0,0-.09.041l-.09.08c-.026.023-.034.044-.027.064a.119.119,0,0,0,.073.053l.066.025a.249.249,0,0,0,.112.015A.161.161,0,0,0,53.865,36.458Zm-.23-.061a.837.837,0,0,1,.1-.1c.127.047.041.123.041.123C53.647,36.409,53.637,36.4,53.635,36.4Zm.647-.1c.005.015-.351.288-.351.288a.3.3,0,0,1-.088-.024c0-.016.352-.289.352-.289A.28.28,0,0,1,54.282,36.293Zm-.028.151a.174.174,0,0,0-.095.036l-.1.076c-.029.022-.041.043-.035.064s.027.039.065.055l.063.028a.241.241,0,0,0,.11.02.182.182,0,0,0,.1-.036l.1-.077q.04-.032.033-.063c0-.021-.027-.039-.064-.055l-.064-.028A.23.23,0,0,0,54.254,36.444Zm.127.106a.941.941,0,0,1-.109.1c-.12-.052-.025-.125-.025-.125C54.371,36.538,54.379,36.544,54.381,36.55Zm.294.124a.158.158,0,0,1,.053,0c.066.046.02.071.02.071-.095-.045-.126-.044-.16-.026l-.2.106a.245.245,0,0,1-.078-.034c0-.014.309-.179.309-.179a.258.258,0,0,1,.079.033C54.7,36.662,54.675,36.674,54.675,36.674Zm-.079.307c.006-.015.053-.034.053-.034a.545.545,0,0,1,.111.073.044.044,0,0,0,.047.012.184.184,0,0,0,0-.091c.009-.061.023-.072.046-.081a.182.182,0,0,1,.094-.015.166.166,0,0,1,.084.039l.087.07c0,.015-.053.035-.053.035a.418.418,0,0,1-.1-.062.074.074,0,0,0-.049.08c-.012.06-.027.071-.05.081a.167.167,0,0,1-.18-.027Zm.731-.009a.2.2,0,0,1,.065.042c-.005.014-.074.038-.074.038a.191.191,0,0,1-.064-.042C55.26,36.995,55.327,36.972,55.327,36.972Zm-.508.177.359-.125a.176.176,0,0,1,.065.041c-.006.015-.365.14-.365.14a.167.167,0,0,1-.065-.041Q54.8,37.153,54.819,37.149ZM55.4,37.1a.172.172,0,0,1,.061.043c-.009.015-.084.038-.084.038a.054.054,0,0,1-.035.074c-.07-.043-.246.009-.246.009a.111.111,0,0,1-.067.091c-.072-.057-.077-.079-.067-.1a.123.123,0,0,1,.077-.049l.181-.054c-.006-.04.05-.056.05-.056A.219.219,0,0,0,55.4,37.1Zm-.149.36a.157.157,0,0,0-.089.042.054.054,0,0,0,0,.067c.093.12.488.039.488.039s-.057-.127-.057-.127a.126.126,0,0,0-.072-.052.247.247,0,0,0-.115,0Zm.256.05.027.046c-.005.007-.176.042-.176.042-.043.009-.072,0-.085-.02.021-.056.167-.086.167-.086C55.488,37.5,55.5,37.505,55.5,37.515Zm.179.148c.076.161.064.185.031.2a.089.089,0,0,1,.077.053c.015.04.009.061-.011.077a.182.182,0,0,1-.1.033l-.285.033c-.023-.064.259-.1.259-.1.028-.071,0-.08-.044-.075l-.265.031c-.023-.064.259-.1.259-.1.027-.075,0-.084-.044-.079l-.265.031C55.27,37.711,55.682,37.663,55.682,37.663Zm-.164.431a.208.208,0,0,0-.106.026.063.063,0,0,0-.031.064l.012.114a.221.221,0,0,0,.078.008c.019-.011.008-.115.008-.115.078-.027.093.1.093.1a.652.652,0,0,0,.133.007.211.211,0,0,0,.105-.027.065.065,0,0,0,.032-.064c-.008-.068-.022-.089-.049-.1a.207.207,0,0,0-.11-.019Zm.222.087c-.1.05-.106-.02-.106-.02C55.735,38.163,55.74,38.17,55.74,38.181Zm.12.161.086,0c0,.065-.089.064-.089.064a.11.11,0,0,1-.093.056c-.024-.058-.222-.061-.222-.061a.231.231,0,0,1-.137.06c-.014-.07,0-.091.026-.105a.2.2,0,0,1,.108-.021l.2,0a.129.129,0,0,1,.091-.035C55.85,38.34,55.854,38.342,55.86,38.342Zm-.554.137.206.011a.075.075,0,0,1-.08.062.155.155,0,0,1-.053-.014l-.085-.04C55.288,38.482,55.294,38.479,55.306,38.479Zm.338.253a.193.193,0,0,1,.1.035.057.057,0,0,1,.015.066l-.027.076a.287.287,0,0,1-.083,0c-.014-.013.01-.078.01-.078a.574.574,0,0,0-.193-.053.158.158,0,0,0-.085.088.262.262,0,0,1-.083,0c-.013-.013.013-.089.013-.089a.1.1,0,0,1,.059-.057.223.223,0,0,1,.113-.009Zm-.228.17a.247.247,0,0,0-.116,0,.114.114,0,0,0-.067.054c-.037.07-.037.091-.02.11a.152.152,0,0,0,.091.04l.158.028a.243.243,0,0,0,.115,0,.117.117,0,0,0,.069-.053l.023-.044a.057.057,0,0,0,0-.067.159.159,0,0,0-.093-.039Zm.154.127a.424.424,0,0,1-.229.019c.045-.083.2-.056.2-.056C55.576,39.011,55.576,39.019,55.57,39.029Zm-.406.09.385.1c.009.015-.021.055-.021.055-.03.015-.026.034-.044.058a.171.171,0,0,1-.2.056l-.268-.067c.046-.061.309.006.309.006.1-.055.085-.071.045-.081l-.249-.063c-.01-.015.02-.055.02-.055A.024.024,0,0,1,55.164,39.119Zm.038.3a.178.178,0,0,1,.071.009c.036.012.058.026.064.043s0,.037-.026.06l-.073.075a.231.231,0,0,1-.075-.012c-.008-.014.054-.077.054-.077-.014-.033-.031-.031-.057-.021l-.091.03a.256.256,0,0,1-.077.018.2.2,0,0,1-.069-.01c-.07-.023-.082-.058-.035-.1l.083-.086a.254.254,0,0,1,.075.013c.006.014-.067.089-.067.089.019.035.036.033.06.024l.086-.03A.3.3,0,0,1,55.2,39.419Zm-.383.12a.176.176,0,0,0-.093.039l-.114.094c0,.014.051.034.051.034a.625.625,0,0,0,.132-.088c.091.008-.039.114-.039.114.005.015.1.053.1.053a.232.232,0,0,0,.111.017.167.167,0,0,0,.094-.039l.04-.033c.027-.022.037-.044.032-.065s-.028-.038-.067-.053l-.134-.055A.224.224,0,0,0,54.819,39.539Zm.2.143c-.145.027-.075-.031-.075-.031C55.012,39.67,55.021,39.677,55.023,39.682Zm-.349.079.126.062c.035.018.054.037.057.058s-.012.041-.043.062L54.727,40a.209.209,0,0,1-.073-.022c0-.015.073-.065.073-.065-.006-.043-.122-.1-.122-.1a.342.342,0,0,0-.15.053.2.2,0,0,1-.073-.022c0-.015.086-.073.086-.073a.183.183,0,0,1,.1-.033A.2.2,0,0,1,54.674,39.761Zm-.048.225a.571.571,0,0,1,.057.029c-.027.038.034.073.034.073,0,.016-.055.047-.055.047a.294.294,0,0,1-.086-.036.306.306,0,0,0-.064.029c-.07-.04-.02-.068-.02-.068a1.211,1.211,0,0,0-.139-.09.3.3,0,0,1-.169-.011.224.224,0,0,1,.144-.066.2.2,0,0,1,.1.028l.142.083A.256.256,0,0,1,54.626,39.986Zm-.593.034-.153.073c.062.043.2-.023.2-.023.085.021-.089.1-.089.1,0,.016.07.066.07.066a.187.187,0,0,0,.1.034.224.224,0,0,0,.108-.023l.055-.026q.054-.025.06-.057t-.039-.063l-.1-.073a.2.2,0,0,0-.1-.034A.224.224,0,0,0,54.033,40.02Zm.222.125c-.135.024-.041-.021-.041-.021A.124.124,0,0,1,54.255,40.145Zm-.205.136a.2.2,0,0,0,.057.111c-.005.015-.068.04-.068.04a.216.216,0,0,1-.073-.044.361.361,0,0,0-.073.022c-.055-.048,0-.07,0-.07a.863.863,0,0,0-.107-.1c-.076-.075-.038-.081,0-.077a.161.161,0,0,1,.093.038l.115.1Zm-.38,0,.141.148c-.006.015-.073.036-.073.036a1.136,1.136,0,0,1-.165-.149c-.135.008-.142.026-.121.049l.132.136c-.007.016-.073.036-.073.036a2.126,2.126,0,0,1-.23-.215c.009-.015.074-.036.074-.036.163-.052.2-.055.232-.05A.161.161,0,0,1,53.67,40.282Zm-.447.057.168.222a.264.264,0,0,1-.08.032c-.17-.019-.113-.034-.113-.034.037-.009.047-.026.028-.051l-.108-.142c.01-.015.08-.033.08-.033A.023.023,0,0,1,53.223,40.339Zm-.212.134a.114.114,0,0,0-.071-.052.259.259,0,0,0-.115,0l-.2.038a1.371,1.371,0,0,0,.119.243,1.618,1.618,0,0,0,.222-.03.168.168,0,0,0,.091-.041.054.054,0,0,0,0-.067Zm-.106.024.048.084a.237.237,0,0,1-.111.054.563.563,0,0,1-.071-.1c-.015-.025,0-.041.037-.048C52.891,40.479,52.9,40.486,52.905,40.5Zm-.393,0a.236.236,0,0,0-.11-.009.329.329,0,0,0-.085.018,1.2,1.2,0,0,0-.133.01,2.6,2.6,0,0,0,.109.347.371.371,0,0,0,.1,0c.015-.013-.027-.128-.027-.128a.227.227,0,0,0,.1.017c.081-.01.112-.021.13-.039a.055.055,0,0,0,.012-.065l-.035-.093A.092.092,0,0,0,52.512,40.5Zm-.052.074.032.087c-.119.046-.145.035-.154.01l-.026-.07c-.01-.025.006-.041.046-.046C52.449,40.555,52.455,40.562,52.46,40.573Zm-.443-.045.077-.006a1.311,1.311,0,0,1,.074.25.308.308,0,0,1-.09.018A1.249,1.249,0,0,1,52,40.54C52.007,40.53,52.011,40.528,52.017,40.528Zm.144.29c.015.065-.063.071-.063.071C52.084,40.824,52.161,40.818,52.161,40.818Zm-.24-.341a.357.357,0,0,0-.095-.008c-.018.011-.011.1-.011.1a.2.2,0,0,0-.094-.025.263.263,0,0,0-.139.025.067.067,0,0,0-.031.064l.008.094a.072.072,0,0,0,.041.062.2.2,0,0,0,.1.019.34.34,0,0,0,.089-.009c.059,0,.134,0,.134,0A1.823,1.823,0,0,0,51.921,40.477Zm-.154.271a.139.139,0,0,1-.1-.116c.131-.035.152-.022.154,0l.007.072C51.828,40.734,51.808,40.747,51.767,40.748Zm-.4.092.078,0c-.005.066-.083.064-.083.064C51.349,40.843,51.354,40.84,51.367,40.84Zm.114-.285-.016.242a.323.323,0,0,1-.1.009,1.136,1.136,0,0,1,0-.253.371.371,0,0,1,.1-.009C51.474,40.545,51.481,40.548,51.481,40.555Zm-.247.23a.245.245,0,0,1-.106.011l-.149-.01c.011-.054.135-.046.135-.046.012-.039-.073-.075-.073-.075a.179.179,0,0,1-.058-.034c0-.087.048-.107.141-.1l.169.011c-.01.054-.158.044-.158.044-.03,0-.045,0-.047.013a.544.544,0,0,0,.114.062.183.183,0,0,1,.061.033C51.273,40.758,51.259,40.775,51.234,40.785Zm-.3-.259-.076.238a.394.394,0,0,1-.1,0,1.336,1.336,0,0,1,.061-.251.342.342,0,0,1,.1,0C50.931,40.514,50.935,40.519,50.933,40.526Zm-.184.272.077.008a.094.094,0,0,1-.1.057C50.729,40.8,50.737,40.8,50.749,40.8Zm-.147-.074a.243.243,0,0,1-.116.005l-.129-.019c.025-.055.137-.038.137-.038a.216.216,0,0,0,.1-.108.346.346,0,0,0-.148-.054c.024-.055.153-.036.153-.036a.18.18,0,0,1,.1.037.052.052,0,0,1,.01.066l-.041.092A.1.1,0,0,1,50.6,40.724ZM50.13,40.7l.074.015a.11.11,0,0,1-.111.048c-.011-.013.015-.056.015-.056S50.119,40.7,50.13,40.7Zm.25-.254-.134.23a.348.348,0,0,1-.1-.007,1.422,1.422,0,0,1,.121-.244.348.348,0,0,1,.1.007C50.379,40.438,50.383,40.442,50.38,40.449Zm-.443.165a.688.688,0,0,1-.092-.011c-.112-.028-.136-.065-.1-.116l.116-.155a.359.359,0,0,1,.095.012c.01.014-.1.167-.1.167.095.056.123.049.141.025l.107-.145a.366.366,0,0,1,.1.012,1.7,1.7,0,0,1-.155.237.321.321,0,0,1-.095-.012C49.935,40.626,49.931,40.621,49.937,40.614Zm-.189-.22a.06.06,0,0,0,.022-.065c-.008-.019-.031-.035-.071-.048a.271.271,0,0,0-.078-.017c.053-.038.186.006.186.006.049-.05-.1-.1-.1-.1a.24.24,0,0,0-.113-.013.153.153,0,0,0-.088.043l-.218.222a1.233,1.233,0,0,0,.188.074.253.253,0,0,0,.113.012.15.15,0,0,0,.087-.043Zm-.2.055a.932.932,0,0,1-.114-.03c-.005-.008.075-.089.075-.089a.079.079,0,0,1,.087-.016c.048.051-.018.117-.018.117A.053.053,0,0,1,49.55,40.449Zm-.249-.107.1-.077c.028-.022.038-.043.032-.064s-.029-.038-.066-.054L49.2,40.08c-.057.045.09.106.09.106-.013.052-.2-.023-.2-.023a.317.317,0,0,0-.093.055c-.028.023-.039.044-.033.064s.028.039.067.055l.057.023a.236.236,0,0,0,.111.02A.17.17,0,0,0,49.3,40.342Zm-.218-.065c.053-.044.152,0,.152,0C49.093,40.29,49.085,40.283,49.083,40.277Zm.037-.225-.384.261a.283.283,0,0,1-.085-.028c0-.015.381-.275.381-.275a.288.288,0,0,1,.086.027C49.127,40.042,49.127,40.047,49.12,40.052Zm-.577.163a.26.26,0,0,1-.081-.031c0-.014.052-.047.052-.047a.286.286,0,0,1,.082.03C48.6,40.182,48.543,40.215,48.543,40.215Zm.338-.3c.013,0,.068.035.068.035a3.028,3.028,0,0,1-.286.191.256.256,0,0,1-.083-.03,2.987,2.987,0,0,1,.288-.191Zm-.46.182a.254.254,0,0,1-.078-.032c0-.016.063-.049.063-.049s-.048-.038-.048-.038c0-.016.047-.039.047-.039a.217.217,0,0,1,.074.03,1.666,1.666,0,0,0,.158-.078c-.021-.074.023-.1.023-.1.1.044.112.065.111.086s-.018.04-.052.059l-.149.079c.023.038-.022.063-.022.063A.2.2,0,0,0,48.421,40.1Zm.169-.366.108-.006c.014.018-.145.094-.145.094a.251.251,0,0,1-.076-.037c0-.014.056-.04.056-.04A.173.173,0,0,1,48.59,39.732Zm-.426.087a.166.166,0,0,1-.084-.039l-.088-.07c.005-.015.053-.034.053-.034a.362.362,0,0,1,.1.061.076.076,0,0,0,.05-.081c.01-.06.026-.071.05-.08a.164.164,0,0,1,.178.026l.1.079c-.006.015-.052.035-.052.035a.528.528,0,0,1-.112-.073.043.043,0,0,0-.047-.011.175.175,0,0,0,0,.09c-.009.061-.023.072-.046.082A.182.182,0,0,1,48.164,39.819Zm-.106-.2.143-.048a.113.113,0,0,0,.075-.051.058.058,0,0,0-.022-.065l-.1-.1a.224.224,0,0,0-.075.013c-.008.015.081.1.081.1-.049.045-.161-.068-.161-.068a.566.566,0,0,0-.125.029.123.123,0,0,0-.074.05c-.01.02,0,.042.021.066l.036.035a.149.149,0,0,0,.087.044A.252.252,0,0,0,48.058,39.618Zm-.142-.088a.1.1,0,0,1,.13.01C47.934,39.548,47.916,39.53,47.916,39.53Zm-.264-.243c.025.1.051.119.083.126a.268.268,0,0,0,.114-.007L48,39.368a.146.146,0,0,0,.085-.044.05.05,0,0,0-.008-.064l-.089-.118c-.025-.005-.567.132-.567.132s.021.054.021.054A1.448,1.448,0,0,0,47.652,39.287Zm.087.042c-.033-.043-.021-.059.022-.069l.113-.029c.041-.01.07-.005.087.017-.012.061-.153.1-.153.1C47.755,39.346,47.746,39.34,47.739,39.329Zm-.306-.429c0,.105.018.122.048.132a.268.268,0,0,0,.115,0l.159-.024a.2.2,0,0,0,.1-.035.054.054,0,0,0,.01-.065c-.079-.132-.653-.046-.653-.046C47.237,38.93,47.433,38.9,47.433,38.9Zm.114-.017.12-.018c.044-.006.071,0,.081.025-.027.059-.176.081-.176.081C47.487,38.9,47.5,38.89,47.547,38.883Zm.1-.118a.189.189,0,0,0,.1-.031.06.06,0,0,0,.022-.065c-.019-.072-.037-.092-.066-.1a.223.223,0,0,0-.112-.013l-.163.014a.18.18,0,0,0-.1.031.057.057,0,0,0-.022.065c.018.073.036.093.065.1a.225.225,0,0,0,.112.013Zm-.235-.076c.037-.061.193-.074.193-.074.022.086-.133.1-.133.1C47.421,38.707,47.416,38.7,47.412,38.689Zm.178-.171a.224.224,0,0,0,.107-.025.066.066,0,0,0,.033-.064l-.007-.114a.257.257,0,0,0-.078-.009c-.018.011-.011.116-.011.116-.081.025-.089-.1-.089-.1a.607.607,0,0,0-.134-.008.2.2,0,0,0-.106.025.061.061,0,0,0-.033.063c0,.069.018.089.043.1a.232.232,0,0,0,.111.02Zm-.219-.091c.1-.048.106.023.106.023C47.376,38.446,47.372,38.439,47.371,38.427Zm-.18-.152-.077,0c0-.066.083-.064.083-.064C47.21,38.272,47.2,38.275,47.191,38.275Zm.078-.009c.023-.054.442-.045.442-.045,0,.066-.423.056-.423.056S47.269,38.273,47.269,38.266Zm.315-.1-.289-.02c.014-.065.3-.045.3-.045.068-.069.047-.082,0-.086L47.326,38c.014-.066.431-.036.431-.036-.016.162-.033.181-.061.192A.235.235,0,0,1,47.584,38.168Zm-.122-.283a.148.148,0,0,1-.083-.031.054.054,0,0,1,0-.062l.033-.084a.249.249,0,0,1,.079,0c.014.012-.014.082-.014.082.029.03.045.025.065.012l.072-.044a.2.2,0,0,1,.065-.03.188.188,0,0,1,.072,0c.078.01.106.042.086.095l-.039.1a.286.286,0,0,1-.079,0c-.012-.013.021-.1.021-.1-.034-.03-.051-.025-.069-.013l-.068.044a.255.255,0,0,1-.065.031A.2.2,0,0,1,47.462,37.885Zm.38-.163-.393-.085c.085-.161.116-.177.159-.181a.045.045,0,0,1-.017-.069.127.127,0,0,1,.081-.062.26.26,0,0,1,.114,0l.274.06c-.04.061-.309,0-.309,0-.09.052-.075.068-.033.077l.254.055c-.04.061-.308,0-.308,0-.093.056-.078.071-.036.08l.254.055C47.862,37.722,47.854,37.724,47.842,37.722Zm.246-.384a.153.153,0,0,0,.086-.045l.037-.04c.023-.024.029-.045.019-.066a.12.12,0,0,0-.076-.049l-.145-.046a.237.237,0,0,0-.113-.01.153.153,0,0,0-.086.045l-.038.04c-.023.024-.029.047-.019.067a.122.122,0,0,0,.077.049l.144.045A.229.229,0,0,0,48.088,37.338Zm-.231-.129a.339.339,0,0,1,.24-.015c-.072.076-.21.032-.21.032C47.87,37.221,47.86,37.215,47.857,37.209Zm.431-.075a.164.164,0,0,0,.09-.037l.128-.106c-.005-.015-.49-.211-.49-.211a.194.194,0,0,0-.07.039,1.017,1.017,0,0,0,.171.082c-.14.067-.149.088-.142.107a.119.119,0,0,0,.068.053l.136.054A.242.242,0,0,0,48.288,37.134Zm-.2-.145c.06-.061.09-.064.128-.049l.1.041c.037.015.044.032.02.052a.419.419,0,0,1-.222-.025C48.1,37,48.088,37,48.086,36.989Z"/><path class="cls-17" d="M54.634,28.857a.1.1,0,0,1,0,.191.362.362,0,0,1-.33,0,.1.1,0,0,1,0-.191A.369.369,0,0,1,54.634,28.857Z"/><path class="cls-17" d="M54.968,29.241a.1.1,0,0,0,0,.19.362.362,0,0,0,.33,0,.1.1,0,0,0,0-.19A.362.362,0,0,0,54.968,29.241Z"/><path class="cls-17" d="M55.632,29.624a.1.1,0,0,0,0,.19.362.362,0,0,0,.33,0,.1.1,0,0,0,0-.19A.362.362,0,0,0,55.632,29.624Z"/><path class="cls-19" d="M25.623,17.267l.186.108,1.313-.758-.187-.108Zm2.553-1.474-1.055.609.186.108,1.056-.61Zm-6.551,4-.186-.107-3.282,1.894.187.108Zm6.737-4.1.187.107,2.378-1.373-.186-.108Zm5.13-2.747,1.737-1-.186-.107-1.737,1Zm-11.078,6.4-.186-.108-.6.349.186.107Zm3.023-1.961L22.414,19.12l.186.108,3.023-1.746Zm7.683-4.435-2.193,1.266.186.108,2.193-1.267ZM17.972,21.685l-1.041.6.186.108,1.041-.6ZM46.9,33.422l-.168-.1L44.351,34.7l.168.1Zm1.018-.015.168.1,2.377-1.373-.168-.1Zm3.965-2.862,1.407-.812-.167-.1-1.408.812Zm-1.4,1.381.168.1,1.04-.6-.167-.1Zm-3.562,1.29.167.1,2.407-1.39-.168-.1Zm4.6-2.659-2.009,1.16.168.1,2.009-1.16Zm.01,1.528-1.337.772.167.1,1.337-.771Zm.356-.012,1.217-.7-.167-.1-1.217.7Zm-.01-.761,1.56-.9-.167-.1-1.561.9Zm-1.872,1.654-3.079,1.778.167.1,3.079-1.777Zm-4.072,2.351L43.2,36.9l.167.1,2.735-1.58ZM44.5,35.38l-1.956,1.13.167.1,1.956-1.129Zm2.408-.431-.168-.1-.614.355.167.1ZM44.33,34.9l-.168-.1-2.28,1.317.167.1Zm3.563-1.291-.168-.1-3.039,1.755.167.1ZM36.932,13.664l.174.1,2.391-1.38-.174-.1Zm-.051.23-.173-.1-2.864,1.654.173.1Zm.533.288.174.1,1.591-.918-.174-.1Zm1.816-1.049.174.1,1.279-.739-.174-.1Zm.771.351.174.1,2.39-1.38-.173-.1Zm-2.177,2.053.174.1,1.591-.919-.174-.1Zm1.952-1.923-2.864,1.653.174.1,2.864-1.654Zm1.143.136-1.279.738.174.1,1.279-.739Zm2.7-3.149-2.883,1.664.174.1L43.79,10.7Zm-6.756,4.9-.174-.1L30.06,19.224l.173.1Zm-3.387,1.16-.173-.1-4.014,2.317.173.1Zm8.7-6.02-2.627,1.517.174.1,2.627-1.516Zm-8.383,5.041-.173-.1-4.088,2.361.173.1Zm7.352-2.058.174.1L44.2,12.056l-.173-.1Zm1.473-1.646.173.1,1.279-.738-.173-.1Zm-8.733,6.038-.173-.1L31.184,19.37l.174.1ZM37.6,15.666l-3.663,2.116.173.1,3.664-2.115Zm4.8-5.159.174.1,1.534-.886-.173-.1Zm-5.037,3.905-.174-.1-3.663,2.115.173.1Zm6.758-3.306.173.1.79-.456-.174-.1Zm.99.223-.859.5.173.1.86-.5Zm-6.254,4.8.173.1,1.591-.919-.174-.1Zm.434.745-.174-.1-2.828,1.633.173.1Zm2.66-2.532-1.279.738.174.1,1.279-.739Zm-1.523,2.471.173.1,2.829-1.633-.174-.1Zm1.748-2.6.174.1,2.883-1.664-.174-.1Zm3.044-.761,1.674-.967-.173-.1-1.675.967Zm-1.739,1.6.174.1,1.238-.714-.174-.1Zm-8.564,3.554-.174-.1-2.485,1.435.173.1Zm3.715-2.346-3.664,2.116.174.1,3.663-2.115Zm.71.386.174.1L42.38,15.1l-.174-.1Zm5.479-3.163-2.39,1.38.173.1L45,13.585Zm-.19,1.7L43.04,16.1l.174.1,1.591-.919Zm1.513-3.261-.86.5.174.1.859-.5ZM45.03,15.156l1.448-.836-.173-.1-1.449.836Zm.088-.846,1.857-1.073-.174-.1-1.857,1.072Zm-2.3,1.924L39.152,18.35l.173.1,3.664-2.115Zm-4.844,2.8-3.03,1.749.174.1,3.029-1.749Zm-1.61.134L33.525,20.8l.173.1,2.837-1.638ZM39.1,18.58l-.173-.1L38.2,18.9l.174.1Zm-2.863.061-.173-.1-3.5,2.018.173.1Zm4.139-1.594-.173-.1-3.617,2.088.174.1Zm4.453.674,2.882-1.664.174.1L45,17.822Zm.2.879-.174-.1-2.864,1.653.174.1Zm-1.534.09,1.279-.739-.173-.1-1.279.739Zm-.225.13-.173-.1-1.591.919.174.1Zm3.2-2.645,1.279-.738-.174-.1-1.279.738Zm1.461-.248.174.1,2.658-1.534-.174-.1Zm-5.993,4.456-.174-.1L35.107,24.13l.173.1Zm-1.172-.914,2.864-1.654-.174-.1L40.6,19.369Zm3.089-1.784,2.39-1.38-.174-.1-2.39,1.38ZM40.546,19.6l-.174-.1-4.059,2.344.173.1Zm7.433-4.292L49.8,14.258l-.174-.1-1.817,1.049Zm-6.695,4.461L34.828,23.5l.173.1,6.457-3.727Zm-6.56,2.4,2.435-1.406-.174-.1L34.55,22.064Zm12.8-7.592.174.1,1.592-.919-.174-.1Zm-2.934,1.895L47.475,14.8l-.174-.1-2.882,1.664Zm-1.5.868,1.279-.738-.173-.1-1.279.739Zm-1.816,1.048,1.591-.918-.173-.1-1.591.918Zm-3.888,2.245,3.664-2.115-.174-.1L37.21,20.528ZM47.831,18l.173.1L50.4,16.724l-.174-.1Zm-2.177,2.053.173.1,1.591-.918-.174-.1Zm1.952-1.923-2.864,1.654.174.1,2.863-1.654ZM46.088,20.8l-.174-.1-2.828,1.633.174.1Zm2.66-2.533-1.279.739.174.1,1.279-.739Zm-4.057,1.748-.174-.1-6.684,3.859.174.1Zm2.534.724.173.1,2.829-1.633-.174-.1Zm1.748-2.6.174.1,2.883-1.665-.174-.1Zm1.473-1.646.174.1,1.279-.738-.174-.1Zm1.571.885,1.674-.966-.173-.1-1.675.967Zm-1.739,1.6.174.1,1.238-.715-.174-.1Zm-8.564,3.553-.174-.1L39,23.9l.173.1Zm3.715-2.345L41.765,22.3l.174.1L45.6,20.287Zm.71.386.174.1,2.864-1.654-.174-.1Zm5.479-3.164-2.39,1.38.174.1,2.39-1.38Zm.332-1.783.174.1,1.085-.626-.174-.1Zm.991.224-.86.5.174.1.86-.5Zm-9.783,7.239-2.852,1.647.174.1,2.852-1.646Zm-.123-.524-.174-.1-3.6,2.077.174.1Zm4.138-1.593-.173-.1-3.617,2.088.174.1ZM26.82,19.5l.174.1,2.39-1.38-.174-.1Zm-.051.23-.174-.1-2.864,1.653.174.1Zm.533.287.173.1,1.591-.918-.174-.1Zm.41,1.355.173.1,1.591-.918-.174-.1Zm1.952-1.923L26.8,21.106l.174.1,2.863-1.654Zm1.142.136-1.279.739.174.1,1.279-.738Zm-4.057,1.748-.174-.1L20.8,24.57l.174.1ZM23.362,22.5l-.174-.1-3.075,1.776.173.1Zm.318-.979-.174-.1-4.088,2.36.174.1Zm.092,2.334-.174-.1-2.072,1.2.173.1Zm3.715-2.345L23.823,23.62l.174.1,3.663-2.115ZM27.25,20.25l-.173-.1-3.664,2.115.174.1Zm1.494,1.721.174.1,1.591-.918-.174-.1Zm.434.746-.174-.1-2.828,1.632.174.1Zm2.661-2.533-1.279.739.173.1,1.279-.738Zm-1.524,2.472.174.1,2.828-1.633-.174-.1ZM24.8,24.446l-.173-.1-2.073,1.2.174.1ZM28.519,22.1l-3.663,2.115.173.1L28.693,22.2Zm.71.386.174.1,2.864-1.654-.174-.1Zm5.289-1.463-1.59.919.173.1,1.591-.918ZM32.7,22.073l-3.664,2.115.174.1,3.663-2.115Zm-4.845,2.8L24.6,26.749l.173.1,3.255-1.879ZM26.249,25l-2.328,1.344.174.1L26.422,25.1Zm2.739-.585-.174-.1-.731.422.174.1Zm-2.863.061-.174-.1-2.714,1.567.174.1Zm4.139-1.593-.174-.1-3.617,2.088.174.1Zm4.655,1.553-.173-.1-2.864,1.654.173.1Zm-1.533.089,1.279-.738-.174-.1-1.279.738Zm-.225.13-.174-.1-1.591.918.174.1ZM31.83,26.222l-.173-.1-4.088,2.36.173.1Zm-1.172-.915,2.864-1.653-.174-.1-2.864,1.654Zm3.089-1.783,2.391-1.38-.174-.1-2.391,1.381Zm-3.314,1.913-.173-.1L26.2,27.681l.174.1Zm.738.169-4.3,2.484.174.1,4.3-2.483ZM25.707,27.37l1.339-.773-.173-.1-1.34.774Zm7.269-4.2,1.279-.738-.174-.1-1.279.738ZM31.16,24.222l1.591-.919-.174-.1-1.591.919Zm-3.889,2.245,3.664-2.115-.174-.1L27.1,26.367Zm8.27-.572.174.1,1.591-.919-.174-.1Zm1.952-1.922-2.864,1.653.174.1,2.864-1.653Zm-1.518,2.668-.173-.1-2.829,1.633.174.1Zm2.661-2.532-1.279.738.174.1,1.279-.739Zm-4.058,1.747-.174-.1-5.775,3.335.173.1Zm2.534.724.174.1,2.828-1.633-.174-.1ZM31.6,28.371l-.173-.1-2.073,1.2.174.1Zm3.715-2.346-3.663,2.116.173.1,3.664-2.115Zm.711.386.173.1,2.864-1.653-.174-.1Zm-2.981,2.517-2.328,1.344.174.1,2.327-1.344Zm-.124-.524-.174-.1L30.035,29.87l.173.1Zm4.139-1.594-.174-.1L33.271,28.8l.173.1Zm13.577-5.233.173.1L53.2,20.3l-.174-.1Zm-.052.23-.173-.1L47.549,23.36l.174.1Zm.534.288.173.1,1.591-.919-.174-.1Zm1.815-1.049.174.1,1.279-.738-.174-.1Zm.772.351.173.1,2.391-1.38-.174-.1ZM51.53,23.449l.173.1,1.591-.919-.174-.1Zm1.952-1.922L50.618,23.18l.173.1,2.864-1.653Zm1.142.136-1.279.738.174.1,1.279-.738Zm2.7-3.149-2.883,1.664.174.1L57.5,18.614Zm-6.756,4.9-.173-.1-6.628,3.827.174.1ZM47.18,24.57l-.174-.1-4.014,2.318.173.1Zm8.7-6.02-2.627,1.517.174.1,2.627-1.517ZM47.5,23.591l-.174-.1-4.088,2.361.174.1Zm7.351-2.058.174.1,2.883-1.664-.174-.1Zm1.473-1.646.174.1,1.279-.739-.174-.1ZM47.59,25.925l-.174-.1-2.527,1.459.174.1Zm3.715-2.346-3.664,2.115.174.1,3.663-2.115Zm4.8-5.159.174.1,1.535-.885-.174-.1Zm-5.037,3.9-.173-.1L47.231,24.34l.174.1Zm6.758-3.307.174.1.789-.456-.173-.1Zm.991.224-.86.5.174.1.859-.5Zm-6.255,4.8.174.1,1.59-.919-.173-.1Zm.434.746-.174-.1-2.828,1.633.174.1Zm2.661-2.532L54.378,23l.173.1,1.279-.738ZM54.133,24.73l.174.1L57.135,23.2l-.174-.1Zm1.749-2.6.173.1,2.883-1.664-.174-.1Zm3.043-.761L60.6,20.4l-.173-.1-1.674.966Zm-1.739,1.6.174.1,1.238-.715-.173-.1Zm-8.564,3.554-.174-.1-2.485,1.435.174.1Zm3.715-2.346L48.673,26.29l.174.1,3.664-2.115Zm.71.386.174.1,2.864-1.653-.174-.1Zm5.48-3.164-2.391,1.381.174.1L58.7,21.5ZM49.3,28.314l-2.793,1.612.173.1,2.793-1.613Zm10.545-8.476-.86.5.174.1.86-.5Zm-1.026,2.384L60.68,21.15l-.173-.1L58.65,22.122ZM46.286,30.056l-2.462,1.421.174.1,2.461-1.422Zm3.78-2.978L47.23,28.715l.174.1,2.836-1.637Zm-6.4,4.693-.173-.1-1.5.866.174.1Zm6.28-5.217-.174-.1-3.5,2.018.174.1Zm4.139-1.594-.174-.1-3.617,2.088.174.1ZM40.525,27.415l.174.1,2.39-1.38-.173-.1Zm-.051.231-.174-.1L37.436,29.2l.174.1Zm.533.287.174.1,1.59-.918-.173-.1Zm.41,1.355.174.1,1.591-.918-.174-.1Zm1.952-1.923-2.864,1.654.174.1,2.864-1.654Zm1.143.136-1.279.739.173.1,1.279-.739Zm-4.058,1.748-.174-.1-5.775,3.335.173.1Zm-3.387,1.159-.173-.1-3.076,1.776.174.1Zm.318-.979-.174-.1-4.088,2.36.174.1Zm.092,2.334-.173-.1-2.073,1.2.174.1Zm3.715-2.345-3.663,2.115.173.1,3.664-2.115Zm-.236-1.255-.174-.1-3.663,2.115.173.1Zm1.493,1.721.174.1,1.591-.918-.174-.1Zm.434.745-.173-.1-2.828,1.633.173.1ZM45.544,28.1l-1.279.739.174.1,1.279-.739ZM44.02,30.568l.174.1,2.828-1.633-.173-.1Zm-5.511,1.791-.173-.1-2.073,1.2.174.1Zm3.715-2.345-3.663,2.115.173.1L42.4,30.114Zm.711.385.173.1,2.864-1.654-.173-.1Zm-1.372,2.384-3.254,1.879.173.1,3.255-1.879Zm-1.609.133L37.626,34.26l.174.1,2.327-1.344Zm-.124-.524-.173-.1-2.714,1.567.173.1ZM43.969,30.8l-.173-.1-3.617,2.088.173.1Zm18.476-5.78,2.422-1.4.168.1-2.423,1.4Zm-2.131,2.189-.167-.1,2.407-1.39.167.1Zm.867-1.459,1.075-.621.167.1-1.075.62Zm-1.359.977-.167-.1,1.337-.772.167.1ZM63.6,23.586l1.075-.621.167.1-1.075.62Zm3.454-1.228.167.1-1.995,1.152-.168-.1ZM56.69,29.3l-.168-.1,3.436-1.983.167.1ZM58.8,26.353l2.407-1.389.167.1-2.407,1.39Zm2.6-1.5,2.009-1.16.167.1-2.009,1.16Zm-6.03,3.674-.167-.1,3.412-1.969.167.1Zm9.492-5.673,1.527-.882.167.1-1.527.881Zm-5.229,3.978-3.615,2.088-.167-.1,3.615-2.087Z"/><path class="cls-17" d="M16.942,20.155l-.726.419a2.278,2.278,0,0,1-1.063.323,1.874,1.874,0,0,1-1.014-.255l-1.9-1.1q-.476-.274-.441-.585c.022-.207.209-.412.559-.614l.725-.419a2.281,2.281,0,0,1,1.064-.32,1.857,1.857,0,0,1,1.013.252l.283.163c.088.051.084.1-.014.161l-.559.322a.255.255,0,0,1-.271.005l-.247-.143a.694.694,0,0,0-.364-.106.836.836,0,0,0-.383.128l-.453.261c-.138.08-.209.152-.215.218s.056.136.184.21l1.833,1.058a.676.676,0,0,0,.363.106.814.814,0,0,0,.377-.124l.453-.261c.142-.082.216-.156.221-.222s-.054-.135-.183-.209l-.246-.143c-.088-.05-.086-.1.007-.157L16.5,18.8a.259.259,0,0,1,.278-.008l.283.163q.468.27.435.585C17.472,19.751,17.288,19.955,16.942,20.155Z"/><path class="cls-17" d="M19.47,18.7l-.566.326a.249.249,0,0,1-.265.008l-3.613-2.086c-.084-.048-.079-.1.014-.153l1.583-.914a2.279,2.279,0,0,1,1.07-.32,1.872,1.872,0,0,1,1.02.251l.468.271q.68.392.31.862c.024.014,2.076.377,2.076.377.137.032.147.082.031.149l-.538.311a.732.732,0,0,1-.2.085.429.429,0,0,1-.189-.009l-1.963-.365-.446.257c-.053.031-.058.059-.014.085l1.232.711C19.567,18.591,19.563,18.642,19.47,18.7Zm-1.825-1.3.652-.376q.213-.123.231-.228c.013-.069-.04-.139-.161-.208l-.468-.271a.677.677,0,0,0-.371-.1.887.887,0,0,0-.4.131l-.652.377c-.049.028-.051.055-.007.081l1.034.6A.13.13,0,0,0,17.645,17.4Z"/><path class="cls-17" d="M24.718,15.665l-2.175,1.256a.251.251,0,0,1-.266.008l-3.612-2.086c-.084-.048-.08-.1.014-.153l2.175-1.256a.243.243,0,0,1,.259,0l.409.236c.084.048.081.1-.007.149l-1.391.8c-.053.031-.057.059-.013.085l.781.451a.137.137,0,0,0,.146-.008l1.137-.657a.251.251,0,0,1,.266-.008l.409.236c.084.049.08.1-.013.154l-1.138.657c-.053.03-.058.058-.014.084l.836.482a.137.137,0,0,0,.146-.008l1.39-.8a.245.245,0,0,1,.259,0l.409.236C24.809,15.564,24.807,15.614,24.718,15.665Z"/><path class="cls-17" d="M25.464,15.089,21.852,13c-.085-.049-.08-.1.013-.154l1.643-.949a2.28,2.28,0,0,1,1.064-.319,1.856,1.856,0,0,1,1.013.251l1.9,1.1q.47.272.436.586t-.553.614l-1.643.948A.249.249,0,0,1,25.464,15.089Zm.382-.839.726-.418c.142-.082.215-.156.221-.222s-.055-.136-.183-.21l-1.833-1.058a.683.683,0,0,0-.364-.106.831.831,0,0,0-.384.128l-.725.418c-.049.029-.051.056-.007.081l2.41,1.391A.128.128,0,0,0,25.846,14.25Z"/><path class="cls-17" d="M26.408,10.373l3.613,2.085c.084.049.079.1-.014.154l-.566.326a.249.249,0,0,1-.266.008l-3.612-2.085c-.084-.049-.079-.1.014-.154l.566-.327A.249.249,0,0,1,26.408,10.373Z"/><path class="cls-17" d="M32.369,11.248l-.559.323a.256.256,0,0,1-.272.011L28.526,9.844a.131.131,0,0,0-.14,0l-.758.438a.251.251,0,0,1-.266.008l-.408-.236c-.085-.049-.08-.1.014-.154l2.514-1.452a.251.251,0,0,1,.266-.007l.408.236c.084.048.08.1-.013.153l-.758.438c-.054.031-.058.059-.014.084L32.382,11.1C32.466,11.143,32.462,11.194,32.369,11.248Z"/></g></g></g></svg>