<svg xmlns="http://www.w3.org/2000/svg" xmlns:xlink="http://www.w3.org/1999/xlink" viewBox="0 0 121.79 76.532"><defs><style>.cls-1{fill:none;}.cls-2{isolation:isolate;}.cls-3{fill:#50197c;}.cls-15,.cls-3{opacity:0.4;}.cls-15,.cls-19,.cls-26,.cls-3,.cls-39{mix-blend-mode:multiply;}.cls-18,.cls-4{opacity:0.3;}.cls-5{fill:#cfe9ff;}.cls-26,.cls-5{opacity:0.7;}.cls-6{fill:#788eff;}.cls-7{opacity:0.5;}.cls-8{fill:#95acf4;}.cls-23,.cls-8{opacity:0.9;}.cls-9{fill:#455cba;}.cls-10{fill:#fffff7;}.cls-11{fill:url(#_ÂÁ_Ï_ÌÌ_È_ËÂÌÚ_396);}.cls-12{fill:#d3d3d1;}.cls-13{clip-path:url(#clip-path);}.cls-14{fill:#ffd2b1;}.cls-15{fill:#ffccb5;}.cls-16{opacity:0.8;fill:url(#_ÂÁ_Ï_ÌÌ_È_ËÂÌÚ_98);}.cls-17,.cls-18,.cls-19{fill:#ffe5d0;}.cls-18{mix-blend-mode:screen;}.cls-19,.cls-20,.cls-30{opacity:0.6;}.cls-20{fill:#ffb18f;}.cls-21,.cls-39{fill:#c2b3c6;}.cls-22{fill:#a091bc;}.cls-23{fill:#bf90b2;}.cls-24{fill:#e2d4dd;}.cls-25{fill:#ebdaed;}.cls-26,.cls-30{fill:#e0aacc;}.cls-27{fill:#f9f8f2;}.cls-28{fill:#d9caed;}.cls-29,.cls-32{fill:#7f7799;}.cls-29{opacity:0.2;}.cls-31{fill:#d4a8c6;}.cls-33{fill:#3263a8;}.cls-34{fill:#6b6597;}.cls-35{fill:#f4c245;}.cls-36{fill:#e8ab31;}.cls-37{fill:#d1c1d3;}.cls-38{fill:#7d239b;}.cls-40{fill:#c4bea3;}.cls-41{fill:#d8d2b8;}.cls-42{fill:#fff9e1;}.cls-43{fill:#687a51;}.cls-44{fill:#a5aa9f;}</style><linearGradient id="_ÂÁ_Ï_ÌÌ_È_ËÂÌÚ_396" x1="82.31" y1="37.088" x2="74.671" y2="50.32" gradientUnits="userSpaceOnUse"><stop offset="0" stop-color="#fffefa"/><stop offset="1" stop-color="#f1f0ec"/></linearGradient><clipPath id="clip-path"><path id="Cylinder_face" data-name="Cylinder face" class="cls-1" d="M74.118,47.218c0,1.743.637,2.946,1.656,3.464.94.476-.563,12.756,11.38,17.476,3.512,1.388,30.935,4.723,33.938.39,3.095-4.466-4.864-22.765-9.041-25.512-4.512-2.967-28.1-4.88-29.158-5.377a3.817,3.817,0,0,0-3.525.466A11.605,11.605,0,0,0,74.118,47.218Z"/></clipPath><linearGradient id="_ÂÁ_Ï_ÌÌ_È_ËÂÌÚ_98" x1="99.728" y1="40.581" x2="91.952" y2="59.386" gradientUnits="userSpaceOnUse"><stop offset="0" stop-color="#ffd2b1"/><stop offset="0.485" stop-color="#ffb59a"/><stop offset="1" stop-color="#ed9783"/></linearGradient></defs><g class="cls-2"><g id="_0" data-name="0"><g id="_15" data-name="15"><polygon class="cls-3" points="86.135 45.18 54.304 45.18 0 76.532 31.832 76.532 86.135 45.18"/><g class="cls-4"><polygon class="cls-5" points="87.671 34.403 35.72 64.397 35.72 32.278 87.671 2.285 87.671 34.403"/><polygon class="cls-6" points="35.722 29.993 35.722 35.348 87.671 5.355 87.671 0 35.722 29.993"/></g><g class="cls-7"><polygon class="cls-5" points="93.632 37.844 41.681 67.838 41.681 35.72 93.632 5.726 93.632 37.844"/><polygon class="cls-6" points="41.682 33.434 41.682 38.79 93.632 8.797 93.632 3.441 41.682 33.434"/></g><polygon class="cls-8" points="99.593 41.286 47.643 71.28 47.643 39.162 99.593 9.168 99.593 41.286"/><polygon class="cls-6" points="47.644 36.877 47.644 42.232 99.594 12.239 99.594 6.883 47.644 36.877"/><path class="cls-9" d="M92.729,14.091l-1.941,1.12c-.127.074-.231.03-.231-.1v-1.94a.482.482,0,0,1,.231-.365l1.941-1.12c.128-.074.231-.03.231.1v1.941A.479.479,0,0,1,92.729,14.091Z"/><path class="cls-9" d="M95.707,12.371l-1.941,1.121c-.127.073-.231.03-.231-.1V11.453a.482.482,0,0,1,.231-.364l1.941-1.12c.128-.074.231-.03.231.1v1.941A.476.476,0,0,1,95.707,12.371Z"/><path class="cls-10" d="M93.916,11.614v1.18c0,.127.1.171.231.1l1.179-.681a.476.476,0,0,0,.231-.364v-1.18c0-.127-.1-.171-.231-.1l-1.179.681A.479.479,0,0,0,93.916,11.614Zm1.129.477-.616.356c-.128.074-.231.03-.231-.1v-.616a.479.479,0,0,1,.231-.364l.616-.356c.127-.073.231-.029.231.1v.616A.48.48,0,0,1,95.045,12.091Z"/><path class="cls-9" d="M98.685,10.652l-1.941,1.12c-.127.074-.231.03-.231-.1V9.734a.48.48,0,0,1,.231-.364l1.941-1.121c.127-.073.231-.03.231.1v1.941A.482.482,0,0,1,98.685,10.652Z"/><path class="cls-10" d="M96.951,9.907l.534.225c.025.011.025.051,0,.09l-.534.842c-.014.023-.014.047,0,.053l.142.06c.014.006.038-.008.053-.031l.534-.842c.024-.039.064-.062.089-.051l.534.225c.014.006.038-.007.053-.031l.141-.223c.015-.023.015-.047,0-.053l-.533-.226c-.025-.01-.025-.05,0-.089l.533-.842c.015-.023.015-.047,0-.053l-.141-.06c-.015-.006-.039.008-.053.031l-.534.842c-.025.039-.065.062-.089.051L97.146,9.6c-.015-.006-.039.008-.053.031l-.142.223C96.937,9.877,96.937,9.9,96.951,9.907Z"/><path class="cls-10" d="M90.949,14.472v.2c0,.041.033.056.075.032l1.5-.865a.157.157,0,0,0,.075-.119v-.2c0-.041-.034-.055-.075-.031l-1.5.864A.156.156,0,0,0,90.949,14.472Z"/><path class="cls-10" d="M54.105,42.522l1.475-.852v.352l-1.475.852ZM52.21,46.409l-2.3,1.327v.352l2.721-1.571.943-.544v-.352l-1.366.788Zm2.036-2.22v-.352l-1.152.665-.758.438v.352l.758-.438ZM51.8,45.252l-1.889,1.09v.352L51.8,45.6Zm.976-1.608.793-.458v-.352l-1.366.788-2.28,1.317v.352l2.853-1.647Zm-2.237-.1,1.859-1.074v-.352l-1.859,1.074-.6.347v.352l.6-.347ZM54.246,41.4l.6-.344V40.7l-.789.456-1.121.647v.352l1.313-.757Zm1.346,3.062-1.476.852v.352l1.476-.852Zm-2.879,6.71-2.8,1.616v.352l2.8-1.616Zm-2.776,3v.352l.562-.325,2.351-1.357v-.352l-2,1.153Zm5.655-7.455-2.028,1.17-1.354.782v.352l1.354-.782,2.028-1.17ZM55.3,51.07l-.509.293-1.4.81v.352l1.12-.647.79-.456Zm-3.712-.651-1.673.966v.352l1.673-.966L53.448,49.7v-.352l-1.859,1.073Zm2.4-1.385v.352l.982-.567v-.352Zm-.735,2.173,1.768-1.02v-.352l-1.768,1.02Zm-3.341-.865,1.758-1.014v-.352L49.912,49.99Zm5.12,4.372-1.767,1.021v.351l1.767-1.02Zm-.335,3.34.981-.567v-.352L54.7,57.7Zm-2.6,1.5,1.98-1.143V58.06L52.1,59.2Zm3.159-3.573L53.51,56.99v.352l1.745-1.008Zm-5.318.629.738-.426,2.175-1.256v-.352l-2,1.154-.915.528Zm3.032.691-2.244,1.3-.8.46v.352L51,58.791l1.969-1.137Zm-3.038.709,1.311-.757,1.483-.855v-.352l-2.138,1.234-.656.378Zm-.007,2.8,1.644-.949v-.352l-1.644.949ZM55.3,53.163l-.647.373-.143.082-1.12.647v.352l1.12-.647.143-.082.647-.373ZM54.054,59.93l-1.121.646v.352l1.313-.757.6-.345v-.352l-.789.455Zm-1.661.958-1.859,1.074-.6.347v.352l.6-.347,1.859-1.074Zm-.735,1.822-1.74,1v.352l1.74-1ZM54.105,61.3,52.2,62.4v.352l2.048-1.181L55.58,60.8v-.352l-1.475.852ZM52.21,65.536l1.767-1.02v-.352l-1.767,1.02Zm-2.3,1.327,1.758-1.014V65.5l-1.758,1.015Zm3.544-3.8-1.12.647v.352l1.12-.647.79-.456v-.352l-.79.456Zm-3.55,2.4L51.8,64.379v-.352l-1.889,1.091ZM59.963,41.933l-1.376.794v.352l1.376-.794Zm-.02-4.179-.827.477v.352l.827-.477Zm-1.367.789-.712.412v.352l.712-.411Zm1.381.6-1.358.784v.352l1.358-.784Zm-2.036,2.572-.58.335V42.4l.58-.335Zm.54.04,1.508-.87v-.352l-1.508.87Zm1.477,6.638-1.279.738v.352l1.279-.738Zm.023-1.41-2.417,1.4v.352l2.417-1.395Zm-1.843,2.46-.712.411v.352l.712-.411Zm-.057-2.409,1.9-1.095v-.352l-1.9,1.095Zm.526-1.7,1.376-.794v-.352l-1.376.794ZM57.406,52.3l.712-.411v-.352l-.712.411Zm1.253-.724,1.279-.738v-.352l-1.279.739Zm-.148,2.88,1.436-.83v-.352l-1.436.83ZM58.269,53.2l1.675-.967v-.351l-1.675.966Zm-.54-.04-.679.392V53.9l.679-.392Zm2.222,1.511-1.988,1.148v.352l1.988-1.148Zm-1.981-.253-.683.394v.352l.683-.394Zm.491,6.115,1.508-.87v-.352l-1.508.87Zm-1.12.647.58-.334V60.49l-.58.335Zm.523-3.095.712-.411v-.352l-.712.411Zm2.093-.164L58.6,58.7v.352l1.358-.784Zm-.014-1.037v-.352l-.827.478v.352Zm-1.356,4.974,1.376-.795v-.352l-1.376.8ZM66.564,35.68l1.475-.851v-.352l-1.475.851Zm-1.895,3.536-2.3,1.327V40.9l2.721-1.571.943-.545v-.352l-1.366.789ZM66.705,37v-.352l-1.152.665-.758.437V38.1l.758-.438Zm-2.451,1.063-1.888,1.09V39.5l1.888-1.09Zm.976-1.609.793-.457v-.352l-1.365.788-2.281,1.316V38.1L65.23,36.45Zm-2.237-.105,1.859-1.073V34.92l-1.859,1.073-.6.348v.352l.6-.348ZM66.705,34.2l.6-.345v-.352l-.789.456-1.121.647v.352l1.313-.758Zm1.346,3.062-1.476.851v.352l1.476-.851Zm-2.879,6.71-2.8,1.616v.352l2.8-1.616Zm-2.776,3v.351L62.958,47l2.351-1.357v-.352l-2,1.153Zm5.655-7.456-2.028,1.171-1.354.782v.352l1.354-.782,2.028-1.171Zm-1.157,4.859-.509.293-.535.309v.353l.254-.147.79-.456Zm-2.846-1.151-1.673.966v.352l1.673-.966,1.859-1.073v-.352l-1.859,1.073Zm2.4-1.385v.352l.982-.567v-.352Zm-.735,2.173,1.768-1.02v-.352l-1.768,1.02Zm-3.341-.865,1.758-1.014v-.352L62.371,42.8Zm4.774,4.572-1.421.82v.352l1.421-.82Zm-2.59,4.641,1.98-1.143v-.352l-1.98,1.143ZM62.4,49.418l.738-.426,2.175-1.256v-.352l-2,1.154-.915.528Zm3.032.691-2.244,1.3-.8.461v.352l1.072-.619,1.969-1.137Zm-3.038.709,1.311-.757,1.483-.856v-.352l-2.138,1.235-.656.378Zm-.007,2.8,1.644-.949v-.352l-1.644.949Zm5.03-7.447-.3.174-.143.082-1.12.647v.352l.774-.447.142-.082.647-.374Zm-.9,6.567-1.121.647v.352l1.313-.758.6-.344V52.28l-.789.456Zm-1.661.959-1.859,1.074-.6.347v.352l.6-.347,1.859-1.074Zm-.735,1.821-1.74,1.005v.352l1.74-1ZM66.564,54.1l-1.906,1.1v.352l2.047-1.182,1.334-.77v-.352l-1.475.852Zm-1.895,4.239,1.768-1.02v-.352l-1.768,1.02Zm-2.3,1.327,1.758-1.015V58.3l-1.758,1.015Zm3.544-3.8-1.12.647v.352l1.12-.647.79-.456v-.352l-.79.456Zm-3.549,2.4,1.888-1.09v-.352l-1.888,1.09ZM72.422,34.74l-1.376.794v.352l1.376-.794Zm-.02-4.179-.827.477v.352l.827-.477Zm-1.367.789-.712.411v.352l.712-.411Zm1.381.6-1.358.784v.352l1.358-.784ZM70.38,34.522l-.58.335v.352l.58-.335Zm.54.04,1.508-.87V33.34l-1.508.87Zm8.432-6.617,1.475-.852v.352l-1.475.852Zm-1.894,3.888-2.3,1.326v.352l2.721-1.571.942-.544v-.352l-1.365.788Zm2.035-2.221V29.26l-1.152.665-.758.438v.352l.758-.437Zm-2.45,1.063-1.889,1.091v.352l1.889-1.091Zm.976-1.608.793-.458v-.352l-1.366.789-2.28,1.316v.352l2.853-1.647Zm-2.238-.105,1.859-1.073v-.352L75.781,28.61l-.6.347v.352l.6-.347Zm3.712-2.143.6-.345v-.352l-.79.456-1.12.647v.351l1.312-.757Zm1.346,3.061-1.475.852v.352l1.475-.852Zm4.371-2.523-1.375.794V28.5l1.375-.794Zm-.019-4.18-.827.478v.352l.827-.478Zm-1.368.79-.712.411v.352l.712-.411Zm1.381.6-1.358.784V25.7l1.358-.784Zm-2.036,2.573-.58.335v.351l.58-.334Zm.541.04,1.507-.871v-.352l-1.507.871Zm1.476,6.637-1.279.739v.351l1.279-.738Zm.023-1.41-2.417,1.4v.353l2.417-1.4Zm-1.9.052,1.9-1.1V31.01l-1.9,1.1Zm.526-1.7,1.375-.795v-.352l-1.375.794ZM91.811,21.1l1.475-.852V19.9l-1.475.852Zm-1.894,3.535-2.3,1.327v.352l2.721-1.571.942-.544v-.352l-1.365.788Zm2.035-2.22v-.352l-1.152.665-.758.438v.352l.758-.438ZM89.5,23.482l-1.889,1.091v.352L89.5,23.834Zm.976-1.608.793-.458v-.352l-1.366.788-2.28,1.317v.352l2.853-1.647Zm-2.238-.105L90.1,20.7v-.352L88.24,21.417l-.6.347v.352l.6-.347Zm3.712-2.143.6-.345v-.352l-.79.455-1.12.647v.352l1.312-.757ZM93.3,22.687l-1.475.852v.352l1.475-.852ZM90.419,29.4l-2.8,1.616v.352l2.8-1.616Zm-2.775,3v.352l.562-.325,2.351-1.357v-.352l-2,1.153ZM93.3,24.942l-2.027,1.17-1.354.782v.352l1.354-.782,2.027-1.17ZM93.007,29.3l-.508.294-1.4.809v.352l1.121-.647.789-.456ZM89.3,28.65l-1.673.965v.352L89.3,29l1.859-1.074v-.352L89.3,28.65Zm2.4-1.386v.352l.982-.567V26.7Zm-.735,2.173,1.767-1.02v-.352l-1.767,1.02Zm-3.341-.864,1.757-1.015v-.352l-1.757,1.015Zm5.12,4.371-1.767,1.021v.352L92.739,33.3Zm-.336,3.34.982-.567v-.352l-.982.567Zm-2.6,1.5,1.979-1.143V36.29L89.8,37.433Zm3.159-3.572L91.216,35.22v.352l1.746-1.008Zm-5.318.628.737-.426,2.176-1.256v-.352l-2,1.154-.915.528Zm3.032.691-2.244,1.3-.8.46v.352l1.073-.619,1.969-1.137Zm-3.038.71,1.311-.757,1.482-.856v-.352l-2.138,1.234-.655.379Zm-.008,2.8,1.645-.949v-.352l-1.645.95Zm5.377-7.646-.647.373-.142.082-1.121.647v.352l1.121-.647.142-.082.647-.373ZM91.76,38.16l-1.12.646v.352l1.312-.757.6-.345V37.7l-.79.455Zm-1.661.959L88.24,40.192l-.6.347v.352l.6-.347L90.1,39.471Zm-.735,1.821-1.739,1V42.3l1.739-1Zm2.447-1.413-1.906,1.1v.352L91.952,39.8l1.334-.771v-.352l-1.475.852Zm-1.894,4.24,1.767-1.021v-.352l-1.767,1.02Zm-2.3,1.326,1.757-1.014v-.352l-1.757,1.014Zm3.544-3.8-1.121.647V42.3l1.121-.647.789-.456v-.352l-.789.456Zm6.506-21.135-1.375.795v.352l1.375-.795Zm-.019-4.179-.827.478v.352l.827-.478Zm-1.368.79-.712.411v.352l.712-.411Zm1.381.6-1.358.784v.352l1.358-.784Zm-2.036,2.572-.58.335v.352l.58-.335Zm.541.04,1.507-.87v-.352l-1.507.87Zm1.477,6.638-1.28.738v.352l1.28-.738Zm.022-1.41L95.25,26.608v.352l2.417-1.395Zm-1.842,2.46-.712.411v.352l.712-.411Zm-.057-2.408,1.9-1.1v-.352l-1.9,1.1Zm.526-1.7,1.375-.794v-.352l-1.375.794Zm-1.181,6.965.712-.411v-.352l-.712.411Zm1.252-.723,1.28-.739v-.352l-1.28.739Zm-.147,2.879,1.436-.83V31.5l-1.436.829Zm-.242-1.258,1.674-.966v-.352l-1.674.967Zm-.541-.039-.678.391v.352l.678-.391Zm2.223,1.51L95.67,34.046V34.4l1.988-1.148Zm-1.981-.253-.683.394v.352L95.677,33Zm.491,6.116,1.507-.871v-.352l-1.507.871Zm-1.121.646.58-.334v-.352l-.58.334Zm.523-3.095.712-.411v-.352l-.712.411Zm2.093-.164-1.358.784v.352l1.358-.784Zm-.013-1.037v-.352l-.827.478v.352Zm-1.356,4.974,1.375-.794v-.352l-1.375.794Z"/><path class="cls-6" d="M80.7,35.26c.029.014.059.028.087.043l-.773-.446c-1.076-.6-2.55-.5-4.176.44a13.172,13.172,0,0,0-5.96,10.323c0,1.923.683,3.268,1.785,3.881l.726.419c1.105.626,2.587.532,4.222-.412a13.176,13.176,0,0,0,5.961-10.324C82.569,37.211,81.849,35.849,80.7,35.26Z"/><path class="cls-11" d="M82.968,37.474c.027.014.054.026.079.04L81.5,36.622a3.822,3.822,0,0,0-3.785.4,11.94,11.94,0,0,0-5.4,9.356,3.774,3.774,0,0,0,1.618,3.517l1.5.867a3.809,3.809,0,0,0,3.826-.374,11.94,11.94,0,0,0,5.4-9.356C84.665,39.243,84.012,38.009,82.968,37.474Z"/><g id="Axonometric_Cylinder" data-name="Axonometric Cylinder"><path id="Cylinder_face-2" data-name="Cylinder face" class="cls-12" d="M74.118,47.218c0,3.348,2.351,4.706,5.25,3.032a11.606,11.606,0,0,0,5.25-9.094c0-3.348-2.35-4.706-5.25-3.031A11.605,11.605,0,0,0,74.118,47.218Z"/></g><g class="cls-13"><path class="cls-14" d="M115.852,64.232a4.455,4.455,0,0,0-1.212-1.711,2,2,0,0,0,.553-1.58,2.669,2.669,0,0,0-.344-1.092,3.745,3.745,0,0,0-.706-.895,5.612,5.612,0,0,0-.9-.69c-.323-.2-.655-.359-.971-.546l-.321-.188a1.864,1.864,0,0,0,.236-.751,3.047,3.047,0,0,0-.043-.885,3.31,3.31,0,0,0-.112-.429,2.227,2.227,0,0,0-.182-.413,2.5,2.5,0,0,0-.258-.37,3.357,3.357,0,0,0-.314-.317,4.094,4.094,0,0,0-.346-.272c-.118-.086-.241-.162-.364-.239a11.74,11.74,0,0,0-1.5-.743,12.661,12.661,0,0,0-1.245-1.369,17.088,17.088,0,0,0-1.426-1.234c-.25-.191-.5-.377-.762-.556s-.523-.351-.794-.512c-.134-.082-.27-.161-.409-.235s-.274-.155-.417-.223c-.272-.142-.553-.268-.835-.392-.616-.563-1.262-1.076-1.905-1.6l-.969-.79c-.32-.265-.64-.531-.939-.812l-.594-.477q-.3-.234-.6-.461c-.4-.3-.816-.59-1.238-.863a17.282,17.282,0,0,0-2.659-1.444c-.233-.1-.469-.192-.708-.279s-.479-.168-.725-.235-.493-.127-.741-.184-.5-.094-.757-.123-.509-.052-.765-.06a6.911,6.911,0,0,0-1.536.112c-.224.035-.444.1-.664.153-1.294-.8-2.589-1.592-3.89-2.377-1.322-.807-2.653-1.6-3.982-2.391-.051-.031-.1.068-.15.035-2.751-1.785-11.519,8.578-9.606,9.871a.1.1,0,0,0-.1.163l3.913,2.554,3.85,2.48a.186.186,0,0,0,.031.046l.965,4.19c.161.714.334,1.425.506,2.137l.257,1.067.129.534a1.285,1.285,0,0,0,.27.555,5.6,5.6,0,0,0,.416.391l.41.366.818.732,1.637,1.464a1.272,1.272,0,0,0,.524.3,4.869,4.869,0,0,0,.563.084l1.09.13,2.181.262c.728.087,1.45.163,2.17.3s1.444.252,2.175.342a9.677,9.677,0,0,0,1.107.082,3.062,3.062,0,0,0,.569-.043,1.245,1.245,0,0,0,.29-.087,1.278,1.278,0,0,0,.256-.159,1.433,1.433,0,0,0,.514-1.044,2.114,2.114,0,0,0-.068-.669c.38.226.764.448,1.164.642.731.367,1.471.709,2.217,1.041,1.492.659,3,1.274,4.542,1.82q1.154.41,2.333.745a12.567,12.567,0,0,0,2.413.483,3.753,3.753,0,0,0,.627,0,2.2,2.2,0,0,0,.318-.054,2.88,2.88,0,0,0,.3-.109,2.552,2.552,0,0,0,.558-.31,1.373,1.373,0,0,0,.432-.5,1.224,1.224,0,0,0,.124-.462,12.06,12.06,0,0,0,2.163.693,5.462,5.462,0,0,0,1.328.112,2.8,2.8,0,0,0,1.3-.367,2.063,2.063,0,0,0,.93-.991A1.955,1.955,0,0,0,115.852,64.232Z"/><path class="cls-14" d="M112,55.893a2.851,2.851,0,0,0-1.563-1.941c-.334-.173-.769-.4-1.473-.711a16.281,16.281,0,0,0-2.067-1.934,13.177,13.177,0,0,0-3.711-2.617,22.006,22.006,0,0,1-3.9-3.216c-.556-.412-5.927-5.207-10.939-3.729l-7.9-4.887-9.471,9.884,15.563,9.3L93,53.668,96.514,52.1a10.621,10.621,0,0,1,1.4.563c.612.312,1.19.687,1.784,1.033,1.547.9,10.187,4.831,11.43,4.381A1.74,1.74,0,0,0,112,55.893Z"/><path class="cls-14" d="M98.962,56.885c.716.364,4.824,2.63,5.517,3.035,1.807,1.054,8.429,3.716,9.71,2.854a1.99,1.99,0,0,0,.735-2.556c-.4-.933-2.46-2.248-3.36-2.713s-1.875-.765-2.784-1.212c-2.579-1.268-7.875-5.441-10.186-7.15-.649-.48-1.333-.91-2-1.364a14.583,14.583,0,0,0-2.477-1.5,3.794,3.794,0,0,0-2.824-.165,2.221,2.221,0,0,0-1.449,2.261,3.584,3.584,0,0,0,.421,1.078c.818,1.569,1.558,3.829,2.98,4.984C94.813,55.71,97.18,55.979,98.962,56.885Z"/><path class="cls-15" d="M105.73,57.47a9.755,9.755,0,0,1-1.828-1.427,18.159,18.159,0,0,0-4.61-2.765,24.11,24.11,0,0,1-2.375-1.844c-.3.183-.6.355-.9.536a.319.319,0,0,1-.273.354c-.145.029-.279.066-.413.1-.025.019-.052.036-.077.055a.33.33,0,0,1-.3.07,3.764,3.764,0,0,0-1.177.7,4.611,4.611,0,0,1-1.015.725,4.374,4.374,0,0,0,.483.462c1.568,1.274,5.139,2.184,6.921,3.091.716.363,4.824,2.629,5.517,3.034,1.807,1.054,7.213,3.068,8.493,2.207a1.949,1.949,0,0,0,.918-1.828c-1,2.07-3.854,1.328-5.51-.378A19.336,19.336,0,0,0,105.73,57.47Z"/><path class="cls-14" d="M100.213,61.414c.762.387,5.32,2.1,6.058,2.535,1.925,1.124,6.517,3.907,8.734,2.524a1.585,1.585,0,0,0,.689-2.319,4.713,4.713,0,0,0-2.283-2.2c-.958-.494-2-.815-2.964-1.291-1.509-.741-3.739-2.923-6.769-4.257-1.948-1.6-3.854-2.741-4.964-3.561-.691-.512-1.517-1.289-2.228-1.772a15.454,15.454,0,0,0-2.637-1.6,4.04,4.04,0,0,0-3.008-.177A2.366,2.366,0,0,0,89.3,51.708a3.788,3.788,0,0,0,.448,1.148c.871,1.671,1.659,4.078,3.174,5.308C94.59,59.521,98.315,60.449,100.213,61.414Z"/><path class="cls-15" d="M111.937,65.72c-1.819-.6-2.721-1.826-4.48-3.394a17.168,17.168,0,0,1-6.21-3.415c-2.262-1.989-5.425-2.567-7.637-4.294-.016-.012-2.573-1.282-3.443-.9.725,1.558,1.484,3.412,2.753,4.443,1.67,1.357,5.395,2.285,7.293,3.25.762.387,5.32,2.1,6.058,2.535,1.925,1.124,6.517,3.907,8.734,2.524a1.759,1.759,0,0,0,.894-1.055A4.367,4.367,0,0,1,111.937,65.72Z"/><path class="cls-14" d="M93.536,61.7c.741.377,1.44.831,2.158,1.25,1.873,1.093,11.023,5.238,13.225,4.429,1.41-.517,1.383-1.356.974-2.322a4.584,4.584,0,0,0-2.22-2.14c-.932-.481-1.494-.253-2.435-.716-.595-.292-1.247-1.085-2.173-1.7-1.12-.743-2.589-1.258-3.848-2.022-2.149-1.6-3.525-2.224-5.026-3.847a26.878,26.878,0,0,0-3.11-2.367,15.065,15.065,0,0,0-2.566-1.556,3.933,3.933,0,0,0-2.926-.171,2.3,2.3,0,0,0-1.5,2.343,3.7,3.7,0,0,0,.435,1.117c.848,1.625,1.615,3.968,3.088,5.165C89.236,60.478,91.689,60.757,93.536,61.7Z"/><path class="cls-15" d="M90.74,60.653a19.936,19.936,0,0,1,2.8,1.043c.741.377,1.44.831,2.158,1.25,1.873,1.093,11.023,5.238,13.225,4.429.984-.361,1.267-.88,1.209-1.488a4.854,4.854,0,0,1-.586.252,2.94,2.94,0,0,1-1.736.284,4.205,4.205,0,0,1-.593-.056,4.527,4.527,0,0,1-1.109-.208,5.408,5.408,0,0,1-2.259-1.742.675.675,0,0,0-.52-.2,7.357,7.357,0,0,1-6.15-2.779c-2.695-.383-4.186-1.593-5.293-1.834-1.359-.3-1.954-.8-3.344-.842a.5.5,0,0,0-.218.027c-.671.306.227.885.475,1.036A9.327,9.327,0,0,0,90.74,60.653Z"/><path class="cls-14" d="M70.7,46.752l7.872,5.035s1.238,5.274,1.9,8.056a1.107,1.107,0,0,0,.338.569l3.171,2.869a1.111,1.111,0,0,0,.6.276c1.091.147,3.283.435,4.377.553,1.593.172,4.657.913,5.526.5.97-.464,1.193-2.218-1.118-4.063a10.443,10.443,0,0,0-5.837-2.066,24.656,24.656,0,0,0-1.143-5.147A13.577,13.577,0,0,0,86.731,49L73.924,43.588Z"/><path class="cls-16" d="M115.852,64.232a4.455,4.455,0,0,0-1.212-1.711,2,2,0,0,0,.553-1.58,2.669,2.669,0,0,0-.344-1.092,3.745,3.745,0,0,0-.706-.895,5.612,5.612,0,0,0-.9-.69c-.323-.2-.655-.359-.971-.546l-.321-.188a1.864,1.864,0,0,0,.236-.751,3.047,3.047,0,0,0-.043-.885,3.31,3.31,0,0,0-.112-.429,2.227,2.227,0,0,0-.182-.413,2.5,2.5,0,0,0-.258-.37,3.357,3.357,0,0,0-.314-.317,4.094,4.094,0,0,0-.346-.272c-.118-.086-.241-.162-.364-.239a11.74,11.74,0,0,0-1.5-.743,12.661,12.661,0,0,0-1.245-1.369,17.088,17.088,0,0,0-1.426-1.234c-.25-.191-.5-.377-.762-.556s-.523-.351-.794-.512c-.134-.082-.27-.161-.409-.235s-.274-.155-.417-.223c-.272-.142-.553-.268-.835-.392-.616-.563-1.262-1.076-1.905-1.6l-.969-.79c-.32-.265-.64-.531-.939-.812l-.594-.477q-.3-.234-.6-.461c-.4-.3-.816-.59-1.238-.863a17.282,17.282,0,0,0-2.659-1.444c-.233-.1-.469-.192-.708-.279s-.479-.168-.725-.235-.493-.127-.741-.184-.5-.094-.757-.123-.509-.052-.765-.06a6.911,6.911,0,0,0-1.536.112c-.224.035-.444.1-.664.153-1.294-.8-2.589-1.592-3.89-2.377-1.322-.807-2.653-1.6-3.982-2.391a.111.111,0,0,0-.117.188c1.3.835,2.606,1.674,3.917,2.5s2.622,1.648,3.936,2.465a.2.2,0,0,0,.151.024c.245-.06.479-.127.72-.162a6.732,6.732,0,0,1,.723-.089c.243-.012.486-.024.73-.015a7.16,7.16,0,0,1,.731.05c.243.025.485.067.726.11s.48.1.718.168.473.135.708.209.466.162.7.254a16.919,16.919,0,0,1,2.65,1.346q.631.4,1.235.838c.2.146.4.3.6.448l.584.465c.306.29.624.556.943.823l.965.8c.639.534,1.284,1.065,1.883,1.632.319.158.6.289.867.438.137.07.269.151.4.228s.266.155.4.24c.263.16.518.333.772.509s.5.362.744.551c.484.384.957.781,1.4,1.207a12.513,12.513,0,0,1,1.136,1.215,3.209,3.209,0,0,0-.523.239,2.131,2.131,0,0,0-.439.333,1.1,1.1,0,0,0-.12.138l-.043.055a.06.06,0,0,0,.093.077l.047-.052a1.139,1.139,0,0,1,.117-.119,2,2,0,0,1,.427-.28,2.965,2.965,0,0,1,.48-.184c.048-.014.087-.023.121-.032a12.72,12.72,0,0,1,1.528.741c.118.073.236.144.347.224a3.817,3.817,0,0,1,.324.25,2.95,2.95,0,0,1,.286.284,2.258,2.258,0,0,1,.23.323,2.033,2.033,0,0,1,.163.362,3.169,3.169,0,0,1,.105.392,2.8,2.8,0,0,1,.059.8,1.609,1.609,0,0,1-.186.653c-.451-.267-.906-.535-1.385-.764a4.646,4.646,0,0,0-.461-.505c-.174-.162-.354-.318-.539-.465a12.681,12.681,0,0,0-1.156-.816,11.191,11.191,0,0,0-2.469-1.17.111.111,0,0,0-.107-.063,14.207,14.207,0,0,0-1.778-1.449c-.642-.458-1.3-.89-1.965-1.316.629.477,1.276.926,1.9,1.4a14.611,14.611,0,0,1,1.648,1.4c-.042.013-.087.029-.137.05a3.651,3.651,0,0,0-.592.33,8.6,8.6,0,0,0-.767.589.061.061,0,0,0-.008.084.059.059,0,0,0,.085.01,8.235,8.235,0,0,1,.783-.537,3.531,3.531,0,0,1,.574-.282,1.3,1.3,0,0,1,.192-.053,9.341,9.341,0,0,1,2.513,1.2,12.329,12.329,0,0,1,1.114.825c.177.148.348.3.511.462.111.112.216.229.314.347-.028.008-.055.014-.084.025a2.089,2.089,0,0,0-.61.353,3.975,3.975,0,0,0-.492.48c-.121.143-.2.241-.2.241a.06.06,0,0,0,.094.076s.08-.092.2-.224a3.729,3.729,0,0,1,.5-.435,1.892,1.892,0,0,1,.568-.293.837.837,0,0,1,.181-.034c.677.348,1.307.73,1.96,1.09.324.185.666.339.976.521a5.1,5.1,0,0,1,.877.636A2.941,2.941,0,0,1,115,60.956a1.742,1.742,0,0,1-.529,1.412c-.087-.075-.176-.147-.266-.217a11.193,11.193,0,0,0-2.265-1.372,12.819,12.819,0,0,0-2.483-.815,18.084,18.084,0,0,0-5.691-3.53.11.11,0,0,0-.093-.1c-.321-.3-.632-.572-.954-.827-.358-.282-.729-.546-1.1-.8-.752-.512-1.525-.99-2.31-1.447.754.508,1.517,1,2.256,1.524.37.263.734.532,1.084.819a9.361,9.361,0,0,1,.8.738,1.628,1.628,0,0,0-.2.033,2.454,2.454,0,0,0-.8.367,4.011,4.011,0,0,0-.659.565c-.084.083-.144.161-.19.212l-.071.081a.062.062,0,0,0,0,.084.06.06,0,0,0,.086,0l.075-.079c.047-.047.109-.121.193-.2a3.906,3.906,0,0,1,.655-.517,2.249,2.249,0,0,1,.753-.308,1.273,1.273,0,0,1,.258-.025.541.541,0,0,1,.09.006,17.87,17.87,0,0,1,3.016,1.535,18.8,18.8,0,0,1,2.444,1.9,1.929,1.929,0,0,0-.709.327,3.5,3.5,0,0,0-.537.479c-.131.145-.213.245-.213.245a.061.061,0,0,0,.007.084.06.06,0,0,0,.085-.005s.085-.094.219-.228a3.386,3.386,0,0,1,.535-.432,1.792,1.792,0,0,1,.613-.259.893.893,0,0,1,.207-.017,14.745,14.745,0,0,1,2.508.869,11.107,11.107,0,0,1,2.225,1.311,4.6,4.6,0,0,1,1.593,1.954,1.722,1.722,0,0,1,.123,1.2,1.854,1.854,0,0,1-.831.88,2.588,2.588,0,0,1-1.2.344,5.241,5.241,0,0,1-1.277-.1,10.8,10.8,0,0,1-2.2-.714,2.454,2.454,0,0,0-.122-.6,2.479,2.479,0,0,0-.26-.581,3.059,3.059,0,0,0-.4-.5,8.073,8.073,0,0,0-2.021-1.432,12.96,12.96,0,0,0-2.286-.8,3.578,3.578,0,0,0-.264-.3c-.1-.111-.211-.211-.321-.311-.22-.2-.451-.382-.685-.56a16.68,16.68,0,0,0-1.465-.973,19.5,19.5,0,0,0-3.14-1.519,23.992,23.992,0,0,0-2.011-1.438c-.7-.452-1.4-.889-2.122-1.3.675.483,1.361.949,2.034,1.429.6.433,1.2.879,1.761,1.36-.034.009-.067.018-.105.03a2.115,2.115,0,0,0-.714.392,2.268,2.268,0,0,0-.3.31c-.043.054-.08.11-.117.161s-.062.1-.091.152a2.005,2.005,0,0,0-.117.237l-.041.092a.06.06,0,0,0,.109.051l.046-.09a1.763,1.763,0,0,1,.121-.22,1.3,1.3,0,0,1,.093-.139c.036-.046.073-.1.115-.146a2.126,2.126,0,0,1,.293-.273,1.93,1.93,0,0,1,.665-.327,1.483,1.483,0,0,1,.263-.05c.548.212,1.075.45,1.592.708s1.025.532,1.52.829a16.552,16.552,0,0,1,1.437.96c.227.174.452.353.663.545.1.1.21.192.3.3.048.046.091.095.134.145-.028.006-.055.011-.086.02a1.891,1.891,0,0,0-.664.349,2.469,2.469,0,0,0-.282.277,2.547,2.547,0,0,0-.2.276,2.4,2.4,0,0,0-.122.208l-.044.08a.059.059,0,0,0,.021.08.06.06,0,0,0,.083-.019l.049-.079a2.151,2.151,0,0,1,.126-.192,2.444,2.444,0,0,1,.205-.251,2.393,2.393,0,0,1,.274-.244,1.694,1.694,0,0,1,.609-.283,1.225,1.225,0,0,1,.208-.03.146.146,0,0,0,.052.032,14.673,14.673,0,0,1,2.281.771,7.8,7.8,0,0,1,1.965,1.358,2.232,2.232,0,0,1,.614.974,1.436,1.436,0,0,1,.019,1.1,1.641,1.641,0,0,1-.867.7,2.28,2.28,0,0,1-1.148.159,12.378,12.378,0,0,1-2.372-.459c-.781-.218-1.55-.483-2.313-.762-1.525-.56-3.024-1.191-4.5-1.865-.738-.338-1.473-.686-2.194-1.058-.5-.249-.977-.541-1.458-.835a5.233,5.233,0,0,0-1.383-1.752,11.79,11.79,0,0,0-1.861-1.224,14.652,14.652,0,0,0-4.192-1.156c-.108-.806-.245-1.608-.418-2.4-.1-.432-.2-.862-.318-1.288-.106-.382-.22-.759-.351-1.136a.173.173,0,0,0,.023-.054.18.18,0,0,0,0-.08,11.4,11.4,0,0,0,.721-1.119c.119-.215.233-.434.334-.659.051-.112.1-.226.144-.342a3.338,3.338,0,0,0,.12-.358.1.1,0,0,0-.187-.052,3.3,3.3,0,0,1-.121.336c-.045.11-.095.219-.146.328-.1.216-.22.427-.341.634a12.962,12.962,0,0,1-.728,1.088c-.059-.011-.151-.028-.271-.046-.2-.03-.468-.065-.736-.093-.535-.059-1.071-.09-1.071-.09a.062.062,0,0,0-.014.123s.527.089,1.046.2c.26.056.518.119.709.171.135.036.232.065.28.079.127.37.24.751.343,1.133q.171.633.308,1.276a9.445,9.445,0,0,1,.181,2.378,4.568,4.568,0,0,0-.889.272,6.188,6.188,0,0,0-.818.413c-.214.127-.351.219-.351.219a.062.062,0,0,0,.064.106s.143-.079.362-.184a6.058,6.058,0,0,1,.825-.327,4.26,4.26,0,0,1,.853-.18,2.59,2.59,0,0,1,.335.017,11.284,11.284,0,0,1,4.176,1.061,8.383,8.383,0,0,1,1.81,1.165,4.944,4.944,0,0,1,1.332,1.649,2.135,2.135,0,0,1,.214,1,1.2,1.2,0,0,1-.417.875,1.457,1.457,0,0,1-.966.246,9.633,9.633,0,0,1-1.082-.071c-.723-.082-1.444-.2-2.167-.321l-1.088-.17-1.09-.144-2.177-.289-1.088-.145a4.937,4.937,0,0,1-.521-.081,1,1,0,0,1-.417-.248l-1.619-1.483-.81-.741-.405-.371c-.128-.122-.288-.251-.381-.362a.948.948,0,0,1-.2-.426l-.123-.535-.245-1.07c-.163-.714-.326-1.428-.5-2.139l-1-4.183a.2.2,0,0,0,.007-.06s-.013-.165-.009-.427.021-.612.057-.961c.067-.7.2-1.395.2-1.395a.079.079,0,0,0-.154-.035s-.187.688-.306,1.4c-.062.353-.106.709-.129.98,0,.058-.008.111-.011.16L74.71,49.152,70.75,46.67a.1.1,0,0,0-.1.163l3.913,2.554,3.85,2.48a.186.186,0,0,0,.031.046l.965,4.19c.161.714.334,1.425.506,2.137l.257,1.067.129.534a1.285,1.285,0,0,0,.27.555,5.6,5.6,0,0,0,.416.391l.41.366.818.732,1.637,1.464a1.272,1.272,0,0,0,.524.3,4.869,4.869,0,0,0,.563.084l1.09.13,2.181.262c.728.087,1.45.163,2.17.3s1.444.252,2.175.342a9.677,9.677,0,0,0,1.107.082,3.062,3.062,0,0,0,.569-.043,1.245,1.245,0,0,0,.29-.087,1.278,1.278,0,0,0,.256-.159,1.433,1.433,0,0,0,.514-1.044,2.114,2.114,0,0,0-.068-.669c.38.226.764.448,1.164.642.731.367,1.471.709,2.217,1.041,1.492.659,3,1.274,4.542,1.82q1.154.41,2.333.745a12.567,12.567,0,0,0,2.413.483,3.753,3.753,0,0,0,.627,0,2.2,2.2,0,0,0,.318-.054,2.88,2.88,0,0,0,.3-.109,2.552,2.552,0,0,0,.558-.31,1.373,1.373,0,0,0,.432-.5,1.224,1.224,0,0,0,.124-.462,12.06,12.06,0,0,0,2.163.693,5.462,5.462,0,0,0,1.328.112,2.8,2.8,0,0,0,1.3-.367,2.063,2.063,0,0,0,.93-.991A1.955,1.955,0,0,0,115.852,64.232Z"/><path class="cls-17" d="M95.06,64.245a.47.47,0,0,0-.139-.566,4.96,4.96,0,0,0-2.989-.766c-1.4.132-1.2,1.324-1.014,1.561a12.4,12.4,0,0,0,3.231.338A1.217,1.217,0,0,0,95.06,64.245Z"/><path class="cls-18" d="M91.571,62.979a1.012,1.012,0,0,0-.653,1.5c.1.016.2.028.3.042C91.319,64.078,91.677,63.072,91.571,62.979Z"/><path class="cls-19" d="M94.583,64.552a20.789,20.789,0,0,1-4.206-.279.98.98,0,0,0,.1.174,17.069,17.069,0,0,0,3.422.393,1.179,1.179,0,0,0,1.092-.518A.652.652,0,0,1,94.583,64.552Z"/><path class="cls-20" d="M78.766,49.683c-.77-.718-3.519-3.377-3.519-3.377.181-3.631,3.708-7.635,6.794-8.607L80.6,36.818c-4.729-.8-9.9,9.934-9.9,9.934L78.5,51.744C78.565,51.1,78.756,49.7,78.766,49.683Z"/></g><g id="_15-2" data-name="15"><polygon class="cls-21" points="80.713 51.271 103.74 64.566 114.92 58.111 114.92 54.333 80.713 47.493 80.713 51.271 80.713 51.271"/><polygon class="cls-22" points="92.302 49.883 87.142 48.851 87.142 54.983 92.302 57.962 92.302 49.883"/><path class="cls-23" d="M102.667,55.2c-.156-1.113-.173-2.276-.353-3.388L98.4,51.03c-.676.387-1.4.691-2.063,1.1-.94.587-1.83,1.252-2.757,1.86V58.7l9.446,5.454V60.4c0-.134-.024-.519.079-.53A37.136,37.136,0,0,0,102.667,55.2Z"/><polygon class="cls-24" points="104.69 51.819 104.641 52.277 114.92 54.333 114.92 58.111 110.828 60.474 114.92 58.111 114.92 54.333 104.69 51.819 104.69 51.819"/><polygon class="cls-25" points="104.641 52.277 103.74 60.788 103.74 64.566 110.828 60.474 114.92 58.111 114.92 54.333 104.641 52.277 104.641 52.277"/><polygon class="cls-26" points="93.257 58.514 98.894 61.768 98.894 58.014 94.141 54.77 93.257 58.514"/><polygon class="cls-27" points="82.142 48.318 103.74 60.788 114.92 54.333 93.322 41.863 82.142 48.318"/><polygon class="cls-27" points="103.743 60.795 80.711 47.497 91.891 41.042 114.923 54.34 103.743 60.795"/><polygon class="cls-28" points="98.928 58.014 87.144 51.226 98.328 44.769 111.695 52.47 106.744 55.329 105.158 54.416 98.928 58.014"/><path class="cls-29" d="M103.477,48.825,91.838,46.708l.062-.036,11.64,2.117Zm.69-.4L92.527,46.31l-.063.036,11.64,2.117Zm-1.254.723L91.274,47.033l-.063.037,11.64,2.117Zm-.626.362L90.647,47.4l-.063.036,11.64,2.117Zm1.424-1.644-10.558-1.92-.062.036,10.741,1.954Zm-2.051,2.006L90.02,47.757l-.062.036L101.6,49.91Zm-.362-3.4-6.891-1.253-.063.036,7.074,1.286Zm-3.62-2.086-1.391-.253-.063.036,1.575.287Zm1.207.7L95.66,44.5l-.063.036,3.408.62Zm1.206.7-5.058-.92-.062.036,5.241.953Zm2.414,1.39L93.78,45.586l-.063.037,8.908,1.62Zm-1.471,3.063-11.64-2.117-.063.036,11.64,2.117Zm-6.893,3.979L91.5,53.736l.121.069,2.453.446Zm1.253-.723-6.3-1.147.121.07,6.12,1.113Zm.627-.362-8.138-1.48.12.069,7.955,1.447Zm-2.507,1.447-.8-.146.121.07.62.112Zm1.253-.724L90.3,53.04l.121.07,4.287.78Zm1.88-1.085-9.971-1.813.12.069,9.789,1.78Zm2.507-1.447L87.514,49.2l-.063.036,11.64,2.117Zm.626-.362L88.141,48.842l-.063.036L99.718,51Zm.627-.362-11.64-2.116-.062.036,11.639,2.117ZM97.9,52.045l-11.64-2.117-.063.036,11.64,2.117Zm.626-.362-11.64-2.117-.062.036,11.64,2.117Zm-1.253.723-11.64-2.117-.056.033c.011.007,11.633,2.12,11.633,2.12Z"/><polygon class="cls-30" points="108.955 56.606 100.444 51.698 105.396 48.84 113.907 53.747 108.955 56.606"/><polygon class="cls-30" points="103.031 60.399 93.978 55.172 95.572 54.252 103.81 59.008 103.031 60.399"/><path class="cls-31" d="M100.843,48.52a8.471,8.471,0,0,0-7.664-.148c-2.046,1.181-1.936,3.159.246,4.419C93.436,52.8,100.843,48.52,100.843,48.52Z"/><polygon class="cls-32" points="92.628 54.393 92.318 54.214 103.509 47.753 103.819 47.932 92.628 54.393"/><polygon class="cls-33" points="93.649 44.487 90.364 42.591 91.937 41.683 95.222 43.579 93.649 44.487"/><path class="cls-34" d="M106.083,51.087a1.992,1.992,0,0,0-.8-.228c0-.009.813-.37.813-.37a.206.206,0,0,1,.231,0l1.022.59.36-.094c.01-.03-1.361-.821-1.361-.821l-.075,0-1.371.7.052.084a1.537,1.537,0,0,1,.835.167c.263.151.369.422-.139.715a1.249,1.249,0,0,1-1.226.1.316.316,0,0,1-.1-.538.07.07,0,0,0-.022-.12.512.512,0,0,0-.422-.008c-.177.1-.151.419.382.727a1.844,1.844,0,0,0,1.858.065C106.655,51.738,106.571,51.369,106.083,51.087Z"/><path class="cls-34" d="M109.2,51.763a2.225,2.225,0,0,0-2.25.238c-.77.444-1.089.908-.412,1.3a2.227,2.227,0,0,0,2.25-.238C109.557,52.618,109.877,52.154,109.2,51.763Zm-2.528,1.459c-.39-.225.069-.618.7-.98s1.308-.627,1.7-.4-.069.618-.7.98S107.061,53.448,106.671,53.222Z"/><path class="cls-34" d="M111.376,53.019a2.229,2.229,0,0,0-2.251.238c-.77.444-1.089.908-.412,1.3a2.224,2.224,0,0,0,2.25-.238C111.733,53.874,112.053,53.41,111.376,53.019Zm-2.529,1.46c-.389-.225.069-.618.7-.98s1.308-.627,1.7-.4-.069.618-.7.98S109.237,54.7,108.847,54.479Z"/><path class="cls-35" d="M83.77,47.269a1.25,1.25,0,0,0-.511-.145c0-.006.517-.236.517-.236a.132.132,0,0,1,.147,0l.649.375.229-.06c.007-.019-.864-.522-.864-.522-.049,0-.92.441-.92.441l.033.053a.975.975,0,0,1,.531.106c.167.1.235.268-.088.455a.8.8,0,0,1-.779.061.2.2,0,0,1-.065-.342.045.045,0,0,0-.014-.077.322.322,0,0,0-.268,0c-.112.064-.1.266.243.462a1.174,1.174,0,0,0,1.181.041C84.134,47.682,84.08,47.448,83.77,47.269Z"/><path class="cls-35" d="M85.751,47.7a1.416,1.416,0,0,0-1.431.151c-.489.282-.692.577-.262.826a1.419,1.419,0,0,0,1.431-.151C85.978,48.241,86.181,47.946,85.751,47.7Zm-1.607.928c-.248-.143.043-.393.442-.623s.831-.4,1.079-.256-.044.393-.442.623S84.392,48.769,84.144,48.626Z"/><path class="cls-35" d="M87.133,48.5a1.417,1.417,0,0,0-1.43.151c-.489.283-.692.578-.262.826a1.416,1.416,0,0,0,1.431-.151C87.361,49.04,87.564,48.745,87.133,48.5Zm-1.606.928c-.248-.143.043-.393.442-.623s.831-.4,1.079-.255-.044.392-.442.622S85.774,49.567,85.527,49.424Z"/><path class="cls-34" d="M111.512,55.637,110.25,55.4l.032-.072,1.262.233Zm-.344.145-1.262-.232-.033.071,1.262.233Zm-.377.218-1.262-.233-.032.071,1.262.233Zm-.376.217-1.262-.233-.033.072,1.262.233Zm-.377.218-1.262-.233-.032.071,1.262.233Zm-.376.217-1.262-.233-.033.072,1.262.233Zm-.377.217-1.262-.233-.032.072,1.262.233Zm-.376.218-1.262-.233-.033.071,1.262.233Zm-.377.217-1.262-.233-.032.072,1.262.233Z"/><path class="cls-35" d="M93.369,42.647a1.527,1.527,0,0,0-1.38-.026c-.368.213-.349.57.044.8a1.532,1.532,0,0,0,1.381.026C93.782,43.231,93.762,42.873,93.369,42.647Zm-1.248.721c-.342-.2-.359-.508-.039-.693a1.33,1.33,0,0,1,1.2.022c.341.2.359.508.038.693A1.328,1.328,0,0,1,92.121,43.368Z"/><path class="cls-36" d="M101.986,47.522l-.153.285.329.25-.527-.014-.291.243-.173-.293-.508-.1.42-.168-.023-.3.432.19Zm-3.578-.972-.433-.19.024.3-.421.168.508.1.173.294.291-.243.527.014-.329-.25.154-.285Zm-3.389-.063-.433-.19.024.3-.421.168.508.1.173.294.291-.243.527.014-.329-.25.153-.285Zm-2.973.948-.433-.19.023.3-.42.168.508.1.173.294.291-.243.527.014-.329-.25.153-.285ZM90.4,49.152l-.433-.19.024.3-.421.168.508.1.173.294.291-.243.527.013-.329-.249.154-.286Zm.109,1.957-.433-.19.024.3-.421.168.508.1.173.293.291-.243.527.014-.329-.25.154-.285Zm1.836,1.78-.433-.189.024.3-.421.168.509.1.173.293.29-.243.528.014-.329-.25.153-.285Z"/><polygon class="cls-27" points="100.05 45.75 105.84 49.092 94.636 55.561 88.846 52.218 100.05 45.75"/><polygon class="cls-37" points="88.846 55.972 94.637 59.313 94.637 55.559 88.846 52.218 88.846 55.972"/><polygon class="cls-6" points="89.423 52.551 100.627 46.083 99.971 45.704 88.767 52.172 88.767 55.927 89.423 56.305 89.423 52.551"/><polygon class="cls-6" points="94.742 55.622 105.946 49.154 105.29 48.775 94.086 55.243 94.086 58.997 94.742 59.376 94.742 55.622"/><polygon class="cls-38" points="89.423 52.551 88.767 52.172 88.767 55.927 89.423 56.305 89.423 52.551"/><polygon class="cls-38" points="94.742 55.622 94.086 55.243 94.086 58.997 94.742 59.376 94.742 55.622"/><polygon class="cls-39" points="90.833 41.653 81.665 46.946 99.162 57.048 102.478 57.044 90.833 41.653"/><g id="Axonometric_Cube" data-name="Axonometric Cube"><polygon id="Cube_face_-_left" data-name="Cube face - left" class="cls-40" points="102.495 57.036 81.624 44.986 81.624 42.025 102.495 47.308 102.495 57.036"/><polygon id="Cube_face_-_right" data-name="Cube face - right" class="cls-41" points="112.163 51.454 102.495 57.036 102.495 47.308 112.163 48.493 112.163 51.454"/></g><polygon class="cls-42" points="102.498 54.081 81.621 42.027 91.292 36.443 112.17 48.497 102.498 54.081"/><path class="cls-43" d="M91.115,36.874,82.407,41.9l20.309,11.725,8.707-5.027Zm12.951,15.669a1.715,1.715,0,0,1-1.549-.036L84.347,42.016c-.446-.257-.474-.658-.064-.894l5.441-3.142a1.717,1.717,0,0,1,1.55.037l18.169,10.49c.446.257.474.658.064.9Z"/><path class="cls-44" d="M101.242,42.752c-2.02-1.167-5.605-1-7.991.382s-2.683,3.448-.663,4.614,5.606,1,7.992-.382S103.263,43.918,101.242,42.752ZM92.637,47.72c-1.992-1.15-1.693-3.193.666-4.555s5.9-1.535,7.891-.385,1.692,3.193-.667,4.555S94.628,48.87,92.637,47.72Z"/><path class="cls-44" d="M100.422,47.275c-2.31,1.333-5.752,1.507-7.688.389s-1.635-3.105.675-4.439,5.751-1.507,7.688-.389S102.731,45.941,100.422,47.275Z"/><path class="cls-42" d="M99.911,46.98a7.318,7.318,0,0,1-6.568.332c-1.654-.955-1.4-2.652.577-3.792a7.318,7.318,0,0,1,6.568-.332C102.142,44.143,101.884,45.841,99.911,46.98Z"/><polygon class="cls-43" points="101.002 48.99 100.305 48.588 100.051 48.735 100.748 49.137 101.002 48.99"/><polygon class="cls-43" points="101.37 49.203 101.116 49.35 104.113 51.08 104.368 50.933 101.37 49.203"/><polygon class="cls-43" points="87.561 41.23 86.864 40.828 86.61 40.975 87.307 41.377 87.561 41.23"/><polygon class="cls-43" points="87.929 41.442 87.675 41.589 90.672 43.32 90.927 43.173 87.929 41.442"/><polygon class="cls-43" points="90.564 38.307 90.214 38.509 93.835 40.6 94.185 40.398 90.564 38.307"/><polygon class="cls-44" points="105.216 46.767 104.867 46.969 108.487 49.059 108.837 48.857 105.216 46.767"/><path class="cls-43" d="M101.476,51.273l.763-.441c0-.013-.39-.179-.39-.179-.041.024.03.084.03.084.03.025.031.039-.015.066l-.6.347a.091.091,0,0,1-.1,0l-.1-.052-.05.029.5.291.049-.028-.088-.06C101.44,51.312,101.434,51.3,101.476,51.273Z"/><path class="cls-43" d="M102.934,51.221a.8.8,0,0,0-.8.057c-.238.138-.363.311-.1.463a.793.793,0,0,0,.8-.057C103.074,51.547,103.2,51.374,102.934,51.221Zm-.841.486c-.115-.067.114-.214.262-.3s.4-.218.519-.151-.113.214-.262.3S102.209,51.773,102.093,51.707Z"/><path class="cls-43" d="M103.725,51.678a.8.8,0,0,0-.8.057c-.238.138-.362.311-.1.463a.792.792,0,0,0,.8-.057C103.865,52,103.989,51.831,103.725,51.678Zm-.84.486c-.116-.067.113-.214.262-.3s.4-.218.519-.151-.114.214-.262.3S103,52.23,102.885,52.164Z"/><path class="cls-42" d="M108.183,47.529l.511-.3c0-.009-.262-.12-.262-.12-.027.015.021.056.021.056.02.017.021.026-.011.044l-.4.233a.062.062,0,0,1-.069,0l-.07-.034c-.033.019.305.214.305.214.033-.019-.026-.059-.026-.059C108.159,47.555,108.155,47.545,108.183,47.529Z"/><path class="cls-42" d="M109.159,47.494a.533.533,0,0,0-.537.038c-.159.092-.243.208-.066.31a.532.532,0,0,0,.537-.038C109.253,47.712,109.336,47.6,109.159,47.494Zm-.563.325c-.077-.045.076-.143.176-.2s.27-.146.347-.1-.076.144-.175.2S108.674,47.864,108.6,47.819Z"/><path class="cls-42" d="M109.689,47.8a.533.533,0,0,0-.537.038c-.159.092-.243.208-.066.31a.532.532,0,0,0,.537-.038C109.783,48.018,109.866,47.9,109.689,47.8Zm-.563.325c-.077-.045.076-.143.176-.2s.269-.146.347-.1-.076.144-.175.2S109.2,48.17,109.126,48.125Z"/><path class="cls-42" d="M92.306,38.363l.512-.3c0-.009-.262-.119-.262-.119-.027.015.02.055.02.055.02.017.021.027-.01.045l-.4.232a.062.062,0,0,1-.069,0l-.069-.034c-.033.019.3.214.3.214.034-.02-.026-.06-.026-.06C92.283,38.388,92.278,38.379,92.306,38.363Z"/><path class="cls-42" d="M93.283,38.328a.532.532,0,0,0-.537.038c-.16.092-.243.208-.066.31a.533.533,0,0,0,.537-.038C93.376,38.546,93.459,38.43,93.283,38.328Zm-.563.325c-.078-.045.076-.143.175-.2s.27-.146.348-.1-.076.143-.176.2S92.8,38.7,92.72,38.653Z"/><path class="cls-42" d="M93.813,38.634a.532.532,0,0,0-.537.038c-.16.092-.243.208-.066.31a.533.533,0,0,0,.537-.038C93.906,38.852,93.989,38.736,93.813,38.634Zm-.563.325c-.078-.045.076-.144.175-.2s.27-.146.348-.1-.076.143-.176.2S93.327,39,93.25,38.959Z"/><path class="cls-42" d="M84.613,42.459l-.066.038a.225.225,0,0,1-.2,0l-.677-.392c-.059-.033-.062-.085-.009-.116l.067-.038a.219.219,0,0,1,.192,0l.107.053.781-.451-.081-.069a.058.058,0,0,1,.012-.1l.054-.031a.216.216,0,0,1,.183,0l.522.222c.044.024.06.043.063.063a.067.067,0,0,1-.033.081l-1,.579.091.062C84.664,42.382,84.663,42.43,84.613,42.459Zm2.776,1a1.26,1.26,0,0,1-1.279.072c-.268-.155-.314-.34-.146-.529a1.154,1.154,0,0,1-.917-.085c-.367-.212-.322-.481.124-.738a1.26,1.26,0,0,1,1.279-.072c.268.155.314.34.147.529a1.152,1.152,0,0,1,.916.085C87.88,42.938,87.835,43.207,87.389,43.464Z"/><path class="cls-44" d="M84.4,42.238l1.025-.592c0-.018-.524-.241-.524-.241l-.054.032.095.081c.04.033.042.052-.021.088l-.808.467a.124.124,0,0,1-.138,0l-.139-.069-.066.039.677.39.066-.038-.118-.08C84.348,42.289,84.339,42.27,84.4,42.238Z"/><path class="cls-44" d="M86.353,42.168a1.068,1.068,0,0,0-1.077.076c-.32.185-.487.417-.132.622a1.066,1.066,0,0,0,1.077-.076C86.541,42.605,86.708,42.373,86.353,42.168Zm-1.128.652c-.156-.09.152-.288.351-.4s.541-.292.7-.2-.153.287-.352.4S85.38,42.91,85.225,42.82Z"/><path class="cls-44" d="M87.416,42.782a1.066,1.066,0,0,0-1.077.076c-.32.185-.487.417-.132.622a1.066,1.066,0,0,0,1.077-.077C87.6,43.219,87.771,42.987,87.416,42.782Zm-1.129.651c-.155-.089.153-.287.352-.4s.541-.293.7-.2-.153.287-.352.4S86.443,43.523,86.287,43.433Z"/><path class="cls-44" d="M105.042,48.27a2.446,2.446,0,0,0-2.21-.052c-.585.338-.544.909.091,1.275a2.444,2.444,0,0,0,2.209.053C105.718,49.208,105.677,48.637,105.042,48.27Zm-2,1.157c-.566-.327-.6-.836-.081-1.137a2.182,2.182,0,0,1,1.97.047c.566.326.6.836.08,1.137A2.18,2.18,0,0,1,103.038,49.427Z"/><path class="cls-44" d="M91.6,40.508a2.446,2.446,0,0,0-2.21-.052c-.585.338-.544.909.091,1.275a2.444,2.444,0,0,0,2.209.053C92.274,41.446,92.233,40.875,91.6,40.508Zm-2,1.157c-.566-.327-.6-.836-.081-1.137a2.182,2.182,0,0,1,1.97.047c.566.326.6.836.08,1.137A2.18,2.18,0,0,1,89.594,41.665Z"/><path class="cls-43" d="M104.859,48.826a.313.313,0,0,1-.241-.135.3.3,0,0,0-.246-.168l-.059-.009a.294.294,0,0,1-.231-.133.178.178,0,0,0-.223-.047l-.55.317a.131.131,0,0,0-.077.117l.036.507c.033.019.911.04.911.04a.386.386,0,0,0,.2-.045l.55-.317C105,48.913,104.96,48.841,104.859,48.826Z"/><path class="cls-43" d="M91.409,41.06a.3.3,0,0,1-.241-.135.3.3,0,0,0-.246-.167l-.059-.009a.3.3,0,0,1-.231-.134.179.179,0,0,0-.223-.047l-.55.317a.131.131,0,0,0-.077.118l.036.506c.033.019.911.04.911.04a.4.4,0,0,0,.2-.044l.549-.318C91.55,41.147,91.51,41.075,91.409,41.06Z"/><path class="cls-43" d="M97.96,45.223l-.22-.257,1.372-.792c.155.127.211.329-.074.71-.069.1-.064.171.095.263a1.106,1.106,0,0,0,.941.074c.28-.162.279-.662-.655-1.224l.532-.308-.4-.234-.533.308a2.9,2.9,0,0,0-2.776-.142c-.62.358-.475.833-.05,1.34l.249.29-1.565.9c-.118-.1-.259-.326.093-.838.081-.122.068-.206-.105-.307a1.254,1.254,0,0,0-1-.023c-.227.13-.469.621.706,1.345l-.693.4.405.234.692-.4a3.139,3.139,0,0,0,2.9.161C98.6,46.3,98.46,45.819,97.96,45.223Zm-.478-.576c-.268-.254-.336-.532-.016-.717a1.377,1.377,0,0,1,1.241.01Zm-2.2,1.741,1.438-.83a.5.5,0,0,1-.161.852A1.3,1.3,0,0,1,95.277,46.388Z"/><polygon class="cls-44" points="99.222 50.102 97.446 49.077 97.546 49.02 99.321 50.045 99.222 50.102"/><polygon class="cls-44" points="90.223 44.907 88.447 43.881 88.546 43.824 90.322 44.849 90.223 44.907"/><polygon class="cls-27" points="99.608 41.243 103.772 43.647 94.099 49.231 89.935 46.827 99.608 41.243"/><polygon class="cls-37" points="89.935 49.81 94.1 52.212 94.1 49.229 89.935 46.827 89.935 49.81"/><polygon class="cls-6" points="90.394 47.092 100.066 41.507 99.545 41.207 89.872 46.791 89.872 49.774 90.394 50.075 90.394 47.092"/><polygon class="cls-6" points="94.183 49.28 103.856 43.695 103.334 43.394 93.662 48.979 93.662 51.962 94.183 52.262 94.183 49.28"/><polygon class="cls-38" points="90.394 47.092 89.872 46.791 89.872 49.774 90.394 50.075 90.394 47.092"/><polygon class="cls-38" points="94.183 49.28 93.662 48.979 93.662 51.962 94.183 52.262 94.183 49.28"/></g><path class="cls-10" d="M50.357,39.618l-.548.317a.749.749,0,0,1-.612.142q-.216-.085-.216-.483V38a1.323,1.323,0,0,1,.216-.732,1.754,1.754,0,0,1,.612-.565l.548-.316a.741.741,0,0,1,.61-.139c.145.059.218.218.218.479v.237a.2.2,0,0,1-.11.174l-.422.243c-.07.041-.1.024-.1-.049v-.206c0-.107-.023-.171-.068-.19s-.122,0-.229.064l-.341.2a.641.641,0,0,0-.224.2.494.494,0,0,0-.068.268V39.2c0,.107.023.169.068.188s.12,0,.224-.061l.341-.2a.65.65,0,0,0,.229-.2.49.49,0,0,0,.068-.267v-.206a.189.189,0,0,1,.1-.171l.422-.244c.073-.042.11-.026.11.047v.236a1.33,1.33,0,0,1-.218.731A1.745,1.745,0,0,1,50.357,39.618Z"/><path class="cls-10" d="M52.264,38.517l-.426.246c-.07.041-.106.026-.106-.044V35.7a.187.187,0,0,1,.106-.166l1.2-.69a.747.747,0,0,1,.612-.138c.148.059.221.219.221.48v.392a1.389,1.389,0,0,1-.447,1.011c0,.02.537.83.537.83.031.063,0,.119-.085.17l-.407.234a.344.344,0,0,1-.13.055c-.027,0-.049-.014-.065-.047l-.5-.8-.337.194a.1.1,0,0,0-.06.091v1.029A.185.185,0,0,1,52.264,38.517Zm.161-1.8.492-.284a.7.7,0,0,0,.236-.2.457.457,0,0,0,.076-.262v-.391c0-.1-.026-.165-.076-.183s-.129,0-.236.066l-.492.284a.1.1,0,0,0-.055.087V36.7C52.37,36.736,52.388,36.743,52.425,36.722Z"/><path class="cls-10" d="M56.226,36.23l-1.642.948c-.07.04-.105.026-.105-.045V34.116a.185.185,0,0,1,.105-.166L56.226,33c.067-.039.1-.023.1.047v.341a.18.18,0,0,1-.1.164l-1.05.606a.1.1,0,0,0-.06.09V34.9c0,.037.02.043.06.02l.859-.5c.07-.04.105-.026.105.045v.341a.186.186,0,0,1-.105.167l-.859.5a.1.1,0,0,0-.06.09v.7c0,.037.02.044.06.02l1.05-.605c.067-.039.1-.023.1.047v.342A.18.18,0,0,1,56.226,36.23Z"/><path class="cls-10" d="M56.884,35.745V32.727a.186.186,0,0,1,.1-.166l1.24-.716a.742.742,0,0,1,.61-.139c.145.059.218.218.218.479v1.592a1.33,1.33,0,0,1-.218.731,1.736,1.736,0,0,1-.61.565l-1.24.716C56.919,35.83,56.884,35.815,56.884,35.745Zm.692-.847.548-.316a.637.637,0,0,0,.228-.2.49.49,0,0,0,.068-.267V32.584c0-.107-.023-.171-.068-.19s-.121,0-.228.064l-.548.316a.1.1,0,0,0-.055.088v2.013C57.521,34.912,57.539,34.919,57.576,34.9Z"/><path class="cls-10" d="M60.323,30.742v3.017a.187.187,0,0,1-.106.167l-.427.246q-.1.062-.1-.045V31.11a.185.185,0,0,1,.1-.166l.427-.247C60.287,30.657,60.323,30.672,60.323,30.742Z"/><path class="cls-10" d="M62,32.9l-.421.243c-.074.042-.111.029-.111-.042V30.583c0-.037-.018-.045-.055-.024l-.572.331c-.071.041-.106.026-.106-.045V30.5a.185.185,0,0,1,.106-.166l1.9-1.1c.071-.04.106-.025.106.045v.341a.184.184,0,0,1-.106.166l-.572.33a.1.1,0,0,0-.06.091V32.73A.185.185,0,0,1,62,32.9Z"/></g></g></g></svg>