<svg xmlns="http://www.w3.org/2000/svg" xmlns:xlink="http://www.w3.org/1999/xlink" viewBox="0 0 100.607 60.036"><defs><style>.cls-1{fill:none;}.cls-2{isolation:isolate;}.cls-3{opacity:0.4;}.cls-13,.cls-17,.cls-19,.cls-21,.cls-23,.cls-25,.cls-27,.cls-29,.cls-3,.cls-31,.cls-33,.cls-46,.cls-48,.cls-50,.cls-52,.cls-54,.cls-56,.cls-58{mix-blend-mode:multiply;}.cls-4{fill:#50197c;}.cls-5{fill:#c0b9c8;}.cls-6{fill:url(#_ÂÁ_Ï_ÌÌ_È_ËÂÌÚ_3);}.cls-7{fill:#e0dbe1;}.cls-8{fill:url(#_ÂÁ_Ï_ÌÌ_È_ËÂÌÚ_866);}.cls-9{fill:#fff9e1;}.cls-10{fill:#687a51;}.cls-11{fill:#a5aa9f;}.cls-12{fill:url(#_ÂÁ_Ï_ÌÌ_È_ËÂÌÚ_34);}.cls-13,.cls-17,.cls-19,.cls-21,.cls-23,.cls-25,.cls-27,.cls-29,.cls-31,.cls-33,.cls-39,.cls-46,.cls-48,.cls-50,.cls-52,.cls-54,.cls-56,.cls-58{opacity:0.2;}.cls-13{fill:url(#linear-gradient);}.cls-14{fill:#ffce45;}.cls-15{fill:#e0890b;}.cls-15,.cls-40{opacity:0.6;}.cls-16{fill:url(#_ÂÁ_Ï_ÌÌ_È_ËÂÌÚ_34-2);}.cls-17{fill:url(#linear-gradient-2);}.cls-18{fill:url(#_ÂÁ_Ï_ÌÌ_È_ËÂÌÚ_34-3);}.cls-19{fill:url(#linear-gradient-3);}.cls-20{fill:url(#_ÂÁ_Ï_ÌÌ_È_ËÂÌÚ_34-4);}.cls-21{fill:url(#linear-gradient-4);}.cls-22{fill:url(#_ÂÁ_Ï_ÌÌ_È_ËÂÌÚ_34-5);}.cls-23{fill:url(#linear-gradient-5);}.cls-24{fill:url(#_ÂÁ_Ï_ÌÌ_È_ËÂÌÚ_34-6);}.cls-25{fill:url(#linear-gradient-6);}.cls-26{fill:url(#_ÂÁ_Ï_ÌÌ_È_ËÂÌÚ_34-7);}.cls-27{fill:url(#linear-gradient-7);}.cls-28{fill:url(#_ÂÁ_Ï_ÌÌ_È_ËÂÌÚ_34-8);}.cls-29{fill:url(#linear-gradient-8);}.cls-30{fill:url(#_ÂÁ_Ï_ÌÌ_È_ËÂÌÚ_34-9);}.cls-31{fill:url(#linear-gradient-9);}.cls-32{fill:url(#_ÂÁ_Ï_ÌÌ_È_ËÂÌÚ_34-10);}.cls-33{fill:url(#linear-gradient-10);}.cls-34{fill:#e4eeef;}.cls-35{fill:#3263a8;}.cls-36{fill:#ffce43;}.cls-37{clip-path:url(#clip-path);}.cls-38{fill:#aec6dc;}.cls-39,.cls-42{fill:#638099;}.cls-40{fill:#92b3d3;}.cls-41{fill:#8cb0d4;}.cls-43{fill:#517497;}.cls-44{fill:#e5b839;}.cls-45{fill:url(#_ÂÁ_Ï_ÌÌ_È_ËÂÌÚ_34-11);}.cls-46{fill:url(#linear-gradient-11);}.cls-47{fill:url(#_ÂÁ_Ï_ÌÌ_È_ËÂÌÚ_34-12);}.cls-48{fill:url(#linear-gradient-12);}.cls-49{fill:url(#_ÂÁ_Ï_ÌÌ_È_ËÂÌÚ_34-13);}.cls-50{fill:url(#linear-gradient-13);}.cls-51{fill:url(#_ÂÁ_Ï_ÌÌ_È_ËÂÌÚ_34-14);}.cls-52{fill:url(#linear-gradient-14);}.cls-53{fill:url(#_ÂÁ_Ï_ÌÌ_È_ËÂÌÚ_34-15);}.cls-54{fill:url(#linear-gradient-15);}.cls-55{fill:url(#_ÂÁ_Ï_ÌÌ_È_ËÂÌÚ_34-16);}.cls-56{fill:url(#linear-gradient-16);}.cls-57{fill:url(#_ÂÁ_Ï_ÌÌ_È_ËÂÌÚ_34-17);}.cls-58{fill:url(#linear-gradient-17);}.cls-59{fill:url(#_ÂÁ_Ï_ÌÌ_È_ËÂÌÚ_860);}.cls-60{fill:url(#_ÂÁ_Ï_ÌÌ_È_ËÂÌÚ_866-2);}</style><linearGradient id="_ÂÁ_Ï_ÌÌ_È_ËÂÌÚ_3" x1="64.232" y1="15.28" x2="90.01" y2="15.28" gradientUnits="userSpaceOnUse"><stop offset="0" stop-color="#e0dbe1"/><stop offset="1" stop-color="#c0b9c8"/></linearGradient><linearGradient id="_ÂÁ_Ï_ÌÌ_È_ËÂÌÚ_866" x1="63.077" y1="16.225" x2="97.674" y2="16.225" gradientUnits="userSpaceOnUse"><stop offset="0" stop-color="#8c32ee"/><stop offset="0.191" stop-color="#9c3de6"/><stop offset="0.566" stop-color="#c75ad2"/><stop offset="1" stop-color="#ff80b7"/></linearGradient><linearGradient id="_ÂÁ_Ï_ÌÌ_È_ËÂÌÚ_34" x1="37.104" y1="12.342" x2="45.522" y2="12.342" gradientUnits="userSpaceOnUse"><stop offset="0" stop-color="#d88000"/><stop offset="1" stop-color="#ffac33"/></linearGradient><linearGradient id="linear-gradient" x1="37.208" y1="13.803" x2="45.433" y2="13.803" gradientUnits="userSpaceOnUse"><stop offset="0" stop-color="#d88f25"/><stop offset="1" stop-color="#eba136"/></linearGradient><linearGradient id="_ÂÁ_Ï_ÌÌ_È_ËÂÌÚ_34-2" x1="47.729" y1="13.522" x2="56.147" y2="13.522" xlink:href="#_ÂÁ_Ï_ÌÌ_È_ËÂÌÚ_34"/><linearGradient id="linear-gradient-2" x1="47.833" y1="14.983" x2="56.058" y2="14.983" xlink:href="#linear-gradient"/><linearGradient id="_ÂÁ_Ï_ÌÌ_È_ËÂÌÚ_34-3" x1="47.703" y1="12.364" x2="56.121" y2="12.364" xlink:href="#_ÂÁ_Ï_ÌÌ_È_ËÂÌÚ_34"/><linearGradient id="linear-gradient-3" x1="47.807" y1="13.825" x2="56.032" y2="13.825" xlink:href="#linear-gradient"/><linearGradient id="_ÂÁ_Ï_ÌÌ_È_ËÂÌÚ_34-4" x1="47.69" y1="11.238" x2="56.108" y2="11.238" xlink:href="#_ÂÁ_Ï_ÌÌ_È_ËÂÌÚ_34"/><linearGradient id="linear-gradient-4" x1="47.794" y1="12.699" x2="56.019" y2="12.699" xlink:href="#linear-gradient"/><linearGradient id="_ÂÁ_Ï_ÌÌ_È_ËÂÌÚ_34-5" x1="47.698" y1="10.134" x2="56.115" y2="10.134" xlink:href="#_ÂÁ_Ï_ÌÌ_È_ËÂÌÚ_34"/><linearGradient id="linear-gradient-5" x1="47.802" y1="11.595" x2="56.027" y2="11.595" xlink:href="#linear-gradient"/><linearGradient id="_ÂÁ_Ï_ÌÌ_È_ËÂÌÚ_34-6" x1="55.957" y1="14.153" x2="64.375" y2="14.153" xlink:href="#_ÂÁ_Ï_ÌÌ_È_ËÂÌÚ_34"/><linearGradient id="linear-gradient-6" x1="56.061" y1="15.614" x2="64.286" y2="15.614" xlink:href="#linear-gradient"/><linearGradient id="_ÂÁ_Ï_ÌÌ_È_ËÂÌÚ_34-7" x1="55.9" y1="13.096" x2="64.318" y2="13.096" xlink:href="#_ÂÁ_Ï_ÌÌ_È_ËÂÌÚ_34"/><linearGradient id="linear-gradient-7" x1="56.004" y1="14.557" x2="64.229" y2="14.557" xlink:href="#linear-gradient"/><linearGradient id="_ÂÁ_Ï_ÌÌ_È_ËÂÌÚ_34-8" x1="55.908" y1="11.992" x2="64.326" y2="11.992" xlink:href="#_ÂÁ_Ï_ÌÌ_È_ËÂÌÚ_34"/><linearGradient id="linear-gradient-8" x1="56.012" y1="13.453" x2="64.237" y2="13.453" xlink:href="#linear-gradient"/><linearGradient id="_ÂÁ_Ï_ÌÌ_È_ËÂÌÚ_34-9" x1="51.273" y1="18.499" x2="59.69" y2="18.499" xlink:href="#_ÂÁ_Ï_ÌÌ_È_ËÂÌÚ_34"/><linearGradient id="linear-gradient-9" x1="51.377" y1="19.96" x2="59.602" y2="19.96" xlink:href="#linear-gradient"/><linearGradient id="_ÂÁ_Ï_ÌÌ_È_ËÂÌÚ_34-10" x1="51.12" y1="17.395" x2="59.538" y2="17.395" xlink:href="#_ÂÁ_Ï_ÌÌ_È_ËÂÌÚ_34"/><linearGradient id="linear-gradient-10" x1="51.224" y1="18.856" x2="59.449" y2="18.856" xlink:href="#linear-gradient"/><clipPath id="clip-path"><polygon class="cls-1" points="98.459 35.573 57.565 59.184 39.808 48.931 80.702 25.321 98.459 35.573"/></clipPath><linearGradient id="_ÂÁ_Ï_ÌÌ_È_ËÂÌÚ_34-11" x1="94.152" y1="62.535" x2="102.948" y2="62.535" gradientTransform="translate(-40.686 -2.436) scale(0.9)" xlink:href="#_ÂÁ_Ï_ÌÌ_È_ËÂÌÚ_34"/><linearGradient id="linear-gradient-11" x1="94.261" y1="64.062" x2="102.855" y2="64.062" gradientTransform="translate(-40.686 -2.436) scale(0.9)" xlink:href="#linear-gradient"/><linearGradient id="_ÂÁ_Ï_ÌÌ_È_ËÂÌÚ_34-12" x1="112.962" y1="61.305" x2="121.758" y2="61.305" gradientTransform="translate(-40.686 -2.436) scale(0.9)" xlink:href="#_ÂÁ_Ï_ÌÌ_È_ËÂÌÚ_34"/><linearGradient id="linear-gradient-12" x1="113.071" y1="62.831" x2="121.666" y2="62.831" gradientTransform="translate(-40.686 -2.436) scale(0.9)" xlink:href="#linear-gradient"/><linearGradient id="_ÂÁ_Ï_ÌÌ_È_ËÂÌÚ_34-13" x1="112.967" y1="60.187" x2="121.763" y2="60.187" gradientTransform="translate(-40.686 -2.436) scale(0.9)" xlink:href="#_ÂÁ_Ï_ÌÌ_È_ËÂÌÚ_34"/><linearGradient id="linear-gradient-13" x1="113.076" y1="61.713" x2="121.67" y2="61.713" gradientTransform="translate(-40.686 -2.436) scale(0.9)" xlink:href="#linear-gradient"/><linearGradient id="_ÂÁ_Ï_ÌÌ_È_ËÂÌÚ_34-14" x1="112.975" y1="59.033" x2="121.771" y2="59.033" gradientTransform="translate(-40.686 -2.436) scale(0.9)" xlink:href="#_ÂÁ_Ï_ÌÌ_È_ËÂÌÚ_34"/><linearGradient id="linear-gradient-14" x1="113.084" y1="60.56" x2="121.678" y2="60.56" gradientTransform="translate(-40.686 -2.436) scale(0.9)" xlink:href="#linear-gradient"/><linearGradient id="_ÂÁ_Ï_ÌÌ_È_ËÂÌÚ_34-15" x1="121.698" y1="62.13" x2="130.494" y2="62.13" gradientTransform="translate(-40.686 -2.436) scale(0.9)" xlink:href="#_ÂÁ_Ï_ÌÌ_È_ËÂÌÚ_34"/><linearGradient id="linear-gradient-15" x1="121.806" y1="63.656" x2="130.401" y2="63.656" gradientTransform="translate(-40.686 -2.436) scale(0.9)" xlink:href="#linear-gradient"/><linearGradient id="_ÂÁ_Ï_ÌÌ_È_ËÂÌÚ_34-16" x1="121.47" y1="60.786" x2="130.266" y2="60.786" gradientTransform="translate(-40.686 -2.436) scale(0.9)" xlink:href="#_ÂÁ_Ï_ÌÌ_È_ËÂÌÚ_34"/><linearGradient id="linear-gradient-16" x1="121.579" y1="62.312" x2="130.174" y2="62.312" gradientTransform="translate(-40.686 -2.436) scale(0.9)" xlink:href="#linear-gradient"/><linearGradient id="_ÂÁ_Ï_ÌÌ_È_ËÂÌÚ_34-17" x1="116.463" y1="66.291" x2="125.258" y2="66.291" gradientTransform="translate(-40.686 -2.436) scale(0.9)" xlink:href="#_ÂÁ_Ï_ÌÌ_È_ËÂÌÚ_34"/><linearGradient id="linear-gradient-17" x1="116.571" y1="67.818" x2="125.166" y2="67.818" gradientTransform="translate(-40.686 -2.436) scale(0.9)" xlink:href="#linear-gradient"/><linearGradient id="_ÂÁ_Ï_ÌÌ_È_ËÂÌÚ_860" x1="9.695" y1="49.59" x2="41.811" y2="49.59" gradientUnits="userSpaceOnUse"><stop offset="0" stop-color="#c0b9c8"/><stop offset="1" stop-color="#e0dbe1"/></linearGradient><linearGradient id="_ÂÁ_Ï_ÌÌ_È_ËÂÌÚ_866-2" x1="7.218" y1="46.071" x2="41.811" y2="46.071" xlink:href="#_ÂÁ_Ï_ÌÌ_È_ËÂÌÚ_866"/></defs><g class="cls-2"><g id="_0" data-name="0"><g id="_7" data-name="7"><g class="cls-3"><path class="cls-4" d="M79.757,11.671a24.039,24.039,0,0,1,3.685,1.709,12.228,12.228,0,0,1,5.64,5.953,7.266,7.266,0,0,1,.426,3.428l-2.624.035L92.3,27.907h.45l1.957-5.222a10.606,10.606,0,0,0-.56-3.98c-1.068-2.845-3.509-5.4-7.042-7.443a29.85,29.85,0,0,0-4.571-2.12,42.519,42.519,0,0,0-19.912-2.07l1.264,3.111A33.683,33.683,0,0,1,79.757,11.671Z"/><path class="cls-4" d="M51.218,18.553a2.236,2.236,0,0,0,1.191,1.436,6.571,6.571,0,0,0,5.946-.025c1.638-.955,1.632-2.492-.014-3.433a5.819,5.819,0,0,0-2.457-.672l.832-.48a3.4,3.4,0,0,0,.378.264,6.571,6.571,0,0,0,5.946-.025c1.638-.955,1.631-2.491-.015-3.433a4.705,4.705,0,0,0-.43-.2l.752-.434L43.715.216,0,25.455,19.632,36.789Z"/><polygon class="cls-4" points="80.597 25.536 39.703 49.147 44.921 52.16 50.457 55.356 57.461 59.399 68.789 52.859 73.875 49.922 98.355 35.789 80.597 25.536"/><path class="cls-4" d="M70.606,56.127a6.18,6.18,0,0,0-5.592.023c-1.54.9-1.534,2.344.014,3.229a6.178,6.178,0,0,0,5.591-.024C72.16,58.457,72.154,57.012,70.606,56.127Z"/><path class="cls-4" d="M50.526,52.69a6.178,6.178,0,0,0-5.591.023c-1.541.9-1.535,2.344.013,3.229a6.18,6.18,0,0,0,5.592-.024C52.08,55.02,52.074,53.575,50.526,52.69Z"/><path class="cls-4" d="M74.613,52.316a6.18,6.18,0,0,0-5.592.024c-1.54.9-1.534,2.343.013,3.228a6.18,6.18,0,0,0,5.592-.023C76.167,54.647,76.161,53.2,74.613,52.316Z"/><path class="cls-4" d="M57.522,17.525a6.18,6.18,0,0,0-5.592.024c-1.541.9-1.535,2.343.013,3.228a6.18,6.18,0,0,0,5.592-.023C59.075,19.856,59.069,18.41,57.522,17.525Z"/><path class="cls-4" d="M62.459,13.235a6.178,6.178,0,0,0-5.591.023c-1.541.9-1.535,2.344.013,3.229a6.18,6.18,0,0,0,5.592-.024C64.013,15.565,64.007,14.12,62.459,13.235Z"/><path class="cls-4" d="M24.373,53.018a24.109,24.109,0,0,1-3.69-1.71,12.217,12.217,0,0,1-5.634-5.948,7.386,7.386,0,0,1-.427-3.427l2.629-.028.309-.271-5.727-4.85L6.914,42.041l2.512-.035a9.057,9.057,0,0,0,.56,3.98c1.065,2.843,3.508,5.4,7.039,7.442a29.867,29.867,0,0,0,4.569,2.118,42.541,42.541,0,0,0,19.912,2.075l.3-.236C36.357,58.1,29.22,54.811,24.373,53.018Z"/></g><g class="cls-2"><polygon class="cls-5" points="63.077 5.993 63.074 7.072 64.232 9.999 64.235 8.919 63.077 5.993"/><path class="cls-6" d="M89.535,18.254A12.23,12.23,0,0,0,83.9,12.3a24.166,24.166,0,0,0-3.684-1.709A34.158,34.158,0,0,0,64.235,8.919l0,1.08a34.139,34.139,0,0,1,15.975,1.672,24.039,24.039,0,0,1,3.685,1.709,12.228,12.228,0,0,1,5.64,5.953,7.283,7.283,0,0,1,.475,2.6l0-1.079A7.275,7.275,0,0,0,89.535,18.254Z"/><polygon class="cls-5" points="87.337 21.717 87.334 22.796 92.752 27.907 92.755 26.827 87.337 21.717"/><polygon class="cls-7" points="92.755 26.827 92.752 27.907 97.671 22.65 97.674 21.57 92.755 26.827"/><path class="cls-8" d="M95.162,21.606a10.611,10.611,0,0,0-.56-3.981c-1.068-2.845-3.509-5.4-7.042-7.443a29.8,29.8,0,0,0-4.571-2.119,42.506,42.506,0,0,0-19.912-2.07l1.158,2.926a34.158,34.158,0,0,1,15.976,1.672A24.166,24.166,0,0,1,83.9,12.3a12.23,12.23,0,0,1,5.64,5.954,7.262,7.262,0,0,1,.426,3.427l-2.624.036,5.418,5.11,4.919-5.257Z"/></g><polygon class="cls-9" points="63.452 11.335 19.737 36.573 0.104 25.239 43.819 0 63.452 11.335"/><path class="cls-10" d="M1.583,25.467l17.675,10.2L61.89,11.058,44.215.854ZM58.116,9.457c.833.481.82,1.268-.027,1.757L19.528,33.477a3.361,3.361,0,0,1-3.043.016L5.44,27.116c-.833-.481-.821-1.267.027-1.757L44.028,3.1a3.367,3.367,0,0,1,3.043-.016Z"/><path class="cls-11" d="M22.958,13.19c-3.846,2.22-3.035,6.3,1.808,9.1s11.912,3.264,15.759,1.044,3.034-6.3-1.809-9.1S26.8,10.969,22.958,13.19ZM40.426,23.275C36.635,25.464,29.655,25,24.866,22.23s-5.6-6.795-1.81-8.983,10.772-1.72,15.56,1.044S44.217,21.086,40.426,23.275Z"/><path class="cls-11" d="M38.416,14.407c4.688,2.706,5.5,6.626,1.813,8.754s-10.475,1.66-15.163-1.047-5.5-6.626-1.813-8.754S33.728,11.7,38.416,14.407Z"/><path class="cls-9" d="M37.443,14.969c4.005,2.312,4.7,5.66,1.549,7.478s-8.948,1.418-12.953-.894-4.7-5.661-1.549-7.479S33.439,12.656,37.443,14.969Z"/><polygon class="cls-11" points="46.206 12.712 44.88 13.477 45.396 13.775 46.723 13.01 46.206 12.712"/><polygon class="cls-11" points="46.907 12.307 47.423 12.605 53.129 9.311 52.613 9.013 46.907 12.307"/><polygon class="cls-11" points="16.647 29.778 15.321 30.543 15.837 30.841 17.163 30.076 16.647 29.778"/><polygon class="cls-11" points="17.348 29.373 17.864 29.671 23.57 26.377 23.054 26.079 17.348 29.373"/><polygon class="cls-10" points="38.367 7.786 39.077 8.196 43.307 5.753 42.597 5.344 38.367 7.786"/><polygon class="cls-10" points="9.177 24.638 9.887 25.048 14.117 22.606 13.408 22.196 9.177 24.638"/><path class="cls-9" d="M21.365,32.574l.2.112c.157.091.155.239,0,.332L19.69,34.094a.631.631,0,0,1-.574,0l-.2-.112a.172.172,0,0,1-.019-.317l.249-.17-2.292-1.325-.335.127a.645.645,0,0,1-.508-.028l-.158-.092c-.139-.08-.155-.208-.038-.3l1.049-.836a.274.274,0,0,1,.043-.03.586.586,0,0,1,.262-.069l.088,0a.6.6,0,0,1,.312.067l2.946,1.7.3-.144A.64.64,0,0,1,21.365,32.574Z"/><path class="cls-11" d="M20.3,32.912l-3.012-1.739-.088,0-1.049.836.159.092.391-.149a.42.42,0,0,1,.44.043l2.37,1.368c.164.1.143.149.028.228l-.325.222.2.113,1.865-1.077-.2-.112-.386.187A.35.35,0,0,1,20.3,32.912Z"/><path class="cls-9" d="M58.449,11.163l.2.113c.157.09.155.239,0,.331l-1.865,1.077a.638.638,0,0,1-.574,0l-.2-.113c-.147-.085-.156-.222-.019-.316l.249-.171-2.291-1.324-.335.126a.637.637,0,0,1-.508-.028l-.159-.091c-.139-.081-.155-.209-.037-.3l1.048-.837A.461.461,0,0,1,54,9.6a.586.586,0,0,1,.262-.069l.088,0a.6.6,0,0,1,.312.066L57.6,11.3l.3-.144A.64.64,0,0,1,58.449,11.163Z"/><path class="cls-11" d="M57.38,11.5,54.368,9.763l-.088,0-1.048.837.158.091.391-.148a.42.42,0,0,1,.44.042l2.37,1.369c.165.095.143.149.028.227l-.325.223.2.112,1.864-1.076-.2-.113-.385.188A.355.355,0,0,1,57.38,11.5Z"/><path class="cls-11" d="M43.5,8.079c-1.209.7-1.226,1.82-.038,2.506a4.791,4.791,0,0,0,4.339-.023c1.21-.7,1.227-1.819.039-2.5A4.8,4.8,0,0,0,43.5,8.079Zm4.068,2.348a4.27,4.27,0,0,1-3.868.02c-1.059-.611-1.044-1.611.034-2.233a4.276,4.276,0,0,1,3.868-.02C48.659,8.805,48.643,9.805,47.566,10.427Z"/><path class="cls-11" d="M13.933,25.149c-1.209.7-1.226,1.82-.039,2.5a4.8,4.8,0,0,0,4.34-.022c1.209-.7,1.227-1.82.039-2.506A4.8,4.8,0,0,0,13.933,25.149ZM18,27.5a4.276,4.276,0,0,1-3.868.02c-1.058-.611-1.043-1.611.035-2.233a4.27,4.27,0,0,1,3.868-.02C19.094,25.875,19.078,26.875,18,27.5Z"/><path class="cls-10" d="M45.4,8.321a.53.53,0,0,1-.444.265l-.115.016a.536.536,0,0,0-.44.254l-.026.066a.536.536,0,0,1-.44.254c-.215.029-.288.169-.147.25l1.115.644a.814.814,0,0,0,.405.095l1.723-.009.063-.036.016-.995a.281.281,0,0,0-.165-.234l-1.115-.644C45.691,8.166,45.448,8.208,45.4,8.321Z"/><path class="cls-10" d="M15.825,25.4a.532.532,0,0,1-.444.265l-.115.015a.536.536,0,0,0-.44.254L14.8,26a.536.536,0,0,1-.44.254c-.215.029-.288.169-.147.25l1.115.645a.832.832,0,0,0,.4.1l1.724-.009.063-.037.015-1a.276.276,0,0,0-.164-.233l-1.116-.644C16.114,25.243,15.87,25.285,15.825,25.4Z"/><path class="cls-10" d="M31.583,17.073l-.863.233L27.936,15.7a3.974,3.974,0,0,1,2.425.129,1.061,1.061,0,0,0,.888-.091c.262-.151.842-.689.194-1.064-.568-.328-2.272-.358-4.129.667l-1.082-.624-.77.444,1.081.625c-1.528.945-2.011,2.16-.308,3.143a6.051,6.051,0,0,0,4.567.142l.972-.265,3.177,1.834a5,5,0,0,1-2.862-.158,1.268,1.268,0,0,0-1.038.1.631.631,0,0,0-.017,1.134c.459.266,2.145.572,4.539-.716l1.405.812.771-.445-1.406-.812c1.266-.731,2.3-2.154.364-3.285C35.207,16.416,33.582,16.543,31.583,17.073Zm-1.931.506a3.1,3.1,0,0,1-2.441-.027c-.676-.39-.707-.981-.046-1.409Zm6.069,2.614L32.8,18.507a3.913,3.913,0,0,1,2.915.237C36.514,19.2,36.451,19.772,35.721,20.193Z"/><polygon class="cls-11" points="50.108 14.803 46.727 16.755 46.526 16.638 49.906 14.687 50.108 14.803"/><polygon class="cls-11" points="29.003 26.988 25.623 28.94 25.421 28.823 28.801 26.872 29.003 26.988"/><path class="cls-10" d="M7.413,24.889c1.324.764,1.638,1.823.7,2.364a4.676,4.676,0,0,1-4.094-.4c-1.324-.765-1.638-1.823-.7-2.364A4.669,4.669,0,0,1,7.413,24.889Z"/><path class="cls-9" d="M3.556,24.621c-.82.474-.518,1.418.673,2.106a4.194,4.194,0,0,0,3.647.389c.82-.474.518-1.418-.673-2.106A4.194,4.194,0,0,0,3.556,24.621ZM7.8,27.074a4.042,4.042,0,0,1-3.5-.389c-1.151-.664-1.453-1.571-.673-2.022a4.039,4.039,0,0,1,3.5.389C8.282,25.717,8.584,26.624,7.8,27.074Z"/><path class="cls-9" d="M7.092,26.319,4.544,24.848H4.475l-.745.627.134.077.294-.1a.344.344,0,0,1,.351.047l2.006,1.158c.139.081.127.122.044.181L6.324,27l.165.095L7.856,26.3l-.165-.095-.286.135A.284.284,0,0,1,7.092,26.319Z"/><path class="cls-10" d="M46.61,2.258c1.324.765,1.638,1.823.7,2.364a4.669,4.669,0,0,1-4.094-.4c-1.324-.764-1.638-1.823-.7-2.364A4.676,4.676,0,0,1,46.61,2.258Z"/><path class="cls-9" d="M42.753,1.991c-.82.474-.518,1.418.673,2.106a4.193,4.193,0,0,0,3.647.388c.82-.473.518-1.418-.673-2.105A4.194,4.194,0,0,0,42.753,1.991ZM47,4.444a4.042,4.042,0,0,1-3.5-.389c-1.151-.665-1.453-1.572-.673-2.022a4.039,4.039,0,0,1,3.5.388C47.479,3.086,47.781,3.993,47,4.444Z"/><path class="cls-9" d="M46.289,3.688,43.741,2.217h-.069l-.745.626.134.078.294-.1a.345.345,0,0,1,.351.048l2.006,1.158c.139.08.127.122.044.18l-.235.165.165.1,1.367-.789-.165-.095-.286.135A.283.283,0,0,1,46.289,3.688Z"/><path class="cls-12" d="M43.052,9.663a6.446,6.446,0,0,0-3.5.015c-1.616.464-2.429,1.329-2.444,2.2-.005.324,0,.647,0,.971.022.866.843,1.725,2.462,2.175a6.459,6.459,0,0,0,3.5-.014c1.615-.465,2.428-1.33,2.443-2.2.006-.323,0-.647,0-.97C45.492,10.972,44.671,10.114,43.052,9.663Z"/><path class="cls-13" d="M37.505,12.912l0,.923a1.814,1.814,0,0,1-.3-.522l0-.9A1.863,1.863,0,0,0,37.505,12.912Zm2.149,1.206,0,.923c.1.026.2.05.3.071l0-.933C39.85,14.159,39.751,14.142,39.654,14.118Zm1.22.174,0,.949c.1.007.2.008.3.01l0-.944C41.071,14.305,40.972,14.3,40.874,14.292Zm-.61-.061,0,.938c.1.016.2.03.3.041l0-.934C40.459,14.265,40.363,14.246,40.264,14.231Zm-2.443-.982,0,.9a2.964,2.964,0,0,0,.3.229l0-.925C38.017,13.388,37.907,13.322,37.821,13.249Zm1.222.686,0,.912c.093.035.2.066.3.1l0-.921C39.241,13.994,39.138,13.97,39.043,13.935Zm-.611-.278,0,.912c.093.05.194.1.3.143l0-.917C38.629,13.75,38.526,13.708,38.432,13.657Zm3.052.648,0,.944c.1,0,.2-.005.3-.013l0-.949C41.681,14.294,41.583,14.3,41.484,14.305Zm3.044-.883,0,.926a2.971,2.971,0,0,0,.3-.233l0-.9A3.487,3.487,0,0,1,44.528,13.422Zm-2.435.847,0,.934c.1-.013.2-.028.3-.045l0-.938C42.29,14.236,42.193,14.257,42.093,14.269Zm3.043-1.4,0,.922a1.789,1.789,0,0,0,.293-.542l0-.893A1.867,1.867,0,0,1,45.136,12.868Zm-1.216.9,0,.917c.1-.047.2-.1.3-.147l0-.911C44.122,13.679,44.019,13.722,43.92,13.768ZM43.311,14l0,.92c.1-.032.2-.064.3-.1l0-.911C43.512,13.949,43.409,13.973,43.311,14Zm-.609.161,0,.933c.1-.022.2-.047.3-.074l0-.923C42.9,14.126,42.8,14.145,42.7,14.165Z"/><path class="cls-14" d="M44.277,10.158c1.645.941,1.652,2.478.014,3.433a6.571,6.571,0,0,1-5.946.025c-1.646-.941-1.652-2.478-.014-3.433A6.571,6.571,0,0,1,44.277,10.158Z"/><path class="cls-14" d="M44.012,10.312c1.5.857,1.505,2.257.013,3.127a5.983,5.983,0,0,1-5.415.023c-1.5-.857-1.505-2.257-.014-3.127A5.986,5.986,0,0,1,44.012,10.312Z"/><path class="cls-15" d="M38.671,10.537a5.821,5.821,0,0,1,5.268-.022c1.061.606,1.35,1.492.872,2.255.621-.814.357-1.8-.8-2.458a5.986,5.986,0,0,0-5.416.023c-1.15.671-1.406,1.655-.778,2.465C37.334,12.04,37.615,11.152,38.671,10.537Z"/><path class="cls-16" d="M53.677,10.844a6.455,6.455,0,0,0-3.5.014c-1.616.464-2.429,1.33-2.444,2.2q-.008.486,0,.971c.022.867.843,1.725,2.462,2.176a6.449,6.449,0,0,0,3.5-.015c1.615-.464,2.428-1.33,2.443-2.2.006-.324,0-.647,0-.971C56.117,12.153,55.3,11.294,53.677,10.844Z"/><path class="cls-17" d="M48.131,14.092l0,.923a1.8,1.8,0,0,1-.3-.522l0-.9A1.837,1.837,0,0,0,48.131,14.092ZM50.279,15.3l0,.923c.1.026.2.05.3.071l0-.933C50.475,15.34,50.376,15.322,50.279,15.3Zm1.22.174,0,.95c.1.006.2.007.3.009l0-.944C51.7,15.485,51.6,15.478,51.5,15.472Zm-.61-.061,0,.938c.1.016.2.03.3.042l0-.935C51.084,15.446,50.988,15.426,50.889,15.411Zm-2.443-.982,0,.9a2.964,2.964,0,0,0,.3.229l0-.925A3.452,3.452,0,0,1,48.446,14.429Zm1.222.687,0,.912c.093.035.2.065.3.1l0-.921C49.866,15.174,49.763,15.151,49.668,15.116Zm-.611-.279,0,.913c.093.05.194.1.3.142l0-.917C49.254,14.93,49.151,14.888,49.057,14.837Zm3.052.648,0,.944c.1,0,.2,0,.3-.012l0-.949C52.306,15.474,52.208,15.482,52.109,15.485Zm3.044-.883,0,.927a3.13,3.13,0,0,0,.3-.234l0-.9A3.275,3.275,0,0,1,55.153,14.6Zm-2.435.847,0,.934c.1-.012.2-.028.3-.045l0-.937C52.915,15.416,52.818,15.438,52.718,15.449Zm3.043-1.4,0,.923a1.793,1.793,0,0,0,.293-.543l0-.893A1.853,1.853,0,0,1,55.761,14.048Zm-1.216.9,0,.918c.1-.048.2-.1.3-.148l0-.91C54.747,14.859,54.644,14.9,54.545,14.948Zm-.609.236,0,.921c.1-.033.2-.064.3-.1l0-.912C54.137,15.129,54.034,15.153,53.936,15.184Zm-.609.162,0,.932c.1-.022.2-.047.3-.074l0-.923C53.526,15.306,53.427,15.325,53.327,15.346Z"/><path class="cls-14" d="M54.9,11.338c1.645.942,1.652,2.479.014,3.433a6.571,6.571,0,0,1-5.946.025c-1.646-.941-1.652-2.478-.014-3.433A6.574,6.574,0,0,1,54.9,11.338Z"/><path class="cls-14" d="M54.637,11.493c1.5.857,1.505,2.257.013,3.126a5.983,5.983,0,0,1-5.415.023c-1.5-.857-1.505-2.257-.014-3.127A5.986,5.986,0,0,1,54.637,11.493Z"/><path class="cls-15" d="M49.3,11.717a5.821,5.821,0,0,1,5.268-.022c1.061.607,1.35,1.492.872,2.255.621-.814.357-1.8-.8-2.457a5.986,5.986,0,0,0-5.416.022c-1.15.671-1.406,1.656-.778,2.465C47.959,13.22,48.24,12.333,49.3,11.717Z"/><path class="cls-18" d="M53.652,9.685a6.449,6.449,0,0,0-3.5.015c-1.615.464-2.428,1.329-2.443,2.2-.006.324,0,.647,0,.971.022.866.842,1.724,2.462,2.175a6.446,6.446,0,0,0,3.5-.015c1.615-.464,2.429-1.329,2.444-2.2,0-.323,0-.647,0-.97C56.091,10.994,55.271,10.136,53.652,9.685Z"/><path class="cls-19" d="M48.105,12.934l0,.922a1.829,1.829,0,0,1-.3-.522l0-.9A1.867,1.867,0,0,0,48.105,12.934Zm2.148,1.206,0,.923c.1.025.2.05.3.071l0-.934C50.45,14.181,50.35,14.164,50.253,14.14Zm1.22.173,0,.95c.1.007.2.007.3.009l0-.943C51.67,14.327,51.572,14.319,51.473,14.313Zm-.61-.06,0,.938c.1.016.2.03.3.041l0-.935C51.059,14.287,50.962,14.267,50.863,14.253Zm-2.442-.982,0,.9a3.1,3.1,0,0,0,.3.229l0-.926A3.279,3.279,0,0,1,48.421,13.271Zm1.222.686,0,.912c.093.035.2.066.3.1l0-.921C49.84,14.016,49.738,13.992,49.643,13.957Zm-.611-.279,0,.913c.092.05.194.1.3.143l0-.917C49.228,13.772,49.126,13.729,49.032,13.678Zm3.051.649,0,.944c.1,0,.2-.005.3-.013l0-.949C52.28,14.316,52.182,14.324,52.083,14.327Zm3.045-.883,0,.926a3.108,3.108,0,0,0,.294-.233l0-.9A3.429,3.429,0,0,1,55.128,13.444Zm-2.435.846,0,.935c.1-.013.2-.028.295-.045l0-.938C52.889,14.257,52.793,14.279,52.693,14.29Zm3.042-1.4,0,.923a1.8,1.8,0,0,0,.293-.542l0-.893A1.827,1.827,0,0,1,55.735,12.889Zm-1.215.9,0,.917c.1-.048.2-.1.295-.147l0-.911C54.721,13.7,54.619,13.744,54.52,13.79Zm-.609.236,0,.92c.1-.033.2-.064.3-.1l0-.911C54.112,13.971,54.009,14,53.911,14.026Zm-.609.161,0,.933c.1-.023.2-.047.3-.074l0-.924C53.5,14.147,53.4,14.167,53.3,14.187Z"/><path class="cls-14" d="M54.876,10.18c1.646.941,1.652,2.478.014,3.433a6.569,6.569,0,0,1-5.945.025c-1.646-.941-1.653-2.478-.015-3.433A6.571,6.571,0,0,1,54.876,10.18Z"/><path class="cls-14" d="M54.612,10.334c1.5.857,1.5,2.257.013,3.127a5.986,5.986,0,0,1-5.416.023c-1.5-.858-1.505-2.257-.013-3.127A5.986,5.986,0,0,1,54.612,10.334Z"/><path class="cls-15" d="M49.27,10.559a5.823,5.823,0,0,1,5.269-.022c1.061.606,1.349,1.491.871,2.255.622-.814.357-1.8-.8-2.458a5.986,5.986,0,0,0-5.416.023c-1.15.67-1.406,1.655-.778,2.464C47.934,12.062,48.215,11.174,49.27,10.559Z"/><path class="cls-20" d="M53.638,8.559a6.446,6.446,0,0,0-3.5.015c-1.616.464-2.429,1.329-2.444,2.2,0,.324,0,.647,0,.971.023.866.843,1.725,2.462,2.175a6.459,6.459,0,0,0,3.5-.014c1.615-.465,2.428-1.33,2.443-2.2.006-.324,0-.648,0-.971C56.078,9.868,55.258,9.01,53.638,8.559Z"/><path class="cls-21" d="M48.092,11.808l0,.922a1.8,1.8,0,0,1-.3-.521l0-.9A1.841,1.841,0,0,0,48.092,11.808Zm2.148,1.206,0,.923c.1.026.2.05.3.071l0-.933C50.436,13.055,50.337,13.038,50.24,13.014Zm1.22.174,0,.949c.1.007.2.008.3.01l0-.944C51.657,13.2,51.558,13.193,51.46,13.188Zm-.61-.061,0,.938c.1.016.2.03.3.041l0-.934C51.045,13.161,50.949,13.141,50.85,13.127Zm-2.443-.982,0,.9a2.964,2.964,0,0,0,.3.229l0-.925C48.6,12.284,48.493,12.218,48.407,12.145Zm1.222.686,0,.912c.093.035.2.066.3.1l0-.921C49.827,12.89,49.724,12.866,49.629,12.831Zm-.61-.278,0,.912c.093.05.194.1.3.143l0-.917C49.215,12.646,49.113,12.6,49.019,12.553Zm3.051.648,0,.944c.1,0,.2,0,.3-.013l0-.949C52.267,13.19,52.169,13.2,52.07,13.2Zm3.044-.883,0,.926a3.125,3.125,0,0,0,.295-.233l0-.9A3.487,3.487,0,0,1,55.114,12.318Zm-2.435.847,0,.934c.1-.013.2-.028.3-.045l0-.938C52.876,13.132,52.779,13.153,52.679,13.165Zm3.043-1.4,0,.922a1.789,1.789,0,0,0,.293-.542l0-.893A1.842,1.842,0,0,1,55.722,11.764Zm-1.216.9,0,.917c.1-.047.2-.095.3-.147l0-.911C54.708,12.575,54.605,12.618,54.506,12.664ZM53.9,12.9l0,.92c.1-.033.2-.064.295-.1l0-.911C54.1,12.845,54,12.869,53.9,12.9Zm-.608.161,0,.933c.1-.022.2-.047.3-.074l0-.923C53.487,13.022,53.388,13.041,53.289,13.061Z"/><path class="cls-14" d="M54.863,9.054c1.646.941,1.652,2.478.014,3.433a6.571,6.571,0,0,1-5.946.025c-1.646-.941-1.652-2.478-.014-3.433A6.571,6.571,0,0,1,54.863,9.054Z"/><path class="cls-14" d="M54.6,9.208c1.5.857,1.505,2.257.013,3.127a5.983,5.983,0,0,1-5.415.023c-1.5-.857-1.5-2.257-.014-3.127A5.986,5.986,0,0,1,54.6,9.208Z"/><path class="cls-15" d="M49.257,9.433a5.823,5.823,0,0,1,5.269-.022c1.06.606,1.349,1.492.871,2.255.621-.814.357-1.8-.8-2.458a5.986,5.986,0,0,0-5.416.023c-1.15.671-1.406,1.655-.778,2.464C47.92,10.936,48.2,10.048,49.257,9.433Z"/><path class="cls-22" d="M53.646,7.455a6.449,6.449,0,0,0-3.5.015c-1.615.464-2.428,1.329-2.443,2.2-.006.324,0,.647,0,.971.022.866.843,1.725,2.462,2.175a6.455,6.455,0,0,0,3.5-.014c1.616-.465,2.429-1.33,2.444-2.2,0-.323,0-.647,0-.97C56.086,8.764,55.265,7.906,53.646,7.455Z"/><path class="cls-23" d="M48.1,10.7l0,.922a1.824,1.824,0,0,1-.3-.521l0-.9A1.863,1.863,0,0,0,48.1,10.7Zm2.149,1.206,0,.923c.1.026.2.05.3.071l0-.933C50.444,11.951,50.345,11.934,50.248,11.91Zm1.22.173,0,.95c.1.007.2.008.3.01l0-.944C51.664,12.1,51.566,12.089,51.468,12.083Zm-.61-.06,0,.938c.1.016.2.03.295.041l0-.935C51.053,12.057,50.957,12.037,50.858,12.023Zm-2.443-.982,0,.9a2.964,2.964,0,0,0,.3.229l0-.926A3.279,3.279,0,0,1,48.415,11.041Zm1.222.686,0,.912c.093.035.2.066.3.1l0-.921C49.835,11.786,49.732,11.762,49.637,11.727Zm-.611-.278,0,.912c.093.05.194.1.3.143l0-.917C49.223,11.542,49.12,11.5,49.026,11.449Zm3.051.648,0,.944c.1,0,.2-.005.3-.013l0-.949C52.274,12.086,52.176,12.094,52.077,12.1Zm3.045-.883,0,.926a3.125,3.125,0,0,0,.3-.233l0-.9A3.429,3.429,0,0,1,55.122,11.214Zm-2.435.846,0,.935c.1-.013.2-.028.295-.045l0-.938C52.883,12.028,52.787,12.049,52.687,12.06Zm3.042-1.4,0,.922a1.8,1.8,0,0,0,.294-.542l0-.893A1.846,1.846,0,0,1,55.729,10.66Zm-1.215.9,0,.917c.1-.047.2-.1.3-.147l0-.911C54.715,11.471,54.613,11.514,54.514,11.56Zm-.609.236,0,.92c.1-.033.2-.064.3-.1l0-.911C54.106,11.741,54,11.765,53.905,11.8Zm-.609.161,0,.933c.1-.022.2-.047.3-.074l0-.923C53.494,11.918,53.4,11.937,53.3,11.957Z"/><path class="cls-14" d="M54.87,7.95c1.646.941,1.653,2.478.015,3.433a6.571,6.571,0,0,1-5.946.025c-1.646-.941-1.653-2.478-.015-3.433A6.571,6.571,0,0,1,54.87,7.95Z"/><path class="cls-14" d="M54.606,8.1c1.5.857,1.5,2.257.013,3.127a5.986,5.986,0,0,1-5.416.023C47.7,10.4,47.7,9,49.19,8.127A5.986,5.986,0,0,1,54.606,8.1Z"/><path class="cls-15" d="M49.264,8.329a5.823,5.823,0,0,1,5.269-.022c1.061.606,1.349,1.492.871,2.255.622-.814.358-1.8-.8-2.458a5.986,5.986,0,0,0-5.416.023c-1.15.67-1.406,1.655-.778,2.464C47.928,9.832,48.209,8.944,49.264,8.329Z"/><path class="cls-24" d="M61.906,11.475a6.459,6.459,0,0,0-3.5.014c-1.615.465-2.429,1.33-2.443,2.2-.006.323,0,.647,0,.97.022.867.842,1.725,2.461,2.176a6.449,6.449,0,0,0,3.5-.015c1.615-.464,2.429-1.329,2.443-2.2.006-.324.005-.647,0-.971C64.345,12.784,63.525,11.925,61.906,11.475Z"/><path class="cls-25" d="M56.359,14.724l0,.922a1.805,1.805,0,0,1-.3-.522l0-.9A1.856,1.856,0,0,0,56.359,14.724Zm2.148,1.206,0,.922c.1.026.2.05.3.072l0-.934C58.7,15.971,58.6,15.953,58.507,15.93Zm1.22.173,0,.95c.1.006.2.007.3.009l0-.944C59.924,16.117,59.826,16.109,59.727,16.1Zm-.61-.06,0,.937c.1.016.2.031.3.042l0-.935C59.313,16.077,59.216,16.057,59.117,16.043Zm-2.443-.983,0,.9a3.132,3.132,0,0,0,.3.228l0-.925A3.452,3.452,0,0,1,56.674,15.06Zm1.223.687,0,.912c.094.035.2.065.3.1l0-.921C58.094,15.805,57.991,15.782,57.9,15.747Zm-.611-.279,0,.913c.092.05.194.1.3.143l0-.918C57.482,15.561,57.38,15.519,57.286,15.468Zm3.051.648,0,.944c.1,0,.2,0,.3-.012l0-.949C60.534,16.105,60.436,16.114,60.337,16.116Zm3.045-.883,0,.927a3.13,3.13,0,0,0,.3-.234l0-.9A3.4,3.4,0,0,1,63.382,15.233Zm-2.436.847,0,.934c.1-.012.2-.028.3-.044l0-.938C61.143,16.047,61.047,16.069,60.946,16.08Zm3.043-1.4,0,.923a1.8,1.8,0,0,0,.293-.542l0-.893A1.837,1.837,0,0,1,63.989,14.679Zm-1.216.9,0,.918c.1-.048.2-.1.3-.147l0-.911C62.975,15.491,62.873,15.533,62.773,15.579Zm-.608.236,0,.921c.1-.033.2-.064.3-.1l0-.912C62.365,15.76,62.263,15.784,62.165,15.815Zm-.609.162,0,.932c.1-.022.2-.047.295-.074l0-.923C61.754,15.937,61.655,15.956,61.556,15.977Z"/><path class="cls-14" d="M63.13,11.97c1.646.941,1.652,2.478.014,3.432a6.568,6.568,0,0,1-5.946.025c-1.646-.941-1.652-2.478-.014-3.432A6.568,6.568,0,0,1,63.13,11.97Z"/><path class="cls-14" d="M62.865,12.124c1.5.857,1.505,2.257.013,3.127a5.987,5.987,0,0,1-5.415.022c-1.5-.857-1.505-2.257-.013-3.127A5.987,5.987,0,0,1,62.865,12.124Z"/><path class="cls-15" d="M57.524,12.349a5.82,5.82,0,0,1,5.269-.023c1.06.607,1.349,1.492.871,2.256.621-.815.357-1.8-.8-2.458a5.987,5.987,0,0,0-5.415.022c-1.15.671-1.407,1.656-.778,2.465C56.187,13.851,56.468,12.964,57.524,12.349Z"/><path class="cls-26" d="M61.849,10.418a6.459,6.459,0,0,0-3.5.014c-1.615.464-2.428,1.33-2.443,2.2q-.009.486,0,.971c.022.867.842,1.725,2.462,2.176a6.446,6.446,0,0,0,3.5-.015c1.615-.464,2.429-1.329,2.444-2.2,0-.324,0-.647,0-.971C64.288,11.727,63.468,10.868,61.849,10.418Z"/><path class="cls-27" d="M56.3,13.666l0,.923a1.829,1.829,0,0,1-.3-.522l0-.9A1.862,1.862,0,0,0,56.3,13.666Zm2.148,1.207,0,.922c.1.026.2.05.3.071l0-.933C58.647,14.914,58.547,14.9,58.45,14.873Zm1.22.173,0,.95c.1.006.2.007.3.009l0-.944C59.867,15.059,59.769,15.052,59.67,15.046Zm-.61-.061,0,.938c.1.016.2.03.3.042l0-.935C59.256,15.02,59.159,15,59.06,14.985ZM56.618,14l0,.9a3.1,3.1,0,0,0,.3.229l0-.925A3.284,3.284,0,0,1,56.618,14Zm1.222.687,0,.912c.093.035.2.065.3.1l0-.921C58.037,14.748,57.935,14.725,57.84,14.69Zm-.611-.279,0,.913c.092.05.194.1.3.143l0-.918C57.425,14.5,57.323,14.462,57.229,14.411Zm3.051.648,0,.944c.1,0,.2-.005.3-.012l0-.949C60.477,15.048,60.379,15.056,60.28,15.059Zm3.045-.883,0,.927a3.114,3.114,0,0,0,.294-.234l0-.9A3.256,3.256,0,0,1,63.325,14.176Zm-2.435.847,0,.934c.1-.012.2-.028.3-.045l0-.937C61.086,14.99,60.99,15.012,60.89,15.023Zm3.042-1.4,0,.923A1.793,1.793,0,0,0,64.229,14l0-.892A1.866,1.866,0,0,1,63.932,13.622Zm-1.215.9,0,.918c.1-.048.2-.1.3-.147l0-.911C62.918,14.434,62.816,14.476,62.717,14.522Zm-.609.236,0,.921c.1-.033.2-.064.295-.1l0-.912C62.309,14.7,62.206,14.727,62.108,14.758Zm-.609.162,0,.932c.1-.022.2-.047.3-.074l0-.923C61.7,14.88,61.6,14.9,61.5,14.92Z"/><path class="cls-14" d="M63.073,10.912c1.646.942,1.652,2.479.014,3.433a6.569,6.569,0,0,1-5.945.025c-1.646-.941-1.653-2.478-.015-3.432A6.571,6.571,0,0,1,63.073,10.912Z"/><path class="cls-14" d="M62.809,11.067c1.5.857,1.5,2.257.013,3.126a5.986,5.986,0,0,1-5.416.023c-1.5-.857-1.5-2.257-.013-3.127A5.989,5.989,0,0,1,62.809,11.067Z"/><path class="cls-15" d="M57.467,11.291a5.823,5.823,0,0,1,5.269-.022c1.061.607,1.349,1.492.871,2.256.622-.815.357-1.8-.8-2.458a5.989,5.989,0,0,0-5.416.022c-1.15.671-1.406,1.656-.778,2.465C56.131,12.794,56.412,11.907,57.467,11.291Z"/><path class="cls-28" d="M61.856,9.314a6.455,6.455,0,0,0-3.5.014c-1.615.464-2.429,1.33-2.444,2.2q-.008.486,0,.971c.023.867.843,1.725,2.462,2.176a6.449,6.449,0,0,0,3.5-.015c1.615-.464,2.428-1.33,2.443-2.2.006-.324,0-.647,0-.971C64.3,10.623,63.476,9.764,61.856,9.314Z"/><path class="cls-29" d="M56.31,12.562l0,.923a1.782,1.782,0,0,1-.3-.522l0-.9A1.837,1.837,0,0,0,56.31,12.562Zm2.148,1.206,0,.923c.1.026.2.05.3.071l0-.933C58.654,13.81,58.555,13.792,58.458,13.768Zm1.22.174,0,.95c.1.006.2.007.3.009l0-.944C59.875,13.956,59.777,13.948,59.678,13.942Zm-.61-.061,0,.938c.1.016.2.03.3.042l0-.935C59.264,13.916,59.167,13.9,59.068,13.881ZM56.625,12.9l0,.9a2.869,2.869,0,0,0,.3.229l0-.925A3.452,3.452,0,0,1,56.625,12.9Zm1.222.687,0,.912c.093.035.2.065.3.1l0-.921C58.045,13.644,57.942,13.621,57.847,13.586Zm-.61-.279,0,.913c.093.05.194.1.3.142l0-.917C57.433,13.4,57.331,13.358,57.237,13.307Zm3.051.648,0,.944c.1,0,.2,0,.3-.012l0-.949C60.485,13.944,60.387,13.952,60.288,13.955Zm3.044-.883,0,.927a3.13,3.13,0,0,0,.3-.234l0-.9A3.275,3.275,0,0,1,63.332,13.072Zm-2.435.847,0,.934c.1-.012.2-.028.3-.045l0-.937C61.094,13.886,61,13.908,60.9,13.919Zm3.043-1.4,0,.923a1.793,1.793,0,0,0,.293-.543l0-.893A1.828,1.828,0,0,1,63.94,12.518Zm-1.216.9,0,.918c.1-.048.2-.1.3-.148l0-.91C62.926,13.329,62.823,13.372,62.724,13.418Zm-.609.236,0,.921c.1-.033.2-.064.3-.1l0-.912C62.316,13.6,62.214,13.623,62.115,13.654Zm-.608.162,0,.932c.1-.022.2-.047.3-.074l0-.923C61.705,13.776,61.606,13.8,61.507,13.816Z"/><path class="cls-14" d="M63.081,9.808c1.646.942,1.652,2.479.014,3.433a6.571,6.571,0,0,1-5.946.025c-1.646-.941-1.652-2.478-.014-3.433A6.574,6.574,0,0,1,63.081,9.808Z"/><path class="cls-14" d="M62.816,9.963c1.5.857,1.5,2.257.013,3.126a5.983,5.983,0,0,1-5.415.023c-1.5-.857-1.505-2.257-.013-3.127A5.983,5.983,0,0,1,62.816,9.963Z"/><path class="cls-15" d="M57.475,10.187a5.823,5.823,0,0,1,5.269-.022c1.06.607,1.349,1.492.871,2.255.621-.814.357-1.8-.8-2.457a5.983,5.983,0,0,0-5.415.022c-1.151.671-1.407,1.656-.778,2.465C56.138,11.69,56.419,10.8,57.475,10.187Z"/><path class="cls-30" d="M57.221,15.82a6.446,6.446,0,0,0-3.5.015c-1.616.464-2.429,1.33-2.444,2.2-.005.324,0,.647,0,.971.022.866.843,1.725,2.462,2.176a6.459,6.459,0,0,0,3.5-.015c1.615-.464,2.428-1.33,2.443-2.2.006-.324,0-.647,0-.971C59.661,17.129,58.84,16.271,57.221,15.82Z"/><path class="cls-31" d="M51.674,19.069l0,.923a1.8,1.8,0,0,1-.3-.522l0-.9A1.858,1.858,0,0,0,51.674,19.069Zm2.149,1.206,0,.923c.1.026.2.05.3.071l0-.933C54.019,20.316,53.92,20.3,53.823,20.275Zm1.22.174,0,.95c.1.006.2.007.3.009l0-.944C55.239,20.462,55.141,20.454,55.043,20.449Zm-.61-.061,0,.938c.1.016.2.03.3.041l0-.934C54.628,20.423,54.532,20.4,54.433,20.388Zm-2.443-.982,0,.9a2.964,2.964,0,0,0,.3.229l0-.925C52.185,19.545,52.076,19.479,51.99,19.406Zm1.222.687,0,.912c.093.035.2.065.3.1l0-.921C53.41,20.151,53.307,20.127,53.212,20.093Zm-.611-.279,0,.912c.093.051.194.1.3.143l0-.917C52.8,19.907,52.7,19.865,52.6,19.814Zm3.051.648,0,.944c.1,0,.2,0,.3-.012l0-.95C55.85,20.451,55.751,20.459,55.652,20.462Zm3.045-.883,0,.927a3.13,3.13,0,0,0,.3-.234l0-.9A3.487,3.487,0,0,1,58.7,19.579Zm-2.435.847,0,.934c.1-.012.2-.028.3-.045l0-.938C56.458,20.393,56.362,20.415,56.262,20.426Zm3.043-1.4,0,.922a1.759,1.759,0,0,0,.294-.542l0-.893A1.853,1.853,0,0,1,59.305,19.025Zm-1.216.9,0,.917c.1-.047.2-.095.295-.147l0-.911C58.291,19.836,58.188,19.879,58.089,19.925Zm-.609.236,0,.921c.1-.033.2-.064.3-.1l0-.912C57.681,20.106,57.578,20.13,57.48,20.161Zm-.609.161,0,.933c.1-.022.2-.047.3-.074l0-.923C57.07,20.283,56.971,20.3,56.871,20.322Z"/><path class="cls-14" d="M58.445,16.315c1.646.941,1.653,2.478.015,3.433a6.571,6.571,0,0,1-5.946.025c-1.646-.941-1.652-2.478-.014-3.433A6.569,6.569,0,0,1,58.445,16.315Z"/><path class="cls-14" d="M58.181,16.469c1.5.858,1.505,2.258.013,3.127a5.986,5.986,0,0,1-5.416.023c-1.5-.857-1.5-2.257-.013-3.127A5.986,5.986,0,0,1,58.181,16.469Z"/><path class="cls-15" d="M52.84,16.694a5.821,5.821,0,0,1,5.268-.022c1.061.607,1.349,1.492.872,2.255.621-.814.357-1.8-.8-2.458a5.986,5.986,0,0,0-5.416.023c-1.15.671-1.406,1.656-.778,2.465C51.5,18.2,51.784,17.31,52.84,16.694Z"/><path class="cls-32" d="M57.068,14.716a6.446,6.446,0,0,0-3.5.015c-1.615.464-2.429,1.33-2.444,2.2,0,.324,0,.647,0,.971.023.866.843,1.725,2.462,2.176a6.459,6.459,0,0,0,3.5-.015c1.615-.464,2.428-1.33,2.443-2.2q.009-.486,0-.971C59.508,16.025,58.688,15.167,57.068,14.716Z"/><path class="cls-33" d="M51.522,17.965l0,.923a1.782,1.782,0,0,1-.3-.522l0-.9A1.837,1.837,0,0,0,51.522,17.965Zm2.148,1.206,0,.923c.1.026.2.05.3.071l0-.933C53.866,19.212,53.767,19.2,53.67,19.171Zm1.22.174,0,.95c.1.006.2.007.3.009l0-.944C55.087,19.358,54.989,19.35,54.89,19.345Zm-.61-.061,0,.938c.1.016.2.03.3.041l0-.934C54.476,19.319,54.379,19.3,54.28,19.284ZM51.837,18.3l0,.9a2.98,2.98,0,0,0,.3.229l0-.925C52.033,18.441,51.923,18.375,51.837,18.3Zm1.222.687,0,.911c.094.036.2.066.3.1l0-.921C53.257,19.047,53.154,19.023,53.059,18.989Zm-.61-.279,0,.912c.093.05.194.1.3.143l0-.917C52.645,18.8,52.543,18.761,52.449,18.71Zm3.051.648,0,.944c.1,0,.2,0,.3-.012l0-.95C55.7,19.347,55.6,19.355,55.5,19.358Zm3.045-.883,0,.926a2.971,2.971,0,0,0,.3-.233l0-.9C58.755,18.339,58.644,18.405,58.545,18.475Zm-2.436.847,0,.934c.1-.012.2-.028.3-.045l0-.938C56.306,19.289,56.21,19.31,56.109,19.322Zm3.043-1.4,0,.922a1.789,1.789,0,0,0,.293-.542l0-.893A1.828,1.828,0,0,1,59.152,17.921Zm-1.216.9,0,.917c.1-.047.2-.095.3-.147l0-.911C58.138,18.732,58.036,18.775,57.936,18.821Zm-.608.236,0,.92c.1-.032.2-.063.3-.1l0-.912C57.528,19,57.426,19.026,57.328,19.057Zm-.609.161,0,.933c.1-.022.2-.047.3-.074l0-.923C56.917,19.179,56.818,19.2,56.719,19.218Z"/><path class="cls-14" d="M58.293,15.211c1.646.941,1.652,2.478.014,3.433a6.571,6.571,0,0,1-5.946.025c-1.646-.941-1.652-2.478-.014-3.433A6.571,6.571,0,0,1,58.293,15.211Z"/><path class="cls-14" d="M58.028,15.365c1.5.858,1.505,2.257.013,3.127a5.983,5.983,0,0,1-5.415.023c-1.5-.857-1.5-2.257-.013-3.127A5.983,5.983,0,0,1,58.028,15.365Z"/><path class="cls-15" d="M52.687,15.59a5.823,5.823,0,0,1,5.269-.022c1.06.607,1.349,1.492.871,2.255.621-.814.357-1.8-.8-2.458a5.983,5.983,0,0,0-5.415.023c-1.151.671-1.407,1.656-.778,2.465C51.35,17.093,51.631,16.206,52.687,15.59Z"/><polygon class="cls-34" points="98.459 35.573 57.565 59.184 39.808 48.931 80.702 25.321 98.459 35.573"/><polygon class="cls-35" points="50.431 47.227 44.903 50.419 42.08 48.789 47.608 45.597 50.431 47.227"/><path class="cls-36" d="M44.9,47.405a.732.732,0,0,0,0,1.385,2.658,2.658,0,0,0,2.4,0,.732.732,0,0,0,0-1.385A2.658,2.658,0,0,0,44.9,47.405ZM47.143,48.7a2.3,2.3,0,0,1-2.084,0,.635.635,0,0,1,0-1.2,2.3,2.3,0,0,1,2.084,0A.635.635,0,0,1,47.143,48.7Z"/><g class="cls-37"><polygon class="cls-38" points="93.335 42.484 72.46 54.567 51.279 42.339 74.966 28.633 93.412 39.283 90.606 40.908 93.335 42.484"/><path class="cls-39" d="M63.866,37.123,57.824,49.328l-.118-.068,6.041-12.206Zm-1.306-.754L56.519,48.575l.119.068,6.041-12.2Zm2.374,1.371-6.042,12.2.119.069,6.041-12.206Zm1.186.685L60.079,50.63l.118.069,6.042-12.206Zm-5.308-1.606L55.332,47.89l.119.068L61.026,36.7Zm6.5,2.291-6.042,12.2.119.069,6.041-12.206Zm-10.771.183L52.959,46.52l.119.068L56.75,39.17Zm-6.415,3.712L49.4,44.464l.119.069.817-1.652Zm2.139-1.237-1.674,3.381.118.069,1.769-3.574ZM54.4,40.531l-2.626,5.3.119.069,2.72-5.5Zm4.276-2.475-4.528,9.149.118.068,4.624-9.341Zm9.82,1.739L62.452,52l.119.069,6.041-12.206Zm13.052,7.536L80.178,50.1l.214-.124L81.665,47.4Zm-2.373-1.37L75.9,52.571l.214-.123,3.177-6.419Zm-1.186-.685-4.224,8.533.213-.124,4.129-8.341Zm4.746,2.74-.417.842.214-.124.322-.649Zm-2.373-1.37-2.32,4.688.213-.124,2.225-4.5ZM76.8,44.591,71.624,55.047l.214-.124,5.08-10.264ZM72.053,41.85,66.012,54.056l.119.068,6.041-12.205Zm-1.186-.685L64.825,53.371l.119.068,6.041-12.2ZM69.68,40.48,63.639,52.685l.118.069L69.8,40.548Zm4.747,2.74L68.385,55.426l.119.068,6.041-12.2Zm-1.187-.685L67.2,54.741l.118.068,6.042-12.2Zm2.373,1.371-6.041,12.2.107.062c.021-.012,6.053-12.2,6.053-12.2Z"/><polygon class="cls-40" points="100.607 38.751 86.425 46.951 77.048 41.538 91.23 33.337 100.607 38.751"/><path class="cls-41" d="M67.524,36.272c-3.107,1.793-3.107,4.686-.016,6.471a12.373,12.373,0,0,0,11.193,0C78.715,42.734,67.524,36.272,67.524,36.272Z"/><polygon class="cls-42" points="86.249 46.606 85.699 46.924 64.507 34.688 65.057 34.371 86.249 46.606"/><path class="cls-43" d="M78.262,29.694,77.6,31.017l-.23-.038.666-1.323Zm.484.373-.666,1.324.23.038.665-1.323Zm.713.412L78.793,31.8l.23.039.665-1.324Zm.713.412-.666,1.323.23.038.665-1.323Zm.713.411-.666,1.324.23.038.665-1.323Zm.713.412-.666,1.323.23.039.665-1.324Zm.713.412-.666,1.323.23.038.665-1.323Zm.713.411-.666,1.324.23.038.665-1.323Zm.713.412-.666,1.323.23.039.665-1.324Z"/><path class="cls-43" d="M63.765,35.936l.73.143.618-.266-.009.445.629.257L65,36.647l-.229.425-.445-.363-.771.006.461-.357Zm-2.3,2.979-.461.357.771-.006.445.364.229-.425.737-.132-.63-.258.01-.445-.618.267-.73-.143Zm0,2.862-.461.357.771-.006.445.363.229-.425.737-.132-.63-.257.01-.445-.618.266-.73-.143Zm2.544,2.557-.461.357.771-.006.445.364L65,44.624l.736-.132-.629-.257.009-.446-.618.267-.73-.143ZM68.442,45.8l-.461.357.771-.006.446.363.228-.425.737-.132-.63-.257.01-.445-.618.266-.73-.143Zm4.957,0-.461.357.771-.006.445.363.229-.425.736-.132L74.49,45.7l.01-.445-.618.266-.731-.143Zm4.43-1.469-.462.357.771-.006.446.364.229-.425.736-.132-.63-.257.01-.446-.618.267-.73-.143Z"/><path class="cls-44" d="M58.306,57.528l.38-.259c.049-.034.073-.065.064-.1s-.049-.079-.143-.133l-2.389-1.379a.3.3,0,0,0-.31-.043l-.512.233-.124-.071.843-.685.054,0,2.9,1.675a.376.376,0,0,0,.4.045l.448-.219.143.083-1.616.932Z"/><path class="cls-43" d="M93,37.5l.38-.259c.049-.034.073-.066.064-.1s-.049-.079-.143-.133l-2.389-1.38a.294.294,0,0,0-.31-.042l-.512.233-.124-.071.843-.685.054,0,2.9,1.674a.375.375,0,0,0,.4.046l.448-.219.143.082-1.616.933Z"/><path class="cls-43" d="M81.33,30.486l.472-.322c.061-.043.092-.081.08-.124s-.061-.1-.177-.166l-2.974-1.717a.368.368,0,0,0-.386-.053l-.637.29-.154-.088,1.048-.853.068,0,3.611,2.084a.466.466,0,0,0,.5.057l.558-.273.178.1-2.011,1.161Z"/></g><path class="cls-45" d="M49.645,51.327a6.069,6.069,0,0,0-3.293.014c-1.519.437-2.284,1.25-2.3,2.065q-.008.458,0,.913c.021.815.792,1.622,2.315,2.046a6.059,6.059,0,0,0,3.293-.014c1.519-.436,2.284-1.25,2.3-2.065q.008-.456,0-.913C51.94,52.558,51.168,51.751,49.645,51.327Z"/><path class="cls-46" d="M44.429,54.382l0,.868a1.72,1.72,0,0,1-.28-.491l0-.847A1.718,1.718,0,0,0,44.429,54.382Zm2.02,1.135,0,.867c.092.025.185.048.278.068l0-.878C46.634,55.555,46.54,55.539,46.449,55.517Zm1.147.163,0,.893c.093.006.186.007.278.009l0-.888C47.781,55.693,47.689,55.685,47.6,55.68Zm-.573-.057,0,.882c.092.015.185.028.278.039l0-.879C47.207,55.655,47.116,55.637,47.023,55.623Zm-2.3-.924,0,.851a2.886,2.886,0,0,0,.279.215l0-.87A3.238,3.238,0,0,1,44.726,54.7Zm1.149.646,0,.858c.087.033.184.061.278.091l0-.866C46.061,55.4,45.964,55.378,45.875,55.345Zm-.575-.262,0,.858c.087.047.182.091.279.134l0-.862C45.485,55.171,45.389,55.131,45.3,55.083Zm2.87.609,0,.888c.092,0,.185,0,.278-.012l0-.892C48.355,55.682,48.263,55.69,48.17,55.692Zm2.863-.83,0,.871a2.875,2.875,0,0,0,.277-.219l0-.85A3.227,3.227,0,0,1,51.033,54.862Zm-2.29.8,0,.879c.093-.012.185-.026.278-.042l0-.882C48.928,55.627,48.837,55.648,48.743,55.658ZM51.6,54.341l0,.867a1.674,1.674,0,0,0,.276-.509l0-.84A1.712,1.712,0,0,1,51.6,54.341Zm-1.143.847,0,.862c.1-.045.191-.09.277-.138l0-.857C50.651,55.1,50.555,55.144,50.461,55.188Zm-.572.221,0,.866c.094-.031.191-.06.278-.094l0-.857C50.078,55.358,49.981,55.38,49.889,55.409Zm-.573.152,0,.877c.093-.021.185-.044.277-.069l0-.869C49.5,55.524,49.41,55.542,49.316,55.561Z"/><path class="cls-14" d="M50.8,51.793c1.548.885,1.554,2.33.014,3.228a6.18,6.18,0,0,1-5.592.024c-1.548-.885-1.554-2.331-.013-3.229A6.178,6.178,0,0,1,50.8,51.793Z"/><path class="cls-14" d="M50.548,51.938c1.41.806,1.415,2.122.012,2.94a5.629,5.629,0,0,1-5.093.022c-1.41-.807-1.415-2.123-.012-2.941A5.629,5.629,0,0,1,50.548,51.938Z"/><path class="cls-15" d="M45.525,52.149a5.474,5.474,0,0,1,4.954-.021c1,.571,1.269,1.4.82,2.121.584-.766.336-1.69-.751-2.311a5.629,5.629,0,0,0-5.093.021c-1.082.631-1.323,1.557-.732,2.318C44.268,53.562,44.532,52.728,45.525,52.149Z"/><path class="cls-47" d="M66.574,50.22a6.069,6.069,0,0,0-3.293.013c-1.519.437-2.284,1.251-2.3,2.066-.006.3,0,.608,0,.913.021.815.793,1.622,2.316,2.046a6.069,6.069,0,0,0,3.293-.014c1.519-.437,2.284-1.25,2.3-2.065.006-.3,0-.609,0-.913C68.869,51.451,68.1,50.643,66.574,50.22Z"/><path class="cls-48" d="M61.358,53.275l0,.868a1.7,1.7,0,0,1-.28-.491l0-.848A1.748,1.748,0,0,0,61.358,53.275Zm2.02,1.134,0,.868c.092.024.185.047.278.067l0-.878C63.563,54.448,63.47,54.432,63.378,54.409Zm1.148.163,0,.894c.092.006.185.006.278.008l0-.887C64.711,54.585,64.618,54.578,64.526,54.572Zm-.574-.057,0,.882c.092.015.185.029.278.039l0-.879C64.136,54.548,64.045,54.529,63.952,54.515Zm-2.3-.923,0,.85a2.85,2.85,0,0,0,.279.215l0-.87A3.044,3.044,0,0,1,61.655,53.592Zm1.149.645,0,.858c.088.033.184.062.278.092l0-.866C62.99,54.293,62.893,54.27,62.8,54.237Zm-.574-.262,0,.858c.087.048.183.091.279.135l0-.863C62.414,54.063,62.318,54.023,62.23,53.975Zm2.869.61,0,.888c.093,0,.185,0,.278-.012l0-.893C65.285,54.574,65.192,54.582,65.1,54.585Zm2.864-.831,0,.872a3.044,3.044,0,0,0,.277-.22l0-.849A3.387,3.387,0,0,1,67.963,53.754Zm-2.291.8,0,.878c.093-.011.186-.026.278-.042l0-.882C65.857,54.52,65.767,54.54,65.672,54.551Zm2.862-1.318,0,.868a1.679,1.679,0,0,0,.276-.51l0-.84A1.734,1.734,0,0,1,68.534,53.233Zm-1.143.847,0,.863c.1-.045.191-.09.278-.139l0-.856C67.58,54,67.484,54.037,67.391,54.08Zm-.573.222,0,.865c.093-.03.19-.06.277-.093l0-.858C67.007,54.25,66.91,54.273,66.818,54.3Zm-.573.152,0,.877c.093-.021.186-.045.278-.07l0-.868C66.432,54.416,66.339,54.434,66.245,54.454Z"/><path class="cls-14" d="M67.726,50.685c1.548.885,1.554,2.331.013,3.229a6.178,6.178,0,0,1-5.591.023c-1.548-.885-1.554-2.33-.014-3.228A6.18,6.18,0,0,1,67.726,50.685Z"/><path class="cls-14" d="M67.477,50.83c1.41.806,1.415,2.123.012,2.941a5.629,5.629,0,0,1-5.093.021c-1.409-.806-1.415-2.123-.012-2.941A5.632,5.632,0,0,1,67.477,50.83Z"/><path class="cls-15" d="M62.454,51.041a5.476,5.476,0,0,1,4.955-.02c1,.57,1.269,1.4.819,2.121.585-.766.336-1.69-.751-2.312a5.632,5.632,0,0,0-5.093.021c-1.082.631-1.322,1.557-.732,2.318C61.2,52.455,61.461,51.62,62.454,51.041Z"/><path class="cls-49" d="M66.579,49.213a6.069,6.069,0,0,0-3.293.014c-1.52.437-2.284,1.25-2.3,2.065-.006.3,0,.609,0,.913.021.815.793,1.622,2.316,2.046a6.059,6.059,0,0,0,3.293-.014c1.519-.436,2.284-1.25,2.3-2.065q.008-.456,0-.913C68.873,50.444,68.1,49.637,66.579,49.213Z"/><path class="cls-50" d="M61.362,52.268l0,.868a1.72,1.72,0,0,1-.28-.491l0-.847A1.744,1.744,0,0,0,61.362,52.268Zm2.02,1.135,0,.867c.092.025.185.048.278.068l0-.878C63.567,53.441,63.474,53.425,63.382,53.4Zm1.148.163,0,.893c.092.006.185.007.278.009l0-.888C64.715,53.579,64.623,53.571,64.53,53.566Zm-.574-.057,0,.882c.092.015.185.028.278.039l0-.879C64.14,53.541,64.049,53.523,63.956,53.509Zm-2.3-.924,0,.851a2.869,2.869,0,0,0,.278.215l0-.87A3.258,3.258,0,0,1,61.659,52.585Zm1.149.646,0,.858c.088.033.184.061.278.091l0-.866C62.994,53.286,62.9,53.264,62.808,53.231Zm-.574-.262,0,.858c.087.047.182.091.278.134l0-.862C62.419,53.057,62.322,53.017,62.234,52.969Zm2.869.609,0,.888c.093,0,.186-.005.278-.012l0-.892C65.289,53.568,65.2,53.576,65.1,53.578Zm2.864-.83,0,.871a2.756,2.756,0,0,0,.277-.219l0-.85A3.392,3.392,0,0,1,67.967,52.748Zm-2.29.8,0,.879c.093-.012.186-.026.278-.042l0-.882C65.861,53.513,65.771,53.534,65.677,53.544Zm2.861-1.317,0,.867a1.671,1.671,0,0,0,.275-.509l0-.84A1.763,1.763,0,0,1,68.538,52.227Zm-1.143.846,0,.863c.1-.045.191-.09.278-.138l0-.857C67.584,52.99,67.488,53.03,67.4,53.073Zm-.573.222,0,.866c.093-.031.19-.06.277-.094l0-.857C67.011,53.244,66.914,53.266,66.822,53.3Zm-.572.152,0,.877c.093-.021.186-.044.278-.069l0-.869C66.436,53.41,66.343,53.428,66.25,53.447Z"/><path class="cls-14" d="M67.73,49.679c1.548.885,1.554,2.33.013,3.228a6.178,6.178,0,0,1-5.591.024C60.6,52.046,60.6,50.6,62.138,49.7A6.18,6.18,0,0,1,67.73,49.679Z"/><path class="cls-14" d="M67.481,49.824c1.41.806,1.416,2.122.013,2.94a5.631,5.631,0,0,1-5.094.022c-1.409-.807-1.415-2.123-.012-2.941A5.629,5.629,0,0,1,67.481,49.824Z"/><path class="cls-15" d="M62.458,50.035a5.476,5.476,0,0,1,4.955-.021c1,.571,1.269,1.4.819,2.121.585-.766.336-1.69-.751-2.311a5.629,5.629,0,0,0-5.093.021c-1.082.631-1.322,1.557-.732,2.318C61.2,51.448,61.465,50.614,62.458,50.035Z"/><path class="cls-51" d="M66.586,48.175a6.069,6.069,0,0,0-3.293.014c-1.519.436-2.284,1.25-2.3,2.065,0,.3,0,.609,0,.913.02.815.792,1.622,2.315,2.046a6.069,6.069,0,0,0,3.293-.014c1.519-.436,2.284-1.25,2.3-2.065q.007-.457,0-.913C68.88,49.406,68.109,48.6,66.586,48.175Z"/><path class="cls-52" d="M61.369,51.23l0,.868a1.72,1.72,0,0,1-.28-.491l0-.848A1.748,1.748,0,0,0,61.369,51.23Zm2.021,1.135,0,.867c.093.025.185.047.279.067l0-.878C63.574,52.4,63.481,52.387,63.39,52.365Zm1.147.163,0,.893c.092.006.185.007.278.009l0-.888C64.722,52.54,64.63,52.533,64.537,52.528Zm-.573-.057,0,.882c.093.015.185.028.278.039l0-.879C64.147,52.5,64.057,52.484,63.964,52.471Zm-2.3-.924,0,.85a2.891,2.891,0,0,0,.279.216l0-.871A3.188,3.188,0,0,1,61.666,51.547Zm1.15.646,0,.857c.088.033.185.062.279.092l0-.866C63,52.248,62.905,52.225,62.816,52.193Zm-.575-.262,0,.858c.087.047.182.091.278.134l0-.862C62.426,52.018,62.33,51.978,62.241,51.931Zm2.87.609,0,.888c.093,0,.186,0,.278-.012l0-.892C65.3,52.53,65.2,52.538,65.111,52.54Zm2.863-.83,0,.871a2.849,2.849,0,0,0,.277-.22l0-.849A3.227,3.227,0,0,1,67.974,51.71Zm-2.29.8,0,.879c.093-.012.186-.027.278-.043l0-.881C65.869,52.475,65.778,52.5,65.684,52.506Zm2.861-1.317,0,.867a1.689,1.689,0,0,0,.276-.51l0-.839A1.737,1.737,0,0,1,68.545,51.189Zm-1.143.846,0,.863c.1-.045.19-.09.277-.138l0-.857C67.591,51.952,67.5,51.992,67.4,52.035Zm-.573.222,0,.866c.094-.031.191-.06.278-.094l0-.857C67.018,52.205,66.922,52.228,66.829,52.257Zm-.572.152,0,.877c.093-.021.186-.044.278-.07l0-.868C66.443,52.372,66.35,52.39,66.257,52.409Z"/><path class="cls-14" d="M67.737,48.64c1.548.885,1.554,2.331.014,3.229a6.18,6.18,0,0,1-5.592.023c-1.548-.885-1.554-2.33-.014-3.228A6.18,6.18,0,0,1,67.737,48.64Z"/><path class="cls-14" d="M67.488,48.785c1.41.806,1.416,2.123.013,2.941a5.629,5.629,0,0,1-5.093.021c-1.41-.806-1.416-2.122-.013-2.94A5.629,5.629,0,0,1,67.488,48.785Z"/><path class="cls-15" d="M62.465,49a5.476,5.476,0,0,1,4.955-.021c1,.57,1.269,1.4.819,2.121.585-.766.336-1.69-.751-2.312a5.629,5.629,0,0,0-5.093.022c-1.081.63-1.322,1.556-.731,2.317C61.208,50.41,61.472,49.575,62.465,49Z"/><path class="cls-53" d="M74.436,50.962a6.069,6.069,0,0,0-3.293.014c-1.519.436-2.284,1.25-2.3,2.065,0,.3,0,.609,0,.913.021.815.792,1.622,2.315,2.046a6.069,6.069,0,0,0,3.293-.014c1.519-.436,2.284-1.25,2.3-2.065q.008-.458,0-.913C76.731,52.193,75.959,51.386,74.436,50.962Z"/><path class="cls-54" d="M69.22,54.017l0,.868a1.72,1.72,0,0,1-.28-.491l0-.848A1.723,1.723,0,0,0,69.22,54.017Zm2.02,1.135,0,.867c.092.025.185.047.278.067l0-.878C71.425,55.19,71.331,55.174,71.24,55.152Zm1.147.163,0,.893c.093.006.186.007.278.009l0-.888C72.572,55.327,72.48,55.32,72.387,55.315Zm-.573-.057,0,.882c.092.015.185.028.278.039l0-.879C72,55.29,71.907,55.271,71.814,55.258Zm-2.3-.924,0,.85a2.891,2.891,0,0,0,.279.216l0-.871A3.026,3.026,0,0,1,69.517,54.334Zm1.149.646,0,.857c.087.033.184.062.278.092l0-.866C70.852,55.035,70.755,55.013,70.666,54.98Zm-.575-.262,0,.858c.087.047.182.091.279.134l0-.862C70.276,54.805,70.18,54.766,70.091,54.718Zm2.87.609,0,.888c.092,0,.185-.005.278-.012l0-.892C73.146,55.317,73.054,55.325,72.961,55.327Zm2.863-.83,0,.871a2.733,2.733,0,0,0,.277-.22l0-.849A3.227,3.227,0,0,1,75.824,54.5Zm-2.29.8,0,.879c.093-.012.185-.027.278-.042l0-.882C73.719,55.262,73.628,55.282,73.534,55.293ZM76.4,53.976l0,.867a1.667,1.667,0,0,0,.276-.51l0-.839A1.712,1.712,0,0,1,76.4,53.976Zm-1.143.846,0,.863c.1-.045.191-.09.277-.138l0-.857C75.442,54.739,75.346,54.779,75.252,54.822Zm-.572.222,0,.866c.094-.031.191-.06.278-.094l0-.857C74.869,54.992,74.772,55.015,74.68,55.044Zm-.573.152,0,.877c.093-.021.185-.044.277-.07l0-.868C74.294,55.159,74.2,55.177,74.107,55.2Z"/><path class="cls-14" d="M75.587,51.427c1.548.885,1.554,2.331.014,3.229a6.18,6.18,0,0,1-5.592.023c-1.548-.885-1.554-2.33-.013-3.228A6.178,6.178,0,0,1,75.587,51.427Z"/><path class="cls-14" d="M75.339,51.572c1.41.807,1.415,2.123.012,2.941a5.629,5.629,0,0,1-5.093.021c-1.41-.806-1.415-2.122-.012-2.94A5.629,5.629,0,0,1,75.339,51.572Z"/><path class="cls-15" d="M70.316,51.784a5.476,5.476,0,0,1,4.955-.021c1,.57,1.268,1.4.819,2.121.584-.766.336-1.69-.751-2.312a5.629,5.629,0,0,0-5.093.022c-1.082.63-1.323,1.557-.732,2.317C69.059,53.2,69.323,52.362,70.316,51.784Z"/><path class="cls-55" d="M74.232,49.753a6.059,6.059,0,0,0-3.293.013c-1.519.437-2.284,1.251-2.3,2.066-.006.3,0,.608,0,.913.02.815.792,1.622,2.315,2.046a6.069,6.069,0,0,0,3.293-.014c1.519-.437,2.284-1.251,2.3-2.066q.007-.456,0-.912C76.526,50.984,75.754,50.176,74.232,49.753Z"/><path class="cls-56" d="M69.015,52.808l0,.867a1.7,1.7,0,0,1-.28-.49l0-.848A1.748,1.748,0,0,0,69.015,52.808Zm2.021,1.134,0,.868c.093.024.185.047.278.067l0-.878C71.22,53.981,71.127,53.965,71.036,53.942Zm1.147.163,0,.894c.092.006.185.006.278.008l0-.887C72.368,54.118,72.276,54.111,72.183,54.105Zm-.574-.057,0,.882c.093.015.185.029.278.039l0-.879C71.793,54.081,71.7,54.062,71.609,54.048Zm-2.3-.923,0,.85a2.869,2.869,0,0,0,.278.215l0-.87C69.5,53.255,69.393,53.194,69.312,53.125Zm1.149.645,0,.858c.088.033.184.062.278.092l0-.866C70.647,53.825,70.551,53.8,70.461,53.77Zm-.574-.262,0,.858c.087.048.182.091.278.135l0-.863C70.072,53.6,69.975,53.556,69.887,53.508Zm2.869.61,0,.888c.093,0,.186-.005.278-.012l0-.893C72.942,54.107,72.849,54.115,72.756,54.118Zm2.864-.831,0,.872a2.912,2.912,0,0,0,.277-.22l0-.849A3.223,3.223,0,0,1,75.62,53.287Zm-2.29.8,0,.878c.093-.011.186-.026.278-.042l0-.882C73.514,54.053,73.424,54.073,73.33,54.084Zm2.861-1.318,0,.868a1.675,1.675,0,0,0,.275-.51l0-.84A1.734,1.734,0,0,1,76.191,52.766Zm-1.143.847,0,.862c.1-.044.191-.089.278-.138l0-.857C75.237,53.529,75.141,53.569,75.048,53.613Zm-.573.222,0,.865c.093-.031.19-.06.278-.094l0-.857C74.664,53.783,74.568,53.806,74.475,53.835Zm-.572.151,0,.878c.093-.021.186-.045.278-.07l0-.868C74.089,53.949,74,53.967,73.9,53.986Z"/><path class="cls-14" d="M75.383,50.218c1.548.885,1.554,2.33.014,3.228a6.18,6.18,0,0,1-5.592.024c-1.548-.885-1.554-2.331-.014-3.229A6.18,6.18,0,0,1,75.383,50.218Z"/><path class="cls-14" d="M75.134,50.363c1.41.806,1.416,2.123.013,2.941a5.632,5.632,0,0,1-5.093.021c-1.41-.806-1.416-2.123-.013-2.941A5.629,5.629,0,0,1,75.134,50.363Z"/><path class="cls-15" d="M70.111,50.574a5.476,5.476,0,0,1,4.955-.02c1,.57,1.269,1.4.819,2.12.585-.765.336-1.69-.751-2.311a5.629,5.629,0,0,0-5.093.021c-1.081.631-1.322,1.557-.731,2.318C68.854,51.988,69.118,51.153,70.111,50.574Z"/><path class="cls-57" d="M69.724,54.708a6.065,6.065,0,0,0-3.292.013c-1.52.437-2.284,1.251-2.3,2.066-.006.3,0,.608,0,.913.021.815.793,1.622,2.316,2.046a6.069,6.069,0,0,0,3.293-.014c1.519-.437,2.284-1.25,2.3-2.066.005-.3,0-.608,0-.912C72.019,55.939,71.247,55.131,69.724,54.708Z"/><path class="cls-58" d="M64.508,57.763l0,.867a1.679,1.679,0,0,1-.28-.49l0-.848A1.748,1.748,0,0,0,64.508,57.763Zm2.02,1.134,0,.868c.092.024.185.047.278.067l0-.878C66.713,58.936,66.62,58.92,66.528,58.9Zm1.148.163,0,.894c.092.006.185.006.278.008l0-.887C67.861,59.073,67.769,59.066,67.676,59.06ZM67.1,59l0,.882c.092.015.185.029.278.039l0-.879C67.286,59.036,67.195,59.017,67.1,59Zm-2.3-.923,0,.85a3.014,3.014,0,0,0,.279.215l0-.87A3.254,3.254,0,0,1,64.805,58.08Zm1.149.645,0,.858c.088.033.184.062.278.092l0-.866C66.14,58.78,66.043,58.758,65.954,58.725Zm-.574-.262,0,.858c.087.048.183.091.279.135l0-.863C65.564,58.551,65.468,58.511,65.38,58.463Zm2.869.61,0,.888c.093,0,.185,0,.278-.012l0-.893C68.435,59.062,68.342,59.07,68.249,59.073Zm2.864-.831,0,.872a3.044,3.044,0,0,0,.277-.22l0-.849A3.387,3.387,0,0,1,71.113,58.242Zm-2.291.8,0,.878c.093-.011.186-.026.278-.042l0-.882C69.007,59.008,68.917,59.028,68.822,59.039Zm2.862-1.318,0,.868a1.679,1.679,0,0,0,.276-.51l0-.84A1.734,1.734,0,0,1,71.684,57.721Zm-1.143.847,0,.863c.1-.045.191-.09.278-.139l0-.856C70.73,58.484,70.634,58.525,70.541,58.568Zm-.573.222,0,.865c.093-.031.19-.06.277-.094l0-.857C70.157,58.738,70.06,58.761,69.968,58.79Zm-.573.151,0,.878c.093-.021.186-.045.278-.07l0-.868C69.582,58.9,69.489,58.922,69.4,58.941Z"/><path class="cls-14" d="M70.876,55.173c1.548.885,1.554,2.33.013,3.228a6.178,6.178,0,0,1-5.591.024c-1.548-.885-1.554-2.331-.014-3.229A6.183,6.183,0,0,1,70.876,55.173Z"/><path class="cls-14" d="M70.627,55.318c1.41.806,1.415,2.123.012,2.941a5.632,5.632,0,0,1-5.093.021c-1.409-.806-1.415-2.123-.012-2.941A5.632,5.632,0,0,1,70.627,55.318Z"/><path class="cls-15" d="M65.6,55.529a5.476,5.476,0,0,1,4.955-.02c1,.57,1.269,1.4.819,2.12.585-.765.336-1.689-.751-2.311a5.629,5.629,0,0,0-5.093.021c-1.082.631-1.322,1.557-.732,2.318C64.347,56.943,64.611,56.108,65.6,55.529Z"/><g class="cls-2"><polygon class="cls-5" points="14.32 40.617 14.317 41.696 17.56 41.658 17.556 40.579 14.32 40.617"/><polygon class="cls-5" points="7.218 40.725 7.223 41.805 9.727 41.77 9.73 40.69 7.218 40.725"/><path class="cls-59" d="M21.9,54.23a29.867,29.867,0,0,1-4.569-2.118c-3.532-2.039-5.974-4.6-7.039-7.442A9.061,9.061,0,0,1,9.7,41.427l0,1.08a9.085,9.085,0,0,0,.592,3.243c1.065,2.843,3.508,5.4,7.04,7.442A29.822,29.822,0,0,0,21.9,55.31a42.54,42.54,0,0,0,19.912,2.075l0-1.08A42.54,42.54,0,0,1,21.9,54.23Z"/><path class="cls-60" d="M40.653,53.374A34.093,34.093,0,0,1,24.677,51.7a24.058,24.058,0,0,1-3.69-1.71,12.217,12.217,0,0,1-5.634-5.948,7.384,7.384,0,0,1-.426-3.427l2.629-.038-5.418-5.111-4.92,5.257L9.73,40.69a9.043,9.043,0,0,0,.561,3.98c1.065,2.843,3.507,5.4,7.039,7.442A29.867,29.867,0,0,0,21.9,54.23a42.54,42.54,0,0,0,19.912,2.075Z"/></g></g></g></g></svg>