<svg xmlns="http://www.w3.org/2000/svg" xmlns:xlink="http://www.w3.org/1999/xlink" viewBox="0 0 114.715 66.753"><defs><style>.cls-1{isolation:isolate;}.cls-2{fill:#50197c;mix-blend-mode:multiply;}.cls-2,.cls-6{opacity:0.4;}.cls-3{fill:#e0dbe1;}.cls-4{fill:#788eff;}.cls-5{fill:#f0f2ff;}.cls-6{fill:#3452a5;}.cls-7{fill:#ffc440;}.cls-8{opacity:0.6;}.cls-9{fill:#d88c1d;}.cls-10{fill:#f4ac1c;}.cls-11{fill:#b53333;}.cls-12{fill:url(#_ÂÁ_Ï_ÌÌ_È_ËÂÌÚ_939);}.cls-13{fill:url(#_ÂÁ_Ï_ÌÌ_È_ËÂÌÚ_1031);}.cls-14{fill:#f1edf2;}.cls-15{fill:url(#_ÂÁ_Ï_ÌÌ_È_ËÂÌÚ_860);}.cls-16{fill:#fff;mix-blend-mode:screen;}.cls-17{fill:#eda722;}.cls-18{fill:#d88223;}.cls-19{fill:#505b60;}.cls-20{fill:#ffc522;}.cls-21{fill:#f4b728;}</style><linearGradient id="_ÂÁ_Ï_ÌÌ_È_ËÂÌÚ_939" x1="84.883" y1="34.066" x2="92.587" y2="34.066" gradientUnits="userSpaceOnUse"><stop offset="0" stop-color="#d88223"/><stop offset="0.423" stop-color="#e79c23"/><stop offset="1" stop-color="#ffc522"/></linearGradient><linearGradient id="_ÂÁ_Ï_ÌÌ_È_ËÂÌÚ_1031" x1="88.813" y1="29.982" x2="94.73" y2="29.982" gradientUnits="userSpaceOnUse"><stop offset="0" stop-color="#f3b022"/><stop offset="1" stop-color="#ffc522"/></linearGradient><linearGradient id="_ÂÁ_Ï_ÌÌ_È_ËÂÌÚ_860" x1="95.191" y1="26.919" x2="99.858" y2="-2.081" gradientUnits="userSpaceOnUse"><stop offset="0" stop-color="#c0b9c8"/><stop offset="1" stop-color="#e0dbe1"/></linearGradient></defs><g class="cls-1"><g id="_0" data-name="0"><g id="_4" data-name="4"><path class="cls-2" d="M48.913,37.5.955,65.15c-1.378.795-1.25,1.432.288,1.424H37.794l4.987-3.623c3.175-5.444,6.282-10.85,9.3-16.381L52.23,36.3A12.423,12.423,0,0,0,48.913,37.5Z"/><path class="cls-2" d="M101.14,15.617,53.182,43.268c-1.378.8-1.249,1.433.288,1.424H90.021l4.987-3.623c3.175-5.444,6.282-10.85,9.3-16.381l.15-10.276A12.457,12.457,0,0,0,101.14,15.617Z"/><path class="cls-3" d="M88.472.152a1.9,1.9,0,0,0-1.855.229L38.725,27.972a5.171,5.171,0,0,0-2.5,3.931L36.2,64.971a1.331,1.331,0,0,0,.711,1.33c.247.108.454.221.75.348a2,2,0,0,0,1.75-.281L87.3,38.778a5.175,5.175,0,0,0,2.5-3.931l.035-33.069A1.4,1.4,0,0,0,89.284.541C89.011.358,88.716.289,88.472.152Z"/><path class="cls-4" d="M87.3,38.778,39.406,66.368c-1.377.794-2.492.32-2.49-1.057l.035-33.069a5.174,5.174,0,0,1,2.495-3.931L87.338.721c1.377-.794,2.491-.32,2.49,1.057l-.035,33.069A5.175,5.175,0,0,1,87.3,38.778Z"/><path class="cls-5" d="M78.434,14.245a1.255,1.255,0,0,1-1.091.176.825.825,0,0,1-.45-.832l0-2.185a3.206,3.206,0,0,1,1.542-2.432l6.872-3.959a1.253,1.253,0,0,1,1.09-.176.826.826,0,0,1,.451.83l0,2.187A3.211,3.211,0,0,1,85.3,10.286Z"/><path class="cls-6" d="M41.424,62.135a1.255,1.255,0,0,1-1.091.176.825.825,0,0,1-.45-.832l0-4.2a3.2,3.2,0,0,1,1.543-2.432l7.493-4.318a1.254,1.254,0,0,1,1.09-.177.827.827,0,0,1,.451.831l0,4.2a3.21,3.21,0,0,1-1.543,2.432Z"/><path class="cls-7" d="M48.722,50.737l-7.491,4.317a2.641,2.641,0,0,0-1.275,2.009l-.005,4.2c0,.7.569.946,1.272.541l7.492-4.318a2.643,2.643,0,0,0,1.275-2.008l0-4.2C50,50.574,49.426,50.332,48.722,50.737Z"/><g class="cls-8"><path class="cls-9" d="M48.953,57.322a2.552,2.552,0,0,0,.225-.2l.007-6.567a1.3,1.3,0,0,0-.225.064l0,1.635-2.364,1.362c-.127-.644-.75-.832-1.5-.4a3.3,3.3,0,0,0-1.505,2.132L41.1,56.788V55.143a2.436,2.436,0,0,0-.224.173l-.007,6.633a1.461,1.461,0,0,0,.224-.086l0-1.814,2.482-1.43c.1.684.737.9,1.509.451A3.276,3.276,0,0,0,46.6,56.879l2.359-1.36Zm-5.4-1.685,0,2.769-2.461,1.418,0-2.811,2.466-1.42C43.562,55.607,43.558,55.623,43.558,55.637Zm1.533-2.189c.629-.363,1.154-.219,1.277.3l-2.557,1.474A2.834,2.834,0,0,1,45.091,53.448Zm-.006,5.4c-.648.373-1.183.206-1.284-.356l2.57-1.481A2.809,2.809,0,0,1,45.085,58.845Zm1.308-2.074L43.78,58.277l0-2.769c0-.045,2.608-1.546,2.608-1.546C46.4,54,46.393,56.771,46.393,56.771Zm.224-.13,0-2.768c0-.04,2.338-1.39,2.338-1.39l0,2.811Z"/></g><path class="cls-10" d="M82.275,35.569a5.513,5.513,0,0,1,2.493-4.318c1.377-.8,2.494-.15,2.494,1.44a5.513,5.513,0,0,1-2.493,4.318C83.392,37.8,82.275,37.159,82.275,35.569Z"/><path class="cls-11" d="M76.54,38.88a5.511,5.511,0,0,1,2.494-4.318c1.376-.795,2.493-.15,2.493,1.44a5.513,5.513,0,0,1-2.493,4.318C77.657,41.115,76.54,40.47,76.54,38.88Z"/><path class="cls-5" d="M41.781,46.511a1.341,1.341,0,0,0,.182-.681V43.99q0-.372-.182-.474a.5.5,0,0,0-.494.079l-.459.265a1.344,1.344,0,0,0-.675,1.175v1.841q0,.364.181.47a.5.5,0,0,0,.494-.075l.459-.266A1.331,1.331,0,0,0,41.781,46.511Zm-.149-.505a.739.739,0,0,1-.386.684l-.377.217c-.254.147-.381.066-.381-.241V44.857a.734.734,0,0,1,.381-.682l.377-.217c.257-.149.386-.069.386.238Z"/><path class="cls-5" d="M44.124,45.158a1.338,1.338,0,0,0,.182-.68V42.637c0-.248-.061-.405-.182-.473a.5.5,0,0,0-.494.078l-.459.265a1.344,1.344,0,0,0-.675,1.175v1.841c0,.244.06.4.181.47s.285.045.494-.075l.459-.265A1.341,1.341,0,0,0,44.124,45.158Zm-.149-.505a.737.737,0,0,1-.386.684l-.377.218c-.254.146-.381.066-.381-.242V43.5a.732.732,0,0,1,.381-.681l.377-.218q.385-.223.386.239Z"/><path class="cls-5" d="M46.467,43.806a1.341,1.341,0,0,0,.181-.681v-1.84q0-.372-.181-.474a.5.5,0,0,0-.494.078l-.46.266a1.346,1.346,0,0,0-.675,1.175v1.84q0,.366.182.471t.493-.076l.46-.265A1.331,1.331,0,0,0,46.467,43.806Zm-.15-.506a.738.738,0,0,1-.385.685l-.377.217c-.254.147-.382.066-.382-.241V42.152a.733.733,0,0,1,.382-.682l.377-.218q.385-.222.385.239Z"/><path class="cls-5" d="M48.809,42.453a1.328,1.328,0,0,0,.182-.68V39.932c0-.248-.06-.405-.182-.474s-.285-.041-.493.079l-.46.265a1.349,1.349,0,0,0-.675,1.175v1.841c0,.244.061.4.182.47s.285.045.493-.075l.46-.265A1.331,1.331,0,0,0,48.809,42.453Zm-.149-.505a.737.737,0,0,1-.386.684l-.376.218c-.255.146-.382.066-.382-.242V40.8a.734.734,0,0,1,.382-.682l.376-.217c.258-.149.386-.069.386.239Z"/><path class="cls-5" d="M54.515,39.159a1.341,1.341,0,0,0,.182-.68V36.638c0-.248-.061-.405-.182-.474a.5.5,0,0,0-.494.079l-.459.265a1.344,1.344,0,0,0-.675,1.175v1.841c0,.244.06.4.181.47a.5.5,0,0,0,.494-.075l.459-.266A1.323,1.323,0,0,0,54.515,39.159Zm-.149-.5a.739.739,0,0,1-.386.684l-.377.217c-.254.147-.381.066-.381-.241V37.505a.735.735,0,0,1,.381-.682l.377-.217c.257-.149.386-.069.386.238Z"/><path class="cls-5" d="M56.858,37.806a1.334,1.334,0,0,0,.181-.68V35.285q0-.37-.181-.473a.5.5,0,0,0-.494.078l-.46.265a1.35,1.35,0,0,0-.675,1.176v1.84q0,.366.182.471a.5.5,0,0,0,.493-.076l.46-.265A1.326,1.326,0,0,0,56.858,37.806Zm-.149-.5a.736.736,0,0,1-.386.684l-.377.218c-.254.147-.381.066-.381-.241v-1.81a.733.733,0,0,1,.381-.681l.377-.218q.386-.222.386.239Z"/><path class="cls-5" d="M59.2,36.454a1.341,1.341,0,0,0,.181-.681v-1.84q0-.372-.181-.474a.5.5,0,0,0-.494.079l-.46.265a1.346,1.346,0,0,0-.675,1.175v1.841q0,.364.182.47a.5.5,0,0,0,.493-.075l.46-.266A1.331,1.331,0,0,0,59.2,36.454Zm-.15-.506a.738.738,0,0,1-.385.685l-.377.217c-.254.147-.382.066-.382-.241V34.8a.734.734,0,0,1,.382-.682l.377-.217c.257-.149.385-.069.385.238Z"/><path class="cls-5" d="M61.544,35.1a1.337,1.337,0,0,0,.181-.68V32.58c0-.248-.06-.405-.182-.473a.5.5,0,0,0-.493.078l-.46.265a1.349,1.349,0,0,0-.675,1.175v1.841c0,.244.061.4.182.47s.285.045.493-.075l.46-.265A1.341,1.341,0,0,0,61.544,35.1Zm-.15-.505a.737.737,0,0,1-.385.684l-.377.218c-.255.146-.382.066-.382-.242V33.447a.734.734,0,0,1,.382-.682l.377-.217q.385-.224.385.239Z"/><path class="cls-5" d="M67.249,31.807a1.338,1.338,0,0,0,.182-.68V29.286c0-.248-.06-.405-.181-.473a.5.5,0,0,0-.494.078l-.46.265a1.349,1.349,0,0,0-.675,1.175v1.841q0,.366.182.47c.121.07.285.045.494-.075l.459-.265A1.341,1.341,0,0,0,67.249,31.807Zm-.149-.5a.737.737,0,0,1-.386.684l-.377.218c-.254.146-.381.066-.381-.242V30.153a.732.732,0,0,1,.381-.681l.377-.218c.257-.148.386-.069.386.239Z"/><path class="cls-5" d="M69.592,30.455a1.341,1.341,0,0,0,.181-.681v-1.84q0-.372-.181-.474a.5.5,0,0,0-.494.078l-.46.266a1.346,1.346,0,0,0-.675,1.175v1.84q0,.366.182.471t.493-.076l.46-.265A1.331,1.331,0,0,0,69.592,30.455Zm-.149-.506a.736.736,0,0,1-.386.684l-.377.218c-.254.147-.381.066-.381-.241V28.8a.734.734,0,0,1,.381-.682l.377-.218q.385-.222.386.239Z"/><path class="cls-5" d="M71.935,29.1a1.34,1.34,0,0,0,.181-.68V26.581c0-.248-.06-.405-.181-.474a.5.5,0,0,0-.494.079l-.46.265a1.349,1.349,0,0,0-.675,1.175v1.841c0,.244.061.4.182.47a.5.5,0,0,0,.493-.075l.46-.266A1.331,1.331,0,0,0,71.935,29.1Zm-.15-.5a.738.738,0,0,1-.385.684l-.377.217c-.254.147-.382.066-.382-.241V27.448a.735.735,0,0,1,.382-.682l.377-.217c.257-.149.385-.069.385.238Z"/><path class="cls-5" d="M74.278,27.749a1.337,1.337,0,0,0,.181-.68V25.228c0-.248-.06-.405-.181-.473a.5.5,0,0,0-.494.078l-.46.265a1.349,1.349,0,0,0-.675,1.175v1.841q0,.366.182.471a.5.5,0,0,0,.493-.076l.46-.265A1.341,1.341,0,0,0,74.278,27.749Zm-.15-.5a.737.737,0,0,1-.385.684l-.377.218c-.254.146-.382.066-.382-.242V26.1a.733.733,0,0,1,.382-.681l.377-.218c.257-.148.385-.069.385.239Z"/><path class="cls-5" d="M79.983,24.455a1.338,1.338,0,0,0,.182-.68V21.934c0-.248-.061-.405-.182-.473a.5.5,0,0,0-.494.078l-.459.265a1.348,1.348,0,0,0-.676,1.175V24.82q0,.366.182.471a.5.5,0,0,0,.494-.076l.459-.265A1.333,1.333,0,0,0,79.983,24.455Zm-.149-.5a.737.737,0,0,1-.386.684l-.377.218q-.381.22-.381-.242V22.8a.732.732,0,0,1,.381-.681l.377-.218c.257-.148.386-.069.386.239Z"/><path class="cls-5" d="M82.326,23.1a1.341,1.341,0,0,0,.181-.681v-1.84q0-.372-.181-.474a.5.5,0,0,0-.494.078l-.46.266a1.346,1.346,0,0,0-.675,1.175v1.84q0,.366.182.471t.493-.076l.46-.265A1.331,1.331,0,0,0,82.326,23.1Zm-.149-.506a.739.739,0,0,1-.386.685l-.377.217c-.254.147-.381.066-.381-.241V21.449a.734.734,0,0,1,.381-.682l.377-.218q.386-.222.386.239Z"/><path class="cls-5" d="M84.669,21.75a1.337,1.337,0,0,0,.181-.68V19.229c0-.248-.06-.4-.181-.474a.5.5,0,0,0-.494.079l-.46.265a1.349,1.349,0,0,0-.675,1.175v1.841c0,.244.061.4.182.47a.5.5,0,0,0,.493-.075l.46-.266A1.331,1.331,0,0,0,84.669,21.75Zm-.149-.5a.739.739,0,0,1-.386.684l-.377.217q-.381.22-.381-.241V20.1a.735.735,0,0,1,.381-.682l.377-.217q.386-.224.386.239Z"/><path class="cls-5" d="M87.193,19.717v-1.84q0-.372-.182-.474a.5.5,0,0,0-.494.078l-.459.266a1.341,1.341,0,0,0-.675,1.175v1.84q0,.366.181.471a.5.5,0,0,0,.494-.076l.459-.265a1.323,1.323,0,0,0,.494-.494A1.341,1.341,0,0,0,87.193,19.717Zm-.331.175a.736.736,0,0,1-.386.684l-.377.218c-.254.147-.381.066-.381-.241V18.744a.734.734,0,0,1,.381-.682l.377-.218q.386-.222.386.239Z"/><path class="cls-5" d="M40.092,34.379V31.737a.122.122,0,0,1,.064-.111l.925-.533a.445.445,0,0,1,.43-.073c.1.057.156.193.156.407v1.445a1.14,1.14,0,0,1-.156.584,1.157,1.157,0,0,1-.43.426l-.925.534C40.114,34.44,40.092,34.428,40.092,34.379Zm.406-.529.53-.306a.514.514,0,0,0,.27-.477v-1.41q0-.321-.27-.165l-.53.306a.075.075,0,0,0-.041.067v1.961C40.457,33.857,40.471,33.866,40.5,33.85Z"/><path class="cls-5" d="M43.444,32.518l-1.2.694c-.043.024-.064.012-.064-.037V30.533a.12.12,0,0,1,.064-.111l1.2-.694q.06-.035.06.039v.221a.116.116,0,0,1-.06.109l-.857.495a.077.077,0,0,0-.045.069v.733q0,.044.045.018l.725-.419c.045-.026.068-.014.068.034v.222a.124.124,0,0,1-.068.113l-.725.418a.08.08,0,0,0-.045.07v.772c0,.032.015.039.045.022l.857-.495q.06-.035.06.039v.221A.117.117,0,0,1,43.444,32.518Z"/><path class="cls-5" d="M43.981,32.134V29.492a.12.12,0,0,1,.064-.111l.89-.514q.277-.16.432-.076c.1.057.154.191.154.4v.212a.879.879,0,0,1-.308.664.236.236,0,0,1,.243.007.34.34,0,0,1,.095.284v.277a1.118,1.118,0,0,1-.154.579,1.146,1.146,0,0,1-.428.421l-.924.534C44,32.2,43.981,32.183,43.981,32.134Zm.406-1.761.488-.282a.527.527,0,0,0,.286-.482v-.2q0-.314-.278-.153l-.5.287a.074.074,0,0,0-.042.067v.742C44.345,30.382,44.359,30.389,44.387,30.373Zm0,1.24.526-.3a.518.518,0,0,0,.281-.475v-.269q0-.312-.3-.141l-.511.295a.074.074,0,0,0-.042.067v.807C44.345,31.623,44.359,31.629,44.387,31.613Z"/><path class="cls-5" d="M46.438,28.073v2.642a.12.12,0,0,1-.064.111l-.237.137c-.042.024-.064.012-.064-.037V28.284a.121.121,0,0,1,.064-.111l.237-.137C46.417,28.012,46.438,28.024,46.438,28.073Z"/><path class="cls-5" d="M47.667,30.08l-.237.136c-.045.026-.068.015-.068-.034v-2.3c0-.029-.012-.036-.037-.021l-.474.273c-.045.026-.067.014-.067-.035v-.221a.122.122,0,0,1,.067-.113l1.394-.8c.045-.026.068-.014.068.035v.221a.124.124,0,0,1-.068.113l-.473.273a.073.073,0,0,0-.041.067v2.3A.122.122,0,0,1,47.667,30.08Z"/><path class="cls-5" d="M50.511,28.438l-.436.251c-.186.108-.329.131-.43.071s-.153-.2-.153-.407V26.909a1.14,1.14,0,0,1,.583-1.009l.436-.252q.273-.158.428-.071c.1.057.154.194.154.408v.208a.127.127,0,0,1-.068.117l-.236.136c-.043.025-.064.011-.064-.04v-.192c0-.214-.09-.268-.271-.164l-.327.189a.513.513,0,0,0-.27.476v1.41c0,.214.09.27.27.165l.327-.188a.515.515,0,0,0,.271-.478v-.19a.124.124,0,0,1,.064-.116l.236-.136c.045-.026.068-.013.068.039v.208a1.15,1.15,0,0,1-.582,1.009Z"/><path class="cls-5" d="M51.69,27.757l-.27.156c-.035.02-.048,0-.038-.052l.654-3.019a.18.18,0,0,1,.09-.126L52.5,24.5c.05-.029.08-.022.09.022l.654,2.264a.082.082,0,0,1-.042.1l-.266.154c-.023.013-.039.017-.047.012A.073.073,0,0,1,52.87,27l-.143-.482L51.9,27l-.142.646A.153.153,0,0,1,51.69,27.757Zm.616-2.729-.33,1.579.68-.393-.335-1.2Z"/><path class="cls-5" d="M53.918,26.47l-.236.137c-.043.025-.064.012-.064-.037V23.928a.119.119,0,0,1,.063-.11l.88-.508c.182-.105.326-.128.43-.068s.156.2.156.407v.364a1.1,1.1,0,0,1-.357.835c0,.017.417.792.417.792.027.042.011.08-.049.115l-.233.134c-.06.035-.1.033-.116-.006l-.4-.766-.38.219a.079.079,0,0,0-.045.07v.954A.118.118,0,0,1,53.918,26.47Zm.105-1.479.478-.275a.519.519,0,0,0,.278-.477v-.365q0-.321-.278-.16l-.478.275a.075.075,0,0,0-.041.067v.916C53.982,25,54,25.007,54.023,24.991Z"/><path class="cls-5" d="M55.654,25.4V22.753a.119.119,0,0,1,.064-.111l.924-.534c.183-.105.326-.13.43-.072s.156.193.156.407v1.444a1.144,1.144,0,0,1-.156.585,1.164,1.164,0,0,1-.43.426l-.924.533C55.675,25.456,55.654,25.444,55.654,25.4Zm.406-.529.529-.306a.516.516,0,0,0,.271-.478v-1.41c0-.214-.09-.268-.271-.164l-.529.306a.074.074,0,0,0-.042.067v1.96C56.018,24.873,56.032,24.881,56.06,24.866Z"/><path class="cls-2" d="M87.3,38.778a5.175,5.175,0,0,0,2.5-3.931l.014-13.215-7.6,4.389V19.269c0-3.156,2.567-7.206,5.723-9.028a6.8,6.8,0,0,1,1.891-.764l0-2.871a10.97,10.97,0,0,0-1.894.873c-4.679,2.7-8.486,8.706-8.486,13.385v6.752l-1.171.676a2.549,2.549,0,0,0-1.228,1.937V44.685Z"/><g class="cls-1"><path class="cls-12" d="M87.063,25.671l-.919-.53a2.149,2.149,0,0,1-1.268-1.772l-.047,18.362A2.149,2.149,0,0,0,86.1,43.5l.919.53a6.7,6.7,0,0,0,6.076,0l.047-18.362A6.7,6.7,0,0,1,87.063,25.671Z"/><path class="cls-13" d="M108.142,16.952l-15,8.719a6.13,6.13,0,0,1-2.958.725V44.755a6.1,6.1,0,0,0,2.911-.722l15-8.719a2.128,2.128,0,0,0,1.246-1.744l.046-18.362A2.125,2.125,0,0,1,108.142,16.952Z"/><path class="cls-14" d="M108.118,13.435l-.918-.53a6.7,6.7,0,0,0-6.072,0l-15,8.719c-1.672.973-1.664,2.548.02,3.52l.919.53a6.7,6.7,0,0,0,6.076,0l15-8.719C109.811,15.983,109.8,14.407,108.118,13.435Z"/></g><path class="cls-15" d="M88.458,22.75V14.6c0-4.474,3.443-9.968,7.839-12.5,2.59-1.5,5.164-1.727,7.061-.63a5.6,5.6,0,0,1,2.6,5.136v8.247c0,1.544-3.645,1.6-3.645,0V6.6c0-.572-.1-1.59-.777-1.98-.717-.415-2.026-.173-3.417.63C94.858,7.135,92.1,11.416,92.1,14.6V22.75C92.1,24.367,88.458,24.53,88.458,22.75Z"/><path class="cls-16" d="M98.4,2.309c.184.294.879-.025,1.119-.072,1.273-.247,2.6-.443,3.814.775.617.618,1.115.138.841-.26C102.364.116,97.781,1.319,98.4,2.309Z"/><path class="cls-17" d="M100.406,34.764c-2.435,1.406-4.416.568-4.416-1.866s1.981-5.56,4.416-6.966,4.416-.568,4.416,1.867S102.841,33.358,100.406,34.764Zm0-8.709c-2.367,1.367-4.294,4.405-4.294,6.773s1.927,3.18,4.294,1.813,4.294-4.4,4.294-6.772S102.773,24.688,100.406,26.055Z"/><path class="cls-18" d="M100.188,27.67l.793-.458c.1-.058.184-.023.184.079l0,.654a.513.513,0,0,1-.135.311l-.063.072a.335.335,0,0,0-.092.228l.034.357a.1.1,0,0,0,.028.066l.191.186a.111.111,0,0,1,.029.081l.007.929a.3.3,0,0,1-.049.155l-.267.44a.3.3,0,0,0-.049.153v1.9a.378.378,0,0,1-.184.289l-.437.253c-.1.058-.183.023-.183-.078V31.415a.305.305,0,0,1,.036-.131l.293-.561a.294.294,0,0,0,.037-.131l0-.894a.112.112,0,0,0-.031-.084l-.188-.171a.1.1,0,0,1-.031-.072l-.1-1.4A.375.375,0,0,1,100.188,27.67Z"/><g id="_1" data-name="1"><g class="cls-1"><g class="cls-1"><g class="cls-1"><path class="cls-19" d="M110.236,35.9l-.569-.33c-.022-.031.548.3.548.3Z"/></g></g><path class="cls-18" d="M110.125,36.072a.255.255,0,0,1-.092-.1L109.1,34.35l-.57-.33.934,1.626a.27.27,0,0,0,.041.056.226.226,0,0,0,.05.039l.081.047.142.083Z"/><path class="cls-20" d="M112.816,18.854a7.786,7.786,0,0,1-2.243,2.047,3.641,3.641,0,0,1-2,.558V22.8a.182.182,0,0,0,.063.153l.619.419a.33.33,0,0,1,.119.3c-.014.574-.051,2.124-.031,2.415a6.605,6.605,0,0,0,.283.818.779.779,0,0,1,0,.447c-.087.337-.238.922-.333,1.276a.359.359,0,0,0,.007.245c.05.1.121.24.17.324.081.141-.224,1.256-.187,1.436s.29.887.4,1.2a.6.6,0,0,1-.019.383c-.143.422-.447,1.316-.567,1.665a.869.869,0,0,0-.048.264.418.418,0,0,0,.05.21l.933,1.627c.089.154.264.161.44.059a.878.878,0,0,0,.231-.2l0-7.591,0-4.942.812-1.525.007,12.472.436-.892a1.431,1.431,0,0,0,.156-.614l0-10.571a2.539,2.539,0,0,1,.365-1.228l.128-.219a1.532,1.532,0,0,0,.22-.74Z"/><path class="cls-21" d="M111.51,21.775l.007,12.472-.661,1.354a1.194,1.194,0,0,1-.152.234l0-7.593,0-4.942Z"/><path class="cls-21" d="M110.366,23.306l.035,12.578c-.022-.031-.956-1.657-.956-1.657a.422.422,0,0,1-.049-.211.834.834,0,0,1,.048-.263c.12-.35.423-1.243.567-1.666a.6.6,0,0,0,.019-.383c-.114-.316-.365-1.017-.4-1.2s.268-1.3.187-1.435c-.049-.085-.12-.225-.17-.325a.358.358,0,0,1-.007-.245c.095-.354.246-.939.333-1.275a.782.782,0,0,0,0-.448,6.753,6.753,0,0,1-.284-.818c-.011-.175,0-.8.009-1.4Z"/><path class="cls-18" d="M109.665,32.211a.6.6,0,0,0,.019-.383c-.114-.316-.365-1.018-.4-1.2s.268-1.3.187-1.436c-.049-.084-.12-.225-.17-.324a.359.359,0,0,1-.007-.245c.095-.354.246-.939.333-1.276a.779.779,0,0,0,0-.447,6.549,6.549,0,0,1-.283-.818c-.02-.291.017-1.841.031-2.415a.33.33,0,0,0-.119-.3l-.619-.419-.569-.331.619.419a.333.333,0,0,1,.119.3c-.014.573-.051,2.123-.032,2.414a6.753,6.753,0,0,0,.284.818.787.787,0,0,1,0,.447c-.087.337-.238.922-.333,1.276a.359.359,0,0,0,.006.245c.05.1.122.24.171.324.081.141-.224,1.256-.187,1.436s.29.887.4,1.2a.59.59,0,0,1-.02.383c-.142.422-.446,1.316-.566,1.665a.869.869,0,0,0-.048.264.425.425,0,0,0,.049.211l.57.33a.418.418,0,0,1-.05-.21.869.869,0,0,1,.048-.264C109.218,33.527,109.522,32.633,109.665,32.211Z"/><path class="cls-18" d="M108.572,22.8V21.459l-.57-.331v1.337a.185.185,0,0,0,.064.153l.569.331A.182.182,0,0,1,108.572,22.8Z"/><path class="cls-18" d="M111.628,13.352a.744.744,0,0,0-.308-.683l-.57-.331a.743.743,0,0,1,.309.683,2.3,2.3,0,0,1-.541,1.374,1.919,1.919,0,0,1-.517.452,1.088,1.088,0,0,1-.319.127.6.6,0,0,1-.432-.055l.569.331a.6.6,0,0,0,.432.055,1.088,1.088,0,0,0,.319-.127,1.919,1.919,0,0,0,.517-.452A2.3,2.3,0,0,0,111.628,13.352Z"/><path class="cls-18" d="M112.938,10.752c-1.48-.86-3.56.338-4.964,2.05-2.38,2.9-2.853,6.921-.908,8.051l.569.331c-3.029-2.782,2.378-10.976,5.872-10.1Z"/><path class="cls-20" d="M110.556,11.37a9.107,9.107,0,0,0-4.13,7.143c0,1.8.867,2.867,2.145,2.946a3.657,3.657,0,0,0,2.014-.565,7.773,7.773,0,0,0,2.231-2.04,8.912,8.912,0,0,0,1.9-5.1C114.714,11.118,112.857,10.048,110.556,11.37Zm.013,1.371c.585-.336,1.06-.063,1.059.611a2.324,2.324,0,0,1-1.058,1.826c-.585.336-1.06.063-1.06-.611A2.328,2.328,0,0,1,110.569,12.741Z"/></g></g><path class="cls-18" d="M110.366,23.306l.035,12.578c-.022-.031-.215-.366-.215-.366L110.154,23.7Z"/><polygon class="cls-18" points="111.323 34.643 111.517 34.247 111.51 21.775 111.316 22.139 111.323 34.643"/></g></g></g></svg>