<svg xmlns="http://www.w3.org/2000/svg" xmlns:xlink="http://www.w3.org/1999/xlink" viewBox="0 0 104.383 85.412"><defs><style>.cls-1{fill:#282525;}.cls-2{fill:none;}.cls-3{isolation:isolate;}.cls-4{fill:#50197c;}.cls-13,.cls-16,.cls-4{opacity:0.4;}.cls-11,.cls-12,.cls-36,.cls-37,.cls-4{mix-blend-mode:multiply;}.cls-13,.cls-5{fill:#c0b9c8;}.cls-11,.cls-12,.cls-6{fill:#e0dbe1;}.cls-7{fill:url(#_ÂÁ_Ï_ÌÌ_È_ËÂÌÚ_95);}.cls-8{fill:url(#_ÂÁ_Ï_ÌÌ_È_ËÂÌÚ_860);}.cls-9{fill:url(#_ÂÁ_Ï_ÌÌ_È_ËÂÌÚ_813);}.cls-10{fill:#3d3838;}.cls-11,.cls-24{opacity:0.2;}.cls-14{clip-path:url(#clip-path);}.cls-15{fill:#ad852c;}.cls-16,.cls-17{fill:#cfe9ff;}.cls-17,.cls-36,.cls-48{opacity:0.7;}.cls-18{fill:#788eff;}.cls-19,.cls-46{fill:#ffffd6;}.cls-19,.cls-45,.cls-50{mix-blend-mode:screen;}.cls-20{fill:#5672cc;}.cls-21{clip-path:url(#clip-path-2);}.cls-22{fill:#fef0ff;}.cls-23{fill:#d4cbdc;}.cls-24,.cls-27{fill:#7f7799;}.cls-25{fill:#d3aec3;}.cls-25,.cls-40{opacity:0.6;}.cls-26{fill:#d4a8c6;}.cls-28{fill:#3263a8;}.cls-29{fill:#6b6597;}.cls-30{fill:#f2d972;}.cls-31{fill:#c99223;}.cls-32{fill:#687a51;}.cls-33{fill:#a5aa9f;}.cls-34{fill:#fff9e1;}.cls-35{fill:#83acff;}.cls-36{fill:#cccbb0;}.cls-37{fill:#aaa98a;opacity:0.5;}.cls-38{fill:#d84141;}.cls-39{fill:#ffc440;}.cls-41{fill:#d88c1d;}.cls-42{fill:#992e2e;}.cls-43{fill:#ffc522;}.cls-44{fill:#ffe845;}.cls-47{fill:#92beff;}.cls-49{fill:#455cba;}.cls-50{fill:#fff;}</style><linearGradient id="_ÂÁ_Ï_ÌÌ_È_ËÂÌÚ_95" x1="27.085" y1="72.978" x2="64.252" y2="5.811" gradientUnits="userSpaceOnUse"><stop offset="0" stop-color="#5917ff"/><stop offset="0.159" stop-color="#6d22f8"/><stop offset="0.485" stop-color="#a13de7"/><stop offset="0.946" stop-color="#f569ca"/><stop offset="1" stop-color="#ff6ec7"/></linearGradient><linearGradient id="_ÂÁ_Ï_ÌÌ_È_ËÂÌÚ_860" x1="61.412" y1="72.342" x2="64.289" y2="72.342" gradientUnits="userSpaceOnUse"><stop offset="0" stop-color="#c0b9c8"/><stop offset="1" stop-color="#e0dbe1"/></linearGradient><linearGradient id="_ÂÁ_Ï_ÌÌ_È_ËÂÌÚ_813" x1="32.851" y1="63.184" x2="97.219" y2="63.184" gradientUnits="userSpaceOnUse"><stop offset="0" stop-color="#f8f6fa"/><stop offset="1" stop-color="#fbf8fc"/></linearGradient><clipPath id="clip-path"><path class="cls-1" d="M53.462,79.8l1.631.94c.19.109.344.044.344-.146a.716.716,0,0,0-.345-.543l-1.631-.939c-.19-.11-.343-.045-.343.145A.711.711,0,0,0,53.462,79.8Z"/></clipPath><clipPath id="clip-path-2"><polygon class="cls-2" points="67.232 12.353 67.232 43.933 81.617 35.628 81.617 4.048 67.232 12.353"/></clipPath></defs><g class="cls-3"><g id="_0" data-name="0"><g id="_12" data-name="12"><path class="cls-4" d="M104.125,60.586,70.517,42.241,43.859,57.632,40.718,45.1,0,68.069l1.183.683H31.315L59.88,85.244a7.174,7.174,0,0,0,3.087,0l41.158-23.763A.517.517,0,0,0,104.125,60.586Z"/><g class="cls-3"><path class="cls-5" d="M64.6,5.045a.749.749,0,0,0-.53.1L23.488,28.572l.3.061L64.367,5.205a.755.755,0,0,1,.531-.1Z"/><path class="cls-5" d="M32.081,66.53,23.172,30.292l-.3-.061L31.78,66.469a.9.9,0,0,0,.647.722l.3.061A.9.9,0,0,1,32.081,66.53Z"/><path class="cls-6" d="M23.789,28.633l-.3-.061a1.567,1.567,0,0,0-.616,1.659l.3.061A1.565,1.565,0,0,1,23.789,28.633Z"/><path class="cls-1" d="M74.453,42.066,65.545,5.828c-.155-.631-.682-.909-1.178-.623L23.789,28.633a1.565,1.565,0,0,0-.617,1.659L32.081,66.53c.155.63.681.909,1.177.623L73.837,43.725A1.565,1.565,0,0,0,74.453,42.066Z"/><polygon class="cls-7" points="72.705 39.292 64.588 6.274 24.072 29.665 32.199 62.678 72.705 39.292"/></g><g class="cls-3"><path class="cls-8" d="M32.851,66.67l0,1.126a.634.634,0,0,0,.373.521l28.494,16.45a1.972,1.972,0,0,0,1.792,0L103.82,61.341a.629.629,0,0,0,.367-.514l0-1.126Z"/><path class="cls-9" d="M103.815,59.177,75.321,42.727a1.964,1.964,0,0,0-1.788,0L33.22,66.154a.548.548,0,0,0,0,1.037L61.718,83.642a1.981,1.981,0,0,0,1.793,0l40.312-23.427A.549.549,0,0,0,103.815,59.177Z"/></g><path class="cls-5" d="M70.877,47.729a.138.138,0,0,1,0-.064.138.138,0,0,1,0-.064A.208.208,0,0,1,71,47.377l1.887-1.09a.733.733,0,0,1,.664,0l1.587.916a.209.209,0,0,1,.126.224.143.143,0,0,1,0,.065.138.138,0,0,1,0,.064.208.208,0,0,1-.126.224l-1.887,1.089a.733.733,0,0,1-.664,0L71,47.953A.208.208,0,0,1,70.877,47.729Zm3.172-1.535,1.587.917a.739.739,0,0,0,.664,0l1.887-1.09a.208.208,0,0,0,.126-.224.138.138,0,0,0,0-.064.143.143,0,0,0,0-.065.208.208,0,0,0-.126-.223L76.6,44.529a.733.733,0,0,0-.664,0l-1.887,1.089a.208.208,0,0,0-.126.224.138.138,0,0,0,0,.064.143.143,0,0,0,0,.065A.208.208,0,0,0,74.049,46.194Zm-6.092,3.518,1.587.916a.733.733,0,0,0,.664,0L72.1,49.539a.209.209,0,0,0,.126-.224.143.143,0,0,0,0-.065.138.138,0,0,0,0-.064.208.208,0,0,0-.126-.224l-1.587-.916a.733.733,0,0,0-.664,0l-1.887,1.089a.209.209,0,0,0-.126.224.143.143,0,0,0,0,.065.138.138,0,0,0,0,.064A.208.208,0,0,0,67.957,49.712ZM45.038,69.318l1.586.916a.733.733,0,0,0,.664,0l1.887-1.089a.211.211,0,0,0,.127-.224.178.178,0,0,0,0-.065.172.172,0,0,0,0-.064.211.211,0,0,0-.127-.224l-1.587-.916a.731.731,0,0,0-.663,0l-1.887,1.09a.209.209,0,0,0-.127.223.178.178,0,0,0,0,.065.172.172,0,0,0,0,.064A.209.209,0,0,0,45.038,69.318Zm6.649-10.231L53.274,60a.733.733,0,0,0,.664,0l1.886-1.089a.208.208,0,0,0,.127-.224.138.138,0,0,0,0-.064.143.143,0,0,0,0-.065.209.209,0,0,0-.127-.224l-1.586-.916a.739.739,0,0,0-.664,0l-1.887,1.09a.208.208,0,0,0-.126.224.138.138,0,0,0,0,.064.138.138,0,0,0,0,.064A.208.208,0,0,0,51.687,59.087Zm6.092-3.517,1.587.916a.733.733,0,0,0,.664,0l1.887-1.09a.207.207,0,0,0,.126-.223.143.143,0,0,0,0-.065.138.138,0,0,0,0-.064.208.208,0,0,0-.126-.224L60.33,53.9a.733.733,0,0,0-.664,0l-1.887,1.089a.209.209,0,0,0-.126.224.138.138,0,0,0,0,.064.143.143,0,0,0,0,.065A.209.209,0,0,0,57.779,55.57Zm6.093-3.518,1.586.916a.733.733,0,0,0,.664,0l2.869-1.656a.209.209,0,0,0,.127-.224.172.172,0,0,0,0-.064.178.178,0,0,0,0-.065.21.21,0,0,0-.127-.224l-1.586-.916a.733.733,0,0,0-.664,0l-2.869,1.657a.209.209,0,0,0-.127.224.172.172,0,0,0,0,.064.172.172,0,0,0,0,.064A.209.209,0,0,0,63.872,52.052Zm-3.046,1.759,1.586.916a.733.733,0,0,0,.664,0l1.887-1.089a.211.211,0,0,0,.127-.224.172.172,0,0,0,0-.064.178.178,0,0,0,0-.065.211.211,0,0,0-.127-.224l-1.587-.916a.733.733,0,0,0-.664,0l-1.886,1.09a.208.208,0,0,0-.127.223.143.143,0,0,0,0,.065.138.138,0,0,0,0,.064A.209.209,0,0,0,60.826,53.811Zm-6.093,3.517,1.587.917a.733.733,0,0,0,.664,0l1.887-1.09A.208.208,0,0,0,59,56.931a.138.138,0,0,0,0-.064.143.143,0,0,0,0-.065.208.208,0,0,0-.126-.223l-1.587-.916a.733.733,0,0,0-.664,0l-1.887,1.089a.208.208,0,0,0-.126.224.138.138,0,0,0,0,.064.143.143,0,0,0,0,.065A.208.208,0,0,0,54.733,57.328Zm12.958-4.252,1.587.916a.731.731,0,0,0,.663,0L71.828,52.9a.209.209,0,0,0,.127-.224.178.178,0,0,0,0-.065.172.172,0,0,0,0-.064.209.209,0,0,0-.127-.224l-1.586-.916a.733.733,0,0,0-.664,0L67.691,52.5a.21.21,0,0,0-.127.224.178.178,0,0,0,0,.065.172.172,0,0,0,0,.064A.209.209,0,0,0,67.691,53.076ZM43.322,67.146l1.586.916a.733.733,0,0,0,.664,0l1.887-1.089a.209.209,0,0,0,.126-.224.143.143,0,0,0,0-.065.138.138,0,0,0,0-.064.208.208,0,0,0-.126-.224l-1.587-.916a.733.733,0,0,0-.664,0l-1.886,1.089a.209.209,0,0,0-.127.224.143.143,0,0,0,0,.065.138.138,0,0,0,0,.064A.208.208,0,0,0,43.322,67.146ZM64.645,54.835l1.586.916a.733.733,0,0,0,.664,0l1.887-1.089a.212.212,0,0,0,.127-.224.178.178,0,0,0,0-.065.172.172,0,0,0,0-.064.211.211,0,0,0-.127-.224l-1.587-.916a.733.733,0,0,0-.664,0l-1.886,1.089a.209.209,0,0,0-.127.224.143.143,0,0,0,0,.065.138.138,0,0,0,0,.064A.21.21,0,0,0,64.645,54.835ZM61.6,56.593l1.586.917a.739.739,0,0,0,.664,0l1.887-1.09a.211.211,0,0,0,.127-.224.172.172,0,0,0,0-.064.178.178,0,0,0,0-.065.21.21,0,0,0-.127-.223l-1.587-.916a.733.733,0,0,0-.664,0L61.6,56.017a.208.208,0,0,0-.127.224.138.138,0,0,0,0,.064.143.143,0,0,0,0,.065A.207.207,0,0,0,61.6,56.593Zm-3.047,1.759,1.587.916a.733.733,0,0,0,.664,0l1.887-1.089a.208.208,0,0,0,.126-.224.138.138,0,0,0,0-.064.143.143,0,0,0,0-.065.209.209,0,0,0-.126-.224L61.1,56.686a.739.739,0,0,0-.664,0l-1.887,1.09a.208.208,0,0,0-.126.223.143.143,0,0,0,0,.065.138.138,0,0,0,0,.064A.208.208,0,0,0,58.552,58.352ZM46.368,65.387l1.586.916a.733.733,0,0,0,.664,0l1.887-1.089a.211.211,0,0,0,.127-.224.172.172,0,0,0,0-.064.178.178,0,0,0,0-.065.211.211,0,0,0-.127-.224l-1.587-.916a.731.731,0,0,0-.663,0l-1.887,1.09a.209.209,0,0,0-.127.223.178.178,0,0,0,0,.065.172.172,0,0,0,0,.064A.209.209,0,0,0,46.368,65.387Zm3.046-1.759L51,64.545a.737.737,0,0,0,.663,0l1.887-1.09a.209.209,0,0,0,.127-.224.172.172,0,0,0,0-.064.178.178,0,0,0,0-.065.209.209,0,0,0-.127-.223c-2.334-1.348-1.546-1.323-4.137.173a.209.209,0,0,0-.127.224.172.172,0,0,0,0,.064.178.178,0,0,0,0,.065A.209.209,0,0,0,49.414,63.628ZM52.46,61.87l1.587.916a.731.731,0,0,0,.663,0L56.6,61.7a.209.209,0,0,0,.127-.224.178.178,0,0,0,0-.065.172.172,0,0,0,0-.064.208.208,0,0,0-.127-.224L55.011,60.2a.733.733,0,0,0-.664,0L52.46,61.293a.211.211,0,0,0-.127.224.172.172,0,0,0,0,.064.178.178,0,0,0,0,.065A.211.211,0,0,0,52.46,61.87Zm3.046-1.759c1.558.9,1.828,1.16,2.251.916l1.887-1.089a.208.208,0,0,0,.126-.224.143.143,0,0,0,0-.065.138.138,0,0,0,0-.064.208.208,0,0,0-.126-.224l-1.587-.916a.733.733,0,0,0-.664,0l-1.887,1.089a.209.209,0,0,0-.126.224.143.143,0,0,0,0,.065.138.138,0,0,0,0,.064A.208.208,0,0,0,55.506,60.111ZM50.075,71.7a.172.172,0,0,0,0-.064.172.172,0,0,0,0-.064.211.211,0,0,0-.127-.224l-1.587-.916a.731.731,0,0,0-.663,0l-2.869,1.656a.208.208,0,0,0-.127.224.172.172,0,0,0,0,.064.178.178,0,0,0,0,.065.209.209,0,0,0,.127.224l1.586.916a.733.733,0,0,0,.664,0l2.869-1.657A.211.211,0,0,0,50.075,71.7ZM46.256,70.68a.178.178,0,0,0,0-.065.172.172,0,0,0,0-.064.211.211,0,0,0-.127-.224l-1.587-.916a.733.733,0,0,0-.664,0L41.992,70.5a.209.209,0,0,0-.127.224.143.143,0,0,0,0,.065.138.138,0,0,0,0,.064.209.209,0,0,0,.127.224l1.586.916a.733.733,0,0,0,.664,0L46.129,70.9A.211.211,0,0,0,46.256,70.68Zm2.385-9.834c2.286,1.32,1.5,1.352,4.137-.173a.21.21,0,0,0,.127-.224.178.178,0,0,0,0-.065.172.172,0,0,0,0-.064.209.209,0,0,0-.127-.224l-1.587-.916a.731.731,0,0,0-.663,0l-1.887,1.089a.21.21,0,0,0-.127.224.178.178,0,0,0,0,.065.172.172,0,0,0,0,.064A.209.209,0,0,0,48.641,60.846Zm31.918-6.717a.138.138,0,0,0,0-.064.143.143,0,0,0,0-.065.209.209,0,0,0-.126-.224l-1.587-.916a.733.733,0,0,0-.664,0L76.3,53.95a.207.207,0,0,0-.127.223.143.143,0,0,0,0,.065.138.138,0,0,0,0,.064.208.208,0,0,0,.127.224l1.586.916a.733.733,0,0,0,.664,0l1.887-1.089A.208.208,0,0,0,80.559,54.129ZM44.539,68.508a.143.143,0,0,0,0-.065.138.138,0,0,0,0-.064.208.208,0,0,0-.126-.224l-1.587-.916a.733.733,0,0,0-.664,0L39.293,68.9a.208.208,0,0,0-.126.224.138.138,0,0,0,0,.064.143.143,0,0,0,0,.065.209.209,0,0,0,.126.224l1.587.916a.733.733,0,0,0,.664,0l2.869-1.657A.208.208,0,0,0,44.539,68.508Zm1.056-5.9,1.587.916a.731.731,0,0,0,.663,0l1.887-1.09a.209.209,0,0,0,.127-.223.178.178,0,0,0,0-.065.172.172,0,0,0,0-.064.209.209,0,0,0-.127-.224l-1.587-.916a.733.733,0,0,0-.664,0L45.6,62.028a.209.209,0,0,0-.127.224.138.138,0,0,0,0,.064.143.143,0,0,0,0,.065A.21.21,0,0,0,45.6,62.605Zm-3.046,1.758,1.586.917a.739.739,0,0,0,.664,0l1.887-1.09a.208.208,0,0,0,.126-.224.138.138,0,0,0,0-.064.143.143,0,0,0,0-.065.208.208,0,0,0-.126-.223L45.1,62.7a.733.733,0,0,0-.664,0l-1.886,1.089a.208.208,0,0,0-.127.224.138.138,0,0,0,0,.064.143.143,0,0,0,0,.065A.207.207,0,0,0,42.549,64.363ZM40.72,67.484a.143.143,0,0,0,0-.065.138.138,0,0,0,0-.064.208.208,0,0,0-.126-.224l-1.587-.916a.733.733,0,0,0-.664,0L36.456,67.3a.209.209,0,0,0-.126.224.143.143,0,0,0,0,.065.138.138,0,0,0,0,.064.208.208,0,0,0,.126.224l1.587.916a.733.733,0,0,0,.664,0l1.887-1.089A.209.209,0,0,0,40.72,67.484ZM39.5,66.122l1.587.916a.733.733,0,0,0,.664,0l1.887-1.089a.208.208,0,0,0,.126-.224.138.138,0,0,0,0-.064.143.143,0,0,0,0-.065.209.209,0,0,0-.126-.224l-1.587-.916a.733.733,0,0,0-.664,0L39.5,65.546a.208.208,0,0,0-.126.223.143.143,0,0,0,0,.065.138.138,0,0,0,0,.064A.208.208,0,0,0,39.5,66.122ZM89.436,52.091a.208.208,0,0,0-.126-.224l-1.587-.916a.733.733,0,0,0-.664,0L85.173,52.04a.208.208,0,0,0-.127.224.138.138,0,0,0,0,.064.143.143,0,0,0,0,.065.209.209,0,0,0,.127.224l1.586.916a.739.739,0,0,0,.664,0l1.887-1.09a.208.208,0,0,0,.126-.224.138.138,0,0,0,0-.064A.138.138,0,0,0,89.436,52.091ZM77.364,55.522l-1.587-.916a.733.733,0,0,0-.664,0L73.226,55.7a.209.209,0,0,0-.126.224.143.143,0,0,0,0,.065.138.138,0,0,0,0,.064.208.208,0,0,0,.126.224l1.587.916a.733.733,0,0,0,.664,0L77.364,56.1a.209.209,0,0,0,.126-.224.143.143,0,0,0,0-.065.138.138,0,0,0,0-.064A.208.208,0,0,0,77.364,55.522Zm6.115-3.5L81.892,51.1a.739.739,0,0,0-.664,0l-1.886,1.09a.209.209,0,0,0-.127.224.138.138,0,0,0,0,.064.143.143,0,0,0,0,.065.209.209,0,0,0,.127.223l1.586.917a.739.739,0,0,0,.664,0l1.887-1.09a.211.211,0,0,0,.127-.224.172.172,0,0,0,0-.064.178.178,0,0,0,0-.065A.21.21,0,0,0,83.479,52.018ZM71.271,59.04l-1.586-.917a.739.739,0,0,0-.664,0l-1.887,1.09a.209.209,0,0,0-.127.224.172.172,0,0,0,0,.064.178.178,0,0,0,0,.065.209.209,0,0,0,.127.223l1.587.917a.739.739,0,0,0,.664,0l1.886-1.09a.209.209,0,0,0,.127-.224.138.138,0,0,0,0-.064.143.143,0,0,0,0-.065A.209.209,0,0,0,71.271,59.04Zm10.99-8.384a.172.172,0,0,0,0,.064.178.178,0,0,0,0,.065.21.21,0,0,0,.127.224l1.587.916a.731.731,0,0,0,.663,0l1.887-1.09a.21.21,0,0,0,.127-.223.178.178,0,0,0,0-.065.172.172,0,0,0,0-.064.211.211,0,0,0-.127-.224l-1.587-.916a.731.731,0,0,0-.663,0l-1.887,1.089A.209.209,0,0,0,82.261,50.656ZM59.087,66.074,57.5,65.158a.739.739,0,0,0-.664,0l-1.887,1.09a.208.208,0,0,0-.126.224.138.138,0,0,0,0,.064.143.143,0,0,0,0,.065.208.208,0,0,0,.126.223l1.587.916a.733.733,0,0,0,.664,0l1.887-1.089a.208.208,0,0,0,.126-.224.138.138,0,0,0,0-.064.143.143,0,0,0,0-.065A.209.209,0,0,0,59.087,66.074Zm6.092-3.517-1.587-.916a.733.733,0,0,0-.664,0L61.042,62.73a.209.209,0,0,0-.127.224.143.143,0,0,0,0,.065.138.138,0,0,0,0,.064.208.208,0,0,0,.127.224l1.586.916a.733.733,0,0,0,.664,0l1.887-1.089a.211.211,0,0,0,.127-.224.178.178,0,0,0,0-.065.172.172,0,0,0,0-.064A.211.211,0,0,0,65.179,62.557Zm-3.046,1.759L60.546,63.4a.733.733,0,0,0-.664,0L58,64.489a.208.208,0,0,0-.126.224.138.138,0,0,0,0,.064.143.143,0,0,0,0,.065.209.209,0,0,0,.126.224l1.587.916a.733.733,0,0,0,.664,0l1.887-1.09a.208.208,0,0,0,.126-.224.138.138,0,0,0,0-.064.138.138,0,0,0,0-.064A.208.208,0,0,0,62.133,64.316ZM56.04,67.833l-1.586-.916a.733.733,0,0,0-.664,0L51.9,68.006a.211.211,0,0,0-.127.224.178.178,0,0,0,0,.065.172.172,0,0,0,0,.064.211.211,0,0,0,.127.224l1.587.916a.733.733,0,0,0,.664,0L56.04,68.41a.208.208,0,0,0,.127-.224.138.138,0,0,0,0-.064.143.143,0,0,0,0-.065A.209.209,0,0,0,56.04,67.833Zm-3.046,1.759-1.587-.916a.731.731,0,0,0-.663,0l-1.887,1.089a.209.209,0,0,0-.127.224.172.172,0,0,0,0,.064.178.178,0,0,0,0,.065.209.209,0,0,0,.127.224l1.587.916a.731.731,0,0,0,.663,0l1.887-1.089a.21.21,0,0,0,.127-.224.178.178,0,0,0,0-.065.172.172,0,0,0,0-.064A.209.209,0,0,0,52.994,69.592ZM68.225,60.8l-1.587-.916a.731.731,0,0,0-.663,0l-1.887,1.09a.209.209,0,0,0-.127.223.178.178,0,0,0,0,.065.172.172,0,0,0,0,.064.209.209,0,0,0,.127.224l1.586.916a.733.733,0,0,0,.664,0l1.887-1.089a.209.209,0,0,0,.127-.224.172.172,0,0,0,0-.064.178.178,0,0,0,0-.065A.21.21,0,0,0,68.225,60.8Zm6.092-3.517-1.586-.916a.733.733,0,0,0-.664,0L70.18,57.454a.211.211,0,0,0-.127.224.172.172,0,0,0,0,.064.178.178,0,0,0,0,.065.211.211,0,0,0,.127.224l1.587.916a.733.733,0,0,0,.664,0l1.886-1.089a.209.209,0,0,0,.127-.224.143.143,0,0,0,0-.065.138.138,0,0,0,0-.064A.208.208,0,0,0,74.317,57.281ZM57.745,70l-1.586-.916a.733.733,0,0,0-.664,0l-1.887,1.089a.211.211,0,0,0-.127.224.172.172,0,0,0,0,.064.178.178,0,0,0,0,.065.211.211,0,0,0,.127.224l1.587.916a.733.733,0,0,0,.664,0l1.886-1.09a.209.209,0,0,0,.127-.223.143.143,0,0,0,0-.065.138.138,0,0,0,0-.064A.209.209,0,0,0,57.745,70Zm3.047-1.759-1.587-.916a.733.733,0,0,0-.664,0l-1.887,1.089a.209.209,0,0,0-.126.224.143.143,0,0,0,0,.065.138.138,0,0,0,0,.064.208.208,0,0,0,.126.224l1.587.916a.733.733,0,0,0,.664,0l1.887-1.089a.209.209,0,0,0,.126-.224.143.143,0,0,0,0-.065.138.138,0,0,0,0-.064A.208.208,0,0,0,60.792,68.24ZM54.7,71.758l-1.587-.916a.731.731,0,0,0-.663,0l-1.887,1.089a.209.209,0,0,0-.127.224.172.172,0,0,0,0,.064.178.178,0,0,0,0,.065.209.209,0,0,0,.127.223l1.587.917a.737.737,0,0,0,.663,0l1.887-1.09a.209.209,0,0,0,.127-.224.172.172,0,0,0,0-.064.178.178,0,0,0,0-.065A.209.209,0,0,0,54.7,71.758Zm-3.046,1.758L50.066,72.6a.731.731,0,0,0-.663,0l-1.887,1.09a.207.207,0,0,0-.127.223.178.178,0,0,0,0,.065.172.172,0,0,0,0,.064.208.208,0,0,0,.127.224l1.586.916a.733.733,0,0,0,.664,0l1.887-1.089a.211.211,0,0,0,.127-.224.172.172,0,0,0,0-.064.178.178,0,0,0,0-.065A.211.211,0,0,0,51.653,73.516ZM74.527,53.931l-1.587-.916a.733.733,0,0,0-.664,0l-2.869,1.657a.208.208,0,0,0-.126.224.138.138,0,0,0,0,.064.138.138,0,0,0,0,.064.208.208,0,0,0,.126.224l1.587.916a.733.733,0,0,0,.664,0l2.869-1.656a.208.208,0,0,0,.126-.224.138.138,0,0,0,0-.064.143.143,0,0,0,0-.065A.209.209,0,0,0,74.527,53.931Zm5.5,3.2-1.586-.916a.733.733,0,0,0-.664,0l-2.869,1.656a.211.211,0,0,0-.127.224.178.178,0,0,0,0,.065.172.172,0,0,0,0,.064.211.211,0,0,0,.127.224l1.587.916a.733.733,0,0,0,.664,0l2.868-1.656a.209.209,0,0,0,.127-.224.143.143,0,0,0,0-.065.138.138,0,0,0,0-.064A.208.208,0,0,0,80.032,57.131Zm6.232-3.506-1.587-.916a.733.733,0,0,0-.664,0L82.126,53.8a.208.208,0,0,0-.126.223.143.143,0,0,0,0,.065.138.138,0,0,0,0,.064.208.208,0,0,0,.126.224l1.587.916a.733.733,0,0,0,.664,0L86.264,54.2a.208.208,0,0,0,.126-.224.138.138,0,0,0,0-.064.143.143,0,0,0,0-.065A.209.209,0,0,0,86.264,53.625Zm-3.046,1.759-1.587-.916a.733.733,0,0,0-.664,0L79.08,55.557a.209.209,0,0,0-.126.224.143.143,0,0,0,0,.065.138.138,0,0,0,0,.064.208.208,0,0,0,.126.224l1.587.916a.733.733,0,0,0,.664,0l1.887-1.089a.209.209,0,0,0,.126-.224.143.143,0,0,0,0-.065.138.138,0,0,0,0-.064A.208.208,0,0,0,83.218,55.384Zm-7.146,4.065-1.586-.916a.733.733,0,0,0-.664,0L59.714,66.678a.211.211,0,0,0-.127.224.178.178,0,0,0,0,.065.172.172,0,0,0,0,.064.211.211,0,0,0,.127.224l1.587.916a.733.733,0,0,0,.664,0l14.107-8.145A.21.21,0,0,0,76.2,59.8a.143.143,0,0,0,0-.065.138.138,0,0,0,0-.064A.209.209,0,0,0,76.072,59.449Zm-11.666.326-1.587-.916a.733.733,0,0,0-.664,0l-1.886,1.089a.209.209,0,0,0-.127.224.138.138,0,0,0,0,.064.143.143,0,0,0,0,.065.209.209,0,0,0,.127.223l1.586.917a.739.739,0,0,0,.664,0l1.887-1.09a.211.211,0,0,0,.127-.224.172.172,0,0,0,0-.064.178.178,0,0,0,0-.065A.21.21,0,0,0,64.406,59.775ZM61.36,61.533l-1.587-.916a.733.733,0,0,0-.664,0l-1.887,1.09a.208.208,0,0,0-.126.223.143.143,0,0,0,0,.065.138.138,0,0,0,0,.064.208.208,0,0,0,.126.224l1.587.916a.733.733,0,0,0,.664,0L61.36,62.11a.211.211,0,0,0,.127-.224.172.172,0,0,0,0-.064.178.178,0,0,0,0-.065A.211.211,0,0,0,61.36,61.533Zm6.092-3.517L65.865,57.1a.731.731,0,0,0-.663,0l-1.887,1.089a.211.211,0,0,0-.127.224.172.172,0,0,0,0,.064.178.178,0,0,0,0,.065.211.211,0,0,0,.127.224l1.587.916a.731.731,0,0,0,.663,0l1.887-1.09a.209.209,0,0,0,.127-.223.178.178,0,0,0,0-.065.172.172,0,0,0,0-.064A.209.209,0,0,0,67.452,58.016ZM76.7,47.446a.138.138,0,0,0,0,.064.138.138,0,0,0,0,.064.208.208,0,0,0,.126.224l1.587.917a.739.739,0,0,0,.664,0l1.887-1.09a.208.208,0,0,0,.126-.224.138.138,0,0,0,0-.064.143.143,0,0,0,0-.065.209.209,0,0,0-.126-.224l-1.587-.916a.739.739,0,0,0-.664,0l-1.887,1.09A.208.208,0,0,0,76.7,47.446Zm-6.2,8.811-1.586-.916a.733.733,0,0,0-.664,0L66.361,56.43a.211.211,0,0,0-.127.224.178.178,0,0,0,0,.065.172.172,0,0,0,0,.064.211.211,0,0,0,.127.224l1.587.916a.733.733,0,0,0,.664,0L70.5,56.834a.21.21,0,0,0,.127-.224.143.143,0,0,0,0-.065.138.138,0,0,0,0-.064A.209.209,0,0,0,70.5,56.257ZM58.314,63.292l-1.587-.916a.733.733,0,0,0-.664,0l-1.887,1.089a.209.209,0,0,0-.126.224.143.143,0,0,0,0,.065.138.138,0,0,0,0,.064.208.208,0,0,0,.126.224l1.587.916a.733.733,0,0,0,.664,0l1.887-1.089a.209.209,0,0,0,.126-.224.143.143,0,0,0,0-.065.138.138,0,0,0,0-.064A.208.208,0,0,0,58.314,63.292Zm-6.093,3.517-1.586-.916a.739.739,0,0,0-.664,0l-1.887,1.09a.211.211,0,0,0-.127.224.172.172,0,0,0,0,.064.172.172,0,0,0,0,.064.211.211,0,0,0,.127.224l1.587.917a.737.737,0,0,0,.663,0l1.887-1.09a.209.209,0,0,0,.127-.224.172.172,0,0,0,0-.064.178.178,0,0,0,0-.065A.21.21,0,0,0,52.221,66.809Zm3.046-1.758-1.586-.916a.733.733,0,0,0-.664,0L51.13,65.224a.208.208,0,0,0-.126.224.138.138,0,0,0,0,.064.143.143,0,0,0,0,.065.209.209,0,0,0,.126.224l1.587.916a.733.733,0,0,0,.664,0l1.886-1.09a.207.207,0,0,0,.127-.223.143.143,0,0,0,0-.065.138.138,0,0,0,0-.064A.208.208,0,0,0,55.267,65.051Z"/><path class="cls-10" d="M40.594,67.431,38.707,68.52a.733.733,0,0,1-.664,0L36.456,67.6a.2.2,0,0,1,0-.383l1.887-1.09a.733.733,0,0,1,.664,0l1.587.916A.2.2,0,0,1,40.594,67.431Zm3.046-2.142-1.587-.917a.739.739,0,0,0-.664,0L39.5,65.462a.2.2,0,0,0,0,.383l1.587.916a.733.733,0,0,0,.664,0l1.887-1.089A.2.2,0,0,0,43.64,65.289Zm3.046-1.759L45.1,62.614a.733.733,0,0,0-.664,0L42.549,63.7a.2.2,0,0,0,0,.383L44.135,65a.733.733,0,0,0,.664,0l1.887-1.089A.2.2,0,0,0,46.686,63.53Zm3.046-1.759-1.587-.916a.733.733,0,0,0-.664,0L45.6,61.944a.2.2,0,0,0,0,.384l1.587.916a.731.731,0,0,0,.663,0l1.887-1.09A.2.2,0,0,0,49.732,61.771Zm3.046-1.759L51.191,59.1a.731.731,0,0,0-.663,0l-1.887,1.09a.2.2,0,0,0,0,.383l1.587.916a.731.731,0,0,0,.663,0L52.778,60.4A.2.2,0,0,0,52.778,60.012Zm3.046-1.758-1.586-.917a.739.739,0,0,0-.664,0l-1.887,1.09a.2.2,0,0,0,0,.383l1.587.916a.733.733,0,0,0,.664,0l1.886-1.089A.2.2,0,0,0,55.824,58.254ZM58.871,56.5l-1.587-.916a.733.733,0,0,0-.664,0l-1.887,1.089a.2.2,0,0,0,0,.383l1.587.916a.733.733,0,0,0,.664,0l1.887-1.089A.2.2,0,0,0,58.871,56.5Zm3.046-1.759L60.33,53.82a.733.733,0,0,0-.664,0l-1.887,1.089a.2.2,0,0,0,0,.384l1.587.916a.733.733,0,0,0,.664,0l1.887-1.09A.2.2,0,0,0,61.917,54.736Zm3.046-1.759-1.587-.916a.739.739,0,0,0-.664,0l-1.886,1.09a.2.2,0,0,0,0,.383l1.586.916a.733.733,0,0,0,.664,0l1.887-1.089A.2.2,0,0,0,64.963,52.977Zm4.028-2.325-1.586-.916a.733.733,0,0,0-.664,0l-2.869,1.656a.2.2,0,0,0,0,.383l1.586.916a.733.733,0,0,0,.664,0l2.869-1.656A.2.2,0,0,0,68.991,50.652Zm11.442,3.041-1.587-.917a.739.739,0,0,0-.664,0L76.3,53.866a.2.2,0,0,0,0,.383l1.586.916a.733.733,0,0,0,.664,0l1.887-1.089A.2.2,0,0,0,80.433,53.693Zm3.046-1.759-1.587-.916a.733.733,0,0,0-.664,0l-1.886,1.089a.2.2,0,0,0,0,.383l1.586.916a.733.733,0,0,0,.664,0l1.887-1.089A.2.2,0,0,0,83.479,51.934Zm3.046-1.759-1.587-.916a.731.731,0,0,0-.663,0l-1.887,1.089a.2.2,0,0,0,0,.384l1.587.916a.737.737,0,0,0,.663,0l1.887-1.09A.2.2,0,0,0,86.525,50.175ZM83.218,55.3l-1.587-.916a.733.733,0,0,0-.664,0l-1.887,1.09a.2.2,0,0,0,0,.383l1.587.916a.733.733,0,0,0,.664,0l1.887-1.089A.2.2,0,0,0,83.218,55.3Zm3.046-1.758-1.587-.916a.733.733,0,0,0-.664,0l-1.887,1.089a.2.2,0,0,0,0,.383l1.587.916a.733.733,0,0,0,.664,0l1.887-1.089A.2.2,0,0,0,86.264,53.542Zm3.046-1.759-1.587-.916a.733.733,0,0,0-.664,0l-1.886,1.089a.2.2,0,0,0,0,.383l1.586.916a.733.733,0,0,0,.664,0l1.887-1.089A.2.2,0,0,0,89.31,51.783Zm-44.9,16.288-1.587-.916a.733.733,0,0,0-.664,0l-2.869,1.656a.2.2,0,0,0,0,.383l1.587.917a.733.733,0,0,0,.664,0l2.869-1.657A.2.2,0,0,0,44.413,68.071Zm3.046-1.759L45.872,65.4a.733.733,0,0,0-.664,0l-1.886,1.09a.2.2,0,0,0,0,.383l1.586.916a.733.733,0,0,0,.664,0L47.459,66.7A.2.2,0,0,0,47.459,66.312Zm3.046-1.758-1.587-.917a.737.737,0,0,0-.663,0l-1.887,1.09a.2.2,0,0,0,0,.383l1.586.916a.733.733,0,0,0,.664,0l1.887-1.089A.2.2,0,0,0,50.505,64.554ZM53.551,62.8l-1.587-.916a.731.731,0,0,0-.663,0l-1.887,1.089a.2.2,0,0,0,0,.383L51,64.267a.731.731,0,0,0,.663,0l1.887-1.089A.2.2,0,0,0,53.551,62.8ZM56.6,61.036l-1.586-.916a.733.733,0,0,0-.664,0L52.46,61.209a.2.2,0,0,0,0,.384l1.587.916a.737.737,0,0,0,.663,0l1.887-1.09A.2.2,0,0,0,56.6,61.036Zm3.047-1.759-1.587-.916a.733.733,0,0,0-.664,0l-1.887,1.09a.2.2,0,0,0,0,.383l1.587.916a.733.733,0,0,0,.664,0l1.887-1.089A.2.2,0,0,0,59.644,59.277Zm3.046-1.758L61.1,56.6a.739.739,0,0,0-.664,0l-1.887,1.09a.2.2,0,0,0,0,.383l1.587.916a.733.733,0,0,0,.664,0L62.69,57.9A.2.2,0,0,0,62.69,57.519Zm3.046-1.759-1.587-.916a.733.733,0,0,0-.664,0L61.6,55.933a.2.2,0,0,0,0,.383l1.586.917a.739.739,0,0,0,.664,0l1.887-1.09A.2.2,0,0,0,65.736,55.76ZM68.782,54l-1.587-.916a.733.733,0,0,0-.664,0l-1.886,1.089a.2.2,0,0,0,0,.384l1.586.916a.733.733,0,0,0,.664,0l1.887-1.09A.2.2,0,0,0,68.782,54Zm3.046-1.759-1.586-.916a.733.733,0,0,0-.664,0l-1.887,1.09a.2.2,0,0,0,0,.383l1.587.916a.731.731,0,0,0,.663,0l1.887-1.089A.2.2,0,0,0,71.828,52.242Zm-25.7,18-1.587-.916a.733.733,0,0,0-.664,0l-1.886,1.089a.2.2,0,0,0,0,.384l1.586.916a.733.733,0,0,0,.664,0l1.887-1.089A.2.2,0,0,0,46.129,70.243Zm3.046-1.758-1.587-.917a.731.731,0,0,0-.663,0l-1.887,1.09a.2.2,0,0,0,0,.383l1.586.916a.733.733,0,0,0,.664,0l1.887-1.089A.2.2,0,0,0,49.175,68.485Zm3.046-1.759-1.586-.916a.733.733,0,0,0-.664,0L48.084,66.9a.2.2,0,0,0,0,.383l1.587.916a.731.731,0,0,0,.663,0l1.887-1.089A.2.2,0,0,0,52.221,66.726Zm3.046-1.759-1.586-.916a.733.733,0,0,0-.664,0L51.13,65.14a.2.2,0,0,0,0,.383l1.587.917a.733.733,0,0,0,.664,0l1.886-1.09A.2.2,0,0,0,55.267,64.967Zm-3.614,8.466-1.587-.917a.737.737,0,0,0-.663,0l-1.887,1.09a.2.2,0,0,0,0,.383l1.586.916a.733.733,0,0,0,.664,0l1.887-1.089A.2.2,0,0,0,51.653,73.433ZM54.7,71.674l-1.587-.916a.731.731,0,0,0-.663,0l-1.887,1.089a.2.2,0,0,0,0,.383l1.587.916a.731.731,0,0,0,.663,0L54.7,72.057A.2.2,0,0,0,54.7,71.674Zm3.046-1.759L56.159,69a.733.733,0,0,0-.664,0l-1.887,1.089a.2.2,0,0,0,0,.384l1.587.916a.733.733,0,0,0,.664,0l1.886-1.09A.2.2,0,0,0,57.745,69.915Zm3.047-1.759-1.587-.916a.733.733,0,0,0-.664,0l-1.887,1.09a.2.2,0,0,0,0,.383l1.587.916a.733.733,0,0,0,.664,0l1.887-1.089A.2.2,0,0,0,60.792,68.156Zm19.24-11.108-1.586-.917a.733.733,0,0,0-.664,0l-2.869,1.657a.2.2,0,0,0,0,.383l1.587.916a.733.733,0,0,0,.664,0l2.868-1.656A.2.2,0,0,0,80.032,57.048Zm-21.718,6.16-1.587-.916a.733.733,0,0,0-.664,0l-1.887,1.089a.2.2,0,0,0,0,.384l1.587.916a.733.733,0,0,0,.664,0l1.887-1.089A.2.2,0,0,0,58.314,63.208Zm3.046-1.759-1.587-.916a.739.739,0,0,0-.664,0l-1.887,1.09a.2.2,0,0,0,0,.383l1.587.916a.733.733,0,0,0,.664,0l1.887-1.089A.2.2,0,0,0,61.36,61.449Zm3.046-1.758-1.587-.916a.733.733,0,0,0-.664,0l-1.886,1.089a.2.2,0,0,0,0,.383l1.586.916a.733.733,0,0,0,.664,0l1.887-1.089A.2.2,0,0,0,64.406,59.691Zm3.046-1.759-1.587-.916a.731.731,0,0,0-.663,0l-1.887,1.089a.2.2,0,0,0,0,.384l1.587.916a.731.731,0,0,0,.663,0l1.887-1.09A.2.2,0,0,0,67.452,57.932ZM70.5,56.173l-1.586-.916a.733.733,0,0,0-.664,0l-1.887,1.09a.2.2,0,0,0,0,.383l1.587.916a.733.733,0,0,0,.664,0L70.5,56.557A.2.2,0,0,0,70.5,56.173Zm4.029-2.325-1.587-.917a.739.739,0,0,0-.664,0l-2.869,1.657a.2.2,0,0,0,0,.383l1.587.916a.733.733,0,0,0,.664,0l2.869-1.656A.2.2,0,0,0,74.527,53.848ZM49.948,71.267l-1.587-.916a.731.731,0,0,0-.663,0l-2.869,1.656a.2.2,0,0,0,0,.383l1.586.917a.739.739,0,0,0,.664,0l2.869-1.657A.2.2,0,0,0,49.948,71.267Zm3.046-1.759-1.587-.916a.731.731,0,0,0-.663,0l-1.887,1.089a.2.2,0,0,0,0,.384l1.587.916a.731.731,0,0,0,.663,0l1.887-1.09A.2.2,0,0,0,52.994,69.508Zm3.046-1.759-1.586-.916a.733.733,0,0,0-.664,0L51.9,67.923a.2.2,0,0,0,0,.383l1.587.916a.733.733,0,0,0,.664,0l1.886-1.089A.2.2,0,0,0,56.04,67.749Zm3.047-1.758L57.5,65.075a.733.733,0,0,0-.664,0l-1.887,1.089a.2.2,0,0,0,0,.383l1.587.916a.733.733,0,0,0,.664,0l1.887-1.089A.2.2,0,0,0,59.087,65.991Zm3.046-1.759-1.587-.916a.733.733,0,0,0-.664,0L58,64.405a.2.2,0,0,0,0,.384l1.587.916a.739.739,0,0,0,.664,0l1.887-1.09A.2.2,0,0,0,62.133,64.232Zm13.939-4.867-1.586-.916a.733.733,0,0,0-.664,0L59.714,66.594a.2.2,0,0,0,0,.384l1.587.916a.733.733,0,0,0,.664,0l14.107-8.145A.2.2,0,0,0,76.072,59.365ZM65.179,62.473l-1.587-.916a.733.733,0,0,0-.664,0l-1.886,1.089a.2.2,0,0,0,0,.384l1.586.916a.733.733,0,0,0,.664,0l1.887-1.09A.2.2,0,0,0,65.179,62.473Zm3.046-1.758L66.638,59.8a.737.737,0,0,0-.663,0l-1.887,1.09a.2.2,0,0,0,0,.383l1.586.916a.733.733,0,0,0,.664,0L68.225,61.1A.2.2,0,0,0,68.225,60.715Zm3.046-1.759-1.586-.916a.733.733,0,0,0-.664,0l-1.887,1.089a.2.2,0,0,0,0,.383l1.587.916a.733.733,0,0,0,.664,0l1.886-1.089A.2.2,0,0,0,71.271,58.956ZM74.317,57.2l-1.586-.916a.733.733,0,0,0-.664,0L70.18,57.37a.2.2,0,0,0,0,.384l1.587.916a.739.739,0,0,0,.664,0l1.886-1.09A.2.2,0,0,0,74.317,57.2Zm3.047-1.759-1.587-.916a.733.733,0,0,0-.664,0l-1.887,1.09a.2.2,0,0,0,0,.383l1.587.916a.733.733,0,0,0,.664,0l1.887-1.089A.2.2,0,0,0,77.364,55.438ZM72.1,48.878l-1.587-.916a.733.733,0,0,0-.664,0l-1.887,1.09a.2.2,0,0,0,0,.383l1.587.916a.733.733,0,0,0,.664,0L72.1,49.262A.2.2,0,0,0,72.1,48.878Zm3.046-1.758L73.554,46.2a.739.739,0,0,0-.664,0L71,47.293a.2.2,0,0,0,0,.383l1.587.916a.733.733,0,0,0,.664,0L75.141,47.5A.2.2,0,0,0,75.141,47.12Zm3.046-1.759L76.6,44.445a.733.733,0,0,0-.664,0l-1.887,1.089a.2.2,0,0,0,0,.383l1.587.917a.739.739,0,0,0,.664,0l1.887-1.09A.2.2,0,0,0,78.187,45.361Zm2.778,1.6-1.587-.916a.733.733,0,0,0-.664,0l-1.887,1.089a.2.2,0,0,0,0,.383l1.587.916a.733.733,0,0,0,.664,0l1.887-1.089A.2.2,0,0,0,80.965,46.965Z"/><path class="cls-11" d="M89.109,66.582l-14,8.081a1.258,1.258,0,0,1-1.14,0l-9.277-5.356a.348.348,0,0,1,0-.658l14-8.081a1.258,1.258,0,0,1,1.14,0l9.277,5.356A.348.348,0,0,1,89.109,66.582Z"/><path class="cls-12" d="M64.695,68.817l14-8.081a1.258,1.258,0,0,1,1.14,0l9.277,5.356a.461.461,0,0,1,.222.245c.046-.145-.028-.3-.222-.413l-9.277-5.356a1.258,1.258,0,0,0-1.14,0l-14,8.081c-.194.112-.268.268-.222.413A.461.461,0,0,1,64.695,68.817Z"/><path class="cls-13" d="M73.968,43.218,34.323,66.107l-.065.038,1.354.781L75.257,44.038,75.322,44ZM35.612,66.827l-1.181-.682L73.968,43.318,75.149,44Z"/><path class="cls-5" d="M78.435,49.148l-2.088-1.206a.911.911,0,0,0-.826,0l-4.78,2.76a.262.262,0,0,0-.16.27.178.178,0,0,0,0,.065.172.172,0,0,0,0,.064.263.263,0,0,0,.16.271l4.167,2.405a.909.909,0,0,0,.825,0l7.93-4.578a.263.263,0,0,0,.16-.271.172.172,0,0,0,0-.064.178.178,0,0,0,0-.065.262.262,0,0,0-.16-.27l-1.551-.9a.608.608,0,0,0-.548,0L78.9,49.149A.519.519,0,0,1,78.435,49.148Z"/><path class="cls-10" d="M83.663,48.445l-1.551-.9a.6.6,0,0,0-.548,0L78.9,49.065a.516.516,0,0,1-.464,0l-2.088-1.206a.911.911,0,0,0-.826,0l-4.78,2.76a.251.251,0,0,0,0,.476L74.908,53.5a.909.909,0,0,0,.825,0l7.93-4.578A.252.252,0,0,0,83.663,48.445Z"/><path class="cls-1" d="M53.462,79.8l1.631.94c.19.109.344.044.344-.146a.716.716,0,0,0-.345-.543l-1.631-.939c-.19-.11-.343-.045-.343.145A.711.711,0,0,0,53.462,79.8Z"/><g class="cls-14"><path class="cls-15" d="M54.908,80.523l.227.131.806-.465-.227-.132Zm-.5-.289.227.131.8-.465-.226-.131Zm-.5-.288.227.131.8-.465-.227-.131Zm-.5-.288.227.131.8-.465-.227-.131Z"/></g><polygon class="cls-16" points="31.669 27.058 35.732 61.931 77.161 38.013 73.102 3.137 31.669 27.058"/><polygon class="cls-17" points="39.265 26.867 39.265 61.185 81.617 36.733 81.617 2.415 39.265 26.867"/><polygon class="cls-18" points="39.265 24.452 39.265 27.406 81.617 2.955 81.617 0 39.265 24.452"/><polygon class="cls-18" points="67.543 43.779 39.265 60.104 39.265 33.555 67.543 17.229 67.543 43.779"/><polygon class="cls-19" points="67.543 34.233 39.265 50.558 39.265 33.555 67.543 17.229 67.543 34.233"/><polygon class="cls-20" points="39.265 28.499 39.265 34.352 81.617 9.901 81.617 4.048 39.265 28.499"/><polygon class="cls-18" points="39.265 28.499 39.265 34.352 81.617 9.901 81.617 4.048 39.265 28.499"/><polygon class="cls-20" points="67.232 12.353 67.232 34.558 81.617 26.253 81.617 4.048 67.232 12.353"/><path class="cls-19" d="M41.175,31.673v-2.55a.156.156,0,0,1,.09-.14l1.048-.606a.627.627,0,0,1,.515-.117c.123.049.185.184.185.4V30.01a1.121,1.121,0,0,1-.185.618,1.478,1.478,0,0,1-.515.478l-1.048.6C41.205,31.745,41.175,31.733,41.175,31.673Zm.586-.715.463-.267a.566.566,0,0,0,.193-.169.417.417,0,0,0,.057-.226V29q0-.135-.057-.159c-.039-.017-.1,0-.193.054l-.463.267a.082.082,0,0,0-.047.073v1.7C41.714,30.969,41.73,30.976,41.761,30.958Z"/><path class="cls-19" d="M43.87,27.567v2.551a.155.155,0,0,1-.089.14l-.361.209c-.059.034-.089.021-.089-.038V27.878a.157.157,0,0,1,.089-.14l.361-.208C43.841,27.5,43.87,27.508,43.87,27.567Z"/><path class="cls-19" d="M45.338,29.359l-.45.26a.636.636,0,0,1-.517.121c-.122-.049-.183-.185-.183-.409V27.986a1.12,1.12,0,0,1,.183-.619,1.476,1.476,0,0,1,.517-.477l.45-.26a.625.625,0,0,1,.514-.116c.122.051.182.186.182.407v.127a.157.157,0,0,1-.089.144l-.36.209q-.09.051-.09-.042v-.1c0-.091-.018-.144-.055-.161s-.1,0-.191.053l-.276.159a.552.552,0,0,0-.189.166.418.418,0,0,0-.057.227V29c0,.09.019.144.057.16s.1,0,.189-.052l.276-.159a.52.52,0,0,0,.191-.168.417.417,0,0,0,.055-.225v-.267c0-.031-.015-.038-.046-.02l-.255.147c-.059.035-.089.022-.089-.037v-.289a.157.157,0,0,1,.089-.14l.742-.429c.066-.038.1-.024.1.041v.709a1.119,1.119,0,0,1-.182.616A1.455,1.455,0,0,1,45.338,29.359Z"/><path class="cls-19" d="M46.892,25.823v2.55a.158.158,0,0,1-.089.141l-.361.208c-.06.034-.089.022-.089-.038v-2.55a.155.155,0,0,1,.089-.14l.361-.209C46.862,25.751,46.892,25.763,46.892,25.823Z"/><path class="cls-19" d="M48.1,27.767l-.357.205c-.062.036-.093.025-.093-.035V25.811c0-.031-.016-.038-.047-.02l-.483.28c-.06.034-.09.022-.09-.038v-.288a.156.156,0,0,1,.09-.141l1.6-.926c.06-.034.09-.022.09.038V25a.157.157,0,0,1-.09.141l-.483.279a.086.086,0,0,0-.051.076v2.126A.159.159,0,0,1,48.1,27.767Z"/><path class="cls-19" d="M49.2,27.127l-.407.235c-.051.03-.068.01-.051-.059l.67-2.938a.263.263,0,0,1,.128-.162l.564-.326c.071-.041.113-.036.128.015l.67,2.164a.091.091,0,0,1-.051.118l-.407.235c-.031.018-.053.024-.064.018s-.02-.025-.026-.055l-.118-.4-.828.477-.119.536a.212.212,0,0,1-.027.086A.168.168,0,0,1,49.2,27.127Zm.616-2.57-.306,1.4.628-.363-.3-1.05Z"/><path class="cls-19" d="M52.557,25.191l-1.4.807c-.06.034-.089.021-.089-.038V23.41a.155.155,0,0,1,.089-.141l.36-.208c.06-.034.089-.022.089.038V25.22c0,.032.017.037.052.017l.9-.517c.056-.032.085-.017.085.045v.289A.152.152,0,0,1,52.557,25.191Z"/><path class="cls-19" d="M54.428,24.111l-.594.343c-.062.036-.1.027-.106-.028l-.454-2.288c-.008-.055.021-.1.089-.141l.441-.254q.1-.057.1.03l.247,1.95c.029-.017.437-2.357.437-2.357a.169.169,0,0,1,.089-.128l.475-.275c.054-.03.085-.025.093.019l.416,1.869c.034-.02.276-2.248.276-2.248a.183.183,0,0,1,.1-.152l.441-.254c.068-.04.1-.026.089.041l-.458,2.811a.189.189,0,0,1-.1.146l-.6.345c-.059.034-.093.025-.1-.03l-.382-1.77c-.017.01-.4,2.223-.4,2.223A.2.2,0,0,1,54.428,24.111Z"/><path class="cls-19" d="M56.983,22.636l-.407.235c-.051.03-.068.01-.051-.059l.67-2.938a.267.267,0,0,1,.128-.163l.564-.325c.071-.041.113-.036.127.015l.671,2.163a.092.092,0,0,1-.051.119l-.408.235q-.046.027-.063.018c-.012-.006-.02-.025-.026-.055l-.119-.4-.827.477-.119.536a.217.217,0,0,1-.028.086A.164.164,0,0,1,56.983,22.636Zm.616-2.57-.306,1.4.628-.362-.306-1.05Z"/><path class="cls-19" d="M60.336,20.7l-1.4.807c-.06.034-.09.021-.09-.038V18.918a.156.156,0,0,1,.09-.14l.36-.208c.059-.035.089-.022.089.037v2.122c0,.031.017.037.051.017l.9-.517q.084-.048.084.045v.288A.151.151,0,0,1,60.336,20.7Z"/><path class="cls-19" d="M62.029,19.723l-1.4.806c-.059.035-.089.022-.089-.037V17.941a.159.159,0,0,1,.089-.141l.361-.208c.059-.034.089-.021.089.038v2.122c0,.031.017.037.051.017l.9-.517q.084-.049.084.045v.288A.151.151,0,0,1,62.029,19.723Z"/><path class="cls-19" d="M63.713,18.75l-1.387.8c-.06.034-.089.021-.089-.038V16.963a.155.155,0,0,1,.089-.14l1.387-.8c.057-.033.085-.02.085.04v.288a.15.15,0,0,1-.085.138L62.826,17a.086.086,0,0,0-.051.076v.551c0,.032.017.037.051.018l.726-.419c.059-.035.089-.022.089.037v.289a.157.157,0,0,1-.089.14l-.726.419a.088.088,0,0,0-.051.077v.589c0,.032.017.037.051.018l.887-.512c.057-.033.085-.02.085.04v.288A.15.15,0,0,1,63.713,18.75Z"/><path class="cls-19" d="M64.9,18.064l-.357.206c-.062.036-.093.024-.093-.035V16.109c0-.031-.016-.038-.047-.02l-.483.279c-.06.035-.09.022-.09-.037v-.289a.158.158,0,0,1,.09-.141l1.6-.925c.06-.035.089-.022.089.037V15.3a.155.155,0,0,1-.089.14l-.483.279a.088.088,0,0,0-.051.077v2.126A.157.157,0,0,1,64.9,18.064Z"/><g class="cls-21"><polygon class="cls-22" points="73.027 36.298 73.027 21.694 80.591 17.328 80.591 31.931 73.027 36.298"/><polygon class="cls-23" points="73.027 33.245 73.018 25.787 80.581 21.42 80.591 29.882 77.242 31.816 77.24 30.813 73.027 33.245"/><path class="cls-24" d="M79.947,25.647l-2.7-3.3c.042-.025,2.738,3.272,2.738,3.272Zm.466-.269-2.7-3.3c-.042.024,2.653,3.321,2.653,3.321Zm-.848.489-2.7-3.3c-.042.024,2.654,3.321,2.654,3.321Zm-.423.244-2.7-3.3c-.043.024,2.653,3.321,2.653,3.321Zm1.444-1.285-2.445-2.99c-.043.025,2.445,3.067,2.445,3.067Zm-1.868,1.53-2.7-3.3c-.042.025,2.653,3.321,2.653,3.321ZM80.584,23.3l-1.6-1.952c-.042.024,1.6,2.028,1.6,2.028Zm0-2.292-.323-.394c-.042.024.323.47.323.47Zm0,.764-.747-.913a10.507,10.507,0,0,0,.747.989Zm0,.764L79.412,21.1c-.042.025,1.171,1.509,1.171,1.509Zm0,1.527-2.02-2.47c-.043.024,2.02,2.547,2.02,2.547ZM78.294,26.6l-2.7-3.3c-.042.024,2.654,3.321,2.654,3.321Zm-4.661,2.691-.611-.747v.076l.568.7Zm.847-.49-1.459-1.785v.076l1.417,1.734Zm.424-.244-1.884-2.3v.076l1.842,2.253Zm-1.695.978-.186-.227v.076l.143.176Zm.848-.489-1.036-1.266v.076l.992,1.215Zm1.271-.734-2.309-2.824v.076l2.267,2.773Zm1.695-.978-2.7-3.3c-.042.024,2.654,3.321,2.654,3.321Zm.424-.245-2.7-3.3c-.043.025,2.653,3.321,2.653,3.321Zm.423-.245-2.7-3.3c-.043.024,2.653,3.321,2.653,3.321Zm-1.7.979-2.695-3.3c-.043.025,2.653,3.321,2.653,3.321Zm.424-.245-2.7-3.3c-.042.024,2.654,3.321,2.654,3.321Zm-.847.49-2.7-3.3c-.038.029,2.653,3.321,2.653,3.321Z"/><polygon class="cls-25" points="77.242 33.218 77.238 28.199 80.587 26.265 80.591 31.285 77.242 33.218"/><polygon class="cls-25" points="73.018 35.862 73.018 30.64 74.096 30.018 74.096 34.722 73.018 35.862"/><path class="cls-26" d="M79.234,27.027c0-1.391-1.121-1.865-2.5-1.066a5.2,5.2,0,0,0-2.505,3.951C74.226,29.918,79.234,27.027,79.234,27.027Z"/><polygon class="cls-27" points="73.018 30.711 73.018 30.514 80.585 26.145 80.585 26.342 73.018 30.711"/><polygon class="cls-28" points="79.164 20.601 79.164 18.518 80.227 17.904 80.227 19.986 79.164 20.601"/><path class="cls-29" d="M79.5,27.972a.343.343,0,0,0-.138-.3c.005-.008.491-.229.491-.229.066-.03.076-.018.076.032v.648l.177-.04c.021-.025.021-.894.021-.894-.024-.013-.895.439-.895.439l-.031.08a.229.229,0,0,1,.184.25.8.8,0,0,1-.466.618c-.268.154-.471.162-.471-.064a.73.73,0,0,1,.282-.49.159.159,0,0,0,.062-.109c0-.052-.052-.108-.138-.059a.885.885,0,0,0-.3.692c0,.43.261.475.591.284A1.026,1.026,0,0,0,79.5,27.972Z"/><path class="cls-29" d="M80.161,28.951c0-.43-.38-.364-.9-.064s-.9.674-.9,1.1.38.364.9.063S80.161,29.38,80.161,28.951Zm-1.71.987c0-.247.385-.54.81-.785s.809-.4.809-.15-.385.54-.809.785S78.451,30.185,78.451,29.938Z"/><path class="cls-29" d="M80.161,30.331c0-.43-.38-.364-.9-.064s-.9.674-.9,1.1.38.364.9.063S80.161,30.76,80.161,30.331Zm-1.71.987c0-.248.385-.54.81-.785s.809-.4.809-.15-.385.54-.809.785S78.451,31.565,78.451,31.318Z"/><path class="cls-30" d="M74.383,21.88a.237.237,0,0,0-.095-.207s.338-.157.338-.157c.045-.021.052-.012.052.022v.446l.122-.028c.014-.017.014-.615.014-.615-.016-.009-.616.3-.616.3l-.021.055a.158.158,0,0,1,.127.172.546.546,0,0,1-.32.425c-.185.107-.325.112-.325-.044a.506.506,0,0,1,.194-.337.109.109,0,0,0,.043-.075c0-.036-.036-.074-.095-.04a.607.607,0,0,0-.2.476c0,.3.179.326.406.2A.7.7,0,0,0,74.383,21.88Z"/><path class="cls-30" d="M74.836,22.554c0-.3-.262-.25-.62-.044s-.619.464-.619.759.261.25.619.043S74.836,22.849,74.836,22.554Zm-1.177.679c0-.17.265-.372.557-.54s.557-.273.557-.1-.265.371-.557.54S73.659,23.4,73.659,23.233Z"/><path class="cls-30" d="M74.836,23.5c0-.3-.262-.25-.62-.043s-.619.463-.619.759.261.25.619.043S74.836,23.8,74.836,23.5Zm-1.177.68c0-.171.265-.372.557-.541s.557-.273.557-.1-.265.372-.557.54S73.659,24.353,73.659,24.183Z"/><path class="cls-29" d="M78.674,32.67l-.29-.361.052-.059.291.36Zm-.2.087-.29-.36-.053.059.291.361Zm-.254.147-.291-.36-.053.059.291.361Zm-.255.147-.29-.36-.053.059.29.361Zm-.254.147-.291-.36-.053.059.291.361Zm-.255.147-.29-.36-.053.059.29.361Zm-.255.147-.29-.36-.053.059.291.361Zm-.254.147-.291-.36-.053.059.291.361Zm-.255.147-.29-.36-.053.059.29.361Z"/><path class="cls-30" d="M80.147,18.933c0-.249-.2-.335-.452-.191a.939.939,0,0,0-.451.712c0,.25.2.335.451.192A.94.94,0,0,0,80.147,18.933Zm-.844.487a.816.816,0,0,1,.392-.619c.217-.125.393-.05.393.166a.813.813,0,0,1-.393.619C79.479,19.711,79.3,19.637,79.3,19.42Z"/><path class="cls-31" d="M80.206,25.755l-.219.234-.035.262-.171-.076-.24.18.113-.282-.113-.15.24-.1.171-.273.035.221Zm-.641-1.3-.035-.222-.171.274-.24.1.113.151-.113.281.24-.18.171.076.035-.261.218-.235Zm-1.109-.469-.035-.221-.171.273-.24.1.113.151-.113.281.24-.18.171.077.035-.262.218-.234Zm-1.561.479-.035-.222-.17.274-.241.1.114.151-.114.281.241-.18.17.076.035-.261.219-.235Zm-1.56,1.323-.035-.222-.171.274-.24.1L75,26.09l-.113.281.24-.18.171.076.035-.261.219-.235Zm-1.109,1.749-.035-.221-.171.273-.24.1.113.15-.113.282.24-.18.171.076.035-.262.218-.234Zm-.422,1.8-.035-.221L73.6,29.4l-.24.1.113.15-.113.282.24-.18.171.076.035-.262.218-.234Z"/><polygon class="cls-22" points="68.259 40.675 68.259 26.932 74.245 23.476 74.245 37.219 68.259 40.675"/><path class="cls-32" d="M73.96,23.828,68.57,26.94V40.308L73.959,37.2ZM69.568,39.559c-.253.147-.459.028-.459-.266V27.333a1.017,1.017,0,0,1,.46-.8l3.367-1.944c.254-.147.46-.028.46.265V36.818a1.018,1.018,0,0,1-.46.8Z"/><path class="cls-33" d="M73.943,30.522c0-1.33-1.2-1.719-2.678-.866a5.365,5.365,0,0,0-2.678,3.958c0,1.331,1.2,1.719,2.678.866A5.364,5.364,0,0,0,73.943,30.522ZM68.617,33.6a5.3,5.3,0,0,1,2.648-3.906c1.46-.843,2.648-.463,2.648.848a5.3,5.3,0,0,1-2.648,3.907C69.805,35.289,68.617,34.908,68.617,33.6Z"/><path class="cls-33" d="M71.265,34.377c-1.43.825-2.588.46-2.588-.815a5.161,5.161,0,0,1,2.588-3.8c1.429-.825,2.588-.461,2.588.814A5.166,5.166,0,0,1,71.265,34.377Z"/><path class="cls-34" d="M71.265,34.04c-1.221.7-2.211.394-2.211-.7A4.412,4.412,0,0,1,71.265,30.1c1.221-.705,2.211-.393,2.211.7A4.41,4.41,0,0,1,71.265,34.04Z"/><polygon class="cls-32" points="70.525 35.973 70.525 35.514 70.367 35.605 70.367 36.064 70.525 35.973"/><polygon class="cls-32" points="70.525 36.215 70.367 36.306 70.367 38.279 70.525 38.188 70.525 36.215"/><polygon class="cls-32" points="70.525 27.125 70.525 26.666 70.368 26.757 70.368 27.216 70.525 27.125"/><polygon class="cls-32" points="70.525 27.367 70.368 27.458 70.368 29.431 70.525 29.341 70.525 27.367"/><polygon class="cls-32" points="73.021 25.006 72.804 25.131 72.804 27.514 73.021 27.39 73.021 25.006"/><polygon class="cls-33" points="73.021 34.651 72.804 34.776 72.804 37.16 73.021 37.035 73.021 34.651"/><path class="cls-32" d="M69.448,38.052l.472-.273a1.89,1.89,0,0,0-.025-.216c-.025.014-.035.078-.035.078a.065.065,0,0,1-.04.056l-.372.215c-.033-.014-.038-.074-.038-.074a1.408,1.408,0,0,0-.031.35c.031-.018.036-.084.036-.084A.054.054,0,0,1,69.448,38.052Z"/><path class="cls-32" d="M69.927,38.226c0-.174-.131-.156-.279-.071a.483.483,0,0,0-.278.393c0,.173.131.155.278.07A.48.48,0,0,0,69.927,38.226Zm-.52.3c0-.076.149-.171.241-.224s.242-.131.242-.055-.15.171-.242.224S69.407,38.6,69.407,38.526Z"/><path class="cls-32" d="M69.927,38.747c0-.174-.131-.156-.279-.071a.484.484,0,0,0-.279.393c0,.174.132.155.279.07A.48.48,0,0,0,69.927,38.747Zm-.52.3c0-.076.149-.171.241-.224s.242-.131.242-.055-.15.171-.242.224S69.407,39.123,69.407,39.047Z"/><path class="cls-34" d="M73.53,35.768l.317-.183a1.426,1.426,0,0,0-.017-.144,1.2,1.2,0,0,1-.3.233c-.046-.037-.046.185-.046.185C73.509,35.787,73.513,35.778,73.53,35.768Z"/><path class="cls-34" d="M73.851,35.885c0-.117-.088-.1-.187-.048a.324.324,0,0,0-.186.263c0,.116.088.1.186.047A.322.322,0,0,0,73.851,35.885Zm-.348.2c0-.051.1-.115.161-.151s.162-.087.162-.036-.1.114-.162.15S73.5,36.137,73.5,36.086Z"/><path class="cls-34" d="M73.851,36.233c0-.116-.088-.1-.187-.047a.323.323,0,0,0-.186.263c0,.116.088.1.186.047A.322.322,0,0,0,73.851,36.233Zm-.348.2c0-.051.1-.114.161-.15s.162-.087.162-.036-.1.114-.162.15S73.5,36.486,73.5,36.434Z"/><path class="cls-34" d="M73.53,25.317l.317-.183a1.447,1.447,0,0,0-.017-.145,1.183,1.183,0,0,1-.3.234c-.046-.038-.046.185-.046.185C73.509,25.336,73.513,25.327,73.53,25.317Z"/><path class="cls-34" d="M73.851,25.433c0-.116-.088-.1-.187-.047a.323.323,0,0,0-.186.263c0,.116.088.1.186.047A.322.322,0,0,0,73.851,25.433Zm-.348.2c0-.051.1-.114.161-.15s.162-.087.162-.036-.1.114-.162.15S73.5,25.685,73.5,25.634Z"/><path class="cls-34" d="M73.851,25.782c0-.116-.088-.1-.187-.047a.323.323,0,0,0-.186.263c0,.116.088.1.186.047A.322.322,0,0,0,73.851,25.782Zm-.348.2c0-.051.1-.114.161-.15s.162-.088.162-.036-.1.114-.162.15S73.5,26.034,73.5,25.983Z"/><path class="cls-34" d="M68.954,27.762c-.074.043-.1.028-.1-.011v-.445a.132.132,0,0,1,.06-.1c.072-.042.1-.029.1,0l.005.062.483-.279.012-.073a.136.136,0,0,1,.059-.089c.062-.036.087-.026.092,0l.042.274a.116.116,0,0,1-.014.065.153.153,0,0,1-.053.066l-.621.358-.005.069A.135.135,0,0,1,68.954,27.762Zm.32,1.3c-.276.16-.434.112-.434-.129a.668.668,0,0,1,.238-.488c-.153.036-.238-.036-.238-.212a.759.759,0,0,1,.434-.631c.276-.159.434-.112.434.13a.668.668,0,0,1-.238.487c.153-.036.238.036.238.212A.759.759,0,0,1,69.274,29.064Z"/><path class="cls-33" d="M69.005,27.535l.635-.366a2.882,2.882,0,0,0-.034-.291c-.033.019-.047.105-.047.105a.089.089,0,0,1-.055.075l-.5.288c-.035.021-.042.011-.045-.018l-.006-.081a1.918,1.918,0,0,0-.041.47c.041-.024.047-.113.047-.113A.075.075,0,0,1,69.005,27.535Z"/><path class="cls-33" d="M69.648,27.768c0-.233-.176-.209-.374-.1a.649.649,0,0,0-.374.527c0,.234.176.21.374.1A.646.646,0,0,0,69.648,27.768Zm-.7.4c0-.1.2-.23.324-.3s.325-.176.325-.074-.2.23-.325.3S68.95,28.274,68.95,28.172Z"/><path class="cls-33" d="M69.648,28.468c0-.233-.176-.209-.374-.095a.646.646,0,0,0-.374.527c0,.233.176.209.374.1A.647.647,0,0,0,69.648,28.468Zm-.7.4c0-.1.2-.23.324-.3s.325-.176.325-.073-.2.229-.325.3S68.95,28.974,68.95,28.871Z"/><path class="cls-33" d="M72.161,35.947c0-.418-.294-.587-.656-.378A1.448,1.448,0,0,0,70.85,36.7c0,.419.293.588.655.379A1.451,1.451,0,0,0,72.161,35.947Zm-1.24.716a1.291,1.291,0,0,1,.584-1.012c.323-.186.585-.035.585.337A1.294,1.294,0,0,1,71.505,37C71.182,37.187,70.921,37.036,70.921,36.663Z"/><path class="cls-33" d="M72.161,27.1c0-.418-.294-.587-.656-.378a1.448,1.448,0,0,0-.655,1.136c0,.418.293.587.655.378A1.449,1.449,0,0,0,72.161,27.1Zm-1.24.717a1.3,1.3,0,0,1,.584-1.013c.323-.186.585-.035.585.338a1.292,1.292,0,0,1-.585,1.012C71.183,28.337,70.921,28.186,70.921,27.814Z"/><path class="cls-32" d="M71.807,36.409a.158.158,0,0,1,0-.155c.039-.094.039-.153.014-.185A.158.158,0,0,1,71.8,35.9c.026-.061,0-.1-.043-.076l-.34.2a.239.239,0,0,0-.087.091l-.26.451a1.767,1.767,0,0,0,.26.172.085.085,0,0,0,.087-.008l.34-.2C71.8,36.507,71.83,36.437,71.807,36.409Z"/><path class="cls-32" d="M71.807,27.555a.156.156,0,0,1,0-.155c.039-.094.039-.153.013-.185a.156.156,0,0,1-.013-.168c.025-.061,0-.1-.044-.076l-.34.2a.25.25,0,0,0-.087.092l-.26.451a1.767,1.767,0,0,0,.26.172.087.087,0,0,0,.087-.008l.34-.2C71.8,27.653,71.83,27.583,71.807,27.555Z"/><path class="cls-32" d="M71.6,32.2l.07-.26.849-.49a1.211,1.211,0,0,1-.4.614.319.319,0,0,0-.111.245c0,.091.053.321.251.207a1.509,1.509,0,0,0,.453-1.175l.33-.191v-.266l-.33.19c-.016-.538-.263-.842-.783-.542a1.832,1.832,0,0,0-.733,1.17L71.116,32l-.968.559a1.505,1.505,0,0,1,.478-.723.38.38,0,0,0,.132-.286.191.191,0,0,0-.3-.171,1.593,1.593,0,0,0-.5,1.29l-.428.247v.267l.428-.248c0,.438.219.916.812.578A1.969,1.969,0,0,0,71.6,32.2Zm.16-.579a.943.943,0,0,1,.38-.633c.206-.119.366-.04.379.2Zm-1.615,1.2.89-.514a1.186,1.186,0,0,1-.507.725C70.288,33.175,70.148,33.075,70.148,32.823Z"/><polygon class="cls-33" points="69.378 36.683 69.378 35.514 69.439 35.479 69.439 36.648 69.378 36.683"/><polygon class="cls-33" points="69.378 30.759 69.378 29.59 69.439 29.555 69.439 30.724 69.378 30.759"/><path class="cls-18" d="M81.672,39.908,67.206,48.26c-.784.453-1.419.184-1.419-.6V36.671a2.941,2.941,0,0,1,1.419-2.238l14.466-8.352c.6-.347,1.088-.141,1.088.459V38.193A2.256,2.256,0,0,1,81.672,39.908Z"/><path class="cls-20" d="M77.3,31.248l-1.7.983a3.993,3.993,0,0,0-1.925,3.036c0,1.063.862,1.427,1.925.814l1.7-.983Z"/><path class="cls-35" d="M82.4,32.159l-6.227,3.595c-1.064.614-1.927.25-1.927-.815A4,4,0,0,1,76.168,31.9L82.4,28.305c.349-.2.631-.082.631.267v2.59A1.309,1.309,0,0,1,82.4,32.159Z"/><path class="cls-22" d="M76.864,33.5a1.866,1.866,0,0,1-.9,1.419c-.5.287-.9.117-.9-.38a1.865,1.865,0,0,1,.9-1.419C76.461,32.831,76.864,33,76.864,33.5Z"/></g><path class="cls-36" d="M53.892,30.931,64.8,24.646c.314-.181.568-.108.567.163l-.008,6.5a1.124,1.124,0,0,1-.568.818L53.883,38.411c-.313.18-.567.108-.567-.163l.008-6.5A1.124,1.124,0,0,1,53.892,30.931Z"/><path class="cls-36" d="M41.292,38.206,52.2,31.92c.314-.18.568-.108.568.163l-.008,6.5a1.122,1.122,0,0,1-.569.817L41.283,45.685c-.314.181-.568.108-.568-.163l.008-6.5A1.125,1.125,0,0,1,41.292,38.206Z"/><path class="cls-37" d="M53.975,32.622a.458.458,0,0,0-.459.059L42.609,38.967a1.122,1.122,0,0,0-.569.817l-.008,6.5a.238.238,0,0,0,.111.221l.166.1L54.136,32.713Z"/><path class="cls-37" d="M66.574,25.348a.458.458,0,0,0-.459.059L55.207,31.693a1.121,1.121,0,0,0-.568.817l-.008,6.5a.234.234,0,0,0,.11.221l.166.1L66.735,25.439Z"/><path class="cls-38" d="M55.347,31.771l10.908-6.285c.313-.181.568-.108.567.163l-.008,6.5a1.124,1.124,0,0,1-.568.818L55.338,39.251c-.313.18-.567.108-.567-.163l.008-6.5A1.124,1.124,0,0,1,55.347,31.771Z"/><path class="cls-19" d="M63.533,27.546l2.224-1.281c.2-.118.371-.071.371.107v.72a.735.735,0,0,1-.372.535l-2.223,1.281c-.206.118-.372.07-.372-.107v-.72A.737.737,0,0,1,63.533,27.546Z"/><path class="cls-39" d="M55.77,38.351l1.659-.956a.56.56,0,0,0,.282-.406v-.8c0-.135-.126-.171-.282-.081l-1.659.956a.56.56,0,0,0-.282.406v.8C55.488,38.405,55.614,38.441,55.77,38.351Z"/><g class="cls-40"><path class="cls-41" d="M55.719,37.1l-.05.041v1.255a.4.4,0,0,0,.049-.016v-.312l.523-.3c.028.121.166.146.333.049a.709.709,0,0,0,.333-.433l.551-.318v.315l.049-.037,0-1.267a.4.4,0,0,0-.05.02v.346l-.55.317c-.023-.129-.163-.158-.334-.06a.7.7,0,0,0-.334.446l-.523.3Zm1.194.227V36.8l.545-.314v.537l-.546.315Zm-.339.446c-.139.08-.256.062-.283-.036l.566-.326A.618.618,0,0,1,56.574,37.77Zm0-1.032c.144-.082.262-.06.285.046l-.57.328A.611.611,0,0,1,56.575,36.738Zm-.289.42.578-.334v.529c0,.009-.578.341-.578.341S56.286,37.158,56.286,37.158Zm-.05.028v.529c0,.008-.517.307-.517.307v-.537Z"/></g><path class="cls-42" d="M64.993,32.612a1.23,1.23,0,0,1-.594.936c-.329.19-.595.079-.595-.249a1.232,1.232,0,0,1,.595-.936C64.727,32.174,64.993,32.285,64.993,32.612Z"/><path class="cls-39" d="M66.362,31.823a1.231,1.231,0,0,1-.595.935c-.329.19-.595.079-.595-.249a1.232,1.232,0,0,1,.595-.936C66.1,31.384,66.362,31.5,66.362,31.823Z"/><path class="cls-19" d="M57.69,33.95v.322a.259.259,0,0,1-.125.2l-1.667.963c-.07.04-.126.016-.126-.053v-.322a.258.258,0,0,1,.126-.2l1.667-.963C57.634,33.857,57.69,33.881,57.69,33.95ZM60.2,32.377l-1.667.962a.258.258,0,0,0-.126.2v.322c0,.069.056.093.126.053l1.667-.963a.261.261,0,0,0,.126-.2v-.322C60.325,32.36,60.268,32.336,60.2,32.377Zm2.634-1.521-1.667.962a.261.261,0,0,0-.125.2v.321c0,.069.056.093.125.053l1.667-.963a.258.258,0,0,0,.126-.2v-.322C62.959,30.839,62.9,30.816,62.833,30.856Zm2.634-1.521L63.8,30.3a.258.258,0,0,0-.125.2v.322c0,.069.056.092.125.052l1.667-.962a.26.26,0,0,0,.126-.2v-.322C65.593,29.318,65.537,29.3,65.467,29.335Z"/><path class="cls-39" d="M55.464,33.079v-.688a2.717,2.717,0,0,1,.3-.191.153.153,0,0,1,.129-.029c.031.012.047.046.047.1v.377a.288.288,0,0,1-.047.156.367.367,0,0,1-.129.121l-.278.16C55.471,33.1,55.464,33.092,55.464,33.079Zm.122-.147.16-.092a.146.146,0,0,0,.081-.131v-.367c0-.056-.027-.068-.081-.037l-.16.092c-.012.018-.012.529-.012.529S55.578,32.937,55.586,32.932Z"/><path class="cls-39" d="M56.473,32.516l-.362.209c-.019-.008-.019-.7-.019-.7a4.392,4.392,0,0,1,.381-.239c.018.009.018.066.018.066a2.337,2.337,0,0,1-.276.179,1.246,1.246,0,0,0-.013.21,2.368,2.368,0,0,0,.231-.122c.021.007.021.065.021.065a1.883,1.883,0,0,1-.239.157,1.362,1.362,0,0,0-.013.22,2.986,2.986,0,0,0,.271-.144c.018.009.018.066.018.066A.033.033,0,0,1,56.473,32.516Z"/><path class="cls-39" d="M56.635,32.4v-.689a2.594,2.594,0,0,1,.287-.185.16.16,0,0,1,.13-.03c.031.012.046.046.046.1v.055a.24.24,0,0,1-.093.181.077.077,0,0,1,.073,0c.02.011.029.035.029.072v.072a.277.277,0,0,1-.046.154.374.374,0,0,1-.129.12l-.278.161C56.641,32.419,56.635,32.416,56.635,32.4Zm.122-.469.147-.085a.149.149,0,0,0,.086-.132v-.052q0-.081-.084-.033l-.149.086a1.263,1.263,0,0,0-.013.212C56.744,31.938,56.748,31.94,56.757,31.935Zm0,.323.158-.091a.148.148,0,0,0,.085-.13v-.07q0-.082-.09-.03l-.153.088a1.47,1.47,0,0,0-.013.229C56.744,32.262,56.748,32.263,56.757,32.258Z"/><path class="cls-39" d="M57.374,31.288v.689a.356.356,0,0,1-.09.071c-.02-.008-.02-.7-.02-.7a.374.374,0,0,1,.091-.071C57.368,31.272,57.374,31.275,57.374,31.288Z"/><path class="cls-39" d="M57.744,31.782l-.071.041a5.931,5.931,0,0,1-.021-.607,1.053,1.053,0,0,0-.154.077c-.02-.008-.02-.065-.02-.065.02-.031.44-.273.44-.273.02.007.02.065.02.065a.918.918,0,0,1-.163.113c-.012.018-.012.619-.012.619A.032.032,0,0,1,57.744,31.782Z"/><path class="cls-39" d="M58.6,31.288l-.131.076a.154.154,0,0,1-.13.028c-.03-.013-.046-.047-.046-.1v-.377a.3.3,0,0,1,.046-.156.368.368,0,0,1,.13-.12l.131-.076a.157.157,0,0,1,.129-.029c.031.013.046.047.046.1v.055a.372.372,0,0,1-.091.073c-.02-.115-.047-.127-.1-.1l-.1.057a.144.144,0,0,0-.081.13v.368c0,.056.027.068.081.037l.1-.057a.145.145,0,0,0,.081-.131.212.212,0,0,1,.091-.122c.02.008.02.063.02.063a.281.281,0,0,1-.046.155A.367.367,0,0,1,58.6,31.288Z"/><path class="cls-39" d="M58.955,31.083l-.082.047c-.011-.012.186-.815.186-.815a.748.748,0,0,1,.14-.1,5.415,5.415,0,0,1,.224.579.358.358,0,0,1-.093.072c-.02-.007-.063-.129-.063-.129l-.249.143-.043.172A.044.044,0,0,1,58.955,31.083Zm.185-.725-.1.419.2-.118-.1-.3Z"/><path class="cls-39" d="M59.625,30.7l-.071.041c-.019-.008-.019-.7-.019-.7a2.539,2.539,0,0,1,.284-.183.151.151,0,0,1,.129-.027c.031.013.047.047.047.1v.1a.3.3,0,0,1-.107.226s.125.2.125.2c-.015.032-.085.072-.085.072-.035,0-.156-.189-.156-.189l-.114.066a1.985,1.985,0,0,0-.013.268A.034.034,0,0,1,59.625,30.7Zm.032-.388.144-.083a.147.147,0,0,0,.083-.131V30c0-.056-.028-.067-.083-.035l-.144.083a1.976,1.976,0,0,0-.012.257C59.645,30.311,59.649,30.313,59.657,30.308Z"/><path class="cls-39" d="M60.148,30.375v-.688a2.621,2.621,0,0,1,.3-.191.155.155,0,0,1,.13-.029c.031.012.046.046.046.1v.377a.286.286,0,0,1-.046.156.379.379,0,0,1-.13.121l-.278.16C60.154,30.391,60.148,30.388,60.148,30.375Zm.122-.147.159-.092a.145.145,0,0,0,.082-.131v-.367c0-.056-.027-.068-.082-.037l-.159.092c-.013.018-.013.529-.013.529S60.262,30.233,60.27,30.228Z"/><path class="cls-43" d="M42.747,39.046,53.654,32.76c.314-.18.568-.107.568.163l-.008,6.5a1.122,1.122,0,0,1-.569.817L42.738,46.525c-.314.181-.568.108-.568-.163l.008-6.5A1.125,1.125,0,0,1,42.747,39.046Z"/><path class="cls-19" d="M50.933,34.82l2.223-1.28c.2-.119.371-.071.371.106v.721a.734.734,0,0,1-.372.535l-2.223,1.28c-.2.119-.371.071-.371-.106v-.721A.734.734,0,0,1,50.933,34.82Z"/><path class="cls-44" d="M43.169,45.626l1.659-.956a.557.557,0,0,0,.282-.406v-.8c0-.135-.126-.171-.281-.081l-1.659.956a.555.555,0,0,0-.282.406v.8C42.887,45.679,43.013,45.716,43.169,45.626Z"/><g class="cls-40"><path class="cls-41" d="M43.118,44.372a.64.64,0,0,0-.05.041v1.255a.3.3,0,0,0,.05-.017v-.312l.523-.3c.028.12.167.145.333.049a.717.717,0,0,0,.334-.433l.551-.318v.314a.429.429,0,0,0,.05-.037V43.346a.289.289,0,0,0-.049.021v.346l-.549.317c-.023-.129-.163-.158-.334-.06a.707.707,0,0,0-.335.445l-.522.3Zm1.2.227V44.07l.545-.314v.537l-.546.315Zm-.34.445c-.139.08-.255.062-.283-.035l.567-.327A.617.617,0,0,1,43.973,45.044Zm0-1.031c.143-.083.262-.06.284.045l-.569.329A.6.6,0,0,1,43.975,44.013Zm-.29.419.579-.333v.529c0,.008-.578.341-.578.341S43.685,44.432,43.685,44.432Zm-.05.029v.529c0,.007-.518.306-.518.306v-.537Z"/></g><path class="cls-38" d="M52.393,39.887a1.234,1.234,0,0,1-.595.936c-.328.19-.595.078-.595-.249a1.232,1.232,0,0,1,.595-.936C52.126,39.448,52.393,39.56,52.393,39.887Z"/><path class="cls-44" d="M53.761,39.1a1.232,1.232,0,0,1-.6.936c-.328.19-.595.078-.595-.249a1.234,1.234,0,0,1,.595-.936C53.5,38.658,53.761,38.77,53.761,39.1Z"/><path class="cls-19" d="M45.09,41.224v.322a.261.261,0,0,1-.125.2l-1.668.962c-.069.04-.125.017-.125-.052v-.322a.258.258,0,0,1,.125-.2l1.668-.963C45.034,41.132,45.09,41.155,45.09,41.224ZM47.6,39.651l-1.668.963a.259.259,0,0,0-.125.2v.322c0,.069.056.093.125.052l1.668-.962a.261.261,0,0,0,.125-.2V39.7C47.724,39.635,47.668,39.611,47.6,39.651Zm2.634-1.521-1.668.963a.259.259,0,0,0-.125.2v.322c0,.069.056.093.125.053l1.668-.963a.259.259,0,0,0,.125-.2v-.322C50.358,38.114,50.3,38.09,50.233,38.13Zm2.634-1.52-1.668.962a.259.259,0,0,0-.125.2v.321c0,.069.056.093.125.053l1.668-.963a.259.259,0,0,0,.125-.2v-.322C52.992,36.593,52.936,36.57,52.867,36.61Z"/><g class="cls-45"><path class="cls-46" d="M43.159,40.191l-.131.075a.152.152,0,0,1-.13.029c-.03-.014-.046-.048-.046-.1v-.376a.29.29,0,0,1,.046-.156.38.38,0,0,1,.13-.121l.131-.075a.153.153,0,0,1,.129-.029c.031.013.046.047.046.1v.054a.348.348,0,0,1-.091.073c-.02-.115-.047-.127-.1-.095l-.1.056a.146.146,0,0,0-.081.131v.367c0,.056.027.069.081.037l.1-.057a.143.143,0,0,0,.081-.13.212.212,0,0,1,.091-.123c.02.009.02.063.02.063a.286.286,0,0,1-.046.156A.367.367,0,0,1,43.159,40.191Z"/><path class="cls-46" d="M43.565,39.956,43.494,40c-.02-.008-.02-.7-.02-.7a2.633,2.633,0,0,1,.284-.183.152.152,0,0,1,.129-.028c.032.013.047.047.047.1v.095a.292.292,0,0,1-.107.226c0,.005.126.2.126.2a.278.278,0,0,1-.085.071c-.035,0-.156-.189-.156-.189l-.115.066a1.985,1.985,0,0,0-.013.268A.032.032,0,0,1,43.565,39.956Zm.031-.388.144-.083a.145.145,0,0,0,.084-.13V39.26q0-.084-.084-.036l-.144.083a1.983,1.983,0,0,0-.012.257C43.584,39.572,43.588,39.573,43.6,39.568Z"/><path class="cls-46" d="M44.468,39.435l-.362.209c-.019-.008-.019-.7-.019-.7a4.392,4.392,0,0,1,.381-.239c.018.009.018.066.018.066a2.337,2.337,0,0,1-.276.179,1.246,1.246,0,0,0-.013.21c.013,0,.232-.123.232-.123.02.008.02.066.02.066a1.8,1.8,0,0,1-.239.156,1.38,1.38,0,0,0-.013.221,2.986,2.986,0,0,0,.271-.144c.018.008.018.066.018.066A.033.033,0,0,1,44.468,39.435Z"/><path class="cls-46" d="M44.63,39.322v-.688a2.621,2.621,0,0,1,.3-.191.155.155,0,0,1,.13-.029c.031.012.047.046.047.1v.377a.288.288,0,0,1-.047.156.389.389,0,0,1-.13.121l-.278.16C44.636,39.338,44.63,39.335,44.63,39.322Zm.122-.147.16-.092a.146.146,0,0,0,.081-.131v-.368q0-.082-.081-.036l-.16.092c-.012.018-.012.529-.012.529S44.744,39.18,44.752,39.175Z"/><path class="cls-46" d="M45.373,38.205v.688a.344.344,0,0,1-.091.072c-.019-.008-.019-.7-.019-.7a.356.356,0,0,1,.091-.071C45.366,38.189,45.373,38.192,45.373,38.205Z"/><path class="cls-46" d="M45.743,38.7l-.072.041c-.02-.007-.02-.608-.02-.608a1.164,1.164,0,0,0-.154.078c-.02-.008-.02-.065-.02-.065.02-.031.44-.274.44-.274.02.008.02.066.02.066a.918.918,0,0,1-.163.113c-.012.018-.012.619-.012.619A.035.035,0,0,1,45.743,38.7Z"/><path class="cls-46" d="M46.6,38.205l-.131.076a.153.153,0,0,1-.129.028c-.031-.013-.046-.047-.046-.1V37.83a.282.282,0,0,1,.046-.156.357.357,0,0,1,.129-.12l.131-.076a.153.153,0,0,1,.129-.029c.031.013.047.047.047.1v.054a.365.365,0,0,1-.092.073c-.019-.114-.046-.127-.1-.095l-.1.057a.143.143,0,0,0-.081.13v.368c0,.055.027.068.081.036l.1-.056a.146.146,0,0,0,.081-.131.212.212,0,0,1,.09-.123c.021.009.021.063.021.063a.285.285,0,0,1-.047.156A.367.367,0,0,1,46.6,38.205Z"/><path class="cls-46" d="M46.954,38l-.082.047c-.011-.013.186-.815.186-.815a.748.748,0,0,1,.14-.1,5.32,5.32,0,0,1,.224.578c-.013.027-.093.073-.093.073-.02-.007-.063-.129-.063-.129l-.249.143-.043.172A.046.046,0,0,1,46.954,38Zm.185-.726-.1.419.2-.118-.1-.3Z"/><path class="cls-46" d="M47.624,37.613l-.071.041c-.019-.008-.019-.7-.019-.7a2.535,2.535,0,0,1,.283-.183.154.154,0,0,1,.13-.028c.031.014.047.048.047.1v.1a.3.3,0,0,1-.108.226s.126.2.126.2a.286.286,0,0,1-.085.072c-.035,0-.156-.189-.156-.189l-.114.066a1.832,1.832,0,0,0-.014.267A.035.035,0,0,1,47.624,37.613Zm.032-.388.143-.083a.146.146,0,0,0,.084-.131v-.1c0-.056-.028-.068-.084-.035l-.143.083a1.825,1.825,0,0,0-.013.257C47.643,37.228,47.647,37.229,47.656,37.225Z"/><path class="cls-46" d="M48.146,37.292V36.6a2.876,2.876,0,0,1,.3-.191.161.161,0,0,1,.129-.029c.032.013.047.047.047.1v.376a.279.279,0,0,1-.047.156.358.358,0,0,1-.129.121l-.278.161C48.153,37.307,48.146,37.305,48.146,37.292Zm.123-.147.159-.093a.144.144,0,0,0,.081-.13v-.368q0-.084-.081-.036l-.159.092c-.013.018-.013.529-.013.529S48.26,37.149,48.269,37.145Z"/></g><path class="cls-47" d="M73.793,11.368l1.253-.724v.3l-1.253.724Zm-1.61,3.3L70.231,15.8v.3l2.312-1.335.8-.462V14l-1.16.67Zm1.729-1.886v-.3l-.978.565-.644.372v.3l.644-.372Zm-2.081.9-1.605.926v.3l1.605-.926Zm.829-1.367.673-.388v-.3l-1.16.669-1.936,1.119v.3l2.423-1.4Zm-1.9-.089,1.579-.911v-.3l-1.579.911-.511.3v.3l.511-.295Zm3.153-1.82.508-.293v-.3l-.671.387-.951.55v.3l1.114-.644Zm1.144,2.6-1.254.723v.3l1.254-.724Zm-2.446,5.7-2.377,1.373v.3l2.377-1.372Zm-2.357,2.548v.3l.477-.275,2-1.153v-.3l-1.7.98Zm4.8-6.332-1.723.994-1.15.664v.3l1.15-.664,1.723-.994Zm-.247,3.7-.432.249-1.191.688v.3l.952-.55.671-.387Zm-3.154-.553-1.421.821v.3l1.421-.821,1.58-.911v-.3l-1.58.911ZM73.694,16.9v.3l.834-.482v-.3Zm-.625,1.846,1.5-.866v-.3l-1.5.866Zm-2.838-.734,1.493-.862v-.3l-1.493.862Zm8.538-7.143-1.169.674v.3l1.169-.674Zm-.017-3.55-.7.405v.3l.7-.405Zm-1.161.67-.6.35v.3l.6-.35Zm1.173.51-1.154.666v.3L78.764,8.8Zm-1.73,2.185-.492.284v.3l.492-.284Zm.459.034,1.281-.74v-.3l-1.281.74Zm1.255,5.638-1.087.627v.3l1.087-.627Zm.019-1.2-2.053,1.185v.3l2.053-1.185ZM77.2,17.247,76.6,17.6v.3l.605-.349ZM77.154,15.2l1.612-.931v-.3l-1.612.931Zm.446-1.444,1.169-.675v-.3l-1.169.675Zm2.982-3.936-.5.289v.3l.5-.289Zm-.017-3.55-.7.405v.3l.7-.4Zm.012,1.18-.485.28v.3l.485-.28Zm-.6,1.534v.3l.612-.354v-.3Zm.586,6.323-.418.241v.3l.418-.241Zm.02-1.2-.626.361v.3l.626-.361Zm-.277-.728.275-.159v-.3l-.275.159Zm-.222-1.058.5-.289v-.3l-.5.289ZM68.5,17.1l.52-.3v-.3l-.52.3Zm-.016-3.55.317-.183v-.3l-.317.183Zm.011,1.18.535-.309v-.3l-.535.309Zm.01.882v.3l.408-.236v-.3Zm-.026,6.975.6-.348v-.3l-.6.347Zm.02-1.2.394-.227v-.3l-.394.227Zm.743-1.914-.745.43v.3l.745-.43Zm-.222-1.059-.52.3v.3l.52-.3Z"/><path id="Cylinder_face" data-name="Cylinder face" class="cls-43" d="M40.819,36.239c0,.32.225.449.5.289a1.109,1.109,0,0,0,.5-.869c0-.32-.225-.45-.5-.29A1.11,1.11,0,0,0,40.819,36.239Z"/><path id="Cylinder_face-2" data-name="Cylinder face" class="cls-38" d="M53.536,28.89c0,.32.225.45.5.289a1.109,1.109,0,0,0,.5-.869c0-.32-.225-.45-.5-.29A1.11,1.11,0,0,0,53.536,28.89Z"/><path class="cls-38" d="M59.119,25.962l.868-.5v.207l-.868.5Zm-.785.661.466-.27v-.207l-.8.464-1.342.775v.207l1.68-.969Zm-1.318-.062,1.095-.632v-.208l-1.095.632-.354.2v.207l.354-.2ZM59.2,25.3l.352-.2v-.208l-.465.269-.66.381v.207L59.2,25.3Zm2.445-1.619-.487.281v.207l.487-.281Zm-.8.465-.419.242v.207l.419-.242Zm.813.353-.8.461v.208l.8-.462ZM62.9,22.954l-.487.281v.207l.487-.281Zm.008.818-.336.194v.207l.336-.194Zm-7.477,3.7.22-.128v-.207l-.22.127Zm.008.817.371-.214V27.87l-.371.214Z"/><polygon class="cls-43" points="45.418 33.872 44.065 34.654 44.065 34.861 45.667 33.936 46.222 33.615 46.222 33.408 45.418 33.872 45.418 33.872"/><polygon class="cls-43" points="46.616 32.565 46.616 32.358 45.938 32.749 45.492 33.007 45.492 33.215 45.938 32.957 46.616 32.565"/><polygon class="cls-43" points="45.173 33.191 44.061 33.833 44.061 34.04 45.173 33.398 45.173 33.191"/><polygon class="cls-43" points="47.409 32.723 46.54 33.224 46.54 33.432 47.409 32.93 47.409 32.723"/><polygon class="cls-43" points="49.073 31.762 48.263 32.23 48.263 32.437 49.073 31.969 49.073 31.762"/><polygon class="cls-43" points="47.871 31.634 47.529 31.831 47.529 32.038 47.871 31.841 47.871 31.634"/><polygon class="cls-43" points="48.189 31.657 49.076 31.145 49.076 30.938 48.189 31.45 48.189 31.657"/><polygon class="cls-43" points="50.33 31.036 49.983 31.236 49.983 31.444 50.33 31.244 50.33 31.036"/><polygon class="cls-43" points="49.909 30.457 49.909 30.664 50.333 30.419 50.333 30.212 49.909 30.457"/><polygon class="cls-43" points="42.861 35.556 43.221 35.348 43.221 35.14 42.861 35.349 42.861 35.556"/><polygon class="cls-43" points="42.864 34.524 42.864 34.731 43.147 34.568 43.147 34.361 42.864 34.524"/><g class="cls-48"><path class="cls-49" d="M58.837,42.775c0-1.254-.879-1.763-1.962-1.142L49.952,45.6a4.308,4.308,0,0,0-1.958,3.39v2.8c0,1.255.875,1.766,1.958,1.145l6.923-3.971a4.316,4.316,0,0,0,1.962-3.393Z"/></g><g class="cls-3"><path class="cls-17" d="M62.025,43.673l-9.684,11.58-.408-.241a1.388,1.388,0,0,1-.58-1.28v-2.8a4.308,4.308,0,0,1,1.958-3.39l6.923-3.971a1.378,1.378,0,0,1,1.383-.135Z"/><path class="cls-35" d="M60.642,43.808l-6.923,3.971a4.308,4.308,0,0,0-1.958,3.39v2.8c0,1.255.875,1.766,1.958,1.145l6.923-3.971A4.316,4.316,0,0,0,62.6,47.754v-2.8C62.6,43.7,61.725,43.187,60.642,43.808Z"/></g><path class="cls-50" d="M53.851,53.494l-.475.274c-.078.045-.118.03-.118-.044V50.341a.208.208,0,0,1,.118-.186l.475-.274c.078-.045.118-.029.118.05v.184a1.3,1.3,0,0,1,.24-.365,1.455,1.455,0,0,1,.33-.266l.23-.133c.286-.165.5-.212.651-.141s.221.255.221.549v1.029a1.52,1.52,0,0,1-.221.805,1.788,1.788,0,0,1-.651.61l-.23.133a.812.812,0,0,1-.33.115.2.2,0,0,1-.218-.1c-.022.013-.022.964-.022.964A.2.2,0,0,1,53.851,53.494Zm.5-1.667.247-.142a.71.71,0,0,0,.254-.222.543.543,0,0,0,.076-.3V50.2c0-.119-.025-.19-.076-.211s-.135,0-.254.072l-.247.142a.706.706,0,0,0-.385.647v.772Q53.969,52.051,54.354,51.827ZM57.2,50.8l-.134.078a.838.838,0,0,1-.683.159c-.16-.064-.24-.244-.24-.538V49.469a1.482,1.482,0,0,1,.24-.816,1.947,1.947,0,0,1,.683-.629l1.292-.745c.082-.048.123-.032.123.046v2.617a.212.212,0,0,1-.123.189l-.47.271c-.078.045-.117.029-.117-.05v-.184a1.308,1.308,0,0,1-.241.365A1.434,1.434,0,0,1,57.2,50.8Zm.571-1.369V48.294c0-.041-.023-.048-.068-.022l-.526.3a.7.7,0,0,0-.251.221.557.557,0,0,0-.073.3v.962c0,.119.025.19.073.213s.132,0,.251-.07l.208-.12A.707.707,0,0,0,57.772,49.43Zm1.789.952-.358.207c-.075.043-.112.023-.112-.059v-.375a.2.2,0,0,1,.112-.187l.117-.068a1.616,1.616,0,0,0,.479-.374,1.29,1.29,0,0,0,.193-.489l-.3.171c-.071.041-.117.029-.14-.037L58.9,47.083c-.022-.066.006-.121.084-.166l.5-.288c.074-.042.121-.03.14.037l.481,1.786c.022-.013.5-2.351.5-2.351a.273.273,0,0,1,.14-.2l.47-.271c.093-.054.13-.034.111.059l-.682,3.123a2.8,2.8,0,0,1-.38.923A2.034,2.034,0,0,1,59.561,50.382Z"/></g></g></g></svg>