<svg xmlns="http://www.w3.org/2000/svg" xmlns:xlink="http://www.w3.org/1999/xlink" viewBox="0 0 118.316 98.042"><defs><style>.cls-1{isolation:isolate;}.cls-2{fill:#50197c;opacity:0.4;mix-blend-mode:multiply;}.cls-3{fill:url(#_ÂÁ_Ï_ÌÌ_È_ËÂÌÚ_813);}.cls-4{fill:#e0dbe1;}.cls-5{fill:url(#_ÂÁ_Ï_ÌÌ_È_ËÂÌÚ_814);}.cls-6{fill:#c0b9c8;}.cls-7{fill:url(#_ÂÁ_Ï_ÌÌ_È_ËÂÌÚ_810);}.cls-8{fill:url(#_ÂÁ_Ï_ÌÌ_È_ËÂÌÚ_813-2);}.cls-9{fill:url(#_ÂÁ_Ï_ÌÌ_È_ËÂÌÚ_95);}.cls-10{fill:#5917ff;}.cls-11{fill:url(#_ÂÁ_Ï_ÌÌ_È_ËÂÌÚ_810-2);}.cls-12{fill:url(#_ÂÁ_Ï_ÌÌ_È_ËÂÌÚ_5);}.cls-13{fill:#fffefb;}.cls-14{fill:#282525;opacity:0.9;}.cls-15,.cls-29,.cls-30{fill:#788eff;}.cls-16{fill:url(#_ÂÁ_Ï_ÌÌ_È_ËÂÌÚ_163);}.cls-17{fill:#ff71f2;}.cls-18{fill:url(#_ÂÁ_Ï_ÌÌ_È_ËÂÌÚ_178);}.cls-19{fill:#a55fff;}.cls-20{fill:url(#_ÂÁ_Ï_ÌÌ_È_ËÂÌÚ_184);}.cls-21{fill:#7dddff;}.cls-22{fill:#cfe9ff;}.cls-23{fill:#6faf00;}.cls-24{fill:#db3e3e;}.cls-25{opacity:0.2;}.cls-26{fill:#d457d6;}.cls-27{fill:#ffd91f;}.cls-28{fill:#7c36ce;}.cls-29{opacity:0.7;}.cls-30{opacity:0.5;}.cls-31{fill:#f0f2ff;}</style><linearGradient id="_ÂÁ_Ï_ÌÌ_È_ËÂÌÚ_813" x1="68.02" y1="73.224" x2="88.853" y2="73.224" gradientUnits="userSpaceOnUse"><stop offset="0" stop-color="#f8f6fa"/><stop offset="1" stop-color="#fbf8fc"/></linearGradient><linearGradient id="_ÂÁ_Ï_ÌÌ_È_ËÂÌÚ_814" x1="76.347" y1="65.248" x2="78.675" y2="69.28" gradientUnits="userSpaceOnUse"><stop offset="0" stop-color="#cfcad5"/><stop offset="1" stop-color="#eae7ed"/></linearGradient><linearGradient id="_ÂÁ_Ï_ÌÌ_È_ËÂÌÚ_810" x1="85.432" y1="54.841" x2="70.1" y2="54.841" gradientUnits="userSpaceOnUse"><stop offset="0" stop-color="#e0dbe1"/><stop offset="1" stop-color="#e0dbe1"/></linearGradient><linearGradient id="_ÂÁ_Ï_ÌÌ_È_ËÂÌÚ_813-2" x1="45.908" y1="17.989" x2="108.216" y2="17.989" xlink:href="#_ÂÁ_Ï_ÌÌ_È_ËÂÌÚ_813"/><linearGradient id="_ÂÁ_Ï_ÌÌ_È_ËÂÌÚ_95" x1="83.615" y1="-6.348" x2="66.366" y2="123.402" gradientUnits="userSpaceOnUse"><stop offset="0" stop-color="#5917ff"/><stop offset="0.159" stop-color="#6d22f8"/><stop offset="0.485" stop-color="#a13de7"/><stop offset="0.946" stop-color="#f569ca"/><stop offset="1" stop-color="#ff6ec7"/></linearGradient><linearGradient id="_ÂÁ_Ï_ÌÌ_È_ËÂÌÚ_810-2" x1="81.243" y1="86.642" x2="79.052" y2="86.642" xlink:href="#_ÂÁ_Ï_ÌÌ_È_ËÂÌÚ_810"/><linearGradient id="_ÂÁ_Ï_ÌÌ_È_ËÂÌÚ_5" x1="67.113" y1="82.617" x2="118.316" y2="82.617" gradientUnits="userSpaceOnUse"><stop offset="0" stop-color="#f8f6fa"/><stop offset="1" stop-color="#faf8fc"/></linearGradient><linearGradient id="_ÂÁ_Ï_ÌÌ_È_ËÂÌÚ_163" x1="68.042" y1="50.297" x2="76.097" y2="64.249" gradientUnits="userSpaceOnUse"><stop offset="0" stop-color="#d457d6"/><stop offset="0.12" stop-color="#cc53ce"/><stop offset="0.307" stop-color="#b646b9"/><stop offset="0.538" stop-color="#923397"/><stop offset="0.801" stop-color="#601768"/><stop offset="1" stop-color="#360040"/></linearGradient><linearGradient id="_ÂÁ_Ï_ÌÌ_È_ËÂÌÚ_178" x1="69.956" y1="54.983" x2="75.738" y2="64.999" gradientUnits="userSpaceOnUse"><stop offset="0" stop-color="#7c36ce"/><stop offset="1" stop-color="#37185b"/></linearGradient><linearGradient id="_ÂÁ_Ï_ÌÌ_È_ËÂÌÚ_184" x1="71.662" y1="60.612" x2="76.325" y2="68.688" gradientUnits="userSpaceOnUse"><stop offset="0" stop-color="#788eff"/><stop offset="0.232" stop-color="#6a80eb"/><stop offset="0.703" stop-color="#465db9"/><stop offset="1" stop-color="#2d4496"/></linearGradient></defs><g class="cls-1"><g id="_0" data-name="0"><g id="_10" data-name="10"><path class="cls-2" d="M98.192,55.384l-43.048.049L0,87.271l2.233.6H41.927L61.44,76.6l1.088-.255a7.293,7.293,0,0,1,5.306.784L72.9,80.056a.786.786,0,0,0,.4.106h.911l1.753-4.429-2.053-6.327Z"/><path class="cls-2" d="M80.4,97.921a.78.78,0,0,1-.365.106,4.675,4.675,0,0,1-1.415-.075L66.588,91.007a.357.357,0,0,1,0-.676L104.105,68.67a2.195,2.195,0,0,1,1.981,0l12.029,6.945C118.426,75.8,83.114,96.341,80.4,97.921Z"/><g class="cls-1"><polygon class="cls-3" points="82.709 67.187 68.02 75.714 74.164 79.261 88.853 70.734 82.709 67.187"/><path class="cls-4" d="M88.936,70.843a.34.34,0,0,0-.046-.076c-.037-.033-14.726,8.494-14.726,8.494a.324.324,0,0,1,.083.108c.1.23.093.711-.022.778L88.914,71.62C89.029,71.554,89.036,71.073,88.936,70.843Z"/><path class="cls-5" d="M81.518,65.774a2.038,2.038,0,0,1-.132-1.624l3.994-8.836L70.691,63.841,66.7,72.677a2.03,2.03,0,0,0,.13,1.618,3.526,3.526,0,0,0,.561.89,2.561,2.561,0,0,0,.632.529l14.689-8.527a2.522,2.522,0,0,1-.632-.529A3.5,3.5,0,0,1,81.518,65.774Z"/><path class="cls-6" d="M74.164,79.261,68.02,75.714A3.052,3.052,0,0,1,66.829,74.3a2.031,2.031,0,0,1-.132-1.623l3.994-8.836.028-.157.024-8.6a.816.816,0,0,0-.382-.663c-.206-.119-.371-.025-.372.227l-.024,8.524-3.981,8.765a3.261,3.261,0,0,0,.213,2.491A4.692,4.692,0,0,0,68.018,76.6l6.144,3.547C74.367,80.262,74.37,79.38,74.164,79.261Z"/><path class="cls-7" d="M85.366,46.26a.854.854,0,0,0-.141-.222.692.692,0,0,0-.175-.147.258.258,0,0,0-.261-.026L70.1,54.391a.259.259,0,0,1,.261.027.709.709,0,0,1,.175.146.889.889,0,0,1,.141.222.73.73,0,0,1,.066.3l-.024,8.6-.028.157L85.38,55.315l.028-.158.024-8.6A.738.738,0,0,0,85.366,46.26Z"/></g><g id="_1" data-name="1"><polygon class="cls-6" points="47.101 81.907 45.925 81.224 45.908 35.295 47.083 35.978 47.101 81.907"/><polygon class="cls-8" points="47.083 35.978 45.908 35.295 107.041 0 108.216 0.683 47.083 35.978"/><polygon class="cls-4" points="108.216 0.683 108.234 46.612 47.101 81.907 47.083 35.978 108.216 0.683"/><polygon class="cls-9" points="47.351 36.191 107.938 1.21 107.93 40.997 47.342 75.977 47.351 36.191"/></g><path class="cls-10" d="M81.662,59.49l-2.154,1.244c-.3.171-.536.07-.536-.227a1.111,1.111,0,0,1,.536-.845l2.154-1.244c.3-.171.536-.069.536.227A1.111,1.111,0,0,1,81.662,59.49Z"/><path class="cls-11" d="M67.113,89.958v.64a.413.413,0,0,0,.243.339l12.028,6.945a1.3,1.3,0,0,0,1.173,0l37.516-21.661a.411.411,0,0,0,.243-.338v-.621Z"/><path class="cls-12" d="M118.073,75.6,80.557,97.258a1.3,1.3,0,0,1-1.173,0L67.356,90.313a.357.357,0,0,1,0-.677l37.516-21.66a1.294,1.294,0,0,1,1.172,0l12.029,6.945A.357.357,0,0,1,118.073,75.6Z"/><path class="cls-4" d="M99.547,72.384a.119.119,0,0,1,0-.053.114.114,0,0,1,0-.052.169.169,0,0,1,.1-.183l1.541-.89a.6.6,0,0,1,.542,0l1.3.748a.171.171,0,0,1,.1.183.119.119,0,0,1,0,.053.114.114,0,0,1,0,.052.171.171,0,0,1-.1.183l-1.541.89a.6.6,0,0,1-.542,0l-1.3-.748A.17.17,0,0,1,99.547,72.384Zm2.591-1.253,1.3.748a.6.6,0,0,0,.542,0l1.541-.89a.17.17,0,0,0,.1-.183.114.114,0,0,0,0-.052.119.119,0,0,0,0-.053.17.17,0,0,0-.1-.183l-1.3-.748a.6.6,0,0,0-.542,0l-1.54.89a.17.17,0,0,0-.1.182.119.119,0,0,0,0,.053.119.119,0,0,0,0,.053A.171.171,0,0,0,102.138,71.131ZM97.163,74l1.3.748a.6.6,0,0,0,.542,0l1.541-.89a.171.171,0,0,0,.1-.182.157.157,0,0,0,0-.053.157.157,0,0,0,0-.053.173.173,0,0,0-.1-.183l-1.3-.748a.6.6,0,0,0-.542,0l-1.54.89a.172.172,0,0,0-.1.183.151.151,0,0,0,0,.052.157.157,0,0,0,0,.053A.172.172,0,0,0,97.163,74ZM77.111,90.784l1.3.748a.6.6,0,0,0,.542,0l1.541-.889a.171.171,0,0,0,.1-.183.119.119,0,0,0,0-.053.114.114,0,0,0,0-.052.171.171,0,0,0-.1-.183l-1.3-.748a.6.6,0,0,0-.542,0l-1.541.889a.17.17,0,0,0-.1.183.119.119,0,0,0,0,.053.114.114,0,0,0,0,.052A.17.17,0,0,0,77.111,90.784Zm5.43-8.354,1.3.748a.6.6,0,0,0,.542,0l1.541-.89a.171.171,0,0,0,.1-.182.157.157,0,0,0,0-.053.157.157,0,0,0,0-.053.171.171,0,0,0-.1-.182l-1.3-.749a.6.6,0,0,0-.542,0l-1.54.89a.172.172,0,0,0-.1.183.151.151,0,0,0,0,.052.157.157,0,0,0,0,.053A.172.172,0,0,0,82.541,82.43Zm4.975-2.872,1.3.748a.6.6,0,0,0,.542,0l1.541-.89a.169.169,0,0,0,.1-.183.114.114,0,0,0,0-.052.119.119,0,0,0,0-.053.17.17,0,0,0-.1-.183L89.6,78.2a.6.6,0,0,0-.542,0l-1.54.89a.17.17,0,0,0-.1.183.114.114,0,0,0,0,.052.119.119,0,0,0,0,.053A.171.171,0,0,0,87.516,79.558Zm4.974-2.873,1.3.748a.6.6,0,0,0,.542,0l2.343-1.352a.171.171,0,0,0,.1-.183.119.119,0,0,0,0-.053.114.114,0,0,0,0-.052.171.171,0,0,0-.1-.183l-1.3-.748a.6.6,0,0,0-.542,0L92.49,76.215a.17.17,0,0,0-.1.182.119.119,0,0,0,0,.053.119.119,0,0,0,0,.053A.17.17,0,0,0,92.49,76.685ZM90,78.121l1.3.749a.6.6,0,0,0,.542,0l1.54-.89a.171.171,0,0,0,.1-.183.114.114,0,0,0,0-.052.119.119,0,0,0,0-.053.171.171,0,0,0-.1-.183l-1.3-.748a.6.6,0,0,0-.542,0L90,77.651a.169.169,0,0,0-.1.182.119.119,0,0,0,0,.053.119.119,0,0,0,0,.053A.168.168,0,0,0,90,78.121Zm-4.975,2.873,1.3.748a.6.6,0,0,0,.542,0l1.541-.89a.171.171,0,0,0,.1-.183.114.114,0,0,0,0-.052.119.119,0,0,0,0-.053.171.171,0,0,0-.1-.183l-1.3-.748a.6.6,0,0,0-.542,0l-1.541.89a.171.171,0,0,0-.1.183.114.114,0,0,0,0,.052.119.119,0,0,0,0,.053A.171.171,0,0,0,85.028,80.994Zm10.581-3.473,1.3.748a.6.6,0,0,0,.542,0l1.54-.889a.172.172,0,0,0,.1-.183.114.114,0,0,0,0-.052.119.119,0,0,0,0-.053.172.172,0,0,0-.1-.183l-1.3-.748a.6.6,0,0,0-.542,0l-1.541.889a.171.171,0,0,0-.1.183.119.119,0,0,0,0,.053.119.119,0,0,0,0,.053A.169.169,0,0,0,95.609,77.521ZM75.71,89.01l1.3.748a.6.6,0,0,0,.542,0l1.541-.889a.17.17,0,0,0,.1-.183.119.119,0,0,0,0-.053.114.114,0,0,0,0-.052.17.17,0,0,0-.1-.183l-1.3-.748a.6.6,0,0,0-.542,0l-1.54.89a.171.171,0,0,0-.1.182.157.157,0,0,0,0,.053.157.157,0,0,0,0,.053A.171.171,0,0,0,75.71,89.01ZM93.122,78.957l1.3.749a.6.6,0,0,0,.542,0l1.541-.89a.17.17,0,0,0,.1-.183.114.114,0,0,0,0-.052.119.119,0,0,0,0-.053.17.17,0,0,0-.1-.183L95.2,77.6a.6.6,0,0,0-.542,0l-1.54.89a.17.17,0,0,0-.1.182.119.119,0,0,0,0,.053.119.119,0,0,0,0,.053A.17.17,0,0,0,93.122,78.957Zm-2.488,1.437,1.3.748a.6.6,0,0,0,.542,0l1.541-.89a.171.171,0,0,0,.1-.183.114.114,0,0,0,0-.052.119.119,0,0,0,0-.053.171.171,0,0,0-.1-.183l-1.3-.748a.6.6,0,0,0-.542,0l-1.541.89a.169.169,0,0,0-.1.183.114.114,0,0,0,0,.052.119.119,0,0,0,0,.053A.17.17,0,0,0,90.634,80.394ZM88.147,81.83l1.295.748a.6.6,0,0,0,.542,0l1.541-.89a.172.172,0,0,0,.1-.183.151.151,0,0,0,0-.052.157.157,0,0,0,0-.053.172.172,0,0,0-.1-.183l-1.3-.748a.6.6,0,0,0-.542,0l-1.54.89a.172.172,0,0,0-.1.183.151.151,0,0,0,0,.052.157.157,0,0,0,0,.053A.172.172,0,0,0,88.147,81.83ZM78.2,87.574l1.3.748a.6.6,0,0,0,.542,0l1.54-.889a.171.171,0,0,0,.1-.183.119.119,0,0,0,0-.053.114.114,0,0,0,0-.052.171.171,0,0,0-.1-.183l-1.3-.748a.6.6,0,0,0-.542,0L78.2,87.1a.171.171,0,0,0-.1.183.119.119,0,0,0,0,.053.114.114,0,0,0,0,.052A.169.169,0,0,0,78.2,87.574Zm2.487-1.436,1.3.748a.6.6,0,0,0,.542,0L84.063,86a.17.17,0,0,0,.1-.183.119.119,0,0,0,0-.053.114.114,0,0,0,0-.052.169.169,0,0,0-.1-.183c-1.906-1.1-1.262-1.081-3.379.141a.171.171,0,0,0-.1.183.119.119,0,0,0,0,.053.114.114,0,0,0,0,.052A.171.171,0,0,0,80.684,86.138ZM83.172,84.7l1.3.748a.6.6,0,0,0,.542,0l1.54-.89a.17.17,0,0,0,.1-.182.157.157,0,0,0,0-.053.157.157,0,0,0,0-.053.171.171,0,0,0-.1-.182l-1.3-.748a.6.6,0,0,0-.542,0l-1.541.889a.172.172,0,0,0-.1.183.157.157,0,0,0,0,.053.151.151,0,0,0,0,.052A.172.172,0,0,0,83.172,84.7Zm2.487-1.436c1.272.734,1.493.947,1.838.748l1.541-.89a.17.17,0,0,0,.1-.182.119.119,0,0,0,0-.053.119.119,0,0,0,0-.053.17.17,0,0,0-.1-.182l-1.3-.749a.6.6,0,0,0-.542,0l-1.541.89a.171.171,0,0,0-.1.183.114.114,0,0,0,0,.052.119.119,0,0,0,0,.053A.171.171,0,0,0,85.659,83.266Zm-4.435,9.466a.119.119,0,0,0,0-.053.114.114,0,0,0,0-.052.171.171,0,0,0-.1-.183l-1.3-.748a.6.6,0,0,0-.542,0L76.94,93.048a.171.171,0,0,0-.1.183.119.119,0,0,0,0,.053.114.114,0,0,0,0,.052.171.171,0,0,0,.1.183l1.3.748a.6.6,0,0,0,.542,0l2.343-1.352A.171.171,0,0,0,81.224,92.732ZM78.106,91.9a.157.157,0,0,0,0-.053.151.151,0,0,0,0-.052.172.172,0,0,0-.1-.183l-1.3-.748a.6.6,0,0,0-.542,0l-1.54.889a.172.172,0,0,0-.1.183.157.157,0,0,0,0,.053.151.151,0,0,0,0,.052.172.172,0,0,0,.1.183l1.3.748a.6.6,0,0,0,.542,0L78,92.079A.172.172,0,0,0,78.106,91.9Zm1.947-8.03c1.868,1.078,1.222,1.1,3.379-.141a.172.172,0,0,0,.1-.183.119.119,0,0,0,0-.053.119.119,0,0,0,0-.053.17.17,0,0,0-.1-.182l-1.3-.748a.6.6,0,0,0-.542,0l-1.541.889a.171.171,0,0,0-.1.183.119.119,0,0,0,0,.053.114.114,0,0,0,0,.052A.171.171,0,0,0,80.053,83.866Zm27.4-6.256a.119.119,0,0,0,0-.053.119.119,0,0,0,0-.053.169.169,0,0,0-.1-.182l-1.3-.748a.6.6,0,0,0-.542,0l-1.541.889a.171.171,0,0,0-.1.183.119.119,0,0,0,0,.053.114.114,0,0,0,0,.052.171.171,0,0,0,.1.183l1.3.748a.6.6,0,0,0,.542,0l1.541-.89A.168.168,0,0,0,107.453,77.61ZM76.7,90.122a.114.114,0,0,0,0-.052.119.119,0,0,0,0-.053.171.171,0,0,0-.1-.183l-1.3-.748a.6.6,0,0,0-.542,0L72.42,90.439a.17.17,0,0,0-.1.182.119.119,0,0,0,0,.053.119.119,0,0,0,0,.053.17.17,0,0,0,.1.182l1.3.749a.6.6,0,0,0,.542,0L76.6,90.305A.171.171,0,0,0,76.7,90.122Zm.862-4.82,1.3.748a.6.6,0,0,0,.542,0l1.54-.889a.172.172,0,0,0,.1-.183.157.157,0,0,0,0-.053.151.151,0,0,0,0-.052.172.172,0,0,0-.1-.183l-1.3-.748a.6.6,0,0,0-.542,0l-1.541.889a.17.17,0,0,0-.1.183.119.119,0,0,0,0,.053.114.114,0,0,0,0,.052A.169.169,0,0,0,77.566,85.3Zm-2.487,1.436,1.3.748a.6.6,0,0,0,.542,0l1.541-.889a.17.17,0,0,0,.1-.183.119.119,0,0,0,0-.053.114.114,0,0,0,0-.052.17.17,0,0,0-.1-.183l-1.3-.748a.6.6,0,0,0-.542,0l-1.54.889a.171.171,0,0,0-.1.183.119.119,0,0,0,0,.053.119.119,0,0,0,0,.053A.17.17,0,0,0,75.079,86.738Zm-1.493,2.548a.151.151,0,0,0,0-.052.157.157,0,0,0,0-.053.172.172,0,0,0-.1-.183l-1.3-.748a.6.6,0,0,0-.542,0l-1.54.89a.172.172,0,0,0-.1.183.151.151,0,0,0,0,.052.157.157,0,0,0,0,.053.173.173,0,0,0,.1.183l1.3.748a.6.6,0,0,0,.542,0l1.541-.89A.172.172,0,0,0,73.586,89.286Zm-1-1.112,1.3.748a.6.6,0,0,0,.542,0l1.541-.889a.171.171,0,0,0,.1-.183.119.119,0,0,0,0-.053.114.114,0,0,0,0-.052.171.171,0,0,0-.1-.183l-1.3-.748a.6.6,0,0,0-.542,0l-1.541.89a.169.169,0,0,0-.1.182.119.119,0,0,0,0,.053.119.119,0,0,0,0,.053A.169.169,0,0,0,72.591,88.174ZM114.7,75.945a.171.171,0,0,0-.1-.183l-1.3-.748a.6.6,0,0,0-.542,0l-1.541.89a.171.171,0,0,0-.1.183.114.114,0,0,0,0,.052.119.119,0,0,0,0,.053.171.171,0,0,0,.1.183l1.3.748a.6.6,0,0,0,.542,0l1.541-.89a.171.171,0,0,0,.1-.183.114.114,0,0,0,0-.052A.119.119,0,0,0,114.7,75.945Zm-8.983-2.4-1.706-.985a.748.748,0,0,0-.674,0l-3.9,2.254a.217.217,0,0,0-.131.221.157.157,0,0,0,0,.053.151.151,0,0,0,0,.052.217.217,0,0,0,.131.221l3.4,1.965a.748.748,0,0,0,.674,0l6.476-3.739a.214.214,0,0,0,.13-.221.157.157,0,0,0,0-.053.151.151,0,0,0,0-.052.214.214,0,0,0-.13-.221l-1.267-.731a.5.5,0,0,0-.448,0L106.1,73.543A.421.421,0,0,1,105.719,73.542Zm-2.212,5.977-1.3-.748a.6.6,0,0,0-.542,0l-1.541.889a.17.17,0,0,0-.1.183.119.119,0,0,0,0,.053.114.114,0,0,0,0,.052.17.17,0,0,0,.1.183l1.3.748a.6.6,0,0,0,.542,0l1.54-.889a.171.171,0,0,0,.1-.183.119.119,0,0,0,0-.053.119.119,0,0,0,0-.053A.17.17,0,0,0,103.507,79.519Zm6.33-3.633-1.3-.749a.6.6,0,0,0-.542,0l-1.541.89a.17.17,0,0,0-.1.183.114.114,0,0,0,0,.052.119.119,0,0,0,0,.053.17.17,0,0,0,.1.183l1.3.748a.6.6,0,0,0,.542,0l1.54-.89a.171.171,0,0,0,.1-.182.157.157,0,0,0,0-.053.157.157,0,0,0,0-.053A.171.171,0,0,0,109.837,75.886Zm-11.3,6.505-1.3-.748a.6.6,0,0,0-.542,0l-1.541.889a.171.171,0,0,0-.1.183.119.119,0,0,0,0,.053.114.114,0,0,0,0,.052.171.171,0,0,0,.1.183l1.3.748a.6.6,0,0,0,.542,0l1.541-.889a.171.171,0,0,0,.1-.183.119.119,0,0,0,0-.053.114.114,0,0,0,0-.052A.171.171,0,0,0,98.533,82.391Zm10.31-7.617a.114.114,0,0,0,0,.052.119.119,0,0,0,0,.053.171.171,0,0,0,.1.183l1.3.748a.6.6,0,0,0,.542,0l1.541-.89a.171.171,0,0,0,.1-.183.114.114,0,0,0,0-.052.119.119,0,0,0,0-.053.171.171,0,0,0-.1-.183l-1.3-.748a.6.6,0,0,0-.542,0l-1.541.89A.171.171,0,0,0,108.843,74.774ZM88.583,88.136l-1.3-.749a.6.6,0,0,0-.542,0l-1.54.89a.171.171,0,0,0-.1.183.114.114,0,0,0,0,.052.119.119,0,0,0,0,.053.171.171,0,0,0,.1.183l1.3.748a.6.6,0,0,0,.542,0l1.541-.89a.169.169,0,0,0,.1-.183.114.114,0,0,0,0-.052.119.119,0,0,0,0-.053A.168.168,0,0,0,88.583,88.136Zm4.975-2.873-1.3-.748a.6.6,0,0,0-.542,0l-1.541.89a.17.17,0,0,0-.1.182.119.119,0,0,0,0,.053.119.119,0,0,0,0,.053.172.172,0,0,0,.1.183l1.3.748a.6.6,0,0,0,.542,0l1.541-.89a.171.171,0,0,0,.1-.183.114.114,0,0,0,0-.052.119.119,0,0,0,0-.053A.171.171,0,0,0,93.558,85.263ZM91.07,86.7l-1.295-.748a.6.6,0,0,0-.542,0l-1.541.89a.169.169,0,0,0-.1.183.114.114,0,0,0,0,.052.119.119,0,0,0,0,.053.17.17,0,0,0,.1.183l1.3.748a.6.6,0,0,0,.542,0l1.54-.89a.172.172,0,0,0,.1-.183.151.151,0,0,0,0-.052.157.157,0,0,0,0-.053A.172.172,0,0,0,91.07,86.7ZM86.1,89.572l-1.3-.748a.6.6,0,0,0-.542,0l-1.541.889a.17.17,0,0,0-.1.183.119.119,0,0,0,0,.053.114.114,0,0,0,0,.052.17.17,0,0,0,.1.183l1.3.748a.6.6,0,0,0,.542,0l1.541-.89a.17.17,0,0,0,.1-.182.119.119,0,0,0,0-.053.119.119,0,0,0,0-.053A.17.17,0,0,0,86.1,89.572Zm-2.488,1.436-1.3-.748a.6.6,0,0,0-.542,0l-1.54.889a.172.172,0,0,0-.1.183.157.157,0,0,0,0,.053.151.151,0,0,0,0,.052.172.172,0,0,0,.1.183l1.3.748a.6.6,0,0,0,.542,0l1.541-.889a.173.173,0,0,0,.1-.183.157.157,0,0,0,0-.053.157.157,0,0,0,0-.053A.171.171,0,0,0,83.608,91.008Zm12.437-7.181-1.3-.748a.6.6,0,0,0-.543,0l-1.54.89a.171.171,0,0,0-.1.182.157.157,0,0,0,0,.053.157.157,0,0,0,0,.053.171.171,0,0,0,.1.182l1.3.749a.6.6,0,0,0,.542,0l1.541-.89a.172.172,0,0,0,.1-.183.157.157,0,0,0,0-.053.151.151,0,0,0,0-.052A.172.172,0,0,0,96.045,83.827Zm4.975-2.872-1.3-.748a.6.6,0,0,0-.542,0l-1.54.889a.171.171,0,0,0-.1.183.119.119,0,0,0,0,.053.114.114,0,0,0,0,.052.17.17,0,0,0,.1.183l1.3.748a.6.6,0,0,0,.542,0l1.541-.889a.17.17,0,0,0,.1-.183.119.119,0,0,0,0-.053.114.114,0,0,0,0-.052A.17.17,0,0,0,101.02,80.955ZM87.488,91.34l-1.3-.748a.6.6,0,0,0-.542,0l-1.541.889a.171.171,0,0,0-.1.183.119.119,0,0,0,0,.053.119.119,0,0,0,0,.053.17.17,0,0,0,.1.182l1.3.748a.6.6,0,0,0,.542,0l1.541-.889a.171.171,0,0,0,.1-.183.119.119,0,0,0,0-.053.114.114,0,0,0,0-.052A.171.171,0,0,0,87.488,91.34ZM89.975,89.9l-1.3-.748a.6.6,0,0,0-.542,0l-1.54.889a.172.172,0,0,0-.1.183.157.157,0,0,0,0,.053.151.151,0,0,0,0,.052.172.172,0,0,0,.1.183l1.3.748a.6.6,0,0,0,.542,0l1.541-.889a.172.172,0,0,0,.1-.183.157.157,0,0,0,0-.053.151.151,0,0,0,0-.052A.172.172,0,0,0,89.975,89.9ZM85,92.776l-1.3-.748a.6.6,0,0,0-.542,0l-1.541.89a.171.171,0,0,0-.1.182.157.157,0,0,0,0,.053.157.157,0,0,0,0,.053.171.171,0,0,0,.1.182l1.3.748a.6.6,0,0,0,.542,0L85,93.247a.172.172,0,0,0,.1-.183.157.157,0,0,0,0-.053.151.151,0,0,0,0-.052A.172.172,0,0,0,85,92.776Zm-2.487,1.436-1.3-.748a.6.6,0,0,0-.542,0l-1.541.89a.171.171,0,0,0-.1.183.114.114,0,0,0,0,.052.119.119,0,0,0,0,.053.17.17,0,0,0,.1.182l1.3.749a.6.6,0,0,0,.542,0l1.541-.89a.17.17,0,0,0,.1-.183.114.114,0,0,0,0-.052.119.119,0,0,0,0-.053A.17.17,0,0,0,82.513,94.212ZM101.191,78.22l-1.3-.748a.6.6,0,0,0-.542,0L97.01,78.824a.171.171,0,0,0-.1.183.119.119,0,0,0,0,.053.114.114,0,0,0,0,.052.171.171,0,0,0,.1.183l1.3.748a.6.6,0,0,0,.542,0l2.343-1.352a.171.171,0,0,0,.1-.183.119.119,0,0,0,0-.053.114.114,0,0,0,0-.052A.171.171,0,0,0,101.191,78.22Zm4.5,2.613-1.3-.748a.6.6,0,0,0-.542,0l-2.343,1.352a.171.171,0,0,0-.1.183.119.119,0,0,0,0,.053.114.114,0,0,0,0,.052.171.171,0,0,0,.1.183l1.3.748a.6.6,0,0,0,.542,0l2.343-1.353a.17.17,0,0,0,.1-.182.119.119,0,0,0,0-.053.119.119,0,0,0,0-.053A.17.17,0,0,0,105.687,80.833Zm6.424-3.635-1.3-.748a.6.6,0,0,0-.542,0l-1.541.89a.172.172,0,0,0-.1.183.151.151,0,0,0,0,.052.157.157,0,0,0,0,.053.172.172,0,0,0,.1.183l1.3.748a.6.6,0,0,0,.542,0l1.54-.89a.172.172,0,0,0,.1-.183.151.151,0,0,0,0-.052.157.157,0,0,0,0-.053A.172.172,0,0,0,112.111,77.2Zm-2.487,1.437-1.3-.749a.6.6,0,0,0-.542,0l-1.541.89a.171.171,0,0,0-.1.183.114.114,0,0,0,0,.052.119.119,0,0,0,0,.053.171.171,0,0,0,.1.183l1.3.748a.6.6,0,0,0,.542,0l1.541-.89a.169.169,0,0,0,.1-.182.119.119,0,0,0,0-.053.119.119,0,0,0,0-.053A.169.169,0,0,0,109.624,78.635Zm-7.171,4.09-1.3-.748a.6.6,0,0,0-.542,0L89.1,88.628a.171.171,0,0,0-.1.183.119.119,0,0,0,0,.053.114.114,0,0,0,0,.052.171.171,0,0,0,.1.183l1.3.748a.6.6,0,0,0,.542,0l11.52-6.651a.169.169,0,0,0,.1-.183.114.114,0,0,0,0-.052.119.119,0,0,0,0-.053A.17.17,0,0,0,102.453,82.725Zm-9.526.266-1.3-.748a.6.6,0,0,0-.542,0l-1.541.89a.17.17,0,0,0-.1.182.119.119,0,0,0,0,.053.119.119,0,0,0,0,.053.17.17,0,0,0,.1.182l1.3.748a.6.6,0,0,0,.542,0l1.541-.889a.171.171,0,0,0,.1-.183.114.114,0,0,0,0-.052.119.119,0,0,0,0-.053A.171.171,0,0,0,92.927,82.991Zm-2.488,1.436-1.295-.748a.6.6,0,0,0-.542,0l-1.541.89a.172.172,0,0,0-.1.183.151.151,0,0,0,0,.052.157.157,0,0,0,0,.053.172.172,0,0,0,.1.183l1.295.748a.6.6,0,0,0,.543,0l1.54-.89a.172.172,0,0,0,.1-.183.151.151,0,0,0,0-.052.157.157,0,0,0,0-.053A.172.172,0,0,0,90.439,84.427Zm4.975-2.872-1.3-.748a.6.6,0,0,0-.542,0l-1.54.89a.17.17,0,0,0-.1.182.119.119,0,0,0,0,.053.114.114,0,0,0,0,.052.172.172,0,0,0,.1.183l1.3.748a.6.6,0,0,0,.542,0l1.541-.889a.17.17,0,0,0,.1-.183.119.119,0,0,0,0-.053.114.114,0,0,0,0-.052A.17.17,0,0,0,95.414,81.555Zm8.888-9.4a.157.157,0,0,0,0,.053.151.151,0,0,0,0,.052.172.172,0,0,0,.1.183l1.3.748a.6.6,0,0,0,.542,0l1.54-.889a.172.172,0,0,0,.1-.183.157.157,0,0,0,0-.053.151.151,0,0,0,0-.052.172.172,0,0,0-.1-.183l-1.3-.748a.6.6,0,0,0-.542,0l-1.541.889A.172.172,0,0,0,104.3,72.152Zm-6.4,7.967-1.3-.748a.6.6,0,0,0-.542,0l-1.541.889a.17.17,0,0,0-.1.183.119.119,0,0,0,0,.053.114.114,0,0,0,0,.052.169.169,0,0,0,.1.183l1.3.748a.6.6,0,0,0,.542,0l1.54-.889a.171.171,0,0,0,.1-.183.119.119,0,0,0,0-.053.114.114,0,0,0,0-.052A.17.17,0,0,0,97.9,80.119Zm-9.949,5.744-1.3-.748a.6.6,0,0,0-.542,0l-1.541.89a.171.171,0,0,0-.1.183.114.114,0,0,0,0,.052.119.119,0,0,0,0,.053.171.171,0,0,0,.1.183l1.3.748a.6.6,0,0,0,.542,0l1.541-.89a.171.171,0,0,0,.1-.183.114.114,0,0,0,0-.052.119.119,0,0,0,0-.053A.171.171,0,0,0,87.952,85.863Zm-4.975,2.873-1.3-.748a.6.6,0,0,0-.542,0l-1.54.889a.171.171,0,0,0-.1.183.119.119,0,0,0,0,.053.114.114,0,0,0,0,.052.171.171,0,0,0,.1.183l1.3.748a.6.6,0,0,0,.542,0l1.541-.889a.171.171,0,0,0,.1-.183.119.119,0,0,0,0-.053.119.119,0,0,0,0-.053A.169.169,0,0,0,82.977,88.736ZM85.464,87.3l-1.3-.749a.6.6,0,0,0-.542,0l-1.541.89a.17.17,0,0,0-.1.183.114.114,0,0,0,0,.052.119.119,0,0,0,0,.053.17.17,0,0,0,.1.183l1.3.748a.6.6,0,0,0,.542,0l1.54-.89a.171.171,0,0,0,.1-.182.119.119,0,0,0,0-.053.119.119,0,0,0,0-.053A.171.171,0,0,0,85.464,87.3Z"/><path class="cls-13" d="M73.482,89.243l-1.541.889a.6.6,0,0,1-.542,0l-1.3-.748a.165.165,0,0,1,0-.313l1.54-.889a.6.6,0,0,1,.542,0l1.3.748A.165.165,0,0,1,73.482,89.243Zm2.488-1.749-1.3-.748a.6.6,0,0,0-.542,0l-1.541.889a.165.165,0,0,0,0,.313l1.3.748a.6.6,0,0,0,.542,0l1.541-.889A.165.165,0,0,0,75.97,87.494Zm2.487-1.436-1.3-.749a.6.6,0,0,0-.542,0l-1.54.89a.165.165,0,0,0,0,.313l1.3.748a.6.6,0,0,0,.542,0l1.541-.89A.164.164,0,0,0,78.457,86.058Zm2.487-1.437-1.3-.748a.6.6,0,0,0-.542,0l-1.541.89a.165.165,0,0,0,0,.313l1.3.748a.6.6,0,0,0,.542,0l1.54-.89A.165.165,0,0,0,80.944,84.621Zm2.488-1.436-1.3-.748a.6.6,0,0,0-.542,0l-1.541.89a.165.165,0,0,0,0,.313l1.3.748a.6.6,0,0,0,.542,0l1.541-.89A.165.165,0,0,0,83.432,83.185Zm2.487-1.436L84.624,81a.6.6,0,0,0-.543,0l-1.54.89a.165.165,0,0,0,0,.313l1.3.748a.6.6,0,0,0,.542,0l1.541-.89A.165.165,0,0,0,85.919,81.749Zm2.488-1.436-1.3-.748a.6.6,0,0,0-.542,0l-1.541.889a.165.165,0,0,0,0,.313l1.3.749a.6.6,0,0,0,.542,0l1.541-.89A.165.165,0,0,0,88.407,80.313Zm2.487-1.436-1.3-.748a.6.6,0,0,0-.542,0l-1.54.889a.165.165,0,0,0,0,.313l1.3.748a.6.6,0,0,0,.542,0l1.541-.889A.165.165,0,0,0,90.894,78.877Zm2.487-1.436-1.3-.748a.6.6,0,0,0-.542,0L90,77.582a.165.165,0,0,0,0,.313l1.3.748a.6.6,0,0,0,.542,0l1.54-.889A.165.165,0,0,0,93.381,77.441Zm3.29-1.9-1.3-.748a.6.6,0,0,0-.542,0L92.49,76.146a.165.165,0,0,0,0,.313l1.3.748a.6.6,0,0,0,.542,0l2.343-1.352A.165.165,0,0,0,96.671,75.542Zm10.679,1.711-1.3-.748a.6.6,0,0,0-.542,0l-1.541.89a.165.165,0,0,0,0,.313l1.3.748a.6.6,0,0,0,.542,0l1.541-.89A.165.165,0,0,0,107.35,77.253Zm2.487-1.436-1.3-.748a.6.6,0,0,0-.542,0l-1.541.89a.164.164,0,0,0,0,.312l1.3.749a.6.6,0,0,0,.542,0l1.54-.89A.165.165,0,0,0,109.837,75.817Zm2.488-1.436-1.3-.748a.6.6,0,0,0-.542,0l-1.541.889a.165.165,0,0,0,0,.313l1.3.748a.6.6,0,0,0,.542,0l1.541-.889A.165.165,0,0,0,112.325,74.381Zm-2.7,4.185-1.3-.748a.6.6,0,0,0-.542,0l-1.541.89a.165.165,0,0,0,0,.313l1.3.748a.6.6,0,0,0,.542,0l1.541-.89A.165.165,0,0,0,109.624,78.566Zm2.487-1.436-1.3-.748a.6.6,0,0,0-.542,0l-1.541.889a.165.165,0,0,0,0,.313l1.3.748a.6.6,0,0,0,.542,0l1.54-.889A.165.165,0,0,0,112.111,77.13Zm2.488-1.436-1.3-.748a.6.6,0,0,0-.542,0l-1.541.889a.165.165,0,0,0,0,.313l1.3.748a.6.6,0,0,0,.542,0l1.541-.889A.165.165,0,0,0,114.6,75.694Zm-38,14.072-1.3-.748a.6.6,0,0,0-.542,0L72.42,90.37a.165.165,0,0,0,0,.313l1.3.748a.6.6,0,0,0,.542,0L76.6,90.079A.165.165,0,0,0,76.6,89.766Zm2.487-1.436-1.3-.748a.6.6,0,0,0-.542,0l-1.54.889a.165.165,0,0,0,0,.313l1.3.748a.6.6,0,0,0,.542,0l1.541-.889A.165.165,0,0,0,79.088,88.33Zm2.487-1.436-1.3-.749a.6.6,0,0,0-.542,0l-1.541.89a.165.165,0,0,0,0,.313l1.3.748a.6.6,0,0,0,.542,0l1.54-.889A.165.165,0,0,0,81.575,86.894Zm2.488-1.437-1.3-.748a.6.6,0,0,0-.542,0l-1.541.89a.165.165,0,0,0,0,.313l1.3.748a.6.6,0,0,0,.542,0l1.541-.89A.165.165,0,0,0,84.063,85.457Zm2.487-1.436-1.3-.748a.6.6,0,0,0-.542,0l-1.541.89a.165.165,0,0,0,0,.313l1.3.748a.6.6,0,0,0,.542,0l1.54-.89A.165.165,0,0,0,86.55,84.021Zm2.488-1.436-1.3-.748a.6.6,0,0,0-.542,0l-1.541.89a.165.165,0,0,0,0,.313l1.3.748a.6.6,0,0,0,.542,0l1.541-.89A.165.165,0,0,0,89.038,82.585Zm2.487-1.436-1.3-.748a.6.6,0,0,0-.542,0l-1.54.889a.165.165,0,0,0,0,.313l1.295.748a.6.6,0,0,0,.542,0l1.541-.889A.165.165,0,0,0,91.525,81.149Zm2.488-1.436-1.3-.748a.6.6,0,0,0-.542,0l-1.541.889a.165.165,0,0,0,0,.313l1.3.748a.6.6,0,0,0,.542,0l1.541-.889A.165.165,0,0,0,94.013,79.713ZM96.5,78.277l-1.3-.748a.6.6,0,0,0-.542,0l-1.54.889a.165.165,0,0,0,0,.313l1.3.748a.6.6,0,0,0,.542,0L96.5,78.59A.165.165,0,0,0,96.5,78.277Zm2.487-1.436-1.3-.748a.6.6,0,0,0-.542,0l-1.541.889a.165.165,0,0,0,0,.313l1.3.748a.6.6,0,0,0,.542,0l1.54-.889A.165.165,0,0,0,98.987,76.841ZM78,91.539l-1.3-.748a.6.6,0,0,0-.542,0l-1.54.89a.165.165,0,0,0,0,.313l1.3.748a.6.6,0,0,0,.542,0L78,91.852A.165.165,0,0,0,78,91.539ZM80.49,90.1l-1.3-.748a.6.6,0,0,0-.542,0l-1.541.89a.165.165,0,0,0,0,.313l1.3.748a.6.6,0,0,0,.542,0l1.541-.89A.165.165,0,0,0,80.49,90.1Zm2.487-1.436-1.3-.748a.6.6,0,0,0-.542,0l-1.54.89a.165.165,0,0,0,0,.313l1.3.748a.6.6,0,0,0,.542,0l1.541-.89A.165.165,0,0,0,82.977,88.667Zm2.487-1.436-1.3-.748a.6.6,0,0,0-.542,0l-1.541.89a.165.165,0,0,0,0,.313l1.3.748a.6.6,0,0,0,.542,0l1.54-.89A.165.165,0,0,0,85.464,87.231Zm-2.951,6.913-1.3-.748a.6.6,0,0,0-.542,0l-1.541.889a.165.165,0,0,0,0,.313l1.3.748a.6.6,0,0,0,.542,0l1.541-.889A.165.165,0,0,0,82.513,94.144ZM85,92.708l-1.3-.748a.6.6,0,0,0-.542,0l-1.541.889a.165.165,0,0,0,0,.313l1.3.748a.6.6,0,0,0,.542,0L85,93.021A.165.165,0,0,0,85,92.708Zm2.488-1.436-1.3-.749a.6.6,0,0,0-.542,0l-1.541.89a.165.165,0,0,0,0,.313l1.3.748a.6.6,0,0,0,.542,0l1.541-.89A.165.165,0,0,0,87.488,91.272Zm2.487-1.437-1.3-.748a.6.6,0,0,0-.542,0l-1.54.89a.165.165,0,0,0,0,.313l1.3.748a.6.6,0,0,0,.542,0l1.541-.89A.165.165,0,0,0,89.975,89.835Zm15.712-9.071-1.3-.748a.6.6,0,0,0-.542,0l-2.343,1.353a.165.165,0,0,0,0,.313l1.3.748a.6.6,0,0,0,.542,0l2.343-1.353A.165.165,0,0,0,105.687,80.764ZM87.952,85.8l-1.3-.748a.6.6,0,0,0-.542,0l-1.541.889a.165.165,0,0,0,0,.313l1.3.748a.6.6,0,0,0,.542,0l1.541-.889A.165.165,0,0,0,87.952,85.8Zm2.487-1.436-1.295-.748a.6.6,0,0,0-.542,0l-1.541.889a.165.165,0,0,0,0,.313l1.295.748a.6.6,0,0,0,.543,0l1.54-.889A.165.165,0,0,0,90.439,84.359Zm2.488-1.436-1.3-.748a.6.6,0,0,0-.542,0l-1.541.889a.165.165,0,0,0,0,.313l1.3.748a.6.6,0,0,0,.542,0l1.541-.889A.165.165,0,0,0,92.927,82.923Zm2.487-1.436-1.3-.748a.6.6,0,0,0-.542,0l-1.54.889a.165.165,0,0,0,0,.313l1.3.748a.6.6,0,0,0,.542,0l1.541-.889A.165.165,0,0,0,95.414,81.487ZM97.9,80.05l-1.3-.748a.6.6,0,0,0-.542,0l-1.541.89a.165.165,0,0,0,0,.313l1.3.748a.6.6,0,0,0,.542,0l1.54-.89A.165.165,0,0,0,97.9,80.05Zm3.29-1.9L99.9,77.4a.6.6,0,0,0-.542,0L97.01,78.756a.165.165,0,0,0,0,.313l1.3.748a.6.6,0,0,0,.542,0l2.343-1.353A.165.165,0,0,0,101.191,78.151ZM81.121,92.376l-1.3-.749a.6.6,0,0,0-.542,0L76.94,92.98a.165.165,0,0,0,0,.313l1.3.748a.6.6,0,0,0,.542,0l2.343-1.353A.165.165,0,0,0,81.121,92.376Zm2.487-1.437-1.3-.748a.6.6,0,0,0-.542,0l-1.54.89a.165.165,0,0,0,0,.313l1.3.748a.6.6,0,0,0,.542,0l1.541-.89A.165.165,0,0,0,83.608,90.939ZM86.1,89.5l-1.3-.748a.6.6,0,0,0-.542,0l-1.541.89a.165.165,0,0,0,0,.313l1.3.748a.6.6,0,0,0,.542,0l1.541-.89A.165.165,0,0,0,86.1,89.5Zm2.487-1.436-1.3-.748a.6.6,0,0,0-.542,0l-1.54.89a.164.164,0,0,0,0,.312l1.3.749a.6.6,0,0,0,.542,0l1.541-.89A.165.165,0,0,0,88.583,88.067Zm2.487-1.436-1.295-.748a.6.6,0,0,0-.542,0l-1.541.889a.165.165,0,0,0,0,.313l1.3.748a.6.6,0,0,0,.542,0l1.54-.889A.165.165,0,0,0,91.07,86.631Zm11.383-3.974-1.3-.748a.6.6,0,0,0-.542,0L89.1,88.56a.165.165,0,0,0,0,.313l1.3.748a.6.6,0,0,0,.542,0l11.52-6.651A.165.165,0,0,0,102.453,82.657ZM93.558,85.2l-1.3-.748a.6.6,0,0,0-.542,0l-1.541.889a.165.165,0,0,0,0,.313l1.3.748a.6.6,0,0,0,.542,0l1.541-.889A.165.165,0,0,0,93.558,85.2Zm2.487-1.436-1.3-.748a.6.6,0,0,0-.543,0l-1.54.889a.165.165,0,0,0,0,.313l1.3.748a.6.6,0,0,0,.542,0l1.541-.889A.165.165,0,0,0,96.045,83.759Zm2.488-1.436-1.3-.749a.6.6,0,0,0-.542,0l-1.541.89a.165.165,0,0,0,0,.313l1.3.748a.6.6,0,0,0,.542,0l1.541-.889A.165.165,0,0,0,98.533,82.323Zm2.487-1.437-1.3-.748a.6.6,0,0,0-.542,0l-1.54.89a.165.165,0,0,0,0,.313l1.3.748a.6.6,0,0,0,.542,0l1.541-.89A.165.165,0,0,0,101.02,80.886Zm2.487-1.436-1.3-.748a.6.6,0,0,0-.542,0l-1.541.89a.165.165,0,0,0,0,.313l1.3.748a.6.6,0,0,0,.542,0l1.54-.89A.165.165,0,0,0,103.507,79.45Zm-2.966-6.128-1.3-.748a.6.6,0,0,0-.542,0l-1.54.89a.164.164,0,0,0,0,.312l1.3.749a.6.6,0,0,0,.542,0l1.541-.89A.165.165,0,0,0,100.541,73.322Zm2.488-1.436-1.3-.748a.6.6,0,0,0-.542,0l-1.541.89a.164.164,0,0,0,0,.312l1.3.748a.6.6,0,0,0,.542,0l1.541-.889A.165.165,0,0,0,103.029,71.886Zm2.487-1.436-1.3-.748a.6.6,0,0,0-.542,0l-1.541.889a.165.165,0,0,0,0,.313l1.3.748a.6.6,0,0,0,.542,0l1.541-.889A.165.165,0,0,0,105.516,70.45Zm2.268,1.31-1.3-.749a.6.6,0,0,0-.542,0l-1.541.89a.165.165,0,0,0,0,.313l1.3.748a.6.6,0,0,0,.542,0l1.54-.889A.165.165,0,0,0,107.784,71.76Zm2.2,1.208-1.267-.731a.5.5,0,0,0-.448,0L106.1,73.474a.421.421,0,0,1-.379,0l-1.706-.985a.742.742,0,0,0-.674,0l-3.9,2.254a.205.205,0,0,0,0,.389l3.4,1.964a.742.742,0,0,0,.674,0l6.476-3.738A.206.206,0,0,0,109.988,72.968Z"/><polygon class="cls-14" points="114.844 44.838 54.33 79.776 54.33 42.364 114.844 7.426 114.844 44.838"/><polygon class="cls-15" points="54.332 39.702 54.332 45.939 114.844 11.003 114.844 4.765 54.332 39.702"/><polygon class="cls-16" points="84.124 42.792 82.105 43.473 79.82 44.909 77.647 45.464 74.992 48.055 71.907 49.442 68.247 54.174 64.767 56.668 61.789 59.787 59.241 61.849 57.357 66.094 57.357 75.007 88.133 57.244 88.133 41.88 85.496 43.399 84.124 42.792"/><path class="cls-17" d="M85.53,43.3l-1.365-.6-2.052.692-2.282,1.435-2.186.558-2.663,2.6-3.1,1.392-3.669,4.745-3.461,2.479L61.77,59.718l-2.581,2.09-2.048,4.617.139,0,2.013-4.538,2.53-2.05,2.967-3.107,3.468-2.485,3.67-4.734,3.054-1.373c.021-.009,2.668-2.593,2.668-2.593L79.8,45c.014,0,2.3-1.443,2.3-1.443l1.984-.669,1.38.61,2.671-1.538V41.8Z"/><polygon class="cls-18" points="84.393 46.79 81.989 47.747 79.82 49.609 77.109 51.174 74.481 54.082 71.476 56.113 68.247 59.484 64.085 62.999 61.358 66.368 59.098 68.247 57.357 70.22 57.357 74.999 88.133 57.244 88.133 44.63 84.393 46.79"/><path class="cls-19" d="M84.407,46.7l-2.4.957c-.018.008-2.194,1.876-2.194,1.876l-2.7,1.559-2.652,2.923-2.989,2.02-3.242,3.381-4.162,3.515-2.739,3.379L59.078,68.18,57.2,70.308l.078.1,1.851-2.1,2.25-1.871,2.74-3.379,4.163-3.517L71.5,56.179l2.991-2.021,2.64-2.915L79.82,49.69l2.173-1.862,2.4-.957,3.74-2.16V44.55Z"/><polygon class="cls-20" points="84.393 52.126 81.989 52.869 79.82 55.497 76.571 58.186 74.481 58.298 71.691 60.689 69.359 64.421 64.48 67.239 60.461 71.312 58.703 73.659 57.357 74.436 57.357 75.01 88.133 57.244 88.133 49.966 84.393 52.126"/><polygon class="cls-21" points="84.403 52.039 81.976 52.789 79.788 55.44 76.581 58.094 74.49 58.206 71.649 60.641 69.325 64.36 64.48 67.158 60.412 71.276 58.676 73.594 57.293 74.393 57.293 74.554 58.73 73.724 60.493 71.368 64.496 67.31 69.393 64.482 71.734 60.736 74.472 58.39 76.561 58.277 79.839 55.564 82.002 52.949 84.372 52.216 88.133 50.047 88.133 49.886 84.403 52.039"/><polygon class="cls-22" points="57.353 74.905 57.353 54.427 56.905 54.686 56.905 54.901 57.138 54.766 57.138 57.964 56.905 58.099 56.905 58.314 57.138 58.18 57.138 61.377 56.905 61.512 56.905 61.727 57.138 61.592 57.138 64.79 56.905 64.925 56.905 65.14 57.138 65.006 57.138 68.203 56.905 68.338 56.905 68.553 57.138 68.419 57.138 71.616 56.905 71.751 56.905 71.966 57.138 71.832 57.138 75.245 60.609 73.24 60.609 73.517 60.825 73.392 60.825 73.116 64.022 71.27 64.022 71.546 64.237 71.422 64.237 71.146 67.435 69.299 67.435 69.576 67.651 69.451 67.651 69.175 70.848 67.329 70.848 67.605 71.064 67.481 71.064 67.205 74.261 65.359 74.261 65.635 74.477 65.511 74.477 65.234 77.674 63.388 77.674 63.664 77.89 63.54 77.89 63.264 81.088 61.417 81.088 61.694 81.303 61.569 81.303 61.293 84.501 59.447 84.501 59.723 84.716 59.599 84.716 59.323 87.914 57.476 87.914 57.753 88.129 57.628 88.129 57.137 57.353 74.905"/><path class="cls-22" d="M58.582,51.842l.224-.129c.03.014.03.08.03.08a.052.052,0,0,1-.03.047l-.224.129V52.2a.055.055,0,0,1-.031.05l-.07.04c-.03-.014-.03-.241-.03-.241l-.226.13c-.029-.012-.029-.078-.029-.078a.056.056,0,0,1,.029-.049l.226-.13v-.225a.052.052,0,0,1,.03-.048l.07-.041C58.582,51.617,58.582,51.842,58.582,51.842Z"/><path class="cls-22" d="M59.027,52.126v-.144a.362.362,0,0,1,.083-.211l.3-.412a.312.312,0,0,0,.075-.181v-.051q0-.113-.117-.045l-.076.044a.246.246,0,0,0-.087.076.193.193,0,0,0-.026.1v.058a.048.048,0,0,1-.027.043l-.1.058c-.027-.013-.027-.074-.027-.074a.389.389,0,0,1,.065-.214.5.5,0,0,1,.18-.166l.122-.071a.215.215,0,0,1,.178-.04c.043.017.064.064.064.14V51.1a.447.447,0,0,1-.095.255l-.3.42a.161.161,0,0,0-.036.091v.05l.407-.235c.028.01.028.093.028.093a.048.048,0,0,1-.028.043l-.549.317C59.036,52.147,59.027,52.144,59.027,52.126Z"/><path class="cls-22" d="M59.942,51.406v.122a.341.341,0,0,1-.029.111l-.084.2c-.045.015-.045-.341-.045-.341a.046.046,0,0,1,.027-.041l.106-.061C59.934,51.386,59.942,51.39,59.942,51.406Z"/><path class="cls-22" d="M60.51,51.3l-.156.09a.213.213,0,0,1-.18.04c-.043-.018-.064-.065-.064-.141v-.522a.392.392,0,0,1,.064-.216.51.51,0,0,1,.18-.167l.156-.09a.214.214,0,0,1,.179-.04c.043.017.064.065.064.142v.521a.4.4,0,0,1-.064.216A.506.506,0,0,1,60.51,51.3Zm-.133-.056.111-.065a.2.2,0,0,0,.113-.181v-.508c0-.077-.037-.094-.113-.051l-.111.064a.2.2,0,0,0-.112.181v.509C60.265,51.266,60.3,51.283,60.377,51.24Z"/><path class="cls-22" d="M60.889,50.316v-.092a.075.075,0,0,1,.022-.05l.163-.193a.216.216,0,0,1,.05-.046l.094-.054c.026.011.026.964.026.964a.044.044,0,0,1-.025.041l-.1.059c-.027-.011-.027-.828-.027-.828l-.17.2C60.9,50.336,60.889,50.336,60.889,50.316Z"/><path class="cls-22" d="M61.789,50.025l-.1.056a.2.2,0,0,0-.049.04c-.037.069-.052.089-.068.1l-.1.057a3.34,3.34,0,0,1-.026-.5.045.045,0,0,1,.026-.042l.531-.306c.028.01.028.1.028.1a.05.05,0,0,1-.028.043l-.4.233v.285a.266.266,0,0,1,.131-.153l.093-.053A.213.213,0,0,1,62,49.839c.039.017.059.063.059.139v.182a.394.394,0,0,1-.064.215.512.512,0,0,1-.178.167l-.133.077a.21.21,0,0,1-.179.039c-.043-.018-.064-.065-.064-.142,0-.059.009-.073.027-.084l.1-.056c.027.127.064.144.14.1l.089-.051a.2.2,0,0,0,.116-.181v-.158c0-.047-.009-.075-.028-.085S61.833,50,61.789,50.025Z"/><polygon class="cls-23" points="57.367 52.206 56.796 53.523 57.937 52.864 57.367 52.206"/><path class="cls-22" d="M65.125,48.065l.224-.129c.03.014.03.079.03.079a.054.054,0,0,1-.03.048l-.224.129v.227a.054.054,0,0,1-.031.049l-.07.041c-.03-.014-.03-.241-.03-.241l-.226.13c-.029-.013-.029-.079-.029-.079a.053.053,0,0,1,.029-.048l.226-.13v-.226a.053.053,0,0,1,.03-.048l.07-.041C65.125,47.839,65.125,48.065,65.125,48.065Z"/><path class="cls-22" d="M65.92,47.64l-.1.056a.2.2,0,0,0-.049.04c-.037.069-.051.089-.068.1l-.1.056a3.32,3.32,0,0,1-.026-.5.045.045,0,0,1,.026-.042l.531-.307c.028.011.028.1.028.1a.048.048,0,0,1-.028.043l-.4.233V47.7a.265.265,0,0,1,.132-.153l.092-.053a.213.213,0,0,1,.172-.041c.04.016.06.063.06.139v.181a.4.4,0,0,1-.065.216.5.5,0,0,1-.178.167l-.133.077a.213.213,0,0,1-.179.039c-.043-.018-.064-.065-.064-.142,0-.059.009-.074.027-.084l.1-.057c.027.128.065.145.14.1l.089-.051a.2.2,0,0,0,.116-.181V47.7q0-.069-.027-.084C66,47.607,65.964,47.615,65.92,47.64Z"/><path class="cls-22" d="M66.5,47.62v.122a.329.329,0,0,1-.03.111l-.083.2c-.045.016-.045-.341-.045-.341a.045.045,0,0,1,.027-.04l.106-.062C66.493,47.6,66.5,47.6,66.5,47.62Z"/><path class="cls-22" d="M67.215,47.425l-.093.053c-.026-.011-.026-.175-.026-.175l-.414.239c-.03.017-.045.01-.045-.02a.3.3,0,0,1,.014-.118L67,46.582a.178.178,0,0,1,.024-.045c.033-.027.17-.106.17-.106.03-.018.046-.012.046.019v.635l.114-.066c.027.011.027.09.027.09a.048.048,0,0,1-.027.045l-.114.066v.164A.046.046,0,0,1,67.215,47.425Zm-.119-.257v-.554l-.309.732Z"/><path class="cls-22" d="M67.844,46.53l-.1.056a.176.176,0,0,0-.049.039c-.038.069-.052.089-.069.1l-.1.057a3.211,3.211,0,0,1-.027-.5.048.048,0,0,1,.027-.042l.53-.306c.029.01.029.1.029.1a.048.048,0,0,1-.029.043l-.4.234v.284a.258.258,0,0,1,.131-.152l.092-.053a.211.211,0,0,1,.173-.041c.039.016.059.062.059.138v.182a.391.391,0,0,1-.064.215.5.5,0,0,1-.179.167l-.133.077a.211.211,0,0,1-.179.04c-.042-.019-.063-.066-.063-.142,0-.06.009-.074.026-.084l.1-.057c.027.128.064.144.139.1l.089-.052a.2.2,0,0,0,.116-.181V46.59q0-.071-.027-.084T67.844,46.53Z"/><path class="cls-22" d="M68.691,46.573l-.166.1a.235.235,0,0,1-.18.044c-.043-.015-.064-.06-.064-.136v-.085a.336.336,0,0,1,.108-.25c-.073.012-.108-.03-.108-.127v-.08a.367.367,0,0,1,.064-.209.511.511,0,0,1,.18-.163l.166-.1a.228.228,0,0,1,.179-.044q.063.022.063.135v.08a.353.353,0,0,1-.029.139.334.334,0,0,1-.077.112c.071-.013.106.03.106.128V46.2a.375.375,0,0,1-.063.21A.525.525,0,0,1,68.691,46.573Zm-.146-.484.124-.071a.2.2,0,0,0,.112-.183v-.077c0-.038-.009-.061-.027-.068a.11.11,0,0,0-.085.022l-.124.072a.235.235,0,0,0-.085.075.178.178,0,0,0-.028.1v.077C68.432,46.115,68.47,46.132,68.545,46.089Zm0,.435.124-.071a.256.256,0,0,0,.085-.076.184.184,0,0,0,.027-.1v-.084c0-.078-.037-.1-.112-.052l-.124.071a.2.2,0,0,0-.113.183v.084c0,.038.009.062.028.069S68.506,46.546,68.545,46.524Z"/><polygon class="cls-23" points="63.91 48.428 63.34 49.745 64.48 49.087 63.91 48.428"/><path class="cls-22" d="M71.571,44.473l-.31.179c-.026-.013-.026-.082-.026-.082a.047.047,0,0,1,.026-.043l.31-.179c.027.013.027.082.027.082A.048.048,0,0,1,71.571,44.473Z"/><path class="cls-22" d="M71.7,44.072V43.98a.08.08,0,0,1,.022-.05l.163-.193a.239.239,0,0,1,.05-.046l.094-.054c.027.011.027.964.027.964a.045.045,0,0,1-.025.041l-.1.059c-.027-.011-.027-.828-.027-.828l-.17.2C71.715,44.091,71.7,44.092,71.7,44.072Z"/><path class="cls-22" d="M72.407,44.21v.122a.329.329,0,0,1-.03.111l-.083.2c-.045.015-.045-.342-.045-.342a.045.045,0,0,1,.027-.04l.106-.062C72.4,44.189,72.407,44.193,72.407,44.21Z"/><path class="cls-22" d="M72.975,44.1l-.156.091a.216.216,0,0,1-.18.039c-.043-.018-.064-.065-.064-.141v-.521a.4.4,0,0,1,.064-.217.511.511,0,0,1,.18-.167l.156-.09a.217.217,0,0,1,.179-.04c.042.018.064.065.064.142v.522a.4.4,0,0,1-.064.215A.506.506,0,0,1,72.975,44.1Zm-.133-.056.111-.064a.2.2,0,0,0,.113-.181v-.509c0-.077-.038-.094-.113-.05l-.111.064a.2.2,0,0,0-.113.181v.508C72.729,44.07,72.767,44.086,72.842,44.043Z"/><path class="cls-22" d="M73.8,43.622l-.157.09a.213.213,0,0,1-.18.04c-.043-.018-.064-.065-.064-.141V43.09a.4.4,0,0,1,.064-.217.528.528,0,0,1,.18-.167l.157-.09a.215.215,0,0,1,.178-.04c.043.018.064.065.064.142v.522a.394.394,0,0,1-.064.215A.512.512,0,0,1,73.8,43.622Zm-.133-.056.111-.064a.2.2,0,0,0,.112-.181v-.509c0-.077-.037-.094-.112-.05l-.111.064a.2.2,0,0,0-.113.181v.508C73.556,43.593,73.593,43.609,73.669,43.566Z"/><path class="cls-22" d="M74.482,42.661l.086-.05a.2.2,0,0,0,.116-.181v-.081c0-.075-.038-.091-.116-.046l-.092.053a.246.246,0,0,0-.085.076.185.185,0,0,0-.028.1c0,.063-.008.077-.026.087l-.1.058a.331.331,0,0,1,.037-.274.526.526,0,0,1,.18-.166l.136-.079a.222.222,0,0,1,.18-.041c.043.017.064.064.064.14v.086a.324.324,0,0,1-.125.248c.084-.029.125.006.125.1v.09A.386.386,0,0,1,74.77,43a.5.5,0,0,1-.18.167l-.136.078a.219.219,0,0,1-.18.042c-.043-.017-.064-.064-.064-.14v-.055a.047.047,0,0,1,.027-.043l.1-.058c.026.012.026.064.026.064,0,.039.01.062.028.07s.046,0,.085-.022l.092-.054a.2.2,0,0,0,.116-.179v-.086c0-.076-.038-.092-.116-.048l-.086.05c-.026-.011-.026-.081-.026-.081A.049.049,0,0,1,74.482,42.661Z"/><polygon class="cls-24" points="70.453 45.638 69.883 44.98 71.023 44.321 70.453 45.638"/><path class="cls-22" d="M78.211,40.51l.224-.13c.03.015.03.08.03.08a.052.052,0,0,1-.03.047l-.224.129v.227a.055.055,0,0,1-.031.05l-.07.04c-.03-.014-.03-.241-.03-.241l-.225.13c-.03-.012-.03-.078-.03-.078a.052.052,0,0,1,.03-.048l.225-.131V40.36a.052.052,0,0,1,.03-.048l.07-.041C78.211,40.284,78.211,40.51,78.211,40.51Z"/><path class="cls-22" d="M78.618,40.081v-.093a.08.08,0,0,1,.022-.05l.163-.193a.239.239,0,0,1,.05-.046l.094-.054c.027.011.027.965.027.965a.045.045,0,0,1-.025.04l-.1.059c-.027-.011-.027-.828-.027-.828l-.17.2C78.629,40.1,78.618,40.1,78.618,40.081Z"/><path class="cls-22" d="M79.321,40.218v.122a.329.329,0,0,1-.03.111l-.083.2c-.045.015-.045-.342-.045-.342a.046.046,0,0,1,.027-.04l.106-.062C79.313,40.2,79.321,40.2,79.321,40.218Z"/><path class="cls-22" d="M79.744,39.623l.086-.049a.2.2,0,0,0,.116-.182v-.081c0-.075-.039-.09-.116-.046l-.093.054a.236.236,0,0,0-.085.076.184.184,0,0,0-.027.1c0,.064-.009.078-.027.088l-.1.058a.334.334,0,0,1,.037-.274.528.528,0,0,1,.18-.167l.137-.078a.219.219,0,0,1,.18-.042c.042.018.064.064.064.14v.086a.326.326,0,0,1-.125.248c.083-.028.125.006.125.1v.091a.391.391,0,0,1-.064.213.519.519,0,0,1-.18.167l-.137.079a.221.221,0,0,1-.18.041c-.042-.017-.064-.064-.064-.14v-.055a.048.048,0,0,1,.027-.043l.1-.058c.027.013.027.065.027.065q0,.057.027.069c.018.008.047,0,.085-.022l.093-.053a.2.2,0,0,0,.116-.18v-.086c0-.076-.039-.092-.116-.047l-.086.049c-.027-.011-.027-.081-.027-.081A.049.049,0,0,1,79.744,39.623Z"/><path class="cls-22" d="M80.687,39.647l-.165.095a.233.233,0,0,1-.18.045c-.043-.015-.065-.061-.065-.137v-.084a.338.338,0,0,1,.108-.25c-.072.012-.108-.031-.108-.128v-.079a.372.372,0,0,1,.065-.21.52.52,0,0,1,.18-.163l.165-.1a.235.235,0,0,1,.18-.044c.042.016.063.061.063.136v.08a.353.353,0,0,1-.029.139.344.344,0,0,1-.077.112c.071-.013.106.029.106.127v.083a.376.376,0,0,1-.063.211A.529.529,0,0,1,80.687,39.647Zm-.145-.484.124-.072a.2.2,0,0,0,.112-.182v-.077q0-.059-.027-.069c-.018-.007-.047,0-.085.023l-.124.071a.246.246,0,0,0-.085.076.175.175,0,0,0-.028.1v.077C80.429,39.188,80.467,39.206,80.542,39.163Zm0,.435.124-.072a.236.236,0,0,0,.085-.076.18.18,0,0,0,.027-.1v-.084c0-.079-.037-.1-.112-.053l-.124.072a.2.2,0,0,0-.113.182v.085c0,.038.009.061.028.068S80.5,39.62,80.542,39.6Z"/><path class="cls-22" d="M81.5,39.178l-.151.086a.211.211,0,0,1-.179.04c-.043-.018-.065-.065-.065-.141v-.522a.393.393,0,0,1,.065-.216.516.516,0,0,1,.179-.167l.312-.18c.027.011.027.093.027.093a.045.045,0,0,1-.027.04l-.289.167a.2.2,0,0,0-.113.181v.135l.241-.139a.218.218,0,0,1,.18-.041c.043.018.064.065.064.142v.138a.4.4,0,0,1-.064.216A.521.521,0,0,1,81.5,39.178Zm-.128-.059.106-.062a.2.2,0,0,0,.113-.181v-.125c0-.077-.038-.094-.113-.051l-.219.127v.241C81.259,39.145,81.3,39.162,81.372,39.119Z"/><polygon class="cls-23" points="76.996 40.873 76.426 42.19 77.567 41.531 76.996 40.873"/><path class="cls-22" d="M84.657,36.918l-.309.179c-.027-.013-.027-.082-.027-.082a.047.047,0,0,1,.027-.043l.309-.179c.027.013.027.081.027.081A.048.048,0,0,1,84.657,36.918Z"/><path class="cls-22" d="M85.093,36.535l.086-.05A.2.2,0,0,0,85.3,36.3v-.081c0-.075-.039-.09-.116-.046l-.093.054a.244.244,0,0,0-.085.075.187.187,0,0,0-.027.1c0,.063-.009.077-.027.088l-.1.057a.332.332,0,0,1,.037-.273.519.519,0,0,1,.18-.167l.137-.078a.219.219,0,0,1,.18-.042c.042.017.064.064.064.14v.086a.325.325,0,0,1-.126.248c.084-.028.126.006.126.1v.09a.391.391,0,0,1-.064.214.519.519,0,0,1-.18.167l-.137.079a.221.221,0,0,1-.18.041c-.042-.017-.064-.064-.064-.14v-.055a.047.047,0,0,1,.027-.043l.1-.058c.027.013.027.064.027.064,0,.039.009.062.027.07a.11.11,0,0,0,.085-.022l.093-.053a.2.2,0,0,0,.116-.18v-.086c0-.076-.039-.092-.116-.047l-.086.049c-.027-.011-.027-.081-.027-.081A.049.049,0,0,1,85.093,36.535Z"/><path class="cls-22" d="M85.77,36.494v.123a.347.347,0,0,1-.029.111l-.083.2c-.046.016-.046-.341-.046-.341a.047.047,0,0,1,.027-.041l.106-.061C85.762,36.474,85.77,36.478,85.77,36.494Z"/><path class="cls-22" d="M86.316,36.4,86,36.58c-.03-.009-.03-.091-.03-.091a.051.051,0,0,1,.03-.042l.3-.171a.2.2,0,0,0,.112-.181v-.126l-.241.139a.213.213,0,0,1-.18.04c-.043-.017-.064-.064-.064-.14v-.147a.393.393,0,0,1,.064-.217.528.528,0,0,1,.18-.167l.15-.087a.219.219,0,0,1,.181-.04c.042.017.064.065.064.142v.521a.4.4,0,0,1-.064.215A.509.509,0,0,1,86.316,36.4Zm-.126-.437.219-.127v-.247c0-.077-.038-.094-.114-.05l-.105.061a.2.2,0,0,0-.113.181v.133C86.077,35.987,86.115,36,86.19,35.96Z"/><path class="cls-22" d="M87.085,35.421l-.1.056a.2.2,0,0,0-.049.039c-.038.069-.052.09-.069.1l-.1.057a3.211,3.211,0,0,1-.027-.5.048.048,0,0,1,.027-.042l.531-.306c.028.01.028.1.028.1a.048.048,0,0,1-.028.042l-.4.234v.284a.258.258,0,0,1,.131-.152l.092-.053a.212.212,0,0,1,.173-.041c.039.016.059.062.059.138v.182a.391.391,0,0,1-.064.215.5.5,0,0,1-.179.168l-.133.076a.211.211,0,0,1-.179.04c-.042-.019-.063-.066-.063-.142,0-.06.009-.074.026-.084l.1-.057c.027.128.064.144.139.1l.09-.052a.2.2,0,0,0,.115-.181v-.158q0-.071-.027-.084C87.16,35.388,87.129,35.4,87.085,35.421Z"/><path class="cls-22" d="M87.777,34.985l.086-.049a.2.2,0,0,0,.116-.182v-.081c0-.075-.039-.09-.116-.045l-.093.053a.236.236,0,0,0-.085.076.185.185,0,0,0-.027.1c0,.063-.009.077-.027.087l-.1.058a.334.334,0,0,1,.038-.274.5.5,0,0,1,.18-.166l.136-.079a.223.223,0,0,1,.18-.042c.043.018.064.064.064.14v.087a.325.325,0,0,1-.125.247c.083-.028.125.006.125.1v.091a.388.388,0,0,1-.064.214.516.516,0,0,1-.18.166l-.136.079a.222.222,0,0,1-.18.041c-.043-.017-.064-.064-.064-.14v-.055a.047.047,0,0,1,.026-.043l.1-.058c.027.013.027.065.027.065q0,.057.027.069c.018.008.047,0,.085-.022l.093-.053a.2.2,0,0,0,.116-.18v-.086c0-.076-.039-.092-.116-.047l-.086.049c-.027-.011-.027-.081-.027-.081A.049.049,0,0,1,87.777,34.985Z"/><polygon class="cls-24" points="83.539 38.083 82.969 37.424 84.11 36.766 83.539 38.083"/><g class="cls-25"><path class="cls-22" d="M111.631,40.141l-19.219,11.1c0-.032,19.219-11.129,19.219-11.129Z"/><path class="cls-22" d="M111.631,36.324l-19.219,11.1c0-.033,19.219-11.129,19.219-11.129Z"/><path class="cls-22" d="M111.631,32.508,92.412,43.6c0-.032,19.219-11.129,19.219-11.129Z"/><path class="cls-22" d="M111.631,28.691l-19.219,11.1c0-.033,19.219-11.129,19.219-11.129Z"/><path class="cls-22" d="M111.631,24.875l-19.219,11.1c0-.032,19.219-11.128,19.219-11.128Z"/><path class="cls-22" d="M111.631,21.059l-19.219,11.1c0-.033,19.219-11.129,19.219-11.129Z"/></g><polygon class="cls-22" points="92.444 54.969 92.444 32.019 92.002 32.275 92.002 32.395 92.324 32.21 92.324 35.914 92.002 36.1 92.002 36.22 92.324 36.035 92.324 39.739 92.002 39.925 92.002 40.046 92.324 39.86 92.324 43.564 92.002 43.75 92.002 43.87 92.324 43.685 92.324 47.389 92.002 47.575 92.002 47.695 92.324 47.51 92.324 51.214 92.002 51.4 92.002 51.52 92.324 51.335 92.324 55.159 96.214 52.913 96.214 53.283 96.335 53.214 96.335 52.844 100.039 50.705 100.039 51.075 100.16 51.005 100.16 50.636 103.864 48.497 103.864 48.867 103.985 48.797 103.985 48.427 107.689 46.288 107.689 46.658 107.81 46.589 107.81 46.219 111.514 44.08 111.514 44.45 111.635 44.38 111.635 43.89 92.444 54.969"/><polygon class="cls-26" points="96.366 52.025 94.978 52.826 94.978 39.47 96.366 38.669 96.366 52.025"/><polygon class="cls-27" points="94.979 52.826 93.592 53.626 93.592 44.39 94.979 43.589 94.979 52.826"/><polygon class="cls-28" points="97.753 51.224 96.366 52.025 96.366 30.807 97.753 30.007 97.753 51.224"/><polygon class="cls-26" points="99.14 50.423 97.753 51.224 97.753 34.856 99.14 34.056 99.14 50.423"/><polygon class="cls-27" points="100.527 49.622 99.14 50.423 99.14 40.654 100.527 39.853 100.527 49.622"/><polygon class="cls-15" points="101.914 48.822 100.527 49.622 100.527 37.514 101.914 36.714 101.914 48.822"/><polygon class="cls-27" points="103.301 48.021 101.914 48.822 101.914 42.56 103.301 41.759 103.301 48.021"/><polygon class="cls-15" points="104.688 47.22 103.301 48.021 103.301 30.596 104.688 29.795 104.688 47.22"/><polygon class="cls-28" points="106.075 46.419 104.688 47.22 104.688 33.665 106.075 32.864 106.075 46.419"/><polygon class="cls-15" points="107.462 45.618 106.075 46.419 106.075 30.252 107.462 29.451 107.462 45.618"/><polygon class="cls-28" points="108.849 44.818 107.462 45.618 107.462 33.51 108.849 32.709 108.849 44.818"/><polygon class="cls-26" points="110.236 44.017 108.849 44.818 108.849 31.062 110.236 30.261 110.236 44.017"/><polygon class="cls-28" points="111.623 43.216 110.236 44.017 110.236 29.038 111.623 28.237 111.623 43.216"/><polygon class="cls-29" points="65.375 44.401 56.916 49.285 56.916 46.846 65.375 41.962 65.375 44.401"/><polygon class="cls-30" points="73.845 39.511 65.386 44.395 65.386 41.956 73.845 37.072 73.845 39.511"/><polygon class="cls-29" points="82.315 34.621 73.856 39.505 73.856 37.066 82.315 32.182 82.315 34.621"/><polygon class="cls-30" points="90.785 29.731 82.326 34.615 82.326 32.176 90.785 27.292 90.785 29.731"/><path class="cls-31" d="M56.583,42.986l-.391.226c-.064.037-.1.023-.1-.041V40.406a.17.17,0,0,1,.1-.152l1.468-.848c.061-.035.092-.02.092.044v.313a.165.165,0,0,1-.092.149l-.925.534a.1.1,0,0,0-.055.083v.713c0,.037.018.045.055.023l.787-.454c.064-.037.1-.023.1.041v.308a.173.173,0,0,1-.1.157l-.787.455a.092.092,0,0,0-.055.082v.98A.171.171,0,0,1,56.583,42.986Z"/><path class="cls-31" d="M59.679,38.241l.387-.224c.067-.039.1-.027.1.034v2.116a1.219,1.219,0,0,1-.2.67,1.6,1.6,0,0,1-.559.518l-.506.292a.686.686,0,0,1-.561.131c-.132-.052-.2-.2-.2-.442V39.224a.17.17,0,0,1,.1-.152l.392-.226c.064-.037.1-.023.1.041v2.084c0,.1.021.156.062.173s.11,0,.2-.056l.317-.183a.6.6,0,0,0,.21-.183.452.452,0,0,0,.062-.245V38.393A.17.17,0,0,1,59.679,38.241Z"/><path class="cls-31" d="M61.221,40.309l-.382.22c-.065.037-.1.024-.1-.041V37.724a.169.169,0,0,1,.1-.153l.345-.2c.064-.037.107-.041.128-.01l.93,1.207c.018-.011.018-1.722.018-1.722a.171.171,0,0,1,.1-.152l.382-.221c.064-.037.1-.023.1.041V39.28a.17.17,0,0,1-.1.152l-.336.194c-.068.039-.117.037-.148-.007l-.919-1.18c-.019.01-.019,1.717-.019,1.717A.17.17,0,0,1,61.221,40.309Z"/><path class="cls-31" d="M63.433,38.935V36.17a.172.172,0,0,1,.1-.153l1.136-.656a.681.681,0,0,1,.559-.127q.2.081.2.439v1.458a1.216,1.216,0,0,1-.2.67,1.591,1.591,0,0,1-.559.518l-1.136.656C63.466,39.013,63.433,39,63.433,38.935Zm.635-.776.5-.29a.592.592,0,0,0,.209-.183.452.452,0,0,0,.062-.245v-1.4c0-.1-.021-.156-.062-.174s-.111,0-.209.059l-.5.29a.088.088,0,0,0-.051.08v1.844C64.017,38.171,64.034,38.178,64.068,38.159Z"/><path class="cls-31" d="M68.954,32.886l.681-.393c.064-.037.1-.024.1.041V35.3a.17.17,0,0,1-.1.153l-.377.217c-.065.038-.1.024-.1-.04V33.447c-.018.011-.488,1.823-.488,1.823a.24.24,0,0,1-.115.158l-.386.223c-.058.034-.1.025-.115-.025l-.478-1.27c-.019.011-.019,2.2-.019,2.2a.169.169,0,0,1-.018.086.222.222,0,0,1-.079.067l-.377.217c-.064.037-.1.024-.1-.041V34.117a.17.17,0,0,1,.1-.153l.686-.4c.042-.024.072-.02.087.014l.488,1.342c.027-.015.52-1.923.52-1.923A.164.164,0,0,1,68.954,32.886Z"/><path class="cls-31" d="M70.638,34.872l-.442.255c-.055.032-.073.01-.055-.065l.727-3.184a.284.284,0,0,1,.138-.177l.612-.353c.076-.044.122-.039.138.017l.727,2.345a.1.1,0,0,1-.056.129l-.441.255q-.051.029-.069.018c-.013-.006-.022-.026-.028-.059l-.129-.432-.9.518-.129.58a.23.23,0,0,1-.03.093A.177.177,0,0,1,70.638,34.872Zm.667-2.787-.331,1.521.681-.393-.332-1.138Z"/><path class="cls-31" d="M73.37,33.294l-.381.221c-.065.037-.1.023-.1-.041V30.709a.17.17,0,0,1,.1-.153l.344-.2c.065-.037.108-.04.129-.01l.93,1.207c.018-.01.018-1.722.018-1.722a.169.169,0,0,1,.1-.152l.382-.221c.064-.037.1-.023.1.041v2.765a.171.171,0,0,1-.1.153l-.336.193c-.068.04-.117.037-.148-.007l-.92-1.18c-.018.011-.018,1.718-.018,1.718A.169.169,0,0,1,73.37,33.294Z"/><path class="cls-31" d="M75.891,31.839l-.442.255c-.055.032-.073.01-.055-.065l.727-3.185a.292.292,0,0,1,.138-.176l.612-.353c.077-.044.123-.039.138.017l.727,2.345a.1.1,0,0,1-.055.129l-.442.254c-.034.02-.056.026-.069.019s-.021-.026-.028-.059l-.128-.432-.9.518-.129.58a.236.236,0,0,1-.03.093A.19.19,0,0,1,75.891,31.839Zm.667-2.787-.331,1.521.681-.393-.331-1.138Z"/><path class="cls-31" d="M79.346,29.844l-.487.282a.691.691,0,0,1-.562.13c-.131-.052-.2-.2-.2-.442V28.355a1.217,1.217,0,0,1,.2-.67,1.6,1.6,0,0,1,.562-.518l.487-.281a.673.673,0,0,1,.557-.126q.2.081.2.44v.138a.174.174,0,0,1-.1.157l-.391.225q-.1.057-.1-.045v-.11c0-.1-.02-.156-.06-.175s-.109,0-.207.057l-.3.173a.587.587,0,0,0-.2.18.458.458,0,0,0-.062.246v1.4c0,.1.021.156.062.173s.11,0,.2-.056l.3-.173a.572.572,0,0,0,.207-.181.455.455,0,0,0,.06-.244v-.29q0-.051-.051-.021l-.276.159c-.064.037-.1.024-.1-.041v-.313a.171.171,0,0,1,.1-.152L80,27.845c.071-.04.106-.026.106.045v.768a1.217,1.217,0,0,1-.2.669A1.583,1.583,0,0,1,79.346,29.844Z"/><path class="cls-31" d="M82.254,28.165l-1.5.869c-.065.037-.1.023-.1-.041V26.228a.168.168,0,0,1,.1-.152l1.5-.869c.061-.035.092-.021.092.044v.312a.167.167,0,0,1-.092.15l-.961.555a.1.1,0,0,0-.056.083v.6c0,.034.019.04.056.018l.786-.454c.065-.037.1-.023.1.041v.313a.169.169,0,0,1-.1.152l-.786.455a.093.093,0,0,0-.056.082V28.2c0,.035.019.04.056.019l.961-.555c.061-.036.092-.021.092.043v.313A.165.165,0,0,1,82.254,28.165Z"/><path class="cls-31" d="M84.821,23.725l.68-.393c.065-.037.1-.023.1.041v2.765a.169.169,0,0,1-.1.152l-.377.218c-.064.037-.1.023-.1-.041v-2.18c-.018.01-.488,1.822-.488,1.822a.245.245,0,0,1-.115.159l-.386.223c-.059.033-.1.025-.115-.026l-.479-1.27c-.018.011-.018,2.2-.018,2.2a.165.165,0,0,1-.019.087.208.208,0,0,1-.078.066l-.377.218c-.064.037-.1.023-.1-.041V24.956a.172.172,0,0,1,.1-.153l.686-.395c.042-.025.071-.02.087.014l.488,1.342c.027-.016.519-1.924.519-1.924A.17.17,0,0,1,84.821,23.725Z"/><path class="cls-31" d="M87.8,24.965l-1.5.868c-.064.037-.1.024-.1-.041V23.028a.171.171,0,0,1,.1-.153l1.5-.868c.062-.036.092-.021.092.043v.313a.163.163,0,0,1-.092.149l-.961.556a.1.1,0,0,0-.056.082v.6c0,.034.019.04.056.019l.786-.454c.065-.037.1-.024.1.041v.313a.169.169,0,0,1-.1.152l-.786.454a.1.1,0,0,0-.056.083V25c0,.034.019.04.056.019l.961-.555c.062-.036.092-.021.092.043v.313A.165.165,0,0,1,87.8,24.965Z"/><path class="cls-31" d="M88.879,24.341l-.382.22c-.065.037-.1.023-.1-.041V21.755a.169.169,0,0,1,.1-.152l.344-.2c.065-.037.108-.041.129-.01L89.9,22.6c.018-.011.018-1.722.018-1.722a.17.17,0,0,1,.1-.153l.382-.22c.064-.037.1-.024.1.041v2.765a.17.17,0,0,1-.1.152l-.336.194c-.068.039-.117.037-.148-.007l-.92-1.18c-.018.01-.018,1.717-.018,1.717A.172.172,0,0,1,88.879,24.341Z"/><path class="cls-31" d="M92.007,22.534l-.386.223c-.068.039-.1.026-.1-.038v-2.3c0-.033-.017-.041-.05-.021l-.525.3c-.064.038-.1.024-.1-.04v-.313a.171.171,0,0,1,.1-.152l1.739-1c.064-.037.1-.024.1.041v.312a.172.172,0,0,1-.1.153l-.524.3a.1.1,0,0,0-.055.083v2.3A.171.171,0,0,1,92.007,22.534Z"/><polygon class="cls-26" points="98.072 24.397 92.848 27.413 92.848 26.075 98.072 23.058 98.072 24.397"/><polygon class="cls-28" points="104.818 20.502 99.593 23.519 99.593 22.18 104.818 19.164 104.818 20.502"/><polygon class="cls-15" points="111.564 16.608 106.339 19.624 106.339 18.286 111.564 15.269 111.564 16.608"/><path class="cls-26" d="M93.641,28.109l.109-.064a.257.257,0,0,0,.148-.23v-.1c0-.095-.049-.115-.148-.058l-.117.068a.306.306,0,0,0-.109.1.236.236,0,0,0-.035.13v.058a.06.06,0,0,1-.033.053l-.128.074c-.034-.014-.034-.076-.034-.076a.493.493,0,0,1,.082-.273.65.65,0,0,1,.229-.211l.173-.1a.281.281,0,0,1,.229-.052c.055.022.082.081.082.178v.11a.415.415,0,0,1-.159.315c.106-.037.159.007.159.131v.115a.487.487,0,0,1-.082.272.635.635,0,0,1-.229.212l-.173.1a.278.278,0,0,1-.229.053c-.055-.022-.082-.081-.082-.178v-.07a.06.06,0,0,1,.034-.055l.128-.074c.022-.013.033-.007.033.017v.065c0,.049.012.079.035.089a.142.142,0,0,0,.109-.028l.117-.068a.256.256,0,0,0,.148-.229v-.109c0-.1-.049-.117-.148-.06l-.109.063c-.034-.014-.034-.1-.034-.1A.06.06,0,0,1,93.641,28.109Z"/><path class="cls-26" d="M94.5,28.057V28.3a.056.056,0,0,1-.032.052l-.135.078c-.034-.014-.034-.257-.034-.257a.06.06,0,0,1,.034-.052l.135-.078C94.493,28.031,94.5,28.036,94.5,28.057Z"/><path class="cls-26" d="M95.238,27.909l-.211.122a.3.3,0,0,1-.229.057c-.054-.019-.082-.077-.082-.174v-.108a.43.43,0,0,1,.138-.318q-.138.024-.138-.162v-.1a.477.477,0,0,1,.082-.267.669.669,0,0,1,.229-.207l.211-.122a.288.288,0,0,1,.228-.056c.054.019.081.077.081.172v.1a.428.428,0,0,1-.037.176.411.411,0,0,1-.1.143c.091-.016.136.038.136.163v.105a.474.474,0,0,1-.081.268A.665.665,0,0,1,95.238,27.909Zm-.185-.616.157-.091a.256.256,0,0,0,.144-.232v-.1c0-.049-.012-.079-.035-.088s-.06,0-.109.029l-.157.091a.325.325,0,0,0-.109.1.236.236,0,0,0-.034.128v.1C94.91,27.326,94.957,27.348,95.053,27.293Zm0,.554.157-.091a.306.306,0,0,0,.109-.1.234.234,0,0,0,.035-.128v-.108q0-.148-.144-.066l-.157.091a.255.255,0,0,0-.143.232v.107c0,.049.011.079.034.088A.139.139,0,0,0,95.053,27.847Z"/><path class="cls-26" d="M96.3,27.3l-.211.122a.3.3,0,0,1-.229.057c-.055-.019-.082-.077-.082-.174v-.108a.43.43,0,0,1,.138-.318q-.138.024-.138-.162v-.1a.469.469,0,0,1,.082-.267.66.66,0,0,1,.229-.207l.211-.122a.288.288,0,0,1,.228-.056c.054.019.081.077.081.172v.1a.444.444,0,0,1-.037.176.425.425,0,0,1-.1.143c.09-.016.136.038.136.163v.105a.474.474,0,0,1-.081.268A.656.656,0,0,1,96.3,27.3Zm-.185-.616.157-.091a.255.255,0,0,0,.143-.232v-.1c0-.049-.011-.079-.034-.088s-.06,0-.109.029l-.157.091a.3.3,0,0,0-.109.1.236.236,0,0,0-.035.128v.1Q95.971,26.763,96.115,26.68Zm0,.554.157-.091a.315.315,0,0,0,.109-.1.233.233,0,0,0,.034-.128v-.108c0-.1-.047-.121-.143-.066l-.157.091a.256.256,0,0,0-.144.232v.107c0,.05.012.079.035.088S96.065,27.262,96.115,27.234Z"/><path class="cls-26" d="M97.322,26.707l-.405.233c-.025.015-.038.01-.038-.012v-.1a.062.062,0,0,1,.038-.053l.377-.218a.256.256,0,0,0,.143-.23v-.161l-.307.177a.271.271,0,0,1-.229.051c-.054-.022-.081-.082-.081-.178v-.188a.5.5,0,0,1,.081-.275.664.664,0,0,1,.229-.213l.192-.11a.276.276,0,0,1,.229-.052c.054.022.081.083.081.181v.663a.509.509,0,0,1-.081.275A.666.666,0,0,1,97.322,26.707Zm-.162-.557.279-.161v-.314c0-.1-.048-.12-.145-.064l-.134.077a.256.256,0,0,0-.143.23v.17C97.017,26.185,97.065,26.206,97.16,26.15Z"/><path class="cls-28" d="M100.772,24.037l-.124.072a.223.223,0,0,0-.062.05.172.172,0,0,0-.033.048.141.141,0,0,1-.054.077l-.125.073a4.128,4.128,0,0,1-.034-.64.059.059,0,0,1,.034-.053l.675-.39c.024-.014.036-.009.036.013V23.4a.062.062,0,0,1-.036.054l-.514.3v.362a.334.334,0,0,1,.167-.194l.118-.068a.271.271,0,0,1,.219-.052q.075.032.075.177v.231a.506.506,0,0,1-.081.274.647.647,0,0,1-.227.213l-.17.1a.272.272,0,0,1-.228.05c-.053-.024-.08-.084-.08-.181V24.61a.06.06,0,0,1,.034-.055l.125-.072c.023-.013.034-.008.034.016,0,.147.048.167.143.112l.114-.065a.259.259,0,0,0,.147-.231v-.2c0-.06-.011-.1-.035-.107S100.828,24.005,100.772,24.037Z"/><path class="cls-28" d="M101.511,24.011v.243a.057.057,0,0,1-.032.052l-.136.079c-.033-.015-.033-.258-.033-.258a.058.058,0,0,1,.033-.051l.136-.079C101.5,23.985,101.511,23.99,101.511,24.011Z"/><path class="cls-28" d="M101.664,23.231v-.117a.1.1,0,0,1,.028-.064l.207-.245a.289.289,0,0,1,.064-.059l.119-.069c.034.014.034,1.227.034,1.227a.058.058,0,0,1-.032.053l-.129.074c-.034-.014-.034-1.054-.034-1.054l-.217.251C101.677,23.256,101.664,23.257,101.664,23.231Z"/><path class="cls-28" d="M102.809,22.861l-.123.071a.267.267,0,0,0-.063.05.232.232,0,0,0-.033.049.139.139,0,0,1-.053.077l-.126.073a4.134,4.134,0,0,1-.034-.64.06.06,0,0,1,.034-.054l.675-.39c.024-.013.036-.009.036.014v.113a.062.062,0,0,1-.036.055l-.514.3v.363a.336.336,0,0,1,.168-.194l.117-.068a.268.268,0,0,1,.219-.052c.051.021.076.08.076.177v.23a.5.5,0,0,1-.082.275.639.639,0,0,1-.227.213l-.169.1a.265.265,0,0,1-.228.05q-.081-.034-.081-.18v-.052a.061.061,0,0,1,.034-.055l.126-.073c.022-.013.033-.007.033.017,0,.146.048.167.144.112l.113-.066a.256.256,0,0,0,.148-.23v-.2c0-.06-.012-.1-.035-.108S102.865,22.829,102.809,22.861Z"/><path class="cls-28" d="M103.847,22.939l-.4.233c-.025.015-.038.011-.038-.012v-.1a.065.065,0,0,1,.038-.054l.376-.217a.255.255,0,0,0,.144-.23v-.162l-.307.177a.277.277,0,0,1-.229.052c-.055-.023-.082-.082-.082-.179v-.187a.5.5,0,0,1,.082-.276.643.643,0,0,1,.229-.212l.191-.111a.272.272,0,0,1,.229-.051c.055.022.082.082.082.181v.663a.5.5,0,0,1-.082.274A.648.648,0,0,1,103.847,22.939Zm-.161-.556.279-.161v-.315c0-.1-.049-.119-.146-.063l-.133.077a.255.255,0,0,0-.144.23v.169Q103.542,22.466,103.686,22.383Z"/><path class="cls-15" d="M107.544,20.805l-.118.068c-.034-.015-.034-.224-.034-.224l-.525.3c-.039.022-.058.014-.058-.025v-.061a.236.236,0,0,1,.018-.089l.444-1.047a.285.285,0,0,1,.03-.057.138.138,0,0,1,.042-.034l.175-.1c.038-.022.058-.014.058.024v.809l.145-.084c.034.014.034.114.034.114a.062.062,0,0,1-.034.057l-.145.084v.209A.06.06,0,0,1,107.544,20.805Zm-.152-.327v-.705L107,20.7Z"/><path class="cls-15" d="M108.094,20.21v.243a.06.06,0,0,1-.032.053l-.136.078c-.034-.014-.034-.257-.034-.257a.059.059,0,0,1,.034-.052l.136-.078C108.083,20.185,108.094,20.189,108.094,20.21Z"/><path class="cls-15" d="M109,19.963l-.118.068c-.033-.015-.033-.224-.033-.224l-.526.3c-.039.022-.058.014-.058-.025v-.061a.227.227,0,0,1,.018-.088l.444-1.048a.285.285,0,0,1,.03-.057.138.138,0,0,1,.042-.034l.175-.1c.039-.022.058-.014.058.024v.809l.145-.084c.034.014.034.114.034.114a.064.064,0,0,1-.034.058l-.145.083v.21A.058.058,0,0,1,109,19.963Zm-.151-.327v-.7l-.393.931Z"/><path class="cls-15" d="M109.693,18.841l.11-.063a.259.259,0,0,0,.147-.231v-.1c0-.1-.049-.115-.147-.058l-.118.068a.3.3,0,0,0-.108.1.227.227,0,0,0-.035.129v.058a.059.059,0,0,1-.034.053l-.128.074c-.033-.014-.033-.076-.033-.076a.494.494,0,0,1,.081-.272.661.661,0,0,1,.229-.212l.174-.1a.281.281,0,0,1,.229-.053c.054.022.081.081.081.178v.11a.414.414,0,0,1-.159.315c.106-.036.159.007.159.131V19a.494.494,0,0,1-.081.272.652.652,0,0,1-.229.212l-.174.1a.28.28,0,0,1-.229.052c-.054-.022-.081-.081-.081-.178v-.07a.06.06,0,0,1,.033-.055l.128-.073c.034.016.034.081.034.081,0,.05.011.079.035.089s.059,0,.108-.028l.118-.068a.256.256,0,0,0,.147-.228V19q0-.146-.147-.06l-.11.063c-.034-.014-.034-.1-.034-.1A.06.06,0,0,1,109.693,18.841Z"/><path class="cls-15" d="M110.866,18.887l-.191.11a.267.267,0,0,1-.229.05c-.055-.023-.082-.083-.082-.179V18.2a.5.5,0,0,1,.082-.275.655.655,0,0,1,.229-.213l.4-.229c.034.015.034.118.034.118a.058.058,0,0,1-.034.052l-.368.212a.255.255,0,0,0-.144.231v.171l.307-.177a.277.277,0,0,1,.229-.052c.055.023.082.083.082.181V18.4a.5.5,0,0,1-.082.275A.657.657,0,0,1,110.866,18.887Zm-.163-.075.135-.079a.255.255,0,0,0,.144-.23v-.159c0-.1-.048-.12-.144-.065l-.279.161v.307C110.559,18.845,110.607,18.867,110.7,18.812Z"/></g></g></g></svg>