<svg xmlns="http://www.w3.org/2000/svg" xmlns:xlink="http://www.w3.org/1999/xlink" viewBox="0 0 93.426 86.506"><defs><style>.cls-1{fill:#262424;}.cls-2{isolation:isolate;}.cls-3{fill:#50197c;opacity:0.4;mix-blend-mode:multiply;}.cls-4{fill:url(#_ÂÁ_Ï_ÌÌ_È_ËÂÌÚ_95);}.cls-5{fill:url(#_ÂÁ_Ï_ÌÌ_È_ËÂÌÚ_860);}.cls-6{fill:#353131;}.cls-7{fill:#191414;}.cls-8{fill:#f9f7fb;}.cls-9{fill:#c0b9c8;}.cls-10,.cls-11{fill:#cfd5d5;}.cls-10{opacity:0.1;}.cls-11{opacity:0.2;mix-blend-mode:screen;}.cls-12{clip-path:url(#clip-path);}.cls-13{fill:#9e6512;}.cls-14{fill:#cfe9ff;opacity:0.7;}.cls-15{fill:#788eff;}.cls-16{fill:#fff;}.cls-17,.cls-27{fill:#a82edb;}.cls-17,.cls-19,.cls-21,.cls-23,.cls-25{opacity:0.9;}.cls-18{fill:#b84bff;}.cls-19,.cls-29{fill:#e952eb;}.cls-20{fill:#ff61f1;}.cls-21,.cls-30{fill:#7934e5;}.cls-22{fill:#9252ff;}.cls-23,.cls-32{fill:#6780ff;}.cls-24{fill:#7dddff;}.cls-25,.cls-33{fill:#ffc41d;}.cls-26{fill:#ffd91f;}.cls-28{fill:#6faf00;}.cls-31{fill:#db3e3e;}.cls-34{fill:#e4e2e8;}.cls-35{fill:#8022b2;}.cls-36{fill:#7948d8;}.cls-37{fill:#7ba4ff;}</style><linearGradient id="_ÂÁ_Ï_ÌÌ_È_ËÂÌÚ_95" x1="49.397" y1="32.898" x2="41.397" y2="102.898" gradientUnits="userSpaceOnUse"><stop offset="0" stop-color="#5917ff"/><stop offset="0.159" stop-color="#6d22f8"/><stop offset="0.485" stop-color="#a13de7"/><stop offset="0.946" stop-color="#f569ca"/><stop offset="1" stop-color="#ff6ec7"/></linearGradient><linearGradient id="_ÂÁ_Ï_ÌÌ_È_ËÂÌÚ_860" x1="57.957" y1="67.962" x2="67.742" y2="67.962" gradientUnits="userSpaceOnUse"><stop offset="0" stop-color="#c0b9c8"/><stop offset="1" stop-color="#e0dbe1"/></linearGradient><clipPath id="clip-path"><path class="cls-1" d="M81.348,77.294,78.208,79.1c-.365.21-.661.085-.661-.281a1.37,1.37,0,0,1,.663-1.044l3.14-1.809c.365-.21.661-.085.661.281A1.37,1.37,0,0,1,81.348,77.294Z"/></clipPath></defs><g class="cls-2"><g id="_0" data-name="0"><g id="_11" data-name="11"><path class="cls-3" d="M38.164,35.635a10.486,10.486,0,0,0-6.5-1.028,10.547,10.547,0,0,0-6.511,1.03L2.021,49c-2.683,1.549-2.7,4.064-.031,5.612L55.25,85.334a9.834,9.834,0,0,0,4.968,1.148h3.051L63.8,50.421Z"/><path class="cls-4" d="M87.262,68.306,61.545,83.154a1.511,1.511,0,0,1-1.511,0L5.033,51.4c-1.007-.582-2.263-1.981-.724-3.715L27.932,33.858a11.042,11.042,0,0,1,6.512-1.491,8.691,8.691,0,0,1,2.6.647L88.6,62.7C90.765,63.956,89.431,67.054,87.262,68.306Z"/><path class="cls-5" d="M93.415,66.733a3.425,3.425,0,0,1-2.022,2.826L68.256,82.924a10.679,10.679,0,0,1-9.689,0L5.308,52.2a3.4,3.4,0,0,1-1.99-2.786l.011,2.419a3.4,3.4,0,0,0,1.99,2.786L58.578,85.345a10.677,10.677,0,0,0,9.688,0L91.4,71.978a3.43,3.43,0,0,0,2.022-2.826Z"/><path class="cls-6" d="M91.424,63.948,38.164,33.226a10.683,10.683,0,0,0-9.688,0L5.339,46.592c-2.683,1.55-2.7,4.064-.031,5.612l53.26,30.722a10.674,10.674,0,0,0,9.687,0L91.393,69.56C94.076,68.01,94.093,65.5,91.424,63.948ZM57.735,81.468,4.887,50.967a1.9,1.9,0,0,1,0-3.285l5.966-3.446a.868.868,0,0,1,.333-.11l4.585-.536a.639.639,0,0,0,.247-.082l7.212-4.166a.688.688,0,0,0,.254-.257l1.728-3.068a.472.472,0,0,1,.175-.177l3.667-2.118a8.712,8.712,0,0,1,8.709,0L88.769,63.159a.651.651,0,0,1,0,1.128L59.025,81.468A1.292,1.292,0,0,1,57.735,81.468Z"/><path class="cls-1" d="M80.674,72.913l-1.364-.787a2.842,2.842,0,0,0-2.6.1l-3.039,1.755a1.536,1.536,0,0,0-.575.539.885.885,0,0,0,.407,1.255l1.365.787a2.842,2.842,0,0,0,2.6-.1l3.039-1.755a1.549,1.549,0,0,0,.574-.539A.885.885,0,0,0,80.674,72.913Z"/><path class="cls-6" d="M80.692,73.236l-1.371-.791a2.857,2.857,0,0,0-2.609.1l-3.054,1.764a1.553,1.553,0,0,0-.578.542.908.908,0,0,0-.095.278.987.987,0,0,0,.5.664l1.371.791a2.857,2.857,0,0,0,2.609-.1l3.053-1.764a1.551,1.551,0,0,0,.578-.541.926.926,0,0,0,.1-.279A.99.99,0,0,0,80.692,73.236Z"/><path class="cls-7" d="M21.074,38.488l-4.821,2.785c-.265.153-.294.385-.064.518a1,1,0,0,0,.9-.038l4.821-2.784c.266-.153.294-.385.064-.518A1,1,0,0,0,21.074,38.488Z"/><path class="cls-8" d="M14.858,58.775a1.435,1.435,0,0,0-.2-.386,1.141,1.141,0,0,0-.34-.317L9.89,55.517a.425.425,0,0,0-.424-.043l-.438.252a.424.424,0,0,1,.424.042l4.426,2.555a1.136,1.136,0,0,1,.341.318,1.444,1.444,0,0,1,.2.385,1.067,1.067,0,0,1,.061.34v.192a.425.425,0,0,1-.179.392l.438-.251a.428.428,0,0,0,.179-.393v-.191A1.062,1.062,0,0,0,14.858,58.775Z"/><path class="cls-9" d="M13.878,58.323,9.452,55.768c-.335-.192-.6-.035-.6.352v.192a1.326,1.326,0,0,0,.6,1.043l4.427,2.555c.331.19.6.031.6-.352v-.192A1.328,1.328,0,0,0,13.878,58.323Z"/><path class="cls-8" d="M21.611,62.673a1.474,1.474,0,0,0-.2-.385,1.149,1.149,0,0,0-.341-.318l-4.426-2.555a.424.424,0,0,0-.424-.042l-.439.252a.424.424,0,0,1,.425.042l4.426,2.555a1.144,1.144,0,0,1,.341.317,1.464,1.464,0,0,1,.2.386,1.06,1.06,0,0,1,.06.34v.192a.424.424,0,0,1-.179.392l.438-.252a.423.423,0,0,0,.179-.392v-.192A1.07,1.07,0,0,0,21.611,62.673Z"/><path class="cls-9" d="M20.631,62.222,16.2,59.667c-.335-.192-.6-.035-.6.352v.192a1.326,1.326,0,0,0,.6,1.043l4.426,2.555c.331.19.6.031.6-.352v-.192A1.326,1.326,0,0,0,20.631,62.222Z"/><path class="cls-7" d="M15.34,42.962a1.293,1.293,0,0,1-1.177,0,.36.36,0,0,1,0-.682,1.3,1.3,0,0,1,1.177,0A.36.36,0,0,1,15.34,42.962Z"/><path class="cls-10" d="M14.334,42.881a.96.96,0,0,0,.87-.023.266.266,0,0,0-.016-.5.96.96,0,0,0-.87.022A.267.267,0,0,0,14.334,42.881Z"/><path class="cls-10" d="M14.516,42.744a.522.522,0,0,0,.473-.012.145.145,0,0,0-.008-.274.524.524,0,0,0-.474.012A.145.145,0,0,0,14.516,42.744Z"/><path class="cls-11" d="M14.662,42.654a.19.19,0,0,0,.175-.005c.048-.029.046-.074,0-.1a.19.19,0,0,0-.175,0A.053.053,0,0,0,14.662,42.654Z"/><path class="cls-1" d="M81.348,77.294,78.208,79.1c-.365.21-.661.085-.661-.281a1.37,1.37,0,0,1,.663-1.044l3.14-1.809c.365-.21.661-.085.661.281A1.37,1.37,0,0,1,81.348,77.294Z"/><g class="cls-12"><path class="cls-13" d="M77.014,77.792l-.437.252,1.551.895.436-.252Zm.961-.555-.437.252,1.55.895.437-.252Zm.961-.555-.437.252,1.55.9.437-.253Zm.961-.555-.437.253,1.55.9.437-.252Z"/></g><polygon class="cls-14" points="89.701 54.26 58.548 72.247 6.963 42.463 38.116 24.477 89.701 54.26"/><polygon class="cls-15" points="38.314 24.591 7.16 42.577 3.308 40.353 34.461 22.366 38.314 24.591"/><polygon class="cls-16" points="12.058 44.094 11.452 44.444 11.767 44.626 12.083 44.444 16.762 47.145 16.447 47.327 16.762 47.509 17.077 47.327 21.756 50.029 21.441 50.211 21.756 50.393 22.362 50.043 12.058 44.094"/><polygon class="cls-17" points="37.721 6.214 35.781 7.938 33.583 10.532 31.495 11.01 28.942 11.273 25.16 13.894 22.456 17.334 19.11 19.771 16.247 22.881 13.798 22.879 11.986 27.213 11.986 44.128 41.576 27.049 41.576 5.449 39.043 5.672 37.721 6.214"/><path class="cls-18" d="M39.075,5.539l-1.464.605L35.738,7.809,33.5,10.462l-2.012.46-2.56.271L25.14,13.819l-2.713,3.452L19.1,19.694l-2.87,3.115-2.481.025-1.762,4.19V27.5l1.859-4.486L16.29,23l2.863-3.109,3.393-2.5,2.635-3.374,3.771-2.646L31.5,11.1l2.062-.471c.014,0,2.215-2.6,2.215-2.6l1.908-1.713L39.1,5.735l2.475-.2V5.365Z"/><polygon class="cls-19" points="40.123 13.2 38.182 13.816 35.985 15.206 33.896 15.684 31.343 18.26 28.377 19.562 24.858 24.321 21.512 26.757 18.648 29.868 16.199 31.898 14.388 36.232 14.388 45.514 43.978 28.435 43.978 12.435 41.442 13.895 40.123 13.2"/><path class="cls-20" d="M41.475,13.793,40.163,13.1l-1.973.626-2.2,1.389-2.1.48-2.56,2.583-2.977,1.307-3.528,4.772L21.5,26.68,18.631,29.8l-2.482,2.057-1.762,4.19v.329l1.862-4.429,2.432-2.018,2.853-3.1L24.869,24.4,28.4,19.637l2.936-1.288c.02-.009,2.566-2.578,2.566-2.578l2.062-.471c.014,0,2.214-1.4,2.214-1.4l1.908-.606,1.327.7,2.568-1.478v-.169Z"/><polygon class="cls-21" points="43.074 18.93 40.763 19.816 38.677 21.656 36.071 23.16 33.544 26.067 30.655 28.043 27.55 31.405 23.549 34.874 20.927 38.256 18.754 40.109 17.08 42.084 17.08 47.06 46.67 29.99 46.67 16.854 43.074 18.93"/><path class="cls-22" d="M43.088,18.84l-2.311.886c-.018.006-2.11,1.852-2.11,1.852l-2.6,1.5L33.521,26l-2.874,1.966L27.53,31.336l-4,3.468L20.9,38.2l-2.161,1.842-1.654,2v.193l1.7-2.06,2.163-1.845,2.635-3.393,4-3.47,3.093-3.349,2.876-1.968,2.538-2.913,2.587-1.493,2.09-1.839,2.307-.887,3.6-2.076V16.77Z"/><polygon class="cls-23" points="45.542 25.912 43.231 26.575 41.146 29.212 38.022 31.862 36.013 31.883 33.33 34.243 31.088 38.023 26.396 40.732 22.533 44.789 20.842 47.152 19.549 47.899 19.549 48.497 49.139 31.415 49.139 23.836 45.542 25.912"/><polygon class="cls-24" points="45.553 25.822 43.218 26.492 41.115 29.151 38.032 31.767 36.021 31.788 33.289 34.192 31.055 37.958 26.396 40.648 22.486 44.749 20.816 47.083 19.544 47.818 19.544 47.986 20.869 47.221 22.564 44.848 26.413 40.807 31.121 38.088 33.371 34.295 36.044 31.927 38.052 31.907 41.164 29.283 43.244 26.659 45.522 26.005 49.139 23.92 49.139 23.752 45.553 25.822"/><polygon class="cls-25" points="48.276 29.901 45.965 30.404 43.879 32.538 40.756 34.947 38.746 35.369 36.064 37.73 32.256 39.702 29.348 42.585 26.108 44.902 23.576 48.228 22.283 48.975 22.283 50.075 51.872 32.993 51.873 27.825 48.276 29.901"/><polygon class="cls-26" points="48.286 29.811 45.952 30.32 43.848 32.478 40.766 34.852 38.755 35.274 36.023 37.679 32.224 39.637 29.348 42.5 26.061 44.862 23.55 48.159 22.277 48.894 22.277 49.062 23.602 48.297 26.139 44.961 29.364 42.659 32.289 39.767 36.105 37.781 38.788 35.414 40.796 34.991 43.898 32.609 45.978 30.487 48.256 29.994 51.873 27.909 51.873 27.74 48.286 29.811"/><path class="cls-27" d="M13.212,16.768l.215-.125c.029.017.029.085.029.085a.053.053,0,0,1-.029.048l-.215.124v.236a.054.054,0,0,1-.03.05l-.068.039c-.028-.016-.028-.252-.028-.252l-.217.125c-.029-.015-.029-.083-.029-.083a.053.053,0,0,1,.029-.049l.217-.125v-.235a.052.052,0,0,1,.028-.049l.068-.039C13.212,16.533,13.212,16.768,13.212,16.768Z"/><path class="cls-27" d="M13.639,17.083v-.15a.383.383,0,0,1,.08-.215L14,16.3a.332.332,0,0,0,.072-.184v-.054c0-.079-.038-.1-.113-.052l-.074.042a.221.221,0,0,0-.083.076.2.2,0,0,0-.025.1v.06a.047.047,0,0,1-.026.044l-.1.056c-.026-.015-.026-.078-.026-.078a.416.416,0,0,1,.062-.22.482.482,0,0,1,.173-.165l.117-.068a.2.2,0,0,1,.172-.034c.041.02.062.07.062.149v.067a.465.465,0,0,1-.092.261l-.289.423a.171.171,0,0,0-.035.093v.053l.392-.226c.027.012.027.1.027.1a.048.048,0,0,1-.027.043l-.529.3Q13.639,17.112,13.639,17.083Z"/><path class="cls-27" d="M14.52,16.376V16.5a.364.364,0,0,1-.029.115l-.08.2c-.043.014-.043-.358-.043-.358a.046.046,0,0,1,.025-.041l.1-.059Q14.52,16.351,14.52,16.376Z"/><path class="cls-27" d="M15.066,16.287l-.151.087c-.074.043-.132.054-.173.033s-.061-.071-.061-.15v-.543a.422.422,0,0,1,.061-.222.484.484,0,0,1,.173-.166l.151-.087a.189.189,0,0,1,.171-.033c.042.02.062.071.062.151V15.9a.413.413,0,0,1-.062.221A.462.462,0,0,1,15.066,16.287Zm-.128-.064.107-.062a.2.2,0,0,0,.108-.183v-.53c0-.08-.036-.1-.108-.058l-.107.062a.2.2,0,0,0-.108.183v.53C14.83,16.245,14.866,16.264,14.938,16.223Z"/><path class="cls-27" d="M15.43,15.285v-.1a.081.081,0,0,1,.021-.052l.157-.193a.186.186,0,0,1,.048-.045l.09-.052c.026.013.026,1.005.026,1.005a.046.046,0,0,1-.024.042l-.1.056c-.026-.013-.026-.863-.026-.863l-.164.2C15.44,15.305,15.43,15.306,15.43,15.285Z"/><path class="cls-27" d="M16.3,15.023l-.093.054a.166.166,0,0,0-.047.039c-.036.07-.05.091-.066.1l-.095.055a3.791,3.791,0,0,1-.025-.525.047.047,0,0,1,.025-.043l.511-.294c.027.012.027.1.027.1a.048.048,0,0,1-.027.043l-.389.224v.3a.251.251,0,0,1,.127-.153l.088-.051c.073-.042.128-.053.166-.035s.057.068.057.147v.19a.413.413,0,0,1-.062.221.478.478,0,0,1-.171.166l-.128.074c-.074.042-.132.053-.172.032s-.061-.071-.061-.15c0-.062.008-.077.025-.087l.095-.054c.026.134.062.153.134.111l.086-.049a.2.2,0,0,0,.111-.184v-.164c0-.049-.009-.079-.026-.089S16.337,15,16.3,15.023Z"/><polygon class="cls-28" points="12.044 17.09 11.495 18.435 12.592 17.802 12.044 17.09"/><path class="cls-29" d="M19.5,13.136l.215-.125c.029.017.029.085.029.085a.053.053,0,0,1-.029.048l-.215.124V13.5a.054.054,0,0,1-.03.05l-.068.039c-.029-.016-.029-.252-.029-.252l-.216.125c-.029-.015-.029-.083-.029-.083a.053.053,0,0,1,.029-.049l.216-.125v-.235a.053.053,0,0,1,.029-.049l.068-.039C19.5,12.9,19.5,13.136,19.5,13.136Z"/><path class="cls-29" d="M20.267,12.73l-.093.054a.166.166,0,0,0-.047.039c-.036.07-.05.09-.066.1l-.095.054a3.77,3.77,0,0,1-.025-.524.047.047,0,0,1,.025-.043l.51-.294c.027.012.027.1.027.1a.048.048,0,0,1-.027.044l-.388.224v.3a.253.253,0,0,1,.126-.153l.089-.051c.073-.042.128-.054.166-.035s.057.068.057.147v.189a.425.425,0,0,1-.062.222.478.478,0,0,1-.171.166l-.128.073c-.074.043-.132.054-.172.033s-.061-.071-.061-.151c0-.062.008-.076.025-.086l.095-.055c.026.135.062.154.134.112l.086-.05a.2.2,0,0,0,.111-.183V12.8c0-.048-.009-.078-.026-.089S20.309,12.706,20.267,12.73Z"/><path class="cls-29" d="M20.825,12.735v.128a.352.352,0,0,1-.028.114l-.08.2c-.044.014-.044-.358-.044-.358a.047.047,0,0,1,.026-.041l.1-.059Q20.825,12.71,20.825,12.735Z"/><path class="cls-29" d="M21.511,12.566l-.088.051c-.026-.013-.026-.184-.026-.184l-.4.23c-.029.016-.044.009-.044-.023v-.05a.2.2,0,0,1,.014-.072l.335-.84a.215.215,0,0,1,.023-.046c.032-.026.164-.1.164-.1.029-.016.044-.009.044.022v.662l.109-.064c.026.014.026.1.026.1a.05.05,0,0,1-.026.046l-.109.063v.171A.044.044,0,0,1,21.511,12.566Zm-.114-.273v-.577l-.3.748Z"/><path class="cls-29" d="M22.116,11.662l-.093.054a.166.166,0,0,0-.047.039c-.036.07-.05.091-.066.1l-.094.055a3.64,3.64,0,0,1-.026-.525.047.047,0,0,1,.026-.043l.51-.294c.027.012.027.105.027.105a.048.048,0,0,1-.027.043l-.389.224v.3a.254.254,0,0,1,.127-.153l.089-.051c.072-.042.127-.053.165-.035s.057.068.057.147v.19a.421.421,0,0,1-.061.221.481.481,0,0,1-.172.166l-.128.074c-.074.042-.131.053-.172.032s-.061-.071-.061-.15c0-.062.008-.077.025-.087l.095-.054c.026.134.062.153.134.111l.086-.049a.2.2,0,0,0,.111-.183v-.165c0-.049-.008-.079-.026-.089S22.159,11.638,22.116,11.662Z"/><path class="cls-29" d="M22.931,11.747l-.16.092a.206.206,0,0,1-.173.038c-.041-.018-.062-.066-.062-.146v-.088a.35.35,0,0,1,.1-.255c-.069.009-.1-.036-.1-.138v-.083a.4.4,0,0,1,.062-.215.5.5,0,0,1,.173-.161l.16-.092a.2.2,0,0,1,.172-.038c.041.018.061.066.061.144v.083a.373.373,0,0,1-.028.144.324.324,0,0,1-.075.113c.069-.011.1.036.1.138v.086a.4.4,0,0,1-.061.216A.488.488,0,0,1,22.931,11.747Zm-.14-.511.118-.069a.2.2,0,0,0,.109-.185V10.9c0-.04-.009-.064-.026-.072s-.045,0-.083.019l-.118.069a.208.208,0,0,0-.082.075.191.191,0,0,0-.027.1v.08C22.682,11.257,22.718,11.277,22.791,11.236Zm0,.453.118-.069a.218.218,0,0,0,.083-.075.2.2,0,0,0,.026-.1v-.088c0-.081-.036-.1-.109-.06l-.118.069a.2.2,0,0,0-.109.185v.088c0,.04.009.064.027.073S22.753,11.71,22.791,11.689Z"/><polygon class="cls-28" points="18.334 13.458 17.786 14.803 18.883 14.17 18.334 13.458"/><path class="cls-30" d="M25.7,9.693l-.3.172c-.025-.015-.025-.087-.025-.087a.046.046,0,0,1,.025-.043l.3-.172c.026.014.026.086.026.086A.049.049,0,0,1,25.7,9.693Z"/><path class="cls-30" d="M25.828,9.281v-.1a.08.08,0,0,1,.021-.051l.157-.193a.216.216,0,0,1,.048-.046l.09-.052c.026.013.026,1.006.026,1.006a.044.044,0,0,1-.024.041l-.1.057c-.026-.013-.026-.864-.026-.864l-.164.2Q25.828,9.313,25.828,9.281Z"/><path class="cls-30" d="M26.5,9.457v.127a.36.36,0,0,1-.029.114L26.4,9.9c-.043.013-.043-.358-.043-.358a.045.045,0,0,1,.025-.041l.1-.059Q26.5,9.432,26.5,9.457Z"/><path class="cls-30" d="M27.05,9.368l-.15.087c-.075.043-.132.054-.173.033s-.062-.071-.062-.15V8.8a.414.414,0,0,1,.062-.222.468.468,0,0,1,.173-.166l.15-.087a.191.191,0,0,1,.172-.033c.041.02.061.071.061.151v.543a.421.421,0,0,1-.061.221A.473.473,0,0,1,27.05,9.368ZM26.922,9.3l.107-.062a.2.2,0,0,0,.108-.183v-.53c0-.081-.036-.1-.108-.058l-.107.062a.2.2,0,0,0-.108.183v.529C26.814,9.326,26.85,9.345,26.922,9.3Z"/><path class="cls-30" d="M27.844,8.909,27.694,9c-.074.043-.132.054-.173.033s-.062-.07-.062-.15V8.337a.423.423,0,0,1,.062-.223.484.484,0,0,1,.173-.166l.15-.086a.189.189,0,0,1,.172-.034c.041.021.062.071.062.151v.543a.425.425,0,0,1-.062.222A.463.463,0,0,1,27.844,8.909Zm-.127-.064.106-.062a.2.2,0,0,0,.109-.183V8.07c0-.08-.036-.1-.109-.058l-.106.062a.2.2,0,0,0-.109.183v.53C27.608,8.867,27.644,8.887,27.717,8.845Z"/><path class="cls-30" d="M28.5,7.94l.083-.048a.2.2,0,0,0,.111-.183V7.624c0-.078-.037-.1-.111-.053l-.089.051a.241.241,0,0,0-.082.075.2.2,0,0,0-.026.1c0,.066-.009.08-.026.09l-.1.056c-.026-.013-.026-.064-.026-.064a.418.418,0,0,1,.062-.22.482.482,0,0,1,.173-.165l.131-.075a.192.192,0,0,1,.173-.035c.041.02.062.069.062.149v.089a.328.328,0,0,1-.121.252c.081-.025.121.012.121.113v.095a.412.412,0,0,1-.062.219.476.476,0,0,1-.173.166l-.131.075a.192.192,0,0,1-.173.035c-.041-.02-.062-.069-.062-.149V8.376a.049.049,0,0,1,.026-.044l.1-.055c.026.014.026.068.026.068,0,.04.008.065.026.074s.045,0,.082-.019l.089-.052a.2.2,0,0,0,.111-.181v-.09c0-.079-.037-.1-.111-.055L28.5,8.07c-.025-.013-.025-.086-.025-.086A.048.048,0,0,1,28.5,7.94Z"/><polygon class="cls-31" points="24.625 10.855 24.077 10.142 25.174 9.509 24.625 10.855"/><path class="cls-32" d="M32.084,5.872l.216-.125c.028.016.028.085.028.085a.051.051,0,0,1-.028.047L32.084,6V6.24a.055.055,0,0,1-.03.05l-.067.039c-.029-.016-.029-.252-.029-.252l-.217.125c-.028-.015-.028-.083-.028-.083a.052.052,0,0,1,.028-.049l.217-.125V5.71a.053.053,0,0,1,.029-.049l.067-.039C32.084,5.637,32.084,5.872,32.084,5.872Z"/><path class="cls-32" d="M32.476,5.444v-.1A.08.08,0,0,1,32.5,5.3l.156-.193a.216.216,0,0,1,.048-.046l.091-.052c.025.013.025,1.006.025,1.006a.044.044,0,0,1-.024.041l-.1.057c-.025-.013-.025-.864-.025-.864l-.164.2C32.486,5.464,32.476,5.464,32.476,5.444Z"/><path class="cls-32" d="M33.151,5.619v.127a.346.346,0,0,1-.028.114l-.08.205C33,6.078,33,5.707,33,5.707a.047.047,0,0,1,.026-.041l.1-.059Q33.151,5.594,33.151,5.619Z"/><path class="cls-32" d="M33.558,5.019l.082-.047a.2.2,0,0,0,.112-.184V4.7c0-.079-.037-.1-.112-.053l-.089.051a.223.223,0,0,0-.082.075.2.2,0,0,0-.026.1c0,.066-.008.08-.025.09l-.1.055c-.025-.013-.025-.063-.025-.063a.412.412,0,0,1,.061-.22.482.482,0,0,1,.173-.165l.131-.076a.2.2,0,0,1,.173-.035c.041.02.062.07.062.149v.09a.333.333,0,0,1-.12.252c.08-.026.12.012.12.113v.094a.413.413,0,0,1-.062.22.474.474,0,0,1-.173.165l-.131.076a.191.191,0,0,1-.173.034c-.041-.019-.061-.069-.061-.148V5.456a.047.047,0,0,1,.025-.044l.1-.056c.025.015.025.068.025.068,0,.041.009.065.026.074s.045,0,.082-.019l.089-.051a.2.2,0,0,0,.112-.182V5.157c0-.08-.037-.1-.112-.055l-.082.048c-.026-.013-.026-.086-.026-.086A.048.048,0,0,1,33.558,5.019Z"/><path class="cls-32" d="M34.465,5.087l-.16.092a.2.2,0,0,1-.173.038c-.041-.017-.061-.066-.061-.145V4.984a.353.353,0,0,1,.1-.256c-.069.01-.1-.036-.1-.137V4.508a.4.4,0,0,1,.061-.215.492.492,0,0,1,.173-.162l.16-.092A.2.2,0,0,1,34.637,4c.041.018.061.065.061.144v.083a.365.365,0,0,1-.028.143.313.313,0,0,1-.074.113q.1-.015.1.138V4.71a.4.4,0,0,1-.061.216A.5.5,0,0,1,34.465,5.087Zm-.14-.511.119-.068a.2.2,0,0,0,.108-.185v-.08c0-.04-.009-.064-.026-.073s-.045,0-.082.02l-.119.069a.221.221,0,0,0-.082.074.194.194,0,0,0-.026.1v.08C34.217,4.6,34.253,4.618,34.325,4.576Zm0,.453.119-.068a.241.241,0,0,0,.082-.075.2.2,0,0,0,.026-.1V4.7q0-.123-.108-.06l-.119.068a.2.2,0,0,0-.108.185v.088c0,.04.008.065.026.073S34.288,5.051,34.325,5.029Z"/><path class="cls-32" d="M35.246,4.636,35.1,4.72c-.074.042-.132.054-.173.033s-.061-.071-.061-.15V4.06a.423.423,0,0,1,.061-.223.482.482,0,0,1,.173-.165l.3-.173c.026.013.026.1.026.1a.044.044,0,0,1-.026.04l-.278.161a.2.2,0,0,0-.109.183v.14l.232-.133c.074-.043.132-.055.173-.034s.062.07.062.151v.143a.422.422,0,0,1-.062.221A.471.471,0,0,1,35.246,4.636Zm-.123-.067.1-.059a.2.2,0,0,0,.108-.183V4.2c0-.08-.036-.1-.108-.058l-.211.122v.251C35.014,4.591,35.05,4.611,35.123,4.569Z"/><polygon class="cls-28" points="30.916 6.194 30.368 7.539 31.464 6.906 30.916 6.194"/><path class="cls-33" d="M38.282,2.429l-.3.172c-.026-.015-.026-.087-.026-.087a.046.046,0,0,1,.026-.043l.3-.173c.025.015.025.087.025.087A.048.048,0,0,1,38.282,2.429Z"/><path class="cls-33" d="M38.7,2.05,38.783,2a.2.2,0,0,0,.111-.184V1.734c0-.078-.037-.095-.111-.052l-.089.051a.223.223,0,0,0-.082.075.2.2,0,0,0-.026.1c0,.065-.009.08-.026.089l-.1.056C38.438,2.045,38.438,2,38.438,2a.413.413,0,0,1,.062-.22.482.482,0,0,1,.173-.165l.131-.076a.2.2,0,0,1,.173-.035c.041.02.062.07.062.149v.09a.331.331,0,0,1-.121.252c.081-.026.121.012.121.113V2.2a.416.416,0,0,1-.062.22.482.482,0,0,1-.173.165l-.131.076a.194.194,0,0,1-.173.034c-.041-.019-.062-.069-.062-.148V2.487a.048.048,0,0,1,.026-.044l.1-.056c.026.014.026.068.026.068,0,.041.009.065.026.074s.045,0,.082-.019l.089-.051a.2.2,0,0,0,.111-.182V2.188c0-.08-.037-.1-.111-.055l-.083.048c-.025-.013-.025-.087-.025-.087A.048.048,0,0,1,38.7,2.05Z"/><path class="cls-33" d="M39.352,2.039v.127a.364.364,0,0,1-.029.115l-.08.2c-.043.014-.043-.358-.043-.358a.046.046,0,0,1,.025-.041l.1-.059Q39.352,2.013,39.352,2.039Z"/><path class="cls-33" d="M39.877,1.963l-.306.176c-.028-.011-.028-.1-.028-.1A.049.049,0,0,1,39.571,2l.285-.164a.2.2,0,0,0,.108-.183V1.521l-.232.134a.191.191,0,0,1-.173.034c-.041-.021-.061-.07-.061-.15V1.386a.422.422,0,0,1,.061-.222A.476.476,0,0,1,39.732,1l.145-.083A.192.192,0,0,1,40.05.88c.041.021.062.071.062.152v.542a.425.425,0,0,1-.062.222A.479.479,0,0,1,39.877,1.963ZM39.755,1.5l.211-.122V1.123c0-.081-.037-.1-.11-.058l-.1.059a.2.2,0,0,0-.108.183v.138C39.647,1.525,39.683,1.543,39.755,1.5Z"/><path class="cls-33" d="M40.616.982l-.094.054a.182.182,0,0,0-.047.038c-.036.071-.049.091-.066.1l-.094.055A3.64,3.64,0,0,1,40.289.7a.047.047,0,0,1,.026-.042l.51-.3c.027.012.027.1.027.1a.049.049,0,0,1-.027.044L40.437.74v.3a.248.248,0,0,1,.126-.152l.089-.052c.072-.041.127-.053.165-.034s.057.068.057.147v.189a.421.421,0,0,1-.061.221.465.465,0,0,1-.172.166l-.128.074c-.074.043-.131.054-.172.033s-.061-.072-.061-.151c0-.062.009-.076.026-.086l.094-.055c.026.135.062.153.134.112l.086-.05a.2.2,0,0,0,.112-.183V1.05c0-.049-.009-.078-.027-.089S40.658.957,40.616.982Z"/><path class="cls-33" d="M41.281.56l.083-.047a.2.2,0,0,0,.111-.184V.244c0-.078-.037-.095-.111-.052l-.089.051a.215.215,0,0,0-.082.075.19.19,0,0,0-.026.1c0,.065-.009.08-.026.089l-.1.056c-.026-.013-.026-.063-.026-.063a.413.413,0,0,1,.062-.22A.474.474,0,0,1,41.254.12l.131-.076a.2.2,0,0,1,.173-.035c.041.02.061.07.061.149v.09A.333.333,0,0,1,41.5.5c.08-.026.12.012.12.113V.707a.415.415,0,0,1-.061.22.482.482,0,0,1-.173.165l-.131.076c-.075.042-.132.054-.173.034s-.062-.069-.062-.148V1a.048.048,0,0,1,.026-.044l.1-.056c.026.014.026.068.026.068,0,.041.008.065.026.074s.045,0,.082-.019l.089-.051a.2.2,0,0,0,.111-.182V.7c0-.08-.037-.1-.111-.055l-.083.048c-.026-.013-.026-.086-.026-.086A.049.049,0,0,1,41.281.56Z"/><polygon class="cls-31" points="37.207 3.591 36.658 2.878 37.755 2.245 37.207 3.591"/><polygon class="cls-34" points="11.452 19.157 11.452 19.472 11.768 19.29 11.768 23.97 11.452 24.152 11.452 24.467 11.768 24.285 11.768 28.964 11.452 29.146 11.452 29.461 11.768 29.279 11.768 33.959 11.452 34.141 11.452 34.456 11.768 34.274 11.768 38.954 11.452 39.136 11.452 39.451 11.768 39.269 11.768 43.948 11.452 44.13 11.452 44.445 12.058 44.095 12.059 18.807 11.452 19.157"/><polygon class="cls-26" points="29.753 48.923 25.39 51.442 24.259 50.788 28.621 48.269 29.753 48.923"/><path class="cls-16" d="M26.883,51.8l.109-.063c.1-.056.1-.111,0-.167l-.1-.059a.27.27,0,0,0-.288,0l-.117.067c-.049.028-.073.055-.074.082s.024.053.075.082l.057.033q.033.02,0,.039l-.127.073a.062.062,0,0,1-.067,0l-.061-.035c-.1-.055-.144-.114-.143-.176s.052-.12.149-.176l.172-.1a.615.615,0,0,1,.306-.086.6.6,0,0,1,.3.083l.109.063c.116.066.137.139.063.218a.434.434,0,0,1,.379.037l.115.066c.1.056.144.114.142.176s-.051.12-.148.176l-.172.1a.607.607,0,0,1-.306.085.588.588,0,0,1-.3-.082l-.069-.04c-.024-.013-.024-.027,0-.04l.127-.073a.066.066,0,0,1,.069,0l.065.038a.3.3,0,0,0,.142.043.284.284,0,0,0,.142-.043l.117-.067c.1-.056.1-.112,0-.167l-.109-.062a.271.271,0,0,0-.29,0l-.108.063a.064.064,0,0,1-.068,0l-.089-.052C26.861,51.825,26.861,51.812,26.883,51.8Z"/><path class="cls-16" d="M28.181,51.561l.241.139c.022.013.023.026,0,.038l-.134.077a.064.064,0,0,1-.068,0l-.24-.139c-.021-.012-.021-.024,0-.038l.134-.077A.06.06,0,0,1,28.181,51.561Z"/><path class="cls-16" d="M28.426,50.961l-.122.07a.111.111,0,0,0-.048.045c.012.062.01.08-.011.093l-.125.071a.06.06,0,0,1-.067,0l-.621-.358c-.022-.013-.021-.026,0-.038l.67-.387a.066.066,0,0,1,.069,0l.112.066c.022.012.022.026,0,.04l-.509.294.359.207c-.043-.05-.019-.1.069-.151l.117-.068a.578.578,0,0,1,.291-.082.565.565,0,0,1,.293.083l.229.132c.1.055.145.114.145.176s-.048.122-.145.177l-.167.1a.6.6,0,0,1-.613,0L28.3,51.4c-.024-.014-.025-.027,0-.041l.124-.071a.064.064,0,0,1,.069,0l.05.029a.268.268,0,0,0,.286,0l.113-.065c.1-.056.1-.112,0-.167l-.2-.115a.341.341,0,0,0-.162-.053A.3.3,0,0,0,28.426,50.961Z"/><path class="cls-16" d="M30.127,50.755l-.4.231a.065.065,0,0,1-.071,0l-.1-.059c-.021-.012-.019-.025.006-.04l.373-.215c.095-.055.094-.11,0-.167l-.16-.092-.3.175a.622.622,0,0,1-.307.086.612.612,0,0,1-.306-.083l-.185-.107c-.1-.057-.146-.116-.145-.178s.05-.121.147-.177l.19-.11a.615.615,0,0,1,.307-.085.607.607,0,0,1,.307.084l.658.38q.144.083.144.177C30.273,50.639,30.224,50.7,30.127,50.755Zm-.8-.28.276-.159-.312-.181a.273.273,0,0,0-.29,0l-.133.077c-.094.054-.093.11,0,.166l.169.1A.266.266,0,0,0,29.323,50.475Z"/><path class="cls-16" d="M30.85,50.337l-.136.079c-.025.014-.044.01-.056-.012l-.631-.853-.5.288a.064.064,0,0,1-.069,0l-.109-.062q-.033-.02,0-.039l.67-.386a.064.064,0,0,1,.069,0l.122.071a.2.2,0,0,1,.061.06l.6.808C30.887,50.3,30.879,50.32,30.85,50.337Z"/><polygon class="cls-32" points="35.747 45.462 31.385 47.981 30.253 47.327 34.615 44.808 35.747 45.462"/><path class="cls-16" d="M33.687,48.7l-.209.121a.638.638,0,0,1-.3.088.575.575,0,0,1-.3-.08l-.106-.062c-.121-.07-.155-.142-.1-.215a.492.492,0,0,1-.375-.06l-.1-.058c-.095-.055-.141-.112-.136-.172s.054-.118.152-.174l.209-.121a.626.626,0,0,1,.3-.088.569.569,0,0,1,.3.08l.1.058a.276.276,0,0,1,.118.11.094.094,0,0,1-.013.105.49.49,0,0,1,.373.061l.1.06c.1.056.143.114.14.173S33.785,48.643,33.687,48.7Zm-.9-.308.155-.09c.095-.055.093-.111-.005-.168l-.1-.055a.265.265,0,0,0-.141-.042.287.287,0,0,0-.142.043l-.156.09c-.048.028-.074.055-.074.081s.024.054.072.082l.1.056A.273.273,0,0,0,32.787,48.391Zm.549.317.156-.09c.049-.028.073-.055.074-.081s-.023-.054-.072-.082l-.107-.062a.273.273,0,0,0-.291,0l-.155.09c-.1.055-.093.111,0,.168l.107.061a.275.275,0,0,0,.142.042A.29.29,0,0,0,33.336,48.708Z"/><path class="cls-16" d="M34.13,48.127l.24.139c.023.013.024.025,0,.037l-.135.078a.062.062,0,0,1-.067,0l-.241-.139c-.021-.012-.02-.025,0-.038l.135-.078A.058.058,0,0,1,34.13,48.127Z"/><path class="cls-16" d="M34.221,47.563l.109-.063c.1-.056.1-.112,0-.167l-.1-.06a.272.272,0,0,0-.289,0l-.116.068c-.049.028-.074.055-.075.082s.025.053.075.082l.057.033q.035.02,0,.039l-.126.073a.064.064,0,0,1-.068,0l-.061-.035c-.1-.056-.143-.115-.142-.176s.051-.121.148-.177l.172-.1a.621.621,0,0,1,.306-.086.6.6,0,0,1,.3.082l.108.063q.174.1.063.219a.436.436,0,0,1,.38.037l.114.066c.1.055.144.114.142.175s-.05.121-.148.177L34.9,48a.614.614,0,0,1-.306.085.584.584,0,0,1-.3-.082l-.07-.04c-.023-.014-.023-.027,0-.04l.126-.073a.064.064,0,0,1,.069,0l.066.038a.261.261,0,0,0,.284,0l.116-.068c.1-.056.1-.111.005-.166l-.109-.063a.273.273,0,0,0-.29,0l-.109.063a.064.064,0,0,1-.068,0l-.088-.051C34.2,47.589,34.2,47.576,34.221,47.563Z"/><path class="cls-16" d="M36.129,47.289l-.209.121a.63.63,0,0,1-.3.088.573.573,0,0,1-.3-.08l-.106-.061c-.122-.071-.155-.142-.1-.216a.5.5,0,0,1-.376-.06l-.1-.058c-.095-.054-.141-.112-.137-.171s.055-.119.153-.175l.209-.121a.613.613,0,0,1,.3-.087.562.562,0,0,1,.3.079l.1.058a.276.276,0,0,1,.118.11.1.1,0,0,1-.013.106.486.486,0,0,1,.373.06l.1.061c.1.055.143.113.14.172S36.226,47.233,36.129,47.289Zm-.9-.308.156-.09c.095-.055.093-.11-.006-.167l-.1-.056a.257.257,0,0,0-.283,0l-.156.09c-.049.028-.074.055-.074.081s.023.054.072.082l.1.056A.271.271,0,0,0,35.228,46.981Zm.55.317.155-.089c.049-.029.073-.056.074-.082s-.023-.054-.072-.082l-.106-.061a.273.273,0,0,0-.291,0l-.155.09c-.1.055-.094.111,0,.168l.107.062a.259.259,0,0,0,.283,0Z"/><path class="cls-16" d="M37.142,46.7l-.4.232a.069.069,0,0,1-.072,0l-.1-.059c-.02-.012-.018-.026.007-.04l.373-.216c.095-.054.093-.11,0-.166l-.161-.093-.3.176a.6.6,0,0,1-.306.085.6.6,0,0,1-.306-.083l-.185-.107c-.1-.056-.146-.116-.146-.177s.05-.121.148-.178l.189-.109a.61.61,0,0,1,.307-.085.593.593,0,0,1,.308.084l.657.379c.1.056.144.115.144.177S37.24,46.648,37.142,46.7Zm-.8-.279.277-.16-.312-.18a.273.273,0,0,0-.291,0l-.132.076c-.1.055-.093.11,0,.166l.168.1A.271.271,0,0,0,36.338,46.425Z"/><polygon class="cls-30" points="41.742 42.001 37.379 44.52 36.247 43.866 40.61 41.348 41.742 42.001"/><path class="cls-16" d="M38.425,44.855l-.116-.067c-.021-.013-.028-.027-.02-.044l.081-.19a.1.1,0,0,1,.041-.049l.119-.069a.067.067,0,0,1,.067,0l1.2.7c.022.013.023.026,0,.037l-.128.075a.064.064,0,0,1-.068,0l-1.03-.6-.092.2A.039.039,0,0,1,38.425,44.855Z"/><path class="cls-16" d="M40,44.739l.24.139c.023.013.024.025,0,.037l-.135.078a.062.062,0,0,1-.067,0l-.241-.139c-.021-.012-.02-.025,0-.038l.135-.078A.062.062,0,0,1,40,44.739Z"/><path class="cls-16" d="M40.438,44.763l-.182-.1a.164.164,0,0,1-.1-.179l.069-.391a.136.136,0,0,0-.078-.156l-.065-.037a.273.273,0,0,0-.291,0l-.1.056c-.05.029-.075.056-.075.082s.025.053.076.082l.073.042c.023.014.024.027,0,.04l-.126.073a.064.064,0,0,1-.069,0l-.077-.044c-.1-.056-.144-.114-.143-.176s.051-.12.149-.176l.154-.089a.6.6,0,0,1,.3-.085.591.591,0,0,1,.3.082l.081.047c.1.059.147.131.133.216l-.069.4a.072.072,0,0,0,.043.077l.063.037.514-.3a.062.062,0,0,1,.068,0l.1.06c.023.013.022.026,0,.04l-.694.4A.064.064,0,0,1,40.438,44.763Z"/><path class="cls-16" d="M41.051,43.62l.108-.063c.1-.056.1-.112,0-.168l-.1-.059a.272.272,0,0,0-.289,0l-.117.068c-.049.028-.073.055-.074.081s.024.054.075.083l.057.033q.033.02,0,.039l-.127.073a.065.065,0,0,1-.067,0l-.061-.035c-.1-.056-.144-.115-.143-.176s.052-.121.149-.177l.172-.1a.618.618,0,0,1,.306-.086.591.591,0,0,1,.3.082l.109.063q.174.1.063.219a.437.437,0,0,1,.379.036l.115.067c.1.055.144.114.142.175s-.051.121-.148.177l-.172.1a.615.615,0,0,1-.306.086.591.591,0,0,1-.3-.082l-.07-.04c-.024-.014-.024-.027,0-.04l.126-.073a.064.064,0,0,1,.069,0l.065.038a.288.288,0,0,0,.142.042.28.28,0,0,0,.142-.042l.117-.068c.1-.056.1-.111,0-.166l-.108-.063a.275.275,0,0,0-.291,0l-.108.063a.064.064,0,0,1-.068,0l-.088-.051C41.028,43.646,41.028,43.633,41.051,43.62Z"/><path class="cls-16" d="M42.931,43.362l-.189.109a.6.6,0,0,1-.615,0l-.657-.38c-.1-.056-.147-.116-.146-.178s.05-.12.148-.177l.392-.227a.062.062,0,0,1,.067,0l.1.059c.021.013.021.025,0,.038l-.365.211c-.095.055-.094.111,0,.167l.171.1.3-.176a.622.622,0,0,1,.308-.085.608.608,0,0,1,.306.084l.174.1q.144.084.144.177C43.077,43.246,43.029,43.306,42.931,43.362Zm-.329,0,.134-.078c.1-.055.093-.11,0-.167l-.158-.091a.27.27,0,0,0-.288,0l-.277.16.3.175A.27.27,0,0,0,42.6,43.359Z"/><polygon class="cls-29" points="47.736 38.54 43.374 41.059 42.242 40.405 46.604 37.887 47.736 38.54"/><path class="cls-16" d="M45.827,41.69l-.116.067a.062.062,0,0,1-.067,0l-.208-.12-.522.3a.107.107,0,0,1-.114,0l-.061-.036a.153.153,0,0,1-.06-.054l-.343-.708c.021-.069.2-.17.2-.17a.109.109,0,0,1,.114,0l.8.464.144-.084a.062.062,0,0,1,.067,0l.1.057c.025.015.026.028,0,.041l-.145.084.208.119C45.848,41.665,45.848,41.678,45.827,41.69Zm-.561-.151-.7-.4.31.629Z"/><path class="cls-16" d="M46.1,41.217l.24.139c.023.013.024.025,0,.037l-.134.078a.064.064,0,0,1-.068,0l-.241-.139c-.021-.012-.02-.025,0-.038l.135-.077A.06.06,0,0,1,46.1,41.217Z"/><path class="cls-16" d="M47.074,40.97l-.19.11a.606.606,0,0,1-.614,0l-.658-.38c-.1-.056-.146-.115-.145-.178s.05-.12.147-.177l.393-.226a.061.061,0,0,1,.067,0l.1.06c.021.012.02.024,0,.037l-.365.211c-.095.055-.094.111,0,.167l.17.1.3-.176a.618.618,0,0,1,.307-.085.609.609,0,0,1,.307.084l.174.1c.1.055.144.114.144.176S47.171,40.914,47.074,40.97Zm-.33,0,.135-.078c.094-.055.093-.11,0-.166l-.158-.092a.27.27,0,0,0-.288,0l-.277.16.3.175A.27.27,0,0,0,46.744,40.967Z"/><path class="cls-16" d="M48.119,40.367l-.209.121a.641.641,0,0,1-.3.088.565.565,0,0,1-.3-.081l-.106-.061c-.122-.07-.156-.142-.1-.215a.493.493,0,0,1-.375-.06l-.1-.058c-.094-.055-.14-.112-.136-.172s.055-.118.153-.175l.209-.12a.609.609,0,0,1,.3-.088.563.563,0,0,1,.3.08l.1.058a.273.273,0,0,1,.117.11.092.092,0,0,1-.012.105.487.487,0,0,1,.373.061l.1.06c.1.056.143.114.14.173S48.216,40.311,48.119,40.367Zm-.9-.308.156-.09q.142-.083-.006-.168l-.1-.056a.276.276,0,0,0-.142-.041.271.271,0,0,0-.141.043l-.156.089c-.049.029-.074.056-.074.082s.023.054.072.082l.1.056A.271.271,0,0,0,47.218,40.059Zm.55.317.155-.09c.049-.028.073-.055.074-.082s-.023-.053-.072-.081l-.107-.062a.271.271,0,0,0-.29,0l-.156.09q-.142.083.006.168l.107.061a.279.279,0,0,0,.141.042A.3.3,0,0,0,47.768,40.376Z"/><path class="cls-16" d="M49.132,39.782l-.4.231a.064.064,0,0,1-.071,0l-.1-.059c-.02-.012-.018-.025.007-.04l.373-.215c.095-.055.093-.11,0-.167l-.16-.092-.3.175a.6.6,0,0,1-.612,0l-.186-.107c-.1-.057-.146-.116-.145-.178s.05-.121.147-.177l.19-.11a.6.6,0,0,1,.615,0l.657.38q.144.084.144.177C49.278,39.666,49.229,39.726,49.132,39.782Zm-.8-.28.277-.159-.313-.181a.273.273,0,0,0-.29,0l-.132.077c-.095.054-.093.11,0,.166l.168.1A.266.266,0,0,0,48.328,39.5Z"/><polygon class="cls-27" points="53.73 35.079 49.368 37.598 48.236 36.944 52.599 34.426 53.73 35.079"/><path class="cls-16" d="M51.015,37.919l-.123.071a.11.11,0,0,0-.048.044c.012.062.01.081-.011.093l-.125.072a.062.062,0,0,1-.067,0l-.62-.358c-.023-.013-.022-.026,0-.039l.67-.387a.066.066,0,0,1,.069,0l.113.065c.022.013.021.027,0,.04l-.51.294.359.208c-.042-.05-.019-.1.069-.152l.117-.067a.555.555,0,0,1,.584,0l.23.132q.144.084.144.177t-.144.177l-.168.1a.606.606,0,0,1-.612,0l-.052-.03c-.024-.014-.025-.027,0-.04l.125-.072a.064.064,0,0,1,.069,0l.049.028a.266.266,0,0,0,.286,0l.113-.065c.1-.056.1-.112,0-.168l-.2-.115a.353.353,0,0,0-.161-.053A.3.3,0,0,0,51.015,37.919Z"/><path class="cls-16" d="M52.145,37.726l.24.139c.023.013.023.025,0,.037l-.135.078a.062.062,0,0,1-.067,0l-.241-.139c-.021-.012-.021-.025,0-.038l.135-.078A.058.058,0,0,1,52.145,37.726Z"/><path class="cls-16" d="M53.148,37.463l-.209.121a.63.63,0,0,1-.3.088.573.573,0,0,1-.3-.08l-.106-.061c-.122-.07-.155-.142-.1-.216a.5.5,0,0,1-.375-.059l-.1-.059c-.095-.054-.141-.112-.137-.171s.055-.119.153-.175l.209-.121a.61.61,0,0,1,.3-.087.562.562,0,0,1,.3.079l.1.058a.267.267,0,0,1,.117.11.094.094,0,0,1-.012.106.491.491,0,0,1,.373.06l.1.061c.1.055.143.113.14.172S53.245,37.407,53.148,37.463Zm-.9-.308.156-.09c.095-.055.093-.11-.006-.167l-.1-.056a.288.288,0,0,0-.142-.042.291.291,0,0,0-.141.043l-.156.09c-.049.028-.074.055-.074.082s.023.053.072.081l.1.056A.271.271,0,0,0,52.247,37.155Zm.55.317.155-.089c.049-.029.073-.056.074-.082s-.023-.054-.072-.082l-.106-.061a.273.273,0,0,0-.291,0l-.156.09q-.143.082.006.168l.107.062a.259.259,0,0,0,.283,0Z"/><path class="cls-16" d="M53.442,36.518l-.122.07a.127.127,0,0,0-.049.044c.013.062.011.081-.011.094l-.124.071a.062.062,0,0,1-.067,0l-.621-.358c-.022-.013-.021-.026,0-.039l.669-.386a.066.066,0,0,1,.069,0l.113.065c.022.013.022.027,0,.041l-.509.294.359.207c-.043-.05-.02-.1.069-.151l.116-.068a.584.584,0,0,1,.291-.082.574.574,0,0,1,.294.082l.229.133c.1.055.145.114.145.176s-.049.122-.145.177l-.167.1a.6.6,0,0,1-.613,0l-.051-.03c-.024-.013-.025-.027,0-.04l.124-.071a.064.064,0,0,1,.069,0l.05.028a.266.266,0,0,0,.286,0l.113-.065c.1-.056.1-.112,0-.167l-.2-.115a.334.334,0,0,0-.161-.053A.3.3,0,0,0,53.442,36.518Z"/><path class="cls-16" d="M55.155,36.305l-.19.109a.607.607,0,0,1-.308.084.6.6,0,0,1-.306-.083l-.658-.38c-.1-.056-.146-.115-.145-.177s.05-.121.147-.177l.393-.227a.062.062,0,0,1,.067,0l.1.059c.021.012.021.025,0,.038l-.365.21c-.095.055-.094.111,0,.167l.171.1.3-.175a.6.6,0,0,1,.307-.085.59.59,0,0,1,.307.084l.174.1c.1.055.144.114.144.176S55.253,36.248,55.155,36.305Zm-.33,0,.135-.078c.095-.054.093-.11-.005-.166l-.158-.091a.27.27,0,0,0-.288,0l-.277.16.3.176A.272.272,0,0,0,54.825,36.3Z"/><path class="cls-26" d="M53.408,51.115l12.846-2.847c2.724,4.1-.82,8.691-7.915,10.263-.468.1-.885.182-1.369.257Z"/><path class="cls-29" d="M53.408,51.115l-10.693-5c3.826-2.728,9.949-3.675,15.624-2.417Z"/><path class="cls-35" d="M53.408,51.115l-13.59,1.242c-.634-2.309.348-4.424,2.9-6.242Z"/><path class="cls-36" d="M53.408,51.115l3.562,7.673c-7.341,1.136-14.886-1.379-16.853-5.617a4.936,4.936,0,0,1-.3-.814Z"/><path class="cls-37" d="M53.408,51.115,58.339,43.7c3.782.838,6.464,2.386,7.915,4.57Z"/><path class="cls-16" d="M59.565,63.885l1.543-.891.368.213-1.543.891Zm.94,2.831L58.1,68.1l.368.212,2.846-1.643L62.3,66.1l-.368-.212-1.429.824Zm1.037-1.86-.368-.213-1.2.7-.793.458.368.212.793-.457Zm-2.931,1.267-1.976,1.141.368.213,1.976-1.141Zm-.072-1.22.829-.479L59,64.212l-1.429.824-2.385,1.377.369.213L58.539,64.9Zm-3.8.508,1.945-1.123-.368-.213L54.369,65.2l-.629.363.368.213.629-.363Zm3.883-2.242.625-.361-.368-.212-.826.476-1.172.677.368.212,1.373-.792Zm5.422,1.505-1.543.891.368.213,1.544-.891Zm4.572-2.64-1.438.831.368.213,1.439-.831Zm-4.4-2.518-.865.5.368.213.865-.5Zm-1.43.825-.745.43.368.213.745-.43Zm2.905.01-1.42.82.368.213,1.42-.82Zm-.668,2.073-.607.35.368.213.607-.35Zm.933-.114,1.577-.91-.368-.213-1.577.911Zm4.9-1.565-.616.356.369.213.616-.356Zm-4.4-2.518-.865.5.368.212.865-.5Zm1.475.835-.6.345.368.212.6-.345Zm.72,1.271.368.213.754-.435-.368-.213ZM56.332,69.551l.64-.37-.368-.212-.64.369Zm-4.4-2.519.391-.226-.368-.212-.391.226Zm1.475.835.659-.38-.369-.212-.658.38Zm1.1.624.369.213.5-.29-.368-.213Z"/><path class="cls-16" d="M73.191,56.018l1.543-.89.368.212-1.543.891Zm.94,2.831-2.4,1.388.368.213,2.846-1.643.986-.57-.368-.212-1.429.824Zm1.036-1.86-.368-.212-1.205.7-.792.458.368.213.793-.458Zm-2.931,1.267L70.261,59.4l.368.213,1.976-1.141Zm-.072-1.22.83-.479-.369-.212-1.428.824-2.385,1.377.368.213,2.984-1.723Zm-3.8.508,1.944-1.123-.368-.212L68,57.331l-.63.364.368.212.63-.363ZM72.245,55.3l.625-.361-.368-.212-.825.476-1.172.677.368.213,1.372-.793Zm5.423,1.505-1.543.891.368.213,1.543-.891Zm4.572-2.639L80.8,55l.368.213,1.439-.831Zm-4.4-2.519-.865.5.368.213.865-.5Zm-1.431.826-.744.43.368.212.745-.43Zm2.906.009-1.421.82.369.213,1.42-.82Zm-.669,2.073-.606.351.368.212.607-.35Zm.934-.114,1.577-.91-.369-.212-1.576.91Zm4.9-1.565-.616.356.368.213.616-.356Zm-4.4-2.518-.865.5.368.213.865-.5Zm1.475.835-.6.345.369.213.6-.345Zm.72,1.272.368.212.754-.435-.369-.213Z"/><path class="cls-16" d="M64.471,66.547l-.368-.212-1.2.7-.793.458.369.213.792-.458ZM61.54,67.814l-1.976,1.141.368.213,1.976-1.141Zm6.407-3.7-.607.351.368.212.607-.35ZM68.88,64l1.577-.91-.368-.212-1.577.91Zm2.688-1.976.368.212.754-.435-.368-.213ZM57.439,70.182l.368.213.5-.29-.368-.213Z"/><path class="cls-16" d="M78.1,58.68l-.368-.212-1.2.7-.793.457.368.213.793-.458Zm-2.931,1.268-1.976,1.14.368.213,1.976-1.141Zm6.407-3.7-.607.35.368.212.607-.35Zm.933-.114,1.577-.911-.368-.212-1.577.91Zm2.688-1.977.368.212.754-.435-.368-.212Z"/><path class="cls-16" d="M49.235,65.453l.641-.369-.369-.213-.64.37Zm-4.4-2.518.391-.226-.368-.213-.391.226Zm1.475.835.659-.38-.368-.213-.659.38Zm1.1.624.369.212.5-.29-.368-.212Z"/><path class="cls-16" d="M77.376,48.781l-.616.356.369.212.615-.355Zm-4.4-2.519-.865.5.368.212.865-.5Zm1.475.836-.6.345.368.212.6-.345Zm.72,1.271.368.213.754-.435-.369-.213Z"/><path class="cls-16" d="M42.139,61.356l.64-.369-.368-.213-.641.37Zm-4.4-2.519.391-.226-.368-.212-.391.226Zm1.475.836.659-.381L39.5,59.08l-.659.38Zm1.106.623.368.213.5-.29-.368-.213Z"/><path class="cls-16" d="M70.279,44.684l-.615.355.368.213.616-.356Zm-4.4-2.519-.865.5.368.213.865-.5ZM67.351,43l-.6.345.368.213.6-.345Zm.72,1.272.368.212.754-.435-.368-.212Z"/><path class="cls-16" d="M35.042,57.259l.64-.37-.368-.212-.64.369Zm-4.4-2.519.392-.226-.369-.212-.391.225Zm1.476.835.658-.38-.368-.212-.659.38Zm1.105.624.368.213.5-.29-.368-.213Z"/><path class="cls-16" d="M63.183,40.586l-.616.356.368.213.616-.356Zm-4.4-2.518-.865.5.368.213.865-.5Zm1.475.835-.6.345.368.213.6-.345Zm.72,1.271.368.213.754-.435-.368-.213Z"/></g></g></g></svg>