<svg xmlns="http://www.w3.org/2000/svg" xmlns:xlink="http://www.w3.org/1999/xlink" viewBox="0 0 104.383 85.412"><defs><style>.cls-1,.cls-19{fill:#282525;}.cls-2{isolation:isolate;}.cls-3{fill:#50197c;}.cls-12,.cls-3,.cls-56{opacity:0.4;}.cls-10,.cls-11,.cls-3,.cls-56{mix-blend-mode:multiply;}.cls-12,.cls-4{fill:#c0b9c8;}.cls-10,.cls-11,.cls-5{fill:#e0dbe1;}.cls-6{fill:#6426db;}.cls-7{fill:url(#_ÂÁ_Ï_ÌÌ_È_ËÂÌÚ_860);}.cls-8{fill:url(#_ÂÁ_Ï_ÌÌ_È_ËÂÌÚ_813);}.cls-9{fill:#3d3838;}.cls-10{opacity:0.2;}.cls-13{clip-path:url(#clip-path);}.cls-14{fill:#ad852c;}.cls-15{fill:#8f49ff;}.cls-15,.cls-16,.cls-17,.cls-31{opacity:0.5;}.cls-16{fill:#9959ff;}.cls-17{fill:#a65aff;}.cls-18,.cls-62{fill:#cfe9ff;}.cls-18{opacity:0.7;}.cls-19{opacity:0.9;}.cls-20{fill:#db3e3e;}.cls-21{fill:url(#_ÂÁ_Ï_ÌÌ_È_ËÂÌÚ_46);}.cls-22,.cls-63{mix-blend-mode:screen;}.cls-23{opacity:0;}.cls-24{fill:#070910;opacity:0.063;}.cls-25{fill:#0d1220;opacity:0.125;}.cls-26{fill:#141a30;opacity:0.188;}.cls-27{fill:#1a2340;opacity:0.25;}.cls-28{fill:#212c50;opacity:0.313;}.cls-29{fill:#273560;opacity:0.375;}.cls-30{fill:#2e3e70;opacity:0.438;}.cls-31{fill:#354780;}.cls-32{fill:#3b4f8f;opacity:0.563;}.cls-33{fill:#42589f;opacity:0.625;}.cls-34{fill:#4861af;opacity:0.688;}.cls-35{fill:#4f6abf;opacity:0.75;}.cls-36{fill:#5573cf;opacity:0.813;}.cls-37{fill:#5c7bdf;opacity:0.875;}.cls-38{fill:#6284ef;opacity:0.938;}.cls-39{fill:#698dff;}.cls-40{fill:#6f92ff;}.cls-41{fill:#7596ff;}.cls-42{fill:#7b9bff;}.cls-43{fill:#81a0ff;}.cls-44{fill:#87a4ff;}.cls-45{fill:#8da9ff;}.cls-46{fill:#93adff;}.cls-47{fill:#9ab2ff;}.cls-48{fill:#a0b7ff;}.cls-49{fill:#a6bbff;}.cls-50{fill:#acc0ff;}.cls-51{fill:#b2c4ff;}.cls-52{fill:#b8c9ff;}.cls-53{fill:#beceff;}.cls-54{fill:#c4d2ff;}.cls-55{fill:#cad7ff;}.cls-56{fill:#1b1b1e;}.cls-57{fill:#788eff;}.cls-58{fill:#7334ea;}.cls-59{fill:#ffca8c;}.cls-60{fill:#fcb67c;}.cls-61,.cls-63{fill:#fff;}.cls-64{fill:#cfcad4;}</style><linearGradient id="_ÂÁ_Ï_ÌÌ_È_ËÂÌÚ_860" x1="61.412" y1="72.342" x2="64.289" y2="72.342" gradientUnits="userSpaceOnUse"><stop offset="0" stop-color="#c0b9c8"/><stop offset="1" stop-color="#e0dbe1"/></linearGradient><linearGradient id="_ÂÁ_Ï_ÌÌ_È_ËÂÌÚ_813" x1="32.851" y1="63.184" x2="97.219" y2="63.184" gradientUnits="userSpaceOnUse"><stop offset="0" stop-color="#f8f6fa"/><stop offset="1" stop-color="#fbf8fc"/></linearGradient><clipPath id="clip-path"><path class="cls-1" d="M53.462,79.8l1.631.94c.19.109.344.044.344-.146a.713.713,0,0,0-.345-.543l-1.631-.939c-.19-.11-.343-.045-.343.145A.713.713,0,0,0,53.462,79.8Z"/></clipPath><linearGradient id="_ÂÁ_Ï_ÌÌ_È_ËÂÌÚ_46" x1="316.232" y1="440.01" x2="320.712" y2="447.77" gradientTransform="translate(-243.527 -421.801)" gradientUnits="userSpaceOnUse"><stop offset="0.517" stop-color="#788eff"/><stop offset="0.518" stop-color="#7084f5"/><stop offset="0.524" stop-color="#4c54c3"/><stop offset="0.527" stop-color="#3e42b0"/></linearGradient></defs><g class="cls-2"><g id="_0" data-name="0"><g id="_5" data-name="5"><path class="cls-3" d="M104.125,60.586,70.517,42.241,43.859,57.632,40.718,45.1,0,68.069l1.183.683H31.315L59.88,85.244a7.174,7.174,0,0,0,3.087,0l41.158-23.763A.517.517,0,0,0,104.125,60.586Z"/><g class="cls-2"><path class="cls-4" d="M64.6,5.045a.749.749,0,0,0-.53.1L23.488,28.572l.3.061L64.367,5.205a.755.755,0,0,1,.531-.1Z"/><path class="cls-4" d="M32.081,66.53,23.172,30.292l-.3-.061L31.78,66.469a.9.9,0,0,0,.647.722l.3.061A.9.9,0,0,1,32.081,66.53Z"/><path class="cls-5" d="M23.789,28.633l-.3-.061a1.567,1.567,0,0,0-.616,1.659l.3.061A1.565,1.565,0,0,1,23.789,28.633Z"/><path class="cls-1" d="M74.453,42.066,65.545,5.828c-.155-.631-.682-.909-1.178-.623L23.789,28.633a1.565,1.565,0,0,0-.617,1.659L32.081,66.53c.155.63.681.909,1.177.623L73.837,43.725A1.566,1.566,0,0,0,74.453,42.066Z"/><polygon class="cls-6" points="72.705 39.292 64.588 6.274 24.072 29.665 32.199 62.678 72.705 39.292"/></g><g class="cls-2"><path class="cls-7" d="M32.851,66.67l0,1.126a.634.634,0,0,0,.373.521l28.494,16.45a1.975,1.975,0,0,0,1.793,0L103.82,61.34a.627.627,0,0,0,.367-.513l0-1.126Z"/><path class="cls-8" d="M103.815,59.177,75.321,42.727a1.964,1.964,0,0,0-1.788,0L33.22,66.154a.548.548,0,0,0,0,1.037L61.718,83.642a1.981,1.981,0,0,0,1.793,0l40.312-23.427A.549.549,0,0,0,103.815,59.177Z"/></g><path class="cls-4" d="M70.877,47.729a.138.138,0,0,1,0-.064.138.138,0,0,1,0-.064A.208.208,0,0,1,71,47.377l1.887-1.09a.733.733,0,0,1,.664,0l1.587.916a.209.209,0,0,1,.126.224.143.143,0,0,1,0,.065.138.138,0,0,1,0,.064.208.208,0,0,1-.126.224l-1.887,1.089a.733.733,0,0,1-.664,0L71,47.953A.208.208,0,0,1,70.877,47.729ZM74.05,46.2l1.586.916a.739.739,0,0,0,.664,0l1.887-1.09a.208.208,0,0,0,.126-.224.138.138,0,0,0,0-.064.138.138,0,0,0,0-.064.208.208,0,0,0-.126-.224L76.6,44.529a.733.733,0,0,0-.664,0L74.05,45.618a.208.208,0,0,0-.127.224.138.138,0,0,0,0,.064.143.143,0,0,0,0,.065A.209.209,0,0,0,74.05,46.2Zm-6.093,3.517,1.587.916a.733.733,0,0,0,.664,0L72.1,49.539a.209.209,0,0,0,.126-.224.143.143,0,0,0,0-.065.138.138,0,0,0,0-.064.208.208,0,0,0-.126-.224l-1.587-.916a.733.733,0,0,0-.664,0l-1.887,1.089a.209.209,0,0,0-.126.224.143.143,0,0,0,0,.065.138.138,0,0,0,0,.064A.208.208,0,0,0,67.957,49.712ZM45.038,69.318l1.587.916a.731.731,0,0,0,.663,0l1.887-1.089a.209.209,0,0,0,.127-.224.172.172,0,0,0,0-.064.178.178,0,0,0,0-.065.21.21,0,0,0-.127-.224l-1.587-.916a.731.731,0,0,0-.663,0l-1.887,1.09a.209.209,0,0,0-.127.223.178.178,0,0,0,0,.065.172.172,0,0,0,0,.064A.209.209,0,0,0,45.038,69.318Zm6.649-10.231L53.274,60a.733.733,0,0,0,.664,0l1.886-1.089a.208.208,0,0,0,.127-.224.138.138,0,0,0,0-.064.143.143,0,0,0,0-.065.209.209,0,0,0-.127-.224l-1.586-.916a.733.733,0,0,0-.664,0l-1.887,1.09a.208.208,0,0,0-.126.223.143.143,0,0,0,0,.065.138.138,0,0,0,0,.064A.208.208,0,0,0,51.687,59.087Zm6.092-3.517,1.587.916a.733.733,0,0,0,.664,0l1.887-1.09a.208.208,0,0,0,.126-.223.143.143,0,0,0,0-.065.138.138,0,0,0,0-.064.208.208,0,0,0-.126-.224L60.33,53.9a.733.733,0,0,0-.664,0l-1.887,1.089a.208.208,0,0,0-.126.224.143.143,0,0,0,0,.065.138.138,0,0,0,0,.064A.208.208,0,0,0,57.779,55.57Zm6.093-3.518,1.587.916a.731.731,0,0,0,.663,0l2.869-1.656a.209.209,0,0,0,.127-.224.172.172,0,0,0,0-.064.178.178,0,0,0,0-.065.21.21,0,0,0-.127-.224L67.4,49.819a.737.737,0,0,0-.663,0l-2.869,1.657a.209.209,0,0,0-.127.224.172.172,0,0,0,0,.064.178.178,0,0,0,0,.065A.209.209,0,0,0,63.872,52.052Zm-3.046,1.759,1.586.916a.733.733,0,0,0,.664,0l1.887-1.089a.211.211,0,0,0,.127-.224.172.172,0,0,0,0-.064.178.178,0,0,0,0-.065.211.211,0,0,0-.127-.224l-1.587-.916a.733.733,0,0,0-.664,0l-1.886,1.089a.21.21,0,0,0-.127.224.143.143,0,0,0,0,.065.138.138,0,0,0,0,.064A.209.209,0,0,0,60.826,53.811Zm-6.093,3.518,1.587.916a.733.733,0,0,0,.664,0l1.887-1.09A.208.208,0,0,0,59,56.931a.138.138,0,0,0,0-.064.143.143,0,0,0,0-.065.208.208,0,0,0-.126-.223l-1.587-.916a.733.733,0,0,0-.664,0l-1.887,1.089a.208.208,0,0,0-.126.224.138.138,0,0,0,0,.064.143.143,0,0,0,0,.065A.209.209,0,0,0,54.733,57.329Zm12.958-4.253,1.587.916a.731.731,0,0,0,.663,0L71.828,52.9a.21.21,0,0,0,.127-.224.172.172,0,0,0,0-.064.178.178,0,0,0,0-.065.209.209,0,0,0-.127-.224l-1.586-.916a.733.733,0,0,0-.664,0L67.691,52.5a.211.211,0,0,0-.127.224.178.178,0,0,0,0,.065.172.172,0,0,0,0,.064A.211.211,0,0,0,67.691,53.076ZM43.322,67.146l1.586.916a.733.733,0,0,0,.664,0l1.887-1.089a.209.209,0,0,0,.126-.224.143.143,0,0,0,0-.065.138.138,0,0,0,0-.064.208.208,0,0,0-.126-.224l-1.587-.916a.733.733,0,0,0-.664,0l-1.886,1.089a.209.209,0,0,0-.127.224.143.143,0,0,0,0,.065.138.138,0,0,0,0,.064A.208.208,0,0,0,43.322,67.146ZM64.645,54.835l1.586.916a.733.733,0,0,0,.664,0l1.887-1.09a.21.21,0,0,0,.127-.223.178.178,0,0,0,0-.065.172.172,0,0,0,0-.064.211.211,0,0,0-.127-.224l-1.587-.916a.731.731,0,0,0-.663,0l-1.887,1.089a.21.21,0,0,0-.127.224.178.178,0,0,0,0,.065.172.172,0,0,0,0,.064A.209.209,0,0,0,64.645,54.835ZM61.6,56.593l1.586.917a.733.733,0,0,0,.664,0l1.887-1.09a.211.211,0,0,0,.127-.224.172.172,0,0,0,0-.064.172.172,0,0,0,0-.064.211.211,0,0,0-.127-.224l-1.587-.916a.733.733,0,0,0-.664,0L61.6,56.017a.208.208,0,0,0-.127.224.138.138,0,0,0,0,.064.143.143,0,0,0,0,.065A.207.207,0,0,0,61.6,56.593Zm-3.047,1.759,1.587.916a.733.733,0,0,0,.664,0l1.887-1.089a.208.208,0,0,0,.126-.224.138.138,0,0,0,0-.064.143.143,0,0,0,0-.065.21.21,0,0,0-.126-.224L61.1,56.686a.739.739,0,0,0-.664,0l-1.887,1.09a.208.208,0,0,0-.126.223.143.143,0,0,0,0,.065.138.138,0,0,0,0,.064A.208.208,0,0,0,58.552,58.352ZM46.368,65.387l1.586.916a.733.733,0,0,0,.664,0l1.887-1.089a.211.211,0,0,0,.127-.224.172.172,0,0,0,0-.064.178.178,0,0,0,0-.065.211.211,0,0,0-.127-.224l-1.587-.916a.733.733,0,0,0-.664,0l-1.886,1.09a.209.209,0,0,0-.127.223.143.143,0,0,0,0,.065.138.138,0,0,0,0,.064A.209.209,0,0,0,46.368,65.387Zm3.046-1.759L51,64.545a.737.737,0,0,0,.663,0l1.887-1.09a.209.209,0,0,0,.127-.224.172.172,0,0,0,0-.064.178.178,0,0,0,0-.065.209.209,0,0,0-.127-.223c-2.334-1.348-1.546-1.323-4.137.173a.209.209,0,0,0-.127.224.172.172,0,0,0,0,.064.178.178,0,0,0,0,.065A.209.209,0,0,0,49.414,63.628ZM52.46,61.87l1.587.916a.733.733,0,0,0,.664,0L56.6,61.7a.207.207,0,0,0,.127-.223.143.143,0,0,0,0-.065.138.138,0,0,0,0-.064.208.208,0,0,0-.127-.224L55.011,60.2a.733.733,0,0,0-.664,0L52.46,61.293a.211.211,0,0,0-.127.224.172.172,0,0,0,0,.064.178.178,0,0,0,0,.065A.211.211,0,0,0,52.46,61.87Zm3.046-1.759c1.558.9,1.828,1.16,2.251.916l1.887-1.089a.209.209,0,0,0,.126-.224.138.138,0,0,0,0-.064.143.143,0,0,0,0-.065.208.208,0,0,0-.126-.224l-1.587-.916a.733.733,0,0,0-.664,0l-1.887,1.089a.209.209,0,0,0-.126.224.143.143,0,0,0,0,.065.138.138,0,0,0,0,.064A.208.208,0,0,0,55.506,60.111ZM50.075,71.7a.178.178,0,0,0,0-.065.172.172,0,0,0,0-.064.211.211,0,0,0-.127-.224l-1.587-.916a.731.731,0,0,0-.663,0l-2.869,1.656a.209.209,0,0,0-.127.224.138.138,0,0,0,0,.064.143.143,0,0,0,0,.065.21.21,0,0,0,.127.224l1.586.916a.733.733,0,0,0,.664,0l2.869-1.657A.21.21,0,0,0,50.075,71.7ZM46.256,70.68a.178.178,0,0,0,0-.065.172.172,0,0,0,0-.064.211.211,0,0,0-.127-.224l-1.587-.916a.733.733,0,0,0-.664,0L41.992,70.5a.21.21,0,0,0-.127.224.143.143,0,0,0,0,.065.138.138,0,0,0,0,.064.209.209,0,0,0,.127.224l1.586.916a.733.733,0,0,0,.664,0L46.129,70.9A.211.211,0,0,0,46.256,70.68Zm2.385-9.834c2.287,1.32,1.5,1.352,4.137-.173a.21.21,0,0,0,.127-.224.172.172,0,0,0,0-.064.178.178,0,0,0,0-.065.209.209,0,0,0-.127-.224l-1.586-.916a.733.733,0,0,0-.664,0l-1.887,1.089a.211.211,0,0,0-.127.224.178.178,0,0,0,0,.065.172.172,0,0,0,0,.064A.211.211,0,0,0,48.641,60.846Zm31.918-6.717a.138.138,0,0,0,0-.064.143.143,0,0,0,0-.065.209.209,0,0,0-.126-.224l-1.587-.916a.733.733,0,0,0-.664,0L76.3,53.95a.208.208,0,0,0-.126.223.143.143,0,0,0,0,.065.138.138,0,0,0,0,.064.208.208,0,0,0,.126.224l1.587.916a.733.733,0,0,0,.664,0l1.887-1.089A.208.208,0,0,0,80.559,54.129ZM44.539,68.508a.143.143,0,0,0,0-.065.138.138,0,0,0,0-.064.208.208,0,0,0-.126-.224l-1.587-.916a.733.733,0,0,0-.664,0L39.293,68.9a.208.208,0,0,0-.126.224.138.138,0,0,0,0,.064.143.143,0,0,0,0,.065.209.209,0,0,0,.126.224l1.587.916a.733.733,0,0,0,.664,0l2.869-1.657A.208.208,0,0,0,44.539,68.508Zm1.056-5.9,1.586.916a.733.733,0,0,0,.664,0l1.887-1.09a.209.209,0,0,0,.127-.223.178.178,0,0,0,0-.065.172.172,0,0,0,0-.064.209.209,0,0,0-.127-.224l-1.587-.916a.731.731,0,0,0-.663,0L45.6,62.028a.209.209,0,0,0-.127.224.172.172,0,0,0,0,.064.178.178,0,0,0,0,.065A.209.209,0,0,0,45.6,62.605Zm-3.046,1.759,1.586.916a.739.739,0,0,0,.664,0l1.887-1.09a.211.211,0,0,0,.127-.224.172.172,0,0,0,0-.064.172.172,0,0,0,0-.064.211.211,0,0,0-.127-.224L45.1,62.7a.739.739,0,0,0-.664,0l-1.886,1.09a.208.208,0,0,0-.127.224.138.138,0,0,0,0,.064.143.143,0,0,0,0,.065A.209.209,0,0,0,42.549,64.364Zm-1.829,3.12a.143.143,0,0,0,0-.065.138.138,0,0,0,0-.064.208.208,0,0,0-.126-.224l-1.587-.916a.733.733,0,0,0-.664,0L36.456,67.3a.209.209,0,0,0-.126.224.143.143,0,0,0,0,.065.138.138,0,0,0,0,.064.208.208,0,0,0,.126.224l1.587.916a.733.733,0,0,0,.664,0l1.887-1.089A.209.209,0,0,0,40.72,67.484ZM39.5,66.122l1.587.916a.733.733,0,0,0,.664,0l1.887-1.089a.208.208,0,0,0,.126-.224.138.138,0,0,0,0-.064.143.143,0,0,0,0-.065.209.209,0,0,0-.126-.224l-1.587-.916a.733.733,0,0,0-.664,0L39.5,65.546a.208.208,0,0,0-.126.223.143.143,0,0,0,0,.065.138.138,0,0,0,0,.064A.208.208,0,0,0,39.5,66.122ZM89.437,52.091a.211.211,0,0,0-.127-.224l-1.587-.916a.733.733,0,0,0-.664,0L85.173,52.04a.208.208,0,0,0-.127.224.138.138,0,0,0,0,.064.143.143,0,0,0,0,.065.209.209,0,0,0,.127.224l1.586.916a.733.733,0,0,0,.664,0l1.887-1.09a.211.211,0,0,0,.127-.224.172.172,0,0,0,0-.064A.172.172,0,0,0,89.437,52.091ZM77.364,55.522l-1.587-.916a.733.733,0,0,0-.664,0L73.226,55.7a.209.209,0,0,0-.126.224.143.143,0,0,0,0,.065.138.138,0,0,0,0,.064.208.208,0,0,0,.126.224l1.587.916a.733.733,0,0,0,.664,0L77.364,56.1a.209.209,0,0,0,.126-.224.143.143,0,0,0,0-.065.138.138,0,0,0,0-.064A.208.208,0,0,0,77.364,55.522Zm6.115-3.5L81.892,51.1a.739.739,0,0,0-.664,0l-1.886,1.09a.209.209,0,0,0-.127.224.138.138,0,0,0,0,.064.143.143,0,0,0,0,.065.209.209,0,0,0,.127.223l1.586.917a.739.739,0,0,0,.664,0l1.887-1.09a.211.211,0,0,0,.127-.224.172.172,0,0,0,0-.064.172.172,0,0,0,0-.064A.211.211,0,0,0,83.479,52.018ZM71.271,59.04l-1.586-.917a.739.739,0,0,0-.664,0l-1.887,1.09a.211.211,0,0,0-.127.224.172.172,0,0,0,0,.064.178.178,0,0,0,0,.065.21.21,0,0,0,.127.223l1.587.917a.737.737,0,0,0,.663,0l1.887-1.09a.209.209,0,0,0,.127-.224.138.138,0,0,0,0-.064.138.138,0,0,0,0-.064A.209.209,0,0,0,71.271,59.04Zm10.99-8.384a.172.172,0,0,0,0,.064.178.178,0,0,0,0,.065.21.21,0,0,0,.127.224l1.587.916a.731.731,0,0,0,.663,0l1.887-1.089a.21.21,0,0,0,.127-.224.178.178,0,0,0,0-.065.172.172,0,0,0,0-.064.209.209,0,0,0-.127-.224l-1.587-.916a.731.731,0,0,0-.663,0l-1.887,1.089A.209.209,0,0,0,82.261,50.656ZM59.087,66.074,57.5,65.158a.739.739,0,0,0-.664,0l-1.887,1.09a.208.208,0,0,0-.126.224.138.138,0,0,0,0,.064.143.143,0,0,0,0,.065.208.208,0,0,0,.126.223l1.587.917a.739.739,0,0,0,.664,0l1.887-1.09a.208.208,0,0,0,.126-.224.138.138,0,0,0,0-.064.143.143,0,0,0,0-.065A.21.21,0,0,0,59.087,66.074Zm6.092-3.517-1.587-.916a.733.733,0,0,0-.664,0L61.042,62.73a.209.209,0,0,0-.127.224.143.143,0,0,0,0,.065.138.138,0,0,0,0,.064.208.208,0,0,0,.127.224l1.586.916a.733.733,0,0,0,.664,0l1.887-1.089a.211.211,0,0,0,.127-.224.178.178,0,0,0,0-.065.172.172,0,0,0,0-.064A.211.211,0,0,0,65.179,62.557Zm-3.046,1.759L60.546,63.4a.733.733,0,0,0-.664,0L58,64.489a.208.208,0,0,0-.126.224.138.138,0,0,0,0,.064.143.143,0,0,0,0,.065.209.209,0,0,0,.126.224l1.587.916a.733.733,0,0,0,.664,0l1.887-1.09a.208.208,0,0,0,.126-.223.143.143,0,0,0,0-.065.138.138,0,0,0,0-.064A.208.208,0,0,0,62.133,64.316ZM56.04,67.833l-1.586-.916a.733.733,0,0,0-.664,0L51.9,68.007a.21.21,0,0,0-.127.223.178.178,0,0,0,0,.065.172.172,0,0,0,0,.064.211.211,0,0,0,.127.224l1.587.916a.733.733,0,0,0,.664,0L56.04,68.41a.208.208,0,0,0,.127-.224.138.138,0,0,0,0-.064.143.143,0,0,0,0-.065A.209.209,0,0,0,56.04,67.833Zm-3.046,1.759-1.586-.916a.733.733,0,0,0-.664,0l-1.887,1.089a.211.211,0,0,0-.127.224.178.178,0,0,0,0,.065.172.172,0,0,0,0,.064.211.211,0,0,0,.127.224l1.587.916a.731.731,0,0,0,.663,0l1.887-1.089a.21.21,0,0,0,.127-.224.178.178,0,0,0,0-.065.172.172,0,0,0,0-.064A.209.209,0,0,0,52.994,69.592ZM68.225,60.8l-1.587-.916a.731.731,0,0,0-.663,0l-1.887,1.09a.209.209,0,0,0-.127.223.178.178,0,0,0,0,.065.172.172,0,0,0,0,.064.209.209,0,0,0,.127.224l1.587.916a.731.731,0,0,0,.663,0l1.887-1.089a.209.209,0,0,0,.127-.224.172.172,0,0,0,0-.064.178.178,0,0,0,0-.065A.21.21,0,0,0,68.225,60.8Zm6.093-3.517-1.587-.916a.733.733,0,0,0-.664,0L70.18,57.454a.208.208,0,0,0-.126.224.138.138,0,0,0,0,.064.143.143,0,0,0,0,.065.209.209,0,0,0,.126.224l1.587.916a.733.733,0,0,0,.664,0l1.887-1.09a.208.208,0,0,0,.126-.223.143.143,0,0,0,0-.065.138.138,0,0,0,0-.064A.208.208,0,0,0,74.318,57.281ZM57.745,70l-1.586-.916a.733.733,0,0,0-.664,0l-1.887,1.089a.211.211,0,0,0-.127.224.172.172,0,0,0,0,.064.178.178,0,0,0,0,.065.211.211,0,0,0,.127.224l1.587.916a.733.733,0,0,0,.664,0l1.886-1.09a.207.207,0,0,0,.127-.223.143.143,0,0,0,0-.065.138.138,0,0,0,0-.064A.208.208,0,0,0,57.745,70Zm3.047-1.759-1.587-.916a.733.733,0,0,0-.664,0l-1.887,1.089a.209.209,0,0,0-.126.224.143.143,0,0,0,0,.065.138.138,0,0,0,0,.064.208.208,0,0,0,.126.224l1.587.916a.733.733,0,0,0,.664,0l1.887-1.089a.208.208,0,0,0,.126-.224.143.143,0,0,0,0-.065.138.138,0,0,0,0-.064A.208.208,0,0,0,60.792,68.24ZM54.7,71.758l-1.587-.917a.737.737,0,0,0-.663,0l-1.887,1.09a.209.209,0,0,0-.127.224.172.172,0,0,0,0,.064.178.178,0,0,0,0,.065.21.21,0,0,0,.127.224l1.587.916a.737.737,0,0,0,.663,0l1.887-1.09a.209.209,0,0,0,.127-.224.172.172,0,0,0,0-.064.178.178,0,0,0,0-.065A.209.209,0,0,0,54.7,71.758Zm-3.046,1.758L50.066,72.6a.733.733,0,0,0-.664,0l-1.886,1.09a.209.209,0,0,0-.127.223.178.178,0,0,0,0,.065.172.172,0,0,0,0,.064.209.209,0,0,0,.127.224l1.586.916a.733.733,0,0,0,.664,0l1.887-1.089a.211.211,0,0,0,.127-.224.172.172,0,0,0,0-.064.178.178,0,0,0,0-.065A.211.211,0,0,0,51.653,73.516ZM74.527,53.931l-1.587-.916a.733.733,0,0,0-.664,0l-2.869,1.657a.208.208,0,0,0-.126.223.143.143,0,0,0,0,.065.138.138,0,0,0,0,.064.208.208,0,0,0,.126.224l1.587.916a.733.733,0,0,0,.664,0l2.869-1.656a.208.208,0,0,0,.126-.224.138.138,0,0,0,0-.064.143.143,0,0,0,0-.065A.209.209,0,0,0,74.527,53.931Zm5.5,3.2-1.586-.916a.733.733,0,0,0-.664,0l-2.869,1.657a.21.21,0,0,0-.127.223.178.178,0,0,0,0,.065.172.172,0,0,0,0,.064.211.211,0,0,0,.127.224l1.587.916a.733.733,0,0,0,.664,0l2.868-1.656a.208.208,0,0,0,.127-.224.138.138,0,0,0,0-.064.143.143,0,0,0,0-.065A.209.209,0,0,0,80.032,57.131Zm6.232-3.506-1.587-.916a.739.739,0,0,0-.664,0L82.126,53.8a.208.208,0,0,0-.126.224.138.138,0,0,0,0,.064.138.138,0,0,0,0,.064.208.208,0,0,0,.126.224l1.587.916a.733.733,0,0,0,.664,0L86.264,54.2a.208.208,0,0,0,.126-.224.138.138,0,0,0,0-.064.143.143,0,0,0,0-.065A.209.209,0,0,0,86.264,53.625Zm-3.046,1.759-1.587-.916a.733.733,0,0,0-.664,0L79.08,55.557a.209.209,0,0,0-.126.224.143.143,0,0,0,0,.065.138.138,0,0,0,0,.064.208.208,0,0,0,.126.224l1.587.916a.733.733,0,0,0,.664,0l1.887-1.089a.208.208,0,0,0,.126-.224.143.143,0,0,0,0-.065.138.138,0,0,0,0-.064A.208.208,0,0,0,83.218,55.384Zm-7.146,4.065-1.586-.916a.733.733,0,0,0-.664,0L59.714,66.678a.211.211,0,0,0-.127.224.178.178,0,0,0,0,.065.172.172,0,0,0,0,.064.211.211,0,0,0,.127.224l1.587.916a.733.733,0,0,0,.664,0l14.107-8.145A.209.209,0,0,0,76.2,59.8a.143.143,0,0,0,0-.065.138.138,0,0,0,0-.064A.208.208,0,0,0,76.072,59.449Zm-11.666.326-1.587-.917a.737.737,0,0,0-.663,0l-1.887,1.09a.209.209,0,0,0-.127.224.172.172,0,0,0,0,.064.178.178,0,0,0,0,.065.209.209,0,0,0,.127.223l1.586.917a.739.739,0,0,0,.664,0l1.887-1.09a.211.211,0,0,0,.127-.224.172.172,0,0,0,0-.064.178.178,0,0,0,0-.065A.21.21,0,0,0,64.406,59.775ZM61.36,61.533l-1.587-.916a.733.733,0,0,0-.664,0l-1.886,1.09a.207.207,0,0,0-.127.223.143.143,0,0,0,0,.065.138.138,0,0,0,0,.064.208.208,0,0,0,.127.224l1.586.916a.733.733,0,0,0,.664,0L61.36,62.11a.211.211,0,0,0,.127-.224.172.172,0,0,0,0-.064.178.178,0,0,0,0-.065A.211.211,0,0,0,61.36,61.533Zm6.092-3.517L65.865,57.1a.731.731,0,0,0-.663,0l-1.887,1.089a.209.209,0,0,0-.127.224.172.172,0,0,0,0,.064.178.178,0,0,0,0,.065.21.21,0,0,0,.127.224l1.587.916a.731.731,0,0,0,.663,0l1.887-1.09a.209.209,0,0,0,.127-.223.178.178,0,0,0,0-.065.172.172,0,0,0,0-.064A.209.209,0,0,0,67.452,58.016ZM76.7,47.446a.138.138,0,0,0,0,.064.138.138,0,0,0,0,.064.208.208,0,0,0,.126.224l1.587.916a.733.733,0,0,0,.664,0l1.887-1.089a.208.208,0,0,0,.126-.224.138.138,0,0,0,0-.064.143.143,0,0,0,0-.065.21.21,0,0,0-.126-.224l-1.587-.916a.739.739,0,0,0-.664,0l-1.887,1.09A.208.208,0,0,0,76.7,47.446Zm-6.2,8.811-1.586-.916a.733.733,0,0,0-.664,0L66.361,56.43a.211.211,0,0,0-.127.224.178.178,0,0,0,0,.065.172.172,0,0,0,0,.064.211.211,0,0,0,.127.224l1.587.916a.733.733,0,0,0,.664,0L70.5,56.834a.208.208,0,0,0,.127-.224.143.143,0,0,0,0-.065.138.138,0,0,0,0-.064A.208.208,0,0,0,70.5,56.257ZM58.314,63.292l-1.587-.916a.733.733,0,0,0-.664,0l-1.887,1.089a.209.209,0,0,0-.126.224.143.143,0,0,0,0,.065.138.138,0,0,0,0,.064.208.208,0,0,0,.126.224l1.587.916a.733.733,0,0,0,.664,0l1.887-1.089a.209.209,0,0,0,.126-.224.143.143,0,0,0,0-.065.138.138,0,0,0,0-.064A.208.208,0,0,0,58.314,63.292ZM52.221,66.81l-1.586-.917a.739.739,0,0,0-.664,0l-1.887,1.09a.211.211,0,0,0-.127.224.172.172,0,0,0,0,.064.178.178,0,0,0,0,.065.21.21,0,0,0,.127.223l1.587.917a.739.739,0,0,0,.664,0l1.886-1.09a.209.209,0,0,0,.127-.224.138.138,0,0,0,0-.064.143.143,0,0,0,0-.065A.209.209,0,0,0,52.221,66.81Zm3.047-1.759-1.587-.916a.733.733,0,0,0-.664,0L51.13,65.224a.208.208,0,0,0-.126.224.138.138,0,0,0,0,.064.143.143,0,0,0,0,.065.209.209,0,0,0,.126.224l1.587.916a.733.733,0,0,0,.664,0l1.887-1.09a.208.208,0,0,0,.126-.223.143.143,0,0,0,0-.065.138.138,0,0,0,0-.064A.208.208,0,0,0,55.268,65.051Z"/><path class="cls-9" d="M40.594,67.431,38.707,68.52a.733.733,0,0,1-.664,0L36.456,67.6a.2.2,0,0,1,0-.383l1.887-1.09a.733.733,0,0,1,.664,0l1.587.916A.2.2,0,0,1,40.594,67.431Zm3.046-2.142-1.587-.916a.733.733,0,0,0-.664,0L39.5,65.462a.2.2,0,0,0,0,.383l1.587.916a.733.733,0,0,0,.664,0l1.887-1.089A.2.2,0,0,0,43.64,65.289Zm3.046-1.759L45.1,62.614a.733.733,0,0,0-.664,0L42.549,63.7a.2.2,0,0,0,0,.383L44.135,65a.733.733,0,0,0,.664,0l1.887-1.089A.2.2,0,0,0,46.686,63.53Zm3.046-1.759-1.587-.916a.731.731,0,0,0-.663,0L45.6,61.944a.2.2,0,0,0,0,.384l1.587.916a.731.731,0,0,0,.663,0l1.887-1.09A.2.2,0,0,0,49.732,61.771Zm3.046-1.759L51.192,59.1a.733.733,0,0,0-.664,0l-1.887,1.09a.2.2,0,0,0,0,.383l1.587.916a.731.731,0,0,0,.663,0L52.778,60.4A.2.2,0,0,0,52.778,60.012Zm3.046-1.758-1.586-.916a.733.733,0,0,0-.664,0l-1.887,1.089a.2.2,0,0,0,0,.383l1.587.916a.733.733,0,0,0,.664,0l1.886-1.089A.2.2,0,0,0,55.824,58.254ZM58.871,56.5l-1.587-.916a.733.733,0,0,0-.664,0l-1.887,1.089a.2.2,0,0,0,0,.383l1.587.916a.733.733,0,0,0,.664,0l1.887-1.089A.2.2,0,0,0,58.871,56.5Zm3.046-1.759L60.33,53.82a.733.733,0,0,0-.664,0l-1.887,1.089a.2.2,0,0,0,0,.384l1.587.916a.733.733,0,0,0,.664,0l1.887-1.09A.2.2,0,0,0,61.917,54.736Zm3.046-1.759-1.587-.916a.739.739,0,0,0-.664,0l-1.886,1.09a.2.2,0,0,0,0,.383l1.586.916a.733.733,0,0,0,.664,0l1.887-1.089A.2.2,0,0,0,64.963,52.977Zm4.028-2.325L67.4,49.736a.731.731,0,0,0-.663,0l-2.869,1.656a.2.2,0,0,0,0,.383l1.587.916a.731.731,0,0,0,.663,0l2.869-1.656A.2.2,0,0,0,68.991,50.652Zm11.442,3.041-1.587-.916a.733.733,0,0,0-.664,0L76.3,53.866a.2.2,0,0,0,0,.383l1.586.916a.733.733,0,0,0,.664,0l1.887-1.089A.2.2,0,0,0,80.433,53.693Zm3.046-1.759-1.587-.916a.733.733,0,0,0-.664,0l-1.886,1.089a.2.2,0,0,0,0,.383l1.586.917a.739.739,0,0,0,.664,0l1.887-1.09A.2.2,0,0,0,83.479,51.934Zm3.046-1.759-1.587-.916a.731.731,0,0,0-.663,0l-1.887,1.089a.2.2,0,0,0,0,.384l1.587.916a.731.731,0,0,0,.663,0l1.887-1.09A.2.2,0,0,0,86.525,50.175ZM83.218,55.3l-1.587-.916a.733.733,0,0,0-.664,0l-1.887,1.09a.2.2,0,0,0,0,.383l1.587.916a.733.733,0,0,0,.664,0l1.887-1.089A.2.2,0,0,0,83.218,55.3Zm3.046-1.758-1.587-.917a.739.739,0,0,0-.664,0l-1.887,1.09a.2.2,0,0,0,0,.383l1.587.916a.733.733,0,0,0,.664,0l1.887-1.089A.2.2,0,0,0,86.264,53.542Zm3.046-1.759-1.587-.916a.733.733,0,0,0-.664,0l-1.886,1.089a.2.2,0,0,0,0,.383l1.586.917a.739.739,0,0,0,.664,0l1.887-1.09A.2.2,0,0,0,89.31,51.783Zm-44.9,16.288-1.587-.916a.733.733,0,0,0-.664,0l-2.869,1.656a.2.2,0,0,0,0,.384l1.587.916a.739.739,0,0,0,.664,0l2.869-1.657A.2.2,0,0,0,44.413,68.071Zm3.046-1.759L45.872,65.4a.733.733,0,0,0-.664,0l-1.886,1.09a.2.2,0,0,0,0,.383l1.586.916a.733.733,0,0,0,.664,0L47.459,66.7A.2.2,0,0,0,47.459,66.312Zm3.046-1.758-1.587-.917a.739.739,0,0,0-.664,0l-1.886,1.09a.2.2,0,0,0,0,.383l1.586.916a.733.733,0,0,0,.664,0l1.887-1.089A.2.2,0,0,0,50.505,64.554ZM53.551,62.8l-1.587-.916a.731.731,0,0,0-.663,0l-1.887,1.089a.2.2,0,0,0,0,.383L51,64.267a.731.731,0,0,0,.663,0l1.887-1.089A.2.2,0,0,0,53.551,62.8ZM56.6,61.036l-1.586-.916a.733.733,0,0,0-.664,0L52.46,61.209a.2.2,0,0,0,0,.384l1.587.916a.733.733,0,0,0,.664,0l1.886-1.09A.2.2,0,0,0,56.6,61.036Zm3.047-1.759-1.587-.916a.733.733,0,0,0-.664,0l-1.887,1.09a.2.2,0,0,0,0,.383l1.587.916a.733.733,0,0,0,.664,0l1.887-1.089A.2.2,0,0,0,59.644,59.277Zm3.046-1.758L61.1,56.6a.739.739,0,0,0-.664,0l-1.887,1.09a.2.2,0,0,0,0,.383l1.587.916a.733.733,0,0,0,.664,0L62.69,57.9A.2.2,0,0,0,62.69,57.519Zm3.046-1.759-1.587-.916a.733.733,0,0,0-.664,0L61.6,55.933a.2.2,0,0,0,0,.383l1.586.916a.733.733,0,0,0,.664,0l1.887-1.089A.2.2,0,0,0,65.736,55.76ZM68.782,54l-1.587-.916a.731.731,0,0,0-.663,0l-1.887,1.089a.2.2,0,0,0,0,.384l1.586.916a.733.733,0,0,0,.664,0l1.887-1.09A.2.2,0,0,0,68.782,54Zm3.046-1.759-1.586-.916a.739.739,0,0,0-.664,0l-1.887,1.09a.2.2,0,0,0,0,.383l1.587.916a.731.731,0,0,0,.663,0l1.887-1.089A.2.2,0,0,0,71.828,52.242Zm-25.7,18-1.587-.916a.733.733,0,0,0-.664,0l-1.886,1.09a.2.2,0,0,0,0,.383l1.586.916a.733.733,0,0,0,.664,0l1.887-1.09A.2.2,0,0,0,46.129,70.243Zm3.046-1.759-1.587-.916a.737.737,0,0,0-.663,0l-1.887,1.09a.2.2,0,0,0,0,.383l1.587.916a.731.731,0,0,0,.663,0l1.887-1.089A.2.2,0,0,0,49.175,68.484Zm3.046-1.758-1.586-.916a.733.733,0,0,0-.664,0L48.084,66.9a.2.2,0,0,0,0,.383l1.587.916a.733.733,0,0,0,.664,0l1.886-1.089A.2.2,0,0,0,52.221,66.726Zm3.047-1.759-1.587-.916a.733.733,0,0,0-.664,0L51.13,65.14a.2.2,0,0,0,0,.384l1.587.916a.733.733,0,0,0,.664,0l1.887-1.09A.2.2,0,0,0,55.268,64.967Zm-3.615,8.466-1.587-.917a.739.739,0,0,0-.664,0l-1.886,1.09a.2.2,0,0,0,0,.383l1.586.916a.733.733,0,0,0,.664,0l1.887-1.089A.2.2,0,0,0,51.653,73.433ZM54.7,71.674l-1.587-.916a.731.731,0,0,0-.663,0l-1.887,1.089a.2.2,0,0,0,0,.383l1.587.916a.731.731,0,0,0,.663,0L54.7,72.057A.2.2,0,0,0,54.7,71.674Zm3.046-1.759L56.159,69a.733.733,0,0,0-.664,0l-1.887,1.089a.2.2,0,0,0,0,.384l1.587.916a.733.733,0,0,0,.664,0l1.886-1.09A.2.2,0,0,0,57.745,69.915Zm3.047-1.759-1.587-.916a.733.733,0,0,0-.664,0l-1.887,1.09a.2.2,0,0,0,0,.383l1.587.916a.733.733,0,0,0,.664,0l1.887-1.089A.2.2,0,0,0,60.792,68.156Zm19.24-11.109-1.586-.916a.739.739,0,0,0-.664,0l-2.869,1.657a.2.2,0,0,0,0,.383l1.587.916a.733.733,0,0,0,.664,0l2.868-1.656A.2.2,0,0,0,80.032,57.047ZM58.314,63.208l-1.587-.916a.733.733,0,0,0-.664,0l-1.887,1.09a.2.2,0,0,0,0,.383l1.587.916a.733.733,0,0,0,.664,0l1.887-1.09A.2.2,0,0,0,58.314,63.208ZM61.36,61.45l-1.587-.917a.739.739,0,0,0-.664,0l-1.886,1.09a.2.2,0,0,0,0,.383l1.586.916a.733.733,0,0,0,.664,0l1.887-1.089A.2.2,0,0,0,61.36,61.45Zm3.046-1.759-1.587-.916a.731.731,0,0,0-.663,0l-1.887,1.089a.2.2,0,0,0,0,.383l1.586.916a.733.733,0,0,0,.664,0l1.887-1.089A.2.2,0,0,0,64.406,59.691Zm3.046-1.759-1.587-.916a.731.731,0,0,0-.663,0l-1.887,1.089a.2.2,0,0,0,0,.384l1.587.916a.731.731,0,0,0,.663,0l1.887-1.09A.2.2,0,0,0,67.452,57.932ZM70.5,56.173l-1.586-.916a.733.733,0,0,0-.664,0l-1.887,1.09a.2.2,0,0,0,0,.383l1.587.916a.733.733,0,0,0,.664,0L70.5,56.557A.2.2,0,0,0,70.5,56.173Zm4.029-2.325-1.587-.917a.739.739,0,0,0-.664,0l-2.869,1.657a.2.2,0,0,0,0,.383l1.587.916a.733.733,0,0,0,.664,0l2.869-1.656A.2.2,0,0,0,74.527,53.848ZM49.948,71.267l-1.587-.916a.731.731,0,0,0-.663,0l-2.869,1.656a.2.2,0,0,0,0,.384l1.586.916a.739.739,0,0,0,.664,0l2.869-1.657A.2.2,0,0,0,49.948,71.267Zm3.046-1.759-1.586-.916a.733.733,0,0,0-.664,0l-1.887,1.089a.2.2,0,0,0,0,.384l1.587.916a.731.731,0,0,0,.663,0l1.887-1.09A.2.2,0,0,0,52.994,69.508Zm3.046-1.759-1.586-.916a.739.739,0,0,0-.664,0L51.9,67.923a.2.2,0,0,0,0,.383l1.587.916a.733.733,0,0,0,.664,0l1.886-1.089A.2.2,0,0,0,56.04,67.749Zm3.047-1.758L57.5,65.075a.733.733,0,0,0-.664,0l-1.887,1.089a.2.2,0,0,0,0,.383l1.587.916a.733.733,0,0,0,.664,0l1.887-1.089A.2.2,0,0,0,59.087,65.991Zm3.046-1.759-1.587-.916a.733.733,0,0,0-.664,0L58,64.405a.2.2,0,0,0,0,.383l1.587.917a.733.733,0,0,0,.664,0l1.887-1.09A.2.2,0,0,0,62.133,64.232Zm13.939-4.867-1.586-.916a.733.733,0,0,0-.664,0L59.714,66.6a.2.2,0,0,0,0,.383l1.587.916a.733.733,0,0,0,.664,0l14.107-8.145A.2.2,0,0,0,76.072,59.365ZM65.179,62.473l-1.587-.916a.733.733,0,0,0-.664,0l-1.886,1.089a.2.2,0,0,0,0,.384l1.586.916a.733.733,0,0,0,.664,0l1.887-1.09A.2.2,0,0,0,65.179,62.473Zm3.046-1.758L66.638,59.8a.737.737,0,0,0-.663,0l-1.887,1.09a.2.2,0,0,0,0,.383l1.587.916a.731.731,0,0,0,.663,0L68.225,61.1A.2.2,0,0,0,68.225,60.715Zm3.046-1.759-1.586-.916a.733.733,0,0,0-.664,0l-1.887,1.089a.2.2,0,0,0,0,.383l1.587.916a.733.733,0,0,0,.664,0l1.886-1.089A.2.2,0,0,0,71.271,58.956ZM74.317,57.2l-1.586-.916a.733.733,0,0,0-.664,0L70.18,57.37a.2.2,0,0,0,0,.384l1.587.916a.733.733,0,0,0,.664,0l1.886-1.09A.2.2,0,0,0,74.317,57.2Zm3.047-1.759-1.587-.916a.733.733,0,0,0-.664,0l-1.887,1.09a.2.2,0,0,0,0,.383l1.587.916a.733.733,0,0,0,.664,0l1.887-1.089A.2.2,0,0,0,77.364,55.438ZM72.1,48.878l-1.587-.916a.733.733,0,0,0-.664,0l-1.887,1.09a.2.2,0,0,0,0,.383l1.587.916a.733.733,0,0,0,.664,0L72.1,49.262A.2.2,0,0,0,72.1,48.878Zm3.046-1.758L73.554,46.2a.733.733,0,0,0-.664,0L71,47.293a.2.2,0,0,0,0,.383l1.587.916a.733.733,0,0,0,.664,0L75.141,47.5A.2.2,0,0,0,75.141,47.12Zm3.046-1.759L76.6,44.445a.733.733,0,0,0-.664,0L74.05,45.534a.2.2,0,0,0,0,.383l1.586.916a.733.733,0,0,0,.664,0l1.887-1.089A.2.2,0,0,0,78.187,45.361Zm2.778,1.6-1.587-.916a.733.733,0,0,0-.664,0l-1.887,1.089a.2.2,0,0,0,0,.383l1.587.916a.733.733,0,0,0,.664,0l1.887-1.089A.2.2,0,0,0,80.965,46.965Z"/><path class="cls-10" d="M89.109,66.582l-14,8.081a1.258,1.258,0,0,1-1.14,0l-9.277-5.356a.348.348,0,0,1,0-.658l14-8.081a1.258,1.258,0,0,1,1.14,0l9.277,5.356A.348.348,0,0,1,89.109,66.582Z"/><path class="cls-11" d="M64.695,68.817l14-8.081a1.258,1.258,0,0,1,1.14,0l9.277,5.356a.458.458,0,0,1,.222.245c.046-.145-.028-.3-.222-.413l-9.277-5.356a1.258,1.258,0,0,0-1.14,0l-14,8.081c-.194.112-.268.268-.222.413A.461.461,0,0,1,64.695,68.817Z"/><path class="cls-12" d="M73.968,43.218,34.323,66.107l-.065.038,1.354.782L75.257,44.038,75.322,44ZM35.612,66.827l-1.181-.682L73.968,43.318,75.149,44Z"/><path class="cls-4" d="M78.435,49.148l-2.088-1.206a.911.911,0,0,0-.826,0l-4.78,2.76a.262.262,0,0,0-.16.27.178.178,0,0,0,0,.065.172.172,0,0,0,0,.064.263.263,0,0,0,.16.271l4.167,2.405a.909.909,0,0,0,.825,0l7.93-4.578a.263.263,0,0,0,.16-.271.172.172,0,0,0,0-.064.172.172,0,0,0,0-.064.263.263,0,0,0-.16-.271l-1.551-.9a.6.6,0,0,0-.548,0L78.9,49.149A.516.516,0,0,1,78.435,49.148Z"/><path class="cls-9" d="M83.663,48.445l-1.551-.9a.608.608,0,0,0-.548,0L78.9,49.065a.516.516,0,0,1-.464,0l-2.088-1.206a.911.911,0,0,0-.826,0l-4.78,2.76a.252.252,0,0,0,0,.477L74.908,53.5a.909.909,0,0,0,.825,0l7.93-4.578A.252.252,0,0,0,83.663,48.445Z"/><path class="cls-1" d="M53.462,79.8l1.631.94c.19.109.344.044.344-.146a.713.713,0,0,0-.345-.543l-1.631-.939c-.19-.11-.343-.045-.343.145A.713.713,0,0,0,53.462,79.8Z"/><g class="cls-13"><path class="cls-14" d="M54.908,80.523l.227.131.806-.465-.227-.131Zm-.5-.289.227.131.806-.465-.227-.131Zm-.5-.288.227.131.8-.465-.227-.131Zm-.5-.288.227.131.8-.465-.227-.131Z"/></g><polygon class="cls-15" points="27.87 28.362 33.966 62.305 74.933 38.653 68.845 4.705 27.87 28.362"/><polygon class="cls-16" points="31.669 27.059 35.732 61.932 77.161 38.013 73.102 3.137 31.669 27.059"/><polygon class="cls-17" points="35.467 25.755 37.499 61.558 79.389 37.373 77.36 1.569 35.467 25.755"/><polygon class="cls-18" points="39.266 26.867 39.266 61.185 81.617 36.733 81.617 2.415 39.266 26.867"/><polygon class="cls-19" points="81.617 36.733 81.617 2.583 68.144 10.361 68.144 44.512 81.617 36.733"/><path class="cls-20" d="M69.385,13.385v.976a.065.065,0,0,1-.04.057l-.159.092q-.039.023-.039-.012v-.976a.067.067,0,0,1,.039-.057l.159-.092C69.372,13.358,69.385,13.362,69.385,13.385Zm.253.83v-.976a.066.066,0,0,1,.039-.057l.463-.268a.326.326,0,0,1,.228-.062c.055.015.082.064.082.148v.515a.411.411,0,0,1-.082.243.694.694,0,0,1-.228.2l-.463.267C69.651,14.241,69.638,14.238,69.638,14.215Zm.258-.294.2-.118a.253.253,0,0,0,.085-.071.151.151,0,0,0,.026-.089v-.5c0-.035-.009-.055-.026-.06s-.045,0-.085.028l-.2.118c-.02.03-.02.681-.02.681S69.883,13.929,69.9,13.921Zm1.431-.648-.613.354c-.026.016-.039.012-.039-.011V12.64a.066.066,0,0,1,.039-.057l.613-.354c.025-.015.038-.01.038.012v.111a.065.065,0,0,1-.038.056l-.392.226a1.023,1.023,0,0,0-.022.242,3.433,3.433,0,0,0,.344-.18c.026-.015.039-.012.039.011v.111a.065.065,0,0,1-.039.056l-.322.185a1.144,1.144,0,0,0-.022.257c.022,0,.414-.221.414-.221.025-.015.038-.011.038.012v.11A.064.064,0,0,1,71.327,13.273Zm.441-.254-.155.09c-.026.015-.04.011-.04-.012v-.976a.068.068,0,0,1,.04-.057l.141-.081c.026-.015.043-.018.052-.007l.379.4c.008,0,.008-.608.008-.608a.066.066,0,0,1,.039-.057l.155-.09c.027-.015.04-.011.04.011v.977a.065.065,0,0,1-.04.056l-.137.08c-.027.015-.047.016-.06,0l-.375-.388c-.007,0-.007.607-.007.607A.065.065,0,0,1,71.768,13.019Zm1.276-.737-.158.091c-.027.016-.041.013-.041-.01v-.814a1.594,1.594,0,0,0-.234.118c-.026.015-.04.011-.04-.011v-.111a.067.067,0,0,1,.04-.057l.709-.409c.026-.015.039-.011.039.011V11.2a.065.065,0,0,1-.039.056l-.214.124c-.023.031-.023.844-.023.844A.066.066,0,0,1,73.044,12.282Zm.7-1.417v.976a.065.065,0,0,1-.04.057l-.159.092c-.026.015-.039.012-.039-.011V11a.065.065,0,0,1,.039-.056l.159-.092C73.736,10.838,73.749,10.842,73.749,10.865Zm.452.75-.159.092c-.027.015-.04.011-.04-.012v-.976a.065.065,0,0,1,.04-.057l.6-.346c.025-.014.038-.01.038.013v.111a.064.064,0,0,1-.038.055l-.377.218A1.31,1.31,0,0,0,74.24,11a3.144,3.144,0,0,0,.344-.179c.026-.015.039-.011.039.011v.109a.066.066,0,0,1-.039.058l-.321.186a2.252,2.252,0,0,0-.023.377A.067.067,0,0,1,74.2,11.615Zm.892-1.526v.976a.066.066,0,0,1-.039.057l-.159.092c-.026.015-.04.011-.04-.012v-.976a.069.069,0,0,1,.04-.057l.159-.092Q75.093,10.055,75.093,10.089Zm.749.578-.2.118a.331.331,0,0,1-.228.064c-.054-.015-.081-.064-.081-.15v-.515a.414.414,0,0,1,.081-.243.692.692,0,0,1,.228-.2l.2-.118a.327.327,0,0,1,.228-.063c.054.015.081.064.081.149v.076a.068.068,0,0,1-.041.06l-.157.09c-.027.016-.04.012-.04-.013V9.856c0-.035-.008-.054-.025-.059a.132.132,0,0,0-.086.027l-.127.074a.255.255,0,0,0-.084.07.157.157,0,0,0-.025.088v.5c0,.035.009.054.025.059a.13.13,0,0,0,.084-.026l.127-.074a.268.268,0,0,0,.086-.071.151.151,0,0,0,.025-.089v-.066a.067.067,0,0,1,.04-.059l.157-.091c.028-.016.041-.012.041.012v.077a.421.421,0,0,1-.081.243A.7.7,0,0,1,75.842,10.667Zm.639-.369-.18.1c-.022-.021.274-1.169.274-1.169a.12.12,0,0,1,.056-.066l.25-.144c.031-.018.05-.018.056,0l.3.805c.008.019,0,.035-.022.048l-.18.1c-.039-.011-.092-.159-.092-.159l-.366.211-.052.209C76.5,10.283,76.494,10.291,76.481,10.3Zm.273-1.005-.136.547.278-.16-.135-.391Zm1.02.259-.158.091c-.027.016-.041.012-.041-.011V8.819a1.545,1.545,0,0,0-.234.117c-.027.015-.04.011-.04-.011V8.814a.066.066,0,0,1,.04-.057l.708-.409c.027-.015.04-.011.04.011V8.47a.065.065,0,0,1-.04.057l-.213.123c-.023.031-.023.845-.023.845A.066.066,0,0,1,77.774,9.552Zm.7-1.418V9.11a.066.066,0,0,1-.039.057l-.159.092c-.026.016-.039.012-.039-.011V8.272a.066.066,0,0,1,.039-.057l.159-.092C78.465,8.108,78.478,8.112,78.478,8.134Zm.755.575-.211.122a.323.323,0,0,1-.228.063c-.054-.014-.081-.064-.081-.149V8.23a.412.412,0,0,1,.081-.243.7.7,0,0,1,.228-.2l.211-.121a.331.331,0,0,1,.228-.064q.081.022.081.15v.515a.414.414,0,0,1-.081.243A.7.7,0,0,1,79.233,8.709ZM79.06,8.63l.133-.077a.253.253,0,0,0,.085-.071.15.15,0,0,0,.026-.088V7.9c0-.034-.009-.054-.026-.059a.131.131,0,0,0-.085.027l-.133.077a.248.248,0,0,0-.084.071.147.147,0,0,0-.025.088V8.6c0,.035.008.055.025.06S79.02,8.653,79.06,8.63Zm.9-.342-.156.09c-.026.015-.039.012-.039-.011V7.391a.066.066,0,0,1,.039-.057l.141-.082c.027-.015.044-.017.053-.007l.379.4c.007-.005.007-.609.007-.609a.066.066,0,0,1,.04-.057l.155-.09q.039-.022.039.012v.976a.066.066,0,0,1-.039.057l-.137.079c-.027.016-.047.016-.06,0l-.375-.388c-.008,0-.008.607-.008.607A.066.066,0,0,1,79.962,8.288Z"/><path class="cls-21" d="M75.545,18.128a6.442,6.442,0,0,0-2.238,1.911c-1.683,1.973-2.269,6.435.875,6.828.051.006.029.112-.03.147-3.253-.4-2.66-5-.9-7.069a6.6,6.6,0,0,1,2.31-1.965C75.641,17.951,75.622,18.1,75.545,18.128Zm-.47.895a6.064,6.064,0,0,0-2.161,2.422c-.048.1.044.133.092.032a5.828,5.828,0,0,1,2.079-2.32c1.69-1.134,1.409.81,2.21,1.319.054.034.138-.112.084-.147C76.611,19.842,76.858,17.828,75.075,19.023Zm-.87,5.582c.059-.066.067-.113.05-.136A2.345,2.345,0,0,1,74,22c.04-.1-.06-.118-.1-.015a2.519,2.519,0,0,0,.253,2.62A.037.037,0,0,0,74.205,24.605Zm1.284-4.224c.248-.023.422.307.606.655a4.105,4.105,0,0,0,.3.515c.041.054.142-.076.1-.131a3.884,3.884,0,0,1-.3-.505c-.194-.368-.378-.715-.667-.689a2.122,2.122,0,0,0-1.409,1.209c-.055.1.027.148.083.051C74.65,20.716,75.16,20.41,75.489,20.381Zm-1.374.191c.467-.531,1.143-1.094,1.642-1.079.069,0,.123-.154.054-.155-.538-.016-1.255.577-1.746,1.137a3.864,3.864,0,0,0-1.04,2.9c.006.088.123.01.117-.079A3.63,3.63,0,0,1,74.115,20.572Zm-1.42,1.749c.028-.1-.083-.087-.11.014-.615,2.311.726,3.7.844,3.627.051-.029.078-.116.044-.141A3.445,3.445,0,0,1,72.695,22.321Zm-1.059-1.569c.061-.025.076-.042.088-.062a11.338,11.338,0,0,1,2.755-3.353c.077-.061.055-.186-.021-.125a11.464,11.464,0,0,0-2.644,3.124C71.787,20.382,71.553,20.75,71.636,20.752Zm.976,6.461a3.881,3.881,0,0,1-1.3-4.15c.49-2.469,2.851-5.859,5.059-5.807,1.388.033,1.135,1.577,1.845,1.686a1.155,1.155,0,0,0,.432-.053c-.006-.048-.012-.094-.019-.141a.92.92,0,0,1-.351.039c-.647-.1-.454-1.653-1.854-1.686-2.263-.054-4.714,3.414-5.226,5.992a3.989,3.989,0,0,0,1.328,4.264,2.28,2.28,0,0,0,1.231.407,2.986,2.986,0,0,0,.506-.148A2.525,2.525,0,0,1,72.612,27.213ZM74.939,16.92c-.079.038-.088.18-.012.145a3.486,3.486,0,0,1,1.9-.424,1.368,1.368,0,0,1,1.162,1.151c.016.08.131-.016.115-.1a1.433,1.433,0,0,0-1.216-1.209A3.567,3.567,0,0,0,74.939,16.92Zm.272,5.072c.53.175-.034,2.789,3.091.23.076-.063.052-.186-.024-.123-2.21,1.81-2.47.963-2.679.282-.112-.365-.284-.793-.643-.4-.735.8.608,2.155.841,2.02.055-.031.081-.128.038-.145a1.656,1.656,0,0,1-.97-1.492C74.862,22.206,75.09,21.919,75.211,21.992Zm.391,2.716c.056-.032.08-.129.037-.146a2.5,2.5,0,0,1-1.216-1.441,1.6,1.6,0,0,1,.747-1.751c.794-.248.461,1.574,1.6,1.3.075-.018.107-.171.032-.152-1.1.266-.693-1.583-1.606-1.3a1.84,1.84,0,0,0-.888,2C74.5,24.023,75.463,24.788,75.6,24.708Zm-2.4-.968c-.016-.081-.131.015-.115.1a2.759,2.759,0,0,0,3.228,2.23c.047-.055.094-.111.14-.167A2.747,2.747,0,0,1,73.2,23.74Zm2.239,1.516a1.472,1.472,0,0,1-.958-.516c-.018-.021-.054-.009-.081.028s-.034.085-.016.106a1.526,1.526,0,0,0,.995.537,5.8,5.8,0,0,0,1.43.02c.038-.054.075-.108.112-.163A5.709,5.709,0,0,1,75.44,25.256ZM76.565,24.2c-.074.012-.112.166-.038.153a7.522,7.522,0,0,0,1.1-.3c.028-.057.056-.114.083-.171A7.7,7.7,0,0,1,76.565,24.2Zm-.6.471c-.065-.013-.13.141-.065.154a3.569,3.569,0,0,0,1.335-.046c.033-.055.065-.11.1-.166A3.58,3.58,0,0,1,75.961,24.675Zm1.682-4.261c-.068,0-.124.152-.055.156a1.79,1.79,0,0,0,1.108-.6c0-.049,0-.1,0-.146A1.741,1.741,0,0,1,77.643,20.414Zm-1.5,3.451c-.074.016-.109.17-.034.154a4.375,4.375,0,0,0,1.965-1.013c.025-.067.049-.135.073-.2A4.281,4.281,0,0,1,76.147,23.865Zm-2.332,2.2c-.054-.035-.139.11-.085.145a3.505,3.505,0,0,0,1.908.542c.055-.048.109-.1.163-.148A3.583,3.583,0,0,1,73.815,26.062Zm4.61-5.108a3.373,3.373,0,0,1-1.2.77.538.538,0,0,1-.544-.111c-.05-.042-.14.1-.09.142a.6.6,0,0,0,.609.12,3.559,3.559,0,0,0,1.268-.81C78.537,20.993,78.5,20.882,78.425,20.954Zm-.1.564a6.371,6.371,0,0,1-1.143.849c-.074.033-.087.185-.006.143a6.511,6.511,0,0,0,1.177-.872C78.429,21.573,78.4,21.453,78.326,21.518Zm.153-1.041c-.588.507-1.325.816-1.644.358a2.72,2.72,0,0,1-.286-.628,3.421,3.421,0,0,0-.244-.568c-.039-.065-.09-.169-.157-.076s-.009.1.053.2a3.275,3.275,0,0,1,.237.554,2.8,2.8,0,0,0,.3.647c.349.5,1.139.18,1.774-.368C78.582,20.532,78.555,20.412,78.479,20.477Zm-3.217,6.575a2.818,2.818,0,0,1-.8-.113c-.062-.021-.134.131-.073.152a2.718,2.718,0,0,0,.657.111C75.121,27.154,75.192,27.105,75.262,27.052Zm3.209-7.528c.075-.069.041-.184-.034-.114-1.112,1.038-.919-1.572-2.4-1.532-.07,0-.12.157-.05.155.8-.021,1.153.866,1.5,1.522C77.648,19.838,78.018,19.946,78.471,19.524Z"/><g class="cls-22"><path class="cls-23" d="M70,25.827c-.371.214-.672.086-.672-.284A1.394,1.394,0,0,1,70,24.484l9.815-5.667c.37-.213.671-.086.671.284a1.4,1.4,0,0,1-.671,1.059Z"/><path class="cls-24" d="M70.038,25.771c-.353.2-.64.083-.64-.27a1.33,1.33,0,0,1,.64-1.01l9.731-5.618c.353-.2.64-.083.64.27a1.328,1.328,0,0,1-.64,1.01Z"/><path class="cls-25" d="M70.08,25.716c-.336.194-.609.078-.609-.258a1.262,1.262,0,0,1,.609-.96l9.646-5.57c.336-.194.609-.078.609.258a1.262,1.262,0,0,1-.609.96Z"/><path class="cls-26" d="M70.123,25.66c-.319.184-.578.075-.578-.244a1.2,1.2,0,0,1,.578-.912l9.561-5.52c.319-.184.578-.075.578.244a1.2,1.2,0,0,1-.578.912Z"/><path class="cls-27" d="M70.165,25.605c-.3.174-.547.07-.547-.232a1.134,1.134,0,0,1,.547-.862l9.477-5.472c.3-.174.546-.07.546.232a1.136,1.136,0,0,1-.546.862Z"/><path class="cls-28" d="M70.207,25.549c-.284.164-.515.067-.515-.218a1.074,1.074,0,0,1,.515-.814L79.6,19.1c.285-.164.516-.066.516.218a1.071,1.071,0,0,1-.516.814Z"/><path class="cls-29" d="M70.25,25.494c-.268.154-.485.062-.485-.2a1,1,0,0,1,.485-.765l9.307-5.373c.267-.155.485-.063.485.2a1.007,1.007,0,0,1-.485.765Z"/><path class="cls-30" d="M70.292,25.438c-.25.145-.454.059-.454-.192a.942.942,0,0,1,.454-.715l9.222-5.325c.251-.144.454-.058.454.192a.939.939,0,0,1-.454.715Z"/><path class="cls-31" d="M70.334,25.382c-.233.135-.422.055-.422-.178a.879.879,0,0,1,.422-.667l9.138-5.275c.233-.135.423-.055.423.178a.88.88,0,0,1-.423.667Z"/><path class="cls-32" d="M70.377,25.327c-.216.125-.392.05-.392-.166a.813.813,0,0,1,.392-.617l9.053-5.227c.216-.124.391-.05.391.166a.81.81,0,0,1-.391.617Z"/><path class="cls-33" d="M70.419,25.271c-.2.115-.36.047-.36-.152a.745.745,0,0,1,.36-.568l8.968-5.178c.2-.115.361-.047.361.152a.746.746,0,0,1-.361.568Z"/><path class="cls-34" d="M70.461,25.216c-.181.105-.329.042-.329-.139a.686.686,0,0,1,.329-.52l8.884-5.129c.182-.105.329-.042.329.14a.683.683,0,0,1-.329.519Z"/><path class="cls-35" d="M70.5,25.16c-.165.095-.3.039-.3-.126a.618.618,0,0,1,.3-.47l8.8-5.08c.164-.1.3-.039.3.126a.62.62,0,0,1-.3.47Z"/><path class="cls-36" d="M70.546,25.105c-.147.085-.267.034-.267-.113a.557.557,0,0,1,.267-.422l8.714-5.031c.148-.085.267-.034.267.113a.553.553,0,0,1-.267.422Z"/><path class="cls-37" d="M70.589,25.049c-.131.075-.237.031-.237-.1a.489.489,0,0,1,.237-.372L79.218,19.6c.13-.075.236-.031.236.1a.49.49,0,0,1-.236.372Z"/><path class="cls-38" d="M70.631,24.994c-.113.065-.2.026-.2-.087a.425.425,0,0,1,.2-.323l8.545-4.933c.113-.066.2-.027.2.086a.425.425,0,0,1-.2.323Z"/><path class="cls-39" d="M79.133,20.054l-8.46,4.884c-.1.056-.174.023-.174-.073a.363.363,0,0,1,.174-.275l8.46-4.884c.1-.055.174-.022.174.073A.363.363,0,0,1,79.133,20.054Z"/><path class="cls-40" d="M79.113,20.058l-8.429,4.866c-.091.053-.166.022-.166-.07a.348.348,0,0,1,.166-.263l8.429-4.866c.092-.053.167-.022.167.07A.346.346,0,0,1,79.113,20.058Z"/><path class="cls-41" d="M79.093,20.062l-8.4,4.849c-.088.05-.16.02-.16-.068a.331.331,0,0,1,.16-.251l8.4-4.848c.088-.051.159-.021.159.067A.328.328,0,0,1,79.093,20.062Z"/><path class="cls-42" d="M79.073,20.067,70.707,24.9c-.084.048-.152.02-.152-.064a.315.315,0,0,1,.152-.24l8.366-4.83c.084-.049.152-.02.152.064A.316.316,0,0,1,79.073,20.067Z"/><path class="cls-43" d="M79.053,20.071l-8.335,4.812c-.08.046-.145.019-.145-.061a.3.3,0,0,1,.145-.228l8.335-4.812c.08-.047.144-.019.144.061A.3.3,0,0,1,79.053,20.071Z"/><path class="cls-44" d="M79.032,20.075l-8.3,4.794c-.075.044-.137.018-.137-.058a.287.287,0,0,1,.137-.217l8.3-4.793c.076-.044.138-.018.138.058A.283.283,0,0,1,79.032,20.075Z"/><path class="cls-45" d="M79.012,20.08l-8.271,4.775c-.072.042-.131.017-.131-.054a.273.273,0,0,1,.131-.206l8.271-4.775c.072-.042.131-.017.131.055A.272.272,0,0,1,79.012,20.08Z"/><path class="cls-46" d="M78.992,20.084l-8.24,4.758c-.068.039-.123.016-.123-.052a.254.254,0,0,1,.123-.194l8.24-4.758c.068-.039.123-.016.123.052A.254.254,0,0,1,78.992,20.084Z"/><path class="cls-47" d="M78.972,20.089l-8.209,4.739c-.064.037-.115.015-.115-.049a.238.238,0,0,1,.115-.182l8.209-4.74c.064-.037.116-.015.116.049A.241.241,0,0,1,78.972,20.089Z"/><path class="cls-48" d="M78.952,20.093l-8.178,4.721c-.059.035-.108.014-.108-.046a.225.225,0,0,1,.108-.17l8.178-4.722c.06-.034.108-.014.108.046A.224.224,0,0,1,78.952,20.093Z"/><path class="cls-49" d="M78.932,20.1l-8.146,4.7c-.056.033-.1.014-.1-.042a.211.211,0,0,1,.1-.16l8.146-4.7c.056-.032.1-.013.1.043A.208.208,0,0,1,78.932,20.1Z"/><path class="cls-50" d="M78.912,20.1,70.8,24.787c-.052.03-.094.012-.094-.04A.194.194,0,0,1,70.8,24.6l8.115-4.685c.051-.03.093-.012.093.04A.2.2,0,0,1,78.912,20.1Z"/><path class="cls-51" d="M78.891,20.106l-8.083,4.667c-.048.028-.086.011-.086-.037a.179.179,0,0,1,.086-.136l8.083-4.667c.048-.028.087-.011.087.037A.181.181,0,0,1,78.891,20.106Z"/><path class="cls-52" d="M78.871,20.11l-8.052,4.649c-.043.025-.079.01-.079-.033a.165.165,0,0,1,.079-.125l8.052-4.649c.044-.025.079-.01.079.033A.163.163,0,0,1,78.871,20.11Z"/><path class="cls-53" d="M78.851,20.115l-8.021,4.63c-.039.023-.071.01-.071-.03a.147.147,0,0,1,.071-.113l8.021-4.631c.04-.023.072-.009.072.03A.149.149,0,0,1,78.851,20.115Z"/><path class="cls-54" d="M78.831,20.119l-7.989,4.613c-.036.02-.065.008-.065-.028a.136.136,0,0,1,.065-.1l7.989-4.612c.036-.021.065-.009.065.027A.134.134,0,0,1,78.831,20.119Z"/><path class="cls-55" d="M78.811,20.123l-7.958,4.595c-.032.018-.057.007-.057-.024a.119.119,0,0,1,.057-.091l7.958-4.594c.031-.018.057-.008.057.024A.119.119,0,0,1,78.811,20.123Z"/></g><path class="cls-56" d="M79.387,35.024V33.583L75.51,35.822V37.3l3.756-2.169Z"/><polygon class="cls-57" points="75.626 37.235 70.755 40.047 70.755 38.567 75.626 35.755 75.626 37.235"/><path class="cls-57" d="M71.664,37.205l-.382.22c-.03,0-.03-.061-.03-.061s.01-.027.03-.039l.361-.208c.111-.064.167-.128.167-.19,0-.087-.037-.106-.11-.085l-.253.066a.278.278,0,0,1-.157.011c-.031-.013-.047-.044-.047-.095,0-.131.1-.254.29-.365l.352-.2c.03.005.03.061.03.061s-.01.027-.03.039l-.324.187a.436.436,0,0,0-.117.091.135.135,0,0,0-.04.08c0,.072.041.083.123.06l.253-.061c.074-.022.125-.023.151,0a.15.15,0,0,1,.04.123C71.971,36.963,71.868,37.086,71.664,37.205Z"/><path class="cls-57" d="M72.859,36.434v.059q0,.021-.03.039l-.311.179a.387.387,0,0,1-.233.072c-.057-.009-.084-.052-.084-.127v-.344a.364.364,0,0,1,.084-.224.78.78,0,0,1,.233-.2l.311-.179c.03.005.03.064.03.064s-.01.027-.03.039l-.294.17a.289.289,0,0,0-.178.242v.335c0,.093.059.106.178.038l.294-.17C72.849,36.417,72.859,36.419,72.859,36.434Z"/><path class="cls-57" d="M73.486,36.152l-.111.065a.391.391,0,0,1-.234.072c-.056-.01-.084-.052-.084-.127v-.344a.373.373,0,0,1,.084-.225.784.784,0,0,1,.234-.2l.465-.269a6.841,6.841,0,0,1,.03.781c0,.015-.01.028-.03.04l-.1.056c-.03-.006-.03-.068-.03-.068A.569.569,0,0,1,73.486,36.152Zm.228-.382v-.452c-.022,0-.323.171-.323.171a.293.293,0,0,0-.178.243v.335c0,.093.06.106.178.037l.123-.071a.478.478,0,0,0,.148-.124A.231.231,0,0,0,73.714,35.77Z"/><path class="cls-57" d="M74.293,35.687l-.1.055a6.841,6.841,0,0,1-.03-.781c0-.015.011-.028.03-.04l.1-.056c.03.006.03.069.03.069a.552.552,0,0,1,.228-.217l.12-.07a.365.365,0,0,1,.227-.068c.054.01.082.053.082.128v.56c0,.016-.01.029-.03.04l-.1.056a3.536,3.536,0,0,1-.03-.56q0-.141-.18-.036l-.12.069a.48.48,0,0,0-.148.124.228.228,0,0,0-.052.14v.547C74.323,35.662,74.313,35.675,74.293,35.687Z"/><path class="cls-57" d="M75.392,35.052l-.1.056a6.841,6.841,0,0,1-.03-.781.048.048,0,0,1,.03-.04l.1-.056c.03,0,.03.068.03.068a.56.56,0,0,1,.227-.216l.121-.07A.358.358,0,0,1,76,33.945c.054.01.081.053.081.128v.56c0,.015-.01.028-.03.04l-.1.056a3.549,3.549,0,0,1-.03-.561q0-.139-.18-.036l-.12.07a.483.483,0,0,0-.149.124.23.23,0,0,0-.051.139v.547A.048.048,0,0,1,75.392,35.052Z"/><path class="cls-57" d="M76.375,33.529v-.152a.044.044,0,0,1,.028-.038l.1-.057c.03.005.03.156.03.156,0,.015-.009.028-.03.04l-.1.057C76.384,33.546,76.375,33.544,76.375,33.529Zm0,.933v-.776a.044.044,0,0,1,.028-.038l.1-.058a6.868,6.868,0,0,1,.03.782c0,.015-.009.028-.03.04l-.1.055C76.385,34.479,76.375,34.477,76.375,34.462Z"/><path class="cls-57" d="M76.965,34.144l-.1.056a6.841,6.841,0,0,1-.03-.781.048.048,0,0,1,.03-.04l.1-.056c.03.005.03.068.03.068a.568.568,0,0,1,.227-.217l.12-.069a.37.37,0,0,1,.228-.069q.081.016.081.129v.56c0,.015-.01.028-.03.04l-.1.056a3.676,3.676,0,0,1-.029-.561q0-.139-.18-.036l-.121.07a.478.478,0,0,0-.148.124.23.23,0,0,0-.051.139V34.1A.05.05,0,0,1,76.965,34.144Z"/><path class="cls-57" d="M78.351,33.3l-.12.07a.367.367,0,0,1-.228.068c-.054-.01-.081-.053-.081-.128v-.3a.375.375,0,0,1,.084-.225.792.792,0,0,1,.233-.2l.466-.269a7.248,7.248,0,0,1,.03.8.367.367,0,0,1-.085.223.765.765,0,0,1-.232.2l-.4.227c-.032,0-.032-.063-.032-.063,0-.015.01-.029.032-.041l.375-.217a.293.293,0,0,0,.181-.243v-.123A.569.569,0,0,1,78.351,33.3Zm.228-.382v-.409c-.022,0-.321.17-.321.17a.3.3,0,0,0-.18.244v.291c0,.094.061.106.18.037l.121-.07a.492.492,0,0,0,.148-.124A.233.233,0,0,0,78.579,32.918Z"/><polygon class="cls-57" points="39.266 24.452 39.266 27.407 81.617 2.955 81.617 0 39.266 24.452"/><polygon class="cls-58" points="59.917 31.842 48.579 38.389 48.579 25.533 59.917 18.987 59.917 31.842"/><path class="cls-59" d="M52.531,30.541a14.414,14.414,0,0,1,3.379-1.954,4.344,4.344,0,0,1,.153,1.527s-1.644,1.678-1.677,1.7-1.291.045-1.33.055a3.968,3.968,0,0,1-.372-.593c-.007-.016-.626.053-.626.053Z"/><path class="cls-60" d="M52.889,28.694v1.593c.436,1,2.547-.322,2.547-1.471V26.734Z"/><path class="cls-59" d="M56.141,25.534c0,1.358-.9,3.8-2.019,4.445S52.1,29.224,52.1,27.865a4.586,4.586,0,0,1,2.019-3.624C55.237,23.6,56.141,24.176,56.141,25.534Z"/><path class="cls-57" d="M57.617,28.1l-1.707.491c-.11,1.726-2.639,3.444-3.387,1.956l-1.611,1.4a3.352,3.352,0,0,0-.879,1.205,12.445,12.445,0,0,0-.866,4.908l1.3-.746L57.97,32.98l1.306-.755c0-2.4-.461-3.439-.835-3.89A.784.784,0,0,0,57.617,28.1Z"/><path class="cls-1" d="M54.659,23.743c1.053-.474,1.441.158,1.508.56a5.906,5.906,0,0,1-.257,2.69,4.866,4.866,0,0,0-.025-1.694.251.251,0,0,0-.3-.112,10.567,10.567,0,0,0-1.975.772,1.945,1.945,0,0,0-1.214,1.263,4.311,4.311,0,0,0,0,1.962s-.637-.761-.146-2.888a2.323,2.323,0,0,1,.27-.65,1.938,1.938,0,0,1,.217-.3,3.046,3.046,0,0,0,.263-.244A3.2,3.2,0,0,1,54.659,23.743Z"/><path class="cls-58" d="M48.432,38.643V25.448l.073-.043,11.559-6.673v13.2l-.074.043Zm.294-13.025V38.134L59.77,31.758V19.242Z"/><path class="cls-61" d="M61.305,36.645,47.759,44.466c-.7.4-1.264.164-1.264-.534a2.617,2.617,0,0,1,1.264-1.992l13.546-7.821c.7-.4,1.263-.164,1.263.533A2.619,2.619,0,0,1,61.305,36.645Z"/><path class="cls-61" d="M61.305,41.053,47.759,48.874c-.7.4-1.264.164-1.264-.534a2.621,2.621,0,0,1,1.264-1.993l13.546-7.821c.7-.4,1.263-.163,1.263.534A2.619,2.619,0,0,1,61.305,41.053Z"/><path class="cls-62" d="M57.439,47.733,53.6,49.952c-.7.4-1.263.164-1.263-.534A2.619,2.619,0,0,1,53.6,47.426l3.844-2.22c.7-.4,1.263-.163,1.263.534A2.619,2.619,0,0,1,57.439,47.733Z"/><polygon class="cls-18" points="45.535 10.639 26.843 21.431 26.843 51.089 45.559 40.283 45.535 10.639"/><polygon class="cls-57" points="45.535 10.639 26.843 21.431 26.843 24.104 45.537 13.311 45.535 10.639"/><path class="cls-63" d="M40.049,25.037V22.712c0-2.355-1.917-3.164-4.272-1.8s-4.271,4.382-4.271,6.736v2.3A3.415,3.415,0,0,0,30.093,32.4v5.6c0,.919.745,1.234,1.663.7l7.9-4.561a3.449,3.449,0,0,0,1.664-2.624v-5.6C41.32,25.132,40.777,24.793,40.049,25.037Zm-4.272-3.131c1.806-1.042,3.274-.422,3.274,1.383v2.273L32.5,29.341V27.068A6.8,6.8,0,0,1,35.777,21.906Zm.285,9.354v2.725l-.711.411V31.67c-.326.05-.554-.141-.554-.517a1.883,1.883,0,0,1,.909-1.433c.5-.29.909-.118.909.384A1.8,1.8,0,0,1,36.062,31.26Z"/><path class="cls-61" d="M35.519,39.979l1.452-.839v.347l-1.452.838Zm-1.865,3.827-2.262,1.306v.346l2.678-1.546L35,43.376v-.347l-1.344.777Zm2-2.186v-.346l-1.134.654-.746.431v.347l.746-.431Zm-2.412,1.046-1.86,1.074v.346l1.86-1.073Zm.96-1.583.781-.451v-.346l-1.345.776-2.244,1.3v.347l2.808-1.622Zm-2.2-.1,1.831-1.057v-.347L32,40.633l-.592.342v.347L32,40.98Zm3.655-2.11.588-.34v-.346l-.777.448-1.1.637v.347l1.292-.746Zm1.325,3.014-1.453.838v.347l1.453-.839Zm4.3-2.485-1.354.782v.347l1.354-.782Zm-.019-4.114-.814.47V36.1l.814-.47Zm-1.346.777-.7.405v.346l.7-.4Zm1.359.59-1.337.772v.347L41.28,37Zm-2,2.533-.571.329v.347l.571-.33Zm.532.039,1.484-.857v-.346l-1.484.856Zm3.58-1.038-.58.334v.347l.58-.335Zm-.02-4.115-.814.471v.346l.814-.47Zm.014,1.368-.563.325v.346l.563-.325Zm-.7,1.778v.346l.71-.409v-.347Zm-13.3,9.4.6-.348v-.346l-.6.347Zm-.02-4.114.368-.213v-.346l-.368.212Zm.014,1.367.619-.358v-.346l-.619.358Zm.011,1.022v.347l.473-.274v-.346Z"/><path class="cls-64" d="M48.479,47.239a.675.675,0,0,1-.321.515c-.178.1-.321.038-.321-.144a.672.672,0,0,1,.321-.515C48.335,46.993,48.479,47.057,48.479,47.239Zm1.006-.91a.673.673,0,0,0-.322.515c0,.182.144.246.322.144a.675.675,0,0,0,.321-.515C49.806,46.291,49.662,46.227,49.485,46.329Zm1.327-.766a.673.673,0,0,0-.322.515c0,.182.144.246.322.144a.675.675,0,0,0,.321-.515C51.133,45.525,50.989,45.461,50.812,45.563Zm1.326-.766a.675.675,0,0,0-.321.515c0,.182.144.246.321.144a.673.673,0,0,0,.322-.515C52.46,44.759,52.316,44.7,52.138,44.8Zm1.327-.766a.675.675,0,0,0-.321.515c0,.182.144.246.321.144a.673.673,0,0,0,.322-.515C53.787,43.993,53.643,43.928,53.465,44.031Zm1.327-.766a.673.673,0,0,0-.321.515c0,.182.143.246.321.144a.675.675,0,0,0,.321-.515C55.113,43.227,54.97,43.162,54.792,43.265Zm1.327-.766a.672.672,0,0,0-.322.515c0,.182.144.246.322.144a.675.675,0,0,0,.321-.515C56.44,42.461,56.3,42.4,56.119,42.5Zm1.327-.766a.672.672,0,0,0-.322.515c0,.182.144.246.322.143a.671.671,0,0,0,.321-.514C57.767,41.7,57.623,41.63,57.446,41.733Z"/><path class="cls-64" d="M47.979,42.749v.771c0,.171.094.2.24.112a.755.755,0,0,0,.306-.352v-.846l.146-.084v.811l.012.313-.12.07-.024-.145a.893.893,0,0,1-.368.395c-.221.127-.336.042-.336-.17v-.792Z"/><path class="cls-64" d="M49.649,42.607c0-.153-.088-.139-.3-.035-.3.147-.384.089-.384-.079a.713.713,0,0,1,.411-.572c.3-.175.412-.081.412.141a1.274,1.274,0,0,1-.143.092c0-.162-.063-.227-.269-.107a.445.445,0,0,0-.265.349c0,.117.054.15.294.031.277-.137.4-.124.4.083a.739.739,0,0,1-.425.589c-.313.181-.425.058-.425-.115a1.307,1.307,0,0,1,.145-.093c0,.124.061.209.28.082A.466.466,0,0,0,49.649,42.607Z"/><path class="cls-64" d="M50.189,42.1c.006.244.108.339.329.211a.567.567,0,0,0,.313-.441l.139-.08a.834.834,0,0,1-.452.647c-.333.193-.477.024-.477-.29a.973.973,0,0,1,.467-.882c.323-.187.462-.015.462.3v.085Zm0-.124.633-.366c-.008-.24-.106-.34-.316-.218A.658.658,0,0,0,50.189,41.977Z"/><path class="cls-64" d="M51.7,40.579v.143a.753.753,0,0,0-.323.358v.839L51.232,42v-.811l-.013-.313.121-.07.021.137a.784.784,0,0,1,.308-.351Z"/><path class="cls-64" d="M52.541,41.247l-.15.087V39.668l.15-.086Z"/><path class="cls-64" d="M53.31,40.8l-.429.248V39.385l.429-.248c.4-.228.629-.149.629.427v.086A1.211,1.211,0,0,1,53.31,40.8Zm-.013-.132a.964.964,0,0,0,.488-.932v-.086c0-.474-.175-.55-.488-.369l-.266.154v1.387Z"/></g></g></g></svg>