<svg xmlns="http://www.w3.org/2000/svg" xmlns:xlink="http://www.w3.org/1999/xlink" viewBox="0 0 95.117 79.018"><defs><style>.cls-1{fill:#262424;}.cls-2{isolation:isolate;}.cls-3{fill:#50197c;opacity:0.4;mix-blend-mode:multiply;}.cls-4{fill:url(#_ÂÁ_Ï_ÌÌ_È_ËÂÌÚ_95);}.cls-5{fill:url(#_ÂÁ_Ï_ÌÌ_È_ËÂÌÚ_860);}.cls-6{fill:#353131;}.cls-7{fill:#191414;}.cls-8{fill:#f9f7fb;}.cls-9{fill:#c0b9c8;}.cls-10,.cls-11{fill:#cfd5d5;}.cls-10{opacity:0.1;}.cls-11{opacity:0.2;mix-blend-mode:screen;}.cls-12{clip-path:url(#clip-path);}.cls-13{fill:#9e6512;}.cls-14{fill:#cfe9ff;opacity:0.7;}.cls-15{fill:#dd5cd2;}.cls-16,.cls-26{fill:#455cba;}.cls-16,.cls-25{opacity:0.5;}.cls-17{fill:#9423f7;}.cls-18{fill:#ff80b7;}.cls-19{fill:#291b2a;}.cls-20{fill:#fedcff;}.cls-21{fill:#dd3e3e;}.cls-22{fill:#ffc440;}.cls-23,.cls-24{fill:#791f94;}.cls-23{opacity:0.6;}.cls-27{fill:url(#_ÂÁ_Ï_ÌÌ_È_ËÂÌÚ_870);}.cls-28{fill:#f8f5f4;}.cls-29{fill:#cfcad4;}.cls-30{fill:#788eff;}.cls-31{fill:#91338c;}.cls-32{fill:#968ea0;}</style><linearGradient id="_ÂÁ_Ï_ÌÌ_È_ËÂÌÚ_95" x1="5.28" y1="50.345" x2="91.392" y2="50.345" gradientUnits="userSpaceOnUse"><stop offset="0" stop-color="#5917ff"/><stop offset="0.159" stop-color="#6d22f8"/><stop offset="0.485" stop-color="#a13de7"/><stop offset="0.946" stop-color="#f569ca"/><stop offset="1" stop-color="#ff6ec7"/></linearGradient><linearGradient id="_ÂÁ_Ï_ÌÌ_È_ËÂÌÚ_860" x1="59.648" y1="60.474" x2="69.434" y2="60.474" gradientUnits="userSpaceOnUse"><stop offset="0" stop-color="#c0b9c8"/><stop offset="1" stop-color="#e0dbe1"/></linearGradient><clipPath id="clip-path"><path class="cls-1" d="M83.039,69.807,79.9,71.615c-.365.211-.661.085-.661-.28A1.374,1.374,0,0,1,79.9,70.29l3.14-1.809c.365-.21.661-.085.661.281A1.374,1.374,0,0,1,83.039,69.807Z"/></clipPath><linearGradient id="_ÂÁ_Ï_ÌÌ_È_ËÂÌÚ_870" x1="57.268" y1="44.584" x2="79.473" y2="44.584" gradientUnits="userSpaceOnUse"><stop offset="0" stop-color="#8930ef"/><stop offset="0.45" stop-color="#bc4bde"/><stop offset="1" stop-color="#ff6ec7"/></linearGradient></defs><g class="cls-2"><g id="_0" data-name="0"><g id="_3" data-name="3"><path class="cls-3" d="M39.856,28.147a10.5,10.5,0,0,0-6.5-1.028,10.554,10.554,0,0,0-6.511,1.03L3.712,41.513c-2.682,1.55-2.7,4.064-.031,5.612l53.26,30.722A9.847,9.847,0,0,0,61.909,79H64.96l.529-36.061Z"/><path class="cls-4" d="M88.953,60.818,63.236,75.666a1.509,1.509,0,0,1-1.51,0l-55-31.755C5.717,43.33,4.461,41.931,6,40.2L29.623,26.37a11.05,11.05,0,0,1,6.512-1.491,8.691,8.691,0,0,1,2.6.647l51.55,29.69C92.456,56.469,91.122,59.566,88.953,60.818Z"/><path class="cls-5" d="M95.106,59.246a3.426,3.426,0,0,1-2.022,2.826L69.947,75.436a10.673,10.673,0,0,1-9.688,0L7,44.716a3.4,3.4,0,0,1-1.99-2.785l.011,2.418a3.4,3.4,0,0,0,1.99,2.786L60.27,77.857a10.677,10.677,0,0,0,9.688,0L93.1,64.49a3.428,3.428,0,0,0,2.022-2.826Z"/><path class="cls-6" d="M93.115,56.46,39.856,25.739a10.682,10.682,0,0,0-9.689,0L7.03,39.1c-2.682,1.549-2.7,4.063-.031,5.612l53.26,30.721a10.677,10.677,0,0,0,9.688,0L93.084,62.072C95.767,60.523,95.784,58.01,93.115,56.46ZM59.426,73.98,6.578,43.48a1.9,1.9,0,0,1,0-3.286l5.966-3.445a.875.875,0,0,1,.333-.111l4.585-.536a.643.643,0,0,0,.248-.082l7.212-4.166a.679.679,0,0,0,.253-.257L26.9,28.529a.479.479,0,0,1,.175-.177l3.668-2.117a8.708,8.708,0,0,1,8.708,0L90.46,55.671a.651.651,0,0,1,0,1.128L60.716,73.98A1.292,1.292,0,0,1,59.426,73.98Z"/><path class="cls-1" d="M82.365,65.426,81,64.638a2.842,2.842,0,0,0-2.6.1l-3.039,1.755a1.544,1.544,0,0,0-.575.539.886.886,0,0,0,.407,1.255l1.365.788a2.842,2.842,0,0,0,2.6-.1L82.2,67.22a1.536,1.536,0,0,0,.575-.539A.885.885,0,0,0,82.365,65.426Z"/><path class="cls-6" d="M82.383,65.748l-1.371-.791a2.86,2.86,0,0,0-2.609.1l-3.054,1.764a1.549,1.549,0,0,0-.577.542.907.907,0,0,0-.1.279.991.991,0,0,0,.5.663l1.371.791a2.857,2.857,0,0,0,2.609-.1l3.053-1.764a1.543,1.543,0,0,0,.578-.541.926.926,0,0,0,.1-.279A.99.99,0,0,0,82.383,65.748Z"/><path class="cls-7" d="M22.765,31l-4.821,2.784c-.265.153-.294.385-.064.518a1,1,0,0,0,.9-.037L23.6,31.481c.266-.153.3-.385.065-.518A1,1,0,0,0,22.765,31Z"/><path class="cls-8" d="M16.549,51.287a1.387,1.387,0,0,0-.2-.385,1.133,1.133,0,0,0-.34-.318l-4.426-2.555a.426.426,0,0,0-.425-.042l-.438.251a.424.424,0,0,1,.424.042l4.427,2.555a1.158,1.158,0,0,1,.34.318,1.444,1.444,0,0,1,.2.385,1.072,1.072,0,0,1,.061.34v.192a.425.425,0,0,1-.179.392l.438-.251a.425.425,0,0,0,.179-.392v-.192A1.062,1.062,0,0,0,16.549,51.287Z"/><path class="cls-9" d="M15.57,50.835,11.143,48.28c-.334-.191-.6-.035-.6.353v.191a1.324,1.324,0,0,0,.6,1.043l4.426,2.555c.331.19.6.032.6-.352v-.192A1.33,1.33,0,0,0,15.57,50.835Z"/><path class="cls-8" d="M23.3,55.186a1.435,1.435,0,0,0-.2-.386,1.133,1.133,0,0,0-.341-.317l-4.426-2.555a.423.423,0,0,0-.424-.043l-.438.252a.424.424,0,0,1,.424.042l4.426,2.555a1.136,1.136,0,0,1,.341.318,1.458,1.458,0,0,1,.2.385,1.06,1.06,0,0,1,.06.34v.192a.423.423,0,0,1-.179.392l.439-.251a.428.428,0,0,0,.179-.393v-.191A1.062,1.062,0,0,0,23.3,55.186Z"/><path class="cls-9" d="M22.322,54.734,17.9,52.179c-.335-.192-.6-.035-.6.352v.192a1.327,1.327,0,0,0,.6,1.043l4.427,2.555c.33.19.6.031.6-.352v-.192A1.326,1.326,0,0,0,22.322,54.734Z"/><path class="cls-7" d="M17.032,35.475a1.3,1.3,0,0,1-1.177,0,.36.36,0,0,1,0-.682,1.293,1.293,0,0,1,1.177,0A.36.36,0,0,1,17.032,35.475Z"/><path class="cls-10" d="M16.025,35.393a.957.957,0,0,0,.87-.023.267.267,0,0,0-.015-.5.959.959,0,0,0-.871.023A.266.266,0,0,0,16.025,35.393Z"/><path class="cls-10" d="M16.207,35.256a.519.519,0,0,0,.473-.012.145.145,0,0,0-.008-.274.522.522,0,0,0-.473.012A.145.145,0,0,0,16.207,35.256Z"/><path class="cls-11" d="M16.354,35.166a.193.193,0,0,0,.175,0,.054.054,0,0,0,0-.1.193.193,0,0,0-.175,0C16.3,35.094,16.3,35.139,16.354,35.166Z"/><path class="cls-1" d="M83.039,69.807,79.9,71.615c-.365.211-.661.085-.661-.28A1.374,1.374,0,0,1,79.9,70.29l3.14-1.809c.365-.21.661-.085.661.281A1.374,1.374,0,0,1,83.039,69.807Z"/><g class="cls-12"><path class="cls-13" d="M78.705,70.3l-.437.252,1.551.895.437-.252Zm.961-.555L79.229,70l1.551.9.436-.253Zm.961-.555-.437.253,1.551.895.436-.252Zm.961-.554-.437.252,1.551.9.436-.252Z"/></g><polygon class="cls-14" points="91.392 46.772 60.239 64.759 8.654 34.976 39.807 16.989 91.392 46.772"/><polygon class="cls-15" points="40.005 17.103 8.852 35.09 4.999 32.865 36.152 14.879 40.005 17.103"/><path class="cls-16" d="M45.657,22.791,18.679,38.4c-.776.449-.859,1.127-.186,1.514l16.16,9.307a2.914,2.914,0,0,0,2.623-.11L64.254,33.5c.776-.449.859-1.127.186-1.515L48.28,22.68A2.917,2.917,0,0,0,45.657,22.791Z"/><path class="cls-14" d="M64.882,26.763a1.072,1.072,0,0,1-.635.841L37.269,43.214a2.919,2.919,0,0,1-2.624.11L18.486,34.017a.75.75,0,0,1-.449-.722c.017-.152-.01-.464.011-.645a1.128,1.128,0,0,1,.631-.775L45.657,16.266a2.914,2.914,0,0,1,2.623-.111l16.16,9.307a.793.793,0,0,1,.451.614C64.9,26.262,64.884,26.605,64.882,26.763Z"/><path class="cls-17" d="M48.28,16.155a2.914,2.914,0,0,0-2.623.111L18.679,31.875c-.776.448-.859,1.127-.186,1.514L28.9,39.382,58.56,22.076Z"/><path class="cls-18" d="M60.722,23.338l3.834,2.208c.534.4.422,1.012-.3,1.43L37.276,42.586a2.917,2.917,0,0,1-2.623.11l-3.7-2.133Z"/><polygon class="cls-19" points="57.026 21.204 60.859 23.412 30.956 40.562 27.254 38.429 57.026 21.204"/><path class="cls-20" d="M56.877,26.94a.709.709,0,0,0-.394.483.466.466,0,0,0,.28.454l1.068.615a1.809,1.809,0,0,0,1.623-.068l2.818-1.632a.709.709,0,0,0,.394-.482.468.468,0,0,0-.279-.455l-1.069-.614a1.806,1.806,0,0,0-1.623.068Z"/><path class="cls-21" d="M45.64,19.539a2.657,2.657,0,0,0,2.406,0,.734.734,0,0,0,0-1.39,2.663,2.663,0,0,0-2.406,0A.734.734,0,0,0,45.64,19.539Z"/><ellipse class="cls-22" cx="44.075" cy="20.442" rx="1.702" ry="0.983"/><path class="cls-20" d="M22.182,33.064l-.3.172a.784.784,0,0,1-.4.111.755.755,0,0,1-.391-.105l-.838-.483c-.124-.072-.186-.148-.184-.227s.066-.156.194-.23l.3-.172a.79.79,0,0,1,.4-.111.749.749,0,0,1,.394.105l.121.07c.03.017.03.035,0,.052l-.163.094a.084.084,0,0,1-.089,0l-.111-.064a.348.348,0,0,0-.371,0l-.225.13c-.124.072-.124.143,0,.215l.818.472a.347.347,0,0,0,.372,0l.225-.129c.123-.072.123-.144,0-.215l-.11-.064c-.031-.018-.031-.035,0-.052l.163-.094a.085.085,0,0,1,.091,0l.121.07c.123.07.183.146.181.226S22.308,32.991,22.182,33.064Z"/><path class="cls-20" d="M23.108,32.529l-.162.094a.081.081,0,0,1-.087,0l-1.532-.884c-.029-.017-.028-.033,0-.05l.6-.349a.8.8,0,0,1,.4-.11.773.773,0,0,1,.395.1l.211.122q.29.168.12.352c.01.006.885.181.885.181.053.008.058.024.017.048l-.16.093a.17.17,0,0,1-.123.021l-.855-.175-.26.151a4.682,4.682,0,0,0,.547.352C23.138,32.495,23.138,32.512,23.108,32.529Zm-.75-.517.328-.189c.127-.074.129-.146.007-.216l-.212-.122a.352.352,0,0,0-.376,0l-.328.19a4.759,4.759,0,0,0,.527.337A.05.05,0,0,0,22.358,32.012Z"/><path class="cls-20" d="M25.17,31.338l-.826.477a.081.081,0,0,1-.086,0l-1.532-.885c-.029-.016-.029-.033,0-.05l.825-.477a.084.084,0,0,1,.085,0l.128.074c.028.017.029.033,0,.049l-.588.34a2.808,2.808,0,0,0,.419.277.052.052,0,0,0,.056,0l.5-.287a.084.084,0,0,1,.089,0l.129.075c.028.016.027.033,0,.051l-.5.288a3.113,3.113,0,0,0,.442.291.057.057,0,0,0,.059,0l.588-.34a.077.077,0,0,1,.084,0l.129.074C25.2,31.306,25.2,31.323,25.17,31.338Z"/><path class="cls-20" d="M25.5,31.1l-1.533-.885c-.028-.017-.028-.033,0-.05L24.6,29.8a.813.813,0,0,1,.4-.111.761.761,0,0,1,.395.1l.838.484c.122.071.182.146.179.227s-.066.158-.192.23l-.635.367A.081.081,0,0,1,25.5,31.1Zm.107-.26.364-.21c.124-.072.124-.143,0-.215l-.818-.472a.347.347,0,0,0-.372,0l-.364.21c0,.031,1.134.687,1.134.687A.052.052,0,0,0,25.6,30.841Z"/><path class="cls-20" d="M25.66,29.237l1.532.885c.028.016.028.033,0,.05l-.163.094a.081.081,0,0,1-.087,0l-1.532-.884c-.028-.017-.028-.033,0-.05l.163-.094A.083.083,0,0,1,25.66,29.237Z"/><path class="cls-20" d="M28.079,29.659l-.163.094a.082.082,0,0,1-.089,0l-1.336-.771a.049.049,0,0,0-.051,0l-.325.188a.084.084,0,0,1-.09,0L25.9,29.1c-.029-.016-.027-.034,0-.051l.957-.553a.082.082,0,0,1,.089,0l.128.074q.043.024,0,.051l-.325.188c0,.031,1.333.8,1.333.8C28.108,29.626,28.108,29.642,28.079,29.659Z"/><path class="cls-20" d="M30.032,28.532l-.3.172a.787.787,0,0,1-.4.111.753.753,0,0,1-.391-.105l-.838-.484c-.124-.071-.186-.147-.184-.226s.066-.156.194-.23l.3-.172a.8.8,0,0,1,.4-.112.76.76,0,0,1,.394.106l.121.07c.03.017.029.034,0,.052l-.163.094a.082.082,0,0,1-.089,0l-.111-.064a.351.351,0,0,0-.372,0l-.224.13c-.124.072-.124.143,0,.215l.818.472a.349.349,0,0,0,.372,0l.224-.13c.124-.071.124-.143,0-.214l-.111-.064c-.03-.018-.031-.035,0-.052l.162-.094a.085.085,0,0,1,.092,0l.121.07c.122.07.183.146.181.226S30.157,28.459,30.032,28.532Z"/><path class="cls-20" d="M30.842,28.064l-.186.107a.052.052,0,0,1-.068-.01l-1.083-1.144c-.021-.021-.014-.041.019-.06l.258-.149a.119.119,0,0,1,.105-.011l1.981.625c.035.013.04.026.014.041l-.183.106a3.89,3.89,0,0,1-.514-.13l-.568.328.229.245C30.867,28.033,30.866,28.05,30.842,28.064Zm-.953-1.039.578.6.467-.27L29.9,27.019Z"/><path class="cls-20" d="M32.373,27.18l-.163.094a.083.083,0,0,1-.087,0l-1.532-.885c-.029-.017-.028-.033,0-.05l.6-.349a.805.805,0,0,1,.4-.11.762.762,0,0,1,.395.105l.211.122q.29.167.12.352c.01.006.885.18.885.18.053.008.059.025.017.048l-.16.093a.161.161,0,0,1-.123.021l-.854-.174-.261.15a4.565,4.565,0,0,0,.548.352C32.4,27.147,32.4,27.163,32.373,27.18Zm-.751-.517.328-.189c.127-.073.13-.145.007-.216l-.211-.122a.352.352,0,0,0-.377,0l-.328.189a4.718,4.718,0,0,0,.528.337A.049.049,0,0,0,31.622,26.663Z"/><path class="cls-20" d="M33.522,26.467l-1.532-.885c-.029-.016-.028-.033,0-.05l.635-.366a.8.8,0,0,1,.4-.112.753.753,0,0,1,.395.105l.838.483c.123.071.182.147.18.228s-.067.157-.192.23l-.635.366A.081.081,0,0,1,33.522,26.467Zm.108-.259L33.994,26c.124-.071.123-.143,0-.214l-.818-.473a.35.35,0,0,0-.371,0l-.364.21c0,.031,1.133.688,1.133.688A.058.058,0,0,0,33.63,26.208Z"/><path class="cls-23" d="M39.284,38.338l-.138-.081L37.23,39.363l.139.081Zm.834-.005.139.08,1.916-1.106-.139-.08ZM43.3,36.019l1.134-.655-.139-.08-1.134.654Zm-1.115,1.12.139.08.839-.485-.139-.08ZM39.3,38.169l.139.081,1.94-1.12-.139-.081Zm3.711-2.143-1.619.935.139.081,1.619-.935Zm.041,1.251-1.078.622.139.08,1.078-.622Zm.291-.008.981-.567-.139-.08-.981.567Zm-.025-.623,1.258-.726-.139-.08-1.258.726Zm-1.5,1.341L39.338,39.42l.139.08,2.482-1.433Zm-3.282,1.894-2.2,1.273.139.08,2.2-1.272Zm-1.175.042-1.576.91.139.081L37.5,40Zm1.962-.335-.139-.08-.5.285.139.081Zm-2.109-.056-.139-.081-1.838,1.062.139.08ZM40.1,38.5l-.139-.08-2.449,1.414.139.08Z"/><path class="cls-24" d="M34.556,40.829c-.074.043-.072.113,0,.156a.3.3,0,0,0,.27,0c.073-.043.071-.113,0-.156A.3.3,0,0,0,34.556,40.829Zm.551.319c-.074.042-.072.112,0,.156a.3.3,0,0,0,.27,0c.073-.042.072-.112,0-.156A.3.3,0,0,0,35.107,41.148Zm.551.318c-.073.042-.071.112,0,.156a.3.3,0,0,0,.27,0c.074-.042.072-.112,0-.156A.3.3,0,0,0,35.658,41.466Z"/><polygon class="cls-23" points="51.968 31.651 53.921 30.524 53.782 30.444 51.829 31.571 51.968 31.651"/><polygon class="cls-23" points="50.133 33.347 49.994 33.267 51.934 32.147 52.073 32.227 50.133 33.347"/><polygon class="cls-23" points="50.81 32.159 51.677 31.659 51.816 31.739 50.949 32.239 50.81 32.159"/><polygon class="cls-23" points="49.719 32.949 49.58 32.869 50.658 32.247 50.797 32.327 49.719 32.949"/><polygon class="cls-23" points="52.742 30.407 53.609 29.907 53.748 29.987 52.881 30.487 52.742 30.407"/><polygon class="cls-23" points="55.543 29.427 55.681 29.507 54.073 30.436 53.934 30.356 55.543 29.427"/><polygon class="cls-23" points="47.211 35.034 47.072 34.954 49.841 33.355 49.98 33.435 47.211 35.034"/><polygon class="cls-23" points="48.878 32.638 50.818 31.518 50.957 31.598 49.017 32.718 48.878 32.638"/><polygon class="cls-23" points="50.971 31.43 52.59 30.495 52.729 30.575 51.11 31.51 50.971 31.43"/><polygon class="cls-23" points="46.115 34.394 45.976 34.314 48.726 32.726 48.865 32.806 46.115 34.394"/><polygon class="cls-23" points="53.761 29.819 54.992 29.108 55.131 29.188 53.9 29.899 53.761 29.819"/><polygon class="cls-23" points="49.567 33.037 46.653 34.72 46.514 34.639 49.428 32.957 49.567 33.037"/><path class="cls-24" d="M45.25,34.655c-.074.042-.072.112,0,.156a.3.3,0,0,0,.27,0c.073-.042.071-.112,0-.156A.3.3,0,0,0,45.25,34.655Z"/><path class="cls-24" d="M46.071,34.976c.076.043.078.113,0,.156a.3.3,0,0,1-.27,0c-.076-.043-.077-.113,0-.156A.3.3,0,0,1,46.071,34.976Z"/><path class="cls-24" d="M46.622,35.294c.076.044.078.114,0,.156a.3.3,0,0,1-.27,0c-.075-.044-.077-.114,0-.156A.3.3,0,0,1,46.622,35.294Z"/><polygon id="Cube_face_-_top" data-name="Cube face - top" class="cls-16" points="45.249 55.323 39.102 51.774 69.072 34.471 75.219 38.02 45.249 55.323"/><g class="cls-25"><path class="cls-26" d="M78.255,47.437c1.622.937,1.623,2.454.012,3.39l-10.3,5.988a6.43,6.43,0,0,1-5.846,0l-3.626-2.093c-1.623-.937-1.631-2.45-.019-3.386l10.3-5.988a6.445,6.445,0,0,1,5.853,0Z"/></g><g class="cls-2"><path class="cls-14" d="M79.473,42.644l-22.2,3.877.008.708a2.071,2.071,0,0,0,1.222,1.7l3.626,2.093a6.43,6.43,0,0,0,5.846,0l10.3-5.988a2.062,2.062,0,0,0,1.207-1.687Z"/><path class="cls-27" d="M78.255,40.941c1.622.937,1.623,2.454.012,3.39l-10.3,5.988a6.43,6.43,0,0,1-5.846,0l-3.626-2.093c-1.623-.937-1.631-2.45-.019-3.386l10.3-5.988a6.445,6.445,0,0,1,5.853,0Z"/></g><path class="cls-28" d="M66.519,48.55l-.637.368a.286.286,0,0,1-.307,0L61.041,46.3c-.1-.06-.1-.121,0-.181l.636-.368a.3.3,0,0,1,.315,0l.247.143a.381.381,0,0,1,.02-.362.928.928,0,0,1,.34-.313l.308-.178a2.262,2.262,0,0,1,1.187-.322,2.471,2.471,0,0,1,1.2.353l1.379.8q.592.342.61.694t-.558.686l-.307.178a1.784,1.784,0,0,1-.544.2,1.354,1.354,0,0,1-.595-.006c-.031.017,1.243.753,1.243.753C66.626,48.431,66.624,48.49,66.519,48.55ZM65.35,47.1l.33-.191c.16-.092.239-.177.24-.255s-.08-.163-.24-.256l-1.289-.744a.778.778,0,0,0-.885,0l-.33.191q-.516.3.053.627l1.034.6A1.021,1.021,0,0,0,65.35,47.1Zm4.639-1.727-.18.1a2.462,2.462,0,0,1-1.229.346,2.389,2.389,0,0,1-1.229-.337l-1.379-.8q-.592-.34-.585-.709t.6-.71l1.732-1a.3.3,0,0,1,.322-.005l3.507,2.025c.105.061.1.123-.007.186l-.629.364a.3.3,0,0,1-.315,0l-.247-.143a.379.379,0,0,1-.02.361A.922.922,0,0,1,69.989,45.37Zm-.63-1.246-1.521-.879a.164.164,0,0,0-.173.005l-.7.407c-.16.092-.239.176-.236.253s.084.16.244.253l1.289.744a.923.923,0,0,0,.438.141.876.876,0,0,0,.438-.136l.278-.161Q69.928,44.453,69.359,44.124Zm5.059.151-.48.278a.3.3,0,0,1-.314-.01l-.5-.289c-.11-.064-.116-.124-.016-.182l.158-.091c.314-.181.485-.33.51-.445s-.058-.263-.248-.442l-.4.229a.415.415,0,0,1-.345.018l-4.182-1.4c-.135-.044-.15-.095-.045-.156l.667-.385a.393.393,0,0,1,.345-.017l3.41,1.224c.03-.017-2.1-1.982-2.1-1.982-.085-.072-.075-.138.031-.2l.629-.363a.246.246,0,0,1,.315.009L74.6,42.709a1.158,1.158,0,0,1,.434.839Q75.01,43.933,74.418,44.275Z"/><g id="Axonometric_Cube" data-name="Axonometric Cube"><polygon class="cls-14" points="45.249 48.67 39.102 45.122 39.102 45.769 45.249 49.318 75.218 32.015 75.218 31.367 45.249 48.67"/><polygon id="Cube_face_-_top-2" data-name="Cube face - top" class="cls-28" points="45.249 48.67 39.102 45.122 69.072 27.819 75.219 31.367 45.249 48.67"/></g><path class="cls-29" d="M42.819,45.455l-.209.121a.517.517,0,0,1-.259.071.511.511,0,0,1-.262-.071l-.61-.352c-.082-.048-.123-.1-.122-.151s.041-.1.122-.15l.209-.121a.521.521,0,0,1,.261-.07.511.511,0,0,1,.26.071l.61.352c.081.047.122.1.122.15S42.9,45.409,42.819,45.455Zm-.308.048.18-.1c.1-.057.1-.115-.005-.174l-.6-.346a.282.282,0,0,0-.3,0l-.179.1c-.1.056-.095.114.007.173l.6.346A.281.281,0,0,0,42.511,45.5Zm.915-.4-.079.046a.048.048,0,0,1-.049,0l-.848-.49c0-.028.079-.074.079-.074a.048.048,0,0,1,.049,0l.071.041a.11.11,0,0,1,.007-.081.2.2,0,0,1,.088-.084l.068-.039a.306.306,0,0,1,.113.038c0,.027-.095.082-.095.082-.053.03-.078.063-.074.1s.033.068.088.1l.582.336C43.442,45.086,43.442,45.1,43.426,45.105Zm.8-.464-.1.06a.493.493,0,0,1-.255.068.53.53,0,0,1-.259-.072l-.376-.217c-.082-.048-.124-.1-.125-.15s.038-.1.118-.147l.1-.06a.379.379,0,0,1,.274-.051c.007,0-.4-.239-.4-.239,0-.028.079-.074.079-.074.048,0,1.235.686,1.235.686,0,.027-.079.074-.079.074a.044.044,0,0,1-.048,0l-.068-.039C44.351,44.535,44.321,44.588,44.23,44.641Zm-.086-.267-.349-.2a.313.313,0,0,0-.325,0l-.107.062c-.1.056-.095.114.007.172l.366.212a.281.281,0,0,0,.3,0l.107-.062c.053-.031.079-.062.079-.095S44.2,44.4,44.144,44.374Zm1.259-.41-.373.215a.517.517,0,0,1-.259.071.524.524,0,0,1-.262-.071l-.376-.217c-.082-.048-.123-.1-.122-.151s.041-.1.122-.15l.148-.085a.513.513,0,0,1,.519,0l.223.129a4.531,4.531,0,0,1-.5.317c0,.019.106.081.106.081a.28.28,0,0,0,.3,0l.359-.207a.044.044,0,0,1,.049,0l.064.036C45.42,43.945,45.419,43.954,45.4,43.964Zm-.969.005.38-.22c0-.02-.136-.1-.136-.1a.281.281,0,0,0-.3,0l-.119.069c-.1.057-.1.114,0,.173l.136.078A.032.032,0,0,0,44.434,43.969Zm1.322-.209-.079.045a.044.044,0,0,1-.049,0l-.848-.489c0-.029.079-.074.079-.074a.045.045,0,0,1,.05,0l.07.04a.111.111,0,0,1,.007-.081.209.209,0,0,1,.088-.083l.069-.04a.044.044,0,0,1,.047,0l.065.038c0,.026-.1.081-.1.081-.053.031-.077.063-.074.1s.033.067.088.1l.582.336C45.773,43.741,45.773,43.75,45.756,43.76Zm.16-1-.1.056a.044.044,0,0,1-.048,0l-.065-.037c0-.029.1-.085.1-.085,0-.019-.15-.106-.15-.106,0-.029.08-.074.08-.074a.845.845,0,0,1,.2.088,1.477,1.477,0,0,0,.222-.11.049.049,0,0,1,.051,0l.065.038c0,.028-.19.136-.19.136,0,.02.5.313.5.313a.287.287,0,0,0,.3,0l.069-.04a.049.049,0,0,1,.051,0l.065.038c0,.028-.088.077-.088.077a.523.523,0,0,1-.261.072.489.489,0,0,1-.261-.067l-.512-.3A.034.034,0,0,0,45.916,42.761Zm1.759-.109-.151.087a.518.518,0,0,1-.26.071A.51.51,0,0,1,47,42.739l-.376-.217c-.082-.048-.123-.1-.122-.151s.041-.1.122-.15l.151-.087a.513.513,0,0,1,.521,0l.376.217c.082.048.123.1.123.151S47.756,42.605,47.675,42.652Zm-.25.014.124-.071c.1-.057.1-.114,0-.173l-.369-.213a.281.281,0,0,0-.3,0l-.123.071c-.1.057-.1.115,0,.173l.37.213A.279.279,0,0,0,47.425,42.666ZM47.41,41.9l-.1.056a.044.044,0,0,1-.048,0l-.065-.037c0-.029.1-.085.1-.085,0-.019-.149-.106-.149-.106,0-.029.079-.074.079-.074a.042.042,0,0,1,.047,0l.151.087a1.43,1.43,0,0,0,.222-.11.049.049,0,0,1,.051,0l.065.038c0,.028-.19.136-.19.136,0,.02.5.313.5.313a.287.287,0,0,0,.3,0l.069-.04a.049.049,0,0,1,.051,0l.065.037c0,.029-.088.078-.088.078a.533.533,0,0,1-.261.072.489.489,0,0,1-.261-.067l-.512-.3A.033.033,0,0,0,47.41,41.9Zm1.7-.075-.092.053a.512.512,0,0,1-.52,0l-.377-.217c-.082-.048-.123-.1-.122-.151s.041-.1.122-.15l.382-.22a.044.044,0,0,1,.049,0l.848.489c0,.029-.079.074-.079.074a.045.045,0,0,1-.05,0l-.068-.039C49.228,41.72,49.2,41.772,49.109,41.824Zm-.088-.266-.495-.285a2.3,2.3,0,0,0-.279.143c-.1.056-.095.114.007.173l.366.211a.281.281,0,0,0,.3,0l.1-.058c.053-.031.079-.062.079-.094S49.072,41.588,49.021,41.558Zm.758-.121-.079.046a.05.05,0,0,1-.05,0L48.463,40.8c0-.029.079-.075.079-.075a.05.05,0,0,1,.05,0l1.187.686C49.8,41.418,49.8,41.428,49.779,41.437Z"/><path class="cls-30" d="M45.867,46.952l-.17.1a.113.113,0,0,1-.12,0l-.219-.127a.919.919,0,0,1-.481.135.929.929,0,0,1-.464-.128l-.054-.031q-.06-.034,0-.069l.242-.14a.111.111,0,0,1,.119,0,.329.329,0,0,0,.407,0l.114-.066c.074-.042.112-.08.113-.114s-.038-.072-.116-.117a.347.347,0,0,0-.2-.064.512.512,0,0,0-.154.026c-.041.015-.117.049-.226.1a2.107,2.107,0,0,1-.259.108,1.134,1.134,0,0,1-.223.046.9.9,0,0,1-.561-.14l-.1-.061c-.15-.086-.225-.176-.225-.269s.073-.182.219-.267c.02-.011-.205-.141-.205-.141q-.06-.034,0-.069l.171-.1a.111.111,0,0,1,.119,0l.225.129a.849.849,0,0,1,.45-.115.952.952,0,0,1,.458.13l.054.031q.06.034,0,.069l-.242.14a.111.111,0,0,1-.119,0,.419.419,0,0,0-.209-.073.427.427,0,0,0-.2.068L43.921,46c-.078.045-.116.083-.114.116s.045.074.131.124l.057.032a.24.24,0,0,0,.141.032.46.46,0,0,0,.143-.028c.05-.02.128-.056.236-.109a1.993,1.993,0,0,1,.262-.108A1.267,1.267,0,0,1,45,46.019a.9.9,0,0,1,.538.136l.108.063c.148.085.222.176.221.27s-.073.183-.215.266c-.006,0,.213.129.213.129Q45.927,46.918,45.867,46.952Zm.453-.652-.27-.156a.223.223,0,0,1-.137-.24l.08-.559a.184.184,0,0,0-.1-.2l-.085-.049a.326.326,0,0,0-.168-.05.371.371,0,0,0-.174.056l-.1.058q-.092.052-.09.1c0,.029.031.06.089.094l.092.053c.041.024.042.048,0,.071l-.242.139a.114.114,0,0,1-.122,0l-.1-.056c-.148-.086-.221-.175-.219-.268s.078-.183.228-.269l.216-.125a.931.931,0,0,1,.467-.132.9.9,0,0,1,.464.127l.114.065c.148.086.213.189.2.311l-.08.572a.062.062,0,0,0,.034.059l.046.026.68-.392a.113.113,0,0,1,.12,0l.2.115q.06.034,0,.069L46.44,46.3A.113.113,0,0,1,46.32,46.3Zm2.234-1.221-.285.165a.934.934,0,0,1-.466.131.914.914,0,0,1-.467-.128l-.9-.521c-.15-.087-.224-.176-.222-.27s.078-.182.228-.269l.284-.164a.91.91,0,0,1,.931,0l.9.521c.148.085.221.175.22.269S48.7,44.994,48.554,45.079Zm-.538-.051.168-.1c.061-.035.09-.067.09-.1s-.032-.061-.093-.1l-.868-.5a.337.337,0,0,0-.166-.053.326.326,0,0,0-.167.051l-.168.1c-.06.035-.09.067-.089.1s.031.061.092.1l.868.5a.341.341,0,0,0,.167.053A.328.328,0,0,0,48.016,45.028Zm2.063-.829-.284.164a.94.94,0,0,1-.467.131.907.907,0,0,1-.467-.128l-.9-.521c-.15-.086-.224-.176-.222-.269s.078-.183.228-.27l.284-.164a.933.933,0,0,1,.466-.129.92.92,0,0,1,.465.127l.9.521c.148.086.222.175.221.269S50.227,44.113,50.079,44.2Zm-.538-.051.168-.1q.091-.053.09-.1c0-.029-.032-.062-.092-.1l-.868-.5a.344.344,0,0,0-.167-.053.331.331,0,0,0-.167.052l-.167.1q-.092.052-.09.1c0,.029.032.061.092.1l.868.5a.344.344,0,0,0,.167.053A.323.323,0,0,0,49.541,44.148Zm1.221-.817.35.2q.06.034.006.066l-.253.146a.11.11,0,0,1-.117,0l-.347-.2q-.057-.033,0-.066l.253-.146A.1.1,0,0,1,50.762,43.331Zm1.423-.348-.284.164a.94.94,0,0,1-.467.131.9.9,0,0,1-.467-.128l-.9-.521c-.15-.086-.224-.176-.222-.269s.078-.183.228-.27l.284-.164a.932.932,0,0,1,.465-.129.912.912,0,0,1,.466.128l.9.52c.148.086.222.175.221.269S52.333,42.9,52.185,42.983Zm-.538-.051.168-.1q.091-.053.09-.1c0-.029-.032-.061-.092-.1l-.869-.5a.348.348,0,0,0-.166-.053.341.341,0,0,0-.167.052l-.167.1q-.091.052-.09.1c0,.029.032.061.092.1l.868.5a.341.341,0,0,0,.167.053A.323.323,0,0,0,51.647,42.932Zm2.064-.83-.285.164a.931.931,0,0,1-.467.132.916.916,0,0,1-.467-.128l-.9-.521q-.225-.131-.222-.27c0-.093.078-.183.228-.269l.285-.165a.921.921,0,0,1,.465-.128.9.9,0,0,1,.465.127l.9.521c.148.085.222.175.221.268S53.859,42.017,53.711,42.1Zm-.538-.051.168-.1c.06-.035.09-.067.089-.1s-.031-.061-.092-.1l-.868-.5a.357.357,0,0,0-.167-.054.335.335,0,0,0-.166.052l-.168.1q-.092.052-.09.1t.093.1l.868.5a.288.288,0,0,0,.333,0Z"/><path class="cls-29" d="M65.464,33.26a.5.5,0,0,1,0,.946,1.811,1.811,0,0,1-1.638,0,.5.5,0,0,1,0-.946A1.811,1.811,0,0,1,65.464,33.26Z"/><polygon class="cls-28" points="65.128 33.318 64.645 33.596 64.163 33.318 63.926 33.454 64.409 33.733 63.926 34.011 64.163 34.148 64.645 33.869 65.128 34.148 65.364 34.011 64.881 33.733 65.364 33.454 65.128 33.318"/><path class="cls-29" d="M66.713,33.136l-1.136-.656a3.852,3.852,0,0,1,.454-.292.542.542,0,0,1,.547,0l.641.37c.085.049.127.1.127.158s-.042.108-.127.157l-.455.263A.047.047,0,0,1,66.713,33.136Zm.061-.142.31-.179q.156-.09-.006-.183l-.629-.363a.3.3,0,0,0-.316,0l-.311.18c0,.02.916.55.916.55A.034.034,0,0,0,66.774,32.994Z"/><path class="cls-29" d="M68.394,32.2,68,32.421a.537.537,0,0,1-.272.074.529.529,0,0,1-.275-.074l-.395-.228c-.086-.05-.129-.1-.128-.158s.043-.109.128-.158l.155-.089a.536.536,0,0,1,.545,0l.234.135a4.588,4.588,0,0,1-.52.333c0,.02.11.085.11.085a.3.3,0,0,0,.316,0l.377-.217a.049.049,0,0,1,.052,0l.067.038C68.412,32.176,68.411,32.185,68.394,32.2Zm-1.018.005.4-.23c0-.021-.143-.1-.143-.1a.293.293,0,0,0-.313,0l-.126.072c-.1.06-.1.12,0,.182l.143.082A.033.033,0,0,0,67.376,32.2Z"/><path class="cls-29" d="M67.867,31.548l-.1.058a.048.048,0,0,1-.05,0l-.069-.04c0-.03.1-.089.1-.089,0-.02-.157-.112-.157-.112,0-.029.083-.077.083-.077a.045.045,0,0,1,.05,0l.159.091a1.531,1.531,0,0,0,.233-.115.049.049,0,0,1,.053,0l.068.04c0,.03-.2.143-.2.143,0,.021.529.328.529.328a.3.3,0,0,0,.319,0l.072-.042a.052.052,0,0,1,.054,0l.068.039c0,.03-.093.082-.093.082a.559.559,0,0,1-.274.076.52.52,0,0,1-.274-.071l-.538-.31A.032.032,0,0,0,67.867,31.548Z"/><path class="cls-29" d="M69.652,31.469l-.1.055a.538.538,0,0,1-.273.074.525.525,0,0,1-.274-.074l-.395-.228c-.087-.05-.129-.1-.129-.158s.044-.109.129-.158l.4-.231a.047.047,0,0,1,.051,0l.89.514c0,.03-.083.078-.083.078a.047.047,0,0,1-.051,0L69.75,31.3C69.777,31.359,69.746,31.414,69.652,31.469Zm-.093-.28-.519-.3a2.389,2.389,0,0,0-.293.15c-.1.059-.1.12.007.181l.384.222a.3.3,0,0,0,.314,0l.105-.061c.056-.032.083-.065.083-.1S69.614,31.221,69.559,31.189Z"/><path class="cls-29" d="M69.149,30.492l-.173-.1c0-.029.083-.078.083-.078a.049.049,0,0,1,.052,0l.173.1c0,.03-.085.079-.085.079A.047.047,0,0,1,69.149,30.492Zm1.072.618L69.33,30.6c0-.028.084-.077.084-.077a.049.049,0,0,1,.051,0l.891.515c0,.029-.083.077-.083.077A.049.049,0,0,1,70.221,31.11Z"/><path class="cls-29" d="M70.763,30.827l-.083.048a.047.047,0,0,1-.051,0l-1.247-.72c0-.03.083-.078.083-.078a.049.049,0,0,1,.052,0l1.247.72C70.781,30.807,70.781,30.817,70.763,30.827Z"/><path class="cls-29" d="M71.373,30.475l-.329.19a.047.047,0,0,1-.051,0l-.065-.038a2.114,2.114,0,0,1,.312-.208c.1-.055.108-.1.037-.144a.324.324,0,0,0-.264-.044l-.31.072a.726.726,0,0,1-.227.025.4.4,0,0,1-.18-.057q-.227-.13.022-.275l.3-.175a.049.049,0,0,1,.052,0l.065.037a1.676,1.676,0,0,1-.281.19c-.044.026-.069.051-.073.074a.054.054,0,0,0,.031.058.307.307,0,0,0,.254.025l.316-.069a.569.569,0,0,1,.228-.019.575.575,0,0,1,.2.078Q71.637,30.323,71.373,30.475Z"/><polygon class="cls-31" points="34.313 19.112 13.455 31.155 12.056 30.347 32.914 18.304 34.313 19.112"/><path class="cls-28" d="M22.468.947A12,12,0,0,0,20.433,0c.034.067.079.156.112.223-.435,0-.669,0-1.088.015.078.16.16.319.24.478-.436,0-.67,0-1.089.015.083.158.165.316.244.476-.435,0-.669,0-1.088.015.079.16.161.318.24.478-.421,0-.626,0-1.085.013.079.16.161.318.241.477-.436,0-.67,0-1.089.016.083.157.165.316.244.475-.435,0-.669,0-1.088.015.079.16.161.319.24.478-.436,0-.67,0-1.089.015.083.158.165.316.244.476-.435,0-.669,0-1.088.015.083.158.165.316.244.476-.435,0-.669,0-1.088.015.078.16.16.318.24.478-.436,0-.67,0-1.089.015.083.157.165.316.244.475-.435,0-.669,0-1.088.016.079.16.161.318.24.477-.421,0-.626,0-1.085.013.079.16.161.319.241.478-.436,0-.67,0-1.089.015.083.158.165.316.244.476-.435,0-.669,0-1.088.015.079.16.161.318.24.478-.436,0-.67,0-1.089.015.083.158.165.316.244.475-.435,0-.669,0-1.088.016.08.159.164.316.244.475-.435,0-.669,0-1.088.015.079.16.16.319.24.478-.436,0-.67,0-1.089.015.083.158.165.316.245.476-.436,0-.67,0-1.089.015.079.16.161.318.24.478-.421,0-.626,0-1.084.013.078.16.16.318.24.478-.436,0-.67,0-1.089.015.083.157.165.316.244.475-.435,0-.669,0-1.088.015.079.16.161.319.24.478-.435,0-.669,0-1.088.015.082.158.164.316.244.476-.435,0-.669,0-1.089.015.046.1.113.221.162.316a12.1,12.1,0,0,1,1.95.916c5.649,3.261,10.226,11.189,10.207,17.68l1.166.683L32.676,20.057v-1.43C32.694,12.136,28.117,4.208,22.468.947Z"/><path class="cls-32" d="M8.115,13.505l-.4.232c.451.451,1.037,1.068,1.464,1.541l.4-.231c-.428-.473-1.014-1.09-1.465-1.542Z"/><path class="cls-32" d="M8.908,13.045l-.4.231c.451.451,1.037,1.068,1.464,1.542l.4-.232c-.428-.473-1.014-1.09-1.465-1.541Z"/><path class="cls-32" d="M9.35,12.788l-.094.055c.45.451,1.036,1.068,1.464,1.541l.095-.055c-.428-.473-1.014-1.09-1.465-1.541Z"/><path class="cls-32" d="M9.749,12.556l-.1.055c.451.451,1.037,1.068,1.464,1.542l.095-.055c-.428-.473-1.013-1.091-1.464-1.542Z"/><path class="cls-32" d="M10.475,12.134l-.4.234c.451.451,1.037,1.068,1.465,1.542l.4-.234c-.428-.473-1.013-1.091-1.464-1.542Z"/><path class="cls-32" d="M11.268,11.673l-.4.234c.45.451,1.036,1.068,1.464,1.542l.4-.234c-.427-.473-1.013-1.091-1.464-1.542Z"/><path class="cls-32" d="M12.057,11.215l-.4.231c.45.452,1.036,1.068,1.464,1.542l.4-.232c-.427-.473-1.013-1.09-1.464-1.541Z"/><path class="cls-32" d="M12.523,10.944l-.15.087c.451.452,1.037,1.068,1.464,1.542l.15-.087c-.428-.474-1.013-1.091-1.464-1.542Z"/><path class="cls-32" d="M13.482,10.387l-.569.33c.451.451,1.037,1.068,1.465,1.542l.568-.331c-.428-.473-1.014-1.09-1.464-1.541Z"/><path class="cls-32" d="M14.251,9.94l-.359.208c.451.452,1.037,1.069,1.464,1.542l.359-.209c-.428-.473-1.013-1.09-1.464-1.541Z"/><path class="cls-32" d="M14.74,9.655l-.1.058c.45.451,1.036,1.068,1.464,1.541l.1-.057c-.428-.473-1.014-1.09-1.465-1.542Z"/><path class="cls-32" d="M15.525,9.2l-.4.234c.451.451,1.037,1.068,1.464,1.541l.4-.233c-.428-.474-1.014-1.091-1.465-1.542Z"/><path class="cls-32" d="M16.319,8.738l-.4.234c.451.451,1.037,1.068,1.464,1.542l.4-.234c-.428-.473-1.014-1.091-1.464-1.542Z"/><path class="cls-32" d="M16.76,8.481l-.1.058c.45.451,1.036,1.068,1.464,1.541l.1-.057c-.428-.473-1.014-1.09-1.465-1.542Z"/><path class="cls-32" d="M17.155,8.252l-.1.055c.451.451,1.037,1.068,1.465,1.542l.094-.055c-.427-.473-1.013-1.091-1.464-1.542Z"/><path class="cls-32" d="M17.881,7.83l-.4.234c.45.451,1.036,1.068,1.464,1.542l.4-.234c-.427-.473-1.013-1.091-1.464-1.542Z"/><path class="cls-32" d="M18.674,7.369l-.4.234c.45.451,1.036,1.068,1.464,1.542l.4-.234c-.428-.473-1.014-1.091-1.465-1.542Z"/><path class="cls-32" d="M19.467,6.908l-.4.234c.45.452,1.036,1.069,1.464,1.542l.4-.234c-.427-.473-1.013-1.09-1.464-1.542Z"/><path class="cls-32" d="M19.929,6.64l-.15.087c.451.452,1.037,1.068,1.464,1.542l.15-.087c-.428-.474-1.013-1.091-1.464-1.542Z"/><path class="cls-32" d="M20.888,6.083l-.568.33c.45.451,1.036,1.068,1.464,1.542l.568-.331c-.428-.473-1.013-1.09-1.464-1.541Z"/><path class="cls-32" d="M22.308,5.257,21.3,5.842c.451.452,1.037,1.068,1.464,1.542L23.773,6.8c-.428-.473-1.014-1.09-1.465-1.542Z"/><path class="cls-32" d="M22.8,4.973l-.1.057c.45.452,1.036,1.069,1.464,1.542l.1-.057c-.428-.474-1.014-1.091-1.465-1.542Z"/><path class="cls-32" d="M27.784,6.9l.079.111L8.441,18.3l-.079-.111L27.784,6.9Z"/><path class="cls-32" d="M30.877,12.741l.048.13C24.311,16.714,18.115,20.317,11.5,24.16l-.047-.131L30.877,12.741Z"/><path class="cls-32" d="M6.311,11.093h.082a.523.523,0,0,1,.18.184.664.664,0,0,1,.05-.138c.039-.072.039-.072.139-.086L6.9,11.1l.022.055a.556.556,0,0,1-.293.189,1.046,1.046,0,0,1,.3-.038c.116.006.116.006.175.06l-.031.1-.07.031a.871.871,0,0,1-.4-.145.687.687,0,0,1-.328.2l-.08-.025-.071-.087.028-.05a1.187,1.187,0,0,1,.439-.036c-.107-.023-.157-.037-.157-.037L6.379,11.3l-.054-.022-.111-.053c-.023-.015-.013-.067-.013-.067l.11-.065Z"/><path class="cls-32" d="M6.606,11.349c-.089.208-.089.208-.076.286l.072.035.155-.006.055-.043a.492.492,0,0,0-.206-.272Z"/><path class="cls-32" d="M7.987,10.547a.427.427,0,0,1,.207.272l-.056.042-.151,0-.072-.036a.283.283,0,0,1,.014-.178Z"/><path class="cls-32" d="M7.7,10.289h.082a.446.446,0,0,1,.176.187.77.77,0,0,1,.054-.141c.04-.072.04-.072.139-.086l.134.051.026.052a.558.558,0,0,1-.293.189c.357-.09.449-.006.479.022l-.035.1-.071.032a.894.894,0,0,1-.4-.145.678.678,0,0,1-.324.2l-.084-.022-.067-.09.028-.05a1.265,1.265,0,0,1,.439-.036l-.162-.035L7.764,10.5l-.058-.019L7.6,10.42c-.023-.015-.017-.065-.017-.065l.114-.067Z"/><path class="cls-32" d="M9.372,9.742a.422.422,0,0,1,.206.272l-.055.042-.155.007L9.3,10.025c-.017-.067-.015-.071.014-.178Z"/><path class="cls-32" d="M9.077,9.486l.085,0a.489.489,0,0,1,.177.187.433.433,0,0,1,.052-.14c.039-.071.039-.071.141-.087l.134.051.026.052a.563.563,0,0,1-.293.19A1.044,1.044,0,0,1,9.727,9.7c.095.005.095.005.147.06l-.031.1-.07.032a.894.894,0,0,1-.4-.145.7.7,0,0,1-.328.2l-.08-.025L8.9,9.827l.028-.05a1.265,1.265,0,0,1,.439-.036L9.253,9.72,9.2,9.706,9.149,9.69l-.058-.019-.107-.056c-.023-.015-.017-.065-.017-.065l.11-.064Z"/><path class="cls-32" d="M16.507,5.168h.081a.51.51,0,0,1,.181.184.668.668,0,0,1,.05-.139c.039-.071.039-.071.139-.085l.138.048.022.055a.558.558,0,0,1-.293.189c.357-.09.449-.006.479.022l-.031.1-.071.031a.852.852,0,0,1-.4-.143.689.689,0,0,1-.324.2L16.393,5.6l-.07-.088.028-.049a1.185,1.185,0,0,1,.439-.036c-.108-.024-.158-.038-.158-.038l-.057-.014-.054-.021L16.41,5.3c-.023-.015-.014-.068-.014-.068l.111-.064Z"/><path class="cls-32" d="M16.8,5.426c-.086.206-.086.206-.072.283l.072.036.155-.007L17,5.7a.442.442,0,0,0-.206-.273Z"/><path class="cls-32" d="M18.183,4.621a.426.426,0,0,1,.206.273l-.055.042-.151,0-.072-.036c-.017-.067-.015-.071.014-.178Z"/><path class="cls-32" d="M17.892,4.363h.081a.441.441,0,0,1,.177.186.417.417,0,0,1,.054-.14c.039-.072.039-.072.139-.086l.134.051.026.052a.558.558,0,0,1-.293.189,1.067,1.067,0,0,1,.329-.036c.093,0,.093,0,.146.06l-.031.1-.071.031a.871.871,0,0,1-.4-.145.676.676,0,0,1-.324.2L17.774,4.8l-.067-.09.029-.05a1.242,1.242,0,0,1,.439-.036l-.162-.035L17.96,4.57,17.9,4.551,17.8,4.5c-.023-.015-.018-.065-.018-.065l.115-.067Z"/><path class="cls-32" d="M19.568,3.817a.422.422,0,0,1,.206.272l-.055.042-.155.007L19.492,4.1a.285.285,0,0,1,.018-.18Z"/><path class="cls-32" d="M19.273,3.561l.085,0a.521.521,0,0,1,.177.187.415.415,0,0,1,.052-.14c.039-.071.039-.071.141-.087l.134.051.026.052a.583.583,0,0,1-.3.192,1.064,1.064,0,0,1,.3-.039c.122.006.122.006.174.06l-.031.1-.071.032a.894.894,0,0,1-.4-.145.7.7,0,0,1-.328.2l-.081-.025-.067-.09.029-.05a2.394,2.394,0,0,1,.439-.036c-.112-.021-.162-.035-.162-.035l-.053-.016-.058-.019L19.18,3.69c-.023-.015-.018-.065-.018-.065l.111-.064Z"/><path class="cls-32" d="M14.912,5.354A15.341,15.341,0,0,1,16.727,6.59L11.159,9.825A15.521,15.521,0,0,0,9.345,8.59l5.567-3.236Z"/><path class="cls-32" d="M31.918,18.961l-.012-.571L29.9,19.557l.012.571Z"/><path class="cls-32" d="M18.7,26.623l-.013-.578-5.881,3.418.012.578Z"/><path class="cls-32" d="M14.476,26.17l-1.833,1.066.047.27,1.833-1.066-.047-.27Z"/><path class="cls-32" d="M18.387,23.9,16.351,25.08l-1.646.957.047.27,3.681-2.14-.046-.27Z"/><path class="cls-32" d="M20.213,22.836l-1.6.928.047.27,1.6-.928-.047-.27Z"/><path class="cls-32" d="M21.725,21.957l-1.287.748.047.27c.386-.224.9-.523,1.286-.748l-.047-.27Z"/><path class="cls-32" d="M24.5,20.345l-2.545,1.479.047.27c.611-.354,1.425-.828,2.036-1.183l.509-.3-.047-.27Z"/><path class="cls-32" d="M17.936,22.963l-5.554,3.229.062.267L18,23.23l-.062-.267Z"/><path class="cls-32" d="M21.045,21.156,18.164,22.83l.063.267,2.88-1.674-.062-.267Z"/><path class="cls-32" d="M23.673,19.629l-2.4,1.4.062.266c.611-.354,1.425-.828,2.036-1.183l.367-.213-.062-.267Z"/><path class="cls-32" d="M25.184,18.751,23.9,19.5l.063.267,1.283-.745-.063-.267Z"/><path class="cls-32" d="M14.934,23.465,12.09,25.118l.08.272,2.843-1.653-.079-.272Z"/><path class="cls-32" d="M18.844,21.192l-3.685,2.142.079.272,2.036-1.183,1.649-.959-.079-.272Z"/><path class="cls-32" d="M20.671,20.131c-.481.279-1.122.651-1.6.931l.079.272,1.6-.931-.079-.272Z"/><path class="cls-32" d="M22.182,19.252,20.9,20l.079.272,1.287-.748-.08-.272Z"/><path class="cls-32" d="M25.307,17.436l-2.9,1.686.079.272,2.9-1.686-.08-.272Z"/><path class="cls-32" d="M14.92,20.124l-3.861,2.245.115.262,3.862-2.245-.116-.262Z"/><path class="cls-32" d="M18.026,18.319,15.99,19.5l-.845.491.116.262L17.3,19.072l.845-.491-.115-.262Z"/><path class="cls-32" d="M20.653,16.792l-2.4,1.4.115.263,2.4-1.4-.116-.262Z"/><path class="cls-32" d="M23.522,15.125l-2.64,1.534.116.262q1.32-.767,2.639-1.534l-.115-.262Z"/><path class="cls-32" d="M14.629,18.96,10.55,21.331l.131.263,4.079-2.371-.131-.263Z"/><path class="cls-32" d="M16.452,17.9l-1.6.928.13.263,1.6-.929-.13-.262Z"/><path class="cls-32" d="M17.967,17.02l-1.287.748.131.262,1.287-.747-.131-.263Z"/><path class="cls-32" d="M21.092,15.2l-2.9,1.685.131.263,2.9-1.685-.131-.263Z"/><path class="cls-32" d="M23.988,13.521l-2.671,1.552.131.263,2.671-1.552-.131-.263Z"/><path class="cls-32" d="M13.859,18.071,10.025,20.3l.144.257L14,18.328l-.143-.257Z"/><path class="cls-32" d="M16.964,16.266l-2.88,1.674.143.257,2.881-1.674-.144-.257Z"/><path class="cls-32" d="M19.6,14.737l-2.407,1.4.144.258,2.406-1.4-.143-.257Z"/><path class="cls-32" d="M21.108,13.858l-1.287.748.143.257,1.287-.747-.143-.258Z"/><path class="cls-32" d="M23.159,12.666l-1.827,1.062.143.257L23.3,12.923l-.143-.257Z"/><path class="cls-32" d="M10.553,18.654c-.4.234-.692.4-1.1.637l.152.246c.4-.234.691-.4,1.1-.637l-.152-.246Z"/><path class="cls-32" d="M14.463,16.381l-3.681,2.14.152.246,3.681-2.14-.152-.246Z"/><path class="cls-32" d="M16.29,15.32l-1.6.928.152.246,1.6-.928-.152-.246Z"/><path class="cls-32" d="M17.8,14.442l-1.286.747.152.246,1.286-.748-.152-.245Z"/><path class="cls-32" d="M20.926,12.625l-2.9,1.684.152.245,2.9-1.683-.152-.246Z"/><path class="cls-32" d="M22.753,11.564l-1.6.928.152.246,1.6-.928-.152-.246Z"/></g></g></g></svg>