<svg xmlns="http://www.w3.org/2000/svg" xmlns:xlink="http://www.w3.org/1999/xlink" viewBox="0 0 152.933 98.042"><defs><style>.cls-1{fill:none;}.cls-2{isolation:isolate;}.cls-3{fill:#50197c;opacity:0.4;}.cls-17,.cls-3,.cls-30{mix-blend-mode:multiply;}.cls-4{fill:url(#_ÂÁ_Ï_ÌÌ_È_ËÂÌÚ_813);}.cls-5{fill:#e0dbe1;}.cls-6{fill:url(#_ÂÁ_Ï_ÌÌ_È_ËÂÌÚ_814);}.cls-7{fill:#c0b9c8;}.cls-8{fill:url(#_ÂÁ_Ï_ÌÌ_È_ËÂÌÚ_810);}.cls-9{fill:url(#_ÂÁ_Ï_ÌÌ_È_ËÂÌÚ_813-2);}.cls-10{fill:url(#_ÂÁ_Ï_ÌÌ_È_ËÂÌÚ_95);}.cls-11{fill:#5917ff;}.cls-12{fill:url(#_ÂÁ_Ï_ÌÌ_È_ËÂÌÚ_810-2);}.cls-13{fill:url(#_ÂÁ_Ï_ÌÌ_È_ËÂÌÚ_5);}.cls-14{fill:#fffefb;}.cls-15,.cls-20{fill:#cfe9ff;}.cls-15,.cls-16{opacity:0.7;}.cls-16,.cls-23,.cls-40{fill:#95acf4;}.cls-17{fill:#832df1;opacity:0.5;}.cls-18{fill:#788eff;}.cls-19{fill:#fff;}.cls-21,.cls-30{fill:#cfcad4;}.cls-22{fill:#f0f2ff;}.cls-23{opacity:0.8;}.cls-24{fill:#291b2a;}.cls-25{clip-path:url(#clip-path);}.cls-26{fill:url(#_ÂÁ_Ï_ÌÌ_È_ËÂÌÚ_306);}.cls-27{fill:#dad7d7;}.cls-28{fill:#f8f5f4;}.cls-29{fill:#f3f0f0;}.cls-31{clip-path:url(#clip-path-2);}.cls-32{fill:url(#_ÂÁ_Ï_ÌÌ_È_ËÂÌÚ_866);}.cls-33{fill:#8a31c9;}.cls-34{fill:#ffc440;}.cls-35{opacity:0.6;}.cls-36{fill:#d88c1d;}.cls-37{fill:#9b2c2c;}.cls-38{fill:#ffd85a;}.cls-39{fill:#b3d7ff;}</style><linearGradient id="_ÂÁ_Ï_ÌÌ_È_ËÂÌÚ_813" x1="68.02" y1="73.224" x2="88.853" y2="73.224" gradientUnits="userSpaceOnUse"><stop offset="0" stop-color="#f8f6fa"/><stop offset="1" stop-color="#fbf8fc"/></linearGradient><linearGradient id="_ÂÁ_Ï_ÌÌ_È_ËÂÌÚ_814" x1="76.347" y1="65.248" x2="78.675" y2="69.28" gradientUnits="userSpaceOnUse"><stop offset="0" stop-color="#cfcad5"/><stop offset="1" stop-color="#eae7ed"/></linearGradient><linearGradient id="_ÂÁ_Ï_ÌÌ_È_ËÂÌÚ_810" x1="85.432" y1="54.841" x2="70.1" y2="54.841" gradientUnits="userSpaceOnUse"><stop offset="0" stop-color="#e0dbe1"/><stop offset="1" stop-color="#e0dbe1"/></linearGradient><linearGradient id="_ÂÁ_Ï_ÌÌ_È_ËÂÌÚ_813-2" x1="45.908" y1="17.989" x2="108.216" y2="17.989" xlink:href="#_ÂÁ_Ï_ÌÌ_È_ËÂÌÚ_813"/><linearGradient id="_ÂÁ_Ï_ÌÌ_È_ËÂÌÚ_95" x1="63.825" y1="26.824" x2="91.173" y2="50.122" gradientUnits="userSpaceOnUse"><stop offset="0" stop-color="#5917ff"/><stop offset="0.159" stop-color="#6d22f8"/><stop offset="0.485" stop-color="#a13de7"/><stop offset="0.946" stop-color="#f569ca"/><stop offset="1" stop-color="#ff6ec7"/></linearGradient><linearGradient id="_ÂÁ_Ï_ÌÌ_È_ËÂÌÚ_810-2" x1="81.243" y1="86.642" x2="79.052" y2="86.642" xlink:href="#_ÂÁ_Ï_ÌÌ_È_ËÂÌÚ_810"/><linearGradient id="_ÂÁ_Ï_ÌÌ_È_ËÂÌÚ_5" x1="67.113" y1="82.617" x2="118.316" y2="82.617" gradientUnits="userSpaceOnUse"><stop offset="0" stop-color="#f8f6fa"/><stop offset="1" stop-color="#faf8fc"/></linearGradient><clipPath id="clip-path"><polygon class="cls-1" points="96.268 38.179 109.61 30.477 152.933 60.856 130.966 75.306 104.448 70.933 96.268 39.418 96.268 38.179"/></clipPath><linearGradient id="_ÂÁ_Ï_ÌÌ_È_ËÂÌÚ_306" x1="103.953" y1="39.036" x2="106.248" y2="43.011" gradientUnits="userSpaceOnUse"><stop offset="0.502" stop-color="#f8f5f4"/><stop offset="1" stop-color="#e8e5e5"/></linearGradient><clipPath id="clip-path-2"><polygon class="cls-1" points="96.268 29.221 109.61 21.518 127.973 33.372 114.632 41.075 96.268 30.46 96.268 29.221"/></clipPath><linearGradient id="_ÂÁ_Ï_ÌÌ_È_ËÂÌÚ_866" x1="95.702" y1="26.307" x2="120.658" y2="33.004" gradientUnits="userSpaceOnUse"><stop offset="0" stop-color="#8c32ee"/><stop offset="0.191" stop-color="#9c3de6"/><stop offset="0.566" stop-color="#c75ad2"/><stop offset="1" stop-color="#ff80b7"/></linearGradient></defs><g class="cls-2"><g id="_0" data-name="0"><g id="_2" data-name="2"><path class="cls-3" d="M98.192,55.384l-43.048.049L0,87.271l2.233.6H41.927L61.44,76.6l1.088-.255a7.292,7.292,0,0,1,5.306.784L72.9,80.056a.786.786,0,0,0,.4.106h.911l1.753-4.429-2.053-6.326Z"/><path class="cls-3" d="M80.4,97.921a.777.777,0,0,1-.365.106,4.675,4.675,0,0,1-1.415-.075L66.589,91.007a.357.357,0,0,1,0-.676L104.105,68.67a2.2,2.2,0,0,1,1.981,0l12.029,6.945C118.426,75.8,83.114,96.341,80.4,97.921Z"/><g class="cls-2"><polygon class="cls-4" points="82.709 67.188 68.02 75.714 74.164 79.261 88.853 70.735 82.709 67.188"/><path class="cls-5" d="M88.936,70.843a.307.307,0,0,0-.046-.076c-.037-.032-14.726,8.494-14.726,8.494a.31.31,0,0,1,.083.108c.1.23.093.711-.021.778L88.915,71.62C89.029,71.554,89.036,71.073,88.936,70.843Z"/><path class="cls-6" d="M81.518,65.774a2.036,2.036,0,0,1-.132-1.623l3.994-8.836L70.691,63.841,66.7,72.677a2.03,2.03,0,0,0,.13,1.618,3.508,3.508,0,0,0,.561.89,2.561,2.561,0,0,0,.632.529l14.689-8.526a2.566,2.566,0,0,1-.632-.53A3.5,3.5,0,0,1,81.518,65.774Z"/><path class="cls-7" d="M74.164,79.261,68.02,75.714A3.054,3.054,0,0,1,66.829,74.3a2.038,2.038,0,0,1-.132-1.624l3.994-8.836.028-.157.024-8.6a.816.816,0,0,0-.382-.663c-.206-.119-.371-.025-.372.227l-.024,8.524-3.98,8.766a3.253,3.253,0,0,0,.212,2.49A4.692,4.692,0,0,0,68.018,76.6l6.144,3.548C74.367,80.262,74.37,79.38,74.164,79.261Z"/><path class="cls-8" d="M85.366,46.26a.854.854,0,0,0-.141-.222.713.713,0,0,0-.175-.147.258.258,0,0,0-.261-.026L70.1,54.391a.259.259,0,0,1,.261.027.709.709,0,0,1,.175.146.889.889,0,0,1,.141.222.73.73,0,0,1,.066.3l-.024,8.6-.028.157L85.38,55.315l.028-.158.024-8.6A.722.722,0,0,0,85.366,46.26Z"/></g><g id="_1" data-name="1"><polygon class="cls-7" points="47.101 81.907 45.926 81.224 45.908 35.295 47.083 35.978 47.101 81.907"/><polygon class="cls-9" points="47.083 35.978 45.908 35.295 107.041 0 108.216 0.683 47.083 35.978"/><polygon class="cls-5" points="108.216 0.683 108.234 46.612 47.101 81.907 47.083 35.978 108.216 0.683"/><polygon class="cls-10" points="47.351 36.191 107.939 1.211 107.93 40.997 47.342 75.977 47.351 36.191"/></g><path class="cls-11" d="M81.662,59.49l-2.154,1.244c-.3.171-.536.07-.536-.226a1.113,1.113,0,0,1,.536-.846l2.154-1.244c.3-.17.536-.069.536.227A1.11,1.11,0,0,1,81.662,59.49Z"/><path class="cls-12" d="M67.113,89.958v.64a.411.411,0,0,0,.243.339l12.028,6.945a1.3,1.3,0,0,0,1.173,0l37.516-21.661a.411.411,0,0,0,.243-.338v-.621Z"/><path class="cls-13" d="M118.073,75.6,80.557,97.258a1.3,1.3,0,0,1-1.173,0L67.356,90.313a.357.357,0,0,1,0-.676l37.516-21.661a1.294,1.294,0,0,1,1.172,0l12.029,6.945A.357.357,0,0,1,118.073,75.6Z"/><path class="cls-5" d="M99.547,72.384a.119.119,0,0,1,0-.053.114.114,0,0,1,0-.052.171.171,0,0,1,.1-.183l1.541-.89a.6.6,0,0,1,.542,0l1.3.748a.172.172,0,0,1,.1.183.119.119,0,0,1,0,.053.119.119,0,0,1,0,.053.17.17,0,0,1-.1.182l-1.541.89a.6.6,0,0,1-.542,0l-1.3-.748A.171.171,0,0,1,99.547,72.384Zm2.591-1.253,1.3.748a.6.6,0,0,0,.542,0l1.541-.89a.169.169,0,0,0,.1-.183.114.114,0,0,0,0-.052.119.119,0,0,0,0-.053.17.17,0,0,0-.1-.183l-1.3-.748a.6.6,0,0,0-.542,0l-1.54.89a.172.172,0,0,0-.1.183.114.114,0,0,0,0,.052.119.119,0,0,0,0,.053A.172.172,0,0,0,102.138,71.131ZM97.163,74l1.3.748a.6.6,0,0,0,.542,0l1.541-.89a.171.171,0,0,0,.1-.182.157.157,0,0,0,0-.053.157.157,0,0,0,0-.053.171.171,0,0,0-.1-.182l-1.3-.748a.6.6,0,0,0-.542,0l-1.54.889a.172.172,0,0,0-.1.183.157.157,0,0,0,0,.053.151.151,0,0,0,0,.052A.172.172,0,0,0,97.163,74ZM77.111,90.784l1.3.748a.6.6,0,0,0,.542,0l1.541-.889a.171.171,0,0,0,.1-.183.119.119,0,0,0,0-.053.114.114,0,0,0,0-.052.171.171,0,0,0-.1-.183l-1.3-.748a.6.6,0,0,0-.542,0l-1.541.889a.171.171,0,0,0-.1.183.119.119,0,0,0,0,.053.114.114,0,0,0,0,.052A.171.171,0,0,0,77.111,90.784Zm5.43-8.354,1.3.748a.6.6,0,0,0,.542,0l1.54-.889a.173.173,0,0,0,.1-.183.157.157,0,0,0,0-.053.151.151,0,0,0,0-.052.172.172,0,0,0-.1-.183l-1.3-.748a.6.6,0,0,0-.542,0l-1.541.889a.172.172,0,0,0-.1.183.157.157,0,0,0,0,.053.151.151,0,0,0,0,.052A.172.172,0,0,0,82.541,82.43Zm4.975-2.872,1.3.748a.6.6,0,0,0,.542,0l1.541-.89a.172.172,0,0,0,.1-.183.151.151,0,0,0,0-.052.157.157,0,0,0,0-.053.172.172,0,0,0-.1-.183L89.6,78.2a.6.6,0,0,0-.542,0l-1.54.89a.172.172,0,0,0-.1.183.151.151,0,0,0,0,.052.157.157,0,0,0,0,.053A.172.172,0,0,0,87.516,79.558Zm4.975-2.873,1.3.748a.6.6,0,0,0,.542,0l2.343-1.352a.17.17,0,0,0,.1-.183.114.114,0,0,0,0-.052.119.119,0,0,0,0-.053.17.17,0,0,0-.1-.183l-1.3-.748a.6.6,0,0,0-.542,0l-2.342,1.353a.17.17,0,0,0-.1.182.119.119,0,0,0,0,.053.119.119,0,0,0,0,.053A.17.17,0,0,0,92.491,76.685ZM90,78.122l1.3.748a.6.6,0,0,0,.542,0l1.541-.89a.171.171,0,0,0,.1-.183.114.114,0,0,0,0-.052.119.119,0,0,0,0-.053.171.171,0,0,0-.1-.183l-1.3-.748a.6.6,0,0,0-.542,0L90,77.651a.169.169,0,0,0-.1.183.114.114,0,0,0,0,.052.119.119,0,0,0,0,.053A.17.17,0,0,0,90,78.122Zm-4.975,2.872,1.3.748a.6.6,0,0,0,.542,0l1.541-.89a.17.17,0,0,0,.1-.182.119.119,0,0,0,0-.053.119.119,0,0,0,0-.053.172.172,0,0,0-.1-.183l-1.3-.748a.6.6,0,0,0-.542,0l-1.541.89a.171.171,0,0,0-.1.183.114.114,0,0,0,0,.052.119.119,0,0,0,0,.053A.171.171,0,0,0,85.028,80.994Zm10.581-3.473,1.3.749a.6.6,0,0,0,.542,0l1.54-.89a.171.171,0,0,0,.1-.183.114.114,0,0,0,0-.052.119.119,0,0,0,0-.053.171.171,0,0,0-.1-.183l-1.3-.748a.6.6,0,0,0-.542,0l-1.541.89a.169.169,0,0,0-.1.182.119.119,0,0,0,0,.053.119.119,0,0,0,0,.053A.169.169,0,0,0,95.609,77.521ZM75.71,89.01l1.3.748a.6.6,0,0,0,.542,0l1.541-.889a.172.172,0,0,0,.1-.183.157.157,0,0,0,0-.053.151.151,0,0,0,0-.052.172.172,0,0,0-.1-.183l-1.3-.748a.6.6,0,0,0-.542,0l-1.54.89a.171.171,0,0,0-.1.182.157.157,0,0,0,0,.053.157.157,0,0,0,0,.053A.171.171,0,0,0,75.71,89.01ZM93.122,78.958l1.3.748a.6.6,0,0,0,.542,0l1.541-.89a.17.17,0,0,0,.1-.183.114.114,0,0,0,0-.052.119.119,0,0,0,0-.053.17.17,0,0,0-.1-.183L95.2,77.6a.6.6,0,0,0-.542,0l-1.54.89a.171.171,0,0,0-.1.182.157.157,0,0,0,0,.053.157.157,0,0,0,0,.053A.172.172,0,0,0,93.122,78.958Zm-2.488,1.436,1.3.748a.6.6,0,0,0,.542,0l1.541-.89a.171.171,0,0,0,.1-.183.114.114,0,0,0,0-.052.119.119,0,0,0,0-.053.171.171,0,0,0-.1-.183l-1.3-.748a.6.6,0,0,0-.542,0l-1.541.89a.171.171,0,0,0-.1.183.114.114,0,0,0,0,.052.119.119,0,0,0,0,.053A.171.171,0,0,0,90.634,80.394ZM88.147,81.83l1.295.748a.6.6,0,0,0,.543,0l1.54-.89a.172.172,0,0,0,.1-.183.151.151,0,0,0,0-.052.157.157,0,0,0,0-.053.171.171,0,0,0-.1-.182l-1.3-.749a.6.6,0,0,0-.542,0l-1.541.89a.172.172,0,0,0-.1.183.151.151,0,0,0,0,.052.157.157,0,0,0,0,.053A.172.172,0,0,0,88.147,81.83ZM78.2,87.574l1.3.748a.6.6,0,0,0,.542,0l1.541-.889a.171.171,0,0,0,.1-.183.119.119,0,0,0,0-.053.114.114,0,0,0,0-.052.171.171,0,0,0-.1-.183l-1.3-.748a.6.6,0,0,0-.542,0L78.2,87.1a.169.169,0,0,0-.1.182.119.119,0,0,0,0,.053.119.119,0,0,0,0,.053A.169.169,0,0,0,78.2,87.574Zm2.488-1.436,1.3.748a.6.6,0,0,0,.542,0L84.063,86a.17.17,0,0,0,.1-.183.119.119,0,0,0,0-.053.114.114,0,0,0,0-.052.17.17,0,0,0-.1-.183c-1.906-1.1-1.262-1.08-3.378.141a.171.171,0,0,0-.1.183.119.119,0,0,0,0,.053.114.114,0,0,0,0,.052A.17.17,0,0,0,80.685,86.138ZM83.172,84.7l1.3.748a.6.6,0,0,0,.542,0l1.54-.889a.172.172,0,0,0,.1-.183.119.119,0,0,0,0-.053.114.114,0,0,0,0-.052.172.172,0,0,0-.1-.183l-1.3-.748a.6.6,0,0,0-.542,0l-1.541.889a.17.17,0,0,0-.1.183.119.119,0,0,0,0,.053.114.114,0,0,0,0,.052A.17.17,0,0,0,83.172,84.7Zm2.487-1.436c1.272.734,1.493.947,1.838.748l1.541-.89a.17.17,0,0,0,.1-.182.119.119,0,0,0,0-.053.119.119,0,0,0,0-.053.17.17,0,0,0-.1-.182l-1.3-.748a.6.6,0,0,0-.542,0l-1.541.889a.171.171,0,0,0-.1.183.119.119,0,0,0,0,.053.114.114,0,0,0,0,.052A.171.171,0,0,0,85.659,83.266Zm-4.435,9.466a.119.119,0,0,0,0-.053.114.114,0,0,0,0-.052.171.171,0,0,0-.1-.183l-1.3-.748a.6.6,0,0,0-.542,0L76.94,93.048a.171.171,0,0,0-.1.183.119.119,0,0,0,0,.053.114.114,0,0,0,0,.052.171.171,0,0,0,.1.183l1.3.748a.6.6,0,0,0,.542,0l2.343-1.352A.171.171,0,0,0,81.224,92.732ZM78.106,91.9a.157.157,0,0,0,0-.053.151.151,0,0,0,0-.052.172.172,0,0,0-.1-.183l-1.3-.748a.6.6,0,0,0-.542,0l-1.541.89a.171.171,0,0,0-.1.182.157.157,0,0,0,0,.053.157.157,0,0,0,0,.053.171.171,0,0,0,.1.182l1.3.748a.6.6,0,0,0,.543,0L78,92.079A.172.172,0,0,0,78.106,91.9Zm1.947-8.03c1.868,1.078,1.222,1.1,3.379-.141a.17.17,0,0,0,.1-.183.119.119,0,0,0,0-.053.114.114,0,0,0,0-.052.169.169,0,0,0-.1-.183l-1.3-.748a.6.6,0,0,0-.542,0l-1.541.889a.171.171,0,0,0-.1.183.119.119,0,0,0,0,.053.114.114,0,0,0,0,.052A.171.171,0,0,0,80.053,83.866Zm27.4-6.256a.119.119,0,0,0,0-.053.114.114,0,0,0,0-.052.169.169,0,0,0-.1-.183l-1.3-.748a.6.6,0,0,0-.542,0l-1.54.889a.171.171,0,0,0-.1.183.119.119,0,0,0,0,.053.114.114,0,0,0,0,.052.171.171,0,0,0,.1.183l1.3.748a.6.6,0,0,0,.542,0l1.541-.89A.168.168,0,0,0,107.453,77.61ZM76.7,90.122a.114.114,0,0,0,0-.052.119.119,0,0,0,0-.053.171.171,0,0,0-.1-.183l-1.3-.748a.6.6,0,0,0-.542,0L72.42,90.439a.171.171,0,0,0-.1.183.114.114,0,0,0,0,.052.119.119,0,0,0,0,.053.171.171,0,0,0,.1.183l1.3.748a.6.6,0,0,0,.542,0L76.6,90.305A.171.171,0,0,0,76.7,90.122Zm.862-4.82,1.3.748a.6.6,0,0,0,.542,0l1.54-.889a.171.171,0,0,0,.1-.183.119.119,0,0,0,0-.053.114.114,0,0,0,0-.052.171.171,0,0,0-.1-.183l-1.3-.748a.6.6,0,0,0-.542,0l-1.541.889a.17.17,0,0,0-.1.183.119.119,0,0,0,0,.053.114.114,0,0,0,0,.052A.169.169,0,0,0,77.566,85.3Zm-2.487,1.436,1.3.748a.6.6,0,0,0,.542,0l1.541-.889a.17.17,0,0,0,.1-.183.114.114,0,0,0,0-.052.119.119,0,0,0,0-.053.17.17,0,0,0-.1-.183l-1.3-.748a.6.6,0,0,0-.542,0l-1.54.89a.171.171,0,0,0-.1.182.119.119,0,0,0,0,.053.119.119,0,0,0,0,.053A.171.171,0,0,0,75.079,86.738Zm-1.493,2.548a.151.151,0,0,0,0-.052.157.157,0,0,0,0-.053.172.172,0,0,0-.1-.183l-1.3-.748a.6.6,0,0,0-.543,0l-1.54.89a.172.172,0,0,0-.1.183.151.151,0,0,0,0,.052.157.157,0,0,0,0,.053.172.172,0,0,0,.1.183l1.3.748a.6.6,0,0,0,.542,0l1.541-.89A.172.172,0,0,0,73.586,89.286Zm-1-1.111,1.3.748a.6.6,0,0,0,.542,0l1.541-.89a.171.171,0,0,0,.1-.183.114.114,0,0,0,0-.052.119.119,0,0,0,0-.053.171.171,0,0,0-.1-.183l-1.3-.748a.6.6,0,0,0-.542,0l-1.541.89a.17.17,0,0,0-.1.182.119.119,0,0,0,0,.053.119.119,0,0,0,0,.053A.172.172,0,0,0,72.591,88.175ZM114.7,75.945a.171.171,0,0,0-.1-.183l-1.3-.748a.6.6,0,0,0-.542,0l-1.541.89a.171.171,0,0,0-.1.183.114.114,0,0,0,0,.052.119.119,0,0,0,0,.053.171.171,0,0,0,.1.183l1.3.748a.6.6,0,0,0,.542,0l1.541-.89a.171.171,0,0,0,.1-.183.114.114,0,0,0,0-.052A.119.119,0,0,0,114.7,75.945Zm-8.983-2.4-1.706-.985a.746.746,0,0,0-.673,0l-3.9,2.254a.217.217,0,0,0-.131.221.157.157,0,0,0,0,.053.151.151,0,0,0,0,.052.216.216,0,0,0,.131.221l3.4,1.965a.748.748,0,0,0,.674,0l6.476-3.739a.214.214,0,0,0,.13-.221.157.157,0,0,0,0-.053.151.151,0,0,0,0-.052.214.214,0,0,0-.13-.221l-1.267-.731a.5.5,0,0,0-.448,0L106.1,73.543A.421.421,0,0,1,105.719,73.542Zm-2.211,5.977-1.3-.748a.6.6,0,0,0-.542,0l-1.541.889a.17.17,0,0,0-.1.183.119.119,0,0,0,0,.053.114.114,0,0,0,0,.052.169.169,0,0,0,.1.183l1.3.748a.6.6,0,0,0,.542,0l1.541-.889a.171.171,0,0,0,.1-.183.119.119,0,0,0,0-.053.114.114,0,0,0,0-.052A.171.171,0,0,0,103.508,79.519Zm6.329-3.633-1.3-.748a.6.6,0,0,0-.542,0l-1.541.889a.17.17,0,0,0-.1.183.119.119,0,0,0,0,.053.114.114,0,0,0,0,.052.17.17,0,0,0,.1.183l1.3.748a.6.6,0,0,0,.542,0l1.54-.89a.17.17,0,0,0,.1-.182.119.119,0,0,0,0-.053.119.119,0,0,0,0-.053A.17.17,0,0,0,109.837,75.886Zm-11.3,6.505-1.3-.748a.6.6,0,0,0-.542,0l-1.541.89a.17.17,0,0,0-.1.182.119.119,0,0,0,0,.053.119.119,0,0,0,0,.053.17.17,0,0,0,.1.182l1.3.748a.6.6,0,0,0,.542,0l1.541-.889a.171.171,0,0,0,.1-.183.114.114,0,0,0,0-.052.119.119,0,0,0,0-.053A.171.171,0,0,0,98.533,82.391Zm10.31-7.617a.114.114,0,0,0,0,.052.119.119,0,0,0,0,.053.171.171,0,0,0,.1.183l1.3.748a.6.6,0,0,0,.542,0l1.541-.89a.169.169,0,0,0,.1-.183.114.114,0,0,0,0-.052.119.119,0,0,0,0-.053.169.169,0,0,0-.1-.182l-1.3-.749a.6.6,0,0,0-.542,0l-1.541.89A.171.171,0,0,0,108.843,74.774ZM88.583,88.136l-1.3-.748a.6.6,0,0,0-.542,0l-1.54.889a.172.172,0,0,0-.1.183.114.114,0,0,0,0,.052.119.119,0,0,0,0,.053.172.172,0,0,0,.1.183l1.3.748a.6.6,0,0,0,.542,0l1.541-.89a.169.169,0,0,0,.1-.182.119.119,0,0,0,0-.053.119.119,0,0,0,0-.053A.169.169,0,0,0,88.583,88.136Zm4.975-2.873-1.3-.748a.6.6,0,0,0-.542,0l-1.541.89a.171.171,0,0,0-.1.183.114.114,0,0,0,0,.052.119.119,0,0,0,0,.053.171.171,0,0,0,.1.183l1.3.748a.6.6,0,0,0,.542,0l1.541-.89a.169.169,0,0,0,.1-.183.114.114,0,0,0,0-.052.119.119,0,0,0,0-.053A.17.17,0,0,0,93.558,85.263ZM91.07,86.7l-1.295-.748a.6.6,0,0,0-.542,0l-1.541.89a.17.17,0,0,0-.1.183.114.114,0,0,0,0,.052.119.119,0,0,0,0,.053.17.17,0,0,0,.1.183l1.3.748a.6.6,0,0,0,.542,0l1.54-.89a.17.17,0,0,0,.1-.183.114.114,0,0,0,0-.052.119.119,0,0,0,0-.053A.171.171,0,0,0,91.07,86.7ZM86.1,89.572l-1.3-.748a.6.6,0,0,0-.542,0l-1.541.889a.171.171,0,0,0-.1.183.119.119,0,0,0,0,.053.114.114,0,0,0,0,.052.171.171,0,0,0,.1.183l1.3.748a.6.6,0,0,0,.542,0l1.541-.89a.169.169,0,0,0,.1-.182.119.119,0,0,0,0-.053.114.114,0,0,0,0-.052A.171.171,0,0,0,86.1,89.572Zm-2.488,1.436-1.3-.748a.6.6,0,0,0-.543,0l-1.54.889a.172.172,0,0,0-.1.183.157.157,0,0,0,0,.053.151.151,0,0,0,0,.052.172.172,0,0,0,.1.183l1.3.748a.6.6,0,0,0,.543,0l1.54-.889a.172.172,0,0,0,.1-.183.157.157,0,0,0,0-.053.151.151,0,0,0,0-.052A.172.172,0,0,0,83.608,91.008Zm12.437-7.181-1.3-.748a.6.6,0,0,0-.542,0l-1.541.89a.171.171,0,0,0-.1.182.157.157,0,0,0,0,.053.157.157,0,0,0,0,.053.173.173,0,0,0,.1.183l1.3.748a.6.6,0,0,0,.542,0l1.54-.89a.172.172,0,0,0,.1-.183.151.151,0,0,0,0-.052.157.157,0,0,0,0-.053A.172.172,0,0,0,96.045,83.827Zm4.975-2.872-1.3-.748a.6.6,0,0,0-.542,0l-1.54.889a.172.172,0,0,0-.1.183.157.157,0,0,0,0,.053.151.151,0,0,0,0,.052.172.172,0,0,0,.1.183l1.3.748a.6.6,0,0,0,.542,0l1.541-.889a.172.172,0,0,0,.1-.183.157.157,0,0,0,0-.053.151.151,0,0,0,0-.052A.172.172,0,0,0,101.02,80.955ZM87.488,91.34l-1.3-.748a.6.6,0,0,0-.542,0l-1.541.89a.17.17,0,0,0-.1.182.119.119,0,0,0,0,.053.119.119,0,0,0,0,.053.17.17,0,0,0,.1.182l1.3.748a.6.6,0,0,0,.542,0l1.541-.889a.17.17,0,0,0,.1-.183.114.114,0,0,0,0-.052.119.119,0,0,0,0-.053A.17.17,0,0,0,87.488,91.34ZM89.975,89.9l-1.295-.748a.6.6,0,0,0-.542,0l-1.541.889a.172.172,0,0,0-.1.183.157.157,0,0,0,0,.053.151.151,0,0,0,0,.052.172.172,0,0,0,.1.183l1.3.748a.6.6,0,0,0,.542,0l1.54-.889a.172.172,0,0,0,.1-.183.157.157,0,0,0,0-.053.151.151,0,0,0,0-.052A.172.172,0,0,0,89.975,89.9ZM85,92.776l-1.3-.748a.6.6,0,0,0-.542,0l-1.541.89a.169.169,0,0,0-.1.182.119.119,0,0,0,0,.053.119.119,0,0,0,0,.053.171.171,0,0,0,.1.183l1.3.748a.6.6,0,0,0,.542,0l1.54-.89a.171.171,0,0,0,.1-.183.114.114,0,0,0,0-.052.119.119,0,0,0,0-.053A.171.171,0,0,0,85,92.776Zm-2.487,1.436-1.3-.748a.6.6,0,0,0-.542,0l-1.54.89a.17.17,0,0,0-.1.183.114.114,0,0,0,0,.052.119.119,0,0,0,0,.053.171.171,0,0,0,.1.183l1.3.748a.6.6,0,0,0,.542,0l1.541-.89a.169.169,0,0,0,.1-.183.114.114,0,0,0,0-.052.119.119,0,0,0,0-.053A.17.17,0,0,0,82.513,94.212ZM101.191,78.22l-1.3-.748a.6.6,0,0,0-.542,0l-2.342,1.352a.171.171,0,0,0-.1.183.119.119,0,0,0,0,.053.114.114,0,0,0,0,.052.17.17,0,0,0,.1.183l1.3.748a.6.6,0,0,0,.542,0l2.343-1.352a.17.17,0,0,0,.1-.183.119.119,0,0,0,0-.053.114.114,0,0,0,0-.052A.169.169,0,0,0,101.191,78.22Zm4.5,2.613-1.3-.748a.6.6,0,0,0-.542,0l-2.343,1.352a.171.171,0,0,0-.1.183.119.119,0,0,0,0,.053.114.114,0,0,0,0,.052.171.171,0,0,0,.1.183l1.3.748a.6.6,0,0,0,.542,0l2.343-1.352a.171.171,0,0,0,.1-.183.119.119,0,0,0,0-.053.114.114,0,0,0,0-.052A.171.171,0,0,0,105.687,80.833Zm6.424-3.634-1.3-.749a.6.6,0,0,0-.542,0l-1.541.89a.17.17,0,0,0-.1.183.114.114,0,0,0,0,.052.119.119,0,0,0,0,.053.17.17,0,0,0,.1.183l1.3.748a.6.6,0,0,0,.542,0l1.54-.89a.171.171,0,0,0,.1-.182.119.119,0,0,0,0-.053.119.119,0,0,0,0-.053A.171.171,0,0,0,112.111,77.2Zm-2.487,1.436-1.3-.748a.6.6,0,0,0-.542,0l-1.54.889a.171.171,0,0,0-.1.183.119.119,0,0,0,0,.053.114.114,0,0,0,0,.052.171.171,0,0,0,.1.183l1.3.748a.6.6,0,0,0,.542,0l1.541-.89a.169.169,0,0,0,.1-.182.119.119,0,0,0,0-.053.119.119,0,0,0,0-.053A.169.169,0,0,0,109.624,78.635Zm-7.171,4.09-1.3-.748a.6.6,0,0,0-.542,0L89.1,88.629a.17.17,0,0,0-.1.182.119.119,0,0,0,0,.053.119.119,0,0,0,0,.053.17.17,0,0,0,.1.182l1.3.748a.6.6,0,0,0,.542,0l11.52-6.651a.171.171,0,0,0,.1-.182.157.157,0,0,0,0-.053.157.157,0,0,0,0-.053A.172.172,0,0,0,102.453,82.725Zm-9.526.266-1.3-.748a.6.6,0,0,0-.542,0l-1.541.89a.171.171,0,0,0-.1.183.114.114,0,0,0,0,.052.119.119,0,0,0,0,.053.171.171,0,0,0,.1.183l1.3.748a.6.6,0,0,0,.542,0l1.541-.89a.171.171,0,0,0,.1-.183.114.114,0,0,0,0-.052.119.119,0,0,0,0-.053A.171.171,0,0,0,92.927,82.991Zm-2.488,1.436-1.295-.748a.6.6,0,0,0-.542,0l-1.541.89a.172.172,0,0,0-.1.183.151.151,0,0,0,0,.052.157.157,0,0,0,0,.053.172.172,0,0,0,.1.183l1.3.748a.6.6,0,0,0,.542,0l1.54-.89a.172.172,0,0,0,.1-.183.151.151,0,0,0,0-.052.157.157,0,0,0,0-.053A.172.172,0,0,0,90.439,84.427Zm4.975-2.872-1.3-.748a.6.6,0,0,0-.542,0l-1.54.89a.171.171,0,0,0-.1.182.157.157,0,0,0,0,.053.157.157,0,0,0,0,.053.171.171,0,0,0,.1.182l1.3.749a.6.6,0,0,0,.542,0l1.541-.89a.172.172,0,0,0,.1-.183.151.151,0,0,0,0-.052.157.157,0,0,0,0-.053A.172.172,0,0,0,95.414,81.555Zm8.889-9.4a.119.119,0,0,0,0,.053.114.114,0,0,0,0,.052.169.169,0,0,0,.1.183l1.3.748a.6.6,0,0,0,.542,0l1.54-.889a.172.172,0,0,0,.1-.183.119.119,0,0,0,0-.053.114.114,0,0,0,0-.052.172.172,0,0,0-.1-.183l-1.3-.748a.6.6,0,0,0-.542,0l-1.541.889A.171.171,0,0,0,104.3,72.152Zm-6.4,7.967-1.3-.748a.6.6,0,0,0-.542,0l-1.541.889a.17.17,0,0,0-.1.183.119.119,0,0,0,0,.053.119.119,0,0,0,0,.053.169.169,0,0,0,.1.182l1.3.748a.6.6,0,0,0,.542,0L97.9,80.59a.171.171,0,0,0,.1-.183.119.119,0,0,0,0-.053.114.114,0,0,0,0-.052A.171.171,0,0,0,97.9,80.119Zm-9.95,5.744-1.3-.748a.6.6,0,0,0-.542,0l-1.541.89a.171.171,0,0,0-.1.183.114.114,0,0,0,0,.052.119.119,0,0,0,0,.053.171.171,0,0,0,.1.183l1.3.748a.6.6,0,0,0,.542,0l1.541-.89a.169.169,0,0,0,.1-.183.114.114,0,0,0,0-.052.119.119,0,0,0,0-.053A.171.171,0,0,0,87.952,85.863Zm-4.975,2.873-1.3-.748a.6.6,0,0,0-.542,0l-1.54.889a.172.172,0,0,0-.1.183.157.157,0,0,0,0,.053.151.151,0,0,0,0,.052.172.172,0,0,0,.1.183l1.3.748a.6.6,0,0,0,.542,0l1.541-.889a.17.17,0,0,0,.1-.183.119.119,0,0,0,0-.053.119.119,0,0,0,0-.053A.169.169,0,0,0,82.977,88.736ZM85.464,87.3l-1.3-.748a.6.6,0,0,0-.542,0l-1.541.889a.17.17,0,0,0-.1.183.119.119,0,0,0,0,.053.114.114,0,0,0,0,.052.17.17,0,0,0,.1.183l1.3.748a.6.6,0,0,0,.542,0l1.54-.89a.17.17,0,0,0,.1-.182.119.119,0,0,0,0-.053.119.119,0,0,0,0-.053A.17.17,0,0,0,85.464,87.3Z"/><path class="cls-14" d="M73.482,89.243l-1.541.889a.6.6,0,0,1-.542,0l-1.3-.748a.165.165,0,0,1,0-.313l1.54-.889a.6.6,0,0,1,.543,0l1.3.748A.165.165,0,0,1,73.482,89.243Zm2.488-1.749-1.3-.748a.6.6,0,0,0-.542,0l-1.541.889a.165.165,0,0,0,0,.313l1.3.748a.6.6,0,0,0,.542,0l1.541-.889A.165.165,0,0,0,75.97,87.494Zm2.487-1.436-1.3-.748a.6.6,0,0,0-.542,0l-1.54.889a.165.165,0,0,0,0,.313l1.3.748a.6.6,0,0,0,.542,0l1.541-.889A.165.165,0,0,0,78.457,86.058Zm2.487-1.436-1.3-.749a.6.6,0,0,0-.542,0l-1.541.89a.165.165,0,0,0,0,.313l1.3.748a.6.6,0,0,0,.542,0l1.54-.89A.164.164,0,0,0,80.944,84.622Zm2.488-1.437-1.3-.748a.6.6,0,0,0-.542,0l-1.541.89a.165.165,0,0,0,0,.313l1.3.748a.6.6,0,0,0,.542,0l1.541-.89A.165.165,0,0,0,83.432,83.185Zm2.487-1.436L84.624,81a.6.6,0,0,0-.542,0l-1.541.89a.165.165,0,0,0,0,.313l1.3.748a.6.6,0,0,0,.542,0l1.54-.89A.165.165,0,0,0,85.919,81.749Zm2.488-1.436-1.3-.748a.6.6,0,0,0-.542,0l-1.541.89a.165.165,0,0,0,0,.313l1.3.748a.6.6,0,0,0,.542,0l1.541-.89A.165.165,0,0,0,88.407,80.313Zm2.487-1.436-1.3-.748a.6.6,0,0,0-.542,0l-1.54.89a.164.164,0,0,0,0,.312l1.3.748a.6.6,0,0,0,.542,0l1.541-.889A.165.165,0,0,0,90.894,78.877Zm2.488-1.436-1.3-.748a.6.6,0,0,0-.542,0L90,77.582a.165.165,0,0,0,0,.313l1.3.748a.6.6,0,0,0,.542,0l1.541-.889A.165.165,0,0,0,93.382,77.441Zm3.289-1.9-1.3-.748a.6.6,0,0,0-.542,0l-2.342,1.352a.165.165,0,0,0,0,.313l1.3.748a.6.6,0,0,0,.542,0l2.343-1.352A.165.165,0,0,0,96.671,75.542Zm10.679,1.711-1.3-.748a.6.6,0,0,0-.542,0l-1.54.89a.165.165,0,0,0,0,.313l1.3.748a.6.6,0,0,0,.542,0l1.541-.89A.165.165,0,0,0,107.35,77.253Zm2.487-1.436-1.3-.748a.6.6,0,0,0-.542,0l-1.541.89a.165.165,0,0,0,0,.313l1.3.748a.6.6,0,0,0,.542,0l1.54-.89A.165.165,0,0,0,109.837,75.817Zm2.488-1.436-1.3-.748a.6.6,0,0,0-.542,0l-1.541.89a.165.165,0,0,0,0,.313l1.3.748a.6.6,0,0,0,.542,0l1.541-.89A.165.165,0,0,0,112.325,74.381Zm-2.7,4.185-1.3-.748a.6.6,0,0,0-.542,0l-1.54.89a.165.165,0,0,0,0,.313l1.3.748a.6.6,0,0,0,.542,0l1.541-.89A.165.165,0,0,0,109.624,78.566Zm2.487-1.436-1.3-.748a.6.6,0,0,0-.542,0l-1.541.89a.165.165,0,0,0,0,.313l1.3.748a.6.6,0,0,0,.542,0l1.54-.89A.165.165,0,0,0,112.111,77.13Zm2.488-1.436-1.3-.748a.6.6,0,0,0-.542,0l-1.541.889a.165.165,0,0,0,0,.313l1.3.748a.6.6,0,0,0,.542,0l1.541-.889A.165.165,0,0,0,114.6,75.694Zm-38,14.072-1.3-.748a.6.6,0,0,0-.542,0L72.42,90.37a.165.165,0,0,0,0,.313l1.3.748a.6.6,0,0,0,.542,0L76.6,90.079A.165.165,0,0,0,76.6,89.766Zm2.487-1.436-1.3-.748a.6.6,0,0,0-.542,0l-1.54.889a.165.165,0,0,0,0,.313l1.3.748a.6.6,0,0,0,.542,0l1.541-.889A.165.165,0,0,0,79.088,88.33Zm2.488-1.436-1.3-.748a.6.6,0,0,0-.542,0l-1.541.889a.165.165,0,0,0,0,.313l1.3.748a.6.6,0,0,0,.542,0l1.541-.889A.165.165,0,0,0,81.576,86.894Zm2.487-1.436-1.3-.749a.6.6,0,0,0-.542,0l-1.54.89a.165.165,0,0,0,0,.313l1.3.748a.6.6,0,0,0,.542,0l1.541-.89A.164.164,0,0,0,84.063,85.458Zm2.487-1.437-1.3-.748a.6.6,0,0,0-.542,0l-1.541.89a.165.165,0,0,0,0,.313l1.3.748a.6.6,0,0,0,.542,0l1.54-.89A.165.165,0,0,0,86.55,84.021Zm2.488-1.436-1.3-.748a.6.6,0,0,0-.542,0l-1.541.89a.165.165,0,0,0,0,.313l1.3.748a.6.6,0,0,0,.542,0l1.541-.89A.165.165,0,0,0,89.038,82.585Zm2.487-1.436-1.3-.748a.6.6,0,0,0-.542,0l-1.541.89a.165.165,0,0,0,0,.313l1.295.748a.6.6,0,0,0,.543,0l1.54-.89A.165.165,0,0,0,91.525,81.149Zm2.488-1.436-1.3-.748a.6.6,0,0,0-.542,0l-1.541.889a.165.165,0,0,0,0,.313l1.3.748a.6.6,0,0,0,.542,0l1.541-.889A.165.165,0,0,0,94.013,79.713ZM96.5,78.277l-1.3-.748a.6.6,0,0,0-.542,0l-1.54.889a.165.165,0,0,0,0,.313l1.3.748a.6.6,0,0,0,.542,0L96.5,78.59A.165.165,0,0,0,96.5,78.277Zm2.487-1.436-1.3-.748a.6.6,0,0,0-.542,0l-1.541.889a.165.165,0,0,0,0,.313l1.3.748a.6.6,0,0,0,.542,0l1.54-.889A.165.165,0,0,0,98.987,76.841ZM78,91.54l-1.3-.749a.6.6,0,0,0-.542,0l-1.541.89a.165.165,0,0,0,0,.313l1.3.748a.6.6,0,0,0,.542,0L78,91.853A.165.165,0,0,0,78,91.54ZM80.49,90.1l-1.3-.748a.6.6,0,0,0-.542,0l-1.541.89a.165.165,0,0,0,0,.313l1.3.748a.6.6,0,0,0,.542,0l1.541-.89A.165.165,0,0,0,80.49,90.1Zm2.487-1.436-1.3-.748a.6.6,0,0,0-.542,0l-1.54.89a.165.165,0,0,0,0,.313l1.3.748a.6.6,0,0,0,.542,0l1.541-.89A.165.165,0,0,0,82.977,88.667Zm2.487-1.436-1.3-.748a.6.6,0,0,0-.542,0l-1.541.89a.165.165,0,0,0,0,.313l1.3.748a.6.6,0,0,0,.542,0l1.54-.89A.165.165,0,0,0,85.464,87.231Zm-2.951,6.913-1.3-.748a.6.6,0,0,0-.542,0l-1.54.889a.165.165,0,0,0,0,.313l1.3.748a.6.6,0,0,0,.542,0l1.541-.889A.165.165,0,0,0,82.513,94.144ZM85,92.708l-1.3-.748a.6.6,0,0,0-.542,0l-1.541.889a.165.165,0,0,0,0,.313l1.3.748a.6.6,0,0,0,.542,0L85,93.021A.165.165,0,0,0,85,92.708Zm2.488-1.436-1.3-.748a.6.6,0,0,0-.542,0l-1.541.889a.165.165,0,0,0,0,.313l1.3.748a.6.6,0,0,0,.542,0l1.541-.889A.165.165,0,0,0,87.488,91.272Zm2.487-1.436-1.295-.749a.6.6,0,0,0-.542,0l-1.541.89a.165.165,0,0,0,0,.313l1.3.748a.6.6,0,0,0,.542,0l1.54-.89A.164.164,0,0,0,89.975,89.836Zm15.712-9.072-1.3-.748a.6.6,0,0,0-.542,0l-2.343,1.353a.165.165,0,0,0,0,.313l1.3.748a.6.6,0,0,0,.542,0l2.343-1.353A.165.165,0,0,0,105.687,80.764ZM87.952,85.8l-1.3-.748a.6.6,0,0,0-.542,0l-1.541.889a.166.166,0,0,0,0,.314l1.3.748a.6.6,0,0,0,.542,0l1.541-.89A.165.165,0,0,0,87.952,85.8Zm2.487-1.436-1.295-.748a.6.6,0,0,0-.542,0l-1.541.889a.165.165,0,0,0,0,.313l1.3.748a.6.6,0,0,0,.542,0l1.54-.889A.165.165,0,0,0,90.439,84.359Zm2.488-1.436-1.3-.748a.6.6,0,0,0-.542,0l-1.541.889a.165.165,0,0,0,0,.313l1.3.748a.6.6,0,0,0,.542,0l1.541-.889A.165.165,0,0,0,92.927,82.923Zm2.487-1.436-1.3-.748a.6.6,0,0,0-.542,0l-1.54.889a.165.165,0,0,0,0,.313l1.3.748a.6.6,0,0,0,.542,0l1.541-.889A.165.165,0,0,0,95.414,81.487ZM97.9,80.051l-1.3-.748a.6.6,0,0,0-.542,0l-1.541.889a.165.165,0,0,0,0,.313l1.3.748a.6.6,0,0,0,.542,0l1.541-.89A.165.165,0,0,0,97.9,80.051Zm3.289-1.9L99.9,77.4a.6.6,0,0,0-.542,0l-2.342,1.353a.165.165,0,0,0,0,.313l1.3.748a.6.6,0,0,0,.542,0l2.343-1.353A.165.165,0,0,0,101.191,78.151ZM81.121,92.376l-1.3-.748a.6.6,0,0,0-.542,0L76.94,92.98a.165.165,0,0,0,0,.313l1.3.748a.6.6,0,0,0,.542,0l2.343-1.352A.165.165,0,0,0,81.121,92.376Zm2.487-1.437-1.3-.748a.6.6,0,0,0-.543,0l-1.54.89a.165.165,0,0,0,0,.313l1.3.748a.6.6,0,0,0,.542,0l1.541-.89A.165.165,0,0,0,83.608,90.939ZM86.1,89.5l-1.3-.748a.6.6,0,0,0-.542,0l-1.541.89a.165.165,0,0,0,0,.313l1.3.748a.6.6,0,0,0,.542,0l1.541-.89A.165.165,0,0,0,86.1,89.5Zm2.487-1.436-1.3-.748a.6.6,0,0,0-.542,0l-1.54.89a.165.165,0,0,0,0,.313l1.3.748a.6.6,0,0,0,.542,0l1.541-.89A.165.165,0,0,0,88.583,88.067Zm2.487-1.436-1.295-.748a.6.6,0,0,0-.542,0l-1.541.89a.164.164,0,0,0,0,.312l1.3.749a.6.6,0,0,0,.542,0l1.54-.89A.165.165,0,0,0,91.07,86.631Zm11.383-3.974-1.3-.748a.6.6,0,0,0-.542,0L89.1,88.56a.165.165,0,0,0,0,.313l1.3.748a.6.6,0,0,0,.542,0l11.52-6.651A.165.165,0,0,0,102.453,82.657ZM93.558,85.2l-1.3-.748a.6.6,0,0,0-.542,0l-1.541.889a.165.165,0,0,0,0,.313l1.3.748a.6.6,0,0,0,.542,0l1.541-.889A.165.165,0,0,0,93.558,85.2Zm2.487-1.436-1.3-.748a.6.6,0,0,0-.542,0l-1.541.889a.165.165,0,0,0,0,.313l1.3.748a.6.6,0,0,0,.542,0l1.54-.889A.165.165,0,0,0,96.045,83.759Zm2.488-1.436-1.3-.748a.6.6,0,0,0-.542,0l-1.541.889a.165.165,0,0,0,0,.313l1.3.748a.6.6,0,0,0,.542,0l1.541-.889A.165.165,0,0,0,98.533,82.323Zm2.487-1.436-1.3-.749a.6.6,0,0,0-.542,0l-1.54.89a.165.165,0,0,0,0,.313l1.3.748a.6.6,0,0,0,.542,0l1.541-.89A.164.164,0,0,0,101.02,80.887Zm2.488-1.437-1.3-.748a.6.6,0,0,0-.542,0l-1.541.89a.165.165,0,0,0,0,.313l1.3.748a.6.6,0,0,0,.542,0l1.541-.89A.165.165,0,0,0,103.508,79.45Zm-2.967-6.128-1.3-.748a.6.6,0,0,0-.543,0l-1.54.89a.165.165,0,0,0,0,.313l1.3.748a.6.6,0,0,0,.542,0l1.541-.89A.165.165,0,0,0,100.541,73.322Zm2.488-1.436-1.3-.748a.6.6,0,0,0-.542,0l-1.541.89a.165.165,0,0,0,0,.313l1.3.748a.6.6,0,0,0,.542,0l1.541-.89A.165.165,0,0,0,103.029,71.886Zm2.487-1.436-1.3-.748a.6.6,0,0,0-.542,0l-1.54.889a.165.165,0,0,0,0,.313l1.3.748a.6.6,0,0,0,.542,0l1.541-.889A.165.165,0,0,0,105.516,70.45Zm2.268,1.31-1.3-.748a.6.6,0,0,0-.542,0l-1.541.889a.165.165,0,0,0,0,.313l1.3.748a.6.6,0,0,0,.542,0l1.54-.889A.165.165,0,0,0,107.784,71.76Zm2.2,1.209-1.267-.732a.5.5,0,0,0-.448,0L106.1,73.475a.425.425,0,0,1-.379,0l-1.706-.985a.739.739,0,0,0-.673,0l-3.9,2.254a.205.205,0,0,0,0,.389l3.4,1.964a.742.742,0,0,0,.674,0l6.476-3.738A.205.205,0,0,0,109.988,72.969Z"/><polygon class="cls-15" points="112.047 43.223 51.533 78.161 51.533 40.749 112.047 5.811 112.047 43.223"/><polygon class="cls-16" points="112.045 39.902 51.539 74.836 51.539 43.646 112.045 8.713 112.045 39.902"/><polygon class="cls-17" points="79.414 27.553 79.414 58.742 112.045 39.902 112.045 8.713 79.414 27.553"/><polygon class="cls-18" points="51.535 38.087 51.535 44.324 112.047 9.388 112.047 3.15 51.535 38.087"/><path class="cls-19" d="M73.248,44.609l-16.2,9.352c-.834.481-1.51.179-1.51-.676a3.162,3.162,0,0,1,1.51-2.42l16.2-9.352c.834-.482,1.511-.179,1.511.676A3.166,3.166,0,0,1,73.248,44.609Z"/><path class="cls-19" d="M73.248,50.009l-16.2,9.352c-.834.482-1.51.18-1.51-.675a3.162,3.162,0,0,1,1.51-2.42l16.2-9.352c.834-.482,1.511-.179,1.511.676A3.163,3.163,0,0,1,73.248,50.009Z"/><path class="cls-20" d="M61.633,62.165l-4.6,2.654c-.834.481-1.51.179-1.51-.676a3.164,3.164,0,0,1,1.51-2.42l4.6-2.653c.835-.482,1.511-.179,1.511.675A3.161,3.161,0,0,1,61.633,62.165Z"/><path class="cls-21" d="M57.388,57.619a.775.775,0,0,1-.37.592c-.2.118-.37.044-.37-.165a.775.775,0,0,1,.37-.593C57.222,57.336,57.388,57.41,57.388,57.619Z"/><path class="cls-21" d="M58.913,56.738a.774.774,0,0,1-.369.592c-.2.118-.37.044-.37-.165a.773.773,0,0,1,.37-.592C58.748,56.455,58.913,56.529,58.913,56.738Z"/><path class="cls-21" d="M60.439,55.857a.774.774,0,0,1-.369.592c-.2.118-.37.044-.37-.165a.771.771,0,0,1,.37-.592C60.274,55.574,60.439,55.648,60.439,55.857Z"/><path class="cls-21" d="M61.965,54.976a.772.772,0,0,1-.37.592c-.2.118-.369.044-.369-.165a.774.774,0,0,1,.369-.592C61.8,54.693,61.965,54.767,61.965,54.976Z"/><path class="cls-21" d="M63.491,54.1a.775.775,0,0,1-.37.592c-.2.118-.369.044-.369-.165a.774.774,0,0,1,.369-.592C63.325,53.812,63.491,53.886,63.491,54.1Z"/><path class="cls-21" d="M65.017,53.214a.775.775,0,0,1-.37.592c-.2.118-.37.044-.37-.165a.775.775,0,0,1,.37-.592C64.851,52.931,65.017,53.005,65.017,53.214Z"/><path class="cls-21" d="M66.543,52.333a.778.778,0,0,1-.37.592c-.2.118-.37.044-.37-.165a.775.775,0,0,1,.37-.592C66.377,52.05,66.543,52.124,66.543,52.333Z"/><path class="cls-21" d="M68.068,51.452a.774.774,0,0,1-.369.592c-.2.118-.37.044-.37-.165a.775.775,0,0,1,.37-.592C67.9,51.169,68.068,51.243,68.068,51.452Z"/><path class="cls-21" d="M57.079,51.945v.887c0,.2.108.225.275.128a.862.862,0,0,0,.353-.405v-.972l.167-.1v.933l.015.36-.139.08-.027-.166a1.016,1.016,0,0,1-.424.453c-.254.147-.386.049-.386-.194v-.911Z"/><path class="cls-21" d="M59,51.782c0-.177-.1-.161-.347-.04-.343.168-.441.1-.441-.092a.823.823,0,0,1,.472-.658c.347-.2.474-.092.474.163a1.525,1.525,0,0,1-.165.106c0-.187-.072-.261-.309-.124a.514.514,0,0,0-.3.4c0,.135.063.172.338.035.319-.157.456-.142.456.1a.853.853,0,0,1-.489.678c-.36.207-.489.066-.489-.133a1.569,1.569,0,0,1,.168-.107c0,.143.069.24.321.1A.536.536,0,0,0,59,51.782Z"/><path class="cls-21" d="M59.62,51.2c.008.28.125.389.379.243a.652.652,0,0,0,.359-.507l.161-.093a.965.965,0,0,1-.52.745c-.383.221-.549.027-.549-.334V51.2a1.094,1.094,0,0,1,.537-.961c.371-.214.532-.017.532.344v.1Zm0-.143.729-.42c-.01-.277-.122-.391-.364-.252A.763.763,0,0,0,59.62,51.057Z"/><path class="cls-21" d="M61.358,49.45v.164a.862.862,0,0,0-.371.411v.965l-.168.1v-.933l-.014-.36.139-.08.024.158a.892.892,0,0,1,.355-.4A.291.291,0,0,1,61.358,49.45Z"/><path class="cls-21" d="M62.325,50.218l-.173.1V48.4l.173-.1Z"/><path class="cls-21" d="M63.21,49.707l-.494.285V48.077l.494-.285c.455-.263.723-.173.723.49v.1A1.394,1.394,0,0,1,63.21,49.707Zm-.015-.151a1.112,1.112,0,0,0,.561-1.073v-.1c0-.545-.2-.633-.561-.425l-.307.177v1.6Z"/><path class="cls-22" d="M54.54,40.779,54,41.093a.853.853,0,0,1-.593.166c-.14-.037-.209-.167-.209-.389V39.535a1.074,1.074,0,0,1,.209-.63A1.822,1.822,0,0,1,54,38.386l.545-.315a.85.85,0,0,1,.593-.165c.139.037.209.167.209.389v1.334a1.084,1.084,0,0,1-.209.631A1.832,1.832,0,0,1,54.54,40.779Zm-.448-.205.345-.2a.683.683,0,0,0,.222-.185.4.4,0,0,0,.065-.229V38.676c0-.09-.022-.141-.065-.153a.344.344,0,0,0-.222.07l-.345.2a.666.666,0,0,0-.219.183.4.4,0,0,0-.063.228v1.284q0,.135.063.156C53.916,40.657,53.988,40.634,54.092,40.574Z"/><path class="cls-22" d="M56.31,39.757l-.4.233c-.068.039-.1.029-.1-.029V37.43a.173.173,0,0,1,.1-.148l.364-.21c.068-.039.114-.046.136-.02l.983,1.029c.019-.011.019-1.578.019-1.578a.17.17,0,0,1,.1-.147l.4-.233c.068-.039.1-.029.1.029v2.531a.173.173,0,0,1-.1.148l-.355.2c-.071.041-.123.043-.156,0l-.972-1c-.019.011-.019,1.574-.019,1.574A.171.171,0,0,1,56.31,39.757Z"/><path class="cls-22" d="M60.229,37.494l-1.6.924c-.068.039-.1.029-.1-.029V35.858a.173.173,0,0,1,.1-.148l.413-.238c.068-.039.1-.03.1.029v2.106c0,.031.019.035.058.012l1.027-.592c.064-.037.1-.025.1.037v.286A.164.164,0,0,1,60.229,37.494Z"/><path class="cls-22" d="M61.23,34.3v2.531a.17.17,0,0,1-.1.147l-.414.239q-.1.059-.1-.03v-2.53a.17.17,0,0,1,.1-.148l.414-.239Q61.23,34.209,61.23,34.3Z"/><path class="cls-22" d="M62.27,36.315l-.4.233c-.068.04-.1.03-.1-.029V33.988a.17.17,0,0,1,.1-.147l.364-.211c.068-.039.114-.046.136-.019l.983,1.028c.019-.011.019-1.577.019-1.577a.173.173,0,0,1,.1-.148l.4-.233q.1-.058.1.03v2.531a.17.17,0,0,1-.1.147l-.355.2c-.072.041-.123.043-.156.006l-.972-1.006c-.02.012-.02,1.574-.02,1.574A.17.17,0,0,1,62.27,36.315Z"/><path class="cls-22" d="M66.18,34.058l-1.59.918c-.068.04-.1.03-.1-.029V32.416a.17.17,0,0,1,.1-.147l1.59-.918c.065-.038.1-.027.1.032v.286a.166.166,0,0,1-.1.145l-1.016.586a.1.1,0,0,0-.059.081v.547c0,.031.02.035.059.013l.831-.48c.068-.04.1-.03.1.029v.286a.171.171,0,0,1-.1.148l-.831.48a.1.1,0,0,0-.059.08v.585c0,.031.02.035.059.013L66.18,33.6c.065-.037.1-.027.1.032v.287A.165.165,0,0,1,66.18,34.058Z"/><path class="cls-22" d="M67.643,33.125V30.594a.17.17,0,0,1,.1-.147l1.167-.674a.851.851,0,0,1,.593-.165c.14.037.209.165.209.384v.173a.914.914,0,0,1-.384.685.424.424,0,0,1,.312-.043c.077.029.116.113.116.25v.253a1.067,1.067,0,0,1-.209.626,1.793,1.793,0,0,1-.588.517l-1.216.7C67.677,33.194,67.643,33.184,67.643,33.125Zm.671-1.907.5-.287a.725.725,0,0,0,.228-.189.374.374,0,0,0,.074-.229v-.164c0-.088-.024-.136-.071-.147a.368.368,0,0,0-.226.074l-.5.289a.087.087,0,0,0-.053.077v.56C68.261,31.233,68.278,31.238,68.314,31.218Zm0,1.162.545-.315a.723.723,0,0,0,.231-.19.378.378,0,0,0,.07-.228V31.4c0-.087-.024-.135-.073-.143a.423.423,0,0,0-.238.082l-.535.309a.09.09,0,0,0-.053.078v.635C68.261,32.4,68.278,32.4,68.314,32.38Z"/><path class="cls-22" d="M70.546,31.537l-.467.27c-.058.034-.077.015-.058-.055l.768-2.974a.307.307,0,0,1,.146-.173l.647-.373c.081-.047.129-.046.146,0l.768,2.087c.019.048,0,.089-.058.122l-.467.27c-.036.021-.06.028-.073.023s-.023-.023-.029-.053l-.137-.384-.948.547-.136.542a.226.226,0,0,1-.031.088A.206.206,0,0,1,70.546,31.537Zm.7-2.605-.35,1.419.72-.415-.35-1.015Z"/><path class="cls-22" d="M73.313,29.94l-.4.233c-.068.039-.1.029-.1-.029V27.613a.173.173,0,0,1,.1-.148l.365-.21c.068-.039.113-.046.136-.02l.982,1.029c.02-.011.02-1.578.02-1.578a.17.17,0,0,1,.1-.147l.4-.233c.068-.039.1-.03.1.029v2.531a.173.173,0,0,1-.1.148l-.355.205c-.071.041-.123.043-.155,0l-.973-1c-.019.011-.019,1.574-.019,1.574A.17.17,0,0,1,73.313,29.94Z"/><path class="cls-22" d="M76.045,28.362l-.413.239c-.068.039-.1.029-.1-.029V26.041a.173.173,0,0,1,.1-.148l.413-.238c.068-.039.1-.03.1.029v1.2c.036-.087.086-.2.161-.353l.739-1.366a.47.47,0,0,1,.19-.2l.476-.275c.036-.021.057-.024.066-.011s0,.042-.027.085l-.924,1.641,1.031.8a.052.052,0,0,1,.012.071.218.218,0,0,1-.09.079l-.355.205c-.113.066-.189.08-.228.044l-.744-.6-.307.488v.72A.17.17,0,0,1,76.045,28.362Z"/><path class="cls-22" d="M78.764,24.174V26.7a.17.17,0,0,1-.1.148l-.414.239q-.1.058-.1-.03V24.53a.17.17,0,0,1,.1-.147l.414-.239Q78.764,24.086,78.764,24.174Z"/><path class="cls-22" d="M79.8,26.192l-.4.233c-.068.04-.1.03-.1-.029V23.865a.17.17,0,0,1,.1-.147l.365-.211c.068-.039.113-.046.136-.019l.982,1.028c.02-.011.02-1.577.02-1.577a.173.173,0,0,1,.1-.148l.4-.233q.1-.059.1.03v2.531a.169.169,0,0,1-.1.147l-.354.205q-.108.061-.156.006l-.973-1.006c-.019.012-.019,1.574-.019,1.574A.17.17,0,0,1,79.8,26.192Z"/><path class="cls-22" d="M83.29,24.18l-.516.3a.857.857,0,0,1-.593.166c-.139-.038-.209-.167-.209-.389V22.919a1.078,1.078,0,0,1,.209-.63,1.82,1.82,0,0,1,.593-.519l.516-.3a.838.838,0,0,1,.588-.161c.14.039.209.168.209.387v.126a.175.175,0,0,1-.1.152l-.413.238c-.068.04-.1.028-.1-.033v-.1c0-.09-.021-.142-.063-.155s-.115.009-.219.069l-.316.183a.649.649,0,0,0-.217.182.4.4,0,0,0-.065.229v1.284c0,.09.022.141.065.154a.33.33,0,0,0,.217-.068l.316-.183a.654.654,0,0,0,.219-.183.4.4,0,0,0,.063-.228V23.1c0-.031-.018-.036-.054-.016l-.291.169q-.1.059-.1-.03v-.286a.17.17,0,0,1,.1-.147l.85-.491c.075-.044.112-.033.112.032v.7a1.077,1.077,0,0,1-.209.628A1.787,1.787,0,0,1,83.29,24.18Z"/><g id="Axonometric_Cube" data-name="Axonometric Cube"><polygon id="Cube_face_-_right" data-name="Cube face - right" class="cls-23" points="109.845 32.409 95.55 40.662 95.55 37.765 109.845 29.511 109.845 32.409"/><polygon class="cls-24" points="96.268 38.179 109.127 30.756 109.127 31.994 96.268 39.418 96.268 38.179"/></g><g class="cls-25"><g class="cls-2"><path class="cls-26" d="M116.978,56.858l-.624-.36a4.481,4.481,0,0,1-1.11-.935,6.153,6.153,0,0,1-.992-1.56,4.8,4.8,0,0,1-.442-1.911l.031-13.832a5.007,5.007,0,0,0-.459-1.988,6.41,6.41,0,0,0-1.029-1.618,4.691,4.691,0,0,0-1.157-.974l-4.76-2.748-9.5,5.519L101.7,39.2a4.69,4.69,0,0,1,1.156.974,6.372,6.372,0,0,1,1.029,1.618,4.99,4.99,0,0,1,.459,1.988l-.03,13.832a4.782,4.782,0,0,0,.442,1.911,6.159,6.159,0,0,0,.991,1.56,4.53,4.53,0,0,0,1.111.936l.624.36a1.8,1.8,0,0,0,1.814.175l9.5-5.52A1.8,1.8,0,0,1,116.978,56.858Z"/><path class="cls-27" d="M110.905,54.808a1.784,1.784,0,0,0-.746,1.634l-.017,4.534a1.858,1.858,0,0,1-.775,1.7l9.5-5.519a1.854,1.854,0,0,0,.775-1.7l.017-4.534a1.785,1.785,0,0,1,.747-1.634Z"/><path class="cls-28" d="M122.214,49.351a1.869,1.869,0,0,0-1.887-.183l-9.5,5.519a1.87,1.87,0,0,1,1.886.183l8.867,5.12,9.5-5.52Z"/><path class="cls-29" d="M111.146,54.567a1.688,1.688,0,0,0-1.087,1.817l-.018,4.534c0,1.615-1.155,2.271-2.561,1.46l-.623-.36a5.621,5.621,0,0,1-2.544-4.407l.03-13.832A5.835,5.835,0,0,0,101.7,39.2l-4.761-2.748v.115l4.761,2.749a5.61,5.61,0,0,1,2.544,4.406l-.031,13.832a5.84,5.84,0,0,0,2.644,4.58l.624.36c1.463.844,2.657.164,2.662-1.517l.017-4.534a1.624,1.624,0,0,1,1.05-1.749C111.186,54.652,111.167,54.609,111.146,54.567Z"/><path class="cls-29" d="M121.583,59.99l-8.867-5.12c-1.462-.844-2.656-.164-2.661,1.517l0,.862c.035,0,.067.008.1.01l0-.814c0-1.615,1.156-2.271,2.561-1.459l8.867,5.119,9.5-5.519V54.47Z"/></g><path class="cls-30" d="M108.529,42.023l.743-.429v.177l-.743.429Zm-.954,1.957-1.156.667v.178l1.369-.791.475-.274v-.177l-.688.4Zm1.025-1.118v-.177l-.58.335-.381.22v.177l.381-.22Zm-1.234.535-.95.549v.177l.95-.549Zm.492-.81.4-.23V42.18l-.688.4-1.147.662v.177l1.436-.829Zm-1.127-.052.936-.541v-.177l-.936.54-.3.175v.177l.3-.174Zm1.869-1.079.3-.174v-.177l-.4.229-.564.326v.177l.661-.381ZM109.277,43l-.742.429V43.6l.742-.429Zm-1.449,3.378-1.409.813v.177l1.409-.813Zm-1.4,1.51v.177l.283-.164,1.183-.683v-.177l-1.005.581Zm2.846-3.753-1.02.589-.682.394v.177l.682-.394,1.02-.589Zm-.146,2.194-.256.148-.7.407v.177l.564-.325.4-.23ZM107.262,46l-.842.487v.177l.842-.486.936-.541v-.177l-.936.54Zm1.208-.7v.177l.5-.285v-.177ZM108.1,46.4l.89-.514V45.7l-.89.514Zm-1.681-.435.884-.511v-.177l-.884.51ZM109,48.16l-.89.514v.177l.89-.513Zm-.169,1.681.494-.285v-.177l-.494.285Zm-1.309.756,1-.575v-.177l-1,.575Zm1.59-1.8-.879.507v.177l.879-.507Zm-2.677.316.371-.214,1.095-.632v-.178l-1.005.581-.461.266Zm1.526.348-1.129.652-.4.232v.177l.54-.311.991-.573Zm-1.529.357.66-.381.746-.431v-.177l-1.076.621-.33.191Zm0,1.409.828-.478v-.177l-.828.477Zm2.707-3.85-.326.188-.071.042-.564.325v.178l.564-.326.071-.042.326-.188Zm-.628,3.407-.564.325v.178l.661-.382.3-.173v-.178l-.4.23Zm-.836.483-.936.54-.3.175v.177l.3-.175.936-.54Zm-.37.916-.875.506v.177l.875-.506Zm1.232-.711-.96.554v.177l1.031-.595.672-.388v-.177l-.743.429Zm-.954,2.134.89-.514v-.177l-.89.514Zm-1.156.668.884-.511v-.177l-.884.511Zm1.784-1.91-.564.325v.178l.564-.326.4-.229v-.178l-.4.23Zm-1.787,1.209.95-.549v-.178l-.95.549Zm5.062-11.849-.693.4V42.3l.693-.4Zm-.01-2.1-.416.24v.177l.416-.24Zm-.688.4-.359.207V40.4l.359-.207Zm.695.3-.684.395v.177l.684-.395Zm-1.025,1.295-.292.168v.177l.292-.168Zm.272.02.759-.438v-.177l-.759.438Zm.743,3.341-.643.372v.177l.643-.372Zm.012-.71-1.217.7v.177l1.217-.7Zm-.928,1.239-.358.207v.177l.358-.207Zm-.028-1.213.955-.551v-.177l-.955.551Zm.264-.856.693-.4v-.178l-.693.4Zm-.594,3.506.358-.207V46.56l-.358.207Zm.631-.364.643-.371v-.178l-.643.372Zm-.075,1.45.723-.418v-.177l-.723.418Zm-.122-.633.843-.487v-.177l-.843.487Zm-.272-.02-.341.2v.177l.341-.2Zm1.119.76-1,.578v.177l1-.578Zm-1-.127-.344.2v.177l.344-.2Zm.247,3.078.759-.438v-.177l-.759.438Zm-.564.326.292-.169v-.177l-.292.169Zm.263-1.558.359-.207v-.178l-.359.207Zm1.054-.083-.684.395v.177l.684-.394Zm-.007-.522v-.177l-.416.24v.178Zm-.683,2.5.693-.4v-.177l-.693.4Zm1.768-10.649-.3.171v.177l.3-.171Zm-.01-2.1-.416.24v.178l.416-.241Zm.007.7-.288.166v.178l.288-.166Zm-.357.91v.177l.363-.21V40.4Zm.347,3.747-.248.143v.177l.248-.143Zm.012-.71-.371.214v.177l.371-.214Zm-.164-.431.163-.095v-.177l-.163.094Zm-.132-.628.3-.171v-.177l-.3.171Zm.036,3.142.248-.143v-.177l-.248.143Zm-.074,1.45.327-.189v-.177l-.327.188Zm-.122-.633.447-.258v-.178l-.447.258Zm.451.969-.209.12v.177l.209-.12Zm-.354,2.722.363-.209v-.177l-.363.209Zm.357-1.086-.288.166V49.5l.288-.166Zm-.007-.522v-.177l-.416.24v.177Zm-.287,2.275.3-.171v-.178l-.3.172Zm-6.866-5.487.308-.178v-.177l-.308.178Zm-.01-2.1.188-.109v-.177l-.188.109Zm.007.7.317-.183v-.177l-.317.183Zm.006.523v.177l.241-.14V44.4Zm-.016,4.133.357-.206v-.177l-.357.206Zm.012-.709.233-.135v-.178l-.233.135Zm.44-1.135-.441.255v.177l.441-.255ZM105.7,46.2l-.308.177v.178l.308-.178Zm.036,3.142-.357.206v.177l.357-.206Zm-.075,1.449-.277.16v.177l.277-.16Zm-.121-.633-.158.091v.177l.158-.091Zm-.154,1.672.4-.228v-.177l-.4.228Zm.25,2.02-.241.139v.177l.241-.139Zm-.247-.383.317-.183v-.178l-.317.183Zm.181-.808V52.48l-.188.109v.177Zm.13,1.857-.308.178v.177l.308-.178Z"/><path class="cls-21" d="M117.657,53.188l.7-.4.166.1-.7.4Zm.424,1.276L117,55.089l.166.1,1.283-.741.444-.256-.166-.1-.643.372Zm.467-.839-.166-.095-.543.313-.358.206.166.1.358-.206Zm-1.321.571-.891.515.166.095.891-.514Zm-.033-.55.374-.215-.166-.1-.644.372-1.075.62.166.1,1.345-.777Zm-1.713.229.876-.506-.166-.1-.876.507-.284.163.166.1.284-.164Zm1.75-1.01.281-.163-.166-.095-.372.214-.528.3.166.1.619-.357Zm2.444.678-.7.4.166.1.7-.4ZM120.7,55.7l-1.319.762.166.095,1.319-.761Zm-.65,1.135.166.1.265-.153,1.108-.64-.165-.1-.942.543Zm.69-2.679-.955.552-.639.368.166.1.639-.368.955-.552Zm1.839,1.22-.24.138-.661.381.166.1.528-.3.372-.215Zm-3.067.25-.789.455.166.1.789-.456.876-.506-.166-.095-.876.506Zm1.131-.653.166.1.463-.267-.166-.1Zm.478.675.833-.481-.166-.095-.833.481Zm-2.892.149.829-.478-.166-.1-.829.479Zm2.974,1.7.347-.2,1.026-.592-.166-.1-.942.544-.431.249Zm2.362-1.556-.3.176-.067.039-.528.3.166.1.528-.3.067-.039.3-.176Zm-1.827-3.592-.648.374.166.1.648-.374Zm-1.984-1.135-.39.225.166.095.389-.225Zm-.645.372-.336.194.166.1.336-.193Zm1.309,0-.64.37.166.095.64-.369Zm-.3.934-.273.158.166.1.273-.158Zm.421-.051.71-.41-.166-.1-.71.41Zm4.227,1.637-.6.348.165.095.6-.348Zm-.648-.387-1.139.658.165.1,1.14-.658Zm-.21.882-.336.194.166.095.336-.193Zm-1.178-.649.895-.517-.166-.1-.895.516Zm-.411-.523.649-.375-.166-.1-.649.375Zm2.405,2.031.336-.194-.166-.1-.335.194Zm.591-.341.6-.348-.166-.1-.6.348Zm-2.57-3.355-.277.16.166.1.277-.16Zm-1.984-1.135-.39.225.166.095.39-.225Zm.665.376-.27.155.166.1.27-.155Zm.324.573.166.1.34-.2-.166-.1Zm4.022,1.947-.232.133.166.1.232-.134Zm-.648-.387-.347.2.166.1.347-.2Zm-.646-.2.153-.088-.166-.095-.153.088Zm-.781-.309.277-.16-.166-.1-.277.161Zm3,1.691.232-.134-.166-.1-.232.134ZM116.2,55.741l.288-.166-.166-.1-.288.166Zm-1.985-1.135.177-.1-.166-.1-.177.1Zm.665.376.3-.171-.166-.1-.3.172Zm.5.282.166.095.227-.13-.166-.1Zm3.848,2.238.334-.193-.166-.1-.334.193Zm-.647-.386.219-.127-.166-.1-.219.127Zm-.412-.715-.413.239.165.1.414-.239Zm-.782-.309-.288.167.166.1.288-.167Zm3,1.691-.334.193.166.095.334-.192Z"/></g><g id="Axonometric_Cube-2" data-name="Axonometric Cube"><polygon id="Cube_face_-_right-2" data-name="Cube face - right" class="cls-23" points="109.845 23.451 95.55 31.704 95.55 28.806 109.845 20.553 109.845 23.451"/><polygon class="cls-24" points="96.268 29.221 109.127 21.797 109.127 23.036 96.268 30.46 96.268 29.221"/></g><g class="cls-31"><path class="cls-5" d="M95.477,28.387a.666.666,0,0,0,.4.524l16.819,9.732a1.819,1.819,0,0,0,1.635.069l10.075-5.8a.468.468,0,0,0,.28-.45c-.01-.094-.012-.177-.026-.29a.7.7,0,0,0-.393-.483l-16.819-9.732a1.82,1.82,0,0,0-1.636-.068l-10.074,5.8a.493.493,0,0,0-.282.383C95.445,28.186,95.476,28.289,95.477,28.387Z"/><path class="cls-32" d="M107.444,21.954l16.819,9.732c.484.28.536.7.116.944l-10.075,5.8a1.819,1.819,0,0,1-1.635-.069l-16.82-9.732c-.483-.28-.535-.7-.115-.944l10.074-5.8A1.82,1.82,0,0,1,107.444,21.954Z"/><path class="cls-28" d="M122.482,31.88a.441.441,0,0,1,.245.3.289.289,0,0,1-.174.283l-.666.383a1.13,1.13,0,0,1-1.012-.042l-2.413-1.4a.439.439,0,0,1-.245-.3.29.29,0,0,1,.173-.284l.667-.383a1.127,1.127,0,0,1,1.012.043Z"/><path class="cls-33" d="M102.344,28.564a.442.442,0,0,1,.245.3.289.289,0,0,1-.174.283l-1.278.737a1.13,1.13,0,0,1-1.012-.042L97.493,28.32a.435.435,0,0,1-.245-.3.289.289,0,0,1,.173-.283L98.7,27a1.127,1.127,0,0,1,1.012.043Z"/><path class="cls-34" d="M97.59,28.345l2.632,1.523a.934.934,0,0,0,.836.035l1.278-.737c.215-.123.188-.339-.059-.482l-2.631-1.522a.928.928,0,0,0-.836-.035l-1.279.736C97.317,27.987,97.343,28.2,97.59,28.345Z"/><g class="cls-35"><path class="cls-36" d="M99.555,27.118a.68.68,0,0,0-.1-.034l-2,1.152a.538.538,0,0,0,.059.057l.5-.287.831.481c-.174.151-.122.374.143.527a1.159,1.159,0,0,0,.913.084l.874.505-.5.289a.935.935,0,0,0,.092.038l2.021-1.164a.527.527,0,0,0-.066-.053l-.552.318-.872-.5c.19-.152.143-.382-.128-.539a1.153,1.153,0,0,0-.933-.075l-.828-.479Zm.435,1.938.844-.485.864.5-.856.493-.866-.5Zm-.936-.081c-.221-.128-.269-.313-.132-.443l.9.52A1,1,0,0,1,99.054,28.975Zm1.644-.947c.228.131.271.324.118.453l-.9-.522A.986.986,0,0,1,100.7,28.028Zm-.861-.034.918.531-.844.486c-.014.006-.929-.523-.929-.523S99.837,27.994,99.837,27.994Zm-.079-.046-.843.486c-.012.008-.834-.467-.834-.467l.856-.494Z"/></g><ellipse class="cls-37" cx="111.915" cy="35.752" rx="1.061" ry="0.613"/><ellipse class="cls-34" cx="113.641" cy="36.749" rx="1.061" ry="0.613"/><path class="cls-38" d="M118.412,34.1a.478.478,0,0,0-.239.064l-.561.324c-.075.044-.112.09-.112.139s.038.094.111.136l.161.093a.473.473,0,0,0,.477,0l.56-.323q.111-.064.111-.138c0-.049-.036-.095-.109-.137l-.162-.093A.458.458,0,0,0,118.412,34.1Zm-.128.134a.257.257,0,0,1,.276,0l.133.076c.089.052.087.1-.007.159l-.55.318a.258.258,0,0,1-.275,0l-.133-.076c-.09-.052-.088-.106.005-.16Z"/><path class="cls-38" d="M117.588,33.625a.468.468,0,0,0-.239.064l-.56.323c-.076.044-.113.09-.113.139s.038.094.111.137l.162.093a.471.471,0,0,0,.476,0l.56-.324c.075-.043.112-.089.112-.138s-.037-.094-.11-.137l-.162-.093A.467.467,0,0,0,117.588,33.625Zm-.128.134a.261.261,0,0,1,.277,0l.132.076q.133.078-.006.159l-.551.318a.26.26,0,0,1-.275,0l-.132-.077c-.091-.052-.089-.1,0-.159Z"/><path class="cls-38" d="M116.765,33.149a.472.472,0,0,0-.24.064l-.56.324c-.075.043-.113.09-.112.138s.037.1.11.137l.162.093a.457.457,0,0,0,.236.064.466.466,0,0,0,.24-.065l.561-.323q.111-.065.111-.138c0-.049-.036-.095-.11-.137L117,33.212A.47.47,0,0,0,116.765,33.149Zm-.128.134a.26.26,0,0,1,.276,0l.133.077c.089.052.087.1-.007.158l-.551.319a.256.256,0,0,1-.274,0l-.133-.076c-.09-.052-.089-.106,0-.16Z"/><path class="cls-38" d="M115.941,32.673a.469.469,0,0,0-.239.065l-.561.323c-.075.044-.112.09-.112.139s.038.094.111.136l.161.094a.473.473,0,0,0,.477,0l.56-.324q.111-.065.111-.138c0-.049-.036-.095-.109-.137l-.162-.093A.468.468,0,0,0,115.941,32.673Zm-.128.135a.26.26,0,0,1,.276,0l.133.076c.089.052.087.1-.007.159l-.55.318a.26.26,0,0,1-.275,0l-.133-.077c-.09-.052-.088-.1,0-.159Z"/><path class="cls-38" d="M113.935,31.515a.478.478,0,0,0-.239.064l-.561.324c-.075.044-.112.09-.112.139s.038.094.111.136l.161.094a.48.48,0,0,0,.477,0l.56-.324c.074-.043.112-.089.112-.138s-.037-.1-.11-.137l-.162-.093A.458.458,0,0,0,113.935,31.515Zm-.128.134a.257.257,0,0,1,.276,0l.133.076c.089.052.087.105-.007.159l-.55.318a.258.258,0,0,1-.275,0l-.132-.076c-.091-.052-.089-.105,0-.159Z"/><path class="cls-38" d="M113.111,31.04a.468.468,0,0,0-.239.064l-.56.324c-.076.043-.113.089-.112.138s.037.1.11.137l.162.093a.471.471,0,0,0,.476,0l.561-.324q.111-.063.111-.138c0-.049-.037-.094-.11-.136l-.161-.094A.474.474,0,0,0,113.111,31.04Zm-.127.134a.259.259,0,0,1,.276,0l.132.077c.09.051.087.1-.006.158l-.551.318a.258.258,0,0,1-.275,0l-.132-.077c-.09-.052-.089-.105.005-.159Z"/><path class="cls-38" d="M112.288,30.564a.473.473,0,0,0-.24.065l-.56.323c-.075.044-.113.09-.112.139s.037.094.11.136l.162.094a.478.478,0,0,0,.476,0l.561-.324q.111-.064.111-.138c0-.049-.036-.095-.11-.137l-.161-.093A.461.461,0,0,0,112.288,30.564Zm-.128.134a.257.257,0,0,1,.276,0l.133.076c.089.052.087.105-.007.159l-.551.318a.256.256,0,0,1-.274,0l-.133-.076c-.09-.052-.088-.1,0-.159Z"/><path class="cls-38" d="M111.464,30.089a.468.468,0,0,0-.239.064l-.561.324c-.075.043-.112.089-.112.138s.038.094.111.137l.161.093a.481.481,0,0,0,.237.064.471.471,0,0,0,.24-.065l.56-.324c.074-.043.112-.088.112-.138s-.037-.094-.11-.137l-.162-.093A.467.467,0,0,0,111.464,30.089Zm-.128.134a.26.26,0,0,1,.276,0l.133.077c.089.051.087.1-.007.158l-.55.318a.26.26,0,0,1-.275,0l-.132-.077c-.091-.052-.089-.105,0-.159Z"/><path class="cls-38" d="M109.458,28.931a.468.468,0,0,0-.239.064l-.561.323c-.075.044-.112.09-.112.139s.038.094.111.137l.161.093a.484.484,0,0,0,.237.064.478.478,0,0,0,.24-.065l.56-.324c.075-.043.112-.089.112-.138s-.037-.094-.11-.137l-.162-.093A.467.467,0,0,0,109.458,28.931Zm-.128.134a.261.261,0,0,1,.277,0l.132.076q.133.078-.006.159l-.551.318a.26.26,0,0,1-.275,0l-.132-.077c-.091-.052-.089-.105,0-.159Z"/><path class="cls-38" d="M108.634,28.455a.468.468,0,0,0-.239.064l-.56.324c-.076.043-.113.09-.112.138s.037.095.11.137l.162.093a.457.457,0,0,0,.236.064.466.466,0,0,0,.24-.065l.561-.323q.111-.064.111-.138c0-.049-.037-.095-.11-.137l-.161-.094A.474.474,0,0,0,108.634,28.455Zm-.127.134a.259.259,0,0,1,.276,0l.132.077c.09.052.087.1-.006.158l-.551.318a.256.256,0,0,1-.275,0l-.132-.076c-.09-.053-.089-.106.005-.16Z"/><path class="cls-38" d="M107.811,27.979a.466.466,0,0,0-.239.065l-.561.323c-.075.044-.113.09-.112.139s.037.094.111.136l.161.094a.471.471,0,0,0,.476,0l.561-.324q.111-.065.111-.138c0-.049-.036-.095-.109-.137l-.162-.093A.468.468,0,0,0,107.811,27.979Zm-.128.135a.26.26,0,0,1,.276,0l.133.076c.089.052.087.105-.007.159l-.551.318a.258.258,0,0,1-.274,0l-.133-.077c-.09-.052-.088-.105.005-.159Z"/><path class="cls-38" d="M106.987,27.5a.468.468,0,0,0-.239.064l-.561.324c-.075.043-.112.089-.112.138s.038.095.111.137l.161.093a.473.473,0,0,0,.477,0l.56-.324c.074-.042.112-.088.112-.137s-.037-.095-.11-.137l-.162-.094A.467.467,0,0,0,106.987,27.5Zm-.128.134a.26.26,0,0,1,.276,0l.133.077c.089.051.087.1-.007.158l-.55.318a.258.258,0,0,1-.275,0l-.132-.077c-.091-.052-.089-.1,0-.159Z"/><path class="cls-38" d="M104.981,26.346a.468.468,0,0,0-.239.064l-.56.324c-.076.043-.113.089-.113.138s.038.095.111.137l.161.093a.474.474,0,0,0,.237.064.466.466,0,0,0,.24-.065l.56-.324c.075-.042.112-.088.112-.138s-.037-.094-.11-.137l-.162-.093A.467.467,0,0,0,104.981,26.346Zm-.128.134a.261.261,0,0,1,.277,0l.132.077c.089.051.087.1-.006.158l-.551.318a.258.258,0,0,1-.275,0l-.132-.077c-.091-.052-.089-.105,0-.159Z"/><path class="cls-38" d="M104.157,25.87a.481.481,0,0,0-.239.064l-.56.324c-.076.044-.113.09-.112.139s.037.094.11.136l.162.093a.471.471,0,0,0,.476,0l.561-.323q.111-.064.111-.138c0-.049-.037-.1-.11-.137l-.161-.093A.462.462,0,0,0,104.157,25.87ZM104.03,26a.257.257,0,0,1,.276,0l.132.076c.09.052.087.105-.006.159l-.551.318a.256.256,0,0,1-.274,0l-.133-.076c-.09-.052-.089-.106,0-.16Z"/><path class="cls-38" d="M103.334,25.4a.465.465,0,0,0-.239.064l-.561.323c-.075.044-.113.09-.112.139s.037.094.111.137l.161.093a.473.473,0,0,0,.477,0l.56-.324q.111-.064.111-.138c0-.049-.036-.094-.109-.137l-.162-.093A.467.467,0,0,0,103.334,25.4Zm-.128.134a.26.26,0,0,1,.276,0l.133.077c.089.051.087.1-.007.158l-.551.318a.258.258,0,0,1-.274,0l-.133-.077c-.09-.052-.088-.105,0-.159Z"/><path class="cls-38" d="M102.271,24.983l-.56.324c-.076.044-.113.09-.113.139s.038.094.111.136l.161.093a.473.473,0,0,0,.477,0l.56-.323c.075-.043.112-.089.112-.138s-.037-.1-.11-.137l-.162-.093a.458.458,0,0,0-.237-.064A.478.478,0,0,0,102.271,24.983Zm.111.07a.259.259,0,0,1,.277,0l.132.076q.133.078-.006.159l-.551.318a.258.258,0,0,1-.275,0l-.132-.076c-.091-.052-.089-.106,0-.16Z"/><path class="cls-38" d="M105.556,23.084l.805-.464a2.811,2.811,0,0,1,.37.187c.064.037.1.077.1.119s-.031.081-.1.118l-.44.255a.408.408,0,0,1-.411,0l-.325-.188C105.541,23.1,105.541,23.093,105.556,23.084Zm.233.031.186.107a.182.182,0,0,0,.193,0l.429-.248q.1-.057,0-.111l-.187-.108c-.027,0-.624.344-.624.344S105.779,23.109,105.789,23.115Z"/><path class="cls-38" d="M106.712,23.777l-.423-.244c0-.026.8-.49.8-.49a4.43,4.43,0,0,1,.467.244c0,.025-.068.064-.068.064a2.4,2.4,0,0,1-.345-.173,1.784,1.784,0,0,0-.252.127,2.338,2.338,0,0,0,.257.164c0,.027-.066.066-.066.066a1.92,1.92,0,0,1-.3-.148,1.955,1.955,0,0,0-.264.134,2.915,2.915,0,0,0,.3.192c0,.025-.068.064-.068.064A.041.041,0,0,1,106.712,23.777Z"/><path class="cls-38" d="M106.923,23.873l.8-.464a2.631,2.631,0,0,1,.358.181c.065.037.1.077.1.118s-.031.08-.095.117l-.065.038a.31.31,0,0,1-.256.023.081.081,0,0,1,.04.075c0,.027-.026.054-.069.079l-.085.049a.389.389,0,0,1-.2.054.4.4,0,0,1-.2-.056l-.325-.188C106.908,23.891,106.908,23.882,106.923,23.873Zm.608-.186.172.1a.187.187,0,0,0,.2,0l.06-.035c.064-.037.063-.074,0-.112l-.175-.1a1.97,1.97,0,0,0-.253.129C107.521,23.677,107.521,23.682,107.531,23.687Zm-.378.219.185.106a.184.184,0,0,0,.194,0l.082-.048c.064-.036.06-.075-.009-.115l-.18-.1a2.527,2.527,0,0,0-.273.142C107.143,23.9,107.144,23.9,107.153,23.906Z"/><path class="cls-38" d="M108.592,23.908l-.8.464a.376.376,0,0,1-.128-.048c0-.026.8-.49.8-.49a.384.384,0,0,1,.129.048C108.607,23.891,108.607,23.9,108.592,23.908Z"/><path class="cls-38" d="M108.2,24.635l-.083-.048c0-.027.7-.432.7-.432a1.074,1.074,0,0,0-.167-.111c0-.027.066-.066.066-.066a5.927,5.927,0,0,1,.536.284c0,.026-.066.065-.066.065a.979.979,0,0,1-.212-.1c-.028,0-.729.405-.729.405A.045.045,0,0,1,108.2,24.635Z"/><path class="cls-38" d="M109.2,25.212l-.154-.089c-.065-.037-.1-.077-.1-.118s.033-.081.1-.118l.44-.254a.4.4,0,0,1,.41,0l.153.088c.064.038.1.077.1.118s-.032.081-.1.119l-.064.037a.37.37,0,0,1-.13-.049c0-.026.059-.06.059-.06.065-.037.066-.075,0-.111l-.115-.066a.18.18,0,0,0-.193,0l-.429.248q-.1.057,0,.111l.115.067a.182.182,0,0,0,.193,0l.058-.033a.367.367,0,0,1,.13.047c0,.027-.064.064-.064.064a.4.4,0,0,1-.409,0Z"/><path class="cls-38" d="M109.611,25.451l-.095-.055c.009-.02,1.044-.352,1.044-.352a.068.068,0,0,1,.054,0l.132.077c.009.031-.565.628-.565.628a.359.359,0,0,1-.131-.05c0-.026.12-.154.12-.154l-.291-.168-.222.07A.052.052,0,0,1,109.611,25.451Zm.939-.292-.538.177.239.138.3-.312Z"/><path class="cls-38" d="M110.4,25.9l-.084-.048c0-.027.8-.491.8-.491a2.578,2.578,0,0,1,.354.178c.064.038.1.077.1.12s-.032.081-.1.119l-.111.063a.385.385,0,0,1-.317.039s-.168.266-.168.266c-.008.016-.022.017-.044.005l-.081-.047c-.019-.037.144-.294.144-.294l-.134-.077a3.031,3.031,0,0,0-.32.167A.043.043,0,0,1,110.4,25.9Zm.468-.228.168.1a.181.181,0,0,0,.194,0l.111-.064c.066-.038.065-.075,0-.113l-.167-.1a3.074,3.074,0,0,0-.307.161C110.853,25.665,110.854,25.67,110.863,25.676Z"/><path class="cls-38" d="M111.027,26.243l.8-.464a2.811,2.811,0,0,1,.37.187c.064.037.1.076.1.118s-.031.082-.1.119l-.44.254a.405.405,0,0,1-.2.056.41.41,0,0,1-.206-.057l-.325-.187C111.012,26.26,111.012,26.252,111.027,26.243Zm.233.03.186.108a.18.18,0,0,0,.193,0l.429-.248q.1-.055,0-.111l-.187-.107c-.027,0-.624.344-.624.344S111.25,26.268,111.26,26.273Z"/></g><path class="cls-39" d="M84.614,37.576l-2.181,1.259c-.309.179-.56.073-.56-.237V37.213a1.163,1.163,0,0,1,.56-.883l2.181-1.259c.309-.179.56-.073.56.237v1.385A1.163,1.163,0,0,1,84.614,37.576Z"/><path class="cls-39" d="M88.723,35.2l-2.181,1.26c-.309.178-.56.072-.56-.237V34.841a1.161,1.161,0,0,1,.56-.883L88.723,32.7c.309-.179.56-.073.56.236V34.32A1.16,1.16,0,0,1,88.723,35.2Z"/><path class="cls-39" d="M92.832,32.831,90.651,34.09c-.309.179-.56.073-.56-.237V32.468a1.163,1.163,0,0,1,.56-.883l2.181-1.259c.309-.179.56-.073.56.237v1.385A1.163,1.163,0,0,1,92.832,32.831Z"/><path class="cls-39" d="M84.614,40.718l-2.181,1.26c-.309.178-.56.072-.56-.237V40.356a1.165,1.165,0,0,1,.56-.884l2.181-1.259c.309-.178.56-.072.56.237v1.385A1.161,1.161,0,0,1,84.614,40.718Z"/><path class="cls-39" d="M88.723,38.346,86.542,39.6c-.309.179-.56.073-.56-.237V37.983a1.163,1.163,0,0,1,.56-.883l2.181-1.259c.309-.179.56-.073.56.237v1.385A1.163,1.163,0,0,1,88.723,38.346Z"/><path class="cls-39" d="M92.832,35.973l-2.181,1.26c-.309.178-.56.072-.56-.237V35.611a1.161,1.161,0,0,1,.56-.883l2.181-1.26c.309-.178.56-.072.56.237V35.09A1.161,1.161,0,0,1,92.832,35.973Z"/><path class="cls-39" d="M84.614,43.861,82.433,45.12c-.309.179-.56.073-.56-.237V43.5a1.161,1.161,0,0,1,.56-.883l2.181-1.259c.309-.179.56-.073.56.237v1.385A1.163,1.163,0,0,1,84.614,43.861Z"/><path class="cls-39" d="M88.723,41.488l-2.181,1.259c-.309.179-.56.073-.56-.236V41.126a1.163,1.163,0,0,1,.56-.884l2.181-1.259c.309-.178.56-.072.56.237V40.6A1.161,1.161,0,0,1,88.723,41.488Z"/><path class="cls-39" d="M92.832,39.116l-2.181,1.259c-.309.179-.56.073-.56-.237V38.753a1.163,1.163,0,0,1,.56-.883l2.181-1.259c.309-.179.56-.073.56.236v1.386A1.163,1.163,0,0,1,92.832,39.116Z"/><path class="cls-40" d="M84.614,47l-2.181,1.259c-.309.179-.56.073-.56-.236V46.641a1.163,1.163,0,0,1,.56-.884L84.614,44.5c.309-.178.56-.072.56.237V46.12A1.161,1.161,0,0,1,84.614,47Z"/><path class="cls-39" d="M88.723,44.631,86.542,45.89c-.309.178-.56.073-.56-.237V44.268a1.161,1.161,0,0,1,.56-.883l2.181-1.259c.309-.179.56-.073.56.236v1.386A1.163,1.163,0,0,1,88.723,44.631Z"/><path class="cls-40" d="M92.832,42.258l-2.181,1.259c-.309.179-.56.073-.56-.236V41.9a1.163,1.163,0,0,1,.56-.884l2.181-1.259c.309-.178.56-.072.56.237v1.385A1.161,1.161,0,0,1,92.832,42.258Z"/></g></g></g></svg>