<svg xmlns="http://www.w3.org/2000/svg" xmlns:xlink="http://www.w3.org/1999/xlink" viewBox="0 0 146.348 121.943"><defs><style>.cls-1{fill:none;}.cls-2{isolation:isolate;}.cls-3{fill:#50197c;}.cls-27,.cls-3{opacity:0.4;}.cls-22,.cls-3{mix-blend-mode:multiply;}.cls-4{fill:url(#_ÂÁ_Ï_ÌÌ_È_ËÂÌÚ_95);}.cls-5{fill:url(#_ÂÁ_Ï_ÌÌ_È_ËÂÌÚ_815);}.cls-6{fill:#353131;}.cls-7{fill:#262424;}.cls-8{fill:#191414;}.cls-9{fill:#f6f4f7;}.cls-10{fill:#cbc6cf;}.cls-11,.cls-12{fill:#cfd5d5;}.cls-11{opacity:0.1;}.cls-12{opacity:0.2;}.cls-12,.cls-30{mix-blend-mode:screen;}.cls-13,.cls-26{fill:#cfe9ff;}.cls-13{opacity:0.7;}.cls-14{fill:#83acff;}.cls-15{fill:#ac42e3;}.cls-15,.cls-26{opacity:0.8;}.cls-16{fill:#291b2a;}.cls-17{clip-path:url(#clip-path);}.cls-18{fill:url(#_ÂÁ_Ï_ÌÌ_È_ËÂÌÚ_306);}.cls-19{fill:#dad7d7;}.cls-20{fill:#f8f5f4;}.cls-21{fill:#f3f0f0;}.cls-22,.cls-23{fill:#cfcad4;}.cls-24{fill:#f0f2ff;}.cls-25,.cls-28{fill:#455cba;}.cls-25{opacity:0.5;}.cls-29{fill:#dd5cd2;}.cls-30,.cls-32{fill:#fff;}.cls-31{fill:#788eff;}</style><linearGradient id="_ÂÁ_Ï_ÌÌ_È_ËÂÌÚ_95" x1="35.517" y1="14.092" x2="71.142" y2="65.717" gradientUnits="userSpaceOnUse"><stop offset="0" stop-color="#5917ff"/><stop offset="0.159" stop-color="#6d22f8"/><stop offset="0.485" stop-color="#a13de7"/><stop offset="0.946" stop-color="#f569ca"/><stop offset="1" stop-color="#ff6ec7"/></linearGradient><linearGradient id="_ÂÁ_Ï_ÌÌ_È_ËÂÌÚ_815" x1="-386.336" y1="-724.25" x2="-378.336" y2="-724.25" gradientTransform="matrix(0.5, -0.866, -0.866, -0.5, -384.297, -665.783)" gradientUnits="userSpaceOnUse"><stop offset="0" stop-color="#c0b9c8"/><stop offset="1" stop-color="#f6f4f7"/></linearGradient><clipPath id="clip-path"><polygon class="cls-1" points="49.82 58.699 72.547 45.577 146.348 97.328 108.926 121.943 63.754 114.494 49.82 60.809 49.82 58.699"/></clipPath><linearGradient id="_ÂÁ_Ï_ÌÌ_È_ËÂÌÚ_306" x1="62.424" y1="59.009" x2="65.574" y2="64.466" gradientUnits="userSpaceOnUse"><stop offset="0.502" stop-color="#f8f5f4"/><stop offset="1" stop-color="#e8e5e5"/></linearGradient></defs><g class="cls-2"><g id="_0" data-name="0"><g id="_13" data-name="13"><path class="cls-3" d="M43.631,65.129l-15.454.057a9.322,9.322,0,0,0-4.695,1.079L2.144,78.591c-2.993,1.414-3.056,5.242,1.112,5.23l37.969.012,2.406-1.594Z"/><path class="cls-4" d="M63.877,2.132,39.505,16.2a1.432,1.432,0,0,0-.716,1.24V77.619c0,1.1.553,2.8,2.7,2.353L64.036,67.136A10.462,10.462,0,0,0,68.344,62.5a8.2,8.2,0,0,0,.7-2.442l.06-56.366C69.106,1.318,65.932.946,63.877,2.132Z"/><path class="cls-5" d="M68.082,1.466a3.25,3.25,0,0,0-3.277.32L42.873,14.443a10.116,10.116,0,0,0-4.592,7.949l-.022,58.257A3.221,3.221,0,0,0,39.6,83.6l-1.98-1.155a3.222,3.222,0,0,1-1.343-2.953L36.3,21.237a10.113,10.113,0,0,1,4.591-7.948L62.826.631A3.25,3.25,0,0,1,66.1.311Z"/><path class="cls-6" d="M64.805,1.786,42.873,14.444a10.114,10.114,0,0,0-4.592,7.948l-.023,58.257c.008,2.921,2.078,4.1,4.62,2.634L64.811,70.625A10.122,10.122,0,0,0,69.4,62.676l.023-58.257C69.417,1.5,67.347.319,64.805,1.786Zm4,58.73a2.458,2.458,0,0,1-1.23,2.129L61.1,66.384l-13.528,7.8-7.3,4.211a.8.8,0,0,1-1.2-.694l.008-54.336A10.236,10.236,0,0,1,44.2,14.507l3.162-1.825a.723.723,0,0,1,.546-.073l2.2.574a.629.629,0,0,0,.474-.064l6.728-3.882a.95.95,0,0,0,.262-.223l3.333-4.065a1.087,1.087,0,0,1,.3-.256l4.432-2.558a2.117,2.117,0,0,1,3.175,1.834Z"/><path class="cls-7" d="M56.453,70.392a1.448,1.448,0,0,0-.71.215l-2.46,1.419a2.678,2.678,0,0,0-1.3,2.071V75.39a.835.835,0,0,0,.831.923,1.447,1.447,0,0,0,.71-.216l2.46-1.419a2.675,2.675,0,0,0,1.3-2.07V71.315A.834.834,0,0,0,56.453,70.392Z"/><path class="cls-6" d="M55.7,74.53a2.7,2.7,0,0,0,1.311-2.086v-1.3a.939.939,0,0,0-.292-.717.857.857,0,0,0-.268-.053,1.47,1.47,0,0,0-.715.217l-2.476,1.429A2.7,2.7,0,0,0,51.947,74.1v1.3a.937.937,0,0,0,.292.716.829.829,0,0,0,.268.053,1.459,1.459,0,0,0,.715-.217Z"/><path class="cls-8" d="M56.422,8.65l-3.945,2.277c-.251.146-.455.059-.455-.192a.945.945,0,0,1,.455-.719l3.946-2.277c.251-.145.455-.059.455.193A.944.944,0,0,1,56.422,8.65Z"/><path class="cls-9" d="M37.391,32.33a1.355,1.355,0,0,1,.221.347,1.093,1.093,0,0,1,.1.43V37.95a.4.4,0,0,1-.166.368l-.414.24a.4.4,0,0,0,.166-.368V33.348a1.083,1.083,0,0,0-.1-.43,1.374,1.374,0,0,0-.222-.348,1.007,1.007,0,0,0-.25-.211l-.157-.09a.4.4,0,0,0-.407-.039l.414-.241a.4.4,0,0,1,.407.039l.157.091A1.007,1.007,0,0,1,37.391,32.33Z"/><path class="cls-10" d="M37.3,33.348V38.19c0,.366-.256.511-.574.327l-.157-.091a1.256,1.256,0,0,1-.571-.988V32.6c0-.362.259-.509.574-.327l.157.09A1.259,1.259,0,0,1,37.3,33.348Z"/><path class="cls-9" d="M37.391,24.942a1.355,1.355,0,0,1,.221.347,1.093,1.093,0,0,1,.1.43v4.843a.4.4,0,0,1-.166.368l-.414.24A.4.4,0,0,0,37.3,30.8V25.96a1.087,1.087,0,0,0-.1-.43,1.374,1.374,0,0,0-.222-.348,1.007,1.007,0,0,0-.25-.211l-.157-.09a.4.4,0,0,0-.407-.039l.414-.241a.406.406,0,0,1,.407.039l.157.091A1.007,1.007,0,0,1,37.391,24.942Z"/><path class="cls-10" d="M37.3,25.96V30.8c0,.366-.256.511-.574.327l-.157-.091a1.254,1.254,0,0,1-.571-.988V25.208c0-.362.259-.509.574-.327l.157.09A1.259,1.259,0,0,1,37.3,25.96Z"/><path class="cls-8" d="M50.582,10.991a1.251,1.251,0,0,0-.568.984c0,.362.256.508.571.326a1.251,1.251,0,0,0,.569-.984C51.153,10.955,50.9,10.809,50.582,10.991Z"/><path class="cls-11" d="M50.164,11.872a.927.927,0,0,1,.439-.716c.235-.127.421-.013.414.256a.928.928,0,0,1-.439.717C50.343,12.256,50.157,12.141,50.164,11.872Z"/><path class="cls-11" d="M50.366,11.786a.505.505,0,0,1,.239-.39c.128-.069.228-.007.225.139a.505.505,0,0,1-.239.39C50.463,11.994,50.363,11.932,50.366,11.786Z"/><path class="cls-12" d="M50.512,11.707a.187.187,0,0,1,.088-.144c.048-.026.085,0,.084.051a.186.186,0,0,1-.089.144C50.548,11.784,50.511,11.761,50.512,11.707Z"/><polygon class="cls-13" points="45.462 28.68 45.461 78.508 76.095 60.822 76.096 10.993 45.462 28.68"/><polygon class="cls-14" points="76.096 11.191 45.462 28.878 45.462 21.825 76.096 4.138 76.096 11.191"/><g id="Axonometric_Cube" data-name="Axonometric Cube"><polygon id="Cube_face_-_right" data-name="Cube face - right" class="cls-15" points="72.947 48.869 48.596 62.929 48.596 57.992 72.947 43.933 72.947 48.869"/><polygon class="cls-16" points="49.82 58.699 71.724 46.052 71.724 48.163 49.82 60.809 49.82 58.699"/></g><g class="cls-17"><g class="cls-2"><path class="cls-18" d="M82.1,81.248l-1.062-.613a7.7,7.7,0,0,1-1.892-1.594,10.5,10.5,0,0,1-1.689-2.657,8.166,8.166,0,0,1-.753-3.256l.052-16.023a8.5,8.5,0,0,0-.782-3.387,10.934,10.934,0,0,0-1.752-2.756,8.018,8.018,0,0,0-1.97-1.659L67.14,46.352l-16.179,9.4,5.111,2.951a8,8,0,0,1,1.97,1.659,10.879,10.879,0,0,1,1.752,2.756,8.5,8.5,0,0,1,.782,3.387L60.524,82.53a8.183,8.183,0,0,0,.753,3.256,10.528,10.528,0,0,0,1.689,2.657,7.7,7.7,0,0,0,1.892,1.594l1.063.613a3.062,3.062,0,0,0,3.091.3l16.178-9.4A3.062,3.062,0,0,1,82.1,81.248Z"/><path class="cls-19" d="M71.755,77.755a3.036,3.036,0,0,0-1.271,2.784l-.03,7.724a3.161,3.161,0,0,1-1.32,2.9l16.179-9.4a3.163,3.163,0,0,0,1.319-2.9l.03-7.724a3.04,3.04,0,0,1,1.271-2.784Z"/><path class="cls-20" d="M91.018,68.459a3.185,3.185,0,0,0-3.214-.312l-16.178,9.4a3.185,3.185,0,0,1,3.214.312l13.2,7.621,16.179-9.4Z"/><path class="cls-21" d="M72.164,77.344c-1.112.307-1.847,1.389-1.851,3.1l-.03,7.724c-.008,2.751-1.969,3.868-4.362,2.486l-1.063-.613a9.58,9.58,0,0,1-4.334-7.507l.052-16.023a9.945,9.945,0,0,0-4.5-7.8l-5.111-2.951v.2l5.111,2.95a9.558,9.558,0,0,1,4.334,7.507l-.052,16.023a9.942,9.942,0,0,0,4.505,7.8l1.062.614c2.492,1.438,4.526.279,4.534-2.584l.03-7.724c0-1.643.714-2.686,1.789-2.979C72.233,77.49,72.2,77.416,72.164,77.344Z"/><path class="cls-21" d="M88.039,85.482l-13.2-7.621c-2.492-1.438-4.526-.279-4.534,2.584l0,1.469c.059,0,.113.012.171.016l0-1.386c.008-2.751,1.968-3.868,4.362-2.486l13.2,7.621,16.178-9.4v-.2Z"/></g><path class="cls-22" d="M67.707,63.515l1.265-.731v.3l-1.265.731Zm-1.625,3.333-1.97,1.138v.3l2.333-1.347.808-.467v-.3l-1.171.676Zm1.746-1.9v-.3l-.988.57-.65.375v.3l.65-.375Zm-2.1.912-1.619.935v.3l1.619-.935Zm.837-1.379.68-.393v-.3l-1.171.676-1.955,1.129v.3l2.446-1.412Zm-1.919-.09,1.595-.921v-.3l-1.595.921-.516.3v.3l.516-.3Zm3.184-1.838.512-.3v-.3l-.677.391L66.7,62.9v.3l1.126-.65Zm1.154,2.625-1.265.731v.3l1.265-.73Zm-2.469,5.755-2.4,1.385v.3l2.4-1.386ZM64.133,73.5v.3l.482-.279,2.016-1.164v-.3l-1.713.99Zm4.849-6.393-1.739,1-1.161.671v.3l1.161-.671,1.739-1Zm-.25,3.737L68.3,71.1l-1.2.694v.3l.96-.555.677-.391Zm-3.183-.558-1.434.829v.3l1.434-.828,1.594-.92v-.3l-1.594.92ZM67.607,69.1v.3l.842-.486v-.3Zm-.63,1.864,1.515-.875v-.3l-1.515.875Zm-2.865-.742,1.507-.87v-.3l-1.507.87ZM68.5,73.97l-1.515.875v.3l1.515-.875Zm-.288,2.864.842-.486v-.3l-.842.486Zm-2.23,1.287,1.7-.98v-.3l-1.7.981Zm2.709-3.063-1.5.864v.3l1.5-.864Zm-4.56.539.633-.365,1.865-1.077v-.3l-1.713.989-.785.453Zm2.6.592L64.809,77.3l-.684.395V78l.92-.531,1.688-.975Zm-2.605.609,1.124-.649,1.271-.734v-.3L64.69,76.171l-.562.325Zm-.007,2.4,1.411-.814v-.3l-1.411.814Zm4.611-6.557-.555.32-.122.07-.96.555v.3l.96-.555.122-.07.555-.321Zm4-9.63-1.179.681v.3l1.179-.681Zm-.017-3.584-.709.41v.3l.709-.409Zm-1.172.677-.611.353v.3l.611-.352Zm1.184.514-1.164.673v.3l1.164-.672Zm-1.746,2.206-.5.287v.3l.5-.287Zm.464.034,1.292-.746v-.3l-1.292.747Zm1.266,5.692-1.1.633v.3l1.1-.633Zm.02-1.209-2.073,1.2v.3l2.073-1.2Zm-1.58,2.11-.611.353v.3l.611-.352ZM71.1,67.384l1.627-.939v-.3l-1.627.94Zm.451-1.458,1.179-.681v-.3l-1.179.682ZM70.538,71.9l.611-.353v-.3l-.611.352Zm1.074-.62,1.1-.634v-.3l-1.1.633Zm-.127,2.469,1.232-.712v-.3l-1.232.711Zm-.207-1.079,1.436-.829v-.3l-1.436.829Zm-.464-.034-.582.336v.3l.582-.336Zm1.907,1.3-1.7.985v.3l1.7-.985Zm-1.7-.217-.586.339v.3l.586-.338Zm3.539-11.76-.505.292v.3l.505-.291Zm-.017-3.584-.709.41v.3l.709-.409Zm.012,1.191-.49.283v.3l.49-.283Zm-.608,1.549v.3l.618-.357v-.3Zm.592,6.383-.422.244v.3l.422-.244Zm.019-1.209-.631.365v.3l.631-.365Zm-.279-.735.278-.16v-.3l-.278.161Zm-.224-1.068.505-.292v-.3l-.505.292Zm.062,5.352.422-.244v-.3l-.422.243ZM73.991,72.3l.557-.322v-.3L73.991,72Zm-.208-1.078.762-.44v-.3l-.762.439Zm.768,1.65-.355.206v.3l.355-.2ZM62.359,69.3l.525-.3v-.3l-.525.3Zm-.017-3.584.321-.185v-.3l-.321.185Zm.012,1.191.54-.312v-.3l-.54.312Zm.01.89v.3l.412-.238v-.3Zm-.026,7.042.607-.351v-.3l-.607.351Zm.019-1.209.4-.23v-.3l-.4.23Zm.75-1.933-.751.434v.3L63.107,72Zm-.223-1.069-.525.3v.3l.525-.3Zm.061,5.353-.607.351v.3l.607-.351Zm-.127,2.469-.472.273v.3l.472-.273Zm-.207-1.079-.268.155v.3l.268-.155Zm-.262,2.849.674-.389v-.3l-.674.389Z"/><path class="cls-23" d="M83.256,75l1.185-.684.282.163-1.184.684Zm.722,2.174-1.845,1.065.282.163L84.6,77.136l.757-.437-.282-.163-1.1.633Zm.8-1.428-.282-.164-.925.534-.609.352.283.163.608-.351Zm-2.25.972-1.517.876.283.163,1.517-.875Zm-.055-.937.637-.367-.283-.163-1.1.633-1.831,1.057.283.163,2.291-1.323Zm-2.919.39,1.493-.862-.282-.163L79.267,76l-.483.279.282.163.483-.279Zm2.981-1.721.48-.277-.283-.163-.633.366-.9.52.282.163,1.054-.609ZM86.693,75.6l-1.184.684.282.163,1.185-.684Zm1.742,3.675-2.247,1.3.283.163,2.247-1.3Zm-1.107,1.935.283.163.451-.261,1.888-1.09-.283-.163-1.6.926ZM88.5,76.646l-1.628.94-1.088.628.283.163,1.087-.628,1.628-.94Zm3.131,2.078-.408.236-1.126.649.283.164.9-.52.634-.366Zm-5.224.426-1.343.775.282.163,1.344-.775,1.493-.862-.283-.163-1.493.862Zm1.927-1.113.283.163.788-.455-.283-.163Zm.814,1.152,1.419-.82-.282-.163-1.42.819Zm-4.926.253,1.411-.814-.283-.163-1.411.814Zm5.065,2.9L89.883,82l1.747-1.009-.282-.163-1.605.926-.735.425Zm4.024-2.65-.519.3-.115.066-.9.519.282.164.9-.52.114-.066.52-.3ZM90.2,73.574l-1.1.638.282.163,1.105-.637Zm-3.38-1.933-.664.383.282.163.664-.383Zm-1.1.634-.572.33.282.163.572-.33Zm2.23.007-1.09.63.282.163,1.091-.63Zm-.513,1.591-.466.269.283.164.466-.269Zm.717-.087,1.21-.7-.283-.163-1.21.7Zm7.2,2.788-1.027.593.282.163,1.028-.593Zm-1.1-.658-1.941,1.12.282.164,1.941-1.121Zm-.358,1.5-.572.33.283.163.571-.33Zm-2.007-1.106,1.524-.88-.282-.163-1.524.88Zm-.7-.891,1.1-.638-.282-.163-1.1.637Zm4.1,3.46.572-.33-.283-.163-.572.33ZM96.3,78.3l1.027-.593-.283-.163-1.027.593Zm-4.377-5.715-.473.273.282.163.473-.273Zm-3.381-1.934-.664.383.283.163.663-.383Zm1.132.641-.458.265.282.163.459-.265Zm.553.976.283.164.578-.334-.282-.164Zm6.851,3.316-.395.228.282.164.4-.229Zm-1.1-.658-.592.342.283.163.591-.342Zm-1.1-.333.261-.151-.283-.163-.261.151Zm-1.331-.527.473-.273-.283-.163-.473.273Zm5.1,2.88.395-.229-.283-.163-.395.229Zm-17.867,2.4.492-.284-.283-.163-.492.284Zm-3.381-1.934.3-.173-.283-.164-.3.174Zm1.133.641.506-.292-.283-.163-.506.292Zm.849.479.282.163.386-.222-.283-.163Zm6.555,3.813.569-.328-.283-.163-.569.328Zm-1.1-.658.373-.215-.283-.163-.372.215Zm-.7-1.216-.7.406.282.163.7-.406Zm-1.332-.527-.491.284.283.163.491-.284Zm5.1,2.88-.569.328.283.163.569-.328Z"/></g><path class="cls-24" d="M47.708,26.183l-.53.307c-.088.05-.131.032-.131-.056V22.682a.231.231,0,0,1,.131-.207L48.7,21.6a.908.908,0,0,1,.756-.171q.269.111.268.6v.6a1.654,1.654,0,0,1-.268.907,2.145,2.145,0,0,1-.756.7l-.786.454a.128.128,0,0,0-.076.113v1.18A.228.228,0,0,1,47.708,26.183Zm.2-2.188.662-.382a.775.775,0,0,0,.281-.247.6.6,0,0,0,.081-.324v-.524c0-.134-.027-.213-.081-.238s-.148,0-.281.078l-.662.382a.122.122,0,0,0-.069.109v1.117C47.839,24.012,47.862,24.022,47.908,24Z"/><path class="cls-24" d="M50.774,24.413l-.6.347c-.075.043-.1.013-.075-.088l.986-4.322a.392.392,0,0,1,.188-.24l.83-.479c.1-.06.167-.052.187.023l.987,3.183a.135.135,0,0,1-.075.174l-.6.346c-.045.027-.076.035-.093.026s-.029-.036-.038-.081l-.175-.586-1.217.7-.175.788a.339.339,0,0,1-.04.126A.251.251,0,0,1,50.774,24.413Zm.906-3.781L51.23,22.7l.924-.534-.449-1.545Z"/><path class="cls-24" d="M55.307,21.8l-.531.307c-.087.05-.131.032-.131-.055V20.711L53.5,18.961a.1.1,0,0,1,0-.1.212.212,0,0,1,.084-.089l.662-.382a.1.1,0,0,1,.15.045l.624,1.156.044-.025.611-1.87a.343.343,0,0,1,.15-.218l.662-.382c.042-.024.072-.029.091-.015s.017.049,0,.1l-1.142,3.069V21.59A.23.23,0,0,1,55.307,21.8Z"/><path class="cls-24" d="M59.727,15.23l.924-.534c.088-.05.131-.032.131.056V18.5a.23.23,0,0,1-.131.207l-.511.3c-.088.051-.132.032-.132-.055V15.992c-.024.014-.662,2.473-.662,2.473a.328.328,0,0,1-.156.215l-.524.3c-.079.046-.131.034-.156-.035l-.649-1.723c-.026.015-.026,2.981-.026,2.981a.229.229,0,0,1-.025.117.268.268,0,0,1-.106.089l-.511.3c-.088.05-.132.032-.132-.056V16.9a.232.232,0,0,1,.132-.207l.93-.537c.058-.033.1-.027.118.019L58.9,18c.037-.022.706-2.611.706-2.611A.224.224,0,0,1,59.727,15.23Z"/><path class="cls-24" d="M63.767,16.912l-2.042,1.179c-.087.05-.131.032-.131-.056V14.283a.233.233,0,0,1,.131-.207L63.767,12.9c.083-.049.125-.029.125.058v.425a.225.225,0,0,1-.125.2l-1.3.753a.129.129,0,0,0-.075.113v.811c0,.047.025.054.075.025l1.068-.616c.087-.05.131-.032.131.056v.424a.23.23,0,0,1-.131.207l-1.068.616a.129.129,0,0,0-.075.112v.868c0,.046.025.054.075.025l1.3-.753c.083-.048.125-.028.125.059v.425A.225.225,0,0,1,63.767,16.912Z"/><path class="cls-24" d="M65.234,16.065l-.518.3c-.087.051-.131.032-.131-.055V12.556a.23.23,0,0,1,.131-.206l.468-.271c.087-.05.146-.055.175-.013L66.62,13.7c.025-.015.025-2.337.025-2.337a.23.23,0,0,1,.131-.207l.519-.3c.087-.051.131-.032.131.055v3.753a.23.23,0,0,1-.131.206l-.456.263c-.092.054-.159.05-.2-.009l-1.249-1.6c-.025.015-.025,2.331-.025,2.331A.231.231,0,0,1,65.234,16.065Z"/><path class="cls-24" d="M69.479,13.614l-.524.3c-.091.052-.137.035-.137-.052V10.737c0-.046-.023-.056-.069-.029l-.712.41c-.087.051-.131.033-.131-.055v-.424a.233.233,0,0,1,.131-.207L70.4,9.07c.088-.051.131-.032.131.055v.424a.229.229,0,0,1-.131.207l-.711.411a.126.126,0,0,0-.075.112v3.128A.232.232,0,0,1,69.479,13.614Z"/><polygon id="Cube_face_-_right-2" data-name="Cube face - right" class="cls-25" points="74.547 36.695 47.259 52.45 47.259 30.138 74.547 14.383 74.547 36.695"/><g id="Axonometric_Cube-2" data-name="Axonometric Cube"><polygon id="Cube_face_-_right-3" data-name="Cube face - right" class="cls-26" points="78.365 38.9 51.077 54.654 51.077 32.342 78.365 16.588 78.365 38.9"/><polygon class="cls-25" points="78.07 16.417 50.782 32.172 50.782 54.484 51.077 54.654 51.077 32.342 78.365 16.588 78.07 16.417"/></g><g class="cls-27"><path class="cls-28" d="M77.625,32.83c0-1.3-.909-1.822-2.028-1.18l-7.154,4.1a4.451,4.451,0,0,0-2.022,3.5v2.9c0,1.3.9,1.825,2.022,1.183l7.154-4.1a4.462,4.462,0,0,0,2.028-3.507Z"/></g><g class="cls-2"><path class="cls-13" d="M80.919,33.758,70.912,45.724l-.421-.249a1.433,1.433,0,0,1-.6-1.323v-2.9a4.453,4.453,0,0,1,2.023-3.5l7.154-4.1a1.427,1.427,0,0,1,1.429-.139Z"/><path class="cls-29" d="M79.49,33.9,72.336,38a4.45,4.45,0,0,0-2.022,3.5v2.9c0,1.3.9,1.825,2.022,1.183l7.154-4.1a4.461,4.461,0,0,0,2.028-3.506v-2.9C81.518,33.781,80.609,33.256,79.49,33.9Z"/></g><path class="cls-30" d="M72.473,43.906l-.491.284c-.081.046-.121.031-.121-.046v-3.5a.214.214,0,0,1,.121-.192l.491-.283c.081-.047.121-.03.121.051v.191a1.377,1.377,0,0,1,.249-.378,1.532,1.532,0,0,1,.341-.275l.237-.137c.3-.171.521-.219.673-.145s.229.263.229.567V41.11a1.561,1.561,0,0,1-.229.832,1.852,1.852,0,0,1-.673.631l-.237.137a.839.839,0,0,1-.341.118.207.207,0,0,1-.225-.1c-.024.013-.024.995-.024.995A.21.21,0,0,1,72.473,43.906Zm.52-1.722.255-.147a.75.75,0,0,0,.263-.229.568.568,0,0,0,.078-.308v-.994c0-.124-.026-.2-.078-.218s-.14,0-.263.073l-.255.147a.734.734,0,0,0-.4.67v.8C72.594,42.268,72.728,42.338,72.993,42.184Zm2.941-1.062-.138.08a.864.864,0,0,1-.705.164q-.249-.1-.249-.556V39.747a1.528,1.528,0,0,1,.249-.843,2.011,2.011,0,0,1,.705-.65l1.335-.77c.085-.049.127-.033.127.048v2.7a.219.219,0,0,1-.127.2l-.485.28c-.081.047-.122.03-.122-.051v-.191a1.355,1.355,0,0,1-.249.378A1.488,1.488,0,0,1,75.934,41.122Zm.59-1.416V38.533c0-.042-.023-.05-.069-.023l-.544.314a.728.728,0,0,0-.26.228.58.58,0,0,0-.074.306v.994c0,.123.025.2.074.22s.137,0,.26-.073l.214-.123A.731.731,0,0,0,76.524,39.706Zm1.849.984L78,40.9c-.077.045-.115.024-.115-.061v-.387A.209.209,0,0,1,78,40.263l.122-.07a1.681,1.681,0,0,0,.494-.387,1.305,1.305,0,0,0,.2-.5l-.306.176c-.073.043-.121.03-.145-.037l-.675-2.159c-.024-.067.005-.124.086-.171l.515-.3c.076-.044.125-.032.144.038l.5,1.846c.023-.014.514-2.43.514-2.43a.284.284,0,0,1,.145-.205l.485-.28c.1-.055.135-.035.116.061l-.7,3.227a2.9,2.9,0,0,1-.393.955A2.111,2.111,0,0,1,78.373,40.69Z"/><path class="cls-31" d="M53.037,34.364l-.306.176a.325.325,0,0,1-.278.059c-.067-.029-.1-.1-.1-.227v-.906a.635.635,0,0,1,.1-.343.79.79,0,0,1,.278-.263l.306-.176a.324.324,0,0,1,.278-.058c.068.03.1.105.1.225v.907a.63.63,0,0,1-.1.342A.793.793,0,0,1,53.037,34.364Zm-.285,0,.262-.151a.389.389,0,0,0,.215-.352v-.891c0-.151-.072-.186-.215-.1l-.262.151a.386.386,0,0,0-.213.351v.89Q52.539,34.484,52.752,34.361Zm1.17-.509-.116.067c-.024.014-.035.009-.035-.016V32.644a.063.063,0,0,1,.035-.057l.116-.067c.024-.014.036-.008.036.016v.1a.768.768,0,0,1,.108-.161.658.658,0,0,1,.169-.14l.1-.057c.022-.013.033-.007.033.017v.1a.7.7,0,0,1-.171.133.463.463,0,0,0-.178.173.445.445,0,0,0-.061.228V33.8A.062.062,0,0,1,53.922,33.852Zm1.172-.676-.151.087a.305.305,0,0,1-.272.055c-.065-.03-.1-.106-.1-.228v-.559a.636.636,0,0,1,.1-.341.753.753,0,0,1,.272-.259l.151-.088c.134-.077.222-.081.265-.014.01-.006.01-.612.01-.612a.062.062,0,0,1,.033-.056l.118-.068c.023-.013.034-.007.034.017v1.764a.061.061,0,0,1-.034.056L55.4,33q-.033.02-.033-.018v-.1A.618.618,0,0,1,55.094,33.176Zm.275-.566v-.518c0-.076-.021-.124-.062-.142a.208.208,0,0,0-.177.04l-.156.09a.385.385,0,0,0-.213.35v.544c0,.151.071.186.213.1l.156-.09a.5.5,0,0,0,.177-.165A.4.4,0,0,0,55.369,32.61Zm1.437-.423-.544.314a.324.324,0,0,1-.279.059c-.067-.029-.1-.1-.1-.226v-.559a.635.635,0,0,1,.1-.343.793.793,0,0,1,.279-.263l.215-.124a.321.321,0,0,1,.278-.058c.066.029.1.105.1.227v.331a.066.066,0,0,1-.036.06l-.726.419a.63.63,0,0,0-.026.2c0,.152.072.186.215.1l.524-.3c.024-.014.036-.009.036.016v.094A.061.061,0,0,1,56.806,32.187Zm-.713-.3.554-.32a.046.046,0,0,0,.026-.041v-.2c0-.15-.072-.183-.216-.1l-.175.1a.385.385,0,0,0-.215.349v.2C56.067,31.892,56.076,31.9,56.093,31.886Zm1.229,0-.116.066c-.024.014-.036.009-.036-.016V30.681a.064.064,0,0,1,.036-.057l.116-.067c.023-.013.036-.008.036.016v.105a.807.807,0,0,1,.107-.162.655.655,0,0,1,.17-.139l.1-.058c.022-.013.033-.007.033.017v.1a.7.7,0,0,1-.172.133.467.467,0,0,0-.177.173.449.449,0,0,0-.061.229v.864A.066.066,0,0,1,57.322,31.89ZM58.7,29.929l-.141.081c-.024.014-.036.01-.036-.013v-.1a.064.064,0,0,1,.036-.058l.141-.081a1.042,1.042,0,0,0,.026-.263.063.063,0,0,1,.036-.057l.115-.067c.023-.013.034-.007.034.017v.225a2,2,0,0,0,.3-.15c.026-.015.039-.01.039.014v.1a.064.064,0,0,1-.039.056l-.272.157a.046.046,0,0,0-.028.04v.752c0,.148.075.179.226.092l.1-.058c.025-.014.038-.01.038.015v.1a.064.064,0,0,1-.038.056l-.123.072a.346.346,0,0,1-.283.062c-.07-.027-.1-.1-.1-.22v-.76C58.725,29.922,58.716,29.919,58.7,29.929Zm1.422.345L59.9,30.4a.325.325,0,0,1-.278.059c-.068-.029-.1-.105-.1-.226v-.56a.63.63,0,0,1,.1-.343.779.779,0,0,1,.278-.262l.221-.128a.329.329,0,0,1,.278-.059c.068.029.1.1.1.227v.559a.628.628,0,0,1-.1.343A.791.791,0,0,1,60.121,30.274Zm-.2-.052.179-.1a.385.385,0,0,0,.216-.349v-.548c0-.15-.072-.184-.216-.1l-.179.1a.385.385,0,0,0-.216.349v.549C59.705,30.271,59.777,30.305,59.921,30.222Zm.957-1.551-.141.082c-.024.014-.036.009-.036-.013v-.1a.063.063,0,0,1,.036-.057l.141-.082a1.083,1.083,0,0,0,.025-.263.064.064,0,0,1,.036-.057l.116-.067q.033-.02.033.018v.224a2,2,0,0,0,.3-.15c.026-.014.039-.01.039.015v.1a.066.066,0,0,1-.039.057l-.272.157a.046.046,0,0,0-.028.039v.753c0,.148.075.178.226.092l.1-.058c.026-.015.038-.01.038.014v.1a.064.064,0,0,1-.038.056l-.123.071a.343.343,0,0,1-.282.062c-.071-.026-.106-.1-.106-.22v-.76C60.9,28.665,60.9,28.662,60.878,28.671Zm1.334.395-.133.077a.327.327,0,0,1-.279.059c-.067-.029-.1-.1-.1-.226v-.559a.632.632,0,0,1,.1-.343.785.785,0,0,1,.279-.263l.556-.322c.024-.013.036-.008.036.016v1.259a.064.064,0,0,1-.036.058l-.115.066q-.036.021-.036-.015v-.1A.613.613,0,0,1,62.212,29.066Zm.272-.564v-.734a3.141,3.141,0,0,0-.385.2.385.385,0,0,0-.213.35v.544c0,.151.071.186.213.1l.146-.084a.5.5,0,0,0,.177-.165A.4.4,0,0,0,62.484,28.5Zm.7,0-.115.066q-.036.021-.036-.015V26.789a.064.064,0,0,1,.036-.057l.116-.067c.024-.014.035-.008.035.016v1.763A.062.062,0,0,1,63.189,28.5Z"/><path class="cls-32" d="M53.466,39.279l-.272.157c-.064.037-.1.023-.1-.042v-.356c-.263.152-.442.188-.57.128s-.193-.208-.193-.446v-.087a.169.169,0,0,1,.095-.153l.386-.223c.063-.036.095-.022.095.043,0,.149.023.216.068.233s.129-.01.25-.079l.182-.105a.7.7,0,0,0,.247-.213.549.549,0,0,0,.071-.3v-.07c0-.077-.023-.124-.068-.141a.242.242,0,0,0-.159,0c-.055.019-.162.067-.32.144a2.469,2.469,0,0,1-.357.147.633.633,0,0,1-.241.022c-.17-.013-.254-.182-.254-.506v-.171a1.24,1.24,0,0,1,.193-.673,1.526,1.526,0,0,1,.543-.51A1.631,1.631,0,0,0,53.1,35.7a.168.168,0,0,1,.1-.152l.272-.157q.1-.055.1.042V35.8c.224-.129.394-.159.518-.1s.186.214.186.448v.088a.169.169,0,0,1-.095.152l-.387.223c-.063.037-.095.023-.095-.042,0-.149-.022-.217-.066-.235s-.128.009-.252.081l-.145.084a.684.684,0,0,0-.252.217.623.623,0,0,0-.066.318v.092c0,.068.022.108.068.121a.255.255,0,0,0,.154-.013q.1-.039.339-.156a2.016,2.016,0,0,1,.359-.147.62.62,0,0,1,.238-.016c.16.025.241.188.241.49v.176a1.24,1.24,0,0,1-.2.674,1.525,1.525,0,0,1-.538.51c-.009.005-.009.361-.009.361A.169.169,0,0,1,53.466,39.279ZM54.73,38v-.44a1.023,1.023,0,0,1,.222-.577l.836-1.2a.91.91,0,0,0,.2-.488v-.139q0-.142-.066-.168c-.043-.016-.115,0-.215.063l-.159.091a.573.573,0,0,0-.2.181.454.454,0,0,0-.059.24v.148a.173.173,0,0,1-.095.157l-.386.223c-.064.036-.1.021-.1-.047v-.157a1.215,1.215,0,0,1,.2-.668,1.566,1.566,0,0,1,.554-.514l.345-.2a.662.662,0,0,1,.554-.125q.2.081.2.442V35a1.331,1.331,0,0,1-.272.754l-.854,1.233a.275.275,0,0,0-.055.142v.074l1.086-.627c.064-.036.095-.022.095.043v.323a.169.169,0,0,1-.095.153l-1.635.944C54.761,38.078,54.73,38.064,54.73,38Zm3.47-1.907-.454.262a.667.667,0,0,1-.554.126q-.2-.081-.2-.447V34.568a1.218,1.218,0,0,1,.2-.672,1.577,1.577,0,0,1,.554-.515l.454-.262A.653.653,0,0,1,58.749,33q.2.084.2.445v1.466a1.226,1.226,0,0,1-.2.67A1.557,1.557,0,0,1,58.2,36.093Zm-.359-.3.268-.154a.563.563,0,0,0,.2-.181.464.464,0,0,0,.059-.244V33.8c0-.1-.02-.157-.059-.176s-.108,0-.2.055l-.268.155a.551.551,0,0,0-.2.181.452.452,0,0,0-.059.244v1.411c0,.1.019.157.059.176S57.744,35.847,57.841,35.791Zm2.794-1.1-.455.263a.662.662,0,0,1-.554.125q-.195-.081-.2-.447V33.162a1.23,1.23,0,0,1,.2-.672,1.561,1.561,0,0,1,.555-.514l.454-.263a.648.648,0,0,1,.549-.12q.2.084.2.444V33.5a1.229,1.229,0,0,1-.2.671A1.545,1.545,0,0,1,60.635,34.687Zm-.359-.3.268-.155a.558.558,0,0,0,.2-.18.458.458,0,0,0,.059-.245V32.4c0-.1-.019-.157-.059-.176s-.107,0-.2.056l-.268.154a.573.573,0,0,0-.205.181.464.464,0,0,0-.059.244v1.411c0,.1.02.158.059.176S60.179,34.442,60.276,34.386Zm2.1-1.372v.569a.159.159,0,0,1-.087.147l-.4.233c-.06.035-.091.021-.091-.044v-.564a.162.162,0,0,1,.091-.145l.4-.234C62.35,32.943,62.379,32.956,62.379,33.014ZM64,32.746l-.454.263a.662.662,0,0,1-.554.125q-.2-.081-.2-.446V31.222a1.224,1.224,0,0,1,.2-.673,1.566,1.566,0,0,1,.554-.514L64,29.773a.648.648,0,0,1,.55-.121q.195.084.195.444v1.466a1.237,1.237,0,0,1-.195.671A1.54,1.54,0,0,1,64,32.746Zm-.359-.3.268-.155a.571.571,0,0,0,.2-.18.465.465,0,0,0,.059-.245v-1.41c0-.1-.02-.158-.059-.177s-.108,0-.2.056l-.268.155a.558.558,0,0,0-.2.18.456.456,0,0,0-.059.245v1.41c0,.1.019.158.059.177S63.54,32.5,63.637,32.445Zm2.794-1.1-.454.262a.668.668,0,0,1-.554.126q-.2-.081-.2-.447V29.816a1.224,1.224,0,0,1,.2-.673,1.566,1.566,0,0,1,.554-.514l.454-.262a.649.649,0,0,1,.549-.121q.2.084.2.445v1.466a1.226,1.226,0,0,1-.2.67A1.557,1.557,0,0,1,66.431,31.341Zm-.359-.3.268-.154a.56.56,0,0,0,.2-.181.455.455,0,0,0,.06-.244V29.049c0-.1-.02-.157-.059-.176s-.108,0-.2.055l-.268.155a.558.558,0,0,0-.2.18.459.459,0,0,0-.06.245v1.411c0,.1.02.157.06.176S65.975,31.1,66.072,31.039Z"/><path class="cls-31" d="M69.093,24.589A2.494,2.494,0,0,1,67.9,26.494c-.66.381-1.2.146-1.2-.526a2.5,2.5,0,0,1,1.2-1.906C68.558,23.681,69.093,23.917,69.093,24.589Z"/><polygon class="cls-26" points="68.775 24.597 68.071 25.004 68.071 24.287 67.727 24.486 67.727 25.202 67.023 25.609 67.023 25.959 67.727 25.553 67.727 26.27 68.071 26.071 68.071 25.354 68.775 24.948 68.775 24.597"/><path class="cls-31" d="M70.161,24.74V23.052a.065.065,0,0,1,.037-.059l.664-.383a.336.336,0,0,1,.292-.061c.071.031.107.11.107.236v.952a.663.663,0,0,1-.107.359.83.83,0,0,1-.292.278l-.664.383C70.173,24.771,70.161,24.765,70.161,24.74Zm.224-.266.453-.262a.406.406,0,0,0,.226-.369v-.936c0-.159-.075-.2-.226-.108l-.453.261a.049.049,0,0,0-.028.041v1.364C70.357,24.481,70.367,24.484,70.385,24.474Z"/><path class="cls-31" d="M72.576,23.384l-.572.33a.344.344,0,0,1-.292.062c-.071-.03-.107-.11-.107-.238v-.587a.661.661,0,0,1,.107-.36A.825.825,0,0,1,72,22.315l.227-.131a.336.336,0,0,1,.29-.061c.071.031.105.111.105.239v.348a.068.068,0,0,1-.037.063l-.762.44a.046.046,0,0,0-.028.041v.167c0,.159.076.2.227.108l.55-.318c.025-.014.037-.009.037.017v.1A.064.064,0,0,1,72.576,23.384Zm-.749-.316.581-.336a.049.049,0,0,0,.027-.043v-.212c0-.157-.075-.192-.226-.105l-.183.106a.405.405,0,0,0-.227.367v.211C71.8,23.074,71.808,23.078,71.827,23.068Z"/><path class="cls-31" d="M73.01,21.91,72.861,22c-.025.014-.038.01-.038-.014v-.1a.068.068,0,0,1,.038-.06l.149-.086a.044.044,0,0,0,.026-.04v-.236a.067.067,0,0,1,.038-.06l.121-.07c.024-.013.036-.008.036.018v.236a2.054,2.054,0,0,0,.315-.157c.027-.016.04-.011.04.015v.1a.067.067,0,0,1-.04.059l-.286.165a.05.05,0,0,0-.029.042v.79c0,.156.078.188.236.1l.106-.061c.027-.016.041-.011.041.015v.1a.068.068,0,0,1-.041.059l-.13.075a.36.36,0,0,1-.3.066c-.073-.028-.111-.105-.111-.232v-.8C73.036,21.9,73.028,21.9,73.01,21.91Z"/><path class="cls-31" d="M74.411,22.324l-.14.082a.342.342,0,0,1-.293.061c-.071-.03-.106-.109-.106-.237v-.587a.661.661,0,0,1,.106-.361.828.828,0,0,1,.293-.276l.585-.337c.025-.015.037-.009.037.016v1.323a.066.066,0,0,1-.037.06l-.122.07c-.025.015-.037.009-.037-.017v-.107A.647.647,0,0,1,74.411,22.324Zm.286-.593v-.77a3.322,3.322,0,0,0-.405.208.405.405,0,0,0-.223.368v.571c0,.159.074.2.223.11l.154-.089a.525.525,0,0,0,.185-.173A.41.41,0,0,0,74.7,21.731Z"/><path class="cls-31" d="M75.279,20.194v-.258a.064.064,0,0,1,.034-.058l.125-.072c.025-.015.038-.009.038.016v.258a.066.066,0,0,1-.038.06l-.125.072C75.291,20.225,75.279,20.219,75.279,20.194Zm0,1.591V20.463a.065.065,0,0,1,.034-.059l.125-.071c.025-.015.038-.01.038.016v1.323a.068.068,0,0,1-.038.06l-.121.07C75.292,21.816,75.279,21.811,75.279,21.785Z"/><path class="cls-31" d="M76.033,21.388l-.121.07c-.025.015-.038.009-.038-.016V19.59a.069.069,0,0,1,.038-.061l.121-.07c.025-.014.038-.009.038.017v1.852A.066.066,0,0,1,76.033,21.388Z"/><path class="cls-31" d="M76.922,20.875l-.479.277c-.026.014-.038.009-.038-.017v-.1a.065.065,0,0,1,.038-.058l.452-.261c.14-.081.21-.174.21-.28v-.052c0-.1-.046-.137-.137-.122l-.318.047a.266.266,0,0,1-.2-.022.208.208,0,0,1-.059-.173.621.621,0,0,1,.363-.547l.443-.256c.025-.014.038-.009.038.017v.1a.064.064,0,0,1-.038.057l-.407.235a.467.467,0,0,0-.147.126.229.229,0,0,0-.05.125c0,.123.051.152.153.134l.318-.039c.094-.017.157,0,.191.036a.365.365,0,0,1,.049.221A.643.643,0,0,1,76.922,20.875Z"/><path class="cls-32" d="M59.516,39.456l1.674-.967v.4l-1.674.967Zm-2.151,4.413-2.608,1.506v.4l3.088-1.784,1.07-.617v-.4l-1.55.9Zm2.311-2.52v-.4l-1.308.755-.86.5v.4l.86-.5Zm-2.782,1.206L54.75,43.793v.4l2.144-1.238ZM58,40.73l.9-.52v-.4l-1.55.895-2.589,1.5v.4L58,40.73Zm-2.54-.119,2.11-1.219v-.4l-2.11,1.219-.683.394v.4l.683-.4Zm4.214-2.433.678-.392v-.4l-.9.518-1.272.734v.4l1.49-.86ZM61.2,41.653l-1.675.967v.4l1.675-.966Zm0,2.559-2.3,1.329-1.537.888v.4l1.537-.887,2.3-1.329Zm-4.545,4.21-1.9,1.1v.4l1.9-1.1L58.77,47.6v-.4l-2.111,1.219Zm2.725-1.573v.4l1.114-.644v-.4Zm-4.627,1.485,1.994-1.151v-.4l-1.994,1.152Zm10.889-9.246-1.042.6v.4l1.042-.6Zm-.022-4.744-.419.242v.4l.419-.242Zm-1.033.6-.808.467v.4l.808-.466Zm1.048.981-1.022.59v.4l1.022-.59Zm-1.791,2.62-.659.38v.4l.659-.38Zm.613.045,1.192-.688v-.4l-1.192.687Zm-.454,5.993,1.635-.944v-.4l-1.635.943Zm.6-1.93,1.042-.6v-.4l-1.042.6Zm3.443-9.7-.938.542v.4l.938-.542Zm.016,1.576-.649.375v.4l.649-.374ZM52.436,47.114l.7-.4v-.4l-.7.4Zm-.022-4.744.425-.245v-.4l-.425.245Zm.015,1.577.715-.413v-.4l-.715.412Zm.014,1.178v.4l.545-.315v-.4Zm.984,5.163-.995.574v.4l.995-.575Zm-.3-1.415-.7.4v.4l.7-.4Z"/><path class="cls-32" d="M71.373,32.611l1.674-.967v.4l-1.674.967Zm-1.514,1.273.9-.52v-.4l-1.55.895L66.62,35.354v.4l3.239-1.87Zm-2.54-.119,2.11-1.219v-.4l-2.11,1.218-.683.395v.4l.683-.394Zm4.214-2.433.678-.392v-.4l-.9.517-1.272.735v.4l1.49-.86ZM77.481,27.5l-.419.242v.4l.419-.242Zm-1.033.6-.808.467v.4l.808-.467Zm1.048.981-1.022.59v.4l1.022-.59Z"/></g></g></g></svg>