<svg xmlns="http://www.w3.org/2000/svg" xmlns:xlink="http://www.w3.org/1999/xlink" viewBox="0 0 85.067 76.751"><defs><style>.cls-1{isolation:isolate;}.cls-2{fill:#50197c;opacity:0.4;mix-blend-mode:multiply;}.cls-3{fill:url(#_ÂÁ_Ï_ÌÌ_È_ËÂÌÚ_95);}.cls-4{fill:url(#_ÂÁ_Ï_ÌÌ_È_ËÂÌÚ_6);}.cls-5{fill:#353131;}.cls-6{fill:#c5bfcd;}.cls-7{fill:#f6f4f7;}.cls-8{fill:#262424;}.cls-9{fill:#191414;}.cls-10,.cls-11{fill:#c6c6c6;}.cls-10{opacity:0.1;}.cls-11{opacity:0.2;}.cls-11,.cls-21{mix-blend-mode:screen;}.cls-12{fill:#cfe9ff;opacity:0.7;}.cls-13,.cls-19{fill:#788eff;}.cls-14{fill:#ffca8c;}.cls-15{fill:#fcb67c;}.cls-16{fill:#662ac6;}.cls-17{fill:#282525;}.cls-18,.cls-21{fill:#fff;}.cls-19{opacity:0.6;}.cls-20{fill:#dd5cd2;}.cls-22{fill:#cfcad4;}</style><linearGradient id="_ÂÁ_Ï_ÌÌ_È_ËÂÌÚ_95" x1="79.624" y1="1.124" x2="45.329" y2="76.709" gradientUnits="userSpaceOnUse"><stop offset="0" stop-color="#5917ff"/><stop offset="0.159" stop-color="#6d22f8"/><stop offset="0.485" stop-color="#a13de7"/><stop offset="0.946" stop-color="#f569ca"/><stop offset="1" stop-color="#ff6ec7"/></linearGradient><linearGradient id="_ÂÁ_Ï_ÌÌ_È_ËÂÌÚ_6" x1="58.799" y1="25.618" x2="56.933" y2="28.85" gradientUnits="userSpaceOnUse"><stop offset="0" stop-color="#f6f4f7"/><stop offset="1" stop-color="#c0b9c8"/></linearGradient></defs><g class="cls-1"><g id="_0" data-name="0"><g id="_8" data-name="8"><path class="cls-2" d="M34.48,56.362a2.208,2.208,0,0,0-1.1.295L.42,75.686c-.125.072-.55.243-.381.469a1.85,1.85,0,0,0,.806.218H46.964L62.722,56.362Z"/><path class="cls-3" d="M45.849,73.76l-.1-53.508L78.689,1.234c1.1-.873,2.149-.349,2.15.629l.018,51.959a7.933,7.933,0,0,1-1.578,2.6l-32.1,18.512C46.285,75.189,45.848,74.261,45.849,73.76Z"/><path class="cls-4" d="M80.341.681a1.546,1.546,0,0,0-1.559.154l-31,17.941a4.816,4.816,0,0,0-2.18,3.785l.057,52.408a1.535,1.535,0,0,0,.641,1.4l-.92-.534a1.535,1.535,0,0,1-.641-1.4l-.057-52.408a4.816,4.816,0,0,1,2.18-3.785L77.862.3A1.546,1.546,0,0,1,79.421.147Z"/><path class="cls-5" d="M78.782.835l-31,17.941a4.816,4.816,0,0,0-2.18,3.785l.057,52.408c.006,1.39.991,1.95,2.2,1.25l31-17.941a4.814,4.814,0,0,0,2.18-3.784L80.981,2.086C80.976.7,79.991.136,78.782.835ZM48.156,19.1l31-17.938a.94.94,0,0,1,1.412.813l.049,51.354a1.421,1.421,0,0,1-.708,1.229L46.994,73.6a.592.592,0,0,1-.889-.512l-.047-50.35A4.2,4.2,0,0,1,48.156,19.1Z"/><path class="cls-6" d="M45.192,30.435l0,3.988c0,.189-.132.265-.3.17l-.082-.047a.653.653,0,0,1-.3-.512l0-3.987c0-.187.135-.264.3-.17l.081.047A.651.651,0,0,1,45.192,30.435Z"/><path class="cls-7" d="M45.24,29.908a.736.736,0,0,1,.115.18.573.573,0,0,1,.051.223l0,3.987a.208.208,0,0,1-.086.191l-.214.125a.208.208,0,0,0,.086-.191l0-3.988a.572.572,0,0,0-.051-.222.736.736,0,0,0-.115-.18.531.531,0,0,0-.13-.109l-.081-.047a.211.211,0,0,0-.211-.02l.214-.125a.211.211,0,0,1,.211.02l.081.047A.531.531,0,0,1,45.24,29.908Z"/><path class="cls-7" d="M45.246,25.908a.717.717,0,0,1,.115.18.568.568,0,0,1,.051.222l0,1.89a.208.208,0,0,1-.086.191l-.214.125a.208.208,0,0,0,.086-.191l0-1.89a.568.568,0,0,0-.051-.222.7.7,0,0,0-.115-.18.49.49,0,0,0-.13-.109l-.081-.047a.206.206,0,0,0-.211-.02l.214-.125a.211.211,0,0,1,.211.02l.081.047A.51.51,0,0,1,45.246,25.908Z"/><path class="cls-6" d="M45.2,26.435l0,1.89c0,.189-.132.265-.3.17l-.082-.047a.652.652,0,0,1-.3-.511l0-1.891c0-.187.135-.263.3-.169l.081.047A.649.649,0,0,1,45.2,26.435Z"/><polygon class="cls-5" points="69.054 8.631 57.807 15.125 57.081 13.885 69.78 6.553 69.054 8.631"/><path class="cls-8" d="M66.469,63.62v.674a1.215,1.215,0,0,1-.591.943l-2.085,1.207a.659.659,0,0,1-.323.1.38.38,0,0,1-.379-.419v-.675a1.215,1.215,0,0,1,.591-.943L65.767,63.3a.662.662,0,0,1,.323-.1A.38.38,0,0,1,66.469,63.62Z"/><path class="cls-5" d="M66.3,63.506v.68a1.231,1.231,0,0,1-.6.95l-2.1,1.216a.664.664,0,0,1-.326.1.37.37,0,0,1-.106-.021.446.446,0,0,1-.1-.3v-.68a1.229,1.229,0,0,1,.6-.95l2.1-1.216a.664.664,0,0,1,.326-.1.363.363,0,0,1,.106.021A.448.448,0,0,1,66.3,63.506Z"/><path class="cls-9" d="M63.694,10.469a.747.747,0,0,0-.338.585c0,.215.153.3.34.194a.747.747,0,0,0,.338-.585C64.033,10.448,63.881,10.361,63.694,10.469Z"/><path class="cls-10" d="M63.446,10.993a.55.55,0,0,1,.26-.426c.14-.076.25-.007.246.152a.55.55,0,0,1-.26.426C63.552,11.221,63.442,11.152,63.446,10.993Z"/><path class="cls-10" d="M63.566,10.941a.3.3,0,0,1,.142-.231c.076-.041.135,0,.133.083a.3.3,0,0,1-.142.231C63.623,11.065,63.564,11.028,63.566,10.941Z"/><path class="cls-11" d="M63.652,10.894a.111.111,0,0,1,.053-.085c.028-.015.05,0,.049.03a.109.109,0,0,1-.052.086C63.674,10.94,63.652,10.926,63.652,10.894Z"/><path class="cls-9" d="M68.542,8.21,66.379,9.458c-.134.077-.242.031-.242-.1a.5.5,0,0,1,.242-.382l2.163-1.248c.134-.077.242-.031.242.1A.5.5,0,0,1,68.542,8.21Z"/><path class="cls-9" d="M60.73,12.72l-2.163,1.248c-.133.077-.242.031-.242-.1a.5.5,0,0,1,.242-.382l2.163-1.248c.134-.077.242-.031.242.1A.5.5,0,0,1,60.73,12.72Z"/><polygon class="cls-12" points="85.067 56.908 50.699 76.751 50.699 26.374 85.067 6.531 85.067 56.908"/><polygon class="cls-13" points="85.067 6.719 50.699 26.561 50.699 22.901 85.067 3.059 85.067 6.719"/><polygon class="cls-13" points="74.149 33.316 62.811 39.862 62.811 27.006 74.149 20.46 74.149 33.316"/><path class="cls-14" d="M66.763,32.015a14.394,14.394,0,0,1,3.379-1.955,4.349,4.349,0,0,1,.153,1.528s-1.644,1.677-1.677,1.7-1.291.046-1.33.055a3.918,3.918,0,0,1-.372-.593c-.007-.016-.626.053-.626.053Z"/><path class="cls-15" d="M67.121,30.167V31.76c.436,1,2.547-.322,2.547-1.47V28.207Z"/><path class="cls-14" d="M70.373,27.007c0,1.359-.9,3.8-2.019,4.445s-2.019-.755-2.019-2.113a4.588,4.588,0,0,1,2.019-3.625C69.469,25.07,70.373,25.649,70.373,27.007Z"/><path class="cls-16" d="M71.849,29.569l-1.707.491c-.111,1.726-2.639,3.444-3.387,1.956l-1.611,1.4a3.347,3.347,0,0,0-.879,1.206,12.434,12.434,0,0,0-.866,4.907l1.3-.746L72.2,34.453l1.307-.755c0-2.4-.461-3.439-.835-3.89A.784.784,0,0,0,71.849,29.569Z"/><path class="cls-17" d="M68.891,25.216c1.053-.474,1.441.158,1.508.56a5.92,5.92,0,0,1-.257,2.69,4.86,4.86,0,0,0-.025-1.693.252.252,0,0,0-.305-.113,10.546,10.546,0,0,0-1.975.773A1.944,1.944,0,0,0,66.623,28.7a4.315,4.315,0,0,0,0,1.963s-.637-.761-.146-2.888a2.343,2.343,0,0,1,.269-.651,2.012,2.012,0,0,1,.218-.3,3.046,3.046,0,0,0,.263-.244A3.2,3.2,0,0,1,68.891,25.216Z"/><path class="cls-13" d="M62.664,40.117v-13.2l.074-.042L74.3,20.2V33.4l-.074.042Zm.294-13.026V39.607L74,33.231V20.715Z"/><path class="cls-18" d="M76.432,38.8,61.1,47.651c-.79.456-1.43.185-1.43-.605A2.966,2.966,0,0,1,61.1,44.79l15.337-8.855c.79-.456,1.431-.185,1.431.6A2.967,2.967,0,0,1,76.432,38.8Z"/><path class="cls-18" d="M76.432,43.786,61.1,52.641c-.79.456-1.43.186-1.43-.6a2.966,2.966,0,0,1,1.43-2.256l15.337-8.855c.79-.456,1.431-.186,1.431.6A2.967,2.967,0,0,1,76.432,43.786Z"/><path class="cls-13" d="M65.382,55.2l-4.351,2.512c-.79.456-1.43.186-1.43-.6a2.966,2.966,0,0,1,1.43-2.256l4.351-2.512c.79-.457,1.431-.186,1.431.6A2.967,2.967,0,0,1,65.382,55.2Z"/><polygon class="cls-19" points="59.722 31.794 38.489 44.053 38.489 16.116 59.722 3.857 59.722 31.794"/><polygon class="cls-20" points="59.722 4.045 38.489 16.304 38.489 12.644 59.722 0.385 59.722 4.045"/><path class="cls-21" d="M57.782,11.025a.129.129,0,0,0-.094-.069l-1.147-.237a.547.547,0,0,0-.372.086l-7.514,4.329a.832.832,0,0,1-.723.117l-.1-.044a.5.5,0,0,0-.435.07l-.806.464c-.6-.587-1.65-.6-2.846.085a7.034,7.034,0,0,0-3.394,5.346c0,1.873,1.514,2.517,3.386,1.439a7.5,7.5,0,0,0,2.97-3.464l.952-.549a.416.416,0,0,0,.135-.13l.551-.823A.755.755,0,0,1,48.6,17.4l.179-.1c.137-.075.3-.167.479-.264s.355-.2.517-.287c.244-.137.447-.253.527-.3.1-.064.477-.432.7-.633a.731.731,0,0,1,.317-.182c.2-.046.557-.125.77-.17a.291.291,0,0,0,.089-.037.435.435,0,0,0,.088-.071c.091-.093.22-.226.3-.311a.93.93,0,0,1,.32-.157c.144-.051.308-.1.435-.145a.783.783,0,0,0,.189-.089c.074-.058.261-.225.463-.409.051-.045.1-.092.154-.139l.4-.37a.483.483,0,0,1,.265-.136l.222-.02.269-.024.459-.04a.406.406,0,0,0,.169-.058.737.737,0,0,0,.169-.137l1.538-1.649C57.832,11.415,57.884,11.149,57.782,11.025ZM42.09,21.188c-.563.324-1.019.13-1.019-.434a2.116,2.116,0,0,1,1.022-1.608c.563-.325,1.019-.131,1.019.433A2.118,2.118,0,0,1,42.09,21.188Z"/><path class="cls-18" d="M48.149,24.181l1.82-1.05v.434l-1.82,1.05Zm-2.337,4.795-2.834,1.636v.434l3.356-1.937,1.163-.672V28l-1.685.973Zm2.511-2.738V25.8l-1.421.821-.935.539V27.6l.935-.54ZM45.3,27.548l-2.33,1.345v.435l2.33-1.346Zm1.2-1.983L47.482,25v-.434l-1.684.972-2.812,1.624V27.6l3.519-2.031Zm-2.76-.13,2.293-1.324v-.434L43.745,25,43,25.43v.434l.743-.429Zm4.578-2.643.737-.426v-.434l-.974.562-1.382.8v.434l1.619-.934Zm1.66,3.776-1.82,1.05v.435L49.983,27Zm-3.551,8.277-3.451,1.993v.434l3.451-1.993Zm-3.423,3.7v.434l.693-.4L46.6,36.9V36.47l-2.464,1.422Zm6.974-9.195-2.5,1.444-1.67.964v.434l1.67-.964,2.5-1.444Zm-.359,5.376L49,35.086l-1.728,1v.434l1.382-.8.973-.562Zm-4.578-.8-2.063,1.191v.435l2.063-1.192,2.293-1.324V32.6l-2.293,1.324Zm2.96-1.709v.435l1.21-.7v-.434ZM47.1,34.894l2.18-1.259V33.2L47.1,34.46Zm-4.121-1.067,2.168-1.251v-.434l-2.168,1.251Zm12.4-10.372-1.7.98v.434l1.7-.98ZM55.35,18.3l-1.019.589v.434l1.019-.588Zm-1.686.974-.878.507v.434l.878-.507Zm1.7.74-1.675.967v.434l1.675-.967Zm-2.511,3.172-.715.413v.434l.715-.412Zm.667.05,1.859-1.074v-.434L53.523,22.8Zm1.821,8.186-1.578.911v.434l1.578-.911Zm.028-1.739L52.391,31.4v.435l2.981-1.722ZM53.1,32.718l-.879.507v.434l.879-.507Zm-.071-2.971L55.37,28.4v-.434l-2.341,1.352Zm.649-2.1,1.7-.98v-.434l-1.7.98Zm4.33-5.715-.727.419v.434l.727-.419Zm-.025-5.155-1.019.589V17.8l1.019-.589ZM58,18.493l-.7.407v.434l.7-.406Zm-.874,2.228v.434l.889-.513v-.434Zm.851,9.181-.607.351v.434l.607-.351Zm.028-1.739-.908.524v.435l.908-.525Zm-.4-1.057.4-.231v-.434l-.4.231Zm-.322-1.537.727-.419v-.434l-.727.419ZM40.457,32.5l.755-.436v-.434l-.755.436Zm-.024-5.155.461-.266v-.434l-.461.266Zm.017,1.713.776-.448v-.434l-.776.448Zm.014,1.281v.434l.593-.342V30Zm-.037,10.128.874-.505V39.53l-.874.5Zm.028-1.739.572-.331v-.434l-.572.331Zm1.079-2.78-1.081.624v.434l1.081-.624Zm-.322-1.537-.755.436v.434l.755-.436Z"/><path class="cls-22" d="M61.261,51.084a.673.673,0,0,1-.321.515c-.178.1-.322.038-.322-.144a.673.673,0,0,1,.322-.515C61.117,50.838,61.261,50.9,61.261,51.084Zm1.006-.91a.673.673,0,0,0-.322.515c0,.182.144.247.322.144a.673.673,0,0,0,.321-.515C62.588,50.136,62.444,50.072,62.267,50.174Zm1.326-.766a.675.675,0,0,0-.321.515c0,.182.144.246.321.144a.672.672,0,0,0,.322-.515C63.915,49.37,63.771,49.306,63.593,49.408Zm1.327-.766a.675.675,0,0,0-.321.515c0,.182.144.246.321.144a.673.673,0,0,0,.322-.515C65.242,48.6,65.1,48.54,64.92,48.642Zm1.327-.766a.675.675,0,0,0-.321.515c0,.182.144.246.321.144a.672.672,0,0,0,.321-.515C66.568,47.838,66.425,47.774,66.247,47.876Zm1.327-.766a.673.673,0,0,0-.322.515c0,.182.144.246.322.144a.675.675,0,0,0,.321-.515C67.9,47.072,67.751,47.008,67.574,47.11Zm1.327-.766a.673.673,0,0,0-.322.515c0,.182.144.246.322.144a.675.675,0,0,0,.321-.515C69.222,46.306,69.078,46.242,68.9,46.344Zm1.326-.766a.675.675,0,0,0-.321.515c0,.182.144.246.321.144a.673.673,0,0,0,.322-.515C70.549,45.54,70.405,45.476,70.227,45.578Z"/><path class="cls-22" d="M60.993,45.9v.77c0,.171.094.2.239.112a.747.747,0,0,0,.307-.352v-.846l.146-.084v.812l.012.313-.121.069-.023-.144a.891.891,0,0,1-.368.394c-.221.128-.336.042-.336-.169v-.792Z"/><path class="cls-22" d="M62.663,45.759c0-.154-.088-.14-.3-.035-.3.146-.383.089-.383-.08a.714.714,0,0,1,.41-.572c.3-.175.413-.08.413.142a1.431,1.431,0,0,1-.144.091c0-.162-.062-.226-.269-.107a.446.446,0,0,0-.264.349c0,.118.054.15.294.031.277-.136.4-.124.4.083a.743.743,0,0,1-.426.59c-.312.18-.425.057-.425-.116a1.481,1.481,0,0,1,.146-.093c0,.124.061.209.279.083A.467.467,0,0,0,62.663,45.759Z"/><path class="cls-22" d="M63.2,45.252c.006.244.108.339.329.212a.57.57,0,0,0,.313-.441l.139-.081a.837.837,0,0,1-.452.648c-.333.192-.477.023-.477-.291a.974.974,0,0,1,.467-.882c.323-.186.462-.015.462.3V44.8Zm0-.123.633-.366c-.008-.241-.106-.34-.316-.219A.66.66,0,0,0,63.2,45.129Z"/><path class="cls-22" d="M64.714,43.731v.143a.747.747,0,0,0-.323.357v.839l-.146.084v-.811l-.012-.313.121-.07.02.138a.782.782,0,0,1,.309-.351A.316.316,0,0,1,64.714,43.731Z"/><path class="cls-22" d="M65.555,44.4l-.15.087V42.82l.15-.087Z"/><path class="cls-22" d="M66.324,43.954,65.9,44.2V42.537l.429-.248c.4-.229.629-.15.629.426V42.8A1.21,1.21,0,0,1,66.324,43.954Zm-.013-.131a.967.967,0,0,0,.488-.933v-.085c0-.475-.175-.551-.488-.37l-.266.154v1.388Z"/><path class="cls-13" d="M73.012,57.416a4.821,4.821,0,0,1-2.323,3.666c-1.284.741-2.324.3-2.324-.983a4.818,4.818,0,0,1,2.324-3.665C71.972,55.693,73.012,56.133,73.012,57.416Z"/><path class="cls-18" d="M71.235,57.794l-.348.2-.031.185c-.077-.075-.2-.088-.394.023a1.083,1.083,0,0,0-.524.956v.1c0,.379.173.554.524.351a.962.962,0,0,0,.394-.431l.031.149.3-.171a1.417,1.417,0,0,0,.773-1.319v-.084c0-.8-.6-.774-1.283-.378a2.6,2.6,0,0,0-1.37,2.158v.113c0,.884.581,1.033,1.385.569A3.485,3.485,0,0,0,71.8,59.2l-.167-.13a3.2,3.2,0,0,1-.934.848c-.651.376-1.095.279-1.095-.443V59.36a2,2,0,0,1,1.064-1.691c.5-.286.988-.4.988.256v.085a.833.833,0,0,1-.445.84V58.2Zm-.413,1.127a.641.641,0,0,1-.238.271c-.164.094-.238.018-.238-.172v-.1a.486.486,0,0,1,.238-.446c.122-.07.2-.038.238,0Z"/><path class="cls-13" d="M79.7,53.556a4.823,4.823,0,0,1-2.324,3.666c-1.284.741-2.324.3-2.324-.983a4.818,4.818,0,0,1,2.324-3.665C78.661,51.833,79.7,52.273,79.7,53.556Z"/><polygon class="cls-18" points="78.939 53.688 78.149 53.588 77.36 53.487 76.712 54.317 76.712 53.991 76.377 54.185 76.377 54.747 75.781 55.512 76.073 55.343 76.073 56.721 78.646 55.236 78.646 53.857 78.939 53.688"/><path class="cls-13" d="M59.851,65.014a4.823,4.823,0,0,1-2.324,3.666c-1.283.741-2.324.3-2.324-.983a4.821,4.821,0,0,1,2.324-3.665C58.81,63.291,59.851,63.731,59.851,65.014Z"/><path class="cls-18" d="M58.314,64.445l-.191.05a.236.236,0,0,0-.144.158l-.236.886c-.019.072.014.117.075.1l.19-.05a.2.2,0,0,0,.093-.066.359.359,0,0,1-.032.376l-.581,1.053a.634.634,0,0,1-.343.3.1.1,0,0,0-.008-.09l-.1-.117c-.031-.037-.1-.016-.156.047l-.685.782c-.055.063-.074.144-.043.182l.1.117c.049.057.13-.026.23-.072a.745.745,0,0,1,.263-.069,1.316,1.316,0,0,0,.872-.756l.872-1.58c.232-.421.281-.8.067-.944a.356.356,0,0,1-.136-.162C58.389,64.518,58.407,64.421,58.314,64.445Z"/><path class="cls-13" d="M66.408,61.228a4.818,4.818,0,0,1-2.324,3.666c-1.283.741-2.323.3-2.323-.983a4.82,4.82,0,0,1,2.323-3.665C65.368,59.505,66.408,59.945,66.408,61.228Z"/><path class="cls-18" d="M62.481,64.564a.068.068,0,0,1-.058.01.045.045,0,0,1-.024-.045V62.678c.04-.1.06-.118.082-.131L65.7,60.686c.046-.026.083-.01.083.035v1.852a.172.172,0,0,1-.083.131ZM65.5,62.657l-.725-.3-.633,1a.2.2,0,0,1-.059.059.072.072,0,0,1-.058.009l-.65-.284-.7,1.152Zm.123-.182V61.016l-.73,1.152Zm-3.057,1.749.693-1.138-.693-.3Zm1.518-1.015L65.5,60.968,62.68,62.6Z"/></g></g></g></svg>