<svg xmlns="http://www.w3.org/2000/svg" xmlns:xlink="http://www.w3.org/1999/xlink" viewBox="0 0 87.331 84.546"><defs><style>.cls-1{fill:none;}.cls-2{isolation:isolate;}.cls-3{fill:#50197c;opacity:0.4;mix-blend-mode:multiply;}.cls-4{fill:url(#_ÂÁ_Ï_ÌÌ_È_ËÂÌÚ_95);}.cls-5{fill:url(#_ÂÁ_Ï_ÌÌ_È_ËÂÌÚ_815);}.cls-6{fill:#353131;}.cls-7{fill:#262424;}.cls-8{fill:#191414;}.cls-9{fill:#f6f4f7;}.cls-10{fill:#cbc6cf;}.cls-11,.cls-12{fill:#cfd5d5;}.cls-11,.cls-19{opacity:0.1;}.cls-12{opacity:0.2;mix-blend-mode:screen;}.cls-13{fill:#cfe9ff;}.cls-13,.cls-17{opacity:0.7;}.cls-14{fill:#dd5cd2;}.cls-15{fill:#455cba;opacity:0.5;}.cls-16{fill:#ffc522;}.cls-17,.cls-18,.cls-19{fill:#eb9a1e;}.cls-18{opacity:0.3;}.cls-20{clip-path:url(#clip-path);}.cls-21{fill:#fffaeb;}.cls-22{fill:#a072cc;}.cls-23{fill:#db3e3e;}</style><linearGradient id="_ÂÁ_Ï_ÌÌ_È_ËÂÌÚ_95" x1="35.517" y1="14.725" x2="71.142" y2="66.35" gradientUnits="userSpaceOnUse"><stop offset="0" stop-color="#5917ff"/><stop offset="0.159" stop-color="#6d22f8"/><stop offset="0.485" stop-color="#a13de7"/><stop offset="0.946" stop-color="#f569ca"/><stop offset="1" stop-color="#ff6ec7"/></linearGradient><linearGradient id="_ÂÁ_Ï_ÌÌ_È_ËÂÌÚ_815" x1="48.719" y1="29.917" x2="56.719" y2="29.917" gradientTransform="matrix(0.5, -0.866, -0.866, -0.5, 51.285, 88.691)" gradientUnits="userSpaceOnUse"><stop offset="0" stop-color="#c0b9c8"/><stop offset="1" stop-color="#f6f4f7"/></linearGradient><clipPath id="clip-path"><polygon class="cls-1" points="54.137 44.119 55.341 44.628 71.652 44.343 85.362 27.538 86.129 25.649 87.331 0 53.282 17.956 54.137 44.119"/></clipPath></defs><g class="cls-2"><g id="_0" data-name="0"><g id="_1" data-name="1"><path class="cls-3" d="M43.631,65.762l-15.454.058A9.3,9.3,0,0,0,23.482,66.9L2.144,79.224c-2.993,1.414-3.056,5.242,1.112,5.23l37.969.012,2.406-1.594Z"/><path class="cls-4" d="M63.877,2.765,39.5,16.836a1.434,1.434,0,0,0-.715,1.24V78.252c0,1.1.553,2.8,2.7,2.354L64.035,67.769a10.458,10.458,0,0,0,4.309-4.637,8.2,8.2,0,0,0,.7-2.442l.06-56.365C69.106,1.952,65.932,1.579,63.877,2.765Z"/><path class="cls-5" d="M68.082,2.1a3.25,3.25,0,0,0-3.277.32L42.872,15.077a10.115,10.115,0,0,0-4.591,7.948l-.022,58.257A3.219,3.219,0,0,0,39.6,84.235l-1.98-1.154a3.224,3.224,0,0,1-1.343-2.953L36.3,21.87a10.113,10.113,0,0,1,4.591-7.948L62.826,1.265A3.248,3.248,0,0,1,66.1.944Z"/><path class="cls-6" d="M64.805,2.419,42.872,15.077a10.113,10.113,0,0,0-4.591,7.948l-.023,58.257c.008,2.921,2.078,4.1,4.62,2.634L64.811,71.259A10.125,10.125,0,0,0,69.4,63.31l.023-58.258C69.417,2.128,67.347.952,64.805,2.419Zm4,58.73a2.461,2.461,0,0,1-1.23,2.129L61.1,67.017,47.57,74.822l-7.3,4.211a.8.8,0,0,1-1.2-.693L39.082,24A10.236,10.236,0,0,1,44.2,15.14l3.161-1.825a.731.731,0,0,1,.547-.073l2.2.574a.626.626,0,0,0,.473-.064L57.311,9.87a.95.95,0,0,0,.262-.223l3.333-4.065a1.1,1.1,0,0,1,.3-.256l4.432-2.558A2.117,2.117,0,0,1,68.814,4.6Z"/><path class="cls-7" d="M56.453,71.025a1.459,1.459,0,0,0-.71.215l-2.46,1.419a2.678,2.678,0,0,0-1.3,2.071v1.293a.834.834,0,0,0,.831.923,1.459,1.459,0,0,0,.71-.215l2.46-1.42a2.676,2.676,0,0,0,1.3-2.07V71.948A.834.834,0,0,0,56.453,71.025Z"/><path class="cls-6" d="M55.7,75.163a2.7,2.7,0,0,0,1.311-2.086v-1.3a.939.939,0,0,0-.292-.717A.857.857,0,0,0,56.449,71a1.468,1.468,0,0,0-.715.216l-2.476,1.429a2.7,2.7,0,0,0-1.311,2.086v1.3a.935.935,0,0,0,.292.716.829.829,0,0,0,.268.053,1.459,1.459,0,0,0,.715-.217Z"/><path class="cls-8" d="M56.422,9.283,52.477,11.56c-.251.146-.455.059-.455-.192a.945.945,0,0,1,.455-.719l3.945-2.277c.252-.145.456-.059.456.193A.944.944,0,0,1,56.422,9.283Z"/><path class="cls-9" d="M37.391,32.963a1.344,1.344,0,0,1,.221.348,1.084,1.084,0,0,1,.1.429v4.843a.4.4,0,0,1-.166.368l-.414.24a.4.4,0,0,0,.166-.368V33.981a1.072,1.072,0,0,0-.1-.43,1.344,1.344,0,0,0-.221-.348.981.981,0,0,0-.25-.21L36.57,32.9a.4.4,0,0,0-.407-.039l.414-.241a.406.406,0,0,1,.407.039l.157.091A1.007,1.007,0,0,1,37.391,32.963Z"/><path class="cls-10" d="M37.3,33.981v4.842c0,.366-.256.511-.574.327l-.157-.09a1.257,1.257,0,0,1-.571-.989V33.229c0-.361.259-.509.574-.327l.157.091A1.255,1.255,0,0,1,37.3,33.981Z"/><path class="cls-9" d="M37.391,25.575a1.344,1.344,0,0,1,.221.348,1.085,1.085,0,0,1,.1.43V31.2a.4.4,0,0,1-.166.368l-.414.24a.4.4,0,0,0,.166-.368V26.593a1.072,1.072,0,0,0-.1-.43,1.344,1.344,0,0,0-.221-.348,1.024,1.024,0,0,0-.25-.21l-.157-.091a.4.4,0,0,0-.407-.039l.414-.241a.406.406,0,0,1,.407.039l.157.091A1.007,1.007,0,0,1,37.391,25.575Z"/><path class="cls-10" d="M37.3,26.593v4.842c0,.366-.256.511-.574.327l-.157-.09a1.257,1.257,0,0,1-.571-.989V25.841c0-.361.259-.509.574-.327l.157.091A1.255,1.255,0,0,1,37.3,26.593Z"/><path class="cls-8" d="M50.582,11.624a1.253,1.253,0,0,0-.568.984c0,.362.256.508.571.326a1.251,1.251,0,0,0,.569-.984C51.153,11.589,50.9,11.443,50.582,11.624Z"/><path class="cls-11" d="M50.164,12.505a.927.927,0,0,1,.439-.716c.235-.127.421-.013.414.256a.928.928,0,0,1-.439.717C50.343,12.889,50.157,12.774,50.164,12.505Z"/><path class="cls-11" d="M50.366,12.419a.507.507,0,0,1,.239-.39c.128-.069.228-.006.225.14a.5.5,0,0,1-.239.389C50.463,12.627,50.363,12.565,50.366,12.419Z"/><path class="cls-12" d="M50.512,12.34A.187.187,0,0,1,50.6,12.2c.048-.026.085,0,.084.051a.189.189,0,0,1-.089.145C50.548,12.417,50.511,12.394,50.512,12.34Z"/><polygon class="cls-13" points="45.462 27.913 45.461 79.142 76.095 61.455 76.096 10.227 45.462 27.913"/><polygon class="cls-14" points="76.096 10.424 45.462 28.111 45.462 22.458 76.096 4.771 76.096 10.424"/><polygon class="cls-15" points="76.096 27.034 68.456 24.531 52.087 48.119 52.087 68.159 76.095 54.298 76.096 27.034"/><g id="_2" data-name="2"><path class="cls-16" d="M70.507,32.322l-16.37,11.8v20.04l31.992-18.47V25.649Z"/><polygon class="cls-14" points="54.137 44.119 55.341 44.628 71.652 44.343 85.362 27.538 86.129 25.649 70.507 20.531 54.137 44.119"/><polygon class="cls-17" points="54.137 44.119 54.137 64.159 55.341 62.529 55.341 44.628 54.137 44.119"/><polygon class="cls-18" points="85.36 45.198 55.341 62.529 54.137 64.159 86.129 45.689 85.36 45.198"/><polygon class="cls-19" points="85.357 27.529 85.36 45.198 86.129 45.689 86.129 25.649 85.357 27.529"/><path class="cls-17" d="M85.4,45.14c-.031-.011-13.646-.924-13.646-.924l-.1.122,13.69.919.72.468.063-.036v-.076Z"/><path class="cls-17" d="M55.289,62.491l-1.152,1.561v.107l.14-.08,1.112-1.507,16.267-18.23-.175,0Z"/></g><g class="cls-20"><polygon class="cls-21" points="82.988 38.268 57.626 52.911 57.626 32.772 82.988 18.13 82.988 38.268"/><path class="cls-22" d="M78.578,31.459,61.9,41.091c-.867.5-1.57.2-1.57-.664V37.162a3.256,3.256,0,0,1,1.57-2.476l16.682-9.631c.867-.5,1.57-.2,1.57.663v3.265A3.255,3.255,0,0,1,78.578,31.459Z"/></g><path class="cls-21" d="M46.549,25.439v-.154a.114.114,0,0,1,.066-.1l.215-.124c.045-.026.067-.018.067.026v.126c0,.285.142.347.424.184l.42-.243a.757.757,0,0,0,.424-.683v-.163c0-.228-.189-.269-.568-.12-.158.063-.317.121-.475.175a.584.584,0,0,1-.406.013c-.11-.046-.167-.165-.167-.355v-.233a1.146,1.146,0,0,1,.189-.626,1.469,1.469,0,0,1,.517-.487l.529-.306a.612.612,0,0,1,.515-.108c.127.052.19.186.19.406v.119a.118.118,0,0,1-.062.108l-.219.126c-.042.025-.062.012-.062-.036V22.9c0-.29-.141-.354-.424-.19l-.405.234a.767.767,0,0,0-.425.7v.19c0,.163.107.212.321.15.094-.029.2-.067.314-.114s.228-.083.346-.118a1.5,1.5,0,0,1,.316-.058.265.265,0,0,1,.231.091.461.461,0,0,1,.088.313v.215a1.143,1.143,0,0,1-.191.626,1.455,1.455,0,0,1-.514.486l-.548.317a.607.607,0,0,1-.516.108C46.612,25.793,46.549,25.658,46.549,25.439Zm4.3-1.777-1.011.583a.614.614,0,0,1-.516.112c-.126-.051-.189-.187-.189-.41v-1.02a1.146,1.146,0,0,1,.189-.629,1.458,1.458,0,0,1,.516-.484l.4-.232a.611.611,0,0,1,.515-.111c.124.052.185.191.185.413v.606a.117.117,0,0,1-.066.108l-1.349.779a.084.084,0,0,0-.048.072v.29c0,.277.133.338.4.184l.972-.561c.044-.026.067-.018.067.028v.171A.118.118,0,0,1,50.849,23.662Zm-1.325-.537,1.03-.595a.084.084,0,0,0,.048-.075v-.367c0-.273-.135-.333-.4-.179l-.324.188a.71.71,0,0,0-.4.642v.366C49.476,23.138,49.493,23.143,49.524,23.125Zm3.416-.909v.176a.118.118,0,0,1-.066.1l-.692.4a.617.617,0,0,1-.516.112c-.126-.051-.189-.187-.189-.411v-1.02a1.145,1.145,0,0,1,.189-.628,1.458,1.458,0,0,1,.516-.484l.692-.4c.043-.025.066-.015.066.029v.176a.114.114,0,0,1-.066.1l-.653.377a.711.711,0,0,0-.4.644v.991q0,.416.4.187l.653-.377C52.917,22.163,52.94,22.171,52.94,22.216Zm1.417-.58-.267.154a.575.575,0,0,1-.505.106c-.121-.054-.182-.191-.182-.415V19.823a.119.119,0,0,1,.066-.105l.215-.124c.045-.026.067-.016.067.028v1.644q0,.416.4.187l.272-.157a.96.96,0,0,0,.329-.3.718.718,0,0,0,.114-.39V18.98a.116.116,0,0,1,.066-.105l.215-.124c.045-.026.066-.015.066.029v2.3a.116.116,0,0,1-.066.1l-.215.124c-.045.026-.066.016-.066-.028v-.186A1.153,1.153,0,0,1,54.357,21.636Zm1.79-1.034-.214.124c-.044.026-.067.016-.067-.028V18.4a.118.118,0,0,1,.067-.1l.214-.124c.045-.026.068-.016.068.028v.191a1.366,1.366,0,0,1,.2-.3,1.2,1.2,0,0,1,.313-.257l.186-.108c.041-.024.062-.013.062.031v.176a.112.112,0,0,1-.014.059.1.1,0,0,1-.048.039l-.257.148a.893.893,0,0,0-.329.319.815.815,0,0,0-.114.419V20.5A.118.118,0,0,1,56.147,20.6Zm2.927-1.689-1.01.583a.62.62,0,0,1-.517.113c-.125-.052-.189-.188-.189-.411v-1.02a1.154,1.154,0,0,1,.189-.629,1.47,1.47,0,0,1,.517-.484l.4-.231a.609.609,0,0,1,.515-.112c.125.052.185.191.185.413v.606a.12.12,0,0,1-.066.109l-1.349.778a.084.084,0,0,0-.048.072v.29q0,.416.4.184l.972-.561c.046-.026.068-.018.068.028v.171A.115.115,0,0,1,59.074,18.913Zm-1.325-.537,1.03-.6a.084.084,0,0,0,.048-.075V17.34q0-.411-.4-.18l-.324.188a.712.712,0,0,0-.4.642v.366C57.7,18.389,57.718,18.394,57.749,18.376Zm4.629-1.608v.176a.116.116,0,0,1-.066.1l-.692.4a.615.615,0,0,1-.517.112c-.125-.051-.189-.187-.189-.41v-1.02A1.154,1.154,0,0,1,61.1,15.5a1.479,1.479,0,0,1,.517-.484l.692-.4c.043-.026.066-.016.066.028v.176a.114.114,0,0,1-.066.1l-.654.378a.708.708,0,0,0-.4.643v.991c0,.277.131.34.4.187l.654-.377C62.355,16.714,62.378,16.722,62.378,16.768Zm1.555-.66-.411.237a.617.617,0,0,1-.516.112c-.126-.051-.189-.187-.189-.41v-1.02a1.146,1.146,0,0,1,.189-.629,1.458,1.458,0,0,1,.516-.484l.411-.237a.614.614,0,0,1,.516-.113c.126.051.189.189.189.411V15a1.146,1.146,0,0,1-.189.629A1.494,1.494,0,0,1,63.933,16.108Zm-.373-.09.335-.193a.711.711,0,0,0,.4-.641v-1c0-.273-.133-.334-.4-.18l-.335.193a.713.713,0,0,0-.4.642v1C63.159,16.113,63.293,16.172,63.56,16.018Zm2.608-1.2-.281.162a.58.58,0,0,1-.506.106c-.121-.054-.181-.191-.181-.414V13.65a1.16,1.16,0,0,1,.181-.624,1.429,1.429,0,0,1,.506-.478l.281-.162q.372-.214.491-.031c.018-.01.018-1.115.018-1.115a.112.112,0,0,1,.062-.1l.22-.127c.041-.024.062-.015.062.031v3.216a.113.113,0,0,1-.062.1l-.22.127c-.041.024-.062.013-.062-.031V14.27A1.148,1.148,0,0,1,66.168,14.817Zm.509-1.037v-.945c0-.138-.038-.226-.114-.257a.391.391,0,0,0-.329.075l-.291.167a.712.712,0,0,0-.395.644v.991q0,.415.395.187l.291-.168a.933.933,0,0,0,.329-.3A.715.715,0,0,0,66.677,13.78Zm2.669-.8-1.011.583a.614.614,0,0,1-.516.112c-.126-.051-.189-.187-.189-.41v-1.02a1.146,1.146,0,0,1,.189-.629,1.458,1.458,0,0,1,.516-.484l.4-.232a.611.611,0,0,1,.515-.111c.124.052.185.191.185.413v.606a.117.117,0,0,1-.067.108L68.02,12.7a.083.083,0,0,0-.048.072v.29c0,.277.135.338.4.184l.973-.561c.045-.026.067-.018.067.027v.171A.117.117,0,0,1,69.346,12.983Zm-1.326-.537,1.031-.595a.084.084,0,0,0,.048-.075v-.367c0-.273-.135-.333-.4-.179l-.325.187a.715.715,0,0,0-.4.642v.367C67.972,12.459,67.989,12.463,68.02,12.446Z"/><path class="cls-23" d="M87.331,14.951a6.681,6.681,0,0,1-3.221,5.081c-1.779,1.028-3.221.418-3.221-1.361A6.681,6.681,0,0,1,84.11,13.59C85.889,12.563,87.331,13.172,87.331,14.951Z"/><path class="cls-21" d="M82.962,16.5v-.592a.39.39,0,0,1,.108-.25l.657-.792a1.232,1.232,0,0,1,.282-.264l.578-.333c.1-.059.152-.037.152.064v4.341a.252.252,0,0,1-.033.138.308.308,0,0,1-.112.1l-.621.358c-.1.059-.151.037-.151-.064V15.686l-.709.813C83.012,16.6,82.962,16.6,82.962,16.5Z"/><path class="cls-21" d="M63.473,36.565c.239.276.1.886-.317,1.364s-.942.641-1.181.366-.1-.887.316-1.365S63.234,36.289,63.473,36.565Zm1.784-1.347c-.414.478-.556,1.089-.317,1.365s.768.112,1.181-.366.556-1.088.317-1.364S65.67,34.741,65.257,35.218Zm2.965-1.712c-.414.478-.556,1.089-.317,1.365s.768.112,1.182-.366.555-1.088.316-1.364S68.635,33.029,68.222,33.506Zm2.965-1.712c-.414.478-.555,1.089-.317,1.365s.768.112,1.182-.366.555-1.088.316-1.364S71.6,31.317,71.187,31.794Zm2.965-1.711c-.414.477-.555,1.088-.316,1.364s.767.112,1.181-.366.555-1.088.317-1.364S74.566,29.605,74.152,30.083Zm2.965-1.712c-.413.477-.555,1.088-.316,1.364s.768.112,1.181-.366.556-1.088.317-1.364S77.531,27.893,77.117,28.371Z"/></g></g></g></svg>